<?xml version="1.0" encoding="UTF-8" standalone="no"?>
<svg
   width="48"
   height="48"
   version="1.1"
   viewBox="0 0 12.699752 12.699752"
   id="svg58"
   sodipodi:docname="gedit2.svg"
   inkscape:version="1.3.2 (091e20ef0f, 2023-11-25)"
   xmlns:inkscape="http://www.inkscape.org/namespaces/inkscape"
   xmlns:sodipodi="http://sodipodi.sourceforge.net/DTD/sodipodi-0.dtd"
   xmlns="http://www.w3.org/2000/svg"
   xmlns:svg="http://www.w3.org/2000/svg">
  <defs
     id="defs58" />
  <sodipodi:namedview
     id="namedview58"
     pagecolor="#ffffff"
     bordercolor="#999999"
     borderopacity="1"
     inkscape:showpageshadow="2"
     inkscape:pageopacity="0"
     inkscape:pagecheckerboard="0"
     inkscape:deskcolor="#d1d1d1"
     inkscape:zoom="5.96875"
     inkscape:cx="33.675393"
     inkscape:cy="33.507853"
     inkscape:window-width="1920"
     inkscape:window-height="996"
     inkscape:window-x="0"
     inkscape:window-y="0"
     inkscape:window-maximized="1"
     inkscape:current-layer="svg58" />
  <rect
     x="0.79373449"
     y="0.79373449"
     width="11.112281"
     height="11.112281"
     rx="7.4085002"
     ry="7.4085002"
     fill="#f2f2f2"
     id="rect1"
     style="stroke-width:1" />
  <g
     transform="matrix(0.74996834,0,0,0.74996834,2.6804938e-4,0.2050094)"
     opacity="0.25"
     stroke-linecap="round"
     stroke-linejoin="round"
     stroke-opacity="0.35"
     stroke-width="0.075"
     id="g6">
    <rect
       x="2.381"
       y="3.9690001"
       width="12.171"
       height="0.132"
       rx="0.088003717"
       ry="0.088003717"
       opacity=".75"
       id="rect2"
       style="opacity:1;fill:#808080;fill-opacity:1;stroke-width:0.133345" />
    <rect
       x="2.381"
       y="6.085"
       width="12.171"
       height="0.132"
       rx="0.088003717"
       ry="0.088003717"
       opacity=".75"
       id="rect3"
       style="opacity:1;fill:#808080;fill-opacity:1;stroke-width:0.133345" />
    <rect
       x="2.381"
       y="8.2019997"
       width="12.171"
       height="0.132"
       rx="0.088003717"
       ry="0.088003717"
       opacity="0.75"
       id="rect4"
       style="stroke-width:0.133345" />
    <rect
       x="2.381"
       y="10.054"
       width="12.171"
       height="0.132"
       rx="0.088003717"
       ry="0.088003717"
       opacity="0.75"
       id="rect5"
       style="stroke-width:0.133345" />
    <rect
       x="2.381"
       y="12.171"
       width="12.171"
       height="0.132"
       rx="0.088003717"
       ry="0.088003717"
       opacity="0.75"
       id="rect6"
       style="stroke-width:0.133345" />
  </g>
  <path
     d="m 8.0875431,3.0665007 c 0,0 0.1541463,-0.3741407 0.2234861,-0.3876098 0.069342,-0.01297 -0.160632,0.4060677 -0.160632,0.4060677 z"
     fill="#80878a"
     fill-opacity="0.938"
     id="path6"
     style="stroke-width:0.999993" />
  <path
     d="m 8.1414179,3.0570226 c 0,0 0.1087514,-0.308292 0.1177315,-0.325253 0.00846,-0.01746 0.06485,-0.073332 0.086301,-0.077322 0.021472,-0.00349 0.1426717,0.00299 0.2160036,0.067346 0.073332,0.064851 0.1167326,0.073332 0.1072545,0.1706084 -0.00949,0.097775 -0.5272907,0.1646218 -0.5272906,0.1646206 z"
     fill="#54728f"
     fill-opacity="0.998"
     id="path7"
     style="stroke-width:0.999993" />
  <path
     d="m 8.1399209,3.0570226 c 0,0 0.1247145,0.018457 0.2494297,0.094782 L 8.6552392,2.8524923 c 0,0 -0.046393,-0.080814 -0.2189975,-0.1217205 -0.090791,-0.022449 -0.1282049,0.00399 -0.1381825,0.038911 z"
     fill="#8bb0d8"
     id="path8"
     style="stroke-width:0.999993" />
  <path
     d="m 8.066592,3.1383359 0.1057561,0.014468 -0.010477,0.080316 -0.106257,-0.013968 z"
     fill="#32475c"
     id="path9"
     style="stroke-width:0.999993" />
  <path
     d="m 6.92621,5.5812266 0.058865,-0.2773631 1.0475937,-2.2348684 -0.00847,-0.027438 0.019469,0.012972 4.973e-4,-0.00199 0.012974,0.00199 0.033441,0.02145 0.0021,0.074828 -0.026939,0.060861 0.00652,0.1426723 -0.085802,0.1845762 -0.06884,0.00798 L 7.7569946,3.9559565 7.026174,5.5438106 c 0,0 0.031919,0.058366 -0.09977,0.038412 z"
     fill="#817160"
     id="path10"
     style="stroke-width:0.999993" />
  <path
     d="m 6.961628,5.4939271 c 0,0 -0.012975,0.066347 -0.0075,0.070838 0.00517,0.00498 0.074832,-0.046893 0.074832,-0.046893 l -0.019949,0.1277065 0.023429,-0.00351 0.4240258,-0.9153982 0.449966,-0.9952148 0.013469,-0.086302 0.061857,-0.098773 0.081814,-0.181583 0.062352,-0.1431713 0.041383,-0.0434 0.1446689,0.0045 -0.1725963,0.4704181 -1.0106805,2.0986811 -0.224484,0.024444 -0.044379,-0.1546449 z"
     fill="#797878"
     id="path11"
     style="stroke-width:0.999993" />
  <path
     d="m 8.4482149,3.3104408 c 0,0 0.030449,-0.054375 0.096777,-0.044896 0.06635,0.00848 0.082312,0.1581369 0.027456,0.2095189 -0.054874,0.051382 -0.124716,-0.1646223 -0.124716,-0.1646223 z"
     fill="#8d8d85"
     fill-opacity="0.99"
     id="path12"
     style="stroke-width:0.999993" />
  <path
     d="M 5.260035,10.214588 6.1165683,8.9978814 6.0103122,8.9190627 c 0,0 0.00698,0.020947 -0.00649,0.045411 -0.013966,0.026421 -0.7447898,1.2496313 -0.7447898,1.2496313 z"
     fill="#9e9e9e"
     id="path13"
     style="stroke-width:0.999993" />
  <path
     d="m 5.9709028,9.0293096 c 0.015965,-0.014452 0.062856,-0.086302 0.043899,-0.1042606 A 0.35618214,0.35618214 0 0 0 5.8441936,8.8322621 c 0,0 0.00598,0.029414 -0.040906,0.045898 -0.046893,0.015967 -0.1222193,-0.00798 -0.1222193,-0.00798 l -4.99e-4,0.093784 0.1666173,0.051388 z"
     fill="#5c5956"
     id="path14"
     style="stroke-width:0.999993" />
  <path
     d="m 6.765579,5.4510256 c -0.00364,0.043899 0.00259,0.06086 0.022447,0.068842 0.019947,0.00998 0.024946,0.049885 0.015967,0.097277 -0.00898,0.045894 0.1446672,-0.061359 0.1446672,-0.061359 l 0.019949,-0.081313 z"
     fill="#898a8b"
     id="path15"
     style="stroke-width:0.999993" />
  <path
     d="m 6.7885253,5.4904352 c 0.1047603,0.029434 0.1401776,0.03941 0.1770925,0.00698 0.051883,-0.041405 0.5811659,-1.283054 0.5811659,-1.283054 L 8.060605,3.1009202 c 0,0 0.00315,-0.08281 -0.086801,-0.090792 -0.090294,-0.00748 -0.1182283,-0.015463 -0.1765946,0.1097484 -0.058362,0.1247137 -0.9657823,2.1934633 -0.9977088,2.2433489 -0.03142,0.049385 -0.054376,0.1092491 -0.010475,0.1232171 z M 8.3599174,2.7282775 c -0.00547,0.0025 -0.1701093,0.3337338 -0.1701093,0.3337338 0,0 0.040401,0.00748 0.059862,0.01696 0.019462,0.00998 0.1546473,-0.3372258 0.1546473,-0.3372258 z"
     fill="#b3d5f0"
     id="path16"
     style="stroke-width:0.999993" />
  <path
     d="m 7.0000406,5.563268 c -0.033441,0.041904 -0.049393,0.07832 -0.025446,0.080315 0.023947,0.00151 0.045411,0.022447 0.059368,0.00798 0.013484,-0.014964 0.1865715,-0.3591752 0.1865715,-0.3591752 0,0 0.700391,-1.5359732 0.7018879,-1.56341 0.00157,-0.027437 0.00697,-0.06984 0.016957,-0.079817 a 0.36416382,0.36416382 0 0 0 0.044893,-0.081313 c 0.0021,-0.013468 0.1222201,-0.2713769 0.1267094,-0.2893355 0.00517,-0.017462 0.043386,-0.050883 0.026939,-0.064353 -0.016454,-0.013967 -0.042418,-0.036916 -0.058865,-0.028435 -0.016454,0.00998 -0.061362,0.096279 -0.04688,0.1147366 a 0.40606759,0.40606759 0 0 1 0.03143,0.051882 l -0.085808,0.1770934 c 0,0 -0.038908,-0.00698 -0.059862,0.011475 -0.019949,0.016461 -0.066845,0.1431713 -0.094782,0.2145076 A 31.951634,31.951634 0 0 1 7.4564943,4.5540848 c -0.026939,0.05238 -0.4005796,0.9178924 -0.45645,1.0091829 z"
     fill="#718ea5"
     id="path17"
     style="stroke-width:0.999993" />
  <path
     d="m 8.1623682,3.2181527 c 0.015479,-0.00698 0.036913,0.033923 0.033441,0.059862 A 31.501169,31.501169 0 0 1 7.6979466,4.4178979 C 7.6425764,4.5226573 7.4131011,5.058427 7.4131011,5.058427 L 6.932206,6.1249781 6.5815114,6.9131682 c 0,0 -0.044895,-0.038412 -0.068842,-0.041904 -0.023948,-0.00351 0.675445,-1.4516663 0.675445,-1.4516663 l 0.7288259,-1.6312545 0.028934,-0.092288 z"
     fill="#b3d5f0"
     id="path18"
     style="stroke-width:0.999993" />
  <path
     d="M 6.9297018,7.1326645 6.9656178,7.0638226 8.1783336,4.3271067 6.871835,7.0713054 Z"
     fill="#939394"
     id="path19"
     style="stroke-width:0.999993" />
  <path
     d="m 6.3949292,6.8523082 c 0.1162331,0.022447 0.1197248,0.015963 0.1197248,0.015963 L 7.0953211,5.6321103 c 0,0 -0.037416,0.088297 -0.1586356,0.037914 L 6.9266955,5.6361013 6.701213,6.1748642 c 0,0 -0.3791295,0.6674674 -0.3062968,0.6774445 z M 8.1773361,3.2326195 c -0.01197,-0.019954 -0.017437,-0.047889 0.00262,-0.059862 0.020437,-0.012471 0.053375,-0.017957 0.06485,0.022447 0.010972,0.039909 -0.05288,0.1297022 -0.053375,0.1017664 0,-0.027938 -0.013964,-0.063853 -0.013964,-0.063853 z m 0.067347,-0.1616288 c 0,0 0.029931,0.028434 0.053375,0.024944 0.023437,-0.00498 0.1805853,-0.3097885 0.1671166,-0.339221 -0.013964,-0.028435 -0.05288,-0.033424 -0.063357,-0.014966 -0.010965,0.017459 -0.1696061,0.3212616 -0.1571346,0.329243 z M 5.5932699,8.7379776 c 0,0 -0.074828,0.010972 -0.098274,0.053878 -0.023448,0.044375 -0.4210335,1.3289484 -0.4210335,1.3289484 l 0.087798,0.02343 c 0,0 0.5342733,-1.2107215 0.5357698,-1.2421497 0.0015,-0.032406 -0.042902,-0.1411747 -0.1047595,-0.1611307 z"
     fill="#d2f2ff"
     id="path20"
     style="stroke-width:0.999993" />
  <path
     d="m 5.6421577,8.7674101 c 0,0 0.1845761,0.043401 0.2075235,0.069837 0.022947,0.026421 -0.069839,0.061857 -0.1401782,0.041391 C 5.639664,8.8537011 5.642157,8.7673944 5.642157,8.7673944 Z M 5.496991,8.7983391 c 0,0 0.088796,-0.025934 0.08281,-0.047376 -0.00598,-0.021951 -0.070838,-0.041901 -0.09578,-0.028926 -0.024944,0.013477 -0.4240263,1.4117589 -0.4240263,1.4117589 0,0 0.011972,-0.0021 0.019954,-0.01744 0.00798,-0.01597 0.3856138,-1.2770694 0.4175406,-1.3189739 z"
     fill="#a6c9e5"
     id="path21"
     style="stroke-width:0.999993" />
  <path
     d="m 5.1408088,10.140757 0.051881,0.03093 L 5.8426973,8.9350254 5.70651,8.9001144 Z"
     fill="#5a5b60"
     id="path22"
     style="stroke-width:0.999993" />
  <path
     d="M 5.1837103,10.173681 5.8372098,8.9320327 5.9105417,8.9769258 5.2071568,10.197124 Z"
     fill="#592628"
     id="path23"
     style="stroke-width:0.999993" />
  <path
     d="m 5.8965736,8.9719407 c 0.00549,0.00105 0.080814,0.050885 0.080814,0.050885 l -0.7542681,1.1767983 -0.018959,-0.0026 z"
     fill="#373d42"
     id="path24"
     style="stroke-width:0.999993" />
  <path
     d="m 5.2585385,10.215087 c 0,0 0.2758667,-0.4474733 0.308791,-0.5053402 0.033425,-0.058363 0.4190378,-0.698396 0.4190378,-0.698396 0,0 -0.6699616,1.0271422 -0.7497784,1.1603362 l -0.00948,0.01896 z"
     fill="#62594f"
     fill-opacity="0.947"
     id="path25"
     style="stroke-width:0.999993" />
  <path
     d="m 5.8526742,8.8502201 c 0.02544,0.00547 0.043899,0.031424 0.012471,0.047886 -0.031428,0.015479 -0.084805,0 -0.056869,-0.023429 l 0.044897,-0.027936 z"
     fill="#cdccc2"
     id="path27"
     style="stroke-width:0.999993" />
  <path
     d="m 5.9030586,8.9310352 c -0.013468,-0.019949 -0.019954,-0.051388 -0.00549,-0.055873 0.014964,-0.00697 0.054874,0.031431 0.035917,0.049873 -0.018457,0.017954 -0.030431,0.00847 -0.030431,0.00847 z"
     fill="#e4c7a5"
     id="path28"
     style="stroke-width:0.999993" />
  <path
     d="M 5.3742728,8.7135339 6.2627327,6.8273653 6.3335699,6.8483169 5.459078,8.7429672 Z"
     fill="#d2dde4"
     id="path29"
     style="stroke-width:0.999993" />
  <path
     d="M 5.4520941,8.739974 5.5608443,8.737874 5.85018,8.0255197 6.405904,6.8532114 6.324591,6.8467214 Z"
     fill="#c2e0f1"
     id="path30"
     style="stroke-width:0.999993" />
  <path
     d="M 5.5508672,8.7384779 5.6566245,8.7743916 5.9050541,8.4042425 6.5969657,6.9191534 6.5121597,6.8692684 6.3964258,6.8577949 c 0,0 -0.6664698,1.3369297 -0.8490505,1.8672135 z"
     fill="#d5d8d9"
     id="path31"
     style="stroke-width:0.999993" />
  <path
     d="M 5.6556267,8.7719002 5.8541708,8.8367515 6.2308061,8.0520537 6.7466206,7.0054564 6.5919765,6.9116717 5.6790729,8.740472 Z"
     fill="#aecbe5"
     id="path32"
     style="stroke-width:0.999993" />
  <path
     d="m 5.8531732,8.8362535 0.1506541,0.076323 0.8565333,-1.840773 -0.1277072,-0.07383 z"
     fill="#af9a81"
     id="path33"
     style="stroke-width:0.999993" />
  <path
     d="m 5.9888615,8.8961144 0.096778,0.106755 0.02993,-0.00412 0.8021603,-1.8048558 0.032924,-0.1127412 -0.1002693,-0.017462 z"
     fill="#9d9d9c"
     id="path34"
     style="stroke-width:0.999993" />
  <path
     d="M 6.323094,6.8403357 6.9097482,5.5667599 6.949654,5.5542894 6.9197227,5.6700236 6.3929336,6.8617873 Z"
     fill="#8fb1ce"
     id="path35"
     style="stroke-width:0.999993" />
  <path
     d="M 6.2632316,6.8268665 6.8269378,5.5473047 6.925211,5.5607726 6.3220964,6.8438265 Z"
     fill="#a7a7a8"
     id="path36"
     style="stroke-width:0.999993" />
  <path
     d="m 8.2012818,3.3049534 c 0,0 0.06335,-0.076824 0.039913,-0.1237159 -0.022941,-0.046893 -0.083808,0.014964 -0.083808,0.014964 a 0.329244,0.329244 0 0 0 -0.067842,-0.040906 c 0,0 -0.00157,-0.097276 -0.038908,-0.1022653 0,0 0.2594036,0.031427 0.5018481,0.217002 0,0 -0.160632,-0.094782 -0.2853457,0.2229879 -0.1247149,0.3172712 -0.6719585,1.490577 -0.6719585,1.490577 L 6.692242,6.976024 6.5814958,6.904189 Z"
     fill="#97b4cf"
     id="path37"
     style="stroke-width:0.999993" />
  <path
     d="m 6.6787782,6.9630539 c 0,0 0.023428,0.034921 0.054873,0.037414 0,0 1.6152911,-3.6017297 1.660686,-3.6331576 0.044893,-0.031427 0.060365,-0.097776 0.1541447,-0.099771 0,0 -0.091287,-0.057368 -0.1975439,0.065849 C 8.245179,3.4571038 8.0715793,3.9305166 8.0715793,3.9305166 Z"
     fill="#c6c4b9"
     id="path38"
     style="stroke-width:0.999993" />
  <path
     d="m 6.723176,6.9989712 0.084805,0.041904 c 0,0 1.6212782,-3.5812767 1.6392362,-3.6112081 0.024944,-0.040906 0.094783,-0.079817 0.142671,-0.090293 0,0 -0.073332,-0.060361 -0.1416728,-0.03093 -0.06884,0.029931 -0.1366877,0.1980452 -0.1366877,0.1980452 z"
     fill="#dfc5a3"
     id="path39"
     style="stroke-width:0.999993" />
  <path
     d="m 6.7960085,7.030399 c 0.014964,0.016461 0.018477,0.048389 0.081313,0.040906 L 7.70542,5.3382844 c 0,0 0.8615224,-1.8327917 0.870999,-1.8727001 C 8.585909,3.4251773 8.595378,3.3378775 8.550988,3.3493512 8.506095,3.3608262 8.4417378,3.4122072 8.4362511,3.4306642 8.4297311,3.4486212 6.8429082,6.922646 6.7960175,7.030398 Z"
     fill="#7a6e5e"
     id="path40"
     style="stroke-width:0.999993" />
  <path
     d="m 6.8563697,7.0668155 c 0.014964,-0.00498 1.6761514,-3.6176931 1.6581912,-3.6336566 -0.018472,-0.01696 -0.028439,0.00948 -0.044893,0.033923 -0.016949,0.024944 -1.643228,3.5787824 -1.643228,3.5787824 -0.00514,0.014964 0.00598,0.01696 0.029928,0.021451 z"
     fill="#43474a"
     id="path41"
     style="stroke-width:0.999993" />
  <path
     d="m 7.0184981,5.6390937 c 0,0 0.8410682,-1.8557388 0.8515452,-1.889661 0.00998,-0.033425 -5.01e-4,-0.083807 0.015967,-0.099272 a 0.21600402,0.21600402 0 0 0 0.027456,-0.03093"
     fill="none"
     stroke="#000000"
     stroke-opacity="0.734"
     stroke-width="0.186688"
     id="path51" />
  <path
     d="m 7.9129445,3.5623623 c 0.019949,-0.013967 0.05687,-0.00598 0.047886,0.019954 -0.00898,0.022948 -0.012487,0.047889 -0.034911,0.044897 -0.023422,-0.00299 -0.035916,-0.010973 -0.012975,-0.063853 z"
     fill="#2b0e10"
     opacity="0.716"
     id="path52"
     style="stroke-width:0.999993" />
  <path
     d="m 8.4222743,3.1647752 0.093783,0.058865 c 0,0 0.1476605,-0.3043013 0.1511539,-0.3292439 a 0.09478237,0.09478237 0 0 0 -0.01146,-0.049887 l -0.068345,-10e-4 z"
     fill="#7a6e5e"
     id="path53"
     style="stroke-width:0.999993" />
  <path
     d="m 8.4028186,3.1597868 c 0.012974,-0.067844 0.1611307,-0.3232578 0.1795866,-0.3317384 0.018959,-0.00948 0.077823,-0.018458 0.081813,0.036417 0,0 -0.042418,-0.036417 -0.078319,0.023449 -0.035916,0.059862 -0.1237162,0.2853448 -0.1366884,0.2853448 -0.013485,0.00101 -0.049873,0.00351 -0.046393,-0.013468 z"
     fill="#dfc5a3"
     id="path54"
     style="stroke-width:0.999993" />
  <path
     d="M 8.4696655,3.1782443 8.581908,2.9637369 8.482136,3.1902168 Z"
     fill="#43474a"
     id="path55"
     style="stroke-width:0.999993" />
  <path
     d="m 8.3708909,3.141828 c 0,0 0.1516534,-0.3082921 0.1745987,-0.3302417 0.022469,-0.022449 0.071839,-0.011474 0.091292,0.011972 0,0 -0.045898,-0.00998 -0.063852,0.016462 -0.017954,0.025941 -0.1701093,0.3247543 -0.1701093,0.3247543 z"
     fill="#c6c4b9"
     id="path56"
     style="stroke-width:0.999993" />
  <path
     d="m 8.0072275,3.0221028 c 0,0 0.4090613,0.032924 0.5547246,0.2524205 0,0 -0.1805849,-0.1142379 -0.2773615,-0.1521506 -0.1047609,-0.041406 -0.2384525,-0.067844 -0.2384525,-0.067844 0,0 -0.012974,-0.02095 -0.038908,-0.032426 z"
     fill="#1e1d28"
     id="path57"
     style="stroke-width:0.999993" />
  <rect
     x="3.147022"
     y="10.582332"
     width="6.3353672"
     height="0.09899582"
     rx="0.066"
     ry="0.066"
     opacity="0.75"
     id="rect2-3"
     style="opacity:0.400662;fill:#808080;fill-opacity:1;stroke-width:1" />
  <rect
     x="3.505434"
     y="1.9905201"
     width="3.1771855"
     height="0.09899582"
     rx="0.066"
     ry="0.066"
     opacity="0.75"
     id="rect2-3-6"
     style="opacity:0.343267;fill:#808080;fill-opacity:1;stroke-width:1" />
</svg>
