<?xml version="1.0" encoding="UTF-8" standalone="no"?>
<svg
   xmlns:dc="http://purl.org/dc/elements/1.1/"
   xmlns:cc="http://creativecommons.org/ns#"
   xmlns:rdf="http://www.w3.org/1999/02/22-rdf-syntax-ns#"
   xmlns:svg="http://www.w3.org/2000/svg"
   xmlns="http://www.w3.org/2000/svg"
   xmlns:xlink="http://www.w3.org/1999/xlink"
   xmlns:sodipodi="http://sodipodi.sourceforge.net/DTD/sodipodi-0.dtd"
   xmlns:inkscape="http://www.inkscape.org/namespaces/inkscape"
   height="48"
   width="48"
   version="1"
   id="svg20"
   sodipodi:docname="accerciser.svg"
   inkscape:version="0.92.1 r15371">
  <metadata
     id="metadata26">
    <rdf:RDF>
      <cc:Work
         rdf:about="">
        <dc:format>image/svg+xml</dc:format>
        <dc:type
           rdf:resource="http://purl.org/dc/dcmitype/StillImage" />
        <dc:title></dc:title>
      </cc:Work>
    </rdf:RDF>
  </metadata>
  <defs
     id="defs24">
    <linearGradient
       inkscape:collect="always"
       id="linearGradient4525">
      <stop
         style="stop-color:#952921;stop-opacity:1"
         offset="0"
         id="stop4521" />
      <stop
         style="stop-color:#e73c2f;stop-opacity:0.98039216"
         offset="1"
         id="stop4523" />
    </linearGradient>
    <linearGradient
       inkscape:collect="always"
       id="linearGradient4517">
      <stop
         style="stop-color:#ba3428;stop-opacity:1"
         offset="0"
         id="stop4513" />
      <stop
         style="stop-color:#d8564b;stop-opacity:1"
         offset="1"
         id="stop4515" />
    </linearGradient>
    <linearGradient
       inkscape:collect="always"
       id="linearGradient4509">
      <stop
         style="stop-color:#2e62a2;stop-opacity:1"
         offset="0"
         id="stop4505" />
      <stop
         style="stop-color:#679cdd;stop-opacity:1"
         offset="1"
         id="stop4507" />
    </linearGradient>
    <linearGradient
       inkscape:collect="always"
       xlink:href="#linearGradient4509"
       id="linearGradient4511"
       x1="24.086956"
       y1="27.804348"
       x2="24.086956"
       y2="19.97826"
       gradientUnits="userSpaceOnUse" />
    <linearGradient
       inkscape:collect="always"
       xlink:href="#linearGradient4517"
       id="linearGradient4519"
       x1="-39"
       y1="-6"
       x2="-9"
       y2="-6"
       gradientUnits="userSpaceOnUse" />
    <linearGradient
       inkscape:collect="always"
       xlink:href="#linearGradient4525"
       id="linearGradient4527"
       x1="-44"
       y1="-13"
       x2="-4"
       y2="-13"
       gradientUnits="userSpaceOnUse" />
    <linearGradient
       inkscape:collect="always"
       xlink:href="#linearGradient4525"
       id="linearGradient4535"
       x1="-44"
       y1="-35"
       x2="-4"
       y2="-35"
       gradientUnits="userSpaceOnUse" />
    <linearGradient
       inkscape:collect="always"
       xlink:href="#linearGradient4517"
       id="linearGradient4543"
       x1="-39"
       y1="-42"
       x2="-9"
       y2="-42"
       gradientUnits="userSpaceOnUse" />
  </defs>
  <sodipodi:namedview
     pagecolor="#ffffff"
     bordercolor="#666666"
     borderopacity="1"
     objecttolerance="10"
     gridtolerance="10"
     guidetolerance="10"
     inkscape:pageopacity="0"
     inkscape:pageshadow="2"
     inkscape:window-width="1600"
     inkscape:window-height="808"
     id="namedview22"
     showgrid="false"
     inkscape:zoom="10.66"
     inkscape:cx="13.776877"
     inkscape:cy="24"
     inkscape:window-x="0"
     inkscape:window-y="0"
     inkscape:window-maximized="1"
     inkscape:current-layer="svg20">
    <inkscape:grid
       type="xygrid"
       id="grid4503" />
  </sodipodi:namedview>
  <rect
     rx="3"
     ry="3"
     height="8"
     width="42"
     y="20"
     x="3"
     fill="#2a85c2"
     id="rect2"
     style="fill:url(#linearGradient4511);fill-opacity:1" />
  <rect
     transform="matrix(0,-1,-1,0,0,0)"
     rx="4"
     ry="4"
     height="10"
     width="40"
     y="-18"
     x="-44"
     fill="#c2352a"
     id="rect8"
     style="fill-opacity:1;fill:url(#linearGradient4527)" />
  <rect
     transform="matrix(0,-1,-1,0,0,0)"
     rx="4"
     ry="4"
     height="10"
     width="40"
     y="-40"
     x="-44"
     fill="#c2352a"
     id="rect10"
     style="fill-opacity:1.0;fill:url(#linearGradient4535)" />
  <rect
     transform="matrix(0,-1,-1,0,0,0)"
     rx="2"
     ry="2"
     height="4"
     width="30"
     y="-8"
     x="-39"
     fill="#d8564b"
     id="rect12"
     style="fill-opacity:1;fill:url(#linearGradient4519)" />
  <rect
     transform="matrix(0,-1,-1,0,0,0)"
     rx="2"
     ry="2"
     height="4"
     width="30"
     y="-44"
     x="-39"
     fill="#d8564b"
     id="rect14"
     style="fill-opacity:1.0;fill:url(#linearGradient4543)" />
  <path
     style="fill-opacity:1;fill:#0f0403;opacity:0.2"
     d="M 8 39 L 8 40 C 8 42.216 9.784 44 12 44 L 14 44 C 16.216 44 18 42.216 18 40 L 18 39 C 18 41.216 16.216 43 14 43 L 12 43 C 9.784 43 8 41.216 8 39 z "
     id="rect4545" />
  <path
     style="fill-opacity:1;fill:#0f0403;opacity:0.2"
     d="M 30 39 L 30 40 C 30 42.216 31.784 44 34 44 L 36 44 C 38.216 44 40 42.216 40 40 L 40 39 C 40 41.216 38.216 43 36 43 L 34 43 C 31.784 43 30 41.216 30 39 z "
     id="rect4547" />
  <path
     style="fill-opacity:1;fill:#0f0403;opacity:0.2"
     d="M 4 36 L 4 37 C 4 38.108 4.892 39 6 39 C 7.108 39 8 38.108 8 37 L 8 36 C 8 37.108 7.108 38 6 38 C 4.892 38 4 37.108 4 36 z "
     id="rect4549" />
  <path
     style="fill-opacity:1;fill:#0f0403;opacity:0.2"
     d="M 40 36 L 40 37 C 40 38.108 40.892 39 42 39 C 43.108 39 44 38.108 44 37 L 44 36 C 44 37.108 43.108 38 42 38 C 40.892 38 40 37.108 40 36 z "
     id="rect4551" />
</svg>
