<?xml version="1.0" encoding="UTF-8" standalone="no"?>
<svg
   height="48"
   width="48"
   version="1.1"
   id="svg3"
   sodipodi:docname="counter-strike.svg"
   inkscape:version="1.3.2 (091e20ef0f, 2023-11-25)"
   xmlns:inkscape="http://www.inkscape.org/namespaces/inkscape"
   xmlns:sodipodi="http://sodipodi.sourceforge.net/DTD/sodipodi-0.dtd"
   xmlns:xlink="http://www.w3.org/1999/xlink"
   xmlns="http://www.w3.org/2000/svg"
   xmlns:svg="http://www.w3.org/2000/svg">
  <defs
     id="defs3">
    <linearGradient
       id="linearGradient3"
       inkscape:collect="always">
      <stop
         style="stop-color:#00aad4;stop-opacity:1;"
         offset="0"
         id="stop3" />
      <stop
         style="stop-color:#00aa88;stop-opacity:1"
         offset="1"
         id="stop4" />
    </linearGradient>
    <linearGradient
       inkscape:collect="always"
       xlink:href="#linearGradient3"
       id="linearGradient4"
       x1="4.8625579"
       y1="27.405078"
       x2="44.322082"
       y2="27.405078"
       gradientUnits="userSpaceOnUse" />
  </defs>
  <sodipodi:namedview
     id="namedview3"
     pagecolor="#ffffff"
     bordercolor="#999999"
     borderopacity="1"
     inkscape:showpageshadow="2"
     inkscape:pageopacity="0"
     inkscape:pagecheckerboard="0"
     inkscape:deskcolor="#d1d1d1"
     inkscape:zoom="7.9375"
     inkscape:cx="18.771654"
     inkscape:cy="14.992126"
     inkscape:window-width="1920"
     inkscape:window-height="994"
     inkscape:window-x="0"
     inkscape:window-y="0"
     inkscape:window-maximized="1"
     inkscape:current-layer="svg3" />
  <g
     fill="#9e6b51"
     opacity="0.99"
     transform="matrix(1.0643817,0,0,1.0643817,-2.1756153,-5.1694634)"
     id="g2">
    <path
       d="M 44.322082,27.405077 A 19.729762,19.729765 0 0 1 24.59232,47.134842 19.729762,19.729765 0 0 1 4.8625579,27.405077 19.729762,19.729765 0 0 1 24.59232,7.6753138 19.729762,19.729765 0 0 1 44.322082,27.405077 Z"
       id="path1" />
    <path
       d="M 44.322082,27.405077 A 19.729762,19.729765 0 0 1 24.59232,47.134842 19.729762,19.729765 0 0 1 4.8625579,27.405077 19.729762,19.729765 0 0 1 24.59232,7.6753138 19.729762,19.729765 0 0 1 44.322082,27.405077 Z"
       id="path2"
       style="fill:url(#linearGradient4)" />
  </g>
  <path
     d="m 21.394924,11.687842 c -0.616871,0.03103 -1.301034,0.178818 -2.043896,0.46805 -1.930826,0.715717 -1.43224,3.304712 -1.268618,5.067263 -0.109333,0.164395 -0.331549,0.110241 -0.495172,0.110241 -2.09444,0.110108 -3.030311,2.313609 -3.47154,4.076942 0.109339,1.598159 -0.109898,3.359439 -0.386724,4.901007 -0.276832,1.54233 -0.826841,2.754107 -0.881894,4.241385 -0.109335,1.322108 0.38583,2.864946 0.276493,4.07694 -0.578526,1.705765 -1.073137,3.122574 -1.499938,4.566677 a 19.612099,19.612102 0 0 0 4.935338,2.940251 c 0.426089,-1.173706 0.920956,-2.336864 1.52163,-3.486001 0.21789,-0.164397 0.163199,-0.60571 0.549377,-0.771656 1.25943,2.100821 3.38674,3.693143 4.810645,5.705182 a 19.612099,19.612102 0 0 0 0.560212,0.02716 19.612099,19.612102 0 0 0 5.479292,-0.791538 c -0.02033,-0.04701 -0.0316,-0.103422 -0.05418,-0.14818 -0.659118,-1.266277 -2.144847,-3.029329 -3.411905,-4.295605 0.163612,-0.164397 0.386657,-0.386858 0.659604,-0.496966 0,-1.211227 -0.496432,-1.596722 -1.154765,-2.477612 -0.554434,-0.881672 -1.817131,-2.587704 -2.757717,-3.139028 0,0 -1.62e-4,-0.05604 -0.936115,-0.05604 -0.05426,-0.605609 0.112888,-1.103107 0.276497,-1.763776 0,-0.495506 0.387629,-0.218366 0.496975,-1.321031 0.276829,-0.93595 0.162374,-0.385081 0.384917,-1.321032 0.217904,-0.440443 0.332521,-0.882834 0.332521,-1.599337 0.822739,0.276061 2.475193,0.220231 3.193243,0 l 0.164444,0.110245 c 0.222557,0.05585 0.277342,-0.273845 0.44095,-0.328901 1.267834,-0.662218 1.707019,-1.818127 2.752294,-1.928234 0,0 0.555107,-0.276063 1.377063,0 0.331876,0 0.609008,0.05378 0.609008,-0.276506 0.05426,-0.495492 0.05309,-0.880715 0.330704,-1.212597 0.217897,1.322111 0.822997,2.810989 1.926427,4.243203 l 1.100561,-0.77165 c -1.045278,-1.266284 -1.704015,-2.698412 -1.817993,-4.351629 0.05425,0.110107 0.112939,0.220598 0.222273,0.3307 0.386168,0 0.605129,-0.826705 1.046343,-0.771651 0.05426,-0.110107 0.167927,-0.60674 0.276496,-0.992125 h 4.129351 l 1.485476,-0.330724 v -0.771661 l -1.098763,-0.110247 v -0.881884 h -0.276495 v -0.990328 h -0.659605 v 0.936109 L 36.809962,17.993005 V 17.3858 h -0.659606 v 0.551185 L 34.388381,17.77254 v -0.825869 h -0.66323 v 0.771652 L 31.133678,17.553868 V 17.27918 h -1.922817 v -0.495158 h -1.044535 v 0.274687 c -0.113208,0.05426 -0.223169,0.166184 -0.332507,0.220471 h -0.110243 c -1.822258,-1.432222 -1.930901,1.487309 -3.144451,0.825873 -0.109341,-0.606395 -0.05418,-1.156499 -0.05418,-1.87222 2.094441,-0.05585 1.323308,-0.607108 0.719255,-1.322829 -0.217911,-0.276064 -0.332469,-0.716852 -0.386744,-0.992135 -0.371621,-1.363198 -1.611904,-2.323008 -3.462498,-2.230026 z m 3.710085,8.484588 c 0.262386,9.9e-5 0.415643,0.08309 0.415643,0.08309 0.659887,-0.111662 1.26401,0.05511 2.313166,0 -0.168269,1.817617 -1.490732,1.044891 -2.922179,2.036661 -0.386155,-0.05426 -0.826427,-0.05418 -1.431269,-0.05418 -0.109324,-1.211989 0.331481,-1.431508 0.549377,-1.651731 0.44084,-0.330727 0.812878,-0.413943 1.075262,-0.413844 z"
     fill="#ffffff"
     fill-rule="evenodd"
     stroke-width="0.440961"
     id="path3" />
</svg>
