<?xml version="1.0" encoding="UTF-8" standalone="no"?>
<svg
   width="48"
   height="48"
   version="1.1"
   id="svg3"
   sodipodi:docname="indicator-weather.svg"
   inkscape:version="1.3.2 (091e20ef0f, 2023-11-25)"
   xmlns:inkscape="http://www.inkscape.org/namespaces/inkscape"
   xmlns:sodipodi="http://sodipodi.sourceforge.net/DTD/sodipodi-0.dtd"
   xmlns:xlink="http://www.w3.org/1999/xlink"
   xmlns="http://www.w3.org/2000/svg"
   xmlns:svg="http://www.w3.org/2000/svg">
  <defs
     id="defs3">
    <linearGradient
       id="linearGradient4"
       inkscape:collect="always">
      <stop
         style="stop-color:#ffe680;stop-opacity:1"
         offset="0"
         id="stop4" />
      <stop
         style="stop-color:#00ccff;stop-opacity:1"
         offset="1"
         id="stop5" />
    </linearGradient>
    <linearGradient
       inkscape:collect="always"
       xlink:href="#linearGradient4"
       id="linearGradient5"
       x1="38.015705"
       y1="40.251308"
       x2="10.821989"
       y2="8.5863876"
       gradientUnits="userSpaceOnUse" />
  </defs>
  <sodipodi:namedview
     id="namedview3"
     pagecolor="#ffffff"
     bordercolor="#999999"
     borderopacity="1"
     inkscape:showpageshadow="2"
     inkscape:pageopacity="0"
     inkscape:pagecheckerboard="0"
     inkscape:deskcolor="#d1d1d1"
     inkscape:zoom="5.96875"
     inkscape:cx="17.759162"
     inkscape:cy="20.60733"
     inkscape:window-width="1920"
     inkscape:window-height="996"
     inkscape:window-x="0"
     inkscape:window-y="0"
     inkscape:window-maximized="1"
     inkscape:current-layer="svg3" />
  <rect
     width="42"
     height="42"
     x="3"
     y="3"
     fill="#33c4fe"
     rx="21"
     ry="21"
     id="rect1"
     style="fill:url(#linearGradient5);stroke-width:0.999839" />
  <circle
     cx="16.49951"
     cy="21.022594"
     r="8.2497015"
     fill="#ffba26"
     style="stroke-width:0.999839;paint-order:normal"
     id="circle1" />
  <path
     fill="#ffffff"
     d="m 24.357728,16.60976 a 8.3584509,8.3584509 0 0 0 -8.358453,8.35845 8.3584509,8.3584509 0 0 0 0.01353,0.383981 4.9738207,4.9738207 0 0 0 -4.497575,4.946065 4.9738207,4.9738207 0 0 0 4.97381,4.973835 h 16.230919 a 6.7632554,6.7632554 0 0 0 6.763257,-6.763255 6.7632554,6.7632554 0 0 0 -6.763257,-6.76326 6.7632554,6.7632554 0 0 0 -0.642722,0.03672 8.3584509,8.3584509 0 0 0 -7.720216,-5.172555 z"
     opacity="0.85"
     style="stroke-width:0.999839;paint-order:normal;opacity:1"
     id="path1" />
</svg>
