<?xml version="1.0" encoding="UTF-8" standalone="no"?>
<svg
   width="48"
   height="48"
   version="1"
   id="svg4"
   sodipodi:docname="mono.svg"
   inkscape:version="1.3.2 (091e20ef0f, 2023-11-25)"
   xmlns:inkscape="http://www.inkscape.org/namespaces/inkscape"
   xmlns:sodipodi="http://sodipodi.sourceforge.net/DTD/sodipodi-0.dtd"
   xmlns:xlink="http://www.w3.org/1999/xlink"
   xmlns="http://www.w3.org/2000/svg"
   xmlns:svg="http://www.w3.org/2000/svg">
  <defs
     id="defs4">
    <linearGradient
       id="linearGradient1"
       inkscape:collect="always">
      <stop
         style="stop-color:#4a5579;stop-opacity:1;"
         offset="0"
         id="stop1" />
      <stop
         style="stop-color:#ccaaff;stop-opacity:1"
         offset="1"
         id="stop2" />
    </linearGradient>
    <linearGradient
       inkscape:collect="always"
       xlink:href="#linearGradient1"
       id="linearGradient2"
       x1="13.727905"
       y1="6.6162715"
       x2="36.287777"
       y2="42.122383"
       gradientUnits="userSpaceOnUse" />
  </defs>
  <sodipodi:namedview
     id="namedview4"
     pagecolor="#ffffff"
     bordercolor="#999999"
     borderopacity="1"
     inkscape:showpageshadow="2"
     inkscape:pageopacity="0"
     inkscape:pagecheckerboard="0"
     inkscape:deskcolor="#d1d1d1"
     inkscape:zoom="5.953125"
     inkscape:cx="29.396325"
     inkscape:cy="28.892388"
     inkscape:window-width="1920"
     inkscape:window-height="994"
     inkscape:window-x="0"
     inkscape:window-y="0"
     inkscape:window-maximized="1"
     inkscape:current-layer="svg4" />
  <rect
     style="opacity:0.2;stroke-width:0.743393"
     width="42"
     height="41.263153"
     x="3.0000863"
     y="4.7368455"
     rx="21"
     ry="20.631577"
     id="rect1" />
  <rect
     width="42"
     height="41.263153"
     x="3.0000863"
     y="4"
     rx="21"
     ry="20.631577"
     id="rect2"
     style="fill:url(#linearGradient2);fill-opacity:1" />
  <path
     style="opacity:0.2;stroke-width:0.743393"
     d="m 14.034825,37.115847 c 0,-0.145901 5.008499,-6.067891 5.115733,-6.044301 0.05921,0.01615 2.300249,0.949043 4.97175,2.077148 4.569005,1.928305 4.574243,2.043255 4.695737,1.881901 0.187502,-0.249798 0.831751,-1.497265 1.171509,-2.333575 L 30.2783,31.985966 29.794556,31.724388 c -0.690752,-0.368423 -1.403254,-1.194433 -2.0355,-1.904734 -0.578249,-0.649168 -1.62075,-2.212004 -1.62075,-2.431587 0,-0.07228 0.331496,0.257895 0.737992,0.733898 1.136254,1.328535 3.457497,3.4182 3.621005,3.121988 0.195002,-0.352933 0.323992,-1.390405 0.315745,-2.596615 -0.0078,-1.469998 -0.202507,-2.54137 -0.718504,-4.119675 l -0.288733,-0.632949 c -0.990007,-0.581367 -1.777511,-0.895272 -2.868005,-1.232743 -0.616508,-0.192305 -0.229506,-0.181259 0.668244,0.01908 1.077747,0.238004 2.400746,0.434008 3.076504,0.518008 0.601497,0.07298 0.729748,-0.042 0.792743,-0.691161 0.08177,-0.833362 -0.4605,-2.98936 -1.015494,-4.130729 -0.218998,-0.456847 -0.32025,-0.560002 -0.762008,-0.756744 -1.464739,-0.672 -6.284242,-1.286518 -8.233474,-1.086101 -0.843758,0.08479 -1.706993,0.288101 -1.980011,0.456846 -0.07359,0.05816 0.468758,0.18789 1.401744,0.357371 0.840016,0.153266 1.452751,0.287364 1.362759,0.310198 -0.102003,0.01548 -1.413745,-0.05302 -2.939992,-0.244624 -2.671506,-0.338202 -2.994758,-0.172425 -3.188992,-0.0044 -0.391512,0.34632 -0.945016,0.744953 -1.063504,1.251155 -0.10875,0.487792 -0.101264,0.545271 0.145502,1.041156 0.421502,0.848113 1.435488,1.466323 3.219735,2.354215 0.843756,0.430318 1.515755,0.783259 1.491756,0.809792 -0.02697,0.02288 -0.750005,-0.241691 -1.601253,-0.591691 l -1.559244,-0.633656 -2.284499,0.629999 c -1.253249,0.341893 -2.323489,0.626306 -2.374506,0.626306 -0.06294,0 -0.0937,-1.490626 -0.0937,-4.017252 0,-3.866943 0.0087,-4.028313 0.20326,-4.423258 0.116241,-0.242411 0.347244,-0.499568 0.554231,-0.622621 L 13.116839,13.615 23.575573,13.58401 c 5.748752,-0.01547 10.696484,0 10.974741,0.03099 0.641249,0.07667 1.218747,0.537155 1.370999,1.093476 0.06611,0.242428 0.09,3.902315 0.07356,10.863245 l -0.02698,10.487477 -0.222746,0.348519 c -0.129004,0.207798 -0.390751,0.434011 -0.633009,0.549692 -0.409494,0.195995 -0.491993,0.199684 -10.735477,0.199684 -5.678988,0 -10.329731,-0.03469 -10.329731,-0.07299"
     id="path3" />
  <path
     style="fill:#ffffff;stroke-width:0.743393"
     d="m 14.034584,36.378973 c 0,-0.145475 5.008962,-6.067459 5.11594,-6.043867 0.0589,0.01565 2.30054,0.94866 4.971989,2.07722 4.569058,1.927789 4.574277,2.042808 4.695254,1.881584 0.187945,-0.249713 0.831825,-1.496977 1.171758,-2.333564 L 30.278462,31.249591 29.79456,30.9881 c -0.690857,-0.368657 -1.402926,-1.194435 -2.035798,-1.905179 -0.577883,-0.648819 -1.620671,-2.211907 -1.620671,-2.43113 0,-0.07275 0.331941,0.257574 0.737843,0.733373 1.136776,1.329099 3.457514,3.418114 3.621487,3.122203 0.19495,-0.352919 0.323925,-1.390037 0.315926,-2.596257 -0.0083,-1.470675 -0.202964,-2.541356 -0.718853,-4.120157 l -0.288946,-0.633085 c -0.99012,-0.581073 -1.777364,-0.895222 -2.867627,-1.232779 -0.616869,-0.191686 -0.229942,-0.180875 0.667873,0.01966 1.077774,0.237911 2.400881,0.433529 3.076739,0.518083 0.601883,0.07275 0.729843,-0.04236 0.792825,-0.691099 0.08205,-0.83364 -0.460895,-2.989423 -1.015785,-4.130764 -0.218955,-0.457115 -0.319925,-0.560337 -0.761838,-0.756946 -1.464689,-0.672418 -6.284073,-1.286836 -8.233688,-1.086303 -0.843819,0.08457 -1.706634,0.288041 -1.979589,0.457141 -0.07401,0.05794 0.468902,0.187758 1.40171,0.356839 0.839832,0.153366 1.452699,0.288041 1.362734,0.310649 -0.101994,0.01568 -1.413728,-0.05285 -2.9404,-0.244546 -2.671447,-0.338178 -2.994086,-0.172942 -3.189047,-0.0044 -0.39091,0.346041 -0.944808,0.744691 -1.062781,1.250968 -0.108974,0.487601 -0.101972,0.545598 0.144978,1.04107 0.421906,0.848382 1.435403,1.46673 3.220023,2.354434 0.843829,0.430587 1.515699,0.7835 1.491701,0.810043 -0.02698,0.02267 -0.749838,-0.241829 -1.601673,-0.591806 l -1.558683,-0.634027 -2.284525,0.630153 c -1.253741,0.342111 -2.323526,0.626221 -2.374508,0.626221 -0.06295,0 -0.09394,-1.490333 -0.09394,-4.016812 0,-3.867373 0.0083,-4.028597 0.202958,-4.423785 0.116959,-0.241828 0.347925,-0.499397 0.554883,-0.62228 l 0.358909,-0.219222 10.458845,-0.03053 c 5.748831,-0.01571 10.6968,0 10.974734,0.03053 0.640866,0.07673 1.218757,0.537739 1.370734,1.094158 0.066,0.241826 0.08998,3.901776 0.07401,10.862853 l -0.02696,10.487334 -0.222961,0.348987 c -0.128977,0.207432 -0.390915,0.433534 -0.63286,0.549538 -0.409918,0.195627 -0.491904,0.199551 -10.735787,0.199551 -5.678825,0 -10.32987,-0.03447 -10.32987,-0.07275"
     id="path4" />
</svg>
