<?xml version="1.0" encoding="UTF-8" standalone="no"?>
<svg
   width="48"
   height="48"
   viewBox="0 0 12.699752 12.699752"
   version="1.1"
   id="svg4"
   sodipodi:docname="toolbox.svg"
   inkscape:version="1.3.2 (091e20ef0f, 2023-11-25)"
   xmlns:inkscape="http://www.inkscape.org/namespaces/inkscape"
   xmlns:sodipodi="http://sodipodi.sourceforge.net/DTD/sodipodi-0.dtd"
   xmlns="http://www.w3.org/2000/svg"
   xmlns:svg="http://www.w3.org/2000/svg">
  <defs
     id="defs4" />
  <sodipodi:namedview
     id="namedview4"
     pagecolor="#ffffff"
     bordercolor="#999999"
     borderopacity="1"
     inkscape:showpageshadow="2"
     inkscape:pageopacity="0"
     inkscape:pagecheckerboard="0"
     inkscape:deskcolor="#d1d1d1"
     inkscape:zoom="4.4028446"
     inkscape:cx="32.024751"
     inkscape:cy="7.1544656"
     inkscape:window-width="1920"
     inkscape:window-height="994"
     inkscape:window-x="0"
     inkscape:window-y="0"
     inkscape:window-maximized="1"
     inkscape:current-layer="svg4" />
  <g
     id="g4"
     transform="matrix(0.77778981,0,0,0.77778981,-0.23528143,-0.23528143)">
    <path
       d="M 15.61,8.466 A 7.144,7.144 0 0 1 8.466,15.61 7.144,7.144 0 0 1 1.323,8.466 7.144,7.144 0 0 1 8.466,1.323 7.144,7.144 0 0 1 15.61,8.466 Z"
       id="path1"
       style="fill:#ff9955" />
    <path
       fill="#303030"
       d="m 5.821,4.498 h 5.291 a 1.323,1.323 0 0 1 1.323,1.323 v 5.291 a 1.323,1.323 0 0 1 -1.323,1.323 H 5.821 A 1.323,1.323 0 0 1 4.498,11.112 V 5.821 A 1.323,1.323 0 0 1 5.821,4.498 Z"
       style="paint-order:markers stroke fill"
       id="path2" />
    <path
       d="M 7.109,8.835 V 5.915 H 8.106 V 5.236 H 5.393 V 5.915 H 6.39 v 2.92 z m 3.669,-1.871 c 0.253,-0.155 0.413,-0.432 0.413,-0.792 0,-0.56 -0.4,-0.936 -1.178,-0.936 H 8.492 v 3.599 h 1.61 c 0.818,0 1.245,-0.36 1.245,-0.981 0,-0.453 -0.223,-0.762 -0.569,-0.89 z M 9.924,5.863 c 0.352,0 0.543,0.139 0.543,0.422 0,0.283 -0.191,0.427 -0.543,0.427 H 9.208 V 5.863 Z M 9.208,8.208 V 7.319 h 0.84 c 0.374,0 0.574,0.144 0.574,0.447 0,0.309 -0.2,0.442 -0.574,0.442 z"
       style="white-space:pre;fill:#ffffff"
       id="path3" />
    <path
       d="m 5.033,10.97 h 3.092 v 0.614 H 5.033 Z"
       style="fill:#ffffff"
       id="path4" />
  </g>
</svg>
