<?xml version="1.0" encoding="UTF-8" standalone="no"?>
<svg
   width="48"
   height="48"
   version="1.1"
   id="svg7"
   sodipodi:docname="zsnes.svg"
   inkscape:version="1.4.2 (unknown)"
   xmlns:inkscape="http://www.inkscape.org/namespaces/inkscape"
   xmlns:sodipodi="http://sodipodi.sourceforge.net/DTD/sodipodi-0.dtd"
   xmlns="http://www.w3.org/2000/svg"
   xmlns:svg="http://www.w3.org/2000/svg">
  <defs
     id="defs7" />
  <sodipodi:namedview
     id="namedview7"
     pagecolor="#ffffff"
     bordercolor="#000000"
     borderopacity="0.25"
     inkscape:showpageshadow="2"
     inkscape:pageopacity="0.0"
     inkscape:pagecheckerboard="0"
     inkscape:deskcolor="#d1d1d1"
     inkscape:zoom="11.75"
     inkscape:cx="32"
     inkscape:cy="32.042553"
     inkscape:window-width="1920"
     inkscape:window-height="1000"
     inkscape:window-x="0"
     inkscape:window-y="0"
     inkscape:window-maximized="1"
     inkscape:current-layer="svg7" />
  <g
     id="g7"
     transform="matrix(0.84210529,0,0,0.84,-2.5263166,-2.88)">
    <circle
       style="opacity:0.2"
       cx="35.5"
       cy="32.5"
       r="24.5"
       id="circle1" />
    <circle
       style="fill:#354864;fill-opacity:1"
       cx="35.5"
       cy="31.5"
       r="24.5"
       id="circle2" />
    <path
       style="opacity:0.1;fill:#ffffff"
       d="M 35.5,7 A 24.5,24.5 0 0 0 11,31.5 24.5,24.5 0 0 0 11.035156,32 24.5,24.5 0 0 1 35.5,8 24.5,24.5 0 0 1 59.982422,31.753906 24.5,24.5 0 0 0 60,31.5 24.5,24.5 0 0 0 35.5,7 Z"
       id="path2" />
    <path
       style="opacity:0.2"
       d="m 28,10.994141 a 12.000008,12.000008 0 0 0 -12,12 12.000008,12.000008 0 0 0 0.0059,0.05469 12.000008,12.000008 0 0 1 0.886719,-0.0625 12.000008,12.000008 0 0 1 11.998047,11.94336 A 12.000008,12.000008 0 0 0 40,22.994141 a 12.000008,12.000008 0 0 0 -12,-12 z M 49,23 a 11,11 0 0 0 -11,11 11,11 0 0 0 0.04492,0.636719 11,11 0 0 1 9.710937,10.27539 A 11,11 0 0 0 49,45 11,11 0 0 0 60,34 11,11 0 0 0 49,23 Z M 15.5,29 A 12.5,7 0 0 0 3,36 12.5,7 0 0 0 15.5,43 12.5,7 0 0 0 28,36 12.5,7 0 0 0 15.5,29 Z m 19,11 A 12.5,7 0 0 0 22,47 12.5,7 0 0 0 34.5,54 12.5,7 0 0 0 47,47 12.5,7 0 0 0 34.5,40 Z"
       id="path3" />
    <ellipse
       style="fill:#00d4aa"
       cx="15.5"
       cy="35"
       rx="12.5"
       ry="7"
       id="ellipse3" />
    <ellipse
       style="fill:#ffd42a"
       cx="34.5"
       cy="46"
       rx="12.5"
       ry="7"
       id="ellipse4" />
    <path
       style="fill:#6876ca;fill-opacity:1"
       d="M 28.000008,9.995073 A 12.000008,12.000008 0 0 0 16,21.99508 12.000008,12.000008 0 0 0 16.0052,22.04977 12.000008,12.000008 0 0 1 16.893222,21.98728 12.000008,12.000008 0 0 1 28.890611,33.93 12.000008,12.000008 0 0 0 40,21.995084 12.000008,12.000008 0 0 0 28,9.995075 Z"
       id="path4" />
    <path
       style="fill:#c83771"
       d="m 48.999999,22.000003 a 11,11 0 0 0 -10.999999,11 11,11 0 0 0 0.04565,0.636475 11,11 0 0 1 9.710938,10.274902 11,11 0 0 0 1.24341,0.08862 11,11 0 0 0 11,-11 11,11 0 0 0 -11,-11 z"
       id="path5" />
    <path
       style="opacity:0.2;fill:#ffffff"
       d="M 49,22 A 11,11 0 0 0 38,33 11,11 0 0 0 38.042969,33.615234 11,11 0 0 1 49,23 11,11 0 0 1 59.970703,33.251953 11,11 0 0 0 60,33 11,11 0 0 0 49,22 Z M 15.5,28 A 12.5,7 0 0 0 3,35 12.5,7 0 0 0 3.0878906,35.5 12.5,7 0 0 1 15.5,29 12.5,7 0 0 1 27.939453,35.347656 12.5,7 0 0 0 28,35 12.5,7 0 0 0 15.5,28 Z m 19,11 A 12.5,7 0 0 0 22,46 12.5,7 0 0 0 22.087891,46.5 12.5,7 0 0 1 34.5,40 12.5,7 0 0 1 46.939453,46.347656 12.5,7 0 0 0 47,46 12.5,7 0 0 0 34.5,39 Z"
       id="path6" />
    <path
       style="opacity:0.1;fill:#ffffff"
       d="m 28,9.9941406 a 12.000008,12.000008 0 0 0 -12,12.0000004 12.000008,12.000008 0 0 0 0.0059,0.05469 12.000008,12.000008 0 0 1 0.08789,-0.0059 A 12.000008,12.000008 0 0 1 28,10.994141 12.000008,12.000008 0 0 1 39.947266,22.466797 12.000008,12.000008 0 0 0 40,21.994141 12.000008,12.000008 0 0 0 28,9.9941406 Z"
       id="path7" />
  </g>
</svg>
