<?xml version="1.0" encoding="UTF-8" standalone="no"?>
<svg
  width="22"
  height="22"
  version="1.1"
  id="svg1"
  xmlns="http://www.w3.org/2000/svg"
  xmlns:svg="http://www.w3.org/2000/svg">
 <defs
   id="defs1" />
 <style
   type="text/css"
   id="current-color-scheme">
      .ColorScheme-Text {
        color:#eff0f1;
      }
      .ColorScheme-Background {
        color:#eff0f1;
      }
      .ColorScheme-Highlight {
        color:#3daee9;
      }
      .ColorScheme-ViewText {
        color:#31363b;
      }
      .ColorScheme-ViewBackground {
        color:#fcfcfc;
      }
      .ColorScheme-ViewHover {
        color:#93cee9;
      }
      .ColorScheme-ViewFocus{
        color:#3daee9;
      }
      .ColorScheme-ButtonText {
        color:#31363b;
      }
      .ColorScheme-ButtonBackground {
        color:#eff0f1;
      }
      .ColorScheme-ButtonHover {
        color:#93cee9;
      }
      .ColorScheme-ButtonFocus{
        color:#3daee9;
      }
      </style>
 <g
   id="kteatime"
   transform="translate(-1.22125e-15,-1.22125e-15)">
  <rect
    y="1.2212453e-015"
    x="1.2212453e-015"
    height="22"
    width="22"
    id="rect3825"
    style="fill:#566060;fill-opacity:0;stroke:none" />
  <path
    style="opacity:1;fill:currentColor;fill-opacity:1;stroke:none"
    d="m 10,2 v 2 h 1 V 2 Z M 7,3 V 4 H 8 V 3 Z m 6,0 v 1 h 1 V 3 Z M 5,7 c 0,2 0,6 0,8 0,2 2,2 2,2 0,0 6,0 8,0 2,0 2,-2 2,-2 v -1 h 1 c 1.108,0 2,-0.892 2,-2 V 8 C 20,6.892 19.108,6 18,6 H 17 C 17,6 17,5 15,5 13,5 7,5 7,5 7,5 5,5 5,7 Z M 6,7 C 6,6 7,6 7,6 H 9 V 7 H 8 C 7.446,7 7,7.446 7,8 v 5 c 0,0.554 0.446,1 1,1 h 3 c 0.554,0 1,-0.446 1,-1 V 8 C 12,7.446 11.554,7 11,7 H 10 V 6 c 0,0 4,0 5,0 1,0 1,1 1,1 v 8 c 0,0 0,1 -1,1 -1,0 -7.9050463,0 -7.9050463,0 C 7.0949537,16 6,16 6,15 6,14 6,8 6,7 Z m 11,0 h 1 c 0.554,0 1,0.446 1,1 v 4 c 0,0.554 -0.446,1 -1,1 H 17 Z M 8,9 h 3 v 4 H 8 Z m -5,9 v 1 h 16 v -1 z"
    id="rect4168"
    class="ColorScheme-Text" />
 </g>
</svg>
