<?xml version="1.0" encoding="UTF-8" standalone="no"?>
<svg
   version="1.1"
   viewBox="0 0 48 48"
   id="svg162"
   sodipodi:docname="preferences-desktop-color.svg"
   inkscape:version="1.2.2 (b0a8486541, 2022-12-01)"
   width="48"
   height="48"
   xmlns:inkscape="http://www.inkscape.org/namespaces/inkscape"
   xmlns:sodipodi="http://sodipodi.sourceforge.net/DTD/sodipodi-0.dtd"
   xmlns:xlink="http://www.w3.org/1999/xlink"
   xmlns="http://www.w3.org/2000/svg"
   xmlns:svg="http://www.w3.org/2000/svg">
  <sodipodi:namedview
     id="namedview164"
     pagecolor="#ffffff"
     bordercolor="#666666"
     borderopacity="1.0"
     inkscape:showpageshadow="2"
     inkscape:pageopacity="0.0"
     inkscape:pagecheckerboard="0"
     inkscape:deskcolor="#d1d1d1"
     showgrid="false"
     inkscape:zoom="10.727273"
     inkscape:cx="10.440678"
     inkscape:cy="11.13983"
     inkscape:window-width="1920"
     inkscape:window-height="1000"
     inkscape:window-x="0"
     inkscape:window-y="0"
     inkscape:window-maximized="1"
     inkscape:current-layer="svg162" />
  <defs
     id="defs110">
    <linearGradient
       id="linearGradient4149"
       x2="0"
       y1="545.79797"
       y2="517.79797"
       gradientTransform="matrix(0.64285714,0,0,0.64285714,138.06132,184.92822)"
       gradientUnits="userSpaceOnUse">
      <stop
         stop-color="#1d1e1e"
         offset="0"
         id="stop2" />
      <stop
         stop-color="#44484c"
         offset="1"
         id="stop4" />
    </linearGradient>
    <linearGradient
       id="linearGradient4274"
       x1="8"
       x2="24.00001"
       y1="23.999973"
       y2="8"
       gradientUnits="userSpaceOnUse"
       xlink:href="#linearGradient4288" />
    <linearGradient
       id="linearGradient4288">
      <stop
         stop-color="#e81877"
         offset="0"
         id="stop8" />
      <stop
         stop-color="#dd1d8c"
         offset=".312499"
         id="stop10" />
      <stop
         stop-color="#6d57b1"
         offset=".562499"
         id="stop12" />
      <stop
         stop-color="#2a78c1"
         offset=".75"
         id="stop14" />
      <stop
         stop-color="#018dcb"
         offset="1"
         id="stop16" />
    </linearGradient>
    <clipPath
       id="clipPath4534">
      <rect
         x="8.0000095"
         y="8"
         width="31.999989"
         height="31.999971"
         rx="15.999986"
         id="rect19" />
    </clipPath>
    <linearGradient
       id="linearGradient4278"
       x1="8"
       x2="24.00001"
       y1="24.000031"
       y2="8"
       gradientTransform="matrix(1,0,0,-1,384.57143,547.798)"
       gradientUnits="userSpaceOnUse"
       xlink:href="#linearGradient4300" />
    <linearGradient
       id="linearGradient4300">
      <stop
         stop-color="#e51561"
         offset="0"
         id="stop23" />
      <stop
         stop-color="#e4156c"
         offset=".312499"
         id="stop25" />
      <stop
         stop-color="#e71e2c"
         offset=".562499"
         id="stop27" />
      <stop
         stop-color="#e8301e"
         offset=".75"
         id="stop29" />
      <stop
         stop-color="#e6320e"
         offset="1"
         id="stop31" />
    </linearGradient>
    <clipPath
       id="clipPath4584">
      <rect
         x="392.57144"
         y="507.798"
         width="31.999989"
         height="31.999971"
         rx="15.999986"
         id="rect34" />
    </clipPath>
    <linearGradient
       id="linearGradient4284"
       x1="8"
       x2="24.00001"
       y1="23.999973"
       y2="8"
       gradientTransform="matrix(-1,0,0,1,432.57143,499.798)"
       gradientUnits="userSpaceOnUse"
       xlink:href="#linearGradient4328" />
    <linearGradient
       id="linearGradient4328">
      <stop
         stop-color="#bec900"
         offset="0"
         id="stop38" />
      <stop
         stop-color="#9ec80a"
         offset=".312499"
         id="stop40" />
      <stop
         stop-color="#71b93d"
         offset=".562499"
         id="stop42" />
      <stop
         stop-color="#35a48f"
         offset=".75"
         id="stop44" />
      <stop
         stop-color="#018fca"
         offset="1"
         id="stop46" />
    </linearGradient>
    <clipPath
       id="clipPath4550">
      <rect
         x="392.57144"
         y="507.798"
         width="31.999989"
         height="31.999971"
         rx="15.999986"
         id="rect49" />
    </clipPath>
    <linearGradient
       id="linearGradient4286"
       x1="8"
       x2="24.00001"
       y1="24"
       y2="8"
       gradientTransform="rotate(180,216.28571,273.899)"
       gradientUnits="userSpaceOnUse"
       xlink:href="#linearGradient4316" />
    <linearGradient
       id="linearGradient4316">
      <stop
         stop-color="#c1cc00"
         offset="0"
         id="stop53" />
      <stop
         stop-color="#dfcd00"
         offset=".312499"
         id="stop55" />
      <stop
         stop-color="#f0cc00"
         offset=".562499"
         id="stop57" />
      <stop
         stop-color="#fd8c08"
         offset=".75"
         id="stop59" />
      <stop
         stop-color="#f25c13"
         offset="1"
         id="stop61" />
    </linearGradient>
    <clipPath
       id="clipPath4568">
      <rect
         x="392.57144"
         y="507.798"
         width="31.999989"
         height="31.999971"
         rx="15.999986"
         id="rect64" />
    </clipPath>
    <clipPath
       id="clipPath4528">
      <rect
         x="8.0000095"
         y="8"
         width="31.999989"
         height="31.999971"
         rx="15.999986"
         id="rect67" />
    </clipPath>
    <filter
       id="filter4390"
       x="-0.060000002"
       y="-0.060000002"
       width="1.12"
       height="1.12"
       color-interpolation-filters="sRGB">
      <feGaussianBlur
         stdDeviation="0.4"
         id="feGaussianBlur70" />
    </filter>
    <clipPath
       id="clipPath4578">
      <rect
         x="392.57144"
         y="507.798"
         width="31.999989"
         height="31.999971"
         rx="15.999986"
         id="rect73" />
    </clipPath>
    <clipPath
       id="clipPath4562">
      <rect
         x="392.57144"
         y="507.798"
         width="31.999989"
         height="31.999971"
         rx="15.999986"
         id="rect76" />
    </clipPath>
    <clipPath
       id="clipPath4544">
      <rect
         x="392.57144"
         y="507.798"
         width="31.999989"
         height="31.999971"
         rx="15.999986"
         id="rect79" />
    </clipPath>
    <clipPath
       id="clipPath4528-1">
      <rect
         x="8.0000095"
         y="8"
         width="31.999989"
         height="31.999971"
         rx="15.999986"
         id="rect82" />
    </clipPath>
    <clipPath
       id="clipPath4578-8">
      <rect
         x="392.57144"
         y="507.798"
         width="31.999989"
         height="31.999971"
         rx="15.999986"
         id="rect85" />
    </clipPath>
    <clipPath
       id="clipPath4562-8">
      <rect
         x="392.57144"
         y="507.798"
         width="31.999989"
         height="31.999971"
         rx="15.999986"
         id="rect88" />
    </clipPath>
    <clipPath
       id="clipPath4544-1">
      <rect
         x="392.57144"
         y="507.798"
         width="31.999989"
         height="31.999971"
         rx="15.999986"
         id="rect91" />
    </clipPath>
    <linearGradient
       id="linearGradient4314"
       x2="0"
       y1="543.79797"
       y2="503.798"
       gradientTransform="matrix(0.12857147,0,0,0.12857152,343.04079,-594.14351)"
       gradientUnits="userSpaceOnUse">
      <stop
         stop-color="#2a2c2f"
         offset="0"
         id="stop94" />
      <stop
         stop-color="#424649"
         offset="1"
         id="stop96" />
    </linearGradient>
    <linearGradient
       id="linearGradient4917"
       x2="0"
       y1="524.79797"
       y2="522.79797"
       gradientTransform="matrix(1.0000033,0,0,1.0000033,-13.001377,2.9982667)"
       gradientUnits="userSpaceOnUse">
      <stop
         stop-color="#989a9b"
         offset="0"
         id="stop99" />
      <stop
         stop-color="#f6f6f7"
         offset="1"
         id="stop101" />
    </linearGradient>
    <linearGradient
       id="linearGradient4499"
       x1="393.57144"
       x2="407.57147"
       y1="524.79797"
       y2="538.79797"
       gradientTransform="matrix(0.64285714,0,0,0.64285714,138.06123,184.92785)"
       gradientUnits="userSpaceOnUse">
      <stop
         stop-color="#292c2f"
         offset="0"
         id="stop104" />
      <stop
         stop-opacity="0"
         offset="1"
         id="stop106" />
    </linearGradient>
    <linearGradient
       id="linearGradient923"
       x1="8"
       x2="24.00001"
       y1="24"
       y2="8"
       gradientTransform="rotate(180,216.28571,273.899)"
       gradientUnits="userSpaceOnUse"
       xlink:href="#linearGradient4316" />
    <linearGradient
       id="linearGradient4917-3"
       x2="0"
       y1="524.79797"
       y2="522.79797"
       gradientTransform="matrix(2.4999823,0,0,2.4999823,-997.41697,-1285.4907)"
       gradientUnits="userSpaceOnUse">
      <stop
         stop-color="#989a9b"
         offset="0"
         id="stop99-6" />
      <stop
         stop-color="#f6f6f7"
         offset="1"
         id="stop101-7" />
    </linearGradient>
  </defs>
  <g
     transform="matrix(3.0519595,0,0,3.0525474,-1.8343038,-1.8352351)"
     stroke-width="0.96313"
     id="g309">
    <path
       d="m 13.323,3.603 c -0.048,0.049 2.02,4.86 2.02,4.86 l -2.02,4.858 c 0,0 -4.86,-2.568 -4.86,-4.859 0,-2.29 4.86,-4.859 4.86,-4.859 z"
       fill="#46a926"
       style="isolation:isolate"
       id="path285" />
    <path
       d="M 3.604,13.321 C 3.653,13.272 1.584,8.462 1.584,8.462 l 2.02,-4.859 c 0,0 4.86,2.569 4.86,4.86 0,2.29 -4.86,4.858 -4.86,4.858 z"
       fill="#f22c42"
       style="isolation:isolate"
       id="path287" />
    <path
       d="M 13.323,3.603 C 13.275,3.652 8.463,1.584 8.463,1.584 l -4.86,2.019 4.86,4.86 z"
       fill="#ffda64"
       style="isolation:isolate"
       id="path289" />
    <path
       d="m 3.604,13.321 4.86,2.013 c 0,0 4.81,-2.062 4.86,-2.013 L 8.464,8.462 Z"
       fill="#2f5fdd"
       style="isolation:isolate"
       id="path291" />
    <path
       d="M 8.464,1.587 C 8.463,3.345 9.136,5.103 10.483,6.449 L 13.328,3.605 A 6.88,6.88 0 0 0 8.467,1.587 Z"
       fill="#a6d74f"
       style="isolation:isolate"
       id="path293" />
    <path
       d="M 13.328,3.605 10.483,6.449 A 6.84,6.84 0 0 0 15.346,8.461 6.88,6.88 0 0 0 13.328,3.605 Z"
       fill="#76c22b"
       style="isolation:isolate"
       id="path295" />
    <path
       d="m 10.476,10.481 a 6.85,6.85 0 0 0 -2.019,4.862 h 0.069 a 6.88,6.88 0 0 0 4.8,-2.013 z"
       fill="#1463a5"
       style="isolation:isolate"
       id="path297" />
    <path
       d="m 15.346,8.469 a 6.84,6.84 0 0 0 -4.87,2.012 l 2.85,2.85 a 6.88,6.88 0 0 0 2.02,-4.862 z"
       fill="#2b898f"
       style="isolation:isolate"
       id="path299" />
    <path
       d="m 1.587,8.463 a 6.88,6.88 0 0 0 0,0.003 6.88,6.88 0 0 0 2.014,4.857 l 2.85,-2.848 A 6.839,6.839 0 0 0 1.587,8.464 Z"
       fill="#9b33ae"
       style="isolation:isolate"
       id="path301" />
    <path
       d="M 6.45,10.475 3.6,13.323 a 6.88,6.88 0 0 0 4.826,2.02 H 8.469 A 6.85,6.85 0 0 0 6.45,10.475 Z"
       fill="#7839b7"
       style="isolation:isolate"
       id="path303" />
    <path
       d="M 8.467,1.587 A 6.88,6.88 0 0 0 3.609,3.602 l 2.848,2.847 a 6.85,6.85 0 0 0 2.019,-4.861 6.88,6.88 0 0 0 -0.01,0 z"
       fill="#fdc92b"
       style="isolation:isolate"
       id="path305" />
    <path
       d="M 3.609,3.602 A 6.88,6.88 0 0 0 1.588,8.461 6.84,6.84 0 0 0 6.457,6.449 Z"
       fill="#f34f17"
       style="isolation:isolate"
       id="path307" />
  </g>
  <circle
     cx="23.999643"
     cy="23.999771"
     r="15.555529"
     fill="#ffffff"
     opacity="0.35"
     style="stroke-width:2.93966;paint-order:fill markers stroke"
     id="circle311" />
  <g
     fill="#ffffff"
     id="g319"
     transform="matrix(2.9396643,0,0,2.9396643,-0.88902592,-0.88889898)">
    <path
       d="m 9.59,9.589 a 1.588,1.588 0 0 1 -2.246,0 1.588,1.588 0 0 1 0,-2.245 1.588,1.588 0 0 1 2.245,0 1.588,1.588 0 0 1 0,2.245 z"
       color="#000000"
       opacity="0.5"
       overflow="visible"
       style="isolation:auto;mix-blend-mode:normal;paint-order:fill markers stroke"
       id="path313" />
    <path
       d="M 8.467,4.031 A 0.126,0.126 0 0 0 8.379,4.069 L 6.277,6.171 a 3.175,3.175 0 0 0 -0.056,0.05 3.175,3.175 0 0 0 0,4.49 3.175,3.175 0 0 0 4.49,0 3.175,3.175 0 0 0 10e-4,-4.49 3.175,3.175 0 0 0 -0.076,-0.07 C 10.632,6.146 10.631,6.141 10.626,6.136 L 8.559,4.069 A 0.126,0.126 0 0 0 8.467,4.031 Z M 8.49,6.879 a 1.588,1.588 0 0 1 1.1,0.465 1.588,1.588 0 0 1 0,2.245 1.588,1.588 0 0 1 -2.246,0 1.588,1.588 0 0 1 0,-2.245 1.588,1.588 0 0 1 1.146,-0.465 z"
       color="#000000"
       overflow="visible"
       style="isolation:auto;mix-blend-mode:normal;paint-order:fill markers stroke"
       id="path315" />
  </g>
  <path
     d="m 21.505136,26.495421 2.5,-5 2.49995,5 z"
     fill="url(#linearGradient4917)"
     fill-rule="evenodd"
     id="path158"
     style="fill:url(#linearGradient4917-3);stroke-width:2.49999" />
</svg>
