<?xml version="1.0" encoding="UTF-8" standalone="no"?>
<svg
   viewBox="0 0 22 22"
   id="svg6"
   version="1.1"
   sodipodi:docname="folder-wings.svg"
   inkscape:version="1.2.1 (9c6d41e410, 2022-07-14)"
   width="22"
   height="22"
   xmlns:inkscape="http://www.inkscape.org/namespaces/inkscape"
   xmlns:sodipodi="http://sodipodi.sourceforge.net/DTD/sodipodi-0.dtd"
   xmlns="http://www.w3.org/2000/svg"
   xmlns:svg="http://www.w3.org/2000/svg">
  <sodipodi:namedview
     id="namedview7"
     pagecolor="#ffffff"
     bordercolor="#666666"
     borderopacity="1.0"
     inkscape:showpageshadow="2"
     inkscape:pageopacity="0.0"
     inkscape:pagecheckerboard="0"
     inkscape:deskcolor="#d1d1d1"
     showgrid="true"
     inkscape:zoom="14.75"
     inkscape:cx="5.5932203"
     inkscape:cy="-2.7457627"
     inkscape:window-width="1920"
     inkscape:window-height="1004"
     inkscape:window-x="0"
     inkscape:window-y="0"
     inkscape:window-maximized="1"
     inkscape:current-layer="svg6">
    <inkscape:grid
       type="xygrid"
       id="grid629"
       originx="0"
       originy="0" />
  </sodipodi:namedview>
  <defs
     id="defs3051">
    <style
       type="text/css"
       id="current-color-scheme">.ColorScheme-Text { color:#eff0f1; }
</style>
  </defs>
  <path
     d="M 7.2866827,3.000017 C 6.4464489,4.1078983 5.8947387,5.3309541 5.5574796,6.6417633 5.4541594,7.0439634 5.4054174,7.4479914 5.4541594,7.864818 5.5029044,8.2834727 5.7134388,8.6198585 5.9941655,8.9324784 6.4600986,9.4516836 6.9962102,9.908731 7.505023,10.385886 c 1.3100634,1.2322 2.581134,2.497302 3.846359,3.769721 0.686222,0.687392 1.421189,1.332741 2.14249,1.990894 0.113074,0.102379 0.103349,0.148079 0,0.250462 -0.859726,0.839139 -1.715552,1.685588 -2.56748,2.533866 -0.08968,0.08782 -0.138413,0.09322 -0.23004,0.0093 -0.8577813,-0.782494 -1.7175102,-1.561301 -2.5811351,-2.336452 -0.070176,-0.06221 -0.064341,-0.09325 0,-0.148086 0.5049181,-0.438763 1.0078871,-0.877525 1.5089105,-1.31995 0.06434,-0.05852 0.1091725,-0.05665 0.1715553,0 0.2241973,0.195617 0.4483853,0.391234 0.6803743,0.579539 0.07993,0.06399 0.06238,0.100606 0,0.162705 l -0.48932,0.506432 c -0.06624,0.06576 -0.070175,0.104159 0.0078,0.166366 0.231987,0.188302 0.458127,0.382089 0.680369,0.577707 0.06624,0.05852 0.109173,0.07131 0.17936,-0.0036 0.270973,-0.288849 0.54586,-0.572219 0.82659,-0.851931 0.07602,-0.07501 0.06236,-0.115178 -0.0055,-0.186477 -0.378126,-0.389654 -0.766071,-0.76809 -1.157921,-1.14287 C 9.7435025,14.206776 8.9714984,13.464533 8.1527107,12.771651 7.277391,12.029407 6.365022,11.331043 5.4546119,10.629017 5.0510629,10.320054 4.6553178,10.007435 4.2829627,9.663735 4.1386989,9.5302782 4.0100332,9.3840225 3.8950097,9.2267993 3.750754,9.0311839 3.6922674,8.8227697 3.7429534,8.5814491 4.1484443,6.7039045 5.1153988,5.1042413 6.4936952,3.7111645 6.6262544,3.575878 6.7666236,3.4460778 6.9089321,3.3181049 7.0375984,3.2065852 7.1623675,3.1042066 7.2871379,3 Z m 7.5620963,0.040227 c 0.171564,0.08959 0.267085,0.1974447 0.374302,0.2943378 1.298368,1.1864927 2.275062,2.5667737 2.850169,4.1865445 0.130623,0.3638096 0.230034,0.7349313 0.306068,1.113366 0.03118,0.1590514 0.0016,0.2998217 -0.0741,0.4387639 -0.220292,0.4058574 -0.575099,0.7056793 -0.935758,0.9927048 -0.88897,0.711164 -1.795482,1.400388 -2.678602,2.113378 -0.727166,0.586849 -1.425084,1.204777 -2.097662,1.846471 -0.02926,0.02736 -0.06242,0.05119 -0.08576,0.08231 -0.103345,0.131614 -0.183257,0.120627 -0.294377,-0.0093 -0.183251,-0.210011 -0.38795,-0.401973 -0.588752,-0.595759 -0.06627,-0.06399 -0.06824,-0.102378 -0.0019,-0.17185 1.066386,-1.07489 2.126909,-2.155348 3.24982,-3.180959 0.442482,-0.4040726 0.875269,-0.8172421 1.284665,-1.25235 0.489324,-0.5192048 0.608241,-1.1298192 0.493224,-1.7769973 -0.253442,-1.4570374 -0.846083,-2.7916133 -1.754558,-4.0000444 -0.01004,-0.010974 -0.01559,-0.02559 -0.04677,-0.08044 z m -1.701909,7.751508 c -0.0077,-0.557596 -0.06038,-1.0768007 -0.612143,-1.4040451 1.664862,-0.7623537 2.489498,-2.1206961 3.041215,-3.7130446 0.395746,1.1316473 0.501022,2.1901652 -0.391847,3.1499636 -0.62774,0.6727713 -1.306161,1.2998381 -1.972901,1.9378771 -0.0113,0.0092 -0.02924,0.01098 -0.06436,0.02927 z M 9.587087,9.3858746 C 9.0334317,9.7240896 8.9827422,10.245123 8.9632518,10.813689 8.8638255,10.716795 8.7916898,10.643667 8.715658,10.574196 8.1697997,10.053163 7.6258964,9.5284743 7.0897863,8.9946438 6.2651461,8.177445 6.0818912,7.2395853 6.3860127,6.1847233 6.4308892,6.0348118 6.4756902,5.8830725 6.5224789,5.7331624 c 0.00198,-0.00734 0.017559,-0.0128 0.035115,-0.027426 0.5458594,1.5539557 1.3568483,2.9159542 3.0295216,3.6801357 z M 13.03575,8.4059618 c 0.130615,-0.3894043 0.06039,-0.738587 -0.187156,-1.0658327 -0.05068,-0.069468 -0.17935,-0.122493 -0.148165,-0.1992727 0.02538,-0.062161 0.150117,-0.087748 0.230041,-0.1316262 1.003987,-0.5447983 1.696069,-1.3181216 2.004089,-2.3766405 0.0273,-0.093241 0.04098,-0.1864757 0.06237,-0.2925097 0.105322,0.1846474 0.142317,0.5868477 0.09937,0.8683874 -0.11308,0.7495567 -0.477636,1.3912491 -0.935766,1.9982061 -0.323611,0.4351093 -0.694018,0.8354812 -1.124854,1.1992908 z m -3.9321385,0.00735 C 8.8150855,8.1957398 8.5772451,7.9416231 8.3452566,7.6783639 7.8734822,7.1463618 7.4718795,6.5741407 7.2125992,5.923307 7.0254491,5.4461495 6.965016,4.9561961 7.0624852,4.4552744 c 0.00533,-0.027413 0.011719,-0.053013 0.021493,-0.078613 0.00534,-0.014625 0.01362,-0.029259 0.03119,-0.06399 0.05262,0.2266958 0.097461,0.4387656 0.1773996,0.6398667 C 7.6668702,5.9031935 8.3628413,6.5832792 9.29275,7.0677469 9.4077783,7.1262389 9.4467601,7.1664669 9.341496,7.270676 9.0334766,7.5851228 8.9671916,7.9544164 9.082211,8.3566165 Z"
     id="path2986"
     style="fill:currentColor;fill-opacity:1;stroke-width:0.018879"
     class="ColorScheme-Text" />
</svg>
