<?xml version="1.0" encoding="UTF-8" standalone="no"?>
<svg
   viewBox="0 0 16 16"
   version="1.1"
   id="svg6"
   sodipodi:docname="library-music.svg"
   inkscape:version="1.2.1 (9c6d41e410, 2022-07-14)"
   xmlns:inkscape="http://www.inkscape.org/namespaces/inkscape"
   xmlns:sodipodi="http://sodipodi.sourceforge.net/DTD/sodipodi-0.dtd"
   xmlns="http://www.w3.org/2000/svg"
   xmlns:svg="http://www.w3.org/2000/svg">
  <sodipodi:namedview
     id="namedview8"
     pagecolor="#ffffff"
     bordercolor="#666666"
     borderopacity="1.0"
     inkscape:showpageshadow="2"
     inkscape:pageopacity="0.0"
     inkscape:pagecheckerboard="0"
     inkscape:deskcolor="#d1d1d1"
     showgrid="true"
     inkscape:zoom="41.7193"
     inkscape:cx="5.0336415"
     inkscape:cy="8.2096296"
     inkscape:window-width="1920"
     inkscape:window-height="1000"
     inkscape:window-x="0"
     inkscape:window-y="0"
     inkscape:window-maximized="1"
     inkscape:current-layer="svg6">
    <inkscape:grid
       type="xygrid"
       id="grid237" />
  </sodipodi:namedview>
  <defs
     id="defs3051">
    <style
       type="text/css"
       id="current-color-scheme">
      .ColorScheme-Text {
        color:#eff0f1;
      }
      </style>
  </defs>
  <path
     style="fill:currentColor;fill-opacity:1;stroke:none"
     d="m 5,3 v 1 6.275391 C 4.705,10.104292 4.3669285,10 4,10 c -1.1079952,0 -2,0.892005 -2,2 0,1.107995 0.8920048,2 2,2 1.1079952,0 2,-0.892005 2,-2 V 6 h 7 V 8.2753906 C 12.705,8.1042919 12.366929,8 12,8 c -1.107995,0 -2,0.8920048 -2,2 0,1.107995 0.892005,2 2,2 1.107995,0 2,-0.892005 2,-2 V 3 C 14,2 12.948583,2 12.948583,2 H 5.9807336 C 5.9807336,2 5,2 5,3 Z m 1,1 h 7 V 5 H 6 Z"
     class="ColorScheme-Text"
     id="path4"
     sodipodi:nodetypes="cccsssscccssssccccccccc" />
</svg>
