<?xml version="1.0" encoding="UTF-8" standalone="no"?>
<svg
   viewBox="0 0 22 22"
   version="1.1"
   id="svg6"
   sodipodi:docname="folder-pictures.svg"
   inkscape:version="1.2.1 (9c6d41e410, 2022-07-14)"
   xmlns:inkscape="http://www.inkscape.org/namespaces/inkscape"
   xmlns:sodipodi="http://sodipodi.sourceforge.net/DTD/sodipodi-0.dtd"
   xmlns="http://www.w3.org/2000/svg"
   xmlns:svg="http://www.w3.org/2000/svg">
  <sodipodi:namedview
     id="namedview8"
     pagecolor="#ffffff"
     bordercolor="#666666"
     borderopacity="1.0"
     inkscape:showpageshadow="2"
     inkscape:pageopacity="0.0"
     inkscape:pagecheckerboard="0"
     inkscape:deskcolor="#d1d1d1"
     showgrid="true"
     inkscape:zoom="21.454545"
     inkscape:cx="9.8114407"
     inkscape:cy="17.711864"
     inkscape:window-width="1920"
     inkscape:window-height="1004"
     inkscape:window-x="0"
     inkscape:window-y="0"
     inkscape:window-maximized="1"
     inkscape:current-layer="svg6">
    <inkscape:grid
       type="xygrid"
       id="grid237" />
  </sodipodi:namedview>
  <defs
     id="defs3051">
    <style
       type="text/css"
       id="current-color-scheme">
      .ColorScheme-Text {
        color:#eff0f1
      }
      </style>
  </defs>
  <path
     style="fill:currentColor;fill-opacity:1;stroke:none"
     d="m 3,4 v 14 c 0,1 1,1 1,1 H 17.975307 C 18,19 19,19 19,18 V 4 C 19,3 18,3 18,3 H 4 C 4,3 3,3 3,4 Z M 4,4 H 18 V 16.998047 18 H 4 v -1.001953 z m 0,12.998047 h 2.7988281 l 2.8007813,-3.330078 -1.3984375,-1.66211 z m 14,0 -4.201172,-4.992188 -4.1992186,4.992188 z M 7,5 C 5.8954305,5 5,5.8954305 5,7 5,8.1045695 5.8954305,9 7,9 8.1045695,9 9,8.1045695 9,7 9,5.8954305 8.1045695,5 7,5 Z"
     class="ColorScheme-Text"
     id="path4"
     sodipodi:nodetypes="cccccccccccccccccccccccccsssss" />
</svg>
