<?xml version="1.0" encoding="UTF-8" standalone="no"?>
<svg
   inkscape:version="1.2.2 (b0a8486541, 2022-12-01)"
   sodipodi:docname="panel-background.svg"
   id="svg200"
   viewBox="0 0 173 66"
   version="1.1"
   height="66"
   width="173"
   xmlns:inkscape="http://www.inkscape.org/namespaces/inkscape"
   xmlns:sodipodi="http://sodipodi.sourceforge.net/DTD/sodipodi-0.dtd"
   xmlns:xlink="http://www.w3.org/1999/xlink"
   xmlns="http://www.w3.org/2000/svg"
   xmlns:svg="http://www.w3.org/2000/svg"
   xmlns:rdf="http://www.w3.org/1999/02/22-rdf-syntax-ns#"
   xmlns:cc="http://creativecommons.org/ns#"
   xmlns:dc="http://purl.org/dc/elements/1.1/">
  <metadata
     id="metadata204">
    <rdf:RDF>
      <cc:Work
         rdf:about="">
        <dc:format>image/svg+xml</dc:format>
        <dc:type
           rdf:resource="http://purl.org/dc/dcmitype/StillImage" />
      </cc:Work>
    </rdf:RDF>
  </metadata>
  <sodipodi:namedview
     inkscape:document-rotation="0"
     inkscape:guide-bbox="true"
     showguides="true"
     inkscape:current-layer="svg200"
     inkscape:window-maximized="1"
     inkscape:window-y="0"
     inkscape:window-x="0"
     inkscape:cy="50.374997"
     inkscape:cx="84.499996"
     inkscape:zoom="4.0000002"
     showgrid="true"
     id="namedview202"
     inkscape:window-height="1002"
     inkscape:window-width="1920"
     inkscape:pageshadow="2"
     inkscape:pageopacity="0"
     guidetolerance="10"
     gridtolerance="10"
     objecttolerance="10"
     borderopacity="1"
     bordercolor="#0f13ff"
     pagecolor="#000000"
     inkscape:pagecheckerboard="true"
     inkscape:lockguides="false"
     inkscape:showpageshadow="false"
     inkscape:deskcolor="#000000">
    <inkscape:grid
       id="grid914"
       type="xygrid"
       originx="0"
       originy="0" />
  </sodipodi:namedview>
  <defs
     id="defs24">
    <style
       type="text/css"
       id="current-color-scheme">.ColorScheme-Text { color:#31363b;        stop-color:#31363b; }
.ColorScheme-Background { 
    color:#23272f;
    stop-color:#23272f;
}
.ColorScheme-Highlight { color:#3daee9;        stop-color:#3daee9; }
.ColorScheme-ViewText { color:#31363b;        stop-color:#31363b; }
.ColorScheme-ViewBackground { color:#fcfcfc;        stop-color:#fcfcfc; }
.ColorScheme-ViewHover { color:#93cee9;        stop-color:#93cee9; }
.ColorScheme-ViewFocus { color:#3daee9;        stop-color:#3daee9; }
.ColorScheme-ButtonText { color:#31363b;        stop-color:#31363b; }
.ColorScheme-ButtonBackground { color:#eff0f1;        stop-color:#eff0f1; }
.ColorScheme-ButtonHover { color:#93cee9;        stop-color:#93cee9; }
.ColorScheme-ButtonFocus { color:#3daee9;        stop-color:#3daee9; }
</style>
    <linearGradient
       inkscape:collect="always"
       id="linearGradient4270">
      <stop
         style="stop-color:#000000;stop-opacity:0.66663194"
         offset="0"
         id="stop4272" />
      <stop
         style="stop-color:#000000;stop-opacity:0;"
         offset="1"
         id="stop4274" />
    </linearGradient>
    <radialGradient
       r="6"
       fy="11.99998"
       fx="77"
       cy="11.99998"
       cx="77"
       gradientTransform="matrix(5.7846367e-6,4.2777818,-4.3333408,5.8597676e-6,123.99951,-295.38923)"
       gradientUnits="userSpaceOnUse"
       id="radialGradient1031"
       xlink:href="#linearGradient4270"
       inkscape:collect="always" />
    <radialGradient
       r="6"
       fy="11.99998"
       fx="77"
       cy="11.99998"
       cx="77"
       gradientTransform="matrix(-1.5825255e-5,4.2777788,4.3333373,1.6030788e-5,8.0012813,-295.38906)"
       gradientUnits="userSpaceOnUse"
       id="radialGradient1025"
       xlink:href="#linearGradient4270"
       inkscape:collect="always" />
    <radialGradient
       r="6"
       fy="11.99998"
       fx="77"
       cy="11.99998"
       cx="77"
       gradientTransform="matrix(-2.3628878e-5,-3.4047492,3.4489787,-2.3935722e-5,-45.38589,1210.814)"
       gradientUnits="userSpaceOnUse"
       id="radialGradient1019"
       xlink:href="#linearGradient4270"
       inkscape:collect="always" />
    <linearGradient
       gradientTransform="matrix(0.92307721,0,0,1.1666546,4.846121,-158.04941)"
       y2="932.362"
       x2="61.999981"
       y1="932.362"
       x1="48.999989"
       gradientUnits="userSpaceOnUse"
       id="linearGradient4950"
       xlink:href="#linearGradient4270"
       inkscape:collect="always" />
    <linearGradient
       y2="932.362"
       x2="-8.0000019"
       y1="932.362"
       x1="-21.000002"
       gradientUnits="userSpaceOnUse"
       id="linearGradient4948"
       xlink:href="#linearGradient4270"
       inkscape:collect="always"
       gradientTransform="matrix(0.98901092,0,0,1.1666553,0.78022272,-158.04999)" />
    <linearGradient
       gradientTransform="matrix(0.92307785,0,0,1,73.899536,0)"
       y2="-34.999985"
       x2="959.35999"
       y1="-34.999985"
       x1="946.36212"
       gradientUnits="userSpaceOnUse"
       id="linearGradient4934"
       xlink:href="#linearGradient4270"
       inkscape:collect="always" />
    <radialGradient
       r="6"
       fy="11.99998"
       fx="77"
       cy="11.99998"
       cx="77"
       gradientTransform="matrix(-1.9723848e-5,-3.4047537,3.4489758,-1.9979993e-5,-45.386162,1210.8141)"
       gradientUnits="userSpaceOnUse"
       id="radialGradient994"
       xlink:href="#linearGradient4270"
       inkscape:collect="always" />
    <linearGradient
       gradientTransform="matrix(1.3846164,0,0,1.1666572,353.83253,8.4996313)"
       y2="-34.999977"
       x2="-905.36218"
       y1="-34.999985"
       x1="-918.36206"
       gradientUnits="userSpaceOnUse"
       id="linearGradient4920"
       xlink:href="#linearGradient4270"
       inkscape:collect="always" />
  </defs>
  <g
     style="opacity:0.5"
     transform="matrix(1.1666636,0,0,1.1666636,62.666609,-1080.7526)"
     id="shadow-topleft">
    <path
       id="path4828"
       d="m -26.285734,926.36215 v 22.28577 h 10.285741 c 0,-6.8575 5.061683,-11.99974 12.0000321,-12.00003 v -10.28574 z"
       style="opacity:1;fill:url(#radialGradient994);fill-opacity:1;fill-rule:evenodd;stroke:none;stroke-width:1.85714px;stroke-linecap:butt;stroke-linejoin:miter;stroke-opacity:1"
       sodipodi:nodetypes="cccccc" />
  </g>
  <g
     style="opacity:0.5"
     id="shadow-topright"
     transform="matrix(-1.1666644,0,0,1.1666644,67.333351,-1080.7534)">
    <path
       id="path1015"
       d="m -3.9999924,926.3622 v 10.28573 c -6.8021366,10e-5 -12.0000236,5.14253 -12.0000236,12.00003 H -26.28575 V 926.3622 Z"
       style="opacity:1;fill:url(#radialGradient1019);fill-opacity:1;fill-rule:evenodd;stroke:none;stroke-width:1.85715px;stroke-linecap:butt;stroke-linejoin:miter;stroke-opacity:1"
       sodipodi:nodetypes="cccccc" />
  </g>
  <g
     style="opacity:0.5"
     id="shadow-bottomright"
     transform="matrix(-1.0833359,0,0,-1.0833359,67.666567,1069.5618)">
    <path
       id="path1027"
       transform="matrix(-0.85714085,0,0,-0.85714085,57.71406,979.50491)"
       d="M 87.076924,34 C 87.076932,42.715514 80.626703,49.077106 72,49.076927 V 62 h 28 V 34 Z"
       style="opacity:1;fill:url(#radialGradient1031);fill-opacity:1;fill-rule:evenodd;stroke:none;stroke-width:2.33334px;stroke-linecap:butt;stroke-linejoin:miter;stroke-opacity:1"
       sodipodi:nodetypes="cccccc" />
  </g>
  <g
     style="opacity:0.5"
     id="shadow-bottomleft"
     transform="matrix(1.0833351,0,0,-1.0833352,62.333407,1069.5614)">
    <path
       transform="matrix(0.85714144,0,0,-0.85714144,-55.42855,979.50498)"
       id="path1021"
       d="M 32,34 V 62 H 60 V 49.076699 C 51.384618,49.076268 44.923081,42.6711 44.923079,34 Z"
       style="opacity:1;fill:url(#radialGradient1025);fill-opacity:1;fill-rule:evenodd;stroke:none;stroke-width:2.33333px;stroke-linecap:butt;stroke-linejoin:miter;stroke-opacity:1"
       sodipodi:nodetypes="cccccc" />
  </g>
  <rect
     id="hint-tile-center"
     y="-1.4648437e-05"
     width="5"
     height="5"
     x="0"
     style="opacity:0.01;fill:#008080" />
  <rect
     style="stroke-width:0.437499;stroke:none;fill-opacity:1;fill:#222638;opacity:1"
     id="center"
     width="14"
     height="14"
     x="58"
     y="26.000429"
     class="ColorScheme-Background" />
  <rect
     y="12.000467"
     x="61"
     height="3.9995327"
     width="4"
     id="hint-top-margin"
     style="opacity:0.01;fill:#008080;fill-opacity:1;stroke:none;stroke-width:0.816448" />
  <rect
     style="opacity:0.01;fill:#008080;fill-opacity:1;stroke:none;stroke-width:0.816537"
     id="hint-bottom-margin"
     width="4"
     height="4.0003853"
     x="65"
     y="50" />
  <rect
     transform="rotate(90)"
     style="opacity:0.01;fill:#008080;fill-opacity:1;stroke:none;stroke-width:0.408248"
     id="hint-right-margin"
     width="4"
     height="1"
     x="27"
     y="-86" />
  <rect
     transform="rotate(90)"
     y="-45"
     x="32"
     height="1"
     width="4"
     id="hint-left-margin"
     style="opacity:0.01;fill:#00ff00;fill-opacity:1;stroke:none;stroke-width:0.408248" />
  <g
     style="opacity:0.5"
     transform="matrix(0.37500332,0,0,1.4444434,52.874889,-1297.6333)"
     id="shadow-top">
    <rect
       y="-50.999985"
       x="-916.36218"
       height="32"
       width="6"
       id="rect4820"
       style="opacity:1;fill:none;fill-opacity:1;stroke:none"
       transform="matrix(0,-1,-1,0,0,0)" />
    <rect
       y="-50.999847"
       x="-906.66986"
       height="37.333004"
       width="8.3076982"
       id="rect4822"
       style="opacity:1;fill:url(#linearGradient4920);fill-opacity:1;stroke:none;stroke-width:1.27098"
       transform="matrix(0,-1,-1,0,0,0)" />
    <rect
       transform="matrix(0,-1,-1,0,0,0)"
       style="opacity:1;fill:none;fill-opacity:1;stroke:none"
       id="rect4824"
       width="0.99997741"
       height="32"
       x="-911.36218"
       y="-50.999985" />
  </g>
  <g
     style="opacity:0.5"
     transform="matrix(0.4375,0,0,2.1619027,49.687507,-2010.2667)"
     id="shadow-bottom">
    <rect
       transform="rotate(90)"
       style="opacity:1;fill:none;fill-opacity:1;stroke:none"
       id="rect4856"
       width="6"
       height="32"
       x="948.36218"
       y="-50.999985" />
    <rect
       transform="rotate(90)"
       style="opacity:1;fill:url(#linearGradient4934);fill-opacity:1;stroke:none;stroke-width:0.960769"
       id="rect4858"
       width="5.5384669"
       height="32"
       x="954.85016"
       y="-50.999985" />
    <rect
       y="-50.999985"
       x="953.36218"
       height="31.999971"
       width="1.0000226"
       id="rect4860"
       style="opacity:1;fill:none;fill-opacity:1;stroke:none"
       transform="rotate(90)" />
  </g>
  <g
     style="opacity:0.5"
     transform="matrix(2.022222,0,0,0.3750037,19.577774,-315.63881)"
     id="shadow-left">
    <rect
       transform="scale(-1,1)"
       style="opacity:1;fill:none;fill-opacity:1;stroke:none"
       id="rect4892"
       width="5.9999995"
       height="32"
       x="-19.000004"
       y="916.36218" />
    <rect
       transform="scale(-1,1)"
       style="opacity:1;fill:url(#linearGradient4948);fill-opacity:1;stroke:none;stroke-width:1.07417"
       id="rect4894"
       width="5.9340668"
       height="37.332966"
       x="-12.076926"
       y="911.02893" />
    <rect
       y="916.36218"
       x="-14.000002"
       height="32.000023"
       width="1.0000019"
       id="rect4896"
       style="opacity:1;fill:none;fill-opacity:1;stroke:none"
       transform="scale(-1,1)" />
  </g>
  <g
     style="opacity:0.5"
     transform="matrix(2.1666668,0,0,0.37500392,-38.499912,-315.63901)"
     id="shadow-right">
    <rect
       y="916.36218"
       x="50.999985"
       height="32"
       width="5.9999995"
       id="rect4900"
       style="opacity:1;fill:none;fill-opacity:1;stroke:none" />
    <rect
       y="911.02893"
       x="57.461494"
       height="37.332943"
       width="5.5384612"
       id="rect4902"
       style="opacity:1;fill:url(#linearGradient4950);fill-opacity:1;stroke:none;stroke-width:1.03774" />
    <rect
       style="opacity:1;fill:none;fill-opacity:1;stroke:none"
       id="rect4904"
       width="1"
       height="32.000023"
       x="55.999985"
       y="916.36218" />
  </g>
  <rect
     style="opacity:0.01;fill:#008080;fill-opacity:1;stroke:none;stroke-width:1.41422"
     id="shadow-hint-top-margin"
     width="4"
     height="12"
     x="63"
     y="0.00046353877" />
  <rect
     y="54.000385"
     x="63"
     height="11.999977"
     width="4"
     id="shadow-hint-bottom-margin"
     style="opacity:0.01;fill:#008080;fill-opacity:1;stroke:none;stroke-width:1.41421" />
  <rect
     y="-98"
     x="31.000429"
     height="12"
     width="3.9999769"
     id="shadow-hint-right-margin"
     style="opacity:0.01;fill:#008080;fill-opacity:1;stroke:none;stroke-width:1.41422"
     transform="rotate(90)" />
  <rect
     style="opacity:0.01;fill:#008080;fill-opacity:1;stroke:none;stroke-width:1.41421"
     id="shadow-hint-left-margin"
     width="4.0000229"
     height="12"
     x="31.000429"
     y="-44"
     transform="rotate(90)" />
  <g
     transform="matrix(0.43749979,0,0,1.0833395,121.68751,-974.23087)"
     id="mask-top"
     style="opacity:1;fill:#1d2030;fill-opacity:1">
    <rect
       y="-51"
       x="-922.36218"
       height="32.000015"
       width="11.999931"
       id="rect4265"
       style="opacity:0.97;fill:#1d2030;fill-opacity:1;stroke:none;stroke-width:1.54919"
       transform="matrix(0,-1,-1,0,0,0)" />
  </g>
  <g
     transform="matrix(1.3,0,0,1.3,99.1,-1171.4708)"
     id="mask-topleft"
     style="opacity:1;fill:#1d2030;fill-opacity:1">
    <path
       inkscape:connector-curvature="0"
       id="path4277"
       d="m 23,910.36218 c -5.384615,-3e-5 -10,4.61536 -10,10 h 10 z"
       style="opacity:0.97;fill:#1d2030;fill-opacity:1;stroke-width:2"
       sodipodi:nodetypes="cccc" />
  </g>
  <g
     transform="matrix(1.6250026,0,0,1.625002,65.374851,-1467.3404)"
     id="mask-topright"
     style="opacity:1;fill:#1d2030;fill-opacity:1">
    <path
       inkscape:connector-curvature="0"
       id="path4287"
       d="m 49.000013,910.36218 v 7.99999 H 57 c 0,-4.30766 -3.673228,-7.99965 -7.999987,-7.99999 z"
       style="opacity:0.97;fill:#1d2030;fill-opacity:1;stroke-width:1.6"
       sodipodi:nodetypes="cccc" />
  </g>
  <g
     transform="matrix(0.43749979,0,0,1.3000036,121.68751,-1186.6742)"
     id="mask-bottom"
     style="opacity:1;fill:#1d2030;fill-opacity:1">
    <rect
       transform="rotate(90)"
       style="opacity:0.97;fill:#1d2030;fill-opacity:1;stroke:none;stroke-width:1.41421"
       id="rect4291"
       width="9.9999723"
       height="32.000015"
       x="944.36224"
       y="-51" />
  </g>
  <g
     transform="matrix(1.0833333,0,0,1.0833333,101.91667,-979.89181)"
     id="mask-bottomleft"
     style="opacity:1;fill:#1d2030;fill-opacity:1">
    <path
       inkscape:connector-curvature="0"
       id="path4303"
       d="m 13,942.36218 c -3e-6,6.46106 5.538459,11.99952 12,12 v -12 z"
       style="opacity:0.97;fill:#1d2030;fill-opacity:1;stroke-width:2.40001"
       sodipodi:nodetypes="cccc" />
  </g>
  <g
     transform="matrix(1.0833333,0,0,1.0833333,96.25,-979.89204)"
     id="mask-bottomright"
     style="opacity:1;fill:#1d2030;fill-opacity:1">
    <path
       inkscape:connector-curvature="0"
       id="path4313"
       d="m 45,942.36218 v 12 c 6.46154,-2.7e-4 12.000002,-5.51447 12,-12 z"
       style="opacity:0.97;fill:#1d2030;fill-opacity:1;stroke-width:2.40001"
       sodipodi:nodetypes="cccc" />
  </g>
  <g
     transform="matrix(1.0833337,0,0,0.6999976,101.91666,-619.65079)"
     id="mask-left"
     style="opacity:1;fill:#1d2030;fill-opacity:1">
    <rect
       transform="scale(-1,1)"
       style="opacity:0.97;fill:#1d2030;fill-opacity:1;stroke:none;stroke-width:1.22475"
       id="rect4317"
       width="11.999996"
       height="20.000069"
       x="-25"
       y="922.36218" />
  </g>
  <g
     transform="matrix(1.3000022,0,0,0.43749969,83.899897,-374.90765)"
     id="mask-right"
     style="opacity:1;fill:#1d2030;fill-opacity:1">
    <rect
       y="916.36218"
       x="47"
       height="32.000023"
       width="9.9999828"
       id="rect4323"
       style="opacity:0.97;fill:#1d2030;fill-opacity:1;stroke:none;stroke-width:1.41421" />
  </g>
  <rect
     y="26.000511"
     x="129.99991"
     height="14"
     width="14"
     id="mask-center"
     style="opacity:1;fill:#1d2030;fill-opacity:1;stroke:none;stroke-width:0.4375" />
  <g
     id="shadow-center"
     transform="matrix(1.1666571,0,0,1.1666571,-68.599365,-70.541423)">
    <rect
       inkscape:label="#shadow-center"
       y="78.254723"
       x="59.999954"
       height="12.000099"
       width="12.000099"
       id="rect1658"
       style="color:#eff0f1;opacity:0;fill:#1a1a1a;fill-opacity:1;stroke:none;stroke-width:0.375003" />
  </g>
  <rect
     id="shadow-hint-top-inset"
     x="67"
     y="0.00046353877"
     width="4"
     height="12"
     fill="#00ff00"
     style="opacity:0.01;fill:#0066ff;stroke-width:1.41422" />
  <rect
     id="thick-hint-top-margin"
     x="65"
     y="12.000467"
     width="4.0000019"
     height="3.9995327"
     fill="#ff00ff"
     style="opacity:0.01;fill:#00ff00;stroke-width:0.707065" />
  <rect
     id="thick-hint-right-margin"
     transform="rotate(90)"
     x="31.000011"
     y="-86"
     width="3.9999771"
     height="1"
     fill="#ff00ff"
     style="opacity:0.01;fill:#00ffff;stroke-width:0.353554" />
  <rect
     id="shadow-hint-right-inset"
     transform="rotate(90)"
     x="35.000378"
     y="-98"
     width="3.9999769"
     height="12"
     fill="#00ff00"
     style="opacity:0.01;fill:#008080;fill-opacity:1;stroke-width:1.41422" />
  <rect
     id="thick-hint-bottom-margin"
     x="61"
     y="50"
     width="4"
     height="4.0003853"
     fill="#ff00ff"
     style="opacity:0.01;fill:#ffff00;stroke-width:0.707132" />
  <rect
     id="shadow-hint-bottom-inset"
     x="67"
     y="54.000385"
     width="4"
     height="11.999977"
     fill="#00ff00"
     style="opacity:0.01;fill:#008080;stroke-width:1.41421" />
  <rect
     id="thick-hint-left-margin"
     transform="rotate(90)"
     x="26.999989"
     y="-45"
     width="4.0000229"
     height="1"
     fill="#ff00ff"
     style="opacity:0.01;fill:#008080;stroke-width:0.353554" />
  <rect
     id="shadow-hint-left-inset"
     transform="rotate(90)"
     x="35.000401"
     y="-44"
     width="4.0000229"
     height="12"
     fill="#00ff00"
     style="opacity:0.01;fill:#008080;stroke-width:1.41421" />
  <rect
     id="thick-center"
     y="56"
     width="2"
     height="2"
     x="0"
     style="opacity:0.01;fill:#008080" />
  <g
     id="topleft">
    <path
       inkscape:connector-curvature="0"
       id="rect4159"
       d="M 58,12.000005 C 49.980521,11.999562 44,17.999262 44,26.000006 H 53.333334 55.666667 58 v -2.333334 -9.333333 z"
       style="stroke-width:2.33333;stroke:none;fill-opacity:1;fill:#222638"
       sodipodi:nodetypes="cccccccc"
       class="ColorScheme-Background" />
    <path
       id="path962"
       style="stroke-width:1.10332;fill-opacity:0.50196081;fill:#1e2431"
       d="M 57.99982,12.000876 C 49.999066,12 44,17.999649 44,25.999182 L 43.99982,26 h 1.000024 v -8.18e-4 c 0,-6.999591 4.999222,-12.99924 12.997976,-12.99924 v 0 V 12 Z"
       sodipodi:nodetypes="ccccscccc"
       class="ColorScheme-Background" />
  </g>
  <g
     id="topright">
    <path
       inkscape:connector-curvature="0"
       id="rect4177"
       d="m 72.000001,12 v 2.333327 9.333338 2.333328 h 2.333333 2.333334 6.999999 2.333335 C 86,17.9995 80,11.999493 72.000001,12 Z"
       style="stroke-width:2.33333;stroke:none;fill-opacity:1;fill:#222638"
       sodipodi:nodetypes="ccccccccc"
       class="ColorScheme-Background" />
    <path
       id="path962-6"
       style="stroke-width:1.10331;fill-opacity:0.50196081;fill:#1e2431"
       d="M 85.999124,25.99982 C 86,17.999066 80.000351,12 72.000818,12 L 72,11.99982 v 1.000024 h 8.18e-4 c 6.999591,0 12.99924,4.999222 12.99924,12.997976 v 0 H 86 Z"
       sodipodi:nodetypes="ccccscccc"
       class="ColorScheme-Background" />
  </g>
  <g
     id="bottomright">
    <path
       inkscape:connector-curvature="0"
       id="rect4177-6"
       d="m 72.000007,39.999995 v 2.333329 9.333341 2.33333 c 7.96312,-1.99e-4 13.999993,-5.849564 14,-14 h -2.333333 -7 -2.333334 z"
       style="stroke-width:2.33333;stroke:none;fill-opacity:1;fill:#222638"
       sodipodi:nodetypes="ccccccccc"
       class="ColorScheme-Background" />
    <path
       id="path962-2"
       style="stroke-width:1.10332;fill-opacity:0.50196081;fill:#1e2431"
       d="M 72,53.999124 C 80.000754,54 85.99982,48.000351 85.99982,40.000818 L 86,40 h -1.000024 v 8.18e-4 c 0,6.999591 -4.999222,12.99924 -12.997976,12.99924 v 0 V 54 Z"
       sodipodi:nodetypes="ccccscccc"
       class="ColorScheme-Background" />
  </g>
  <g
     id="bottomleft">
    <path
       inkscape:connector-curvature="0"
       id="path5048"
       d="m 44.000002,40.000002 c -2e-6,7.99933 5.999998,13.999334 14,13.999999 v -2.333329 -9.333341 -2.333329 h -2.333333 -2.333334 -7 z"
       style="stroke-width:2.33333;stroke:none;fill-opacity:1;fill:#222638"
       sodipodi:nodetypes="ccccccccc"
       class="ColorScheme-Background" />
    <path
       id="path962-2-9"
       style="stroke-width:1.10332;fill-opacity:0.50196081;fill:#1e2431"
       d="m 44.000934,40 c -8.76e-4,8.000754 5.998773,13.99982 13.998306,13.99982 L 58.000058,54 V 52.999976 H 57.99924 C 50.999649,52.999976 45,48.000754 45,40.002 v 0 h -0.999942 z"
       sodipodi:nodetypes="ccccscccc"
       class="ColorScheme-Background" />
  </g>
  <g
     id="top">
    <rect
       transform="matrix(0,-1,-1,0,0,0)"
       style="fill:#222638;fill-opacity:1;stroke:none;stroke-width:1.01036"
       id="rect4152"
       width="14"
       height="14"
       x="-26"
       y="-72"
       class="ColorScheme-Background" />
    <rect
       y="-72"
       x="-13"
       height="14"
       width="1"
       id="rect986"
       style="stroke-width:0.763781;fill-opacity:0.50196081;fill:#1e2431"
       transform="matrix(0,-1,-1,0,0,0)"
       class="ColorScheme-Background" />
  </g>
  <g
     id="bottom">
    <rect
       y="-72"
       x="40"
       height="14"
       width="13.999999"
       id="rect4148"
       style="fill:#222638;fill-opacity:1;stroke:none;stroke-width:1.01036"
       transform="rotate(90)"
       class="ColorScheme-Background" />
    <rect
       y="-72"
       x="-54"
       height="14"
       width="1"
       id="rect986-1"
       style="fill:#1e2431;fill-opacity:0.501961;stroke-width:0.763781"
       transform="matrix(0,-1,-1,0,0,0)"
       class="ColorScheme-Background" />
  </g>
  <g
     id="right">
    <rect
       style="fill:#222638;fill-opacity:1;stroke:none;stroke-width:1.01036"
       id="rect4140"
       width="14"
       height="14"
       x="72.000031"
       y="26.000404"
       class="ColorScheme-Background" />
    <rect
       y="-40"
       x="85"
       height="14"
       width="1"
       id="rect986-1-2"
       style="stroke-width:0.763781;fill-opacity:0.50196081;fill:#1e2431"
       transform="scale(1,-1)"
       class="ColorScheme-Background" />
  </g>
  <g
     id="left">
    <rect
       y="26.000404"
       x="-58"
       height="14"
       width="14"
       id="rect4144"
       style="fill:#222638;fill-opacity:1;stroke:none;stroke-width:1.01036"
       transform="scale(-1,1)"
       class="ColorScheme-Background" />
    <rect
       y="-40"
       x="44"
       height="14"
       width="1"
       id="rect986-1-2-7"
       style="stroke-width:0.763781;fill-opacity:0.50196081;fill:#1e2431"
       transform="scale(1,-1)"
       class="ColorScheme-Background" />
  </g>
</svg>
