<?xml version="1.0" encoding="UTF-8" standalone="no"?>
<svg
   version="1.1"
   id="svg2"
   viewBox="0 0 32 32"
   sodipodi:docname="akregator.svg"
   width="32"
   height="32"
   inkscape:version="1.2.2 (b0a8486541, 2022-12-01)"
   xmlns:inkscape="http://www.inkscape.org/namespaces/inkscape"
   xmlns:sodipodi="http://sodipodi.sourceforge.net/DTD/sodipodi-0.dtd"
   xmlns="http://www.w3.org/2000/svg"
   xmlns:svg="http://www.w3.org/2000/svg"
   xmlns:rdf="http://www.w3.org/1999/02/22-rdf-syntax-ns#"
   xmlns:cc="http://creativecommons.org/ns#"
   xmlns:dc="http://purl.org/dc/elements/1.1/">
  <sodipodi:namedview
     id="namedview12"
     pagecolor="#000000"
     bordercolor="#144eff"
     borderopacity="1"
     inkscape:showpageshadow="false"
     inkscape:pageopacity="0"
     inkscape:pagecheckerboard="true"
     inkscape:deskcolor="#000000"
     showgrid="true"
     inkscape:zoom="10.429825"
     inkscape:cx="9.0126153"
     inkscape:cy="31.975608"
     inkscape:window-width="1920"
     inkscape:window-height="994"
     inkscape:window-x="0"
     inkscape:window-y="0"
     inkscape:window-maximized="1"
     inkscape:current-layer="svg2">
    <inkscape:grid
       type="xygrid"
       id="grid622"
       originx="0"
       originy="0" />
  </sodipodi:namedview>
  <metadata
     id="metadata18">
    <rdf:RDF>
      <cc:Work
         rdf:about="">
        <dc:format>image/svg+xml</dc:format>
        <dc:type
           rdf:resource="http://purl.org/dc/dcmitype/StillImage" />
      </cc:Work>
    </rdf:RDF>
  </metadata>
  <defs
     id="defs3051">
    <style
       type="text/css"
       id="current-color-scheme">
.ColorScheme-Text { 
    color:#eff0f1;
}
</style>
  </defs>
  <g
     id="akregator">
    <path
       id="path14"
       style="fill:none"
       d="M 0,0 V 32 H 32 V 0 Z" />
    <path
       d="m 12.571365,8.2858296 c -0.306314,0 -0.589276,0.1633917 -0.742337,0.4285731 -0.153062,0.2651815 -0.153062,0.5919698 0,0.8571464 0.153061,0.2651765 0.436032,0.4285729 0.742337,0.4285729 2.500663,0 4.898959,0.993359 6.667129,2.761628 1.768269,1.768268 2.761628,4.166319 2.761628,6.667129 0,0.306314 0.163391,0.589276 0.428573,0.742337 0.265181,0.153062 0.59197,0.153062 0.857146,0 0.265177,-0.153061 0.428573,-0.436032 0.428573,-0.742337 0,-2.955245 -1.173996,-5.789411 -3.26367,-7.879379 C 18.36107,9.4598262 15.526806,8.2858296 12.571365,8.2858296 Z"
       id="path4716"
       style="fill:#1e2431;fill-opacity:1;stroke:none;stroke-width:0.0489999;stroke-dasharray:none;stroke-opacity:1" />
    <path
       d="m 12.571365,11.714415 c -0.306314,0 -0.589276,0.163392 -0.742337,0.428573 -0.153062,0.265182 -0.153062,0.59197 0,0.857146 0.153061,0.265177 0.436032,0.428574 0.742337,0.428574 1.591256,0 3.117466,0.632133 4.242679,1.757345 1.125212,1.125213 1.757346,2.651423 1.757346,4.242679 0,0.306315 0.163391,0.589276 0.428573,0.742337 0.265181,0.153062 0.591969,0.153062 0.857146,0 0.265177,-0.153061 0.428573,-0.436032 0.428573,-0.742337 0,-2.046033 -0.81277,-4.008114 -2.259389,-5.454879 -1.446814,-1.446619 -3.408895,-2.259389 -5.454879,-2.259389 z"
       id="path4718"
       style="fill:#1e2431;fill-opacity:1;stroke:none;stroke-width:0.0489999;stroke-dasharray:none;stroke-opacity:1" />
    <path
       d="m 12.571365,15.143 c -0.306314,0 -0.589276,0.163392 -0.742337,0.428573 -0.153062,0.265182 -0.153062,0.59197 0,0.857147 0.153061,0.265176 0.436032,0.428573 0.742337,0.428573 0.682093,0 1.336022,0.270917 1.818375,0.753064 0.482147,0.482338 0.753064,1.136282 0.753064,1.818375 0,0.306315 0.163392,0.589276 0.428573,0.742337 0.265182,0.153062 0.59197,0.153062 0.857147,0 0.265176,-0.153061 0.428573,-0.436032 0.428573,-0.742337 0,-1.136674 -0.451535,-2.22667 -1.255303,-3.030429 C 14.798026,15.594545 13.708039,15.143 12.571365,15.143 Z"
       id="path4720"
       style="fill:#1e2431;fill-opacity:1;stroke:none;stroke-width:0.0489999;stroke-dasharray:none;stroke-opacity:1" />
    <path
       d="m 13.428512,20.285878 c 0,0.946682 -0.767612,1.714293 -1.714293,1.714293 -0.946681,0 -1.7142927,-0.767611 -1.7142927,-1.714293 0,-0.946681 0.7676117,-1.714293 1.7142927,-1.714293 0.946681,0 1.714293,0.767612 1.714293,1.714293"
       id="path4722"
       style="fill:#1e2431;fill-opacity:1;stroke:none;stroke-width:0.0489999;stroke-dasharray:none;stroke-opacity:1" />
    <path
       style="color:#d6dbf1;fill:none;fill-opacity:1;stroke:#1e2431;stroke-width:1.60402;stroke-linecap:round;stroke-miterlimit:4;stroke-dasharray:none;stroke-opacity:1;stop-color:#31363b"
       sodipodi:type="arc"
       sodipodi:cx="-16"
       sodipodi:cy="-16.00001"
       sodipodi:rx="11.201572"
       sodipodi:ry="11.201572"
       sodipodi:start="3.7596615"
       sodipodi:end="3.7595014"
       sodipodi:open="true"
       sodipodi:arc-type="arc"
       transform="scale(-1)"
       d="m -25.12927,-22.490899 a 11.201572,11.201572 0 0 1 15.6197941,-2.638641 11.201572,11.201572 0 0 1 2.6392659,15.6196892 11.201572,11.201572 0 0 1 -15.619583,2.639891 11.201572,11.201572 0 0 1 -2.640516,-15.6194772"
       id="path7-3"
       class="ColorScheme-Text" />
  </g>
  <g
     id="22-22-akregator"
     transform="translate(-22,10)">
    <path
       id="path7"
       style="fill:none"
       d="M 0,0 V 22 H 22 V 0 Z" />
    <path
       d="m 8.7142456,5.8572228 c -0.204209,0 -0.39285,0.108927 -0.494891,0.285715 -0.102041,0.176787 -0.102041,0.394646 0,0.57143 0.102041,0.176785 0.290688,0.285716 0.494891,0.285716 1.6671094,0 3.2659734,0.662239 4.4447534,1.841085 1.178845,1.1788452 1.841085,2.7775452 1.841085,4.4447512 0,0.204209 0.108927,0.392851 0.285715,0.494891 0.176787,0.102042 0.394647,0.102042 0.571431,0 0.176784,-0.10204 0.285715,-0.290688 0.285715,-0.494891 0,-1.970163 -0.782664,-3.8596062 -2.17578,-5.2529182 -1.393116,-1.393116 -3.282625,-2.175779 -5.2529194,-2.175779 z"
       id="path4716-3"
       style="fill:#1e2431;fill-opacity:1;stroke:none;stroke-width:0.0326666;stroke-dasharray:none;stroke-opacity:1" />
    <path
       d="m 8.7142456,8.1429458 c -0.204209,0 -0.39285,0.108928 -0.494891,0.285715 -0.102041,0.176788 -0.102041,0.394647 0,0.571431 0.102041,0.176784 0.290688,0.285715 0.494891,0.285715 1.060838,0 2.0783114,0.421422 2.8284534,1.1715632 0.750141,0.750142 1.171564,1.767615 1.171564,2.828452 0,0.20421 0.108927,0.392851 0.285715,0.494891 0.176787,0.102042 0.394646,0.102042 0.571431,0 0.176784,-0.10204 0.285715,-0.290688 0.285715,-0.494891 0,-1.364022 -0.541847,-2.672076 -1.506259,-3.6365852 -0.964543,-0.964412 -2.272597,-1.506259 -3.6365864,-1.506259 z"
       id="path4718-6"
       style="fill:#1e2431;fill-opacity:1;stroke:none;stroke-width:0.0326666;stroke-dasharray:none;stroke-opacity:1" />
    <path
       d="m 8.7142456,10.428668 c -0.204209,0 -0.39285,0.108928 -0.494891,0.285715 -0.102041,0.176788 -0.102041,0.394647 0,0.571431 0.102041,0.176784 0.290688,0.285716 0.494891,0.285716 0.454729,0 0.890682,0.180611 1.2122502,0.502042 0.3214322,0.321559 0.5020432,0.757521 0.5020432,1.21225 0,0.20421 0.108928,0.392851 0.285715,0.494891 0.176788,0.102042 0.394647,0.102042 0.571431,0 0.176784,-0.10204 0.285716,-0.290688 0.285716,-0.494891 0,-0.757783 -0.301024,-1.484446 -0.836869,-2.020286 -0.535845,-0.535838 -1.2625034,-0.836868 -2.0202864,-0.836868 z"
       id="path4720-7"
       style="fill:#1e2431;fill-opacity:1;stroke:none;stroke-width:0.0326666;stroke-dasharray:none;stroke-opacity:1" />
    <path
       d="m 9.2856776,13.857253 c 0,0.631121 -0.511742,1.142862 -1.142862,1.142862 -0.631121,0 -1.142862,-0.511741 -1.142862,-1.142862 0,-0.631121 0.511741,-1.142862 1.142862,-1.142862 0.63112,0 1.142862,0.511741 1.142862,1.142862"
       id="path4722-5"
       style="fill:#1e2431;fill-opacity:1;stroke:none;stroke-width:0.0326666;stroke-dasharray:none;stroke-opacity:1" />
    <path
       style="color:#d1d5e9;fill:#1e2431;fill-opacity:1;stroke-width:1"
       class="ColorScheme-Text"
       d="m 11,3 c -4.424,0 -8,3.576 -8,8 0,4.424 3.576,8 8,8 4.423999,0 8,-3.576 8,-8 0,-4.424 -3.576001,-8 -8,-8 z m 0,1 c 3.870004,0 7,3.13 7,7 0,3.870009 -3.129996,7 -7,7 C 7.130009,18 4,14.870009 4,11 4,7.13 7.130009,4 11,4 Z"
       id="path58-3"
       sodipodi:nodetypes="ssssssssssccc" />
  </g>
</svg>
