<?xml version="1.0" encoding="UTF-8" standalone="no"?>
<svg
   width="32"
   height="32"
   version="1.1"
   id="svg12"
   sodipodi:docname="applications.svg"
   inkscape:version="1.2.2 (b0a8486541, 2022-12-01)"
   xmlns:inkscape="http://www.inkscape.org/namespaces/inkscape"
   xmlns:sodipodi="http://sodipodi.sourceforge.net/DTD/sodipodi-0.dtd"
   xmlns:xlink="http://www.w3.org/1999/xlink"
   xmlns="http://www.w3.org/2000/svg"
   xmlns:svg="http://www.w3.org/2000/svg"
   xmlns:rdf="http://www.w3.org/1999/02/22-rdf-syntax-ns#"
   xmlns:cc="http://creativecommons.org/ns#"
   xmlns:dc="http://purl.org/dc/elements/1.1/">
  <g
     id="22-22-applications-other">
    <path
       style="clip-rule:evenodd;fill:#ffffc1;fill-opacity:0;fill-rule:evenodd;stroke-width:0.688964;stroke-linejoin:round;stroke-miterlimit:1.41421"
       d="M 32,9.9999997 V 32 H 54 V 9.9999997 Z"
       id="rect817-5"
       inkscape:connector-curvature="0" />
    <path
       style="color:#d1d5e9;fill:#1e2431;fill-opacity:1;stroke-width:1.25"
       d="m 43,11 c -5.53,0 -10,4.47 -10,10 0,5.53 4.47,10.000001 10,10.000001 C 48.53,31.000001 53,26.53 53,21 53,15.47 48.53,11 43,11 Z m 0,1.25 c 4.837483,0 8.75,3.9125 8.75,8.75 0,4.837484 -3.912517,8.75 -8.75,8.75 -4.837517,0 -8.75,-3.912516 -8.75,-8.75 0,-4.8375 3.912483,-8.75 8.75,-8.75 z m 0.937483,7.148748 v 0 0 0 0 0 c 0,0 -0.04242,0.01 0,0 z m -0.976242,5.625005 z"
       id="path58-0"
       sodipodi:nodetypes="ssssssssssccccccccccccccccc"
       class="ColorScheme-Text " />
    <path
       d="M 39.742636,15.00006 H 39.399382 C 38.074252,15.00006 37,16.074482 37,17.399874 v 0.343308 c 0,0.636596 0.252938,1.247136 0.703065,1.697133 0.450173,0.450082 1.060628,0.702809 1.69713,0.702552 h 2.742585 v -2.743011 c 0,-0.636596 -0.252814,-1.247135 -0.702977,-1.697303 -0.44996,-0.449783 -1.060192,-0.702511 -1.696364,-0.702511 h -8.59e-4"
       stroke-width="0.428573"
       id="path2618-3"
       style="fill:#1e2431;fill-opacity:1" />
    <path
       d="m 39.399782,21.857159 c -0.636562,0 -1.247227,0.252932 -1.697224,0.70311 -0.450033,0.450125 -0.702725,1.060621 -0.702548,1.697132 v 0.343249 c 0,0.636296 0.252858,1.246621 0.702855,1.696617 C 38.1529,26.747178 38.763313,27 39.399732,27 h 0.343617 c 0.636595,0 1.247048,-0.253052 1.697044,-0.703247 0.449998,-0.45004 0.702598,-1.060536 0.702468,-1.697046 v -2.742582 z"
       stroke-width="0.428573"
       id="path2620-6"
       style="fill:#1e2431;fill-opacity:1" />
    <path
       d="m 46.599728,21.857159 h -2.742496 v 2.743439 c 0,0.636502 0.252885,1.246793 0.703068,1.696789 0.45015,0.449989 1.060615,0.702715 1.69713,0.702501 h 0.343241 c 0.636292,0 1.246627,-0.252812 1.696624,-0.702715 0.449903,-0.449988 0.702761,-1.060279 0.702761,-1.696618 v -0.34324 c 0,-0.636716 -0.252581,-1.247221 -0.702761,-1.697475 -0.449987,-0.449911 -1.060369,-0.702673 -1.696624,-0.702715 h -8.51e-4"
       stroke-width="0.428573"
       id="path2622-7"
       style="fill:#1e2431;fill-opacity:1" />
    <path
       d="m 46.256874,15.00006 h -5.99e-4 c -0.636467,0 -1.246874,0.253002 -1.696954,0.703153 -0.44996,0.450168 -0.702725,1.060622 -0.702431,1.697045 v 2.742584 h 2.743019 c 0.636595,0 1.247047,-0.252883 1.697127,-0.703067 0.450127,-0.450169 0.702808,-1.060622 0.702641,-1.697218 V 17.399298 C 48.999677,16.074164 47.925249,15 46.599859,15 h -0.343298 z"
       stroke-width="0.428573"
       id="path2624-5"
       style="fill:#1e2431;fill-opacity:1" />
  </g>
  <g
     id="applications-other">
    <path
       style="clip-rule:evenodd;fill:#ffffc1;fill-opacity:0;fill-rule:evenodd;stroke-width:1.00213;stroke-linejoin:round;stroke-miterlimit:1.41421"
       d="M 0,0 V 32 H 32 V 0 Z"
       id="rect817"
       inkscape:connector-curvature="0" />
    <path
       style="color:#d1d5e9;fill:#1e2431;fill-opacity:1;stroke-width:1.5"
       d="M 16,4 C 9.364,4 4,9.364 4,15.999999 4,22.636 9.364,28 16,28 22.636,28 28,22.636 28,15.999999 28,9.364 22.636,4 16,4 Z m 0,1.5 c 5.80498,0 10.5,4.695 10.5,10.499999 C 26.5,21.80498 21.80498,26.5 16,26.5 10.19498,26.5 5.5,21.80498 5.5,15.999999 5.5,10.195 10.19498,5.5 16,5.5 Z m 1.12498,8.578498 v 0 0 0 0 0 c 0,0 -0.05091,0.012 0,0 z m -1.171491,6.750005 z"
       id="path58"
       sodipodi:nodetypes="ssssssssssccccccccccccccccc"
       class="ColorScheme-Text " />
    <path
       d="M 12.19976,9.00005 H 11.7993 C 10.2533,9.00005 9,10.25355 9,11.79985 v 0.40053 c 0,0.7427 0.2951,1.455 0.82025,1.98 0.5252,0.5251 1.2374,0.81995 1.98,0.81965 h 3.1997 v -3.2002 c 0,-0.7427 -0.29495,-1.455 -0.82015,-1.9802 -0.52495,-0.52475 -1.2369,-0.8196 -1.9791,-0.8196 h -10e-4"
       stroke-width="0.5"
       id="path2618"
       style="fill:#1e2431;fill-opacity:1" />
    <path
       d="m 11.79976,17.00005 c -0.74265,0 -1.4551,0.29509 -1.9801,0.8203 -0.52505,0.52515 -0.81985,1.2374 -0.81965,1.98 v 0.40046 c 0,0.74235 0.295,1.4544 0.82,1.9794 0.52505,0.5249 1.2372,0.81986 1.9797,0.81986 h 0.40088 c 0.7427,0 1.4549,-0.29523 1.9799,-0.82046 0.525,-0.52505 0.8197,-1.2373 0.81955,-1.9799 v -3.1997 z"
       stroke-width="0.5"
       id="path2620"
       style="fill:#1e2431;fill-opacity:1" />
    <path
       d="m 20.19976,17.00005 h -3.1996 v 3.2007 c 0,0.74259 0.29503,1.4546 0.82024,1.9796 0.52519,0.52499 1.2374,0.81984 1.98,0.81959 h 0.40046 c 0.74234,0 1.4544,-0.29495 1.9794,-0.81984 0.52489,-0.52499 0.81989,-1.237 0.81989,-1.9794 v -0.40045 c 0,-0.74284 -0.29467,-1.4551 -0.81989,-1.9804 -0.52499,-0.5249 -1.2371,-0.81979 -1.9794,-0.81984 h -10e-4"
       stroke-width="0.5"
       id="path2622"
       style="fill:#1e2431;fill-opacity:1" />
    <path
       d="m 19.79976,9.00005 h -6.99e-4 c -0.74255,0 -1.4547,0.29517 -1.9798,0.82035 -0.52495,0.5252 -0.81985,1.2374 -0.8195,1.9799 V 15 h 3.2002 c 0.7427,0 1.4549,-0.29503 1.98,-0.82025 0.52515,-0.5252 0.81995,-1.2374 0.81975,-1.9801 v -0.40047 c 0,-1.546 -1.2535,-2.7992 -2.7998,-2.7992 h -0.40052 z"
       stroke-width="0.5"
       id="path2624"
       style="fill:#1e2431;fill-opacity:1" />
  </g>
  <style
     id="current-color-scheme"
     type="text/css">.ColorScheme-Text { color:#d1d5e9; }
</style>
  <metadata
     id="metadata18">
    <rdf:RDF>
      <cc:Work
         rdf:about="">
        <dc:format>image/svg+xml</dc:format>
        <dc:type
           rdf:resource="http://purl.org/dc/dcmitype/StillImage" />
      </cc:Work>
    </rdf:RDF>
  </metadata>
  <defs
     id="defs16">
    <linearGradient
       id="linearGradient909"
       x1="6.7965999"
       x2="23.881001"
       y1="5.7609"
       y2="22.573999"
       gradientTransform="matrix(0.5,0,0,0.5,59.5,-13.999)"
       gradientUnits="userSpaceOnUse"
       xlink:href="#a" />
    <linearGradient
       id="a">
      <stop
         stop-color="#35ff76"
         offset="0"
         id="stop2572" />
      <stop
         stop-color="#357bff"
         offset="1"
         id="stop2574" />
    </linearGradient>
    <linearGradient
       id="linearGradient911"
       x1="1.9153"
       x2="15.271"
       y1="11.627"
       y2="28.983"
       gradientTransform="matrix(0.5,0,0,0.5,59.5,-13)"
       gradientUnits="userSpaceOnUse"
       xlink:href="#a" />
    <linearGradient
       id="linearGradient913"
       x1="10.423"
       x2="23.983"
       y1="7.6949"
       y2="23.830999"
       gradientTransform="matrix(0.49999,0,0,0.49999,60.5,-13)"
       gradientUnits="userSpaceOnUse"
       xlink:href="#a" />
    <linearGradient
       id="linearGradient915"
       x1="16.525"
       x2="31.237"
       y1="0.74574"
       y2="17.356001"
       gradientTransform="matrix(0.5,0,0,0.5,60.5,-14)"
       gradientUnits="userSpaceOnUse"
       xlink:href="#a" />
  </defs>
  <sodipodi:namedview
     pagecolor="#000000"
     bordercolor="#144eff"
     borderopacity="1"
     objecttolerance="10"
     gridtolerance="10"
     guidetolerance="10"
     inkscape:pageopacity="0"
     inkscape:pageshadow="2"
     inkscape:window-width="1920"
     inkscape:window-height="1004"
     id="namedview14"
     showgrid="true"
     inkscape:zoom="9.8125003"
     inkscape:cx="27.21019"
     inkscape:cy="19.21019"
     inkscape:window-x="0"
     inkscape:window-y="0"
     inkscape:window-maximized="1"
     inkscape:current-layer="svg12"
     inkscape:document-rotation="0"
     showguides="false"
     inkscape:lockguides="false"
     inkscape:pagecheckerboard="true"
     inkscape:showpageshadow="false"
     inkscape:deskcolor="#000000">
    <inkscape:grid
       type="xygrid"
       id="grid942"
       originx="0"
       originy="0" />
  </sodipodi:namedview>
</svg>
