<?xml version="1.0" encoding="UTF-8" standalone="no"?>
<svg
   width="32"
   height="32"
   version="1"
   id="svg12"
   sodipodi:docname="corectrl.svg"
   inkscape:version="1.2.2 (b0a8486541, 2022-12-01)"
   xmlns:inkscape="http://www.inkscape.org/namespaces/inkscape"
   xmlns:sodipodi="http://sodipodi.sourceforge.net/DTD/sodipodi-0.dtd"
   xmlns="http://www.w3.org/2000/svg"
   xmlns:svg="http://www.w3.org/2000/svg"
   xmlns:rdf="http://www.w3.org/1999/02/22-rdf-syntax-ns#"
   xmlns:cc="http://creativecommons.org/ns#"
   xmlns:dc="http://purl.org/dc/elements/1.1/">
  <metadata
     id="metadata18">
    <rdf:RDF>
      <cc:Work
         rdf:about="">
        <dc:format>image/svg+xml</dc:format>
        <dc:type
           rdf:resource="http://purl.org/dc/dcmitype/StillImage" />
      </cc:Work>
    </rdf:RDF>
  </metadata>
  <defs
     id="defs16">
    <linearGradient
       id="linearGradient2403"
       x1="37.452"
       x2="37.452"
       y1="9.4727001"
       y2="14.003"
       gradientTransform="matrix(0.74046,0,0,1.4809,4.9143898,5.9478024)"
       gradientUnits="userSpaceOnUse">
      <stop
         stop-color="#2e3440"
         offset="0"
         id="stop29845" />
      <stop
         stop-color="#4c566a"
         offset="1"
         id="stop29847" />
    </linearGradient>
    <linearGradient
       id="linearGradient4426"
       x1="39.580002"
       x2="39.580002"
       y1="17.903"
       y2="20.146999"
       gradientUnits="userSpaceOnUse">
      <stop
         stop-color="#2e3440"
         stop-opacity=".25"
         offset="0"
         id="stop29850" />
      <stop
         stop-color="#2e3440"
         stop-opacity="0"
         offset="1"
         id="stop29852" />
    </linearGradient>
    <linearGradient
       id="linearGradient35715"
       y1="1003.36"
       y2="1027.36"
       x1="-93"
       x2="-70"
       gradientUnits="userSpaceOnUse"
       gradientTransform="translate(188.253,-1036.7346)">
      <stop
         stop-color="#292c2f"
         id="stop35711" />
      <stop
         offset="1"
         stop-opacity="0"
         id="stop35713"
         style="stop-color:#000000;stop-opacity:0.05963883;" />
    </linearGradient>
  </defs>
  <sodipodi:namedview
     pagecolor="#000000"
     bordercolor="#091aff"
     borderopacity="1"
     objecttolerance="10"
     gridtolerance="10"
     guidetolerance="10"
     inkscape:pageopacity="1"
     inkscape:pageshadow="2"
     inkscape:window-width="1920"
     inkscape:window-height="1000"
     id="namedview14"
     showgrid="true"
     inkscape:zoom="19.625"
     inkscape:cx="24.254777"
     inkscape:cy="15.821656"
     inkscape:window-x="0"
     inkscape:window-y="0"
     inkscape:window-maximized="1"
     inkscape:current-layer="svg12"
     inkscape:document-rotation="0"
     inkscape:showpageshadow="false"
     inkscape:lockguides="false"
     inkscape:pagecheckerboard="true"
     inkscape:deskcolor="#000000">
    <inkscape:grid
       type="xygrid"
       id="grid2747"
       originx="32"
       originy="10" />
  </sodipodi:namedview>
  <g
     id="corectrl">
    <rect
       style="opacity:0.00100002;fill:#d1d5e9;fill-opacity:1"
       width="32"
       height="32"
       x="0"
       y="0"
       id="rect7" />
    <rect
       width="0.92307693"
       height="24"
       x="19.692308"
       y="-28"
       transform="rotate(90)"
       id="rect227"
       style="fill:#8e8e8e;stroke-width:0.923077" />
    <rect
       width="0.92307693"
       height="24"
       x="22.461538"
       y="-28"
       transform="rotate(90)"
       id="rect229"
       style="fill:#8e8e8e;stroke-width:0.923077" />
    <rect
       width="0.92307693"
       height="24"
       x="25.23077"
       y="-28"
       transform="rotate(90)"
       id="rect231"
       style="fill:#8e8e8e;stroke-width:0.923077" />
    <rect
       width="0.92307693"
       height="24"
       x="11.384615"
       y="-28"
       transform="rotate(90)"
       id="rect233"
       style="fill:#8e8e8e;stroke-width:0.923077" />
    <rect
       width="0.92307693"
       height="24"
       x="14.153846"
       y="-28"
       transform="rotate(90)"
       id="rect235"
       style="fill:#8e8e8e;stroke-width:0.923077" />
    <rect
       width="0.92307693"
       height="24"
       x="16.923077"
       y="-28"
       transform="rotate(90)"
       id="rect237"
       style="fill:#8e8e8e;stroke-width:0.923077" />
    <rect
       width="0.92307693"
       height="24"
       x="8.6153851"
       y="-28"
       transform="rotate(90)"
       id="rect239"
       style="fill:#8e8e8e;stroke-width:0.923077" />
    <rect
       width="0.92307693"
       height="24"
       x="5.8461537"
       y="-28"
       transform="rotate(90)"
       id="rect241"
       style="fill:#8e8e8e;stroke-width:0.923077" />
    <rect
       width="0.92307693"
       height="24"
       x="-12.307693"
       y="-28"
       transform="scale(-1)"
       id="rect245"
       style="fill:#8e8e8e;stroke-width:0.923077" />
    <rect
       width="0.92307693"
       height="24"
       x="-9.5384617"
       y="-28"
       transform="scale(-1)"
       id="rect247"
       style="fill:#8e8e8e;stroke-width:0.923077" />
    <rect
       width="0.92307693"
       height="24"
       x="-6.7692308"
       y="-28"
       transform="scale(-1)"
       id="rect249"
       style="fill:#8e8e8e;stroke-width:0.923077" />
    <rect
       width="0.92307693"
       height="24"
       x="-20.615385"
       y="-28"
       transform="scale(-1)"
       id="rect251"
       style="fill:#8e8e8e;stroke-width:0.923077" />
    <rect
       width="0.92307693"
       height="24"
       x="-17.846153"
       y="-28"
       transform="scale(-1)"
       id="rect253"
       style="fill:#8e8e8e;stroke-width:0.923077" />
    <rect
       width="0.92307693"
       height="24"
       x="-15.076923"
       y="-28"
       transform="scale(-1)"
       id="rect255"
       style="fill:#8e8e8e;stroke-width:0.923077" />
    <rect
       width="0.92307693"
       height="24"
       x="-23.384615"
       y="-28"
       transform="scale(-1)"
       id="rect257"
       style="fill:#8e8e8e;stroke-width:0.923077" />
    <rect
       width="0.92307693"
       height="24"
       x="-26.153847"
       y="-28"
       transform="scale(-1)"
       id="rect259"
       style="fill:#8e8e8e;stroke-width:0.923077" />
    <path
       style="opacity:0.2;stroke-width:0.461538"
       d="m 4.9230767,25.508616 v 0.923077 c 0,0.613846 0.617538,1.106769 1.384615,1.106769 H 25.692308 c 0.767077,0 1.384615,-0.492923 1.384615,-1.106769 v -0.923077 c 0,0.613846 -0.617538,1.106769 -1.384615,1.106769 H 6.3076917 c -0.767077,0 -1.384615,-0.492923 -1.384615,-1.106769 z"
       id="path263" />
    <rect
       style="fill:#1e2431;fill-opacity:1;stroke-width:0.461538"
       width="22.153847"
       height="22.153847"
       x="-27.076923"
       y="-27.076923"
       rx="1.1076924"
       ry="1.3846154"
       transform="matrix(0,-1,-1,0,0,0)"
       id="rect265" />
    <path
       style="opacity:0.1;fill:#ffffff;stroke-width:0.461538"
       d="m 6.3076917,4.9230773 c -0.767077,0 -1.384615,0.49331 -1.384615,1.106971 v 0.461539 c 0,-0.613662 0.617538,-1.106972 1.384615,-1.106972 l 1.8451745,0 17.5394418,0 c 0.767077,0 1.384615,0.49331 1.384615,1.106972 v -0.461539 c 0,-0.613661 -0.617538,-1.106971 -1.384615,-1.106971 z"
       id="path267"
       sodipodi:nodetypes="sscscscsss" />
    <path
       style="opacity:0.2;stroke-width:0.461538;fill:#f9f9f9;fill-opacity:1"
       d="m 16.923077,17.384615 v 7.384616 h 6 v -2.307692 h -1.384615 v 0.923077 H 19.230769 V 22 l -0.923077,-0.923077 v -2.307692 h 3.23077 v 0.923077 h 1.384615 v -2.307693 z m 0,-9.2307687 v 7.3846157 h 6 v -2.307693 h -1.384615 v 0.923077 H 19.230769 V 12.769231 L 18.307692,11.846154 V 9.5384623 h 3.23077 v 0.9230757 h 1.384615 V 8.1538463 Z"
       id="path269" />
    <path
       style="fill:#ffa726;stroke-width:0.461538"
       d="m 16.923077,7.6923083 v 7.3846147 h 6 v -2.307692 h -1.384615 v 0.923077 H 19.230769 V 12.307692 L 18.307692,11.384615 V 9.0769233 h 3.23077 V 10 h 1.384615 V 7.6923083 Z"
       id="path271" />
    <rect
       style="fill:#f9f9f9;fill-opacity:1;stroke-width:0.461538"
       width="1.3846154"
       height="8.3076925"
       x="10.461538"
       y="7.6923075"
       id="rect273" />
    <rect
       style="fill:#f9f9f9;fill-opacity:1;stroke-width:0.461538"
       width="1.3846154"
       height="8.3076925"
       x="10.461538"
       y="16"
       id="rect275" />
    <rect
       style="fill:#f9f9f9;fill-opacity:1;stroke-width:0.461538"
       width="4.1538463"
       height="1.8461539"
       x="9.0769215"
       y="15.076923"
       id="rect277" />
    <path
       style="opacity:0.2;stroke-width:0.461538;fill:#666666;fill-opacity:1"
       d="m 10.461538,24.307693 h 1.384616 v 0.461538 H 10.461538 Z M 9.0769227,16.923077 h 4.1538463 v 0.461538 H 9.0769227 Z"
       id="path279" />
    <rect
       style="opacity:0.2;fill:#666666;stroke-width:0.461538;fill-opacity:1"
       width="4.1538463"
       height="0.46153846"
       x="9.0769215"
       y="15.076923"
       id="rect281" />
    <path
       style="fill:#f75f5f;stroke-width:0.461538"
       d="m 16.923077,16.923077 v 7.384616 h 6 V 22 h -1.384615 v 0.923077 h -2.307693 v -1.384615 l -0.923077,-0.923077 v -2.307692 h 3.23077 v 0.923076 h 1.384615 v -2.307692 z"
       id="path283" />
    <path
       style="fill:#f9f9f9;fill-opacity:1;stroke-width:0.461538"
       d="m 16.923077,7.6923083 v 7.3846147 h 6 v -2.307692 h -1.384615 v 0.923077 H 19.230769 V 12.307692 L 18.307692,11.384615 V 9.0769233 h 3.23077 V 10 h 1.384615 V 7.6923083 Z"
       id="path285" />
    <path
       style="fill:#f9f9f9;fill-opacity:1;stroke-width:0.461538"
       d="m 16.923077,16.923077 v 7.384616 h 6 V 22 h -1.384615 v 0.923077 h -2.307693 v -1.384615 l -0.923077,-0.923077 v -2.307692 h 3.23077 v 0.923076 h 1.384615 v -2.307692 z"
       id="path287" />
    <path
       style="opacity:0.2;fill:#666666;stroke-width:0.461538;fill-opacity:1"
       d="m 16.923077,7.6923083 v 0.461538 h 6 v -0.461538 z m 1.384615,3.6923067 v 0.461539 l 0.923077,0.923077 v -0.461539 z m 3.23077,1.384616 v 0.461538 h 1.384615 v -0.461538 z m -2.307693,0.923077 v 0.461538 h 2.307693 v -0.461538 z m -2.307692,3.230769 v 0.461538 h 6 v -0.461538 z m 1.384615,3.692308 v 0.461538 L 19.230769,22 V 21.538462 Z M 21.538462,22 v 0.461539 h 1.384615 V 22 Z m -2.307693,0.923077 v 0.461539 h 2.307693 v -0.461539 z"
       id="path289" />
  </g>
  <g
     id="22-22-corectrl"
     transform="translate(32,10)">
    <rect
       style="opacity:0.00100002;fill:#d1d5e9;fill-opacity:1"
       width="22"
       height="22"
       x="0"
       y="0"
       id="rect2" />
    <rect
       width="0.61538464"
       height="16"
       x="13.461538"
       y="-19"
       transform="rotate(90)"
       id="rect227-8"
       style="fill:#8e8e8e;stroke-width:0.615385" />
    <rect
       width="0.61538464"
       height="16"
       x="15.307693"
       y="-19"
       transform="rotate(90)"
       id="rect229-9"
       style="fill:#8e8e8e;stroke-width:0.615385" />
    <rect
       width="0.61538464"
       height="16"
       x="17.153847"
       y="-19"
       transform="rotate(90)"
       id="rect231-7"
       style="fill:#8e8e8e;stroke-width:0.615385" />
    <rect
       width="0.61538464"
       height="16"
       x="7.9230771"
       y="-19"
       transform="rotate(90)"
       id="rect233-3"
       style="fill:#8e8e8e;stroke-width:0.615385" />
    <rect
       width="0.61538464"
       height="16"
       x="9.7692308"
       y="-19"
       transform="rotate(90)"
       id="rect235-6"
       style="fill:#8e8e8e;stroke-width:0.615385" />
    <rect
       width="0.61538464"
       height="16"
       x="11.615385"
       y="-19"
       transform="rotate(90)"
       id="rect237-1"
       style="fill:#8e8e8e;stroke-width:0.615385" />
    <rect
       width="0.61538464"
       height="16"
       x="6.0769229"
       y="-19"
       transform="rotate(90)"
       id="rect239-2"
       style="fill:#8e8e8e;stroke-width:0.615385" />
    <rect
       width="0.61538464"
       height="16"
       x="4.2307692"
       y="-19"
       transform="rotate(90)"
       id="rect241-9"
       style="fill:#8e8e8e;stroke-width:0.615385" />
    <rect
       width="0.61538464"
       height="16"
       x="-8.5384617"
       y="-19"
       transform="scale(-1)"
       id="rect245-1"
       style="fill:#8e8e8e;stroke-width:0.615385" />
    <rect
       width="0.61538464"
       height="16"
       x="-6.6923079"
       y="-19"
       transform="scale(-1)"
       id="rect247-9"
       style="fill:#8e8e8e;stroke-width:0.615385" />
    <rect
       width="0.61538464"
       height="16"
       x="-4.8461537"
       y="-19"
       transform="scale(-1)"
       id="rect249-4"
       style="fill:#8e8e8e;stroke-width:0.615385" />
    <rect
       width="0.61538464"
       height="16"
       x="-14.076923"
       y="-19"
       transform="scale(-1)"
       id="rect251-7"
       style="fill:#8e8e8e;stroke-width:0.615385" />
    <rect
       width="0.61538464"
       height="16"
       x="-12.230769"
       y="-19"
       transform="scale(-1)"
       id="rect253-8"
       style="fill:#8e8e8e;stroke-width:0.615385" />
    <rect
       width="0.61538464"
       height="16"
       x="-10.384616"
       y="-19"
       transform="scale(-1)"
       id="rect255-4"
       style="fill:#8e8e8e;stroke-width:0.615385" />
    <rect
       width="0.61538464"
       height="16"
       x="-15.923077"
       y="-19"
       transform="scale(-1)"
       id="rect257-5"
       style="fill:#8e8e8e;stroke-width:0.615385" />
    <rect
       width="0.61538464"
       height="16"
       x="-17.769232"
       y="-19"
       transform="scale(-1)"
       id="rect259-0"
       style="fill:#8e8e8e;stroke-width:0.615385" />
    <path
       style="opacity:0.2;stroke-width:0.307692"
       d="m 3.6153851,17.339078 v 0.615385 c 0,0.409231 0.411692,0.737846 0.923076,0.737846 H 17.461539 c 0.511384,0 0.923076,-0.328615 0.923076,-0.737846 v -0.615385 c 0,0.409231 -0.411692,0.737846 -0.923076,0.737846 H 4.5384611 c -0.511384,0 -0.923076,-0.328615 -0.923076,-0.737846 z"
       id="path263-3" />
    <rect
       style="fill:#1e2431;fill-opacity:1;stroke-width:0.307692"
       width="14.769231"
       height="14.769231"
       x="-18.384617"
       y="-18.384615"
       rx="0.73846155"
       ry="0.92307693"
       transform="matrix(0,-1,-1,0,0,0)"
       id="rect265-6" />
    <path
       style="opacity:0.1;fill:#ffffff;stroke-width:0.307692"
       d="m 4.5384611,3.6153851 c -0.511384,0 -0.923076,0.328873 -0.923076,0.73798 v 0.307693 c 0,-0.409108 0.411692,-0.737981 0.923076,-0.737981 H 17.461539 c 0.511384,0 0.923076,0.328873 0.923076,0.737981 v -0.307693 c 0,-0.409107 -0.411692,-0.73798 -0.923076,-0.73798 z"
       id="path267-1" />
    <path
       style="opacity:0.2;stroke-width:0.307692;fill:#636363;fill-opacity:1"
       d="m 11.615385,11.923078 v 4.923077 h 4 v -1.538461 h -0.923077 v 0.615384 h -1.538462 v -0.923077 l -0.615385,-0.615385 v -1.538461 h 2.153847 v 0.615385 h 0.923077 v -1.538462 z m 0,-6.1538469 v 4.9230779 h 4 V 9.1538461 h -0.923077 v 0.615385 h -1.538462 v -0.923077 l -0.615385,-0.615385 v -1.538461 h 2.153847 v 0.615384 h 0.923077 v -1.538461 z"
       id="path269-0" />
    <path
       style="fill:#ffa726;stroke-width:0.307692"
       d="m 11.615385,5.4615391 v 4.9230769 h 4 V 8.8461541 h -0.923077 v 0.615385 h -1.538462 v -0.923078 l -0.615385,-0.615384 v -1.538462 h 2.153847 v 0.615385 h 0.923077 v -1.538461 z"
       id="path271-6" />
    <rect
       style="fill:#f9f9f9;fill-opacity:1;stroke-width:0.307692"
       width="0.92307693"
       height="5.5384617"
       x="7.3076892"
       y="5.4615388"
       id="rect273-3" />
    <rect
       style="fill:#f9f9f9;fill-opacity:1;stroke-width:0.307692"
       width="0.92307693"
       height="5.5384617"
       x="7.3076892"
       y="11.000003"
       id="rect275-2" />
    <rect
       style="fill:#f9f9f9;fill-opacity:1;stroke-width:0.307692"
       width="2.7692308"
       height="1.2307693"
       x="6.3846164"
       y="10.384616"
       id="rect277-0" />
    <path
       style="opacity:0.2;stroke-width:0.307692;fill-opacity:1;fill:#666666"
       d="m 7.3076921,16.538463 h 0.923077 v 0.307692 h -0.923077 z m -0.923077,-4.923077 h 2.769231 v 0.307692 h -2.769231 z"
       id="path279-6" />
    <rect
       style="opacity:0.2;fill:#ffffff;stroke-width:0.307692"
       width="2.7692308"
       height="0.30769232"
       x="6.3846164"
       y="10.384616"
       id="rect281-1" />
    <path
       style="fill:#f75f5f;stroke-width:0.307692"
       d="m 11.615385,11.615386 v 4.923077 h 4 v -1.538462 h -0.923077 v 0.615385 h -1.538462 v -0.923077 l -0.615385,-0.615385 v -1.538461 h 2.153847 v 0.615384 h 0.923077 v -1.538461 z"
       id="path283-5" />
    <path
       style="fill:#f9f9f9;fill-opacity:1;stroke-width:0.307692"
       d="m 11.615385,5.4615391 v 4.9230769 h 4 V 8.8461541 h -0.923077 v 0.615385 h -1.538462 v -0.923078 l -0.615385,-0.615384 v -1.538462 h 2.153847 v 0.615385 h 0.923077 v -1.538461 z"
       id="path285-5" />
    <path
       style="fill:#f9f9f9;fill-opacity:1;stroke-width:0.307692"
       d="m 11.615385,11.615386 v 4.923077 h 4 v -1.538462 h -0.923077 v 0.615385 h -1.538462 v -0.923077 l -0.615385,-0.615385 v -1.538461 h 2.153847 v 0.615384 h 0.923077 v -1.538461 z"
       id="path287-4" />
    <path
       style="opacity:0.2;fill:#636363;stroke-width:0.307692;fill-opacity:1"
       d="m 11.615385,5.4615391 v 0.307692 h 4 v -0.307692 z m 0.923076,2.461538 v 0.307692 l 0.615385,0.615385 v -0.307693 z m 2.153847,0.923077 v 0.307692 h 0.923077 v -0.307692 z m -1.538462,0.615385 v 0.307692 h 1.538462 v -0.307692 z m -1.538461,2.1538469 v 0.307692 h 4 v -0.307692 z m 0.923076,2.461538 v 0.307692 l 0.615385,0.615385 v -0.307692 z m 2.153847,0.923077 v 0.307693 h 0.923077 v -0.307693 z m -1.538462,0.615385 v 0.307692 h 1.538462 v -0.307692 z"
       id="path289-7" />
  </g>
</svg>
