<?xml version="1.0" encoding="UTF-8" standalone="no"?>
<svg
   width="32"
   height="32"
   version="1.1"
   id="svg78"
   sodipodi:docname="disk.svg"
   inkscape:version="1.2.2 (b0a8486541, 2022-12-01)"
   xmlns:inkscape="http://www.inkscape.org/namespaces/inkscape"
   xmlns:sodipodi="http://sodipodi.sourceforge.net/DTD/sodipodi-0.dtd"
   xmlns="http://www.w3.org/2000/svg"
   xmlns:svg="http://www.w3.org/2000/svg">
  <g
     id="22-22-disk-quota-missing"
     transform="translate(128,-22)">
    <rect
       style="opacity:0.00100002;fill:#bac8df;fill-opacity:0.5"
       width="22"
       height="22"
       x="0"
       y="0"
       id="rect34" />
    <path
       d="M 4.23077,3 V 3 C 3.61539,3 3,3.615384 3,4.230769 v 13.538458 0 C 3,18.384613 3.61539,19 4.23077,19 H 17.76922 C 18.38461,19 19,18.384613 19,17.769227 v 0 V 4.230769 C 19,3.615384 18.38461,3 17.76922,3 V 3 Z M 4,12 h 14 v 6 H 4 Z m 5,2 c -1,0 -1,2 0,2 h 7 c 1,0 1,-2 0,-2 z M 4,4 h 14 v 6 H 4 Z M 9,6 C 8,6 8,8 9,8 h 7 c 1,0 1,-2 0,-2 z"
       id="path322-9-6"
       style="fill:#1e2431;fill-opacity:0.5;stroke-width:0.0487712"
       sodipodi:nodetypes="ccsccccccsccccccccccccccccccccccc" />
    <path
       d="M 7,7.000533 C 6.999,8.187317 5.56278,8.779466 4.72487,7.939224 3.88695,7.098981 4.48305,5.665029 5.66983,5.666668 6.40527,5.668168 7.00051,6.265085 7,7.000533 Z"
       id="path1086-62-7-36-06"
       style="color:#e5e9ef;fill:#1e2431;fill-opacity:0.5;stroke-width:0.92116"
       sodipodi:nodetypes="csccccc"
       class="ColorScheme-Text" />
    <path
       d="M 7,15.000534 C 6.998,16.187317 5.56278,16.779466 4.72487,15.939225 3.88695,15.098981 4.48305,13.665033 5.66983,13.666668 6.40527,13.668468 7.00051,14.265088 7,15.000534 Z"
       id="path1086-62-7-0-06-2"
       style="color:#e5e9ef;fill:#1e2431;fill-opacity:0.5;stroke-width:0.92116"
       sodipodi:nodetypes="csccccc"
       class="ColorScheme-Text" />
  </g>
  <g
     id="disk-quota-missing"
     transform="translate(128)"
     style="fill:#1e2431;fill-opacity:0.5">
    <rect
       style="opacity:0.00100002;fill:#1e2431;fill-opacity:0.5"
       width="32"
       height="32"
       x="0"
       y="0"
       id="rect71" />
    <path
       d="m 5.846155,4 v 0 c -0.92307,0 -1.84615,0.923076 -1.84615,1.846154 v 20.307686 0 c 0,0.92308 0.92308,1.84616 1.84615,1.84616 h 20.30769 c 0.92308,0 1.84616,-0.92308 1.84616,-1.84616 v 0 V 5.846154 C 28.000005,4.923076 27.076925,4 26.153845,4 v 0 z m -0.92307,12.92308 h 22.15384 v 9.23076 H 4.923085 Z M 12.307705,21 c -0.92308,0 -0.92308,2 0,2 h 11.07692 c 0.92308,0 0.92308,-2 0,-2 z M 4.923085,5.846154 h 22.15384 V 15.07692 H 4.923085 Z M 12.307705,9 c -0.92308,0 -0.92308,2 0,2 h 11.07692 c 0.92308,0 0.92308,-2 0,-2 z"
       id="path322-1"
       style="fill:#1e2431;fill-opacity:0.5;stroke-width:0.0731568"
       sodipodi:nodetypes="ccsccccccsccccccccccccccccccccccc" />
    <path
       d="m 10.000005,10.0008 c -0.002,1.780176 -2.15583,2.668399 -3.4127,1.408036 -1.25688,-1.260365 -0.36272,-3.411292 1.41744,-3.408834 1.10316,0.0023 1.99603,0.897626 1.99526,2.000798 z"
       id="path1086-62-7-27"
       style="color:#e5e9ef;fill:#1e2431;fill-opacity:0.5;stroke-width:1.38174"
       sodipodi:nodetypes="csccccc"
       class="ColorScheme-Text" />
    <path
       d="m 10.000005,22.000801 c -0.003,1.780175 -2.15583,2.668398 -3.4127,1.408036 -1.25688,-1.260365 -0.36272,-3.411288 1.41744,-3.408835 1.10316,0.0027 1.99603,0.89763 1.99526,2.000799 z"
       id="path1086-62-7-0-0"
       style="color:#e5e9ef;fill:#1e2431;fill-opacity:0.5;stroke-width:1.38174"
       sodipodi:nodetypes="csccccc"
       class="ColorScheme-Text" />
  </g>
  <g
     id="disk-quota-critical"
     transform="translate(96)"
     style="fill:#1e2431;fill-opacity:1">
    <rect
       style="opacity:0.00100002;fill:#1e2431;fill-opacity:1"
       width="32"
       height="32"
       x="0"
       y="0"
       id="rect64" />
    <path
       d="m 5.846155,4 v 0 c -0.92307,0 -1.84615,0.923076 -1.84615,1.846154 v 20.307686 0 c 0,0.92308 0.92308,1.84616 1.84615,1.84616 h 20.30769 c 0.92308,0 1.84616,-0.92308 1.84616,-1.84616 v 0 V 5.846154 C 28.000005,4.923076 27.076925,4 26.153845,4 v 0 z m -0.92307,12.92308 h 22.15384 v 9.23076 H 4.923085 Z M 12.307705,21 c -0.92308,0 -0.92308,2 0,2 h 11.07692 c 0.92308,0 0.92308,-2 0,-2 z M 4.923085,5.846154 h 22.15384 V 15.07692 H 4.923085 Z M 12.307705,9 c -0.92308,0 -0.92308,2 0,2 h 11.07692 c 0.92308,0 0.92308,-2 0,-2 z"
       id="path322-6"
       style="fill:#1e2431;fill-opacity:1;stroke-width:0.0731568"
       sodipodi:nodetypes="ccsccccccsccccccccccccccccccccccc" />
    <path
       d="m 10.000005,10.0008 c -0.002,1.780176 -2.15583,2.668399 -3.4127,1.408036 -1.25688,-1.260365 -0.36272,-3.411292 1.41744,-3.408834 1.10316,0.0023 1.99603,0.897626 1.99526,2.000798 z"
       id="path1086-62-7-2"
       style="color:#e5e9ef;fill:#da4453;fill-opacity:1;stroke-width:1.38174"
       sodipodi:nodetypes="csccccc"
       class="ColorScheme-Text" />
    <path
       d="m 10.000005,22.000801 c -0.003,1.780175 -2.15583,2.668398 -3.4127,1.408036 -1.25688,-1.260365 -0.36272,-3.411288 1.41744,-3.408835 1.10316,0.0027 1.99603,0.89763 1.99526,2.000799 z"
       id="path1086-62-7-0-9"
       style="color:#e5e9ef;fill:#da4453;fill-opacity:1;stroke-width:1.38174"
       sodipodi:nodetypes="csccccc"
       class="ColorScheme-Text" />
  </g>
  <g
     id="disk-quota-high"
     transform="translate(64)"
     style="fill:#1e2431;fill-opacity:1">
    <rect
       style="opacity:0.00100002;fill:#1e2431;fill-opacity:1"
       width="32"
       height="32"
       x="0"
       y="0"
       id="rect55" />
    <path
       d="M 5.846154,4 V 4 C 4.923076,4 4,4.923076 4,5.846154 v 20.307686 0 C 4,27.07692 4.923076,28 5.846154,28 H 26.15384 C 27.07692,28 28,27.07692 28,26.15384 v 0 V 5.846154 C 28,4.923076 27.07692,4 26.15384,4 V 4 Z M 4.923076,16.92308 H 27.07692 v 9.23076 H 4.923076 Z M 12.3077,21 c -0.92308,0 -0.92308,2 0,2 h 11.07692 c 0.92308,0 0.92308,-2 0,-2 z M 4.923076,5.846154 H 27.07692 V 15.07692 H 4.923076 Z M 12.3077,9 c -0.92308,0 -0.92308,2 0,2 h 11.07692 c 0.92308,0 0.92308,-2 0,-2 z"
       id="path322-5"
       style="fill:#1e2431;fill-opacity:1;stroke-width:0.0731568"
       sodipodi:nodetypes="ccsccccccsccccccccccccccccccccccc" />
    <path
       d="M 10.000002,10.0008 C 9.997502,11.780976 7.844167,12.669199 6.587296,11.408836 5.330421,10.148471 6.22458,7.997544 8.004744,8.000002 c 1.10316,0.0023 1.996024,0.897626 1.995258,2.000798 z"
       id="path1086-62-7-3"
       style="color:#e5e9ef;fill:#ff9955;fill-opacity:1;stroke-width:1.38174"
       sodipodi:nodetypes="csccccc"
       class="ColorScheme-Text" />
    <path
       d="M 10,22.000801 C 9.9975,23.780976 7.844167,24.669199 6.587296,23.408837 5.330421,22.148472 6.22458,19.997549 8.004743,20.000002 c 1.10316,0.0027 1.996023,0.89763 1.995257,2.000799 z"
       id="path1086-62-7-0-5"
       style="color:#e5e9ef;fill:#ff9955;fill-opacity:1;stroke-width:1.38174"
       sodipodi:nodetypes="csccccc"
       class="ColorScheme-Text" />
  </g>
  <sodipodi:namedview
     id="namedview80"
     pagecolor="#000000"
     bordercolor="#210aff"
     borderopacity="1"
     inkscape:pageshadow="2"
     inkscape:pageopacity="0"
     inkscape:pagecheckerboard="true"
     showgrid="true"
     inkscape:zoom="5.656854"
     inkscape:cx="86.797362"
     inkscape:cy="4.3310293"
     inkscape:window-width="1920"
     inkscape:window-height="1004"
     inkscape:window-x="0"
     inkscape:window-y="0"
     inkscape:window-maximized="1"
     inkscape:current-layer="svg78"
     inkscape:lockguides="true"
     inkscape:showpageshadow="false"
     inkscape:deskcolor="#000000">
    <inkscape:grid
       type="xygrid"
       id="grid6558"
       originx="96"
       originy="0" />
  </sodipodi:namedview>
  <defs
     id="l4k1">
    <style
       id="current-color-scheme"
       type="text/css">.ColorScheme-Background { color:#181818; }
.ColorScheme-ButtonBackground { color:#343434; }
.ColorScheme-Highlight { color:#4285f4; }
.ColorScheme-Text { 
    color:#d1d5e9;
}
.ColorScheme-ViewBackground { color:#242424; }
.ColorScheme-NegativeText { color:#f44336; }
.ColorScheme-PositiveText { color:#4caf50; }
.ColorScheme-NeutralText { color:#ff9800; }
</style>
  </defs>
  <g
     transform="matrix(1.5,0,0,1.5,132,4.0003)"
     id="g75" />
  <g
     id="disk-quota"
     style="fill:#1e2431;fill-opacity:1">
    <rect
       style="opacity:0.00100002;fill:#1e2431;fill-opacity:1"
       width="32"
       height="32"
       x="0"
       y="0"
       id="rect41" />
    <path
       d="M 5.846154,4 V 4 C 4.923076,4 4,4.923076 4,5.846154 v 20.307686 0 C 4,27.07692 4.923076,28 5.846154,28 H 26.15384 C 27.07692,28 28,27.07692 28,26.15384 v 0 V 5.846154 C 28,4.923076 27.07692,4 26.15384,4 V 4 Z M 4.923076,16.92308 H 27.07692 v 9.23076 H 4.923076 Z M 12.3077,21 c -0.92308,0 -0.92308,2 0,2 h 11.07692 c 0.92308,0 0.92308,-2 0,-2 z M 4.923076,5.846154 H 27.07692 V 15.07692 H 4.923076 Z M 12.3077,9 c -0.92308,0 -0.92308,2 0,2 h 11.07692 c 0.92308,0 0.92308,-2 0,-2 z"
       id="path322"
       style="fill:#1e2431;fill-opacity:1;stroke-width:0.0731568"
       sodipodi:nodetypes="ccsccccccsccccccccccccccccccccccc" />
    <path
       d="M 10.000002,10.0008 C 9.997502,11.780976 7.8441675,12.669199 6.5872956,11.408836 5.3304208,10.148471 6.2245797,7.9975441 8.0047437,8.0000021 9.1079035,8.0022621 10.000768,8.8976284 10.000002,10.0008 Z"
       id="path1086-62-7"
       style="color:#e5e9ef;fill:#1e2431;fill-opacity:1;stroke-width:1.38174"
       sodipodi:nodetypes="csccccc"
       class="ColorScheme-Text" />
    <path
       d="m 9.9999998,22.000801 c -0.00251,1.780175 -2.1558325,2.668398 -3.4127041,1.408036 -1.2568748,-1.260365 -0.3627159,-3.411288 1.4174477,-3.408835 1.1031595,0.0027 1.9960226,0.89763 1.9952564,2.000799 z"
       id="path1086-62-7-0"
       style="color:#e5e9ef;fill:#1e2431;fill-opacity:1;stroke-width:1.38174"
       sodipodi:nodetypes="csccccc"
       class="ColorScheme-Text" />
  </g>
  <g
     id="disk-quota-low"
     transform="translate(32)"
     style="fill:#1e2431;fill-opacity:1">
    <rect
       style="opacity:0.00100002;fill:#1e2431;fill-opacity:1"
       width="32"
       height="32"
       x="0"
       y="0"
       id="rect48" />
    <path
       d="M 5.846154,4 V 4 C 4.923076,4 4,4.923076 4,5.846154 v 20.307686 0 C 4,27.07692 4.923076,28 5.846154,28 H 26.15384 C 27.07692,28 28,27.07692 28,26.15384 v 0 V 5.846154 C 28,4.923076 27.07692,4 26.15384,4 V 4 Z M 4.923076,16.92308 H 27.07692 v 9.23076 H 4.923076 Z M 12.3077,21 c -0.92308,0 -0.92308,2 0,2 h 11.07692 c 0.92308,0 0.92308,-2 0,-2 z M 4.923076,5.846154 H 27.07692 V 15.07692 H 4.923076 Z M 12.3077,9 c -0.92308,0 -0.92308,2 0,2 h 11.07692 c 0.92308,0 0.92308,-2 0,-2 z"
       id="path322-3"
       style="fill:#1e2431;fill-opacity:1;stroke-width:0.0731568"
       sodipodi:nodetypes="ccsccccccsccccccccccccccccccccccc" />
    <path
       d="M 10.000002,10.0008 C 9.997502,11.780976 7.844167,12.669199 6.587296,11.408836 5.330421,10.148471 6.22458,7.997544 8.004744,8.000002 c 1.103159,0.0023 1.996024,0.897626 1.995258,2.000798 z"
       id="path1086-62-7-6"
       style="color:#e5e9ef;fill:#4e70ac;fill-opacity:1;stroke-width:1.38174"
       sodipodi:nodetypes="csccccc"
       class="ColorScheme-Text" />
    <path
       d="M 10,22.000801 C 9.9975,23.780976 7.844167,24.669199 6.587296,23.408837 5.330421,22.148472 6.22458,19.997549 8.004743,20.000002 c 1.10316,0.0027 1.996023,0.89763 1.995257,2.000799 z"
       id="path1086-62-7-0-7"
       style="color:#e5e9ef;fill:#4e70ac;fill-opacity:1;stroke-width:1.38174"
       sodipodi:nodetypes="csccccc"
       class="ColorScheme-Text" />
  </g>
  <g
     id="22-22-disk-quota"
     transform="translate(0,-22)"
     style="fill:#1e2431;fill-opacity:1">
    <rect
       style="opacity:0.00100002;fill:#1e2431;fill-opacity:1"
       width="22"
       height="22"
       x="0"
       y="0"
       id="rect4" />
    <path
       d="m 4.2307685,3 v 0 c -0.61538,0 -1.23077,0.615384 -1.23077,1.230769 v 13.538458 0 c 0,0.615386 0.61539,1.230773 1.23077,1.230773 H 17.769225 c 0.615387,0 1.230773,-0.615387 1.230773,-1.230773 v 0 V 4.230769 C 18.999998,3.615384 18.384612,3 17.769225,3 V 3 Z M 4,12 h 14 v 6 H 4 Z m 5,2 c -1,0 -1,2 0,2 h 7 c 1,0 1,-2 0,-2 z M 4,4 h 14 v 6 H 4 Z M 9,6 C 8,6 8,8 9,8 h 7 c 1,0 1,-2 0,-2 z"
       id="path322-9"
       style="fill:#1e2431;fill-opacity:1;stroke-width:0.0487712"
       sodipodi:nodetypes="ccsccccccsccccccccccccccccccccccc" />
    <path
       d="m 6.9999985,7.000533 c -0.001,1.186784 -1.43722,1.778933 -2.27513,0.938691 -0.83792,-0.840243 -0.24182,-2.274195 0.94496,-2.272556 0.73544,0.0015 1.33068,0.598417 1.33017,1.333865 z"
       id="path1086-62-7-36"
       style="color:#e5e9ef;fill:#1e2431;fill-opacity:1;stroke-width:0.92116"
       sodipodi:nodetypes="csccccc"
       class="ColorScheme-Text" />
    <path
       d="m 6.9999985,15.000534 c -0.002,1.186783 -1.43722,1.778932 -2.27513,0.938691 -0.83792,-0.840244 -0.24182,-2.274192 0.94496,-2.272557 0.73544,0.0018 1.33068,0.59842 1.33017,1.333866 z"
       id="path1086-62-7-0-06"
       style="color:#e5e9ef;fill:#1e2431;fill-opacity:1;stroke-width:0.92116"
       sodipodi:nodetypes="csccccc"
       class="ColorScheme-Text" />
  </g>
  <g
     id="22-22-disk-quota-low"
     transform="translate(32,-22)">
    <rect
       style="opacity:0.00100002"
       width="22"
       height="22"
       x="0"
       y="0"
       id="rect11" />
    <path
       d="M 4.230769,3 V 3 C 3.61539,3 3,3.615384 3,4.230769 v 13.538458 0 C 3,18.384613 3.61539,19 4.230769,19 h 13.538457 c 0.615387,0 1.230773,-0.615387 1.230773,-1.230773 v 0 V 4.230769 C 18.999999,3.615384 18.384613,3 17.769226,3 v 0 z m -0.230768,9 h 14 v 6 h -14 z m 5,2 c -1,0 -1,2 0,2 h 7 c 1,0 1,-2 0,-2 z m -5,-10 h 14 v 6 h -14 z m 5,2 c -1,0 -1,2 0,2 h 7 c 1,0 1,-2 0,-2 z"
       id="path322-9-3"
       style="fill:#1e2431;fill-opacity:1;stroke-width:0.0487712"
       sodipodi:nodetypes="ccsccccccsccccccccccccccccccccccc" />
    <path
       d="M 7,7.000533 C 6.999,8.187317 5.562779,8.779466 4.724869,7.939224 3.88695,7.098981 4.48305,5.665029 5.66983,5.666668 6.405269,5.668168 7.00051,6.265085 7,7.000533 Z"
       id="path1086-62-7-36-67"
       style="color:#e5e9ef;fill:#4e70ac;fill-opacity:1;stroke-width:0.92116"
       sodipodi:nodetypes="csccccc"
       class="ColorScheme-Text" />
    <path
       d="M 7,15.000534 C 6.998,16.187317 5.562779,16.779466 4.724869,15.939225 3.88695,15.098981 4.48305,13.665033 5.66983,13.666668 6.405269,13.668468 7.00051,14.265088 7,15.000534 Z"
       id="path1086-62-7-0-06-5"
       style="color:#e5e9ef;fill:#4e70ac;fill-opacity:1;stroke-width:0.92116"
       sodipodi:nodetypes="csccccc"
       class="ColorScheme-Text" />
  </g>
  <g
     id="22-22-disk-quota-high"
     transform="translate(64,-22)">
    <rect
       style="opacity:0.00100002"
       width="22"
       height="22"
       x="0"
       y="0"
       id="rect18" />
    <path
       d="M 4.230769,3 V 3 C 3.615389,3 3,3.615384 3,4.230769 v 13.538458 0 C 3,18.384613 3.615389,19 4.230769,19 h 13.538457 c 0.615387,0 1.230773,-0.615387 1.230773,-1.230773 v 0 V 4.230769 C 18.999999,3.615384 18.384613,3 17.769226,3 v 0 z m -0.230768,9 h 14 v 6 h -14 z m 5,2 c -1,0 -1,2 0,2 h 7 c 1,0 1,-2 0,-2 z m -5,-10 h 14 v 6 h -14 z m 5,2 c -1,0 -1,2 0,2 h 7 c 1,0 1,-2 0,-2 z"
       id="path322-9-35"
       style="fill:#1e2431;fill-opacity:1;stroke-width:0.0487712"
       sodipodi:nodetypes="ccsccccccsccccccccccccccccccccccc" />
    <path
       d="M 7,7.000533 C 6.999,8.187317 5.56278,8.779466 4.724869,7.939224 3.88695,7.098981 4.483049,5.665029 5.669829,5.666668 6.40527,5.668168 7.000509,6.265085 7,7.000533 Z"
       id="path1086-62-7-36-62"
       style="color:#e5e9ef;fill:#ff9955;fill-opacity:1;stroke-width:0.92116"
       sodipodi:nodetypes="csccccc"
       class="ColorScheme-Text" />
    <path
       d="M 7,15.000534 C 6.998,16.187317 5.56278,16.779466 4.724869,15.939225 3.88695,15.098981 4.483049,13.665033 5.669829,13.666668 6.40527,13.668468 7.000509,14.265088 7,15.000534 Z"
       id="path1086-62-7-0-06-91"
       style="color:#e5e9ef;fill:#ff9955;fill-opacity:1;stroke-width:0.92116"
       sodipodi:nodetypes="csccccc"
       class="ColorScheme-Text" />
  </g>
  <g
     id="22-22-disk-quota-critical"
     transform="translate(96,-22)">
    <rect
       style="opacity:0.00100002"
       width="22"
       height="22"
       x="0"
       y="0"
       id="rect27" />
    <path
       d="M 4.23077,3 V 3 C 3.61539,3 3,3.615384 3,4.230769 v 13.538458 0 C 3,18.384613 3.61539,19 4.23077,19 H 17.76923 C 18.38461,19 19,18.384613 19,17.769227 v 0 V 4.230769 C 19,3.615384 18.38461,3 17.76923,3 V 3 Z M 4,12 h 14 v 6 H 4 Z m 5,2 c -1,0 -1,2 0,2 h 7 c 1,0 1,-2 0,-2 z M 4,4 h 14 v 6 H 4 Z M 9,6 C 8,6 8,8 9,8 h 7 c 1,0 1,-2 0,-2 z"
       id="path322-9-27"
       style="fill:#1e2431;fill-opacity:1;stroke-width:0.0487712"
       sodipodi:nodetypes="ccsccccccsccccccccccccccccccccccc" />
    <path
       d="M 7,7.000533 C 6.999,8.187317 5.56278,8.779466 4.72487,7.939224 3.88695,7.098981 4.48305,5.665029 5.66983,5.666668 6.40527,5.668168 7.00051,6.265085 7,7.000533 Z"
       id="path1086-62-7-36-0"
       style="color:#e5e9ef;fill:#da4453;fill-opacity:1;stroke-width:0.92116"
       sodipodi:nodetypes="csccccc"
       class="ColorScheme-Text" />
    <path
       d="M 7,15.000534 C 6.998,16.187317 5.56278,16.779466 4.72487,15.939225 3.88695,15.098981 4.48305,13.665033 5.66983,13.666668 6.40527,13.668468 7.00051,14.265088 7,15.000534 Z"
       id="path1086-62-7-0-06-93"
       style="color:#e5e9ef;fill:#da4453;fill-opacity:1;stroke-width:0.92116"
       sodipodi:nodetypes="csccccc"
       class="ColorScheme-Text" />
  </g>
</svg>
