<?xml version="1.0" encoding="UTF-8" standalone="no"?>
<svg
   width="32"
   height="32"
   version="1.1"
   id="svg32"
   sodipodi:docname="document.svg"
   inkscape:version="1.2.2 (b0a8486541, 2022-12-01)"
   xmlns:inkscape="http://www.inkscape.org/namespaces/inkscape"
   xmlns:sodipodi="http://sodipodi.sourceforge.net/DTD/sodipodi-0.dtd"
   xmlns="http://www.w3.org/2000/svg"
   xmlns:svg="http://www.w3.org/2000/svg"
   xmlns:rdf="http://www.w3.org/1999/02/22-rdf-syntax-ns#"
   xmlns:cc="http://creativecommons.org/ns#"
   xmlns:dc="http://purl.org/dc/elements/1.1/">
  <style
     id="current-color-scheme"
     type="text/css">.ColorScheme-Text { color:#d1d5e9; }
</style>
  <metadata
     id="metadata38">
    <rdf:RDF>
      <cc:Work
         rdf:about="">
        <dc:format>image/svg+xml</dc:format>
        <dc:type
           rdf:resource="http://purl.org/dc/dcmitype/StillImage" />
      </cc:Work>
    </rdf:RDF>
  </metadata>
  <defs
     id="defs36">
    <linearGradient
       x1="0"
       x2="0"
       y1="0"
       y2="1"
       id="linearGradient13">
      <stop
         offset="0%"
         style="stop-color:#303b3d; stop-opacity:1"
         id="stop18" />
      <stop
         offset="100%"
         style="stop-color:#bc985d; stop-opacity:1"
         id="stop20" />
    </linearGradient>
  </defs>
  <sodipodi:namedview
     pagecolor="#000000"
     bordercolor="#1010ff"
     borderopacity="1"
     objecttolerance="10"
     gridtolerance="10"
     guidetolerance="10"
     inkscape:pageopacity="0"
     inkscape:pageshadow="2"
     inkscape:window-width="1920"
     inkscape:window-height="994"
     id="namedview34"
     showgrid="true"
     inkscape:zoom="8.0000001"
     inkscape:cx="33.25"
     inkscape:cy="11.8125"
     inkscape:window-x="0"
     inkscape:window-y="0"
     inkscape:window-maximized="1"
     inkscape:current-layer="svg32"
     inkscape:document-rotation="0"
     inkscape:lockguides="false"
     inkscape:showpageshadow="false"
     showguides="false"
     inkscape:pagecheckerboard="true"
     inkscape:deskcolor="#000000">
    <inkscape:grid
       type="xygrid"
       id="grid886"
       originx="0"
       originy="0" />
    <sodipodi:guide
       position="32,32"
       orientation="0,32"
       id="guide854"
       inkscape:locked="false" />
    <sodipodi:guide
       position="64,32"
       orientation="32,0"
       id="guide856"
       inkscape:locked="false" />
    <sodipodi:guide
       position="64,0"
       orientation="0,-32"
       id="guide858"
       inkscape:locked="false" />
    <sodipodi:guide
       position="32,0"
       orientation="-32,0"
       id="guide860"
       inkscape:locked="false" />
  </sodipodi:namedview>
  <g
     id="document-open-recent">
    <rect
       style="opacity:0.00100002;fill:#bac8df;fill-opacity:1"
       width="32"
       height="32"
       x="0"
       y="0"
       id="rect17" />
    <path
       d="m 10.60551,12 v 0 a 0.60551008,0.50000001 0 0 1 0,-1 h 10.78898 a 0.60551008,0.50000001 0 0 1 0,1 z"
       id="path4"
       style="fill:#1e2431;fill-opacity:1;stroke-width:1.10046" />
    <path
       d="m 10.599334,14.999999 v 0 a 0.6001028,0.49999999 0 0 1 0,-0.999999 h 7.801332 a 0.6001028,0.49999999 0 0 1 0,0.999999 z"
       id="path6"
       style="fill:#1e2431;fill-opacity:1;stroke-width:1.09554" />
    <path
       d="m 10.616438,21 v 0 c -0.8219178,0 -0.8219178,-1 0,-1 h 8.767124 c 0.821917,0 0.821917,1 0,1 z"
       id="path8"
       style="fill:#1e2431;fill-opacity:1;stroke-width:1.60561"
       sodipodi:nodetypes="ccsssc" />
    <path
       d="m 15.4661,17.999999 v 0 A 0.46675345,0.49999999 0 0 1 15.4661,17 h 6.0678 a 0.46675345,0.49999999 0 0 1 0,0.999999 z"
       id="path6-5"
       style="fill:#1e2431;fill-opacity:1;stroke-width:0.966179" />
    <path
       style="color:#d6dbf1;fill:none;fill-opacity:1;stroke:#1e2431;stroke-width:1.60402;stroke-linecap:round;stroke-miterlimit:4;stroke-dasharray:none;stroke-opacity:1;stop-color:#31363b"
       sodipodi:type="arc"
       sodipodi:cx="-16"
       sodipodi:cy="-16.00001"
       sodipodi:rx="11.201572"
       sodipodi:ry="11.201572"
       sodipodi:start="3.7596615"
       sodipodi:end="3.7574109"
       sodipodi:open="true"
       sodipodi:arc-type="arc"
       transform="scale(-1)"
       d="m -25.12927,-22.490899 a 11.201572,11.201572 0 0 1 15.6150219,-2.642032 11.201572,11.201572 0 0 1 2.6508169,15.6135337 11.201572,11.201572 0 0 1 -15.6120398,2.6596014 11.201572,11.201572 0 0 1 -2.668385,-15.6105401"
       id="path7"
       class="ColorScheme-Text" />
  </g>
  <g
     id="22--22-document-open-recent"
     transform="translate(0,-22)">
    <rect
       style="opacity:0.00100002;fill:#bac8df;fill-opacity:1"
       width="22"
       height="22"
       x="0"
       y="0"
       id="rect7" />
    <path
       d="m 7.44237,7.999848 v 0 C 6.818967,8 6.887101,7.002778 7.44237,7 h 7.141178 c 0.555268,0.0028 0.555268,0.997069 0,0.999848 z"
       id="path4-6"
       style="fill:#1e2431;fill-opacity:1;stroke-width:0.91446"
       sodipodi:nodetypes="cccccc" />
    <path
       d="m 7.464963,10.999797 v 0 c -0.619951,-0.0028 -0.619951,-0.997005 0,-0.999797 h 6.070075 c 0.619949,0.0028 0.619949,0.997005 0,0.999797 z"
       id="path6-7"
       style="fill:#1e2431;fill-opacity:1;stroke-width:0.966298"
       sodipodi:nodetypes="cscccc" />
    <path
       d="m 7.39854,13.999746 v 0 C 6.867153,13.996946 6.867153,13.002792 7.39854,13 h 5.202919 c 0.531387,0.0028 0.531387,0.996954 0,0.999746 z"
       id="path6-5-3"
       style="fill:#1e2431;fill-opacity:1;stroke-width:0.894566"
       sodipodi:nodetypes="cscccc" />
    <path
       style="color:#d6dbf1;fill:none;fill-opacity:1;stroke:#1e2431;stroke-width:1.06938;stroke-linecap:round;stroke-miterlimit:4;stroke-dasharray:none;stroke-opacity:1;stop-color:#31363b"
       sodipodi:type="arc"
       sodipodi:cx="-11.000002"
       sodipodi:cy="-11.000008"
       sodipodi:rx="7.4676995"
       sodipodi:ry="7.4676995"
       sodipodi:start="3.7596615"
       sodipodi:end="3.7574109"
       sodipodi:open="true"
       sodipodi:arc-type="arc"
       transform="scale(-1)"
       d="m -17.08617,-15.327258 a 7.4676995,7.4676995 0 0 1 10.4099938,-1.761351 7.4676995,7.4676995 0 0 1 1.7672076,10.4090006 7.4676995,7.4676995 0 0 1 -10.4080044,1.773064 7.4676995,7.4676995 0 0 1 -1.77892,-10.4070056"
       id="path7-3"
       class="ColorScheme-Text" />
  </g>
  <g
     id="document-decrypt"
     transform="translate(64)">
    <rect
       style="opacity:0.00100002;fill:#bac8df;fill-opacity:1"
       width="32"
       height="32"
       x="0"
       y="0"
       id="rect27" />
    <path
       d="m 17.68747,15.142884 h -4.499998 c -0.931968,0 -1.687472,0.767505 -1.687472,1.714281 v 3.428556 C 11.5,21.232589 12.255504,22 13.187472,22 h 5.625055 C 19.7445,22 20.5,21.232589 20.5,20.285721 v -3.428556 c 0,-0.946776 -0.7555,-1.714281 -1.687473,-1.714281 V 12.857215 C 18.812527,11.279539 17.553058,10 16.000001,10 c -1.553046,0 -2.812529,1.27949 -2.812529,2.857215 0,0.315408 0.251982,0.571394 0.562555,0.571394 0.310465,0 0.562452,-0.255986 0.562452,-0.571394 0,-0.946872 0.755411,-1.714279 1.687469,-1.714279 0.93206,0 1.687473,0.767407 1.687473,1.714279 z"
       fill-rule="evenodd"
       id="path3977"
       style="fill:#1e2431;fill-opacity:1;stroke-width:0.0242974" />
    <path
       style="color:#d6dbf1;fill:none;fill-opacity:1;stroke:#1e2431;stroke-width:1.60402;stroke-linecap:round;stroke-miterlimit:4;stroke-dasharray:none;stroke-opacity:1;stop-color:#31363b"
       sodipodi:type="arc"
       sodipodi:cx="-16.000002"
       sodipodi:cy="-16"
       sodipodi:rx="11.201572"
       sodipodi:ry="11.201572"
       sodipodi:start="3.7596615"
       sodipodi:end="3.7574109"
       sodipodi:open="true"
       sodipodi:arc-type="arc"
       transform="scale(-1)"
       d="m -25.129272,-22.49089 a 11.201572,11.201572 0 0 1 15.615022,-2.642031 11.201572,11.201572 0 0 1 2.6508169,15.6135332 11.201572,11.201572 0 0 1 -15.6120389,2.6596015 11.201572,11.201572 0 0 1 -2.668386,-15.6105407"
       id="path7-36"
       class="ColorScheme-Text" />
  </g>
  <g
     id="document-encrypt"
     transform="translate(32)">
    <rect
       style="opacity:0.00100002;fill:#bac8df;fill-opacity:1"
       width="32"
       height="32"
       x="0"
       y="0"
       id="rect22" />
    <path
       d="m 13.187471,15.142882 c -0.931969,0 -1.687471,0.767505 -1.687471,1.714283 v 3.428556 C 11.5,21.232588 12.255502,22 13.187471,22 h 5.625064 C 19.744506,22 20.5,21.232588 20.5,20.285721 v -3.428556 c 0,-0.946778 -0.755494,-1.714283 -1.687465,-1.714283 V 12.857213 C 18.812535,11.27954 17.553055,10 16.000008,10 c -1.553051,0 -2.812537,1.279487 -2.812537,2.857213 z m 4.499999,0 v -2.285669 c 0,-0.946868 -0.755406,-1.714279 -1.687462,-1.714279 -0.932066,0 -1.687472,0.767411 -1.687472,1.714279 v 2.285669 z"
       fill-rule="evenodd"
       id="path3240"
       style="fill:#1e2431;fill-opacity:1;stroke-width:0.0242976" />
    <path
       style="color:#d6dbf1;fill:none;fill-opacity:1;stroke:#1e2431;stroke-width:1.60402;stroke-linecap:round;stroke-miterlimit:4;stroke-dasharray:none;stroke-opacity:1;stop-color:#31363b"
       sodipodi:type="arc"
       sodipodi:cx="-16"
       sodipodi:cy="-16.00001"
       sodipodi:rx="11.201572"
       sodipodi:ry="11.201572"
       sodipodi:start="3.7596615"
       sodipodi:end="3.7574109"
       sodipodi:open="true"
       sodipodi:arc-type="arc"
       transform="scale(-1)"
       d="m -25.12927,-22.490899 a 11.201572,11.201572 0 0 1 15.6150219,-2.642032 11.201572,11.201572 0 0 1 2.6508169,15.6135337 11.201572,11.201572 0 0 1 -15.6120398,2.6596014 11.201572,11.201572 0 0 1 -2.668385,-15.6105401"
       id="path7-7"
       class="ColorScheme-Text" />
  </g>
  <g
     id="22-22-document-encrypt"
     transform="translate(32,-22)">
    <rect
       style="opacity:0.00100002;fill:#bac8df;fill-opacity:1"
       width="22"
       height="22"
       x="0"
       y="0"
       id="rect2" />
    <path
       d="M 9.124983,10.428597 C 8.503665,10.428597 8,10.940265 8,11.571445 v 2.285711 C 8,14.488389 8.503665,15 9.124983,15 h 3.750034 C 13.496344,15 14,14.488389 14,13.857156 v -2.285711 c 0,-0.63118 -0.503656,-1.142848 -1.124983,-1.142848 V 8.9048108 C 12.875017,7.853024 12.035375,7 11.000008,7 9.964637,7 9.124983,7.852996 9.124983,8.9048108 Z m 3.000003,0 V 8.9048108 c 0,-0.6312508 -0.503604,-1.1428508 -1.124978,-1.1428508 -0.621383,0 -1.124988,0.5116 -1.124988,1.1428508 v 1.5237862 z"
       fill-rule="evenodd"
       id="path3240-5"
       style="fill:#1e2431;fill-opacity:1;stroke-width:0.0161978" />
    <path
       style="color:#d6dbf1;fill:none;fill-opacity:1;stroke:#1e2431;stroke-width:1.06938;stroke-linecap:round;stroke-miterlimit:4;stroke-dasharray:none;stroke-opacity:1;stop-color:#31363b"
       sodipodi:type="arc"
       sodipodi:cx="-11"
       sodipodi:cy="-11.000008"
       sodipodi:rx="7.4676995"
       sodipodi:ry="7.4676995"
       sodipodi:start="3.7596615"
       sodipodi:end="3.7574109"
       sodipodi:open="true"
       sodipodi:arc-type="arc"
       transform="scale(-1)"
       d="m -17.086168,-15.327258 a 7.4676995,7.4676995 0 0 1 10.4099937,-1.761351 7.4676995,7.4676995 0 0 1 1.7672076,10.4090006 7.4676995,7.4676995 0 0 1 -10.4080043,1.773064 7.4676995,7.4676995 0 0 1 -1.77892,-10.4070056"
       id="path7-3-5"
       class="ColorScheme-Text" />
  </g>
  <g
     id="22-22-document-decrypt"
     transform="translate(64,-22)">
    <rect
       style="opacity:0.00100002;fill:#bac8df;fill-opacity:1"
       width="22"
       height="22"
       x="0"
       y="0"
       id="rect12" />
    <path
       d="M 12.124981,10.428589 H 9.124982 C 8.503665,10.428589 8,10.94026 8,11.571444 v 2.285704 C 8,14.48839 8.503665,15 9.124982,15 h 3.750035 C 13.496336,15 14,14.48839 14,13.857148 V 11.571444 C 14,10.94026 13.496336,10.428589 12.875017,10.428589 V 8.9048101 C 12.875017,7.8530261 12.035375,7 11.000001,7 9.964635,7 9.124982,7.8529936 9.124982,8.9048101 c 0,0.210272 0.167992,0.3809299 0.375039,0.3809299 0.206979,0 0.374968,-0.1706579 0.374968,-0.3809299 0,-0.631248 0.503611,-1.1428531 1.124971,-1.1428531 0.621378,0 1.124985,0.5116051 1.124985,1.1428531 z"
       fill-rule="evenodd"
       id="path3977-6"
       style="fill:#1e2431;fill-opacity:1;stroke-width:0.016198" />
    <path
       style="color:#d6dbf1;fill:none;fill-opacity:1;stroke:#1e2431;stroke-width:1.06938;stroke-linecap:round;stroke-miterlimit:4;stroke-dasharray:none;stroke-opacity:1;stop-color:#31363b"
       sodipodi:type="arc"
       sodipodi:cx="-11.000002"
       sodipodi:cy="-11"
       sodipodi:rx="7.4676995"
       sodipodi:ry="7.4676995"
       sodipodi:start="3.7596615"
       sodipodi:end="3.7574109"
       sodipodi:open="true"
       sodipodi:arc-type="arc"
       transform="scale(-1)"
       d="m -17.08617,-15.327251 a 7.4676995,7.4676995 0 0 1 10.4099938,-1.76135 7.4676995,7.4676995 0 0 1 1.7672076,10.4090002 7.4676995,7.4676995 0 0 1 -10.4080044,1.773064 7.4676995,7.4676995 0 0 1 -1.77892,-10.4070052"
       id="path7-3-5-3"
       class="ColorScheme-Text" />
  </g>
</svg>
