<?xml version="1.0" encoding="UTF-8" standalone="no"?>
<svg
   width="32"
   height="32"
   version="1.1"
   id="svg16"
   sodipodi:docname="dropbox.svg"
   inkscape:version="1.2.2 (b0a8486541, 2022-12-01)"
   xmlns:inkscape="http://www.inkscape.org/namespaces/inkscape"
   xmlns:sodipodi="http://sodipodi.sourceforge.net/DTD/sodipodi-0.dtd"
   xmlns="http://www.w3.org/2000/svg"
   xmlns:svg="http://www.w3.org/2000/svg"
   xmlns:rdf="http://www.w3.org/1999/02/22-rdf-syntax-ns#"
   xmlns:cc="http://creativecommons.org/ns#"
   xmlns:dc="http://purl.org/dc/elements/1.1/">
  <style
     id="current-color-scheme"
     type="text/css">
.ColorScheme-Text {
    color:#d6dbf1;
}
</style>
  <metadata
     id="metadata22">
    <rdf:RDF>
      <cc:Work
         rdf:about="">
        <dc:format>image/svg+xml</dc:format>
        <dc:type
           rdf:resource="http://purl.org/dc/dcmitype/StillImage" />
      </cc:Work>
    </rdf:RDF>
  </metadata>
  <defs
     id="defs20">
    <linearGradient
       id="oomox"
       x1="131.53468"
       x2="131.53468"
       y1="146.39674"
       y2="160.8511"
       gradientTransform="scale(1.0377491,0.96362406)"
       gradientUnits="userSpaceOnUse">
      <stop
         offset="0%"
         style="stop-color:#303b3d; stop-opacity:1"
         id="stop18" />
      <stop
         offset="100%"
         style="stop-color:#bc985d; stop-opacity:1"
         id="stop20" />
    </linearGradient>
  </defs>
  <sodipodi:namedview
     pagecolor="#000000"
     bordercolor="#1105f0"
     borderopacity="1"
     objecttolerance="10"
     gridtolerance="10"
     guidetolerance="10"
     inkscape:pageopacity="0"
     inkscape:pageshadow="2"
     inkscape:window-width="1920"
     inkscape:window-height="994"
     id="namedview18"
     showgrid="true"
     inkscape:zoom="13.876971"
     inkscape:cx="17.943397"
     inkscape:cy="15.31314"
     inkscape:window-x="0"
     inkscape:window-y="0"
     inkscape:window-maximized="1"
     inkscape:current-layer="svg16"
     inkscape:document-rotation="0"
     inkscape:showpageshadow="false"
     inkscape:pagecheckerboard="true"
     inkscape:deskcolor="#000000">
    <inkscape:grid
       type="xygrid"
       id="grid876"
       originx="0"
       originy="0" />
  </sodipodi:namedview>
  <g
     id="dropbox">
    <rect
       style="opacity:0.00100002;fill:#eff0f1;fill-opacity:1"
       width="32"
       height="32"
       x="0"
       y="0"
       id="rect9" />
    <path
       style="fill:#1e2431;fill-opacity:1;stroke-width:0.303225"
       d="M 12.02174,9.1833245 8.931279,11.20128 c -0.420571,0.274721 -0.443921,0.751996 -0.05158,1.065832 l 1.769912,1.417572 c 0.392076,0.31414 1.056741,0.354772 1.483981,0.09067 l 3.103804,-1.916679 c 0.427548,-0.263805 0.461199,-0.738956 0.07552,-1.060981 L 13.481454,9.2688378 c -0.3854,-0.3217212 -1.03915,-0.3599273 -1.459725,-0.085505 z"
       id="path190" />
    <path
       style="fill:#1e2431;fill-opacity:1;stroke-width:0.303225"
       d="m 8.931279,17.305177 3.090461,2.017652 c 0.420575,0.27472 1.074323,0.236211 1.460026,-0.08551 l 1.831474,-1.528855 c 0.385701,-0.322022 0.351736,-0.796871 -0.07578,-1.060979 l -3.103803,-1.916681 c -0.427546,-0.263805 -1.091909,-0.223476 -1.483978,0.09067 l -1.769921,1.417572 c -0.39237,0.314443 -0.369024,0.791414 0.05158,1.066134 z"
       id="path192" />
    <path
       style="fill:#1e2431;fill-opacity:1;stroke-width:0.303225"
       d="m 16.709889,17.708464 1.831772,1.528855 c 0.385702,0.322026 1.039449,0.36023 1.460019,0.08551 l 3.090162,-2.017652 c 0.42057,-0.27472 0.443919,-0.751995 0.05155,-1.065831 L 21.373478,14.821772 C 20.981404,14.507633 20.317044,14.467 19.889497,14.731106 l -3.103801,1.916678 c -0.427549,0.263804 -0.461501,0.738652 -0.07578,1.060676 z"
       id="path194" />
    <path
       style="fill:#1e2431;fill-opacity:1;stroke-width:0.303225"
       d="M 23.092144,11.20128 20.00168,9.1833245 C 19.58111,8.9086038 18.927363,8.9471133 18.541661,9.2688299 l -1.831772,1.5288541 c -0.3857,0.322024 -0.351748,0.796872 0.07552,1.060677 l 3.103802,1.916679 c 0.427547,0.263805 1.091906,0.223476 1.48398,-0.09067 l 1.769911,-1.41757 c 0.392673,-0.313837 0.369628,-0.790807 -0.05095,-1.065529 z"
       id="path196" />
    <path
       style="fill:#1e2431;fill-opacity:1;stroke-width:0.303225"
       d="m 15.321122,18.286105 -1.837536,1.524915 c -0.386613,0.320811 -1.010039,0.378423 -1.392709,0.128567 -0.382671,-0.249855 -0.692867,-0.225297 -0.692867,0.05486 0,0.280177 0.349313,0.71652 0.780197,0.974865 l 3.062861,1.83693 c 0.430886,0.258344 1.129509,0.258344 1.560394,0 l 3.063161,-1.83693 c 0.430884,-0.258345 0.780197,-0.694991 0.780197,-0.974865 0,-0.279877 -0.310194,-0.304436 -0.692564,-0.05486 -0.382665,0.249856 -1.006095,0.192244 -1.392701,-0.128567 l -1.837848,-1.524915 c -0.387216,-0.32081 -1.01398,-0.32081 -1.400585,0 z"
       id="path198" />
    <path
       style="color:#d6dbf1;fill:none;fill-opacity:1;stroke:#1e2431;stroke-width:1.60402;stroke-linecap:round;stroke-miterlimit:4;stroke-dasharray:none;stroke-opacity:1;stop-color:#31363b"
       sodipodi:type="arc"
       sodipodi:cx="-16"
       sodipodi:cy="-16.00001"
       sodipodi:rx="11.201572"
       sodipodi:ry="11.201572"
       sodipodi:start="3.7596615"
       sodipodi:end="3.7574109"
       sodipodi:open="true"
       sodipodi:arc-type="arc"
       transform="scale(-1)"
       d="m -25.12927,-22.490899 a 11.201572,11.201572 0 0 1 15.6150219,-2.642032 11.201572,11.201572 0 0 1 2.6508169,15.6135337 11.201572,11.201572 0 0 1 -15.6120398,2.6596014 11.201572,11.201572 0 0 1 -2.668385,-15.6105401"
       id="path7"
       class="ColorScheme-Text" />
  </g>
  <g
     id="22-22-dropbox">
    <g
       id="g1317">
      <rect
         style="opacity:0.00100002;fill:#eff0f1;fill-opacity:1"
         width="22"
         height="22"
         x="32"
         y="10"
         id="rect2" />
      <path
         style="fill:#1e2431;fill-opacity:1;stroke-width:0.173263"
         d="M 40.755268,17.104756 38.9893,18.257868 c -0.240327,0.156984 -0.253668,0.429711 -0.02946,0.609046 l 1.011378,0.810038 c 0.224038,0.179508 0.603847,0.202727 0.847984,0.05181 L 42.5928,18.633519 c 0.244309,-0.150745 0.263545,-0.42226 0.04314,-0.606273 l -1.046547,-0.873627 c -0.220226,-0.183839 -0.593797,-0.205672 -0.834122,-0.04886 z"
         id="path190-3" />
      <path
         style="fill:#1e2431;fill-opacity:1;stroke-width:0.173263"
         d="m 38.9893,21.745796 1.765968,1.152946 c 0.240326,0.156975 0.613897,0.134973 0.834297,-0.04892 l 1.046552,-0.873598 c 0.220399,-0.184008 0.200991,-0.455341 -0.04333,-0.606265 l -1.773582,-1.095228 c -0.24431,-0.150745 -0.623946,-0.1277 -0.847984,0.05181 l -1.011378,0.81004 c -0.224211,0.17968 -0.21087,0.452238 0.02946,0.609217 z"
         id="path192-6" />
      <path
         style="fill:#1e2431;fill-opacity:1;stroke-width:0.173263"
         d="m 43.434197,21.97625 1.046721,0.873625 c 0.2204,0.18401 0.593983,0.205842 0.834307,0.04893 l 1.765789,-1.152937 c 0.240323,-0.156984 0.253667,-0.429708 0.02939,-0.609047 l -1.011318,-0.810102 c -0.224026,-0.17951 -0.603672,-0.202728 -0.847981,-0.05181 l -1.773591,1.095237 c -0.244307,0.150752 -0.263718,0.42209 -0.04336,0.606107 z"
         id="path194-7" />
      <path
         style="fill:#1e2431;fill-opacity:1;stroke-width:0.173263"
         d="m 47.081187,18.257868 -1.765962,-1.153112 c -0.240324,-0.156984 -0.613907,-0.134976 -0.834307,0.04887 l -1.046721,0.873629 c -0.2204,0.184012 -0.20099,0.455353 0.04311,0.606099 l 1.773593,1.09524 c 0.24431,0.150746 0.623945,0.1277 0.847986,-0.0518 l 1.011387,-0.81004 c 0.224385,-0.179336 0.211214,-0.451889 -0.02915,-0.608873 z"
         id="path196-5" />
      <path
         style="fill:#1e2431;fill-opacity:1;stroke-width:0.173263"
         d="m 42.640621,22.30633 -1.050016,0.871379 c -0.22092,0.183307 -0.577164,0.216242 -0.795831,0.07342 -0.218667,-0.142775 -0.395922,-0.128737 -0.395922,0.03142 0,0.160114 0.199607,0.409436 0.445824,0.557075 l 1.750203,1.049655 c 0.246215,0.14763 0.645426,0.14763 0.891644,0 l 1.750385,-1.049662 c 0.246215,-0.147637 0.445822,-0.397147 0.445822,-0.557074 0,-0.159927 -0.177255,-0.173955 -0.395748,-0.03143 -0.218674,0.142773 -0.574922,0.109854 -0.795826,-0.07342 l -1.0502,-0.871363 c -0.221263,-0.18332 -0.579414,-0.18332 -0.800335,0 z"
         id="path198-3" />
      <path
         style="color:#d6dbf1;fill:none;fill-opacity:1;stroke:#1e2431;stroke-width:1.06938;stroke-linecap:round;stroke-miterlimit:4;stroke-dasharray:none;stroke-opacity:1;stop-color:#31363b"
         sodipodi:type="arc"
         sodipodi:cx="-43"
         sodipodi:cy="-21.000006"
         sodipodi:rx="7.4676957"
         sodipodi:ry="7.4676976"
         sodipodi:start="3.7596615"
         sodipodi:end="3.7574109"
         sodipodi:open="true"
         sodipodi:arc-type="arc"
         transform="scale(-1)"
         d="m -49.086165,-25.327255 a 7.4676957,7.4676976 0 0 1 10.409988,-1.761351 7.4676957,7.4676976 0 0 1 1.767207,10.408998 7.4676957,7.4676976 0 0 1 -10.407999,1.773064 7.4676957,7.4676976 0 0 1 -1.778919,-10.407003"
         id="path7-3"
         class="ColorScheme-Text" />
    </g>
  </g>
</svg>
