<?xml version="1.0" encoding="UTF-8" standalone="no"?>
<svg
   width="32"
   height="32"
   version="1.1"
   id="svg12"
   sodipodi:docname="kopete.svg"
   inkscape:version="1.2.2 (b0a8486541, 2022-12-01)"
   xmlns:inkscape="http://www.inkscape.org/namespaces/inkscape"
   xmlns:sodipodi="http://sodipodi.sourceforge.net/DTD/sodipodi-0.dtd"
   xmlns="http://www.w3.org/2000/svg"
   xmlns:svg="http://www.w3.org/2000/svg"
   xmlns:rdf="http://www.w3.org/1999/02/22-rdf-syntax-ns#"
   xmlns:cc="http://creativecommons.org/ns#"
   xmlns:dc="http://purl.org/dc/elements/1.1/">
  <style
     id="current-color-scheme"
     type="text/css">.ColorScheme-Text { color:#d6dbf1; }
</style>
  <metadata
     id="metadata18">
    <rdf:RDF>
      <cc:Work
         rdf:about="">
        <dc:format>image/svg+xml</dc:format>
        <dc:type
           rdf:resource="http://purl.org/dc/dcmitype/StillImage" />
      </cc:Work>
    </rdf:RDF>
  </metadata>
  <defs
     id="defs16">
    <linearGradient
       id="oomox"
       x1="0"
       x2="0"
       y1="0"
       y2="1">
      <stop
         offset="0%"
         style="stop-color:#303b3d; stop-opacity:1"
         id="stop18" />
      <stop
         offset="100%"
         style="stop-color:#bc985d; stop-opacity:1"
         id="stop20" />
    </linearGradient>
  </defs>
  <sodipodi:namedview
     pagecolor="#000000"
     bordercolor="#0100f0"
     borderopacity="1"
     objecttolerance="10"
     gridtolerance="10"
     guidetolerance="10"
     inkscape:pageopacity="0"
     inkscape:pageshadow="2"
     inkscape:window-width="1920"
     inkscape:window-height="994"
     id="namedview14"
     showgrid="true"
     inkscape:zoom="9.8125003"
     inkscape:cx="25.681528"
     inkscape:cy="18.904458"
     inkscape:window-x="0"
     inkscape:window-y="0"
     inkscape:window-maximized="1"
     inkscape:current-layer="svg12"
     inkscape:lockguides="false"
     inkscape:document-rotation="0"
     inkscape:showpageshadow="false"
     inkscape:pagecheckerboard="true"
     inkscape:deskcolor="#000000">
    <inkscape:grid
       type="xygrid"
       id="grid863"
       originx="0"
       originy="0" />
  </sodipodi:namedview>
  <g
     id="kopete"
     transform="translate(32,10)">
    <rect
       style="opacity:0.00100002;fill:#d1d5e9;fill-opacity:1"
       width="32"
       height="32"
       x="-32"
       y="-10"
       id="rect7" />
    <path
       style="fill:#1e2431;fill-opacity:1"
       d="M -15.5,0.5 A 5,5.5 0 0 0 -16.490234,0.613281 5,5.5 0 0 1 -12.5,6 5,5.5 0 0 1 -16.509766,11.386719 5,5.5 0 0 0 -15.5,11.5 a 5,5.5 0 0 0 5,-5.5 5,5.5 0 0 0 -5,-5.5 z m -5,1.5 a 1,1 0 0 0 -1,1 1,1 0 0 0 1,1 1,1 0 0 0 1,-1 1,1 0 0 0 -1,-1 z m 2,3 c -0.554,0 -1,0.446 -1,1 0,0.554 0.446,1 1,1 h 3 c 0.554,0 1,-0.446 1,-1 0,-0.554 -0.446,-1 -1,-1 z m -2,3 c -0.5523,0 -1,0.447715 -1,1 0,0.552285 0.447715,1 1,1 0.353485,0 0.5,1 0.5,1 0,0 0.5,-1.8012 0.5,-2 0,-0.5523 -0.447715,-1 -1,-1 z"
       id="path12"
       class="ColorScheme-Text" />
    <path
       style="color:#d6dbf1;fill:none;fill-opacity:1;stroke:#1e2431;stroke-width:1.60402;stroke-linecap:round;stroke-miterlimit:4;stroke-dasharray:none;stroke-opacity:1;stop-color:#31363b"
       sodipodi:type="arc"
       sodipodi:cx="15.999998"
       sodipodi:cy="-6.0000095"
       sodipodi:rx="11.201572"
       sodipodi:ry="11.201572"
       sodipodi:start="3.7596615"
       sodipodi:end="3.7574109"
       sodipodi:open="true"
       sodipodi:arc-type="arc"
       transform="scale(-1)"
       d="M 6.8707277,-12.490899 A 11.201572,11.201572 0 0 1 22.48575,-15.132931 11.201572,11.201572 0 0 1 25.136567,0.48060271 11.201572,11.201572 0 0 1 9.5245276,3.1402041 11.201572,11.201572 0 0 1 6.8561424,-12.470336"
       id="path7-3"
       class="ColorScheme-Text" />
  </g>
  <g
     id="22-22-kopete"
     transform="translate(32,10)">
    <rect
       style="opacity:0.00100002;fill:#d1d5e9;fill-opacity:1"
       width="22"
       height="22"
       x="0"
       y="0"
       id="rect2" />
    <path
       style="fill:#1e2431;fill-opacity:1;stroke-width:0.727274"
       d="m 11.36363,7 a 3.6363632,3.9999973 0 0 0 -0.720168,0.082389 3.6363632,3.9999973 0 0 1 2.901991,3.91761 3.6363632,3.9999973 0 0 1 -2.916189,3.917607 3.6363632,3.9999973 0 0 0 0.734366,0.08239 A 3.6363632,3.9999973 0 0 0 15,10.999994 3.6363632,3.9999973 0 0 0 11.36363,7 Z M 7.7272719,8.090909 A 0.72727267,0.72727212 0 0 0 7,8.8181814 0.72727267,0.72727212 0 0 0 7.7272719,9.5454529 0.72727267,0.72727212 0 0 0 8.4545452,8.8181814 0.72727267,0.72727212 0 0 0 7.7272719,8.090909 Z m 1.4545462,2.181816 c -0.4029102,0 -0.7272729,0.324363 -0.7272729,0.727273 0,0.402904 0.3243627,0.727273 0.7272729,0.727273 H 11.36363 c 0.402918,0 0.727274,-0.324369 0.727274,-0.727273 0,-0.40291 -0.324356,-0.727273 -0.727274,-0.727273 z M 7.7272719,12.454544 C 7.3255993,12.454544 7,12.780152 7,13.181817 c 0,0.401651 0.3256098,0.727274 0.7272719,0.727274 0.2570806,0 0.3636379,0.727263 0.3636379,0.727263 0,0 0.3636354,-1.309958 0.3636354,-1.454537 0,-0.401673 -0.325611,-0.727273 -0.7272733,-0.727273 z"
       id="path12-3"
       class="ColorScheme-Text" />
    <path
       style="color:#d6dbf1;fill:none;fill-opacity:1;stroke:#1e2431;stroke-width:1.06935;stroke-linecap:round;stroke-miterlimit:4;stroke-dasharray:none;stroke-opacity:1;stop-color:#31363b"
       sodipodi:type="arc"
       sodipodi:cx="-11"
       sodipodi:cy="-10.99999"
       sodipodi:rx="7.4677143"
       sodipodi:ry="7.4677143"
       sodipodi:start="3.7596615"
       sodipodi:end="3.7594297"
       sodipodi:open="true"
       sodipodi:arc-type="arc"
       transform="scale(-1)"
       d="m -17.08618,-15.32725 a 7.4677143,7.4677143 0 0 1 10.4130866,-1.759171 7.4677143,7.4677143 0 0 1 1.7597746,10.4129844 7.4677143,7.4677143 0 0 1 -10.4128822,1.7603781 7.4677143,7.4677143 0 0 1 -1.760982,-10.4127805"
       id="path7-3-6"
       class="ColorScheme-Text" />
  </g>
</svg>
