<?xml version="1.0" encoding="UTF-8" standalone="no"?>
<svg
   inkscape:version="1.2.2 (b0a8486541, 2022-12-01)"
   sodipodi:docname="ktorrent.svg"
   height="32"
   width="32"
   version="1.1"
   id="svg"
   viewBox="0 0 32 32"
   xmlns:inkscape="http://www.inkscape.org/namespaces/inkscape"
   xmlns:sodipodi="http://sodipodi.sourceforge.net/DTD/sodipodi-0.dtd"
   xmlns="http://www.w3.org/2000/svg"
   xmlns:svg="http://www.w3.org/2000/svg"
   xmlns:rdf="http://www.w3.org/1999/02/22-rdf-syntax-ns#"
   xmlns:cc="http://creativecommons.org/ns#"
   xmlns:dc="http://purl.org/dc/elements/1.1/">
  <g
     id="22-ktorrent"
     transform="translate(32,10)"
     style="fill:#1e2431;fill-opacity:1">
    <rect
       style="opacity:0.00100002;fill:#1e2431;fill-opacity:1"
       width="22"
       height="22"
       x="0"
       y="0"
       id="rect2" />
    <path
       class="ColorScheme-Text"
       id="rect4282-5"
       d="M 9,3 C 8.3000381,3 8,3.33332 8,4 V 9 H 9 V 4 h 4 v 5 h 1 V 4 C 14,3.5 13.7,3 13,3 Z M 4.7069962,7.988976 4,8.654416 l 4.2927938,4.040429 0.0084,-0.008 2.7069292,2.54778 2.699089,-2.540448 L 18,8.653739 17.292996,7.988299 13.000217,12.028737 11.000305,13.911091 9.000388,12.028737 Z"
       style="fill:#1e2431;fill-opacity:1;stroke:none;stroke-width:0.970147"
       sodipodi:nodetypes="ccccccccccccccccccccccc" />
    <path
       class="ColorScheme-Text"
       d="M 17.999378,17.117653 C 17.999365,18.157247 14.865495,19.000002 10.99968,19 7.133872,18.999999 4.0000129,18.157245 4,17.117653 c -4.05e-5,-1.039602 3.1338343,-1.882372 6.99968,-1.882373 3.865853,-2e-6 6.999738,0.842769 6.999698,1.882373 z"
       id="path2998-3"
       style="fill:#1e2431;fill-opacity:1;stroke:none;stroke-width:0.961546"
       sodipodi:nodetypes="cscsc" />
  </g>
  <sodipodi:namedview
     inkscape:document-rotation="0"
     inkscape:current-layer="svg"
     inkscape:window-maximized="1"
     inkscape:window-y="0"
     inkscape:window-x="0"
     inkscape:cy="18.925897"
     inkscape:cx="30.51557"
     inkscape:zoom="12.813131"
     showgrid="true"
     id="namedview10"
     inkscape:window-height="994"
     inkscape:window-width="1920"
     inkscape:pageshadow="2"
     inkscape:pageopacity="0"
     guidetolerance="10"
     gridtolerance="10"
     objecttolerance="10"
     borderopacity="1"
     bordercolor="#393eff"
     pagecolor="#000000"
     inkscape:showpageshadow="false"
     inkscape:pagecheckerboard="true"
     inkscape:deskcolor="#000000">
    <inkscape:grid
       type="xygrid"
       id="grid4017" />
  </sodipodi:namedview>
  <defs
     id="defs81">
    <style
       type="text/css"
       id="current-color-scheme" />
  </defs>
  <metadata
     id="metadata34">
    <rdf:RDF>
      <cc:Work
         rdf:about="">
        <dc:format>image/svg+xml</dc:format>
        <dc:type
           rdf:resource="http://purl.org/dc/dcmitype/StillImage" />
      </cc:Work>
    </rdf:RDF>
  </metadata>
  <g
     id="ktorrent">
    <rect
       y="0"
       x="0"
       height="32"
       width="32"
       id="rect3009"
       style="fill:#ffffff;fill-opacity:0;stroke:none;stroke-width:1.45455" />
    <path
       class="ColorScheme-Text"
       id="rect4282"
       d="m 13,4 c -1,0 -2,1 -2,2 v 7 h 2 V 6 h 6 v 7 h 2 V 6 C 21,5 20,4 19,4 Z M 7.0100459,11.483456 6,12.481616 l 6.132821,6.060661 0.01112,-0.01099 3.867217,3.821673 L 19.86718,18.542293 26,12.481632 l -1.010047,-0.99816 -6.132818,6.060662 -2.857147,2.823525 -2.857151,-2.823525 z"
       style="fill:#1e2431;fill-opacity:1;stroke:none;stroke-width:1.42016"
       sodipodi:nodetypes="ccccccccccccccccccccccc" />
    <path
       class="ColorScheme-Text"
       d="M 26,25.176473 A 10.000001,2.8235293 0 0 1 16.000001,28 10.000001,2.8235293 0 0 1 6,25.176473 10.000001,2.8235293 0 0 1 16.000001,22.352939 10.000001,2.8235293 0 0 1 26,25.176473 Z"
       id="path2998"
       style="fill:#1e2431;fill-opacity:1;stroke:none;stroke-width:1.40765" />
  </g>
</svg>
