<?xml version="1.0" encoding="UTF-8" standalone="no"?>
<svg
   version="1.1"
   viewBox="0 0 32 16"
   id="svg11"
   sodipodi:docname="mobile.svg"
   inkscape:version="1.2.2 (b0a8486541, 2022-12-01)"
   xmlns:inkscape="http://www.inkscape.org/namespaces/inkscape"
   xmlns:sodipodi="http://sodipodi.sourceforge.net/DTD/sodipodi-0.dtd"
   xmlns="http://www.w3.org/2000/svg"
   xmlns:svg="http://www.w3.org/2000/svg">
  <sodipodi:namedview
     id="namedview13"
     pagecolor="#000000"
     bordercolor="#1e30ff"
     borderopacity="1"
     inkscape:showpageshadow="false"
     inkscape:pageopacity="0"
     inkscape:pagecheckerboard="true"
     inkscape:deskcolor="#000000"
     showgrid="true"
     inkscape:lockguides="false"
     inkscape:zoom="14.75"
     inkscape:cx="13.559322"
     inkscape:cy="7.2881356"
     inkscape:window-width="1920"
     inkscape:window-height="994"
     inkscape:window-x="0"
     inkscape:window-y="0"
     inkscape:window-maximized="1"
     inkscape:current-layer="svg11">
    <inkscape:grid
       type="xygrid"
       id="grid1432" />
  </sodipodi:namedview>
  <defs
     id="defs3">
    <style
       id="current-color-scheme"
       type="text/css">.ColorScheme-Text { color:#d1d5e9; }
</style>
  </defs>
  <g
     id="mobile-task-switcher"
     transform="matrix(3.7803186 0 0 3.7803186 -.00289876 -.00254929)"
     style="fill:#1e2431;fill-opacity:1">
    <path
       class="ColorScheme-Text"
       d="m 1.0815353,0.5297303 c -0.30537362,0 -0.55171256,0.24575557 -0.55171256,0.5511292 v 2.0727416 c 0,0.3053733 0.24633894,0.5504648 0.55171256,0.5504648 h 2.0727416 c 0.3053734,0 0.551313,-0.2450916 0.5511292,-0.5504648 L 3.7041584,1.0808595 C 3.7039745,0.77548593 3.4596503,0.5297303 3.1542769,0.5297303 Z m 0.2418713,0.5290559 h 1.5871679 c 0.1571218,0 0.2645279,0.1074063 0.2645279,0.264528 V 2.910482 c 0,0.1571218 -0.1074061,0.264528 -0.2645279,0.264528 H 1.3234066 c -0.1571215,0 -0.2645279,-0.1074062 -0.2645279,-0.264528 V 1.3233142 c 0,-0.1571217 0.1074068,-0.264528 0.2645279,-0.264528 z"
       stroke-opacity="0"
       stroke-width="0.132292"
       id="path5"
       style="fill:#1e2431;fill-opacity:1"
       sodipodi:nodetypes="ssssssssssssssssss" />
  </g>
  <g
     id="mobile-close-app"
     style="fill:#1e2431;fill-opacity:1">
    <path
       d="m 24.000038,9.6185045 4.046182,4.0462795 c 0.446963,0.44695 1.171677,0.44695 1.618599,0 0.446979,-0.44695 0.446979,-1.171549 0,-1.6185 l -4.046315,-4.0462755 4.04632,-4.04628 c 0.446984,-0.446946 0.446984,-1.171572 0,-1.618514 -0.446927,-0.446946 -1.171633,-0.446946 -1.6186,0 l -4.046186,4.046286 -4.046316,-4.046291 c -0.446943,-0.446946 -1.171592,-0.446946 -1.618512,0 -0.446947,0.44694 -0.446947,1.171569 0,1.618512 l 4.046286,4.046287 -4.046282,4.0462785 c -0.446946,0.446951 -0.446946,1.17155 0,1.6185 0.446923,0.446951 1.171566,0.446951 1.618514,0 z"
       style="fill:#1e2431;fill-opacity:1;fill-rule:evenodd;stroke:none;stroke-width:0.76293"
       id="path2830" />
  </g>
</svg>
