<?xml version="1.0" encoding="UTF-8" standalone="no"?>
<svg
   width="64"
   height="64"
   viewBox="0 0 64.000001 64.000001"
   id="svg4312"
   version="1.1"
   inkscape:version="1.1.1 (3bf5ae0d25, 2021-09-20)"
   sodipodi:docname="osd.svg"
   xmlns:inkscape="http://www.inkscape.org/namespaces/inkscape"
   xmlns:sodipodi="http://sodipodi.sourceforge.net/DTD/sodipodi-0.dtd"
   xmlns="http://www.w3.org/2000/svg"
   xmlns:svg="http://www.w3.org/2000/svg"
   xmlns:rdf="http://www.w3.org/1999/02/22-rdf-syntax-ns#"
   xmlns:cc="http://creativecommons.org/ns#"
   xmlns:dc="http://purl.org/dc/elements/1.1/">
  <defs
     id="defs4314">
    <style
       id="current-color-scheme"
       type="text/css" />
  </defs>
  <sodipodi:namedview
     id="base"
     pagecolor="#ffffff"
     bordercolor="#000000"
     borderopacity="1"
     inkscape:pageopacity="0"
     inkscape:pageshadow="2"
     inkscape:zoom="0.7"
     inkscape:cx="-131.42857"
     inkscape:cy="175.71429"
     inkscape:document-units="px"
     inkscape:current-layer="layer1"
     showgrid="false"
     inkscape:window-width="1920"
     inkscape:window-height="1006"
     inkscape:window-x="0"
     inkscape:window-y="0"
     inkscape:window-maximized="1"
     units="px"
     inkscape:snap-page="true"
     inkscape:snap-bbox="true"
     inkscape:bbox-nodes="true"
     inkscape:document-rotation="0"
     inkscape:pagecheckerboard="0"
     inkscape:showpageshadow="false"
     inkscape:lockguides="false">
    <inkscape:grid
       type="xygrid"
       id="grid965"
       originx="-271.99999"
       originy="385.00004" />
  </sodipodi:namedview>
  <metadata
     id="metadata4317">
    <rdf:RDF>
      <cc:Work
         rdf:about="">
        <dc:format>image/svg+xml</dc:format>
        <dc:type
           rdf:resource="http://purl.org/dc/dcmitype/StillImage" />
      </cc:Work>
    </rdf:RDF>
  </metadata>
  <g
     inkscape:label="Layer 1"
     inkscape:groupmode="layer"
     id="layer1"
     transform="translate(-271.99999,-603.36213)">
    <g
       style="fill:none"
       id="32-32-osd-duplicate"
       transform="translate(383.99999,507.36213)">
      <rect
         id="rect4200"
         height="32"
         width="32"
         x="0"
         y="0"
         style="fill:none" />
      <path
         style="color:#7b7c7e;fill:#232627;fill-opacity:1;stroke:none"
         d="m 125,36 v 9 h 1 v -8 h 15 v 12 h -9 v 1 h 10 V 36 Z m -11,10 v 14 h 17 V 46 Z m 1,1 h 15 v 12 h -15 z"
         transform="translate(-112,-32)"
         id="path4202"
         inkscape:connector-curvature="0"
         class="ColorScheme-Text" />
      <path
         style="color:#3daee6;fill:#489ab1;fill-opacity:1;stroke:none"
         d="m 128,39 v 6 h 1 v -3 h 9 v 4 h -6 v 1 h 7 v -8 z m 7,1 h 1 v 1 h -1 z m 2,0 h 1 v 1 h -1 z m -20,9 v 8 h 11 v -8 z m 7,1 h 1 v 1 h -1 z m 2,0 h 1 v 1 h -1 z m -8,2 h 9 v 4 h -9 z"
         transform="translate(-112,-32)"
         id="path4212"
         inkscape:connector-curvature="0"
         class="ColorScheme-Highlight" />
    </g>
    <g
       style="fill:none"
       id="48-48-osd-duplicate"
       transform="translate(335.99999,491.36213)"
       inkscape:label="#48-48-osd-duplicate">
      <rect
         id="rect4234"
         height="48"
         width="48"
         x="0"
         y="0"
         style="fill:none" />
      <path
         style="color:#7b7c7e;fill:#232627;fill-opacity:1;stroke:none"
         d="m 80,21 v 14 h 1 V 22.001953 l 28,-0.002 v 16 H 97 v 1 5 1 h 1 4 v -1 h -4 v -5 h 12 v -18 H 80 Z M 66,36 v 18 h 12 v 5 h -4 v 1 h 9 1 4 V 59 H 84 V 54 H 96 V 36 Z m 29,1 V 53 H 82 81 67 V 37.001953 Z M 79,54 h 4 v 5 h -4 z"
         transform="translate(-64,-16)"
         id="path4238"
         inkscape:connector-curvature="0"
         class="ColorScheme-Text" />
      <path
         style="color:#3daee6;fill:#489ab1;fill-opacity:1;fill-rule:evenodd;stroke:none"
         d="m 87,24 v 11 h 1 v -6 h 2 v 6 h 1 v -6 h 11 v 6 h -5 v 1 h 6 V 24 Z m 10,1 h 1 v 1 h -1 z m 2,0 h 1 v 1 h -1 z m 2,0 h 1 v 1 h -1 z m -13,2 h 14 v 1 H 88 Z M 73,39 V 51 H 89 V 39 Z m 10,1 h 1 v 1 h -1 z m 2,0 h 1 v 1 h -1 z m 2,0 h 1 v 1 h -1 z m -13,2 h 14 v 1 H 74 Z m 0,2 h 2 v 6 h -2 z m 3,0 h 11 v 6 H 77 Z"
         transform="translate(-64,-16)"
         id="path4244"
         inkscape:connector-curvature="0"
         class="ColorScheme-Highlight" />
    </g>
    <g
       transform="translate(271.99999,475.36213)"
       style="fill:none"
       id="osd-duplicate"
       inkscape:label="#64-64osd-duplicate">
      <rect
         id="rect4268"
         height="64"
         width="64"
         x="0"
         y="0"
         style="fill:none" />
      <path
         style="color:#7b7c7e;fill:#232627;fill-opacity:1;stroke:none"
         d="m 26,11 v 14 h 1 V 12.001953 l 32,-0.002 v 18 H 39 v 1 h 20 v 1 H 46 45 39 v 1 h 1 v 4 h -1 v 1 h 6 1 4 v -1 h -4 v -4 h 14 v -22 H 26 Z M 4,26 v 22 h 14 v 4 h -4 v 1 h 9 1 4 V 52 H 24 V 48 H 38 V 26 Z m 33,1 V 45 H 5 V 27.001953 Z m 4,6 h 4 v 4 H 41 Z M 5,46 h 32 v 1 H 24 23 5 Z m 14,2 h 4 v 4 h -4 z"
         id="path4270"
         inkscape:connector-curvature="0"
         class="ColorScheme-Text" />
      <path
         style="color:#3daee6;fill:#489ab1;fill-opacity:1;fill-rule:evenodd;stroke:none"
         d="m 35,15 v 10 h 1 v -5 h 2 v 5 h 1 v -5 h 11 v 6 H 39 v 1 H 51 V 15 Z m 10,1 h 1 v 1 h -1 z m 2,0 h 1 v 1 h -1 z m 2,0 h 1 v 1 h -1 z m -13,2 h 14 v 1 H 36 Z M 13,30 V 42 H 29 V 30 Z m 10,1 h 1 v 1 h -1 z m 2,0 h 1 v 1 h -1 z m 2,0 h 1 v 1 h -1 z m -13,2 h 14 v 1 H 14 Z m 0,2 h 2 v 6 h -2 z m 3,0 h 11 v 6 H 17 Z"
         id="path4280"
         inkscape:connector-curvature="0"
         class="ColorScheme-Highlight" />
    </g>
    <g
       transform="translate(415.99999,517.36213)"
       id="128-128-osd-duplicate"
       inkscape:label="#128-128osd-duplicate">
      <rect
         style="fill:none"
         y="-106"
         x="-272"
         width="128"
         height="128"
         id="rect4302" />
      <path
         class="ColorScheme-Text"
         inkscape:connector-curvature="0"
         id="path4306"
         d="m -221,-85 v 33 h 1 v -32 h 68 v 41 h -41 v 1 h 2 v 8 h -2 v 1 h 20 v -1 h -8 v -8 h 30 v -42.998047 l -70,-0.002 z m 2,2 v 31 h 1 v -30 h 64 v 36 h -39 v 1 h 40 v -38 z m -46,33 v 43 h 30 v 8 h -8 v 1 h 26 V 1 h -8 v -8 h 30 v -42.998047 l -70,-0.002 z m 1,1 h 68 v 41 h -68 z m 1,1 v 38 h 66 v -38 z m 1,1 h 64 v 36 h -64 z m 72,5 h 8 v 8 h -8 z m -44,35 h 8 v 8 h -8 z"
         style="color:#7b7c7e;fill:#232627;fill-opacity:1;stroke:none" />
      <path
         class="ColorScheme-Highlight"
         inkscape:connector-curvature="0"
         id="path4316"
         d="m -202,-76 v 24 h 32 v -24 z m 21,2 c 0.5523,0 1,0.4477 1,1 0,0.5522 -0.4477,1 -1,1 -0.5523,0 -1,-0.4478 -1,-1 0,-0.5523 0.4477,-1 1,-1 z m 4,0 c 0.5523,0 1,0.4477 1,1 0,0.5522 -0.4477,1 -1,1 -0.5523,0 -1,-0.4478 -1,-1 0,-0.5523 0.4477,-1 1,-1 z m 4,0 c 0.5523,0 1,0.4477 1,1 0,0.5522 -0.4477,1 -1,1 -0.5523,0 -1,-0.4478 -1,-1 0,-0.5523 0.4477,-1 1,-1 z m -28,4 h 30 v 1 h -30 z m 0,2 h 4 v 15 h -4 z m 5,0 h 25 v 15 h -25 z m -50,27 v 24 h 32 v -24 z m 21,2 c 0.5523,0 1,0.4477 1,1 0,0.5522 -0.4477,1 -1,1 -0.5523,0 -1,-0.4478 -1,-1 0,-0.5523 0.4477,-1 1,-1 z m 4,0 c 0.5523,0 1,0.4477 1,1 0,0.5522 -0.4477,1 -1,1 -0.5523,0 -1,-0.4478 -1,-1 0,-0.5523 0.4477,-1 1,-1 z m 4,0 c 0.5523,0 1,0.4477 1,1 0,0.5522 -0.4477,1 -1,1 -0.5523,0 -1,-0.4478 -1,-1 0,-0.5523 0.4477,-1 1,-1 z m -28,4 h 30 v 1 h -30 z m 0,2 h 4 v 15 h -4 z m 5,0 h 25 v 15 h -25 z"
         style="color:#3daee6;fill:#489ab1;fill-opacity:1;fill-rule:evenodd;stroke:none" />
    </g>
    <g
       style="fill:none"
       id="32-32-osd-rotate-ccw"
       transform="translate(383.99999,635.36217)"
       inkscape:label="#32-32-osd-rotate-ccw">
      <rect
         id="rect4196"
         height="32"
         width="32"
         x="0"
         y="0"
         style="fill:none" />
      <path
         id="path4200"
         d="M 2,21.9999 V 4 l 28,3e-5 V 22 L 19,21.9999 V 27 h 4 v 1 H 9 v -1 h 4 v -5.0001 z m 16,0 H 14 V 27 h 4 z M 29,4.99997 H 2.99998 V 21 H 29 Z"
         inkscape:connector-curvature="0"
         style="color:#7b7c7e;fill:#232627;fill-opacity:1;stroke:none"
         class="ColorScheme-Text" />
      <path
         style="color:#3daee6;fill:#489ab1;fill-opacity:1;fill-rule:evenodd;stroke:none"
         d="m 121,39 v 4 2 h 1 1 1 3 v -2 h -2.44531 c 0.69291,-1.190604 1.96851,-2 3.44531,-2 2.2091,0 4,1.7909 4,4 0,2.2091 -1.7909,4 -4,4 v 2 c 3.3137,0 6,-2.6863 6,-6 0,-3.31371 -2.6863,-6 -6,-6 -2.08828,0 -3.92536,1.067135 -5,2.685547 V 39 Z"
         transform="translate(-112,-32.00004)"
         id="path4204"
         inkscape:connector-curvature="0"
         class="ColorScheme-Highlight" />
    </g>
    <g
       style="fill:none"
       id="48-48-osd-rotate-ccw"
       transform="translate(335.99999,619.36217)">
      <rect
         id="rect4224"
         height="48"
         width="48"
         x="0"
         y="0"
         style="fill:none" />
      <path
         style="color:#7b7c7e;fill:#232627;fill-opacity:1;stroke:none"
         d="m 66,23 v 28 h 18 v 5 h -3 v 1 h 14 v -1 h -3 v -5 h 18 V 23 Z m 43,1 V 50 H 67 V 24.001953 Z m -41,1 v 24 h 40 V 25 Z m 1,1 h 38 V 48 H 69 Z m 16,25 h 6 v 5 h -6 z"
         transform="translate(-64,-16.00004)"
         id="path4228"
         inkscape:connector-curvature="0"
         class="ColorScheme-Text" />
      <path
         id="path4234"
         d="m 16,21 h -1 v -2 -5 h 2 v 3.124 C 18.3647,14.6646 20.988,13 24,13 c 4.4183,0 8,3.5817 8,8 0,4.4183 -3.5817,8 -8,8 v -2 c 3.3137,0 6,-2.6863 6,-6 0,-3.3137 -2.6863,-6 -6,-6 -2.6124,0 -4.8349,1.6696 -5.6586,4 H 22 v 2 h -4 z"
         inkscape:connector-curvature="0"
         style="color:#3daee6;fill:#489ab1;fill-opacity:1;fill-rule:evenodd;stroke:none"
         class="ColorScheme-Highlight" />
    </g>
    <g
       transform="translate(271.99999,603.36213)"
       style="fill:none"
       id="osd-rotate-ccw">
      <rect
         id="rect4252"
         height="64"
         width="64"
         x="0"
         y="0"
         style="fill:none" />
      <path
         id="path4256"
         d="M 59,11 H 5 V 45 H 59 Z M 5,10 H 4 v 1 34 1 h 1 23 v 7 h -7 v 1 h 7 1 6 1 7 v -1 h -7 v -7 h 23 1 V 45 11 10 h -1 z m 24,43 v -7 h 6 v 7 z M 7,13 H 57 V 42 H 7 Z M 6,12 h 1 50 1 v 1 29 1 H 57 7 6 V 42 13 Z"
         inkscape:connector-curvature="0"
         style="color:#7b7c7e;fill:#232627;fill-opacity:1;fill-rule:evenodd;stroke:none"
         class="ColorScheme-Text" />
      <path
         style="color:#3daee6;fill:#489ab1;fill-opacity:1;stroke:none"
         d="m 22.345703,19 c -2.14906,2.309183 -3.345589,5.345513 -3.349609,8.5 0.005,1.315418 0.216886,2.621859 0.628906,3.871094 L 15.996094,35 c 0,0 6.152562,1 9.351562,1 L 23.498047,34.273438 C 21.889537,32.382402 21.003104,29.982594 20.996094,27.5 c 0.005,-3.368228 1.625682,-6.529563 4.357422,-8.5 z m 15.298828,0 1.84961,1.726562 c 1.60851,1.891036 2.494943,4.290844 2.501953,6.773438 -0.005,3.368228 -1.625692,6.529563 -4.357422,8.5 h 3.007812 c 2.14907,-2.309183 3.3456,-5.345513 3.34961,-8.5 -0.005,-1.315418 -0.216897,-2.621859 -0.628906,-3.871094 L 46.996094,20 c 0,0 -6.152573,-1 -9.351563,-1 z m -7.917969,1.431641 -3.941406,10.269531 7.46875,2.867187 3.941406,-10.269531 z m 0.574219,1.292968 0.933594,0.357422 -0.357422,0.933594 -0.931641,-0.359375 z m 1.869141,0.714844 3.734375,1.435547 -3.224609,8.400391 -3.736329,-1.431641 z m -2.583984,1.152344 0.93164,0.357422 -0.357422,0.933593 -0.933594,-0.357421 z"
         id="path4264"
         class="ColorScheme-Highlight"
         inkscape:connector-curvature="0" />
    </g>
    <g
       style="fill:none"
       id="128-128-osd-rotate-ccw"
       transform="translate(143.99999,539.36213)">
      <rect
         id="rect4286"
         height="128"
         width="128"
         x="0"
         y="0"
         style="fill:none" />
      <path
         style="color:#7b7c7e;fill:#232627;fill-opacity:1;stroke:none"
         d="m -121,-44 c -1.65686,0 -3,1.3431 -3,3 v 66 c 0,1.6569 1.34314,3 3,3 h 49 v 13 h -13 c -0.5523,0 -1,0.448 -1,1 v 1 c 0,0.552 0.4477,1 1,1 h 42 c 0.5523,0 1,-0.448 1,-1 v -1 c 0,-0.552 -0.4477,-1 -1,-1 H -56 V 28 h 49 c 1.657,0 3,-1.3431 3,-3 v -66 c 0,-1.6569 -1.343,-3 -3,-3 z m 0,1 H -7 c 1.105,0 2,0.8954 2,2 v 66 c 0,1.1046 -0.895,2 -2,2 h -114 c -1.10458,0 -2,-0.8954 -2,-2 v -66 c 0,-1.1046 0.89542,-2 2,-2 z m 0,2 V 23 H -7 v -64 z m 1,1 H -8 v 62 h -112 z m 49,68 h 14 v 13 h -14 z m -14,14 h 42 v 1 h -42 z"
         transform="translate(128,64)"
         id="path4290"
         inkscape:connector-curvature="0"
         class="ColorScheme-Text" />
      <path
         style="color:#3daee6;fill:#489ab1;fill-opacity:1;fill-rule:evenodd;stroke:none"
         d="M -80.955078,-33 C -88.496688,-27.770543 -92.9969,-19.177315 -93,-10 c 0.0199,6.803851 2.516608,13.3676588 7.023438,18.4648438 C -87.134942,10.714671 -89,13 -89,13 h 11.914062 C -85.634868,8.511691 -90.99249,-0.344476 -91,-10 c 0.006,-9.653829 5.36034,-18.509578 13.90625,-23 z m 28.041016,0 c 8.54893,4.488309 13.906552,13.344476 13.914062,23 -0.006,9.653829 -5.36034,18.509578 -13.90625,23 h 3.861328 C -41.503312,7.770543 -37.0031,-0.822685 -37,-10 -37.0199,-16.803851 -39.516608,-23.367659 -44.023438,-28.464844 -42.865058,-30.714671 -41,-33 -41,-33 Z M -70.46875,-29.238281 -81.9375,0.63671875 -59.53125,9.2382812 -48.0625,-20.636719 Z m 1.691406,2.876953 c 0.129751,-0.0045 0.263674,0.01497 0.392578,0.06445 0.515617,0.197925 0.772181,0.777489 0.574219,1.292969 -0.197925,0.515617 -0.775484,0.772094 -1.291015,0.574218 -0.515617,-0.197924 -0.774097,-0.775398 -0.576172,-1.291015 0.148443,-0.386713 0.511139,-0.627263 0.90039,-0.640625 z m 3.550782,0.207031 0.933593,0.359375 -10.75,28.0078126 -0.933593,-0.359375 z m 1.867187,0.716797 14.003906,5.376953 -8.958984,23.3398439 -14.003906,-5.3769531 z m -6.851563,2.810547 c 0.129913,-0.0044 0.263674,0.01693 0.392579,0.06641 0.515531,0.197875 0.774097,0.775399 0.576171,1.291016 -0.197924,0.515617 -0.777351,0.772144 -1.292968,0.574219 -0.515617,-0.197925 -0.774098,-0.775399 -0.576172,-1.291016 0.148406,-0.386648 0.510652,-0.627517 0.90039,-0.640625 z m -1.433593,3.734375 c 0.129659,-0.0043 0.263674,0.01693 0.392578,0.06641 0.51553,0.197876 0.774097,0.775399 0.576172,1.291016 -0.197975,0.515704 -0.777439,0.772093 -1.292969,0.574218 -0.515617,-0.197926 -0.772145,-0.775398 -0.574219,-1.291015 0.148444,-0.386713 0.509461,-0.627738 0.898438,-0.640625 z m -1.033203,17.7285155 14.005859,5.3769531 -1.433594,3.7324219 -14.003906,-5.375 z"
         transform="translate(128,64)"
         id="path4300"
         class="ColorScheme-Highlight"
         inkscape:connector-curvature="0" />
    </g>
    <g
       style="fill:none"
       id="32-32-osd-rotate-cw"
       transform="translate(383.99999,763.36217)">
      <rect
         id="rect4196-3"
         height="32"
         width="32"
         x="0"
         y="0"
         style="fill:none" />
      <path
         id="path4200-6"
         d="M 2,21.9999 V 4 l 28,3e-5 V 22 L 19,21.9999 V 27 h 4 v 1 H 9 v -1 h 4 v -5.0001 z m 16,0 H 14 V 27 h 4 z M 29,4.99997 H 2.99998 V 21 H 29 Z"
         inkscape:connector-curvature="0"
         style="color:#7b7c7e;fill:#232627;fill-opacity:1;fill-rule:evenodd;stroke:none"
         class="ColorScheme-Text" />
      <path
         style="color:#3daee6;fill:#489ab1;fill-opacity:1;fill-rule:evenodd;stroke:none"
         d="m 128,39 c -3.3137,0 -6,2.68629 -6,6 0,3.3137 2.6863,6 6,6 v -2 c -2.2091,0 -4,-1.7909 -4,-4 0,-2.2091 1.7909,-4 4,-4 1.4768,0 2.7524,0.809396 3.44531,2 H 129 v 2 h 3 1 1 1 v -2 -4 h -2 v 2.685547 C 131.92536,40.067135 130.08828,39 128,39 Z"
         transform="translate(-112,-32.00004)"
         id="path4204-7"
         inkscape:connector-curvature="0"
         class="ColorScheme-Highlight" />
    </g>
    <g
       style="fill:none"
       id="48-48-osd-rotate-cw"
       transform="translate(335.99999,747.36217)">
      <rect
         id="rect4224-5"
         height="48"
         width="48"
         x="0"
         y="0"
         style="fill:none" />
      <path
         style="color:#7b7c7e;fill:#232627;fill-opacity:1;stroke:none"
         d="m 66,23 v 28 h 18 v 5 h -3 v 1 h 14 v -1 h -3 v -5 h 18 V 23 Z m 43,1 V 50 H 67 V 24.001953 Z m -41,1 v 24 h 40 V 25 Z m 1,1 h 38 V 48 H 69 Z m 16,25 h 6 v 5 h -6 z"
         transform="translate(-64,-16.00004)"
         id="path4228-3"
         inkscape:connector-curvature="0"
         class="ColorScheme-Text" />
      <path
         id="path4234-5"
         d="m 32,21 h 1 v -2 -5 h -2 v 3.124 C 29.6353,14.6646 27.012,13 24,13 c -4.4183,0 -8,3.5817 -8,8 0,4.4183 3.5817,8 8,8 v -2 c -3.3137,0 -6,-2.6863 -6,-6 0,-3.3137 2.6863,-6 6,-6 2.6124,0 4.8349,1.6696 5.6586,4 H 26 v 2 h 4 z"
         inkscape:connector-curvature="0"
         style="color:#3daee6;fill:#489ab1;fill-opacity:1;fill-rule:evenodd;stroke:none"
         class="ColorScheme-Highlight" />
    </g>
    <g
       transform="translate(271.99999,731.36213)"
       style="fill:none"
       id="64-64osd-rotate-cw"
       inkscape:label="#osd-rotate-cw">
      <rect
         id="rect4252-6"
         height="64"
         width="64"
         x="0"
         y="0"
         style="fill:none" />
      <path
         id="path4256-2"
         d="M 59,11 H 5 V 45 H 59 Z M 5,10 H 4 v 1 34 1 h 1 23 v 7 h -7 v 1 h 7 1 6 1 7 v -1 h -7 v -7 h 23 1 V 45 11 10 h -1 z m 24,43 v -7 h 6 v 7 z M 7,13 H 57 V 42 H 7 Z M 6,12 h 1 50 1 v 1 29 1 H 57 7 6 V 42 13 Z"
         inkscape:connector-curvature="0"
         style="color:#7b7c7e;fill:#232627;fill-opacity:1;fill-rule:evenodd;stroke:none"
         class="ColorScheme-Text" />
      <path
         style="color:#3daee6;fill:#489ab1;fill-opacity:1;stroke:none"
         d="m 25.347656,19 c -3.19899,0 -9.351562,1 -9.351562,1 L 19.625,23.628906 c -0.41202,1.249235 -0.623906,2.555676 -0.628906,3.871094 0.004,3.154487 1.200539,6.190817 3.349609,8.5 h 3.007813 c -2.73173,-1.970437 -4.352422,-5.131772 -4.357422,-8.5 0.007,-2.482594 0.89149,-4.882402 2.5,-6.773438 z m 12.291016,0 c 2.73173,1.970437 4.352422,5.131772 4.357422,8.5 -0.007,2.482594 -0.893443,4.882402 -2.501953,6.773438 L 37.644531,36 c 3.19899,0 9.351563,-1 9.351563,-1 l -3.63086,-3.628906 c 0.41202,-1.249235 0.62586,-2.555676 0.63086,-3.871094 -0.004,-3.154487 -1.20054,-6.190817 -3.34961,-8.5 z m -4.375,1.431641 -7.46875,2.867187 3.941406,10.269531 7.46875,-2.867187 z m -2.44336,2.007812 3.226563,8.404297 -3.736328,1.431641 L 27.085938,23.875 Z m 4.017579,4.886719 0.359375,0.933594 -0.935547,0.357422 -0.357422,-0.933594 z m 0.716797,1.865234 0.359374,0.933594 -0.933593,0.359375 -0.359375,-0.933594 z"
         id="path4264-9"
         class="ColorScheme-Highlight"
         inkscape:connector-curvature="0" />
    </g>
    <g
       style="fill:none"
       id="128-128-osd-rotate-cw"
       transform="translate(143.99999,667.36213)">
      <rect
         id="rect4288"
         height="129"
         width="128"
         x="0"
         y="0"
         style="fill:none" />
      <path
         style="color:#3daee6;fill:#489ab1;fill-opacity:1;fill-rule:evenodd;stroke:none"
         d="m -89,-34 c 0,0 1.865058,2.285346 3.023438,4.535156 C -90.483392,-24.367654 -92.9801,-17.80381 -93,-11 c 0.0031,9.1774 4.503312,17.77054 12.044922,23 h 3.861328 C -85.63966,7.50957 -90.994,-1.3461 -91,-11 c 0.0075,-9.6555 5.365133,-18.51166 13.914062,-23 z m 36.09375,0 c 8.54591,4.49054 13.90025,13.34619 13.90625,23 -0.0075,9.6556 -5.365133,18.5117 -13.914062,23 H -41 c 0,0 -1.865057,-2.2853263 -3.023438,-4.5351562 C -39.516607,2.3676737 -37.0199,-4.1961 -37,-11 c -0.0031,-9.1773 -4.503312,-17.77046 -12.044922,-23 z m -6.625,3.761719 -22.40625,8.601562 11.46875,29.8750002 22.40625,-8.60156245 z m -5.242188,3.083984 10.75,28.00781262 -0.933593,0.35937498 -10.75,-28.0078126 z m -1.867187,0.716797 1.433594,3.734375 -14.00586,5.375 -1.43164,-3.732422 z m 1.791016,4.667969 8.958984,23.3398435 -14.003906,5.375 -8.958985,-23.3378905 z m 10.076171,11.21289 c 0.388977,0.01289 0.751948,0.253916 0.900391,0.6406254 0.197926,0.515617 -0.0586,1.0930906 -0.574219,1.2910156 -0.515616,0.197926 -1.095042,-0.058602 -1.292968,-0.5742188 -0.197926,-0.515616 0.06056,-1.0930892 0.576172,-1.2910152 0.128904,-0.04948 0.260966,-0.0707 0.390624,-0.06641 z m 1.433594,3.7324222 c 0.389251,0.013363 0.751946,0.2558677 0.900391,0.6425782 0.197875,0.51553 -0.05851,1.0949937 -0.574219,1.2929687 -0.51553,0.197875 -1.093091,-0.060559 -1.291016,-0.5761719 -0.197924,-0.5156169 0.05869,-1.0950937 0.574219,-1.2929687 0.128904,-0.049481 0.260875,-0.070861 0.390625,-0.066406 z m 1.433594,3.7363282 c 0.389727,0.013088 0.751947,0.2539115 0.900391,0.640625 0.197926,0.515617 -0.0586,1.0950427 -0.574219,1.2929687 -0.51548,0.19796102 -1.095045,-0.060555 -1.292969,-0.5761719 -0.197926,-0.515618 0.06056,-1.0950427 0.576172,-1.2929687 0.128904,-0.049481 0.260716,-0.068816 0.390625,-0.064453 z"
         transform="translate(128,64)"
         id="path4302"
         class="ColorScheme-Highlight"
         inkscape:connector-curvature="0" />
      <path
         style="color:#7b7c7e;fill:#232627;fill-opacity:1;stroke:none"
         d="m -121,-44 c -1.65686,0 -3,1.3431 -3,3 v 66 c 0,1.6569 1.34314,3 3,3 h 49 v 13 h -13 c -0.5523,0 -1,0.448 -1,1 v 1 c 0,0.552 0.4477,1 1,1 h 42 c 0.5523,0 1,-0.448 1,-1 v -1 c 0,-0.552 -0.4477,-1 -1,-1 H -56 V 28 h 49 c 1.657,0 3,-1.3431 3,-3 v -66 c 0,-1.6569 -1.343,-3 -3,-3 z m 0,1 H -7 c 1.105,0 2,0.8954 2,2 v 66 c 0,1.1046 -0.895,2 -2,2 h -114 c -1.10458,0 -2,-0.8954 -2,-2 v -66 c 0,-1.1046 0.89542,-2 2,-2 z m 0,2 V 23 H -7 v -64 z m 1,1 H -8 v 62 h -112 z m 49,68 h 14 v 13 h -14 z m -14,14 h 42 v 1 h -42 z"
         transform="translate(128,64)"
         id="path4292"
         inkscape:connector-curvature="0"
         class="ColorScheme-Text" />
    </g>
    <g
       style="fill:none"
       id="32-32-osd-rotate-flip"
       transform="translate(383.99999,891.36216)">
      <rect
         id="rect4196-1"
         height="32"
         width="32"
         x="0"
         y="0"
         style="fill:none" />
      <path
         id="path4200-2"
         d="M 2,21.9999 V 4 l 28,3e-5 V 22 L 19,21.9999 V 27 h 4 v 1 H 9 v -1 h 4 v -5.0001 z m 16,0 H 14 V 27 h 4 z M 29,4.99997 H 2.99998 V 21 H 29 Z"
         inkscape:connector-curvature="0"
         style="color:#7b7c7e;fill:#232627;fill-opacity:1;fill-rule:evenodd;stroke:none"
         class="ColorScheme-Text" />
      <path
         id="path4204-70"
         d="m 16,7 -4,4.0001 h 3 V 15 h -3 l 4,4 4,-4 h -3 v -3.9999 h 3 z"
         inkscape:connector-curvature="0"
         style="color:#3daee6;fill:#489ab1;fill-opacity:1;stroke:none"
         class="ColorScheme-Highlight" />
    </g>
    <g
       style="fill:none"
       id="48-48-osd-rotate-flip"
       transform="translate(335.99999,875.36217)">
      <rect
         id="rect4221"
         height="48"
         width="48"
         x="0"
         y="0"
         style="fill:none" />
      <path
         style="color:#7b7c7e;fill:#232627;fill-opacity:1;fill-rule:evenodd;stroke:none"
         d="m 66,23 v 28 h 18 v 5 h -3 v 1 h 14 v -1 h -3 v -5 h 18 V 23 Z m 43,1 V 50 H 67 V 24.001953 Z m -41,1 v 24 h 40 V 25 Z m 1,1 h 38 V 48 H 69 Z m 16,25 h 6 v 5 h -6 z"
         transform="translate(-64,-16.00004)"
         id="path4225"
         inkscape:connector-curvature="0"
         class="ColorScheme-Text" />
      <path
         id="path4231"
         d="M 24,13.0001 20,18 h 3 v 6 h -3 l 4,5 4,-5 h -3 v -6 h 3 z"
         inkscape:connector-curvature="0"
         style="color:#3daee6;fill:#489ab1;fill-opacity:1;stroke:none"
         class="ColorScheme-Highlight" />
    </g>
    <g
       transform="translate(271.99999,859.36213)"
       style="fill:none"
       id="osd-rotate-flip"
       inkscape:label="#osd-rotate-flip">
      <rect
         id="rect4249"
         height="64"
         width="64"
         x="0"
         y="0"
         style="fill:none" />
      <path
         id="path4253"
         d="M 59,11 H 5 V 45 H 59 Z M 5,10 H 4 v 1 34 1 h 1 23 v 7 h -7 v 1 h 7 1 6 1 7 v -1 h -7 v -7 h 23 1 V 45 11 10 h -1 z m 24,43 v -7 h 6 v 7 z M 7,13 H 57 V 42 H 7 Z M 6,12 h 1 50 1 v 1 29 1 H 57 7 6 V 42 13 Z"
         inkscape:connector-curvature="0"
         style="color:#7b7c7e;fill:#232627;fill-opacity:1;fill-rule:evenodd;stroke:none"
         class="ColorScheme-Text" />
      <path
         id="path4257"
         d="m 32,15 -4,7 h 3 v 11 h -3 l 4,7 4,-7 H 33 V 22 h 3 z"
         inkscape:connector-curvature="0"
         style="color:#3daee6;fill:#489ab1;fill-opacity:1;stroke:none"
         class="ColorScheme-Highlight" />
    </g>
    <g
       style="fill:none"
       id="128-128-osd-rotate-flip"
       transform="translate(143.99999,795.36213)">
      <rect
         id="rect4274"
         height="128"
         width="128"
         x="0"
         y="0"
         style="fill:none" />
      <path
         style="color:#7b7c7e;fill:#232627;fill-opacity:1;stroke:none"
         d="m -121,-44 c -1.65686,0 -3,1.3431 -3,3 v 66 c 0,1.6569 1.34314,3 3,3 h 49 v 13 h -13 c -0.5523,0 -1,0.448 -1,1 v 1 c 0,0.552 0.4477,1 1,1 h 42 c 0.5523,0 1,-0.448 1,-1 v -1 c 0,-0.552 -0.4477,-1 -1,-1 H -56 V 28 h 49 c 1.657,0 3,-1.3431 3,-3 v -66 c 0,-1.6569 -1.343,-3 -3,-3 z m 0,1 H -7 c 1.105,0 2,0.8954 2,2 v 66 c 0,1.1046 -0.895,2 -2,2 h -114 c -1.10458,0 -2,-0.8954 -2,-2 v -66 c 0,-1.1046 0.89542,-2 2,-2 z m 0,2 V 23 H -7 v -64 z m 1,1 H -8 v 62 h -112 z m 49,68 h 14 v 13 h -14 z m -14,14 h 42 v 1 h -42 z"
         transform="translate(128,64)"
         id="path4278"
         inkscape:connector-curvature="0"
         class="ColorScheme-Text" />
      <path
         id="path4284"
         d="m 64.5,30 -6.9231,12 h 1.7308 l 4.1827,-6 V 70 L 58.7308,63 H 57 L 64.5,76 72,63 h -1.7308 l -4.7596,7 V 36 l 4.1827,6 h 1.7308 z"
         inkscape:connector-curvature="0"
         style="color:#3daee6;fill:#489ab1;fill-opacity:1;stroke:none"
         class="ColorScheme-Highlight" />
    </g>
    <g
       style="fill:none"
       id="32-32-osd-rotate-normal"
       transform="translate(383.99999,1019.3622)">
      <rect
         id="rect4198"
         height="32"
         width="32"
         x="0"
         y="0"
         style="fill:none" />
      <path
         id="path4202-9"
         d="M 2,21.9999 V 4 l 28,3e-5 V 22 L 19,21.9999 V 27 h 4 v 1 H 9 v -1 h 4 v -5.0001 z m 16,0 H 14 V 27 h 4 z M 29,4.99997 H 2.99998 V 21 H 29 Z"
         inkscape:connector-curvature="0"
         style="color:#7b7c7e;fill:#232627;fill-opacity:1;fill-rule:evenodd;stroke:none"
         class="ColorScheme-Text" />
      <path
         style="color:#3daee6;fill:#489ab1;fill-opacity:1;stroke:none"
         d="m 120,39 v 8 h 11 v -8 z m 7,1 h 1 v 1 h -1 z m 2,0 h 1 v 1 h -1 z m -8,2 h 9 v 4 h -9 z m 11,1 v 1 h 1 v 1 h -1 v 1 h 3 v 4 h -9 v -2 h -1 v 3 h 11 v -8 z m 2,1 h 1 v 1 h -1 z"
         transform="translate(-112,-32)"
         id="path4208"
         inkscape:connector-curvature="0"
         class="ColorScheme-Highlight" />
    </g>
    <g
       style="fill:none"
       id="48-48-osd-rotate-normal"
       transform="translate(335.99999,1003.3622)">
      <rect
         id="rect4229"
         height="48"
         width="48"
         x="0"
         y="0"
         style="fill:none" />
      <path
         style="color:#7b7c7e;fill:#232627;fill-opacity:1;fill-rule:evenodd;stroke:none"
         d="m 66,23 v 28 h 18 v 5 h -3 v 1 h 14 v -1 h -3 v -5 h 18 V 23 Z m 43,1 V 50 H 67 V 24.001953 Z m -41,1 v 24 h 40 V 25 Z m 1,1 h 38 V 48 H 69 Z m 16,25 h 6 v 5 h -6 z"
         transform="translate(-64,-16)"
         id="path4233"
         inkscape:connector-curvature="0"
         class="ColorScheme-Text" />
      <path
         style="color:#3daee6;fill:#489ab1;fill-opacity:1;fill-rule:evenodd;stroke:none"
         d="M 77,28 V 40 H 93 V 28 Z m 10,1 h 1 v 1 h -1 z m 2,0 h 1 v 1 h -1 z m 2,0 h 1 v 1 h -1 z m -13,2 h 14 v 1 H 78 Z m 0,2 h 2 v 6 h -2 z m 3,0 h 11 v 6 H 81 Z m 13,1 v 1 1 1 h 4 v 1 h -4 v 1 h 4 v 6 H 87 v -4 h -1 v 4 h -2 v -4 h -1 v 5 H 99 V 34 Z m 1,1 h 1 v 1 h -1 z m 2,0 h 1 v 1 h -1 z"
         transform="translate(-64,-16)"
         id="path4241"
         inkscape:connector-curvature="0"
         class="ColorScheme-Highlight" />
    </g>
    <g
       transform="translate(271.99999,987.36216)"
       style="fill:none"
       id="osd-rotate-normal">
      <rect
         id="rect4263"
         height="64"
         width="64"
         x="0"
         y="0"
         style="fill:none" />
      <path
         id="path4267"
         d="M 59,11 H 5 V 45 H 59 Z M 5,10 H 4 v 1 34 1 h 1 23 v 7 h -7 v 1 h 7 1 6 1 7 v -1 h -7 v -7 h 23 1 V 45 11 10 h -1 z m 24,43 v -7 h 6 v 7 z M 7,13 H 57 V 42 H 7 Z M 6,12 h 1 50 1 v 1 29 1 H 57 7 6 V 42 13 Z"
         inkscape:connector-curvature="0"
         style="color:#7b7c7e;fill:#232627;fill-opacity:1;fill-rule:evenodd;stroke:none"
         class="ColorScheme-Text" />
      <path
         style="color:#3daee6;fill:#489ab1;fill-opacity:1;fill-rule:evenodd;stroke:none"
         d="M 21,19 V 31 H 37 V 19 Z m 10,1 h 1 v 1 h -1 z m 2,0 h 1 v 1 h -1 z m 2,0 h 1 v 1 h -1 z m -13,2 h 14 v 1 H 22 Z m 0,2 h 2 v 6 h -2 z m 3,0 h 11 v 6 H 25 Z m 13,1 v 1 1 1 h 4 v 1 h -4 v 1 h 4 v 6 H 31 v -4 h -1 v 4 h -2 v -4 h -1 v 5 H 43 V 25 Z m 1,1 h 1 v 1 h -1 z m 2,0 h 1 v 1 h -1 z"
         id="path4273"
         inkscape:connector-curvature="0"
         class="ColorScheme-Highlight" />
    </g>
    <g
       style="fill:none"
       id="128-128-osd-rotate-normal"
       transform="translate(143.99999,923.36216)">
      <rect
         id="rect4294"
         height="128"
         width="128"
         x="0"
         y="0"
         style="fill:none" />
      <path
         style="color:#7b7c7e;fill:#232627;fill-opacity:1;fill-rule:evenodd;stroke:none"
         d="m -121,-44 c -1.65686,0 -3,1.3431 -3,3 v 66 c 0,1.6569 1.34314,3 3,3 h 49 v 13 h -13 c -0.5523,0 -1,0.448 -1,1 v 1 c 0,0.552 0.4477,1 1,1 h 42 c 0.5523,0 1,-0.448 1,-1 v -1 c 0,-0.552 -0.4477,-1 -1,-1 H -56 V 28 h 49 c 1.657,0 3,-1.3431 3,-3 v -66 c 0,-1.6569 -1.343,-3 -3,-3 z m 0,1 H -7 c 1.105,0 2,0.8954 2,2 v 66 c 0,1.1046 -0.895,2 -2,2 h -114 c -1.10458,0 -2,-0.8954 -2,-2 v -66 c 0,-1.1046 0.89542,-2 2,-2 z m 0,2 V 23 H -7 v -64 z m 1,1 H -8 v 62 h -112 z m 49,68 h 14 v 13 h -14 z m -14,14 h 42 v 1 h -42 z"
         transform="translate(128,64)"
         id="path4298"
         inkscape:connector-curvature="0"
         class="ColorScheme-Text" />
      <path
         style="color:#3daee6;fill:#489ab1;fill-opacity:1;fill-rule:evenodd;stroke:none"
         d="m -89,-26 v 24 h 32 v -24 z m 21,2 c 0.5523,0 1,0.4477 1,1 0,0.5522 -0.4477,1 -1,1 -0.5523,0 -1,-0.4478 -1,-1 0,-0.5523 0.4477,-1 1,-1 z m 4,0 c 0.5523,0 1,0.4477 1,1 0,0.5522 -0.4477,1 -1,1 -0.5523,0 -1,-0.4478 -1,-1 0,-0.5523 0.4477,-1 1,-1 z m 4,0 c 0.5523,0 1,0.4477 1,1 0,0.5522 -0.4477,1 -1,1 -0.5523,0 -1,-0.4478 -1,-1 0,-0.5523 0.4477,-1 1,-1 z m -28,4 h 30 v 1 h -30 z m 0,2 h 4 v 15 h -4 z m 5,0 h 25 v 15 h -25 z m 28,1 v 6 h 15 v 1 h -15 v 1 h 15 V 6 H -65 V 0 h -1 v 6 h -4 V 0 h -1 v 7 h 32 v -24 z m 5,2 c 0.5523,0 1,0.4477 1,1 0,0.5522 -0.4477,1 -1,1 -0.5523,0 -1,-0.4478 -1,-1 0,-0.5523 0.4477,-1 1,-1 z m 4,0 c 0.5523,0 1,0.4477 1,1 0,0.5522 -0.4477,1 -1,1 -0.5523,0 -1,-0.4478 -1,-1 0,-0.5523 0.4477,-1 1,-1 z m 4,0 c 0.5523,0 1,0.4477 1,1 0,0.5522 -0.4477,1 -1,1 -0.5523,0 -1,-0.4478 -1,-1 0,-0.5523 0.4477,-1 1,-1 z"
         transform="translate(128,64)"
         id="path4306-3"
         inkscape:connector-curvature="0"
         class="ColorScheme-Highlight" />
    </g>
    <g
       style="fill:none"
       id="32-32-osd-sbs-left"
       transform="translate(111.99999,636.36217)">
      <rect
         id="rect4196-6"
         height="32"
         width="32"
         x="0"
         y="0"
         style="fill:none" />
      <path
         style="color:#7b7c7e;fill:#232627;fill-opacity:1;stroke:none"
         d="m 114,41 v 14 h 10 v -1 h -9 V 42 h 9 v -1 z m 11,0 v 14 h 17 V 41 Z m 1,1 h 15 v 12 h -15 z"
         transform="translate(-112,-32.00004)"
         id="path4200-0"
         inkscape:connector-curvature="0"
         class="ColorScheme-Text" />
      <path
         style="color:#3daee6;fill:#489ab1;fill-opacity:1;fill-rule:evenodd;stroke:none"
         d="m 119,44 v 8 h 5 v -1 h -4 v -4 h 4 v -3 z m 8,0 v 3 h 4 v 4 h -4 v 1 h 5 v -8 z m 1,1 h 1 v 1 h -1 z m 2,0 h 1 v 1 h -1 z"
         transform="translate(-112,-32.00004)"
         id="path4204-6"
         inkscape:connector-curvature="0"
         class="ColorScheme-Highlight" />
    </g>
    <g
       style="fill:none"
       id="48-48-osd-sbs-left"
       transform="translate(63.999999,620.36217)">
      <rect
         id="rect4224-2"
         height="48"
         width="48"
         x="0"
         y="0"
         style="fill:none" />
      <path
         style="color:#7b7c7e;fill:#232627;fill-opacity:1;stroke:none"
         d="m 66,27 v 18 h 12 v 5 h -4 v 1 h 4 1 7 v -1 h -2 v -4 h -1 v 4 H 79 V 46 45 44 H 67 V 28 h 12 v -1 z m 14,0 v 18 h 12 v 5 h -4 v 1 h 4 1 9 v -1 h -4 v -5 h 12 V 27 Z m 1,1 28,0.002 V 44 H 95 94 81 Z m 12,17 h 4 v 5 h -4 z"
         transform="translate(-64,-16.00004)"
         id="path4228-6"
         inkscape:connector-curvature="0"
         class="ColorScheme-Text" />
      <path
         style="color:#3daee6;fill:#489ab1;fill-opacity:1;fill-rule:evenodd;stroke:none"
         d="m 71,30 v 12 h 8 v -1 h -4 v -6 h 4 v -1 h -7 v -1 h 7 v -3 z m 11,0 v 3 h 7 v 1 h -7 v 1 h 7 v 6 h -7 v 1 h 8 V 30 Z m 2,1 h 1 v 1 h -1 z m 2,0 h 1 v 1 h -1 z m 2,0 h 1 v 1 h -1 z m -16,4 h 2 v 6 h -2 z"
         transform="translate(-64,-16.00004)"
         id="path4232"
         inkscape:connector-curvature="0"
         class="ColorScheme-Highlight" />
    </g>
    <g
       transform="translate(0,604.36213)"
       style="fill:none"
       id="osd-sbs-left">
      <rect
         id="rect4252-1"
         height="64"
         width="64"
         x="0"
         y="0"
         style="fill:none" />
      <path
         style="color:#7b7c7e;fill:#232627;fill-opacity:1;stroke:none"
         d="m 4,18 v 22 h 14 v 4 h -4 v 1 h 4 1 9 v -1 h -4 v -4 h 1 V 39 H 19 18 5 V 38 H 25 V 37 H 5 V 19 l 20,0.002 V 18 Z m 22,0 v 22 h 14 v 4 h -4 v 1 h 4 1 9 V 44 H 46 V 40 H 60 V 18 Z m 1,1 32,0.002 V 37 H 27 Z m 0,19 h 32 v 1 H 41 40 27 Z m -8,2 h 4 v 4 h -4 z m 22,0 h 4 v 4 h -4 z"
         id="path4256-8"
         inkscape:connector-curvature="0"
         class="ColorScheme-Text" />
      <path
         style="color:#3daee6;fill:#489ab1;fill-opacity:1;fill-rule:evenodd;stroke:none"
         d="m 17,22 v 12 h 8 v -1 h -4 v -6 h 4 v -1 h -7 v -1 h 7 v -3 z m 11,0 v 3 h 7 v 1 h -7 v 1 h 7 v 6 h -7 v 1 h 8 V 22 Z m 2,1 h 1 v 1 h -1 z m 2,0 h 1 v 1 h -1 z m 2,0 h 1 v 1 h -1 z m -16,4 h 2 v 6 h -2 z"
         id="path4260"
         inkscape:connector-curvature="0"
         class="ColorScheme-Highlight" />
    </g>
    <g
       style="fill:none"
       id="128-128-osd-sbs-left"
       transform="translate(-128.00001,540.36213)">
      <rect
         id="rect4280"
         height="128"
         width="128"
         x="0"
         y="0"
         style="fill:none" />
      <path
         style="color:#7b7c7e;fill:#232627;fill-opacity:1;fill-rule:evenodd;stroke:none"
         d="m -78,-26 -43,0.002 v 42.998047 h 30 v 8 h -8 v 1 h 26 v -1 h -8 v -8 h 3 v -1 h -42 v -41 h 42 v -1 z m 71,0 -70,0.002 V 17 h 30 v 8 h -8 v 1 h 26 v -1 h -8 v -8 h 30 z m -69,1 h 68 v 41 h -68 z m -43,1 v 38 h 41 v -1 h -40 v -36 h 40 v -1 z m 44,0 v 38 h 66 v -38 z m 1,1 h 64 v 36 h -64 z m -16,40 h 8 v 8 h -8 z m 44,0 h 8 v 8 h -8 z"
         transform="translate(128,64)"
         id="path4286"
         inkscape:connector-curvature="0"
         class="ColorScheme-Text" />
      <path
         style="color:#3daee6;fill:#489ab1;fill-opacity:1;fill-rule:evenodd;stroke:none"
         d="M -94,-17 V 7 h 15 V 6 h -9 V -9 h 9 v -1 h -14 v -1 h 14 v -6 z m 22,0 v 6 h 14 v 1 h -14 v 1 h 14 V 6 h -14 v 1 h 15 v -24 z m 4,2 c 0.5523,0 1,0.4477 1,1 0,0.5522 -0.4477,1 -1,1 -0.5523,0 -1,-0.4478 -1,-1 0,-0.5523 0.4477,-1 1,-1 z m 4,0 c 0.5523,0 1,0.4477 1,1 0,0.5522 -0.4477,1 -1,1 -0.5523,0 -1,-0.4478 -1,-1 0,-0.5523 0.4477,-1 1,-1 z m 4,0 c 0.5523,0 1,0.4477 1,1 0,0.5522 -0.4477,1 -1,1 -0.5523,0 -1,-0.4478 -1,-1 0,-0.5523 0.4477,-1 1,-1 z m -33,6 h 4 V 6 h -4 z"
         transform="translate(128,64)"
         id="path4292-7"
         inkscape:connector-curvature="0"
         class="ColorScheme-Highlight" />
    </g>
    <g
       style="fill:none"
       id="32-32-osd-sbs-sright"
       transform="translate(111.99999,763.36217)">
      <rect
         id="rect4203"
         height="32"
         width="32"
         x="0"
         y="0"
         style="fill:none" />
      <path
         style="color:#7b7c7e;fill:#232627;fill-opacity:1;stroke:none"
         d="m 114,41 v 14 h 17 V 41 Z m 18,0 v 1 h 9 v 12 h -9 v 1 h 10 V 41 Z m -17,1 h 15 v 12 h -15 z"
         transform="translate(-112,-32.00004)"
         id="path4207"
         inkscape:connector-curvature="0"
         class="ColorScheme-Text" />
      <path
         style="color:#3daee6;fill:#489ab1;fill-opacity:1;fill-rule:evenodd;stroke:none"
         d="m 124,44 v 8 h 5 v -1 h -4 v -4 h 4 v -3 z m 8,0 v 3 h 4 v 4 h -4 v 1 h 5 v -8 z m 1,1 h 1 v 1 h -1 z m 2,0 h 1 v 1 h -1 z"
         transform="translate(-112,-32.00004)"
         id="path4213"
         inkscape:connector-curvature="0"
         class="ColorScheme-Highlight" />
    </g>
    <g
       style="fill:none"
       id="48-48-osd-sbs-sright"
       transform="translate(63.999999,747.36217)">
      <rect
         id="rect4234-9"
         height="48"
         width="48"
         x="0"
         y="0"
         style="fill:none" />
      <path
         style="color:#7b7c7e;fill:#232627;fill-opacity:1;stroke:none"
         d="m 66,27 v 18 h 12 v 5 h -4 v 1 h 9 1 4 V 50 H 84 V 45 H 96 V 27 Z m 31,0 v 1 h 12 V 44 H 97 v 1 5 h -4 v -4 h -1 v 4 h -2 v 1 h 7 1 4 v -1 h -4 v -5 h 12 V 27 Z m -2,1 V 44 H 82 81 67 V 28.001953 Z M 79,45 h 4 v 5 h -4 z"
         transform="translate(-64,-16.00004)"
         id="path4238-2"
         inkscape:connector-curvature="0"
         class="ColorScheme-Text" />
      <path
         style="color:#3daee6;fill:#489ab1;fill-opacity:1;fill-rule:evenodd;stroke:none"
         d="m 86,30 v 12 h 8 v -1 h -4 v -6 h 4 v -1 h -7 v -1 h 7 v -3 z m 11,0 v 3 h 7 v 1 h -7 v 1 h 7 v 6 h -7 v 1 h 8 V 30 Z m 2,1 h 1 v 1 h -1 z m 2,0 h 1 v 1 h -1 z m 2,0 h 1 v 1 h -1 z m -16,4 h 2 v 6 h -2 z"
         transform="translate(-64,-16.00004)"
         id="path4244-0"
         inkscape:connector-curvature="0"
         class="ColorScheme-Highlight" />
    </g>
    <g
       transform="translate(0,731.36213)"
       style="fill:none"
       id="osd-sbs-sright">
      <rect
         id="rect4265"
         height="64"
         width="64"
         x="0"
         y="0"
         style="fill:none" />
      <path
         style="color:#7b7c7e;fill:#232627;fill-opacity:1;stroke:none"
         d="m 4,22 v 22 h 14 v 4 h -4 v 1 h 9 1 4 V 48 H 24 V 44 H 38 V 22 Z m 35,0 v 1.001953 l 20,-0.002 v 18 H 39 v 1 h 20 v 1 H 46 45 39 v 1 h 1 v 4 h -4 v 1 h 9 1 4 v -1 h -4 v -4 h 14 v -22 H 39 Z m -2,1 V 41 H 5 V 23.001953 Z M 5,42 h 32 v 1 H 24 23 5 Z m 14,2 h 4 v 4 h -4 z m 22,0 h 4 v 4 h -4 z"
         id="path4269"
         inkscape:connector-curvature="0"
         class="ColorScheme-Text" />
      <path
         style="color:#3daee6;fill:#489ab1;fill-opacity:1;fill-rule:evenodd;stroke:none"
         d="m 28,26 v 12 h 8 v -1 h -4 v -6 h 4 v -1 h -7 v -1 h 7 v -3 z m 11,0 v 3 h 7 v 1 h -7 v 1 h 7 v 6 h -7 v 1 h 8 V 26 Z m 2,1 h 1 v 1 h -1 z m 2,0 h 1 v 1 h -1 z m 2,0 h 1 v 1 h -1 z m -16,4 h 2 v 6 h -2 z"
         id="path4275"
         inkscape:connector-curvature="0"
         class="ColorScheme-Highlight" />
    </g>
    <g
       style="fill:none"
       id="128-128-osd-sbs-sright"
       transform="translate(-128.00001,668.36213)">
      <rect
         id="rect4296"
         height="127"
         width="128"
         x="0"
         y="0"
         style="fill:none" />
      <path
         style="color:#7b7c7e;fill:#232627;fill-opacity:1;fill-rule:evenodd;stroke:none"
         d="m -121,-25 v 43 h 30 v 8 h -8 v 1 h 26 v -1 h -8 v -8 h 30 v -42.998047 l -70,-0.002 z m 71,0 v 1 h 42 v 41 h -42 v 1 h 3 v 8 h -8 v 1 h 26 v -1 h -8 v -8 h 30 v -42.998047 z m -70,1 h 68 v 41 h -68 z m 1,1 v 38 h 66 v -38 z m 69,0 v 1 h 40 v 36 h -40 v 1 h 41 v -38 z m -68,1 h 64 v 36 h -64 z m 28,40 h 8 v 8 h -8 z m 44,0 h 8 v 8 h -8 z"
         transform="translate(128,63)"
         id="path4300-2"
         inkscape:connector-curvature="0"
         class="ColorScheme-Text" />
      <path
         style="color:#3daee6;fill:#489ab1;fill-opacity:1;fill-rule:evenodd;stroke:none"
         d="M -71,-17 V 7 h 15 V 6 h -9 V -9 h 9 v -1 h -14 v -1 h 14 v -6 z m 22,0 v 6 h 14 v 1 h -14 v 1 h 14 V 6 h -14 v 1 h 15 v -24 z m 4,2 c 0.5523,0 1,0.4477 1,1 0,0.5522 -0.4477,1 -1,1 -0.5523,0 -1,-0.4478 -1,-1 0,-0.5523 0.4477,-1 1,-1 z m 4,0 c 0.5523,0 1,0.4477 1,1 0,0.5522 -0.4477,1 -1,1 -0.5523,0 -1,-0.4478 -1,-1 0,-0.5523 0.4477,-1 1,-1 z m 4,0 c 0.5523,0 1,0.4477 1,1 0,0.5522 -0.4477,1 -1,1 -0.5523,0 -1,-0.4478 -1,-1 0,-0.5523 0.4477,-1 1,-1 z m -33,6 h 4 V 6 h -4 z"
         transform="translate(128,63)"
         id="path4308"
         inkscape:connector-curvature="0"
         class="ColorScheme-Highlight" />
    </g>
    <g
       style="fill:none"
       id="32-32-osd-shutd-laptop"
       transform="translate(111.99999,891.36216)">
      <rect
         id="rect4198-3"
         height="32"
         width="32"
         x="0"
         y="0"
         style="fill:none" />
      <path
         style="color:#7b7c7e;fill:#232627;fill-opacity:1;fill-rule:evenodd;stroke:none"
         d="m 125,36 v 9 h 1 v -8 h 15 v 12 h -9 v 1 h 10 V 36 Z m -11,10 v 14 h 17 V 46 Z m 1,1 h 15 v 12 h -15 z"
         transform="translate(-112,-32.00004)"
         id="path4200-7"
         inkscape:connector-curvature="0"
         sodipodi:nodetypes="ccccccccccccccccccccc"
         class="ColorScheme-Text" />
      <path
         id="path4208-5"
         d="m 6.25717,18.1712 1.41406,-1.414 2.82817,2.8281 2.8281,-2.8281 1.414,1.414 -2.8281,2.8282 2.8281,2.8281 -1.414,1.414 -2.8281,-2.8281 -2.82817,2.8281 -1.41406,-1.414 2.82813,-2.8281 z"
         inkscape:connector-curvature="0"
         style="fill:#da4453" />
      <path
         id="path4210"
         d="M 16,13 V 7 h 11 v 8 l -7,-4e-5 v -1 L 26,14 v -4 h -9 v 3 z m 8,-5 h -1 v 1 h 1 z m 2,0 h -1 v 1 h 1 z"
         inkscape:connector-curvature="0"
         style="color:#3daee6;fill:#489ab1;fill-opacity:1;fill-rule:evenodd;stroke:none"
         sodipodi:nodetypes="ccccccccccccccccccccc"
         class="ColorScheme-Highlight" />
    </g>
    <g
       style="fill:none"
       id="48-48-osd-shutd-laptop"
       transform="translate(63.999999,875.36217)">
      <rect
         id="rect4229-9"
         height="48"
         width="48"
         x="0"
         y="0"
         style="fill:none" />
      <path
         style="color:#7b7c7e;fill:#232627;fill-opacity:1;stroke:none"
         d="m 80,21 v 14 h 1 V 22.001953 l 28,-0.002 v 16 H 97 v 1 5 1 h 1 4 v -1 h -4 v -5 h 12 v -18 H 80 Z M 66,36 v 18 h 12 v 5 h -4 v 1 h 9 1 4 V 59 H 84 V 54 H 96 V 36 Z m 29,1 V 53 H 82 81 67 V 37.001953 Z M 79,54 h 4 v 5 h -4 z"
         transform="translate(-64,-16.00004)"
         id="path4233-2"
         inkscape:connector-curvature="0"
         class="ColorScheme-Text" />
      <path
         id="path4239"
         d="M 13.4141,24 12,25.4141 l 1.6426,1.6426 1.8925,1.8925 -1.7617,1.7618 -1.7734,1.7734 1.4141,1.4141 1.6425,-1.6426 1.8926,-1.8926 3.5352,3.5352 1.414,-1.4141 -3.5351,-3.5352 3.5351,-3.5351 L 20.4844,24 16.9492,27.5352 15.1875,25.7735 Z"
         inkscape:connector-curvature="0"
         style="fill:#da4453" />
      <path
         id="path4241-2"
         d="M 39,8 H 23 v 11 h 1 v -6 h 2 v 6 h 1 v -6 h 11 v 6 h -5 v 1 h 6 z M 24,12 H 38 V 11 H 24 Z m 9,-3 h 1 v 1 h -1 z m 2,0 h 1 v 1 h -1 z m 2,0 h 1 v 1 h -1 z"
         inkscape:connector-curvature="0"
         style="color:#3daee6;fill:#489ab1;fill-opacity:1;fill-rule:evenodd;stroke:none"
         class="ColorScheme-Highlight" />
    </g>
    <g
       transform="translate(0,859.36213)"
       style="fill:none"
       id="osd-shutd-laptop">
      <rect
         id="rect4260"
         height="64"
         width="64"
         x="0"
         y="0"
         style="fill:none" />
      <path
         style="color:#7b7c7e;fill:#232627;fill-opacity:1;fill-rule:evenodd;stroke:none"
         d="m 26,11 v 14 h 1 V 12.001953 l 32,-0.002 v 18 H 39 v 1 h 20 v 1 H 46 45 39 v 1 h 1 v 4 h -1 v 1 h 6 1 4 v -1 h -4 v -4 h 14 v -22 H 26 Z M 4,26 v 22 h 14 v 4 h -4 v 1 h 9 1 4 V 52 H 24 V 48 H 38 V 26 Z m 33,1 V 45 H 5 V 27.001953 Z m 4,6 h 4 v 4 H 41 Z M 5,46 h 32 v 1 H 24 23 5 Z m 14,2 h 4 v 4 h -4 z"
         id="path4262"
         inkscape:connector-curvature="0"
         class="ColorScheme-Text" />
      <path
         id="path4270-8"
         d="m 14.6358,31.0498 1.4141,-1.414 4.9492,4.9492 4.9492,-4.9492 h 0.002 l 1.4121,1.414 -4.9473,4.9493 1.5841,1.584 v 0.0033 l 3.3632,3.3619 v 0.002 l -1.4141,1.4121 -4.9492,-4.9473 -1.584,1.5841 H 19.414 l -1.8289,1.83 H 17.583 l -1.5332,1.5332 -1.414,-1.4141 4.9492,-4.9492 -3.416,-3.4141 v -0.002 z"
         inkscape:connector-curvature="0"
         style="fill:#da4453" />
      <path
         id="path4272"
         d="M 51,15 H 35 v 10 h 1 v -5 h 2 v 5 h 1 v -5 h 11 v 6 H 39 v 1 H 51 Z M 36,19 H 50 V 18 H 36 Z m 9,-3 h 1 v 1 h -1 z m 2,0 h 1 v 1 h -1 z m 2,0 h 1 v 1 h -1 z"
         inkscape:connector-curvature="0"
         style="color:#3daee6;fill:#489ab1;fill-opacity:1;fill-rule:evenodd;stroke:none"
         class="ColorScheme-Highlight" />
    </g>
    <g
       style="fill:none"
       id="128-128-osd-shutd-laptop"
       transform="translate(-128.00001,795.36213)">
      <rect
         id="rect4291"
         height="128"
         width="128"
         x="0"
         y="0"
         style="fill:none" />
      <path
         style="color:#7b7c7e;fill:#232627;fill-opacity:1;fill-rule:evenodd;stroke:none"
         d="m -77,-43 v 33 h 1 v -32 h 68 v 41 h -41 v 1 h 2 v 8 h -2 v 1 h 20 V 8 h -8 V 0 h 30 v -42.998047 z m 2,2 v 31 h 1 v -30 h 64 v 36 h -39 v 1 h 40 v -38 z m -46,33 v 43 h 30 v 8 h -8 v 1 h 26 v -1 h -8 v -8 h 30 V -7.9980469 Z m 1,1 h 68 v 41 h -68 z m 1,1 v 38 h 66 V -6 Z m 1,1 h 64 v 36 h -64 z m 72,5 h 8 v 8 h -8 z m -44,35 h 8 v 8 h -8 z"
         transform="translate(128,64)"
         id="path4295"
         inkscape:connector-curvature="0"
         class="ColorScheme-Text" />
      <path
         id="path4303"
         d="M 53.748,64.0001 50.1875,67.5626 42.082,75.6681 32.6992,66.2872 32.582,66.17 30.4141,64.002 29,65.4161 l 2.7363,2.7344 0.8262,0.8261 8.1055,8.1055 -9.3828,9.3828 -2.2852,2.2852 1.4141,1.4141 2.7363,-2.7364 0.8262,-0.8261 8.1054,-8.1055 11.668,11.666 1.4121,-1.4121 0.002,-0.002 -11.6679,-11.666 9.498,-9.5 2.168,-2.168 L 53.7501,64.002 53.748,64 Z"
         inkscape:connector-curvature="0"
         style="fill:#da4453" />
      <path
         id="path4309"
         d="m 70,30 h 32 V 54 H 70 Z m 6,23 h 25 V 38 H 76 Z M 101,37 V 36 H 71 v 1 z m -30,1 h 4 v 15 h -4 z m 21,-5 c 0,-0.5523 -0.4477,-1 -1,-1 -0.5523,0 -1,0.4477 -1,1 0,0.5522 0.4477,1 1,1 0.5523,0 1,-0.4478 1,-1 z m 4,0 c 0,-0.5523 -0.4477,-1 -1,-1 -0.5523,0 -1,0.4477 -1,1 0,0.5522 0.4477,1 1,1 0.5523,0 1,-0.4478 1,-1 z m 4,0 c 0,-0.5523 -0.4477,-1 -1,-1 -0.5523,0 -1,0.4477 -1,1 0,0.5522 0.4477,1 1,1 0.5523,0 1,-0.4478 1,-1 z"
         inkscape:connector-curvature="0"
         style="color:#3daee6;fill:#489ab1;fill-opacity:1;fill-rule:evenodd;stroke:none"
         class="ColorScheme-Highlight" />
    </g>
    <g
       style="fill:none"
       id="32-32-osd-shutd-screen"
       transform="translate(111.99999,1019.3622)">
      <rect
         id="rect4200-9"
         height="32"
         width="32"
         x="0"
         y="0"
         style="fill:none" />
      <path
         style="color:#7b7c7e;fill:#232627;fill-opacity:1;stroke:none"
         d="m 125,36 v 9 h 1 v -8 h 15 v 12 h -9 v 1 h 10 V 36 Z m -11,10 v 14 h 17 V 46 Z m 1,1 h 15 v 12 h -15 z"
         transform="translate(-112,-32.00004)"
         id="path4204-73"
         inkscape:connector-curvature="0"
         class="ColorScheme-Text" />
      <path
         id="path4210-6"
         d="m 5,17 v 8 h 11 v -8 z m 7,1 h 1 v 1 h -1 z m 2,0 h 1 v 1 h -1 z m -8,2 h 9 v 4 H 6 Z"
         inkscape:connector-curvature="0"
         style="color:#3daee6;fill:#489ab1;fill-opacity:1;stroke:none"
         class="ColorScheme-Highlight" />
      <path
         id="path4214"
         d="M 18.6712,6.75717 17.2572,8.17123 20.0853,10.9994 18.0847,13 H 20 v 0.9128 l 1.4994,-1.4994 2.8281,2.8281 1.414,-1.414 -2.8281,-2.8281 2.8281,-2.82817 -1.414,-1.41406 -2.8281,2.82813 z"
         inkscape:connector-curvature="0"
         style="clip-rule:evenodd;fill:#da4453;fill-rule:evenodd" />
    </g>
    <g
       style="fill:none"
       id="48-48-osd-shutd-screen"
       transform="translate(63.999999,1003.3622)">
      <rect
         id="rect4234-1"
         height="48"
         width="48"
         x="0"
         y="0"
         style="fill:none" />
      <path
         style="color:#7b7c7e;fill:#232627;fill-opacity:1;stroke:none"
         d="m 80,21 v 14 h 1 V 22.001953 l 28,-0.002 v 16 H 97 v 1 5 1 h 1 4 v -1 h -4 v -5 h 12 v -18 H 80 Z M 66,36 v 18 h 12 v 5 h -4 v 1 h 9 1 4 V 59 H 84 V 54 H 96 V 36 Z m 29,1 V 53 H 82 81 67 V 37.001953 Z M 79,54 h 4 v 5 h -4 z"
         transform="translate(-64,-16.00004)"
         id="path4238-29"
         inkscape:connector-curvature="0"
         class="ColorScheme-Text" />
      <path
         id="path4244-3"
         d="M 9,23 H 25 V 35 H 9 Z m 1,5 v 6 h 2 v -6 z m 3,6 H 24 V 28 H 13 Z M 24,27 H 10 v -1 h 14 z m -4,-3 h -1 v 1 h 1 z m 2,0 h -1 v 1 h 1 z m 2,0 h -1 v 1 h 1 z"
         inkscape:connector-curvature="0"
         style="color:#3daee6;fill:#489ab1;fill-opacity:1;fill-rule:evenodd;stroke:none"
         class="ColorScheme-Highlight" />
      <path
         id="path4248"
         d="M 27.4141,9.00002 26,10.4141 l 1.6426,1.6426 1.8925,1.8925 -1.7617,1.7618 -1.7734,1.7734 1.4141,1.4141 1.6425,-1.6426 1.8926,-1.8926 3.5352,3.5352 1.414,-1.4141 -3.5351,-3.5352 3.5351,-3.5351 -1.414,-1.41408 -3.5352,3.53518 -1.7617,-1.7617 z"
         inkscape:connector-curvature="0"
         style="fill:#da4453" />
    </g>
    <g
       style="fill:none"
       id="osd-shutd-screen"
       transform="translate(0,988.36216)">
      <rect
         id="rect4271"
         height="64"
         width="64"
         x="0"
         y="0"
         style="fill:none" />
      <path
         style="color:#7b7c7e;fill:#232627;fill-opacity:1;fill-rule:evenodd;stroke:none"
         d="m 26,12 v 14 h 1 V 13.001953 l 32,-0.002 v 18 H 39 v 1 h 20 v 1 H 46 45 39 v 1 h 1 v 4 h -1 v 1 h 6 1 4 v -1 h -4 v -4 h 14 v -22 H 26 Z M 4,27 v 22 h 14 v 4 h -4 v 1 h 9 1 4 V 53 H 24 V 49 H 38 V 27 Z m 33,1 V 46 H 5 V 28.001953 Z m 4,6 h 4 v 4 H 41 Z M 5,47 h 32 v 1 H 24 23 5 Z m 14,2 h 4 v 4 h -4 z"
         transform="translate(0,-1)"
         id="path4273-1"
         inkscape:connector-curvature="0"
         class="ColorScheme-Text" />
      <path
         id="path4283"
         d="M 13,30 H 29 V 42 H 13 Z m 1,5 v 6 h 2 v -6 z m 3,6 H 28 V 35 H 17 Z M 28,34 H 14 v -1 h 14 z m -4,-3 h -1 v 1 h 1 z m 2,0 h -1 v 1 h 1 z m 2,0 h -1 v 1 h 1 z"
         inkscape:connector-curvature="0"
         style="color:#3daee6;fill:#489ab1;fill-opacity:1;fill-rule:evenodd;stroke:none"
         class="ColorScheme-Highlight" />
      <path
         id="path4285"
         d="m 38.0499,14.6358 -1.4141,1.414 1.5332,1.5332 v 0.002 L 41.585,20.9991 37.5841,25 H 39 v 1.4122 l 0.583,-0.583 h 0.0021 l 1.8289,-1.83 h 0.0011 l 1.584,-1.5841 4.9492,4.9473 1.4141,-1.4121 v -0.002 l -3.3632,-3.3619 v -0.0033 l -1.5841,-1.584 4.9473,-4.9493 -1.4121,-1.414 h -0.002 l -4.9492,4.9492 z"
         inkscape:connector-curvature="0"
         style="clip-rule:evenodd;fill:#da4453;fill-rule:evenodd" />
    </g>
    <g
       style="fill:none"
       id="128-128-osd-shutd-screen"
       transform="translate(-128.00001,923.36216)">
      <rect
         id="rect4305"
         height="128"
         width="128"
         x="0"
         y="0"
         style="fill:none" />
      <path
         style="color:#7b7c7e;fill:#232627;fill-opacity:1;fill-rule:evenodd;stroke:none"
         d="m -77,-43 v 33 h 1 v -32 h 68 v 41 h -41 v 1 h 2 v 8 h -2 v 1 h 20 V 8 h -8 V 0 h 30 v -42.998047 z m 2,2 v 31 h 1 v -30 h 64 v 36 h -39 v 1 h 40 v -38 z m -46,33 v 43 h 30 v 8 h -8 v 1 h 26 v -1 h -8 v -8 h 30 V -7.9980469 Z m 1,1 h 68 v 41 h -68 z m 1,1 v 38 h 66 V -6 Z m 1,1 h 64 v 36 h -64 z m 72,5 h 8 v 8 h -8 z m -44,35 h 8 v 8 h -8 z"
         transform="translate(128,64)"
         id="path4309-9"
         inkscape:connector-curvature="0"
         class="ColorScheme-Text" />
      <path
         id="path4319"
         d="M 26,65 H 58 V 89 H 26 Z m 6,23 H 57 V 73 H 32 Z M 57,72 V 71 H 27 v 1 z m -30,1 h 4 v 15 h -4 z m 21,-5 c 0,-0.5523 -0.4477,-1 -1,-1 -0.5523,0 -1,0.4477 -1,1 0,0.5522 0.4477,1 1,1 0.5523,0 1,-0.4478 1,-1 z m 4,0 c 0,-0.5523 -0.4477,-1 -1,-1 -0.5523,0 -1,0.4477 -1,1 0,0.5522 0.4477,1 1,1 0.5523,0 1,-0.4478 1,-1 z m 4,0 c 0,-0.5523 -0.4477,-1 -1,-1 -0.5523,0 -1,0.4477 -1,1 0,0.5522 0.4477,1 1,1 0.5523,0 1,-0.4478 1,-1 z"
         inkscape:connector-curvature="0"
         style="color:#3daee6;fill:#489ab1;fill-opacity:1;fill-rule:evenodd;stroke:none"
         class="ColorScheme-Highlight" />
      <path
         id="path4321"
         d="m 94.1875,32.5626 3.5605,-3.5625 0.0021,0.0019 1.4121,1.4121 -2.168,2.168 -9.498,9.5 11.6679,11.666 -0.002,0.002 L 97.75,55.1622 86.082,43.4962 77.9766,51.6017 77.1504,52.4278 75.5782,54 H 73.2499 L 73,53.7501 75.2852,51.4649 84.668,42.0821 76.5625,33.9767 75.7363,33.1505 73,30.4161 l 1.4141,-1.4141 2.1679,2.168 0.1172,0.1172 9.3828,9.3809 z"
         inkscape:connector-curvature="0"
         style="clip-rule:evenodd;fill:#da4453;fill-rule:evenodd" />
    </g>
  </g>
</svg>
