<?xml version="1.0" encoding="UTF-8" standalone="no"?>
<svg
   width="32"
   height="32"
   viewBox="0 0 32 32"
   version="1.1"
   id="svg867"
   inkscape:version="1.2.2 (b0a8486541, 2022-12-01)"
   sodipodi:docname="redshift.svg"
   xmlns:inkscape="http://www.inkscape.org/namespaces/inkscape"
   xmlns:sodipodi="http://sodipodi.sourceforge.net/DTD/sodipodi-0.dtd"
   xmlns="http://www.w3.org/2000/svg"
   xmlns:svg="http://www.w3.org/2000/svg"
   xmlns:rdf="http://www.w3.org/1999/02/22-rdf-syntax-ns#"
   xmlns:cc="http://creativecommons.org/ns#"
   xmlns:dc="http://purl.org/dc/elements/1.1/">
  <defs
     id="defs3871">
    <style
       type="text/css"
       id="current-color-scheme">.ColorScheme-Text { color:#d1d5e9; }
</style>
  </defs>
  <sodipodi:namedview
     inkscape:object-paths="true"
     guideopacity="0.62745098"
     guidecolor="#0000ff"
     inkscape:bbox-nodes="true"
     inkscape:snap-intersection-paths="true"
     inkscape:snap-bbox="true"
     id="base"
     pagecolor="#000000"
     bordercolor="#0008fb"
     borderopacity="1"
     inkscape:pageopacity="0"
     inkscape:pageshadow="2"
     inkscape:zoom="7.9999996"
     inkscape:cx="-3.7500002"
     inkscape:cy="29.312501"
     inkscape:document-units="px"
     inkscape:current-layer="layer1"
     inkscape:document-rotation="0"
     showgrid="true"
     inkscape:window-width="1920"
     inkscape:window-height="1004"
     inkscape:window-x="0"
     inkscape:window-y="0"
     inkscape:window-maximized="1"
     units="px"
     inkscape:snap-bbox-edge-midpoints="false"
     inkscape:lockguides="true"
     inkscape:pagecheckerboard="true"
     inkscape:showpageshadow="false"
     inkscape:deskcolor="#000000">
    <inkscape:grid
       type="xygrid"
       id="grid899"
       originx="0"
       originy="0" />
  </sodipodi:namedview>
  <metadata
     id="metadata864">
    <rdf:RDF>
      <cc:Work
         rdf:about="">
        <dc:format>image/svg+xml</dc:format>
        <dc:type
           rdf:resource="http://purl.org/dc/dcmitype/StillImage" />
      </cc:Work>
    </rdf:RDF>
  </metadata>
  <g
     inkscape:label="Layer 1"
     inkscape:groupmode="layer"
     id="layer1">
    <g
       id="redshift-status-on"
       style="fill:#1e2431;fill-opacity:1">
      <rect
         y="0"
         x="3.5527137e-15"
         height="32"
         width="32"
         id="rect910"
         style="opacity:0.003;fill:#1e2431;fill-opacity:1;stroke-width:1" />
      <ellipse
         cx="16.012499"
         cy="13.512486"
         id="circle2"
         style="fill:#1e2431;fill-opacity:1;stroke-width:0.191316"
         class="ColorScheme-Text"
         rx="2.3531966"
         ry="2.3531883" />
      <path
         d="M 15.174839,10.948846 15.480947,10.834057 15.098314,9.762686 C 15.060044,9.667028 14.964391,9.628765 14.887865,9.667028 14.811335,9.705293 14.753942,9.80095 14.792205,9.877476 Z"
         id="path4"
         style="fill:#1e2431;fill-opacity:1;stroke-width:0.191316"
         class="ColorScheme-Text" />
      <path
         d="M 16.166269,8.6721848 C 16.166269,8.5765258 16.089739,8.5 15.994084,8.5 c -0.09566,0 -0.153055,0.07653 -0.153055,0.1721848 v 2.1236082 h 0.344372 V 8.6721848 Z"
         id="path6"
         style="fill:#1e2431;fill-opacity:1;stroke-width:0.191316"
         class="ColorScheme-Text" />
      <path
         d="m 15.841029,18.352781 c 0,0.09566 0.07653,0.172184 0.172185,0.172184 0.09566,0 0.172186,-0.07653 0.172186,-0.172184 v -2.123608 h -0.344371 z"
         id="path8"
         style="fill:#1e2431;fill-opacity:1;stroke-width:0.191316"
         class="ColorScheme-Text" />
      <path
         d="m 16.949951,16.037856 -0.306106,0.114789 0.401766,1.07137 c 0.03827,0.09566 0.133922,0.133922 0.210448,0.09566 0.09566,-0.03827 0.133922,-0.133922 0.09566,-0.210448 z"
         id="path10"
         style="fill:#1e2431;fill-opacity:1;stroke-width:0.191316"
         class="ColorScheme-Text" />
      <path
         d="m 13.908015,11.771507 0.210449,-0.248712 -0.860926,-0.746133 c -0.07653,-0.05739 -0.172185,-0.05739 -0.229581,0.01913 -0.05739,0.07653 -0.05739,0.172185 0.01913,0.22958 z"
         id="path12"
         style="fill:#1e2431;fill-opacity:1;stroke-width:0.191316"
         class="ColorScheme-Text" />
      <path
         d="m 14.443702,11.293216 0.286975,-0.172185 -1.071373,-1.8557663 c -0.03827,-0.07653 -0.153054,-0.1147898 -0.229581,-0.057393 -0.07653,0.038265 -0.114791,0.1530531 -0.05739,0.2295797 z"
         id="path14-3"
         style="fill:#1e2431;fill-opacity:1;stroke-width:0.191316"
         class="ColorScheme-Text" />
      <path
         d="m 17.581298,15.73175 -0.286975,0.172185 1.071374,1.836634 c 0.03827,0.07653 0.153053,0.11479 0.22958,0.05739 0.07653,-0.03827 0.114791,-0.153053 0.05739,-0.22958 z"
         id="path16"
         style="fill:#1e2431;fill-opacity:1;stroke-width:0.191316"
         class="ColorScheme-Text" />
      <path
         d="m 18.078722,15.234328 -0.210448,0.248711 0.880056,0.746134 c 0.07653,0.05739 0.172185,0.05739 0.229581,-0.01913 0.05739,-0.07653 0.05739,-0.172185 -0.01913,-0.22958 z"
         id="path18"
         style="fill:#1e2431;fill-opacity:1;stroke-width:0.191316"
         class="ColorScheme-Text" />
      <path
         d="m 12.243558,12.517639 c -0.09566,-0.01913 -0.172184,0.03827 -0.191316,0.133921 -0.01913,0.09566 0.03827,0.172185 0.133921,0.191317 l 1.128769,0.191316 0.05739,-0.325238 z"
         id="path20"
         style="fill:#1e2431;fill-opacity:1;stroke-width:0.191316"
         class="ColorScheme-Text" />
      <path
         d="m 11.68874,11.312348 1.836641,1.07137 0.172186,-0.286974 -1.836641,-1.071371 c -0.07653,-0.03826 -0.191319,-0.01913 -0.229582,0.05739 -0.05739,0.07653 -0.01913,0.172185 0.05739,0.22958 z"
         id="path22"
         style="fill:#1e2431;fill-opacity:1;stroke-width:0.191316"
         class="ColorScheme-Text" />
      <path
         d="m 20.33626,15.712619 -1.836642,-1.071372 -0.172185,0.286975 1.836642,1.07137 c 0.07653,0.03827 0.191317,0.01913 0.22958,-0.05739 0.03827,-0.07653 0.01913,-0.191317 -0.0574,-0.229579 z"
         id="path24"
         style="fill:#1e2431;fill-opacity:1;stroke-width:0.191316"
         class="ColorScheme-Text" />
      <path
         d="m 19.743178,14.488195 c 0.09566,0.01913 0.172186,-0.03827 0.191317,-0.13392 0.01913,-0.09566 -0.03827,-0.172185 -0.133922,-0.191317 l -1.128769,-0.191317 -0.05739,0.325238 z"
         id="path26"
         style="fill:#1e2431;fill-opacity:1;stroke-width:0.191316"
         class="ColorScheme-Text" />
      <path
         d="m 12.1479,14.736906 c 0.03827,0.09566 0.133922,0.133922 0.210449,0.09566 l 1.071374,-0.401764 -0.114791,-0.306107 -1.071374,0.401764 c -0.07653,0.03827 -0.11479,0.133922 -0.09566,0.210448 z"
         id="path28"
         style="fill:#1e2431;fill-opacity:1;stroke-width:0.191316"
         class="ColorScheme-Text" />
      <path
         d="m 13.295801,13.416824 h -2.123615 c -0.09566,0 -0.172186,0.07653 -0.172186,0.172185 0,0.09566 0.07653,0.172185 0.172186,0.172185 h 2.123615 z"
         id="path30"
         style="fill:#1e2431;fill-opacity:1;stroke-width:0.191316"
         class="ColorScheme-Text" />
      <path
         d="M 20.852815,13.263771 H 18.7292 v 0.34437 h 2.123615 c 0.09566,0 0.172185,-0.07653 0.172185,-0.172185 0,-0.09566 -0.07653,-0.172185 -0.172185,-0.172185 z"
         id="path32"
         style="fill:#1e2431;fill-opacity:1;stroke-width:0.191316"
         class="ColorScheme-Text" />
      <path
         d="M 19.838837,12.28806 C 19.800567,12.1924 19.704914,12.154138 19.628388,12.1924 l -1.071374,0.401765 0.11479,0.306105 1.071374,-0.401763 c 0.07653,-0.03827 0.11479,-0.133922 0.09566,-0.210448 z"
         id="path34"
         style="fill:#1e2431;fill-opacity:1;stroke-width:0.191316"
         class="ColorScheme-Text" />
      <path
         d="m 14.252386,15.597829 -0.248713,-0.210448 -0.746135,0.880055 c -0.05739,0.07653 -0.05739,0.172183 0.01913,0.229578 0.07653,0.05739 0.172186,0.05739 0.229581,-0.01913 z"
         id="path36"
         style="fill:#1e2431;fill-opacity:1;stroke-width:0.191316"
         class="ColorScheme-Text" />
      <path
         d="m 13.62104,14.794301 -1.836641,1.071371 c -0.07653,0.03827 -0.114792,0.153052 -0.05739,0.229579 0.05739,0.07653 0.153053,0.11479 0.229578,0.05739 l 1.836641,-1.071367 z"
         id="path38"
         style="fill:#1e2431;fill-opacity:1;stroke-width:0.191316"
         class="ColorScheme-Text" />
      <path
         d="m 18.403961,12.230664 1.83664,-1.07137 c 0.07653,-0.03827 0.114791,-0.153053 0.0574,-0.229579 -0.0574,-0.07653 -0.153053,-0.11479 -0.22958,-0.05739 l -1.836641,1.071372 z"
         id="path40"
         style="fill:#1e2431;fill-opacity:1;stroke-width:0.191316"
         class="ColorScheme-Text" />
      <path
         d="m 17.734351,11.427137 0.248712,0.210448 0.746137,-0.880055 c 0.05739,-0.07653 0.05739,-0.172184 -0.01913,-0.229579 -0.07653,-0.0574 -0.172186,-0.0574 -0.229581,0.01913 z"
         id="path42"
         style="fill:#1e2431;fill-opacity:1;stroke-width:0.191316"
         class="ColorScheme-Text" />
      <path
         d="m 14.894691,17.262279 c -0.01913,0.09566 0.03827,0.172185 0.13392,0.191317 0.09566,0.01913 0.172186,-0.03827 0.191318,-0.133922 l 0.191317,-1.128765 -0.325239,-0.05739 z"
         id="path44"
         style="fill:#1e2431;fill-opacity:1;stroke-width:0.191316"
         class="ColorScheme-Text" />
      <path
         d="m 13.50625,17.664042 c -0.03827,0.07653 -0.01913,0.191317 0.05739,0.22958 0.07653,0.03827 0.191317,0.01913 0.22958,-0.05739 l 1.071374,-1.836635 -0.286976,-0.172185 z"
         id="path46"
         style="fill:#1e2431;fill-opacity:1;stroke-width:0.191316"
         class="ColorScheme-Text" />
      <path
         d="m 18.499618,9.3609229 c 0.03827,-0.07653 0.01913,-0.1913164 -0.05739,-0.2295797 -0.07653,-0.038265 -0.191318,-0.019127 -0.229581,0.057393 l -1.071374,1.8366348 0.286976,0.172185 z"
         id="path48"
         style="fill:#1e2431;fill-opacity:1;stroke-width:0.191316"
         class="ColorScheme-Text" />
      <path
         d="m 16.988215,9.781818 c 0.01913,-0.09566 -0.03827,-0.1721848 -0.13392,-0.1913164 -0.09566,-0.019128 -0.172186,0.038265 -0.191318,0.1339214 l -0.191317,1.128765 0.325239,0.05739 z"
         id="path50"
         style="fill:#1e2431;fill-opacity:1;stroke-width:0.191316"
         class="ColorScheme-Text" />
      <path
         d="m 16.056414,4 c 5.266808,0 9.456586,4.249364 9.456586,9.456412 0,3.83035 -2.274293,7.241987 -5.805528,8.738127 v 2.154553 C 19.707472,26.324203 18.091432,28 16.056504,28 14.021567,28 12.405527,26.324203 12.405527,24.349092 V 22.194539 C 8.8742519,20.698227 6.6,17.286548 6.6,13.456412 6.6,8.249278 10.849438,4 16.056584,4 Z m -2.453955,20 h 4.90808 v -2.224517 c 0,-0.239396 0.179634,-0.578569 0.419039,-0.638483 3.231908,-1.196998 5.287204,-4.20987 5.287204,-7.681293 0,-4.5484205 -3.710719,-8.159707 -8.259564,-8.159707 -4.548504,0 -8.060218,3.611306 -8.060218,8.160068 0,3.471252 2.0548419,6.483934 5.287051,7.680932 0.239395,0.05993 0.419038,0.3991 0.419038,0.638483 V 24 Z M 16,25 Z"
         id="path396"
         style="fill:#1e2431;fill-opacity:1;stroke-width:0.0428574"
         sodipodi:nodetypes="cscssscsccccscssscsccccccc" />
    </g>
    <g
       id="redshift-status-off"
       style="fill:#1e2431;fill-opacity:1">
      <rect
         style="opacity:0.003;fill:#1e2431;fill-opacity:1;stroke-width:1"
         id="rect1033"
         width="32"
         height="32"
         x="32"
         y="0" />
      <path
         d="m 48.106414,4 c 5.266808,0 9.456586,4.249364 9.456586,9.456412 0,3.83035 -2.274293,7.241987 -5.805528,8.738127 v 2.154553 C 51.757472,26.324203 50.141432,28 48.106504,28 46.071567,28 44.455527,26.324203 44.455527,24.349092 V 22.194539 C 40.924252,20.698227 38.65,17.286548 38.65,13.456412 38.65,8.249278 42.899438,4 48.106584,4 Z m -2.453955,20 h 4.90808 v -2.224517 c 0,-0.239396 0.179634,-0.578569 0.419039,-0.638483 3.231908,-1.196998 5.287204,-4.209509 5.287204,-7.680932 0,-4.54842 -3.710719,-8.159068 -8.259564,-8.159068 -4.548504,0 -8.060218,3.610306 -8.060218,8.159068 0,3.471252 2.054842,6.483934 5.287051,7.680932 0.239395,0.05993 0.419038,0.3991 0.419038,0.638483 V 24 Z M 48,25 Z"
         id="path396-5"
         style="fill:#1e2431;fill-opacity:1;stroke-width:0.0428574"
         sodipodi:nodetypes="cscssscsccccscssscscccccc" />
    </g>
    <g
       id="22-22-redshift-status-off"
       style="fill:#1e2431;fill-opacity:1">
      <rect
         style="opacity:0.003;fill:#1e2431;fill-opacity:1"
         id="rect1467-9-7-9-9-4-67"
         width="22"
         height="22"
         x="-22"
         y="10" />
      <path
         d="m -10.945725,13 c 3.511204,0 6.304394,2.832906 6.304394,6.304275 0,2.553567 -1.5162,4.82799 -3.870349,5.825417 v 1.436369 C -8.51168,27.882802 -9.589047,29 -10.94566,29 c -1.356625,0 -2.433991,-1.117198 -2.433991,-2.433939 V 25.129692 C -15.73383,24.132152 -17.25,21.857699 -17.25,19.304275 -17.25,15.832856 -14.417042,13 -10.945603,13 Z m -1.635973,13 H -9.51 v -1.45 c 0,-0.159597 0.220393,-0.519057 0.38,-0.559 2.154599,-0.797999 3.392,-2.272694 3.392,-4.586977 0,-3.032285 -2.1749465,-5.206023 -5.2075,-5.206023 -3.032339,0 -5.1065,2.073542 -5.1065,5.106045 0,2.314169 1.136202,3.888956 3.291,4.686955 0.159605,0.03995 0.36902,0.399789 0.38,0.559 V 26 Z M -9,27 h -4 2 z"
         id="path396-7-9"
         style="fill:#1e2431;fill-opacity:1;stroke-width:0.0285715"
         sodipodi:nodetypes="cscssscsccccscssscscccccc" />
    </g>
    <g
       id="22-22-redshift-status-on"
       style="fill:#1e2431;fill-opacity:1">
      <rect
         y="10"
         x="-44"
         height="22"
         width="22"
         id="rect1467-9-7-9-9-4"
         style="opacity:0.003;fill:#1e2431;fill-opacity:1" />
      <ellipse
         cx="-32.975006"
         cy="19.341656"
         id="circle2-36"
         style="color:#d1d5e9;fill:#1e2431;fill-opacity:1;stroke-width:0.127548"
         class="ColorScheme-Text"
         rx="1.5687985"
         ry="1.5687916" />
      <path
         d="m -33.53344,17.63256 0.204069,-0.0765 -0.255091,-0.714248 c -0.02549,-0.06371 -0.08928,-0.08928 -0.140299,-0.06371 -0.05097,0.02548 -0.08928,0.08928 -0.06372,0.140297 z"
         id="path4-7"
         style="color:#d1d5e9;fill:#1e2431;fill-opacity:1;stroke-width:0.127548"
         class="ColorScheme-Text" />
      <path
         d="M -32.87248,16.114798 C -32.87248,16.051048 -32.92345,16 -32.987277,16 c -0.06374,0 -0.102035,0.05097 -0.102035,0.114798 v 1.415727 h 0.229581 v -1.415727 z"
         id="path6-5"
         style="color:#d1d5e9;fill:#1e2431;fill-opacity:1;stroke-width:0.127548"
         class="ColorScheme-Text" />
      <path
         d="m -33.089312,22.56852 c 0,0.06377 0.05097,0.114789 0.114787,0.114789 0.06373,0 0.114794,-0.05101 0.114794,-0.114789 v -1.415739 h -0.229581 z"
         id="path8-3"
         style="color:#d1d5e9;fill:#1e2431;fill-opacity:1;stroke-width:0.127548"
         class="ColorScheme-Text" />
      <path
         d="m -32.350036,21.025238 -0.204063,0.07653 0.267846,0.714245 c 0.02549,0.06377 0.08928,0.08928 0.140294,0.06377 0.06376,-0.02552 0.08928,-0.08928 0.06376,-0.1403 z"
         id="path10-5"
         style="color:#d1d5e9;fill:#1e2431;fill-opacity:1;stroke-width:0.127548"
         class="ColorScheme-Text" />
      <path
         d="m -34.377987,18.181006 0.140294,-0.16581 -0.573949,-0.497417 c -0.05097,-0.03822 -0.114787,-0.03822 -0.153049,0.01274 -0.03822,0.05097 -0.03822,0.114796 0.01274,0.153062 z"
         id="path12-6"
         style="color:#d1d5e9;fill:#1e2431;fill-opacity:1;stroke-width:0.127548"
         class="ColorScheme-Text" />
      <path
         d="m -34.020861,17.862151 0.19131,-0.114799 -0.71425,-1.237182 c -0.02549,-0.05097 -0.102031,-0.07651 -0.153048,-0.03822 -0.05097,0.02548 -0.07652,0.102042 -0.03822,0.153058 z"
         id="path14-3-29"
         style="color:#d1d5e9;fill:#1e2431;fill-opacity:1;stroke-width:0.127548"
         class="ColorScheme-Text" />
      <path
         d="m -31.929128,20.821166 -0.191327,0.114791 0.714252,1.224422 c 0.02549,0.05101 0.102043,0.07653 0.153058,0.03826 0.05097,-0.02552 0.07651,-0.102036 0.03822,-0.153053 z"
         id="path16-1"
         style="color:#d1d5e9;fill:#1e2431;fill-opacity:1;stroke-width:0.127548"
         class="ColorScheme-Text" />
      <path
         d="m -31.597518,20.489551 -0.140293,0.165808 0.586699,0.497422 c 0.05097,0.03827 0.114792,0.03827 0.153047,-0.01275 0.03822,-0.05101 0.03822,-0.114789 -0.01274,-0.153053 z"
         id="path18-2"
         style="color:#d1d5e9;fill:#1e2431;fill-opacity:1;stroke-width:0.127548"
         class="ColorScheme-Text" />
      <path
         d="m -35.48763,18.678429 c -0.06372,-0.01274 -0.114781,0.02549 -0.127546,0.08928 -0.01274,0.06375 0.02549,0.114781 0.08928,0.127546 l 0.752511,0.127545 0.03822,-0.216827 z"
         id="path20-7"
         style="color:#d1d5e9;fill:#1e2431;fill-opacity:1;stroke-width:0.127548"
         class="ColorScheme-Text" />
      <path
         d="m -35.857503,17.874904 1.224422,0.714245 0.114796,-0.191312 -1.224435,-0.714249 c -0.05097,-0.02548 -0.127537,-0.01274 -0.153053,0.03822 -0.03822,0.05097 -0.01274,0.114784 0.03822,0.153051 z"
         id="path22-0"
         style="color:#d1d5e9;fill:#1e2431;fill-opacity:1;stroke-width:0.127548"
         class="ColorScheme-Text" />
      <path
         d="m -30.092486,20.808412 -1.224436,-0.714252 -0.114787,0.191322 1.224425,0.714246 c 0.05097,0.02551 0.127551,0.01275 0.153046,-0.03826 0.02549,-0.05101 0.01274,-0.127545 -0.03823,-0.153053 z"
         id="path24-9"
         style="color:#d1d5e9;fill:#1e2431;fill-opacity:1;stroke-width:0.127548"
         class="ColorScheme-Text" />
      <path
         d="m -30.487879,19.992129 c 0.06372,0.01275 0.114785,-0.02551 0.127549,-0.08928 0.01274,-0.06375 -0.02549,-0.114785 -0.08928,-0.127547 l -0.752516,-0.127542 -0.03822,0.216823 z"
         id="path26-3"
         style="color:#d1d5e9;fill:#1e2431;fill-opacity:1;stroke-width:0.127548"
         class="ColorScheme-Text" />
      <path
         d="m -35.551399,20.157939 c 0.02549,0.06375 0.08928,0.08928 0.140303,0.06375 l 0.714247,-0.267843 -0.07652,-0.204066 -0.714247,0.267844 c -0.05097,0.02552 -0.07651,0.08928 -0.06372,0.140296 z"
         id="path28-60"
         style="color:#d1d5e9;fill:#1e2431;fill-opacity:1;stroke-width:0.127548"
         class="ColorScheme-Text" />
      <path
         d="m -34.786131,19.27788 h -1.415749 c -0.06375,0 -0.114783,0.05099 -0.114783,0.114794 0,0.06374 0.05097,0.114785 0.114783,0.114785 h 1.415749 z"
         id="path30-6"
         style="color:#d1d5e9;fill:#1e2431;fill-opacity:1;stroke-width:0.127548"
         class="ColorScheme-Text" />
      <path
         d="m -29.748125,19.175849 h -1.415738 v 0.229577 h 1.415738 c 0.06373,0 0.114794,-0.05099 0.114794,-0.114786 0,-0.06376 -0.05097,-0.114791 -0.114794,-0.114791 z"
         id="path32-2"
         style="color:#d1d5e9;fill:#1e2431;fill-opacity:1;stroke-width:0.127548"
         class="ColorScheme-Text" />
      <path
         d="m -30.424111,18.525366 c -0.02549,-0.06372 -0.08928,-0.08928 -0.140299,-0.06372 l -0.714252,0.267842 0.07651,0.204066 0.714248,-0.267842 c 0.05097,-0.02549 0.07651,-0.08928 0.06372,-0.140299 z"
         id="path34-6"
         style="color:#d1d5e9;fill:#1e2431;fill-opacity:1;stroke-width:0.127548"
         class="ColorScheme-Text" />
      <path
         d="m -34.148412,20.731885 -0.165811,-0.140297 -0.497419,0.586703 c -0.03822,0.05102 -0.03822,0.114789 0.01274,0.153051 0.05097,0.03827 0.114781,0.03827 0.153047,-0.01275 z"
         id="path36-1"
         style="color:#d1d5e9;fill:#1e2431;fill-opacity:1;stroke-width:0.127548"
         class="ColorScheme-Text" />
      <path
         d="m -34.569303,20.196202 -1.224435,0.714246 c -0.05097,0.02551 -0.0765,0.102035 -0.03822,0.153052 0.03822,0.05102 0.102043,0.07653 0.153061,0.03826 l 1.224418,-0.714246 z"
         id="path38-8"
         style="color:#d1d5e9;fill:#1e2431;fill-opacity:1;stroke-width:0.127548"
         class="ColorScheme-Text" />
      <path
         d="m -31.380691,18.487117 1.224422,-0.714248 c 0.05097,-0.02549 0.07652,-0.102045 0.03823,-0.153062 -0.03823,-0.05097 -0.102029,-0.07651 -0.153046,-0.03822 l -1.224435,0.714243 z"
         id="path40-7"
         style="color:#d1d5e9;fill:#1e2431;fill-opacity:1;stroke-width:0.127548"
         class="ColorScheme-Text" />
      <path
         d="m -31.827094,17.951432 0.165811,0.140293 0.49742,-0.586699 c 0.03822,-0.05097 0.03822,-0.114798 -0.01274,-0.153062 -0.05097,-0.03823 -0.114782,-0.03823 -0.153047,0.01274 z"
         id="path42-9"
         style="color:#d1d5e9;fill:#1e2431;fill-opacity:1;stroke-width:0.127548"
         class="ColorScheme-Text" />
      <path
         d="m -33.720202,21.841519 c -0.01274,0.06377 0.02549,0.114791 0.08928,0.127545 0.06374,0.01275 0.114782,-0.02552 0.127547,-0.08928 l 0.127535,-0.752511 -0.216817,-0.03826 z"
         id="path44-2"
         style="color:#d1d5e9;fill:#1e2431;fill-opacity:1;stroke-width:0.127548"
         class="ColorScheme-Text" />
      <path
         d="m -34.645832,22.109362 c -0.02549,0.05101 -0.01274,0.127543 0.03822,0.153052 0.05097,0.02551 0.127542,0.01275 0.153047,-0.03826 l 0.714249,-1.224422 -0.191315,-0.114791 z"
         id="path46-0"
         style="color:#d1d5e9;fill:#1e2431;fill-opacity:1;stroke-width:0.127548"
         class="ColorScheme-Text" />
      <path
         d="m -31.316922,16.573951 c 0.02549,-0.05097 0.01274,-0.127546 -0.03822,-0.153063 -0.05097,-0.02548 -0.127546,-0.01274 -0.15305,0.03822 l -0.714249,1.224425 0.191312,0.114785 z"
         id="path48-2"
         style="color:#d1d5e9;fill:#1e2431;fill-opacity:1;stroke-width:0.127548"
         class="ColorScheme-Text" />
      <path
         d="m -32.324519,16.854541 c 0.01274,-0.06372 -0.02549,-0.114781 -0.08928,-0.127542 -0.06372,-0.01274 -0.114799,0.02548 -0.127547,0.08928 l -0.127551,0.752511 0.216833,0.03822 z"
         id="path50-3"
         style="color:#d1d5e9;fill:#1e2431;fill-opacity:1;stroke-width:0.127548"
         class="ColorScheme-Text" />
      <path
         d="m -32.945725,13 c 3.511204,0 6.304394,2.832906 6.304394,6.304275 0,2.553567 -1.5162,4.82799 -3.870349,5.825417 v 1.436369 c 0,1.316741 -1.077367,2.433939 -2.43398,2.433939 -1.356625,0 -2.433991,-1.117198 -2.433991,-2.433939 V 25.129692 C -37.73383,24.132152 -39.25,21.857699 -39.25,19.304275 -39.25,15.832856 -36.417042,13 -32.945603,13 Z m -1.635973,13 H -31.51 v -1.45 c 0,-0.159597 0.220393,-0.519057 0.38,-0.559 2.154599,-0.797999 3.392,-2.272694 3.392,-4.586977 0,-3.032285 -2.174946,-5.206023 -5.2075,-5.206023 -3.032339,0 -5.1065,2.073542 -5.1065,5.106045 0,2.314169 1.136202,3.888956 3.291,4.686955 0.159605,0.03995 0.36902,0.399789 0.38,0.559 V 26 Z M -31,27 h -4 2 z"
         id="path396-7-9-3"
         style="fill:#1e2431;fill-opacity:1;stroke-width:0.0285715"
         sodipodi:nodetypes="cscssscsccccscssscscccccc" />
    </g>
  </g>
</svg>
