<?xml version="1.0" encoding="UTF-8" standalone="no"?>
<svg
   width="32"
   height="32"
   version="1.1"
   id="svg22"
   sodipodi:docname="sirikali.svg"
   inkscape:version="1.2.2 (b0a8486541, 2022-12-01)"
   xmlns:inkscape="http://www.inkscape.org/namespaces/inkscape"
   xmlns:sodipodi="http://sodipodi.sourceforge.net/DTD/sodipodi-0.dtd"
   xmlns="http://www.w3.org/2000/svg"
   xmlns:svg="http://www.w3.org/2000/svg">
  <g
     id="22-22-sirikali-panel"
     transform="translate(32,-22.000025)">
    <rect
       style="opacity:0.00100002;fill:#bac8df;fill-opacity:1"
       width="22"
       height="22"
       x="0"
       y="0"
       id="rect12" />
    <path
       d="m 9.1249888,10.428594 c -0.621318,0 -1.124983,0.511668 -1.124983,1.142848 v 2.285711 c 0,0.631233 0.503665,1.142844 1.124983,1.142844 h 3.7500342 c 0.621327,0 1.124983,-0.511611 1.124983,-1.142844 v -2.285711 c 0,-0.63118 -0.503656,-1.142848 -1.124983,-1.142848 V 8.9048082 c 0,-1.051787 -0.839642,-1.904811 -1.87501,-1.904811 -1.0353698,0 -1.8750242,0.852996 -1.8750242,1.904811 z m 3.0000032,0 V 8.9048082 c 0,-0.631251 -0.503604,-1.142851 -1.124979,-1.142851 -0.621382,0 -1.1249872,0.5116 -1.1249872,1.142851 v 1.5237858 z"
       fill-rule="evenodd"
       id="path3240-5-5"
       style="fill:#1e2431;fill-opacity:1;stroke-width:0.0161978" />
    <path
       style="color:#d6dbf1;fill:none;fill-opacity:1;stroke:#1e2431;stroke-width:1.06938;stroke-linecap:round;stroke-miterlimit:4;stroke-dasharray:none;stroke-opacity:1;stop-color:#31363b"
       sodipodi:type="arc"
       sodipodi:cx="-11.000002"
       sodipodi:cy="-11.000008"
       sodipodi:rx="7.4676995"
       sodipodi:ry="7.4676995"
       sodipodi:start="3.7596615"
       sodipodi:end="3.7574109"
       sodipodi:open="true"
       sodipodi:arc-type="arc"
       transform="scale(-1)"
       d="m -17.08617,-15.327258 a 7.4676995,7.4676995 0 0 1 10.4099938,-1.761351 7.4676995,7.4676995 0 0 1 1.7672076,10.4090006 7.4676995,7.4676995 0 0 1 -10.4080044,1.773064 7.4676995,7.4676995 0 0 1 -1.77892,-10.4070056"
       id="path7-3-5-6"
       class="ColorScheme-Text" />
    <path
       style="color:#d5c289;fill:#bac8df;fill-opacity:1;stroke-width:0.303134"
       class="ColorScheme-Text"
       d="m 12.925013,13.383991 c 0.126643,-0.09416 0.220158,-0.181833 0.282702,-0.28263 0.06258,-0.10077 0.0868,-0.219631 0.06947,-0.329148 -0.03437,-0.219033 -0.181499,-0.394909 -0.364926,-0.647227 l -0.0019,-0.0014 -0.593016,-0.797066 -0.0019,-0.0015 c -0.189079,-0.248129 -0.315228,-0.439485 -0.515033,-0.535583 -0.09988,-0.04806 -0.220742,-0.05895 -0.335222,-0.02811 -0.114513,0.03097 -0.225377,0.09536 -0.351955,0.189526 l -0.75665,0.562988 c -0.126564,0.09416 -0.2202,0.18185 -0.282674,0.282626 -0.06255,0.100788 -0.08628,0.21929 -0.069,0.328806 0.03012,0.190403 0.152481,0.355625 0.302511,0.559364 l -0.4723812,0.352963 -0.04739,0.221957 -0.212073,-0.0311 -0.03113,0.212075 -0.212076,-0.0311 -0.03114,0.212072 -0.424548,-0.06237 -0.155681,1.060338 0.848299,0.124528 1.4607412,-1.08756 c 0.151051,0.20299 0.276221,0.366181 0.448846,0.450511 0.0999,0.04806 0.220732,0.05895 0.335236,0.02809 0.11452,-0.03089 0.224937,-0.09499 0.351525,-0.18915 z m -0.180889,-0.243205 -0.75674,0.562968 c -0.109806,0.08175 -0.193276,0.124135 -0.249794,0.139365 -0.05649,0.01522 -0.08349,0.01174 -0.124896,-0.0082 -0.08268,-0.03978 -0.215038,-0.196754 -0.404998,-0.446193 l -0.114495,-0.153906 -1.6013652,1.19216 -0.424149,-0.06226 0.06761,-0.460594 0.424145,0.06226 0.03115,-0.212074 0.212072,0.0311 0.03113,-0.212077 0.1930292,0.0283 0.08321,-0.388074 0.621655,-0.464742 -0.114149,-0.153427 c -0.184443,-0.253477 -0.296578,-0.425526 -0.310959,-0.51616 -0.007,-0.0453 -0.002,-0.07225 0.02815,-0.121962 0.03092,-0.04973 0.09539,-0.11747 0.205268,-0.199219 l 0.756684,-0.562963 c 0.109848,-0.08175 0.193827,-0.124472 0.250228,-0.139714 0.05652,-0.01519 0.08309,-0.01138 0.124432,0.0086 0.08257,0.03971 0.215346,0.196275 0.404384,0.444429 l 0.002,0.002 0.590196,0.793271 0.002,0.0019 c 0.183269,0.252436 0.295165,0.424674 0.309462,0.515102 0.0065,0.04529 0.0053,0.07192 -0.02708,0.121617 -0.0312,0.04974 -0.09588,0.117812 -0.205772,0.199562 z m -0.677719,-0.62925 a 0.30313132,0.30313284 0 0 0 0.06221,-0.424149 0.30313132,0.30313284 0 0 0 -0.424081,-0.06226 0.30313132,0.30313284 0 0 0 -0.06226,0.424149 0.30313132,0.30313284 0 0 0 0.424189,0.06226 z"
       id="path58-7-6-3-6-2" />
  </g>
  <defs
     id="defs26" />
  <sodipodi:namedview
     id="namedview24"
     pagecolor="#000000"
     bordercolor="#0906ee"
     borderopacity="1"
     inkscape:showpageshadow="false"
     inkscape:pageopacity="0"
     inkscape:pagecheckerboard="true"
     inkscape:deskcolor="#000000"
     showgrid="true"
     inkscape:zoom="7.375"
     inkscape:cx="17.559322"
     inkscape:cy="11.389831"
     inkscape:window-width="1920"
     inkscape:window-height="994"
     inkscape:window-x="0"
     inkscape:window-y="0"
     inkscape:window-maximized="1"
     inkscape:current-layer="svg22">
    <inkscape:grid
       type="xygrid"
       id="grid725"
       originx="0"
       originy="-2.5e-05" />
  </sodipodi:namedview>
  <g
     id="sirikali">
    <rect
       style="opacity:0.00100002;fill:#bac8df;fill-opacity:1"
       width="32"
       height="32"
       x="0"
       y="0"
       id="rect7" />
    <path
       d="M 12.768713,15.00003 C 11.681422,15.00003 10.8,15.895449 10.8,17.000025 v 3.999984 C 10.8,22.104688 11.681422,23 12.768713,23 h 6.56258 C 20.418588,23 21.3,22.104688 21.3,21.000009 v -3.999984 c 0,-1.104576 -0.881412,-1.999995 -1.968707,-1.999995 V 12.333413 C 19.331293,10.4928 17.861895,9 16.050008,9 c -1.811891,0 -3.281295,1.492735 -3.281295,3.333413 z m 5.249999,0 v -2.666617 c 0,-1.104676 -0.881306,-1.999991 -1.968704,-1.999991 -1.087406,0 -1.968714,0.895315 -1.968714,1.999991 v 2.666617 z"
       fill-rule="evenodd"
       id="path3240"
       style="fill:#1e2431;fill-opacity:1;stroke-width:0.0283474" />
    <path
       style="color:#d6dbf1;fill:none;fill-opacity:1;stroke:#1e2431;stroke-width:1.60402;stroke-linecap:round;stroke-miterlimit:4;stroke-dasharray:none;stroke-opacity:1;stop-color:#31363b"
       sodipodi:type="arc"
       sodipodi:cx="-16.000002"
       sodipodi:cy="-16.000006"
       sodipodi:rx="11.201572"
       sodipodi:ry="11.201572"
       sodipodi:start="3.7596615"
       sodipodi:end="3.7574109"
       sodipodi:open="true"
       sodipodi:arc-type="arc"
       transform="scale(-1)"
       d="m -25.129272,-22.490895 a 11.201572,11.201572 0 0 1 15.615022,-2.642032 11.201572,11.201572 0 0 1 2.6508169,15.6135335 11.201572,11.201572 0 0 1 -15.6120389,2.6596015 11.201572,11.201572 0 0 1 -2.668386,-15.61054"
       id="path7-7"
       class="ColorScheme-Text" />
    <path
       style="color:#d5c289;fill:#bac8df;fill-opacity:1;stroke-width:0.454696"
       class="ColorScheme-Text"
       d="m 18.847399,19.960054 c 0.189964,-0.141246 0.330237,-0.272751 0.424054,-0.423947 0.09379,-0.151155 0.130203,-0.329447 0.104265,-0.493723 -0.05157,-0.32855 -0.27225,-0.592364 -0.54739,-0.970841 l -0.002,-0.0021 -0.889526,-1.195602 -0.002,-0.0023 c -0.283619,-0.372195 -0.472844,-0.659229 -0.772553,-0.803376 -0.149826,-0.07209 -0.331113,-0.08843 -0.502833,-0.04217 -0.171767,0.04645 -0.338064,0.143045 -0.52793,0.284289 l -1.134982,0.844483 c -0.189844,0.141245 -0.3303,0.272776 -0.424012,0.423941 -0.09376,0.151182 -0.129438,0.328935 -0.103506,0.493209 0.04513,0.285605 0.228722,0.533439 0.453769,0.839048 l -0.708576,0.529444 -0.07114,0.332938 -0.318111,-0.04666 -0.04673,0.318112 -0.318109,-0.04666 -0.04674,0.318109 -0.636828,-0.09355 L 12.543,21.813207 13.815457,22 16.006564,20.368657 c 0.22658,0.304485 0.414338,0.549272 0.673271,0.675767 0.149849,0.07208 0.331103,0.08843 0.502855,0.04213 0.171781,-0.04633 0.337409,-0.14248 0.52729,-0.283725 z m -0.271333,-0.364809 -1.135111,0.844454 c -0.16471,0.122626 -0.289914,0.186202 -0.374691,0.209047 -0.08469,0.02283 -0.125265,0.01761 -0.187346,-0.0123 -0.124048,-0.05967 -0.322557,-0.295132 -0.607501,-0.669291 l -0.171739,-0.230859 -2.402051,1.788244 -0.636226,-0.09339 0.101409,-0.690892 0.636223,0.09338 0.04675,-0.318113 0.318105,0.04666 0.04673,-0.318115 0.289541,0.04244 0.124808,-0.582113 0.932484,-0.697113 -0.171225,-0.230142 c -0.276664,-0.380219 -0.444865,-0.638292 -0.466441,-0.774244 -0.01086,-0.06795 -0.0039,-0.108371 0.04216,-0.182943 0.04632,-0.07459 0.143091,-0.176205 0.307907,-0.298829 l 1.135026,-0.844446 c 0.164771,-0.122625 0.290744,-0.186709 0.375343,-0.209571 0.08473,-0.02279 0.124664,-0.01707 0.186642,0.01283 0.123811,0.05957 0.323023,0.294413 0.606582,0.666644 l 0.003,0.003 0.885294,1.189908 0.003,0.0029 c 0.274906,0.378655 0.442747,0.637013 0.464194,0.772655 0.01036,0.06793 0.0073,0.107884 -0.04067,0.182426 -0.0468,0.0746 -0.14383,0.176718 -0.308663,0.299344 z m -1.016582,-0.943876 a 0.45469779,0.45470004 0 0 0 0.0933,-0.636225 0.45469779,0.45470004 0 0 0 -0.636122,-0.09338 0.45469779,0.45470004 0 0 0 -0.09345,0.636225 0.45469779,0.45470004 0 0 0 0.636287,0.09338 z"
       id="path58-7-6-3" />
  </g>
  <g
     id="22-22-sirikali"
     transform="translate(32,9.999975)">
    <rect
       style="opacity:0.00100002;fill:#bac8df;fill-opacity:1"
       width="22"
       height="22"
       x="0"
       y="0"
       id="rect2" />
    <path
       d="m 9.1249879,10.428598 c -0.621318,0 -1.124983,0.511668 -1.124983,1.142848 v 2.285711 c 0,0.631233 0.503665,1.142844 1.124983,1.142844 h 3.7500341 c 0.621327,0 1.124983,-0.511611 1.124983,-1.142844 v -2.285711 c 0,-0.63118 -0.503656,-1.142848 -1.124983,-1.142848 V 8.9048118 c 0,-1.051787 -0.839642,-1.904811 -1.875009,-1.904811 -1.0353708,0 -1.8750251,0.852996 -1.8750251,1.904811 z m 3.0000031,0 V 8.9048118 c 0,-0.631251 -0.503604,-1.142851 -1.124978,-1.142851 -0.621383,0 -1.1249878,0.5116 -1.1249878,1.142851 v 1.5237862 z"
       fill-rule="evenodd"
       id="path3240-5"
       style="fill:#1e2431;fill-opacity:1;stroke-width:0.0161978" />
    <path
       style="color:#d6dbf1;fill:none;fill-opacity:1;stroke:#1e2431;stroke-width:1.06938;stroke-linecap:round;stroke-miterlimit:4;stroke-dasharray:none;stroke-opacity:1;stop-color:#31363b"
       sodipodi:type="arc"
       sodipodi:cx="-11.000002"
       sodipodi:cy="-11.000008"
       sodipodi:rx="7.4676995"
       sodipodi:ry="7.4676995"
       sodipodi:start="3.7596615"
       sodipodi:end="3.7574109"
       sodipodi:open="true"
       sodipodi:arc-type="arc"
       transform="scale(-1)"
       d="m -17.08617,-15.327258 a 7.4676995,7.4676995 0 0 1 10.4099938,-1.761351 7.4676995,7.4676995 0 0 1 1.7672076,10.4090006 7.4676995,7.4676995 0 0 1 -10.4080044,1.773064 7.4676995,7.4676995 0 0 1 -1.77892,-10.4070056"
       id="path7-3-5"
       class="ColorScheme-Text" />
    <path
       style="color:#d5c289;fill:#bac8df;fill-opacity:1;stroke-width:0.303134"
       class="ColorScheme-Text"
       d="m 12.925012,13.383995 c 0.126643,-0.09416 0.220158,-0.181833 0.282702,-0.28263 0.06258,-0.10077 0.0868,-0.219631 0.06947,-0.329148 -0.03437,-0.219033 -0.181499,-0.394909 -0.364926,-0.647227 l -0.0019,-0.0014 -0.593016,-0.797066 -0.0019,-0.0015 c -0.189079,-0.248129 -0.315228,-0.439485 -0.515033,-0.535583 -0.09988,-0.04806 -0.220742,-0.05895 -0.335221,-0.02811 -0.114513,0.03097 -0.225377,0.09536 -0.351955,0.189526 l -0.756651,0.562988 c -0.126563,0.09416 -0.2202,0.18185 -0.282674,0.282626 -0.06255,0.100788 -0.08628,0.21929 -0.069,0.328806 0.03012,0.190403 0.152481,0.355625 0.302512,0.559364 l -0.472382,0.352963 -0.04739,0.221957 -0.212073,-0.0311 -0.03113,0.212075 -0.212076,-0.0311 -0.03114,0.212072 -0.424548,-0.06237 -0.155681,1.060338 0.848299,0.124528 1.460742,-1.08756 c 0.151051,0.20299 0.276221,0.366181 0.448846,0.450511 0.0999,0.04806 0.220731,0.05895 0.335235,0.02809 0.11452,-0.03089 0.224937,-0.09499 0.351525,-0.18915 z m -0.180889,-0.243205 -0.75674,0.562968 c -0.109806,0.08175 -0.193276,0.124135 -0.249794,0.139365 -0.05649,0.01522 -0.08349,0.01174 -0.124896,-0.0082 -0.08268,-0.03978 -0.215037,-0.196754 -0.404998,-0.446193 l -0.114495,-0.153906 -1.601365,1.19216 -0.424149,-0.06226 0.06761,-0.460594 0.424145,0.06226 0.03115,-0.212074 0.212072,0.0311 0.03113,-0.212077 0.193029,0.0283 0.08321,-0.388074 0.621656,-0.464742 -0.114149,-0.153427 c -0.184443,-0.253477 -0.296579,-0.425526 -0.31096,-0.51616 -0.007,-0.0453 -0.002,-0.07225 0.02815,-0.121962 0.03092,-0.04973 0.09539,-0.11747 0.205269,-0.199219 l 0.756684,-0.562963 c 0.109848,-0.08175 0.193827,-0.124472 0.250227,-0.139714 0.05652,-0.01519 0.08309,-0.01138 0.124432,0.0086 0.08257,0.03971 0.215346,0.196275 0.404384,0.444429 l 0.002,0.002 0.590196,0.793271 0.002,0.0019 c 0.183269,0.252436 0.295165,0.424674 0.309462,0.515102 0.0065,0.04529 0.0053,0.07192 -0.02708,0.121617 -0.0312,0.04974 -0.09588,0.117812 -0.205772,0.199562 z m -0.677719,-0.62925 a 0.30313132,0.30313284 0 0 0 0.06221,-0.424149 0.30313132,0.30313284 0 0 0 -0.424081,-0.06226 0.30313132,0.30313284 0 0 0 -0.06226,0.424149 0.30313132,0.30313284 0 0 0 0.424189,0.06226 z"
       id="path58-7-6-3-6" />
  </g>
  <g
     id="sirikali-panel"
     transform="translate(0,-32.000025)">
    <rect
       style="opacity:0.00100002;fill:#bac8df;fill-opacity:1"
       width="32"
       height="32"
       x="0"
       y="0"
       id="rect17" />
    <path
       d="m 12.768712,15.000045 c -1.087291,0 -1.968714,0.895418 -1.968714,1.999994 v 3.999985 c 0,1.104679 0.881423,1.999991 1.968714,1.999991 h 6.56258 c 1.087295,0 1.968707,-0.895312 1.968707,-1.999991 v -3.999985 c 0,-1.104576 -0.881412,-1.999994 -1.968707,-1.999994 v -2.666617 c 0,-1.840613 -1.469398,-3.3334144 -3.281285,-3.3334144 -1.811891,0 -3.281295,1.4927364 -3.281295,3.3334144 z m 5.249999,0 v -2.666617 c 0,-1.104676 -0.881306,-1.999992 -1.968704,-1.999992 -1.087406,0 -1.968714,0.895315 -1.968714,1.999992 v 2.666617 z"
       fill-rule="evenodd"
       id="path3240-7"
       style="fill:#1e2431;fill-opacity:1;stroke-width:0.0283474" />
    <path
       style="color:#d6dbf1;fill:none;fill-opacity:1;stroke:#1e2431;stroke-width:1.60402;stroke-linecap:round;stroke-miterlimit:4;stroke-dasharray:none;stroke-opacity:1;stop-color:#31363b"
       sodipodi:type="arc"
       sodipodi:cx="-16.000002"
       sodipodi:cy="-16.00001"
       sodipodi:rx="11.201572"
       sodipodi:ry="11.201572"
       sodipodi:start="3.7596615"
       sodipodi:end="3.7574109"
       sodipodi:open="true"
       sodipodi:arc-type="arc"
       transform="scale(-1)"
       d="m -25.129272,-22.490899 a 11.201572,11.201572 0 0 1 15.615022,-2.642032 11.201572,11.201572 0 0 1 2.6508169,15.6135337 11.201572,11.201572 0 0 1 -15.6120389,2.6596014 11.201572,11.201572 0 0 1 -2.668386,-15.6105401"
       id="path7-7-5"
       class="ColorScheme-Text" />
    <path
       style="color:#d5c289;fill:#bac8df;fill-opacity:1;stroke-width:0.454696"
       class="ColorScheme-Text"
       d="m 18.847397,19.960068 c 0.189964,-0.141246 0.330237,-0.272751 0.424055,-0.423947 0.09379,-0.151154 0.130202,-0.329446 0.104264,-0.493722 -0.05157,-0.32855 -0.27225,-0.592364 -0.54739,-0.970841 l -0.002,-0.0021 -0.889525,-1.195602 -0.002,-0.0023 c -0.283619,-0.372195 -0.472844,-0.659229 -0.772553,-0.803376 -0.149825,-0.07209 -0.331113,-0.08843 -0.502833,-0.04217 -0.171767,0.04645 -0.338064,0.143046 -0.52793,0.28429 l -1.134981,0.844483 c -0.189845,0.141245 -0.3303,0.272776 -0.424012,0.423941 -0.09376,0.151181 -0.129438,0.328935 -0.103506,0.493209 0.04513,0.285605 0.228722,0.533439 0.453769,0.839048 l -0.708577,0.529444 -0.07114,0.332938 -0.318111,-0.04666 -0.04673,0.318112 -0.318109,-0.04666 -0.04674,0.318109 -0.636828,-0.09355 -0.233521,1.590509 1.272457,0.186793 2.191107,-1.631343 c 0.22658,0.304485 0.414338,0.549272 0.673271,0.675767 0.149849,0.07208 0.331103,0.08843 0.502855,0.04213 0.17178,-0.04633 0.337408,-0.14248 0.52729,-0.283725 z m -0.271333,-0.364809 -1.135111,0.844454 c -0.16471,0.122626 -0.289913,0.186202 -0.37469,0.209047 -0.08469,0.02283 -0.125265,0.01761 -0.187346,-0.0123 -0.124048,-0.05967 -0.322557,-0.295132 -0.607501,-0.669291 l -0.171739,-0.230859 -2.402052,1.788244 -0.636226,-0.09339 0.101409,-0.690892 0.636223,0.09338 0.04675,-0.318113 0.318105,0.04666 0.04673,-0.318115 0.289541,0.04244 0.124808,-0.582113 0.932484,-0.697113 -0.171225,-0.230142 c -0.276664,-0.380219 -0.444865,-0.638292 -0.466441,-0.774244 -0.01086,-0.06795 -0.0039,-0.108371 0.04216,-0.182943 0.04632,-0.07459 0.143091,-0.176205 0.307907,-0.298829 l 1.135026,-0.844446 c 0.164771,-0.122625 0.290744,-0.186709 0.375342,-0.209571 0.08473,-0.02279 0.124664,-0.01707 0.186643,0.01283 0.123811,0.05957 0.323022,0.294413 0.606581,0.666644 l 0.003,0.003 0.885294,1.189908 0.003,0.0029 c 0.274906,0.378655 0.442747,0.637013 0.464194,0.772655 0.01036,0.06793 0.0073,0.107884 -0.04067,0.182426 -0.0468,0.0746 -0.14383,0.176718 -0.308663,0.299344 z m -1.016582,-0.943876 a 0.45469779,0.45470004 0 0 0 0.0933,-0.636225 0.45469779,0.45470004 0 0 0 -0.636121,-0.09338 0.45469779,0.45470004 0 0 0 -0.09345,0.636225 0.45469779,0.45470004 0 0 0 0.636287,0.09338 z"
       id="path58-7-6-3-3" />
  </g>
</svg>
