<?xml version="1.0" encoding="UTF-8" standalone="no"?>
<svg
   width="32"
   height="32"
   version="1.1"
   id="svg22"
   sodipodi:docname="touchpad.svg"
   inkscape:version="1.2.2 (b0a8486541, 2022-12-01)"
   xmlns:inkscape="http://www.inkscape.org/namespaces/inkscape"
   xmlns:sodipodi="http://sodipodi.sourceforge.net/DTD/sodipodi-0.dtd"
   xmlns:xlink="http://www.w3.org/1999/xlink"
   xmlns="http://www.w3.org/2000/svg"
   xmlns:svg="http://www.w3.org/2000/svg"
   xmlns:rdf="http://www.w3.org/1999/02/22-rdf-syntax-ns#"
   xmlns:cc="http://creativecommons.org/ns#"
   xmlns:dc="http://purl.org/dc/elements/1.1/">
  <g
     id="22-22-touchpad_enabled"
     transform="translate(0,-22.000015)">
    <rect
       style="opacity:0.00100002"
       width="22"
       height="22"
       x="0"
       y="-2.5878907e-07"
       id="rect2" />
    <rect
       style="fill:#4e70ac;fill-opacity:1;stroke-width:0.560001;stroke-opacity:0.550265"
       height="8"
       rx="4"
       y="6.9999852"
       x="7"
       width="8"
       id="rect16-3-2-1" />
    <path
       style="color:#d1d5e9;fill:#1e2431;fill-opacity:1;fill-rule:nonzero;stroke:none;stroke-width:8.50747;stroke-miterlimit:4;stroke-dasharray:none;stroke-opacity:1"
       d="m 10.956534,8.2769327 c -0.537997,-0.0025 -0.999274,0.09739 -1.418746,0.307422 -0.139651,0.06991 -0.161386,0.09444 -0.152346,0.169922 0.01849,0.154054 0.09801,0.169009 0.333591,0.06328 0.437971,-0.196548 0.651077,-0.238463 1.203515,-0.239063 0.634034,-5.14e-4 0.867523,0.05379 1.387501,0.323048 0.08934,0.0462 0.372171,0.264523 0.477741,0.147266 0.104549,-0.104543 0.0493,-0.191073 -0.219923,-0.344141 -0.530961,-0.30187 -0.994881,-0.424814 -1.611333,-0.427734 z m -0.01641,0.622656 C 10.230278,8.8990487 9.520872,9.1795027 9.000671,9.741385 8.799424,9.95875 8.56473,10.315019 8.56473,10.403105 c 0,0.102706 0.04233,0.159378 0.119142,0.159378 0.0602,0 0.12144,-0.06494 0.267188,-0.283985 0.325961,-0.489897 0.748546,-0.814889 1.29297,-0.9945363 0.422221,-0.137804 0.916651,-0.121854 1.391792,0 0.613499,0.2016583 1.139814,0.6508913 1.428132,1.2191433 0.06275,0.123645 0.10026,0.161327 0.161714,0.161327 0.105833,0 0.167974,-0.07876 0.139065,-0.176563 C 13.318113,10.330117 13.069424,9.947884 12.881137,9.744509 12.360202,9.1818377 11.64996,8.9001247 10.940118,8.8995887 Z m 0.03359,0.6183573 c -0.151295,-0.0029 -0.304806,0.01167 -0.458205,0.04372 -0.72892,0.152363 -1.338178,0.742698 -1.533204,1.485544 -0.103496,0.394209 -0.05591,1.038105 0.114845,1.553125 0.05102,0.153912 0.07568,0.186012 0.148825,0.194535 0.168199,0.01955 0.184629,-0.06049 0.08398,-0.408597 -0.287992,-0.996027 -0.04008,-1.84342 0.674225,-2.305468 0.706179,-0.456816 1.677411,-0.321622 2.230079,0.310157 0.346324,0.395906 0.536279,1.065569 0.38515,1.357813 -0.09984,0.193064 -0.342906,0.309095 -0.542575,0.258985 -0.145916,-0.03659 -0.318879,-0.215937 -0.341019,-0.353517 -0.07813,-0.485497 -0.188419,-0.675494 -0.467576,-0.805468 -0.238131,-0.110878 -0.436619,-0.107817 -0.67031,0.01057 -0.217746,0.110289 -0.384577,0.332899 -0.418366,0.558201 -0.01221,0.08119 -0.0068,0.256889 0.01214,0.390235 0.117799,0.830621 0.71208,1.487709 1.528121,1.689845 0.102629,0.02538 0.270425,0.04339 0.373051,0.03982 l 0.186718,-0.0061 c 0.105471,-0.05353 0.111246,-0.176757 0,-0.2375 l -0.26406,-0.04026 c -0.332363,-0.05067 -0.46999,-0.09443 -0.698443,-0.223045 -0.4968,-0.279673 -0.852729,-0.885945 -0.852729,-1.452342 0,-0.249604 0.0945,-0.395406 0.31484,-0.486719 0.15921,-0.06599 0.16149,-0.06599 0.3207,0 0.201495,0.0835 0.298478,0.223252 0.323438,0.465234 0.04584,0.444096 0.354016,0.736328 0.776562,0.736328 0.339116,0 0.62456,-0.220062 0.725788,-0.559376 0.09907,-0.332072 -0.03397,-0.889822 -0.313282,-1.314063 -0.370228,-0.562232 -0.98306,-0.890171 -1.63868,-0.90156 z m -0.02191,0.643361 c -0.211152,0.003 -0.428294,0.04164 -0.606255,0.110941 -0.274389,0.134383 -0.53585,0.402755 -0.671091,0.688277 -0.102914,0.217257 -0.109049,0.251091 -0.108988,0.619923 7.6e-5,0.453781 0.05496,0.694841 0.250392,1.102348 0.168377,0.351134 0.401648,0.657383 0.660941,0.867186 0.224746,0.181857 0.248626,0.190683 0.342184,0.122268 0.09579,-0.07004 0.04234,-0.190305 -0.151171,-0.338675 -0.209837,-0.160871 -0.436478,-0.451866 -0.589454,-0.75703 -0.251268,-0.50124 -0.314574,-1.120738 -0.15078,-1.475394 0.118875,-0.257392 0.300137,-0.449394 0.531248,-0.562886 0.277673,-0.136364 0.683268,-0.136364 0.960944,0 0.33142,0.162747 0.543327,0.459101 0.618357,0.86562 0.04477,0.242663 0.11258,0.323322 0.216017,0.256641 0.04791,-0.03086 0.05836,-0.08238 0.05395,-0.267186 -0.01082,-0.449246 -0.3256,-0.900302 -0.785558,-1.126175 -0.1544,-0.07513 -0.359544,-0.108525 -0.570699,-0.105858 z"
       id="path20-6-9-2"
       class="ColorScheme-Text" />
    <path
       style="color:#d1d5e9;fill:#1e2431;fill-opacity:1;fill-rule:nonzero;stroke:none;stroke-width:8.50747;stroke-miterlimit:4;stroke-dasharray:none;stroke-opacity:1"
       d="m 11.88938,12.891012 c -0.579727,-0.126457 -1.026559,-0.637227 -1.076725,-1.230781 -0.01584,-0.187593 -0.01034,-0.212385 0.05461,-0.247158 0.123739,-0.06622 0.195254,0.0037 0.22,0.213868 0.06223,0.529484 0.451339,0.928818 0.974794,1.000402 0.2561,0.035 0.338467,0.133351 0.215071,0.25675 -0.06179,0.06179 -0.130595,0.063 -0.387724,0.0069 z"
       id="path22-7-1-7"
       class="ColorScheme-Text" />
    <path
       style="color:#d1d5e9;fill:#1e2431;fill-opacity:1;stroke-width:1"
       class="ColorScheme-Text"
       d="m 11,3 c -4.424,0 -8,3.576 -8,8 0,4.424 3.576,8 8,8 4.423999,0 8,-3.576 8,-8 0,-4.424 -3.576001,-8 -8,-8 z m 0,1 c 3.870004,0 7,3.13 7,7 0,3.870009 -3.129996,7 -7,7 C 7.130009,18 4,14.870009 4,11 4,7.13 7.130009,4 11,4 Z"
       id="path58-3-0"
       sodipodi:nodetypes="ssssssssssccc" />
  </g>
  <g
     id="touchpad_disabled"
     transform="translate(32)">
    <rect
       style="opacity:0.00100002"
       width="32"
       height="32"
       x="0"
       y="0"
       id="rect17" />
    <path
       style="color:#d1d5e9;fill:#da4453;fill-opacity:1;stroke-width:1.5"
       d="M 16,4 C 9.364,4 4,9.364 4,15.999999 4,22.636 9.364,28 16,28 22.636,28 28,22.636 28,15.999999 28,9.364 22.636,4 16,4 Z m 0,1.5 c 5.80498,0 10.5,4.695 10.5,10.499999 C 26.5,21.80498 21.80498,26.5 16,26.5 10.19498,26.5 5.5,21.80498 5.5,15.999999 5.5,10.195 10.19498,5.5 16,5.5 Z m 1.12498,8.578498 v 0 0 0 0 0 c 0,0 -0.05091,0.012 0,0 z m -1.171491,6.750005 z"
       id="path58-7-5"
       sodipodi:nodetypes="ssssssssssccccccccccccccccc"
       class="ColorScheme-Text" />
    <rect
       style="fill:#da4453;fill-opacity:1;stroke-width:0.980001;stroke-opacity:0.550265"
       height="14"
       rx="7"
       y="9"
       x="8.999999"
       width="14"
       id="rect16-35" />
    <path
       style="fill:#1e2431;fill-opacity:1;fill-rule:nonzero;stroke:none;stroke-width:14.8874;stroke-miterlimit:4;stroke-dasharray:none;stroke-opacity:1"
       d="m 15.823699,11.234658 c -0.941492,-0.0043 -1.748728,0.170439 -2.482813,0.537988 -0.244379,0.122353 -0.282422,0.16527 -0.266602,0.297364 0.03234,0.269594 0.171513,0.295766 0.583786,0.110742 0.766452,-0.343959 1.13938,-0.41731 2.106153,-0.41836 1.109555,-9.01e-4 1.518164,0.09413 2.428128,0.565333 0.156345,0.08085 0.651298,0.462916 0.836039,0.257715 0.182963,-0.182952 0.08629,-0.334378 -0.384866,-0.602247 -0.92918,-0.528272 -1.74104,-0.743425 -2.819825,-0.748535 z m -0.02874,1.089649 c -1.242229,-9.46e-4 -2.483683,0.489849 -3.394041,1.473145 -0.352174,0.38039 -0.762894,1.003858 -0.762894,1.158007 0,0.17974 0.07409,0.278907 0.208497,0.278907 0.105335,0 0.21252,-0.113642 0.467579,-0.496973 0.570439,-0.857311 1.309957,-1.426056 2.262698,-1.74043 0.738886,-0.241164 1.604139,-0.213244 2.435642,0 1.073618,0.352895 1.994666,1.139059 2.499223,2.133496 0.109786,0.216382 0.175462,0.282326 0.283006,0.282326 0.185208,0 0.293951,-0.137828 0.243358,-0.308985 -0.08154,-0.276066 -0.516781,-0.944974 -0.846287,-1.30088 -0.91163,-0.984681 -2.154553,-1.477674 -3.396781,-1.478613 z m 0.05879,1.082129 c -0.264765,-0.0046 -0.533409,0.02045 -0.801852,0.07656 -1.275616,0.266645 -2.34181,1.299727 -2.683107,2.599709 -0.181123,0.68986 -0.09786,1.816684 0.200973,2.717969 0.08933,0.269347 0.132432,0.32552 0.260451,0.34043 0.29434,0.03421 0.323102,-0.105882 0.146972,-0.715039 -0.503983,-1.743049 -0.07012,-3.225988 1.179888,-4.034572 1.235821,-0.799432 2.935472,-0.562842 3.902639,0.542774 0.606068,0.692832 0.938494,1.864746 0.674018,2.376173 -0.174709,0.337862 -0.60009,0.540919 -0.949511,0.453223 -0.255348,-0.06409 -0.558034,-0.377891 -0.596778,-0.618653 -0.136736,-0.849619 -0.329734,-1.182113 -0.818262,-1.409571 -0.416732,-0.194037 -0.764085,-0.18868 -1.173046,0.01846 -0.381053,0.193011 -0.673005,0.582571 -0.732131,0.976856 -0.02133,0.142083 -0.01194,0.449555 0.02121,0.682911 0.206155,1.453581 1.246139,2.603489 2.674217,2.957227 0.179601,0.04446 0.473238,0.07589 0.652836,0.06973 l 0.326757,-0.01094 c 0.184573,-0.09369 0.194676,-0.309327 0,-0.415625 l -0.462108,-0.07041 c -0.581624,-0.08863 -0.822476,-0.165268 -1.222264,-0.390332 -0.869399,-0.48943 -1.492283,-1.550409 -1.492283,-2.541602 0,-0.436808 0.165379,-0.691959 0.550974,-0.851759 0.278615,-0.115472 0.282611,-0.115472 0.561228,0 0.352609,0.146132 0.522335,0.390692 0.566015,0.814161 0.08018,0.777168 0.619526,1.288575 1.358986,1.288575 0.593452,0 1.092979,-0.385111 1.270122,-0.978907 0.173374,-0.581127 -0.0594,-1.55719 -0.548243,-2.299611 -0.647893,-0.983912 -1.720345,-1.557803 -2.86768,-1.577735 z m -0.03829,1.12588 c -0.369519,0.0047 -0.749515,0.07286 -1.060941,0.19414 -0.48018,0.235172 -0.937741,0.704829 -1.174412,1.204493 -0.180096,0.380191 -0.190833,0.439401 -0.190725,1.084864 1.32e-4,0.794112 0.09624,1.215966 0.438182,1.929102 0.294656,0.614485 0.702881,1.150419 1.156644,1.517579 0.393311,0.318248 0.435097,0.333694 0.598826,0.213966 0.167626,-0.122561 0.07411,-0.33303 -0.264549,-0.592677 -0.367216,-0.281526 -0.763838,-0.790764 -1.031541,-1.324805 -0.439723,-0.877174 -0.550507,-1.961287 -0.26387,-2.581935 0.208032,-0.450443 0.525244,-0.786445 0.929688,-0.985059 0.485925,-0.23863 1.195715,-0.23863 1.681642,0 0.579988,0.284816 0.950827,0.803427 1.082132,1.514844 0.07836,0.424655 0.19701,0.565808 0.378025,0.449122 0.08386,-0.05407 0.102139,-0.144164 0.09434,-0.467579 -0.01894,-0.786184 -0.569793,-1.575532 -1.374712,-1.970802 -0.2702,-0.131474 -0.62921,-0.189927 -0.998727,-0.185253 z"
       id="path20-62" />
    <path
       style="fill:#1e2431;fill-opacity:1;fill-rule:nonzero;stroke:none;stroke-width:14.8874;stroke-miterlimit:4;stroke-dasharray:none;stroke-opacity:1"
       d="m 17.456174,19.309299 c -1.014518,-0.221306 -1.79648,-1.11515 -1.884271,-2.15387 -0.02776,-0.32829 -0.01811,-0.371676 0.09552,-0.432524 0.21654,-0.115888 0.341692,0.0058 0.385,0.374267 0.10891,0.926593 0.78984,1.625428 1.705887,1.750704 0.44818,0.0613 0.592317,0.233366 0.376376,0.449309 -0.108123,0.108118 -0.228544,0.110271 -0.678519,0.01215 z"
       id="path22-9" />
  </g>
  <g
     id="touchpad_enabled"
     transform="translate(0,-22.000015)">
    <rect
       style="opacity:0.00100002"
       width="32"
       height="32"
       x="0"
       y="22.000015"
       id="rect12" />
    <path
       style="color:#d1d5e9;fill:#1e2431;fill-opacity:1;stroke-width:1.5"
       d="m 16,26.000015 c -6.636,0 -12,5.364 -12,11.999999 0,6.636001 5.364,12.000001 12,12.000001 6.636,0 12,-5.364 12,-12.000001 0,-6.635999 -5.364,-11.999999 -12,-11.999999 z m 0,1.5 c 5.80498,0 10.5,4.695 10.5,10.499999 0,5.804981 -4.69502,10.500001 -10.5,10.500001 -5.80502,0 -10.5,-4.69502 -10.5,-10.500001 0,-5.804999 4.69498,-10.499999 10.5,-10.499999 z m 1.12498,8.578498 v 0 0 0 0 0 c 0,0 -0.05091,0.012 0,0 z m -1.171491,6.750005 z"
       id="path58-7"
       sodipodi:nodetypes="ssssssssssccccccccccccccccc"
       class="ColorScheme-Text" />
    <rect
       style="fill:#4e70ac;fill-opacity:1;stroke-width:0.980001;stroke-opacity:0.550265"
       height="14"
       rx="7"
       y="31.000015"
       x="9"
       width="14"
       id="rect16" />
    <path
       style="fill:#1e2431;fill-opacity:1;fill-rule:nonzero;stroke:none;stroke-width:14.8874;stroke-miterlimit:4;stroke-dasharray:none;stroke-opacity:1"
       d="m 15.823699,33.234673 c -0.941492,-0.0043 -1.748728,0.170439 -2.482813,0.537988 -0.244379,0.122353 -0.282422,0.16527 -0.266602,0.297364 0.03234,0.269594 0.171513,0.295766 0.583786,0.110742 0.766452,-0.343959 1.13938,-0.41731 2.106153,-0.41836 1.109555,-9.01e-4 1.518164,0.09413 2.428128,0.565333 0.156345,0.08085 0.651298,0.462916 0.836039,0.257715 0.182963,-0.182952 0.08629,-0.334378 -0.384866,-0.602247 -0.92918,-0.528272 -1.74104,-0.743425 -2.819825,-0.748535 z m -0.02874,1.089649 c -1.242229,-9.46e-4 -2.483683,0.489849 -3.394041,1.473145 -0.352174,0.38039 -0.762894,1.003858 -0.762894,1.158007 0,0.17974 0.07409,0.278907 0.208497,0.278907 0.105335,0 0.21252,-0.113642 0.467579,-0.496973 0.570439,-0.857311 1.309957,-1.426056 2.262698,-1.74043 0.738886,-0.241164 1.604139,-0.213244 2.435642,0 1.073618,0.352895 1.994666,1.139059 2.499223,2.133496 0.109786,0.216382 0.175462,0.282326 0.283006,0.282326 0.185208,0 0.293951,-0.137828 0.243358,-0.308985 -0.08154,-0.276066 -0.516781,-0.944974 -0.846287,-1.30088 -0.91163,-0.984681 -2.154553,-1.477674 -3.396781,-1.478613 z m 0.05879,1.082129 c -0.264765,-0.0046 -0.533409,0.02045 -0.801852,0.07656 -1.275616,0.266645 -2.34181,1.299727 -2.683107,2.599709 -0.181123,0.68986 -0.09786,1.816684 0.200973,2.717969 0.08933,0.269347 0.132432,0.32552 0.260451,0.34043 0.29434,0.03421 0.323102,-0.105882 0.146972,-0.715039 -0.503983,-1.743049 -0.07012,-3.225988 1.179888,-4.034572 1.235821,-0.799432 2.935472,-0.562842 3.902639,0.542774 0.606068,0.692832 0.938494,1.864746 0.674018,2.376173 -0.174709,0.337862 -0.60009,0.540919 -0.949511,0.453223 -0.255348,-0.06409 -0.558034,-0.377891 -0.596778,-0.618653 -0.136736,-0.849619 -0.329734,-1.182113 -0.818262,-1.409571 -0.416732,-0.194037 -0.764085,-0.18868 -1.173046,0.01846 -0.381053,0.193011 -0.673005,0.582571 -0.732131,0.976856 -0.02133,0.142083 -0.01194,0.449555 0.02121,0.682911 0.206155,1.453581 1.246139,2.603489 2.674217,2.957227 0.179601,0.04446 0.473238,0.07589 0.652836,0.06973 l 0.326757,-0.01094 c 0.184573,-0.09369 0.194676,-0.309327 0,-0.415625 l -0.462108,-0.07041 c -0.581624,-0.08863 -0.822476,-0.165268 -1.222264,-0.390332 -0.869399,-0.48943 -1.492283,-1.550409 -1.492283,-2.541602 0,-0.436808 0.165379,-0.691959 0.550974,-0.851759 0.278615,-0.115472 0.282611,-0.115472 0.561228,0 0.352609,0.146132 0.522335,0.390692 0.566015,0.814161 0.08018,0.777168 0.619526,1.288575 1.358986,1.288575 0.593452,0 1.092979,-0.385111 1.270122,-0.978907 0.173374,-0.581127 -0.0594,-1.55719 -0.548243,-2.299611 -0.647893,-0.983912 -1.720345,-1.557803 -2.86768,-1.577735 z m -0.03829,1.12588 c -0.369519,0.0047 -0.749515,0.07286 -1.060941,0.19414 -0.48018,0.235172 -0.937741,0.704829 -1.174412,1.204493 -0.180096,0.380191 -0.190833,0.439401 -0.190725,1.084864 1.32e-4,0.794112 0.09624,1.215966 0.438182,1.929102 0.294656,0.614485 0.702881,1.150419 1.156644,1.517579 0.393311,0.318248 0.435097,0.333694 0.598826,0.213966 0.167626,-0.122561 0.07411,-0.33303 -0.264549,-0.592677 -0.367216,-0.281526 -0.763838,-0.790764 -1.031541,-1.324805 -0.439723,-0.877174 -0.550507,-1.961287 -0.26387,-2.581935 0.208032,-0.450443 0.525244,-0.786445 0.929688,-0.985059 0.485925,-0.23863 1.195715,-0.23863 1.681642,0 0.579988,0.284816 0.950827,0.803427 1.082132,1.514844 0.07836,0.424655 0.19701,0.565808 0.378025,0.449122 0.08386,-0.05407 0.102139,-0.144164 0.09434,-0.467579 -0.01894,-0.786184 -0.569793,-1.575532 -1.374712,-1.970802 -0.2702,-0.131474 -0.62921,-0.189927 -0.998727,-0.185253 z"
       id="path20" />
    <path
       style="fill:#1e2431;fill-opacity:1;fill-rule:nonzero;stroke:none;stroke-width:14.8874;stroke-miterlimit:4;stroke-dasharray:none;stroke-opacity:1"
       d="m 17.456174,41.309314 c -1.014518,-0.221306 -1.79648,-1.11515 -1.884271,-2.15387 -0.02776,-0.32829 -0.01811,-0.371676 0.09552,-0.432524 0.21654,-0.115888 0.341692,0.0058 0.385,0.374267 0.10891,0.926593 0.78984,1.625428 1.705887,1.750704 0.44818,0.0613 0.592317,0.233366 0.376376,0.449309 -0.108123,0.108118 -0.228544,0.110271 -0.678519,0.01215 z"
       id="path22" />
  </g>
  <style
     type="text/css"
     id="current-color-scheme">.ColorScheme-Highlight { color:#7580bc; }
.ColorScheme-Text { color:#d1d5e9; }
</style>
  <metadata
     id="metadata28">
    <rdf:RDF>
      <cc:Work
         rdf:about="">
        <dc:format>image/svg+xml</dc:format>
        <dc:type
           rdf:resource="http://purl.org/dc/dcmitype/StillImage" />
      </cc:Work>
    </rdf:RDF>
  </metadata>
  <defs
     id="defs26">
    <linearGradient
       gradientTransform="matrix(0.35000018,0,0,0.35000018,-127.12577,-169.60226)"
       xlink:href="#linearGradient4177"
       id="linearGradient4205"
       x1="388.73499"
       y1="503.991"
       x2="428.40799"
       y2="543.93201"
       gradientUnits="userSpaceOnUse" />
    <linearGradient
       id="linearGradient4177">
      <stop
         offset="0"
         style="stop-color:#3f3f3f;stop-opacity:1;"
         id="stop3" />
      <stop
         style="stop-color:#de7d9c;stop-opacity:1"
         offset=".11"
         id="stop5" />
      <stop
         offset=".449"
         style="stop-color:#cc3d8a;stop-opacity:1"
         id="stop7" />
      <stop
         style="stop-color:#5f2b76;stop-opacity:1"
         offset=".934"
         id="stop9" />
      <stop
         offset="1"
         style="stop-color:#3f3f3f;stop-opacity:0;"
         id="stop11" />
    </linearGradient>
    <linearGradient
       id="oomox"
       x1="0"
       x2="0"
       y1="0"
       y2="1">
      <stop
         offset="0%"
         style="stop-color:#303b3d; stop-opacity:1"
         id="stop18" />
      <stop
         offset="100%"
         style="stop-color:#bc985d; stop-opacity:1"
         id="stop20" />
    </linearGradient>
  </defs>
  <sodipodi:namedview
     pagecolor="#000000"
     bordercolor="#1500fd"
     borderopacity="1"
     objecttolerance="10"
     gridtolerance="10"
     guidetolerance="10"
     inkscape:pageopacity="0"
     inkscape:pageshadow="2"
     inkscape:window-width="1920"
     inkscape:window-height="994"
     id="namedview24"
     showgrid="true"
     inkscape:zoom="9.8125003"
     inkscape:cx="29.146496"
     inkscape:cy="15.745222"
     inkscape:window-x="0"
     inkscape:window-y="0"
     inkscape:window-maximized="1"
     inkscape:current-layer="svg22"
     inkscape:document-rotation="0"
     inkscape:lockguides="false"
     inkscape:pagecheckerboard="true"
     inkscape:showpageshadow="false"
     inkscape:deskcolor="#000000">
    <inkscape:grid
       type="xygrid"
       id="grid2879" />
  </sodipodi:namedview>
  <g
     id="22-22-touchpad_disabled"
     transform="translate(32,-22.000015)">
    <rect
       style="opacity:0.00100002"
       width="22"
       height="22"
       x="0"
       y="-2.5878907e-07"
       id="rect7" />
    <rect
       style="fill:#da4453;fill-opacity:1;stroke-width:0.560001;stroke-opacity:0.550265"
       height="8"
       rx="4"
       y="7"
       x="7"
       width="8"
       id="rect16-3-2" />
    <path
       style="fill:#1e2431;fill-opacity:1;fill-rule:nonzero;stroke:none;stroke-width:8.50747;stroke-miterlimit:4;stroke-dasharray:none;stroke-opacity:1"
       d="m 10.956534,8.2769477 c -0.537997,-0.0025 -0.999274,0.09739 -1.418746,0.307422 -0.139651,0.06991 -0.161386,0.09444 -0.152346,0.169922 0.01849,0.154054 0.09801,0.169009 0.333591,0.06328 0.437971,-0.196548 0.651077,-0.238463 1.203515,-0.239063 0.634034,-5.14e-4 0.867523,0.05379 1.387501,0.323048 0.08934,0.0462 0.372171,0.264523 0.477741,0.147266 0.104549,-0.104543 0.0493,-0.191073 -0.219923,-0.344141 -0.530961,-0.30187 -0.994881,-0.424814 -1.611333,-0.427734 z m -0.01641,0.622656 C 10.230278,8.8990637 9.520872,9.1795177 9.000671,9.7413997 8.799424,9.9587647 8.56473,10.315034 8.56473,10.40312 c 0,0.102706 0.04233,0.159378 0.119142,0.159378 0.0602,0 0.12144,-0.06494 0.267188,-0.283985 0.325961,-0.4898973 0.748546,-0.8148893 1.29297,-0.9945363 0.422221,-0.137804 0.916651,-0.121854 1.391792,0 0.613499,0.201658 1.139814,0.650891 1.428132,1.2191433 0.06275,0.123645 0.10026,0.161327 0.161714,0.161327 0.105833,0 0.167974,-0.07876 0.139065,-0.176563 -0.04662,-0.157752 -0.295309,-0.5399853 -0.483596,-0.7433603 -0.520935,-0.562671 -1.231177,-0.844384 -1.941019,-0.84492 z m 0.03359,0.618357 c -0.151295,-0.0029 -0.304806,0.01167 -0.458205,0.04372 -0.72892,0.152363 -1.338178,0.7426983 -1.533204,1.4855443 -0.103496,0.394209 -0.05591,1.038105 0.114845,1.553125 0.05102,0.153912 0.07568,0.186012 0.148825,0.194535 0.168199,0.01955 0.184629,-0.06049 0.08398,-0.408597 -0.287992,-0.996027 -0.04008,-1.84342 0.674225,-2.305468 0.706179,-0.4568163 1.677411,-0.3216223 2.230079,0.310157 0.346324,0.395906 0.536279,1.065569 0.38515,1.357813 -0.09984,0.193064 -0.342906,0.309095 -0.542575,0.258985 -0.145916,-0.03659 -0.318879,-0.215937 -0.341019,-0.353517 -0.07813,-0.485497 -0.188419,-0.675494 -0.467576,-0.805468 -0.238131,-0.110878 -0.436619,-0.107817 -0.67031,0.01057 -0.217746,0.110289 -0.384577,0.332899 -0.418366,0.558201 -0.01221,0.08119 -0.0068,0.256889 0.01214,0.390235 0.117799,0.830621 0.71208,1.487709 1.528121,1.689845 0.102629,0.02538 0.270425,0.04339 0.373051,0.03982 l 0.186718,-0.0061 c 0.105471,-0.05353 0.111246,-0.176757 0,-0.2375 l -0.26406,-0.04026 c -0.332363,-0.05067 -0.46999,-0.09443 -0.698443,-0.223045 -0.4968,-0.279673 -0.852729,-0.885945 -0.852729,-1.452342 0,-0.249604 0.0945,-0.395406 0.31484,-0.486719 0.15921,-0.06599 0.16149,-0.06599 0.3207,0 0.201495,0.0835 0.298478,0.223252 0.323438,0.465234 0.04584,0.444096 0.354016,0.736328 0.776562,0.736328 0.339116,0 0.62456,-0.220062 0.725788,-0.559376 0.09907,-0.332072 -0.03397,-0.889822 -0.313282,-1.314063 -0.370228,-0.5622323 -0.98306,-0.8901713 -1.63868,-0.9015603 z m -0.02191,0.6433613 c -0.211152,0.003 -0.428294,0.04164 -0.606255,0.110941 -0.274389,0.134383 -0.53585,0.402755 -0.671091,0.688277 -0.102914,0.217257 -0.109049,0.251091 -0.108988,0.619923 7.6e-5,0.453781 0.05496,0.694841 0.250392,1.102348 0.168377,0.351134 0.401648,0.657383 0.660941,0.867186 0.224746,0.181857 0.248626,0.190683 0.342184,0.122268 0.09579,-0.07004 0.04234,-0.190305 -0.151171,-0.338675 -0.209837,-0.160871 -0.436478,-0.451866 -0.589454,-0.75703 -0.251268,-0.50124 -0.314574,-1.120738 -0.15078,-1.475394 0.118875,-0.257392 0.300137,-0.449394 0.531248,-0.562886 0.277673,-0.136364 0.683268,-0.136364 0.960944,0 0.33142,0.162747 0.543327,0.459101 0.618357,0.86562 0.04477,0.242663 0.11258,0.323322 0.216017,0.256641 0.04791,-0.03086 0.05836,-0.08238 0.05395,-0.267186 -0.01082,-0.449246 -0.3256,-0.900302 -0.785558,-1.126175 -0.1544,-0.07513 -0.359544,-0.108525 -0.570699,-0.105858 z"
       id="path20-6-9"
       class="ColorScheme-Text" />
    <path
       style="fill:#1e2431;fill-opacity:1;fill-rule:nonzero;stroke:none;stroke-width:8.50747;stroke-miterlimit:4;stroke-dasharray:none;stroke-opacity:1"
       d="M 11.88938,12.891027 C 11.309653,12.76457 10.862821,12.2538 10.812655,11.660246 c -0.01584,-0.187593 -0.01034,-0.212385 0.05461,-0.247158 0.123739,-0.06622 0.195254,0.0037 0.22,0.213868 0.06223,0.529484 0.451339,0.928818 0.974794,1.000402 0.2561,0.035 0.338467,0.133351 0.215071,0.25675 -0.06179,0.06179 -0.130595,0.063 -0.387724,0.0069 z"
       id="path22-7-1"
       class="ColorScheme-Text" />
    <path
       style="color:#d1d5e9;fill:#da4453;fill-opacity:1;stroke-width:1"
       class="ColorScheme-Text"
       d="m 11,3.000015 c -4.424,0 -8,3.576 -8,8 0,4.424 3.576,8 8,8 4.423999,0 8,-3.576 8,-8 0,-4.424 -3.576001,-8 -8,-8 z m 0,1 c 3.870004,0 7,3.13 7,7 0,3.870009 -3.129996,7 -7,7 -3.869991,0 -7,-3.129991 -7,-7 0,-3.87 3.130009,-7 7,-7 z"
       id="path58-3"
       sodipodi:nodetypes="ssssssssssccc" />
  </g>
</svg>
