<?xml version="1.0" encoding="UTF-8" standalone="no"?>
<svg
   width="32"
   height="32"
   version="1"
   id="svg12"
   sodipodi:docname="utilities.svg"
   inkscape:version="1.2.2 (b0a8486541, 2022-12-01)"
   xmlns:inkscape="http://www.inkscape.org/namespaces/inkscape"
   xmlns:sodipodi="http://sodipodi.sourceforge.net/DTD/sodipodi-0.dtd"
   xmlns="http://www.w3.org/2000/svg"
   xmlns:svg="http://www.w3.org/2000/svg"
   xmlns:rdf="http://www.w3.org/1999/02/22-rdf-syntax-ns#"
   xmlns:cc="http://creativecommons.org/ns#"
   xmlns:dc="http://purl.org/dc/elements/1.1/">
  <style
     type="text/css"
     id="current-color-scheme">.ColorScheme-Text { color:#d1d5e9; }
</style>
  <metadata
     id="metadata18">
    <rdf:RDF>
      <cc:Work
         rdf:about="">
        <dc:format>image/svg+xml</dc:format>
        <dc:type
           rdf:resource="http://purl.org/dc/dcmitype/StillImage" />
      </cc:Work>
    </rdf:RDF>
  </metadata>
  <defs
     id="defs16" />
  <sodipodi:namedview
     pagecolor="#000000"
     bordercolor="#1208ff"
     borderopacity="1"
     objecttolerance="10"
     gridtolerance="10"
     guidetolerance="10"
     inkscape:pageopacity="0"
     inkscape:pageshadow="2"
     inkscape:window-width="1920"
     inkscape:window-height="994"
     id="namedview14"
     showgrid="true"
     inkscape:zoom="11.313709"
     inkscape:cx="10.871766"
     inkscape:cy="20.903843"
     inkscape:window-x="0"
     inkscape:window-y="0"
     inkscape:window-maximized="1"
     inkscape:current-layer="svg12"
     inkscape:document-rotation="0"
     inkscape:lockguides="false"
     inkscape:pagecheckerboard="true"
     inkscape:showpageshadow="false"
     inkscape:deskcolor="#000000">
    <inkscape:grid
       type="xygrid"
       id="grid852"
       originx="-1e-06"
       originy="0" />
  </sodipodi:namedview>
  <g
     id="utilities-terminal">
    <rect
       style="opacity:0.00100002;fill:#d1d5e9;fill-opacity:1"
       width="32"
       height="32"
       x="0"
       y="0"
       id="rect7" />
    <path
       style="color:#d6dbf1;fill:none;fill-opacity:1;stroke:#1e2431;stroke-width:1.60402;stroke-linecap:round;stroke-miterlimit:4;stroke-dasharray:none;stroke-opacity:1;stop-color:#31363b"
       sodipodi:type="arc"
       sodipodi:cx="-15.999999"
       sodipodi:cy="-16.00001"
       sodipodi:rx="11.201572"
       sodipodi:ry="11.201572"
       sodipodi:start="3.7596615"
       sodipodi:end="3.7574109"
       sodipodi:open="true"
       sodipodi:arc-type="arc"
       transform="scale(-1)"
       d="m -25.129269,-22.490899 a 11.201572,11.201572 0 0 1 15.6150219,-2.642032 11.201572,11.201572 0 0 1 2.6508169,15.6135337 11.201572,11.201572 0 0 1 -15.6120398,2.6596014 11.201572,11.201572 0 0 1 -2.668385,-15.6105401"
       id="path7"
       class="ColorScheme-Text" />
    <path
       d="m 14.3,17.993138 c 2.06e-4,0.115432 -0.04652,0.226172 -0.129808,0.307717 L 10.63986,21.763171 C 9.9076052,22.481311 8.8092337,21.404097 9.5414834,20.685959 L 12.28742,17.993138 9.5414834,15.300327 c -0.3024725,-0.297806 -0.3024725,-0.779411 0,-1.077213 v 0 c 0.3032988,-0.297485 0.7950756,-0.297485 1.0983766,0 l 3.530332,3.462315 c 0.08329,0.08154 0.130014,0.19229 0.129808,0.307709 z m -0.443571,0 z"
       id="path4-3-2"
       style="color:#d6dbf1;fill:#1e2431;fill-opacity:1;stroke-width:0.219743"
       sodipodi:nodetypes="ccscccsscccccccccccc"
       class="ColorScheme-Text" />
    <path
       d="m 15.791851,22 h 3.616304 c 0.92246,0.0035 0.92246,0.996565 0,1 h -3.616304 c -0.922468,-0.0035 -0.922468,-0.996565 0,-1 z m 3.616304,0.200001 z"
       id="path8-6-7-36-2"
       style="color:#d6dbf1;fill:#1e2431;fill-opacity:1;stroke-width:0.11794"
       sodipodi:nodetypes="cccccccccc"
       class="ColorScheme-Text" />
  </g>
  <g
     id="22-22-utilities-terminal"
     transform="translate(32,10.000001)">
    <rect
       style="opacity:0.00100002;fill:#d1d5e9;fill-opacity:1"
       width="22"
       height="22"
       x="0"
       y="0"
       id="rect2" />
    <path
       style="color:#d6dbf1;fill:none;fill-opacity:1;stroke:#1e2431;stroke-width:1.06942;stroke-linecap:round;stroke-miterlimit:4;stroke-dasharray:none;stroke-opacity:1;stop-color:#31363b"
       sodipodi:type="arc"
       sodipodi:cx="-10.999999"
       sodipodi:cy="-11.000008"
       sodipodi:rx="7.4676795"
       sodipodi:ry="7.4676795"
       sodipodi:start="3.7596615"
       sodipodi:end="3.7574109"
       sodipodi:open="true"
       sodipodi:arc-type="arc"
       transform="scale(-1)"
       d="m -17.08615,-15.327247 a 7.4676795,7.4676795 0 0 1 10.409965,-1.761346 7.4676795,7.4676795 0 0 1 1.7672029,10.408973 7.4676795,7.4676795 0 0 1 -10.4079769,1.7730592 7.4676795,7.4676795 0 0 1 -1.778915,-10.4069772"
       id="path7-3"
       class="ColorScheme-Text" />
    <path
       d="m 10.25,11.994855 c 1.55e-4,0.08656 -0.03489,0.169629 -0.09736,0.230786 L 7.5048952,14.822377 C 6.9557037,15.360984 6.1319255,14.553075 6.6811125,14.01447 L 8.7405652,11.994855 6.6811125,9.9752449 c -0.226854,-0.223354 -0.226854,-0.5845579 0,-0.8079094 v 0 c 0.2274741,-0.223114 0.5963066,-0.223114 0.8237827,0 L 10.152644,11.76407 c 0.06247,0.06115 0.09751,0.14422 0.09736,0.230785 z m -0.3326784,0 z"
       id="path4-3-2-3"
       style="color:#d6dbf1;fill:#1e2431;fill-opacity:1;stroke-width:0.164805"
       sodipodi:nodetypes="ccscccsscccccccccccc"
       class="ColorScheme-Text" />
    <path
       d="m 11.153481,15 h 2.89304 c 0.737969,0.0035 0.737969,0.996565 0,1 h -2.89304 c -0.737978,-0.0035 -0.737978,-0.996565 0,-1 z m 2.89304,0.200001 z"
       id="path8-6-7-36-2-6"
       style="color:#d6dbf1;fill:#1e2431;fill-opacity:1;stroke-width:0.10549"
       sodipodi:nodetypes="cccccccccc"
       class="ColorScheme-Text" />
  </g>
</svg>
