<?xml version="1.0" encoding="UTF-8" standalone="no"?>
<svg
   width="32"
   height="32"
   version="1.1"
   id="svg22"
   sodipodi:docname="wallet.svg"
   inkscape:version="1.2.2 (b0a8486541, 2022-12-01)"
   xmlns:inkscape="http://www.inkscape.org/namespaces/inkscape"
   xmlns:sodipodi="http://sodipodi.sourceforge.net/DTD/sodipodi-0.dtd"
   xmlns="http://www.w3.org/2000/svg"
   xmlns:svg="http://www.w3.org/2000/svg"
   xmlns:rdf="http://www.w3.org/1999/02/22-rdf-syntax-ns#"
   xmlns:cc="http://creativecommons.org/ns#"
   xmlns:dc="http://purl.org/dc/elements/1.1/">
  <g
     id="wallet-open"
     style="fill:#1e2431;fill-opacity:1">
    <rect
       style="opacity:0.00100002;fill:#1e2431;fill-opacity:1"
       width="32"
       height="32"
       x="0"
       y="0"
       id="rect12-5-7" />
    <path
       d="m 26,18.002334 v 3.998667 c 0,0.999666 0.1,1.999333 -1.3,1.999333 H 24 20 10 5.3 c -1.4,0 -1.3,-0.999667 -1.3,-1.999333 v 0 -0.999666 -3.998666 -4.998333 -1.999332 C 4,9.005337 4,8.0056706 5.4,8.0056706 h 2.6 9 7.6 c 1.5,0 1.4,0.9996664 1.4,1.9993334 v 0 1.999332 1.999335 h 1 L 26.991,10.03779 27,9.005337 c 0,-0.9996664 -1,-1.9993328 -2,-1.9993328 -1.994951,-0.017027 -4.164831,0.00757 -6.159772,0.00757 H 9.2587545 5.9870464 L 6,7.0060042 H 5 c -1,0 -2,0.9996664 -2,1.9993328 L 3.017421,14.79824 3,23.000667 v 0 c 0,0.999667 1,1.999332 2,1.999332 H 7.4062832 16.474738 24.186619 25 c 1,0 2,-0.999665 2,-1.999332 L 26.98524,21.930394 V 19.553009 L 27,18.002334 c -0.09375,-0.152209 -1,0 -1,0 z"
       id="path2-3"
       style="fill:#1e2431;fill-opacity:1;stroke-width:0.0568685"
       class="ColorScheme-Text"
       sodipodi:nodetypes="cccccccccccccccccccccccccsccccccccsccccccccc" />
    <path
       d="m 29.481768,16 c 0,1.647847 -1.334303,2.982234 -2.982011,2.982234 -1.64632,0 -2.982006,-1.334387 -2.982006,-2.982234 0,-1.646465 1.335686,-2.982264 2.982006,-2.982264 1.647708,0 2.982011,1.335799 2.982011,2.982264 z"
       id="path72-3-7-36"
       style="color:#e5e9ef;fill:#1e2431;fill-opacity:1;stroke:#1e2431;stroke-width:0.0355021;stroke-opacity:1"
       class="ColorScheme-Text" />
    <path
       d="M 10.999998,10 C 7.685187,10 5,12.686933 5,15.995748 5,19.312915 7.685231,22.000001 10.999998,22.000001 14.314775,22.000001 17,19.312871 17,15.995748 16.9915,12.687184 14.306021,10 10.999998,10 Z m -0.297332,4.848864 1.355689,0.700205 c 0.804764,0.420041 1.24208,1.26912 1.093288,2.179336 -0.11356,0.700205 -0.559715,1.260319 -1.17196,1.531695 v 0.183842 c 0,0.463805 -0.376013,0.831493 -0.830906,0.831493 -0.463473,0 -0.830905,-0.376277 -0.830905,-0.831493 V 19.312659 C 9.67069,19.093844 9.119527,18.612454 8.830994,17.956011 c -0.183719,-0.420044 0.0085,-0.910216 0.428534,-1.094069 0.428524,-0.183844 0.909566,0.0087 1.093289,0.428834 0.139984,0.315132 0.463481,0.516353 0.804769,0.481392 0.262386,-0.04377 0.323688,-0.183844 0.341063,-0.306341 0.0085,-0.06993 0.02615,-0.306339 -0.209877,-0.428835 L 9.933091,16.336788 C 9.119787,15.916745 8.682471,15.023905 8.848604,14.11369 c 0.157157,-0.796533 0.71709,-1.400409 1.469135,-1.601817 v -0.332517 c 0,-0.463806 0.376006,-0.831494 0.830905,-0.831494 0.463471,0 0.830903,0.376281 0.830903,0.831494 v 0.516351 c 0.524772,0.253784 0.944496,0.674045 1.189544,1.225357 0.183723,0.420043 -0.0085,0.910215 -0.428526,1.094068 -0.428537,0.183844 -0.918373,-0.0087 -1.102098,-0.428834 -0.131195,-0.315132 -0.463469,-0.507549 -0.804551,-0.481391 -0.245024,0.02618 -0.314909,0.210022 -0.332481,0.315132 -0.01736,0.08753 -0.03501,0.30634 0.201281,0.428836 z m 4.775679,1.646205 z m 0,0 z"
       id="path1454"
       sodipodi:nodetypes="ssscsccccsssccccccccccsssccccccccccccccccccccc"
       style="fill:#1e2431;fill-opacity:1;stroke-width:0.0499967" />
  </g>
  <style
     id="current-color-scheme"
     type="text/css">.ColorScheme-Text { color:#d6dbf1; }
</style>
  <metadata
     id="metadata28">
    <rdf:RDF>
      <cc:Work
         rdf:about="">
        <dc:format>image/svg+xml</dc:format>
        <dc:type
           rdf:resource="http://purl.org/dc/dcmitype/StillImage" />
      </cc:Work>
    </rdf:RDF>
  </metadata>
  <defs
     id="defs26" />
  <sodipodi:namedview
     pagecolor="#000000"
     bordercolor="#0e31ff"
     borderopacity="1"
     objecttolerance="10"
     gridtolerance="10"
     guidetolerance="10"
     inkscape:pageopacity="0"
     inkscape:pageshadow="2"
     inkscape:window-width="1920"
     inkscape:window-height="994"
     id="namedview24"
     showgrid="true"
     inkscape:zoom="8"
     inkscape:cx="27"
     inkscape:cy="10.8125"
     inkscape:window-x="0"
     inkscape:window-y="0"
     inkscape:window-maximized="1"
     inkscape:current-layer="svg22"
     inkscape:document-rotation="0"
     inkscape:lockguides="false"
     inkscape:showpageshadow="false"
     inkscape:pagecheckerboard="true"
     inkscape:deskcolor="#000000">
    <inkscape:grid
       type="xygrid"
       id="grid1026" />
  </sodipodi:namedview>
  <g
     id="g871"
     transform="translate(10.022999,-22.039411)" />
  <g
     id="22-22-wallet-open"
     transform="translate(0,-22)"
     style="fill:#1e2431;fill-opacity:1">
    <rect
       style="opacity:0.00100002;fill:#1e2431;fill-opacity:1;stroke-width:0.6875"
       width="22"
       height="22"
       x="4.038086e-07"
       y="-8.1054685e-10"
       id="rect12-7" />
    <path
       d="m 17,12 v 3 c 0,0.666444 0,1 -1,1 v 0 h -2 -7.0000004 -2 c -1,0 -1,-0.333556 -1,-1 v 0 0 -3 -4 -1 c 0,-0.6664439 0,-1 1,-1 h 1 H 12 16 c 1,0 1,0.3335561 1,1 v 0 1 2 l 0.99971,-0.3308816 -0.0064,-2.6439168 0.0064,-0.6883015 c 0,-0.6664437 -0.624997,-1.3328871 -1.249997,-1.3328871 -1.246853,-0.011361 -2.603024,0.00501 -3.849865,0.00501 H 6.9114315 4.8666094 l 0.00841,-0.00501 H 4.2499936 C 3.6249941,5.004013 3,5.6704564 3,6.3369001 L 3.0108483,10.198831 3,15.667112 v 0 C 3,16.333555 3.6249941,17 4.2499936,17 h 1.5039294 5.667789 4.819933 0.508362 C 17.375006,17 18,16.333555 18,15.667112 L 17.9911,14.953596 V 13.368674 L 18,12.334894 C 17.94136,12.23342 17,12 17,12 Z"
       id="path2-3-5"
       style="color:#d6dbf1;fill:#1e2431;fill-opacity:1;stroke-width:0.0367089"
       class="ColorScheme-Text"
       sodipodi:nodetypes="cccccccccccccccccccccccccsccccccccsccccccccc" />
    <path
       d="m 19.488165,11.000011 c 0,1.098564 -0.889603,1.988154 -1.988164,1.988154 -1.097633,0 -1.988166,-0.88959 -1.988166,-1.988154 0,-1.0976442 0.890533,-1.9881762 1.988166,-1.9881762 1.098561,0 1.988164,0.890532 1.988164,1.9881762 z"
       id="path72-3-7-36-3"
       style="color:#e5e9ef;fill:#1e2431;fill-opacity:1;stroke:#1e2431;stroke-width:0.0236696;stroke-opacity:1"
       class="ColorScheme-Text" />
    <path
       d="M 7.999999,8.1 C 6.34259,8.1 5,9.4434661 5,11.097874 5,12.756457 6.342613,14.1 7.999999,14.1 9.657391,14.1 11,12.756435 11,11.097874 10.9959,9.4435916 9.653016,8.1 7.999999,8.1 Z m -0.14866,2.424432 0.677831,0.350102 c 0.402388,0.210021 0.621047,0.63456 0.546654,1.089668 -0.05675,0.350103 -0.279855,0.63016 -0.585981,0.765847 v 0.09192 c 0,0.231903 -0.188013,0.415748 -0.415454,0.415748 -0.231739,0 -0.415455,-0.18814 -0.415455,-0.415748 v -0.06564 C 7.335349,12.646921 7.059769,12.406227 6.915497,12.078006 c -0.09187,-0.210023 0.0041,-0.455109 0.214271,-0.547035 0.214262,-0.09192 0.454779,0.0043 0.546639,0.214417 0.06994,0.157566 0.231744,0.258176 0.40239,0.240696 0.131188,-0.02188 0.161838,-0.09192 0.170533,-0.153171 0.0041,-0.03496 0.01304,-0.153169 -0.10494,-0.214417 L 7.466543,11.268395 C 7.059891,11.058374 6.841246,10.611953 6.924294,10.156845 7.002904,9.7585792 7.28285,9.4566416 7.65887,9.3559371 V 9.1896788 c 0,-0.2319032 0.187997,-0.4157466 0.415448,-0.4157466 0.231739,0 0.415456,0.1881401 0.415456,0.4157466 v 0.2581761 c 0.262387,0.1268917 0.472242,0.3370218 0.59477,0.6126781 0.09187,0.210022 -0.0041,0.455107 -0.21427,0.547034 C 8.65601,10.699487 8.41109,10.603167 8.31923,10.393149 8.25358,10.235584 8.087502,10.139376 7.916957,10.152454 7.794443,10.165534 7.7595,10.257465 7.750716,10.31002 c -0.009,0.04377 -0.01751,0.153171 0.10064,0.214419 z m 2.387831,0.823102 z m 0,0 z"
       id="path1454-5"
       sodipodi:nodetypes="ssscsccccsssccccccccccsssccccccccccccccccccccc"
       style="fill:#1e2431;fill-opacity:1;stroke-width:0.0249989" />
  </g>
  <g
     id="wallet-closed"
     transform="translate(32)"
     style="fill:#1e2431;fill-opacity:1">
    <rect
       style="opacity:0.00100002;fill:#1e2431;fill-opacity:1"
       width="32"
       height="32"
       x="0"
       y="0"
       id="rect12-5" />
    <path
       d="m 26.000004,18.002331 v 3.998667 c 0,0.999666 0.1,1.999333 -1.3,1.999333 h -0.7 -4 -10 -4.7000002 c -1.4,0 -1.3,-0.999667 -1.3,-1.999333 v 0 -0.999666 -3.998666 -4.998333 -1.999332 c 0,-0.9996674 0,-1.9993338 1.4,-1.9993338 h 2.6 9.0000002 7.6 c 1.5,0 1.4,0.9996664 1.4,1.9993338 v 0 1.999332 1.999335 h 1 l -0.009,-3.965881 0.009,-1.0324534 c 0,-0.9996664 -1,-1.999333 -2,-1.999333 -1.994951,-0.01703 -4.164831,0.0076 -6.159772,0.0076 H 9.2587578 5.9870498 l 0.01295,-0.0076 h -1 c -1,0 -2,0.9996666 -2,1.999333 l 0.01742,5.7929034 -0.01742,8.202427 v 0 c 0,0.999667 1,1.999332 2,1.999332 H 7.4062828 16.474738 24.186619 25 c 1,0 2,-0.999665 2,-1.999332 L 26.9852,21.930391 V 19.553006 L 27,18.002331 c -0.0937,-0.152209 -1,0 -1,0 z"
       id="path2-3-62"
       style="color:#d6dbf1;fill:#1e2431;fill-opacity:1;stroke-width:0.0568685"
       class="ColorScheme-Text"
       sodipodi:nodetypes="cccccccccccccccccccccccccsccccccccsccccccccc" />
    <path
       d="m 29.551542,15.999997 c 0,1.647847 -1.33431,2.982234 -2.98201,2.982234 -1.646323,0 -2.982009,-1.334387 -2.982009,-2.982234 0,-1.646465 1.335686,-2.982264 2.982009,-2.982264 1.6477,0 2.98201,1.335799 2.98201,2.982264 z"
       id="path72-3-7-36-9"
       style="color:#e5e9ef;fill:#1e2431;fill-opacity:1;stroke:#1e2431;stroke-width:0.0355021;stroke-opacity:1"
       class="ColorScheme-Text" />
  </g>
  <g
     id="22-22-wallet-closed"
     transform="translate(32,-22)"
     style="fill:#1e2431;fill-opacity:1">
    <rect
       style="opacity:0.00100002;fill:#1e2431;fill-opacity:1;stroke-width:0.6875"
       width="22"
       height="22"
       x="0"
       y="0"
       id="rect12-7-6" />
    <path
       d="m 17,12 v 3 c 0,0.666444 0,1 -1,1 v 0 H 14 7 5 C 4,16 4,15.666444 4,15 V 15 15 12 8 7 C 4,6.3335561 4,6 5,6 h 1 6 4 c 1,0 1,0.3335561 1,1 v 0 1 2 l 0.99971,-0.3308816 -0.0064,-2.6439168 0.0064,-0.6883015 c 0,-0.6664437 -0.624997,-1.3328871 -1.249997,-1.3328871 -1.246853,-0.011361 -2.603024,0.00501 -3.849865,0.00501 H 6.911432 4.866609 l 0.0084,-0.00501 H 4.249994 C 3.624994,5.004013 3,5.6704564 3,6.3369001 L 3.010848,10.198831 3,15.667112 v 0 C 3,16.333555 3.624994,17 4.249994,17 h 1.503929 5.667789 4.819933 0.508362 C 17.375006,17 18,16.333555 18,15.667112 L 17.9911,14.953596 V 13.368674 L 18,12.334894 C 17.94136,12.23342 17,12 17,12 Z"
       id="path2-3-5-2"
       style="color:#d6dbf1;fill:#1e2431;fill-opacity:1;stroke-width:0.0367089"
       class="ColorScheme-Text"
       sodipodi:nodetypes="cccccccccccccccccccccccccsccccccccsccccccccc" />
    <path
       d="m 19.488165,11.000011 c 0,1.098564 -0.889603,1.988154 -1.988164,1.988154 -1.097633,0 -1.988166,-0.88959 -1.988166,-1.988154 0,-1.0976442 0.890533,-1.9881762 1.988166,-1.9881762 1.098561,0 1.988164,0.890532 1.988164,1.9881762 z"
       id="path72-3-7-36-3-7"
       style="color:#e5e9ef;fill:#1e2431;fill-opacity:1;stroke:#1e2431;stroke-width:0.0236696;stroke-opacity:1"
       class="ColorScheme-Text" />
  </g>
</svg>
