<?xml version="1.0" encoding="UTF-8" standalone="no"?>
<svg
   id="svg"
   width="32"
   height="32"
   version="1.1"
   viewBox="0 0 32 32"
   sodipodi:docname="window.svg"
   inkscape:version="1.2.2 (b0a8486541, 2022-12-01)"
   xmlns:inkscape="http://www.inkscape.org/namespaces/inkscape"
   xmlns:sodipodi="http://sodipodi.sourceforge.net/DTD/sodipodi-0.dtd"
   xmlns="http://www.w3.org/2000/svg"
   xmlns:svg="http://www.w3.org/2000/svg"
   xmlns:rdf="http://www.w3.org/1999/02/22-rdf-syntax-ns#"
   xmlns:cc="http://creativecommons.org/ns#"
   xmlns:dc="http://purl.org/dc/elements/1.1/">
  <style
     id="current-color-scheme"
     type="text/css">.ColorScheme-Highlight { color:#7580bc; }
.ColorScheme-Text { color:#e5e9ef; }
</style>
  <metadata
     id="metadata60">
    <rdf:RDF>
      <cc:Work
         rdf:about="">
        <dc:format>image/svg+xml</dc:format>
        <dc:type
           rdf:resource="http://purl.org/dc/dcmitype/StillImage" />
      </cc:Work>
    </rdf:RDF>
  </metadata>
  <sodipodi:namedview
     pagecolor="#000000"
     bordercolor="#3e20ff"
     borderopacity="1"
     objecttolerance="10"
     gridtolerance="10"
     guidetolerance="10"
     inkscape:pageopacity="0"
     inkscape:pageshadow="2"
     inkscape:window-width="1920"
     inkscape:window-height="1004"
     id="namedview58"
     showgrid="true"
     inkscape:zoom="4"
     inkscape:cx="61.5"
     inkscape:cy="20.875"
     inkscape:window-x="0"
     inkscape:window-y="0"
     inkscape:window-maximized="1"
     inkscape:current-layer="svg"
     inkscape:lockguides="true"
     inkscape:document-rotation="0"
     inkscape:pagecheckerboard="true"
     inkscape:showpageshadow="false"
     inkscape:deskcolor="#000000"
     showguides="false">
    <inkscape:grid
       type="xygrid"
       id="grid895"
       originx="0"
       originy="0" />
  </sodipodi:namedview>
  <defs
     id="defs4">
    <linearGradient
       id="linearGradient5606"
       inkscape:swatch="solid">
      <stop
         id="stop5608"
         offset="0"
         style="stop-color:#000000" />
    </linearGradient>
  </defs>
  <g
     id="g1397"
     transform="translate(32,-31.999995)">
    <path
       id="rect838-6"
       d="M 0,0 H 22 V 22 H 0 Z"
       fill="none" />
    <g
       id="g1405"
       transform="translate(-32,31.999995)">
      <path
         id="rect838"
         d="M 0,0 H 22 V 22 H 0 Z"
         fill="none" />
    </g>
  </g>
  <g
     id="window-pin">
    <path
       id="rect838-67"
       d="M 0,0 H 32.000001 V 32.000001 H 0 Z"
       fill="none"
       style="stroke-width:1.45455" />
    <path
       d="m 27.171345,11.259549 -6.44027,-6.4378206 c -0.6913,-0.679237 -1.6792,-0.963144 -2.62561,-0.754476 -0.94667,0.208659 -1.72344,0.881486 -2.06469,1.788257 -0.34133,0.907004 -0.20077,1.924757 0.37344,2.705202 0.46787,1.221982 0.0413,2.9211976 -1.00924,3.9713946 -1.05054,1.050205 -2.78235,1.486118 -4.01111,0.992925 l -0.0733,-0.02221 c -0.6624,-0.374478 -1.4659,-0.40334 -2.1538,-0.07745 -0.68778,0.326084 -1.17399,0.966044 -1.30349,1.715636 -0.12946,0.749819 0.11416,1.515663 0.65258,2.053294 l 2.70606,2.685934 -7.03539,7.032788 v -2.29e-4 c -0.2487,0.248616 -0.2487,0.651967 0,0.900581 0.24889,0.248836 0.65217,0.248836 0.90114,0 l 7.01949,-7.048698 2.69002,2.689006 c 0.43457,0.436187 1.02385,0.683222 1.6397,0.687249 0.61568,0.0043 1.20844,-0.234846 1.64873,-0.66503 l 0.022,-0.02219 h 2.7e-4 c 0.36237,-0.364487 0.59483,-0.837723 0.66145,-1.347403 0.0668,-0.509428 -0.0361,-1.026612 -0.2922,-1.472133 -0.005,-0.02043 -0.0103,-0.0406 -0.0161,-0.06041 -0.48393,-1.218862 -0.0512,-2.937226 1.0059,-3.99379 1.05697,-1.056623 2.73462,-1.47969 3.95061,-1.024624 0.49452,0.378022 1.09987,0.582691 1.72236,0.582241 h 0.0414 c 0.75272,-0.01223 1.47042,-0.320096 1.99786,-0.857053 0.52746,-0.53696 0.82203,-1.259721 0.82081,-2.012211 -9.7e-4,-0.752491 -0.29938,-1.474124 -0.82895,-2.009085 z M 12,20 v 0 0 0 0 h 1 v 0 0 z m 7,-10 z"
       id="path64"
       style="fill:#1e2431;fill-opacity:1;stroke-width:0.0568365"
       sodipodi:nodetypes="cccccccccccccccccccccccccccccccccccccccccccccccccc" />
  </g>
  <g
     id="window-list"
     transform="translate(86,16)"
     style="fill:#1e2431;fill-opacity:1">
    <rect
       style="opacity:0.00100002;fill:#1e2431;fill-opacity:1"
       width="32"
       height="32"
       x="16"
       y="-16"
       ry="0"
       id="rect1188" />
    <path
       style="color:#eff0f1;fill:#1e2431;fill-opacity:1"
       class="ColorScheme-Text"
       d="m 22.5,-12 c -1.385,0 -2.5,1.115 -2.5,2.5 v 5 c 0,1.385 1.115,2.5 2.5,2.5 h 5 c 1.385,0 2.5,-1.115 2.5,-2.5 v -5 c 0,-1.385 -1.115,-2.5 -2.5,-2.5 z m 14,0 c -1.385,0 -2.5,1.115 -2.5,2.5 v 5 c 0,1.385 1.115,2.5 2.5,2.5 h 5 c 1.385,0 2.5,-1.115 2.5,-2.5 v -5 c 0,-1.385 -1.115,-2.5 -2.5,-2.5 z m -14,1 h 5 c 0.848297,0 1.5,0.651703 1.5,1.5 v 5 c 0,0.8482972 -0.651703,1.5 -1.5,1.5 h -5 C 21.651703,-3 21,-3.6517028 21,-4.5 v -5 c 0,-0.848297 0.651703,-1.5 1.5,-1.5 z m 14,0 h 5 c 0.848297,0 1.5,0.651703 1.5,1.5 v 5 c 0,0.8482972 -0.651703,1.5 -1.5,1.5 h -5 C 35.651703,-3 35,-3.6517028 35,-4.5 v -5 c 0,-0.848297 0.651703,-1.5 1.5,-1.5 z M 22.5,2 C 21.115,2 20,3.115 20,4.5 v 5 c 0,1.385 1.115,2.5 2.5,2.5 h 5 C 28.885,12 30,10.885 30,9.5 v -5 C 30,3.115 28.885,2 27.5,2 Z m 14,0 C 35.115,2 34,3.115 34,4.5 v 5 c 0,1.385 1.115,2.5 2.5,2.5 h 5 C 42.885,12 44,10.885 44,9.5 v -5 C 44,3.115 42.885,2 41.5,2 Z m -14,1 h 5 C 28.348297,3 29,3.651703 29,4.5 v 5 c 0,0.848297 -0.651703,1.5 -1.5,1.5 h -5 C 21.651703,11 21,10.348297 21,9.5 v -5 C 21,3.651703 21.651703,3 22.5,3 Z m 14,0 h 5 C 42.348297,3 43,3.651703 43,4.5 v 5 c 0,0.848297 -0.651703,1.5 -1.5,1.5 h -5 C 35.651703,11 35,10.348297 35,9.5 v -5 C 35,3.651703 35.651703,3 36.5,3 Z"
       id="path1190" />
  </g>
  <g
     id="22-22-window-pin"
     transform="translate(-24,8)">
    <path
       id="rect838-6-3"
       d="M 0,0 H 24 V 24 H 0 Z"
       fill="none"
       style="stroke-width:1.09091" />
    <path
       d="m 19.447632,8.8397214 -4.293533,-4.291903 c -0.460869,-0.452826 -1.119472,-0.642099 -1.750415,-0.50298 -0.631116,0.1391 -1.148965,0.58766 -1.376467,1.192173 -0.227554,0.604674 -0.133847,1.283182 0.248961,1.803477 0.311915,0.814659 0.02754,1.947473 -0.672829,2.64761 C 10.902987,10.38824 9.7484395,10.678846 8.9292665,10.35005 l -0.04887,-0.01484 c -0.4416,-0.249658 -0.97726,-0.268895 -1.435865,-0.05168 -0.458521,0.217388 -0.782669,0.644033 -0.868998,1.143765 -0.0863,0.499879 0.07608,1.010447 0.435057,1.368865 l 1.804042,1.79063 -4.690278,4.688546 v -1.52e-4 c -0.165806,0.165747 -0.165806,0.43465 0,0.60039 0.16593,0.165894 0.434781,0.165894 0.600756,0 L 9.4047965,15.176425 11.19815,16.9691 c 0.289715,0.290797 0.68257,0.455485 1.093138,0.458167 0.410456,0.0029 0.805631,-0.156564 1.099159,-0.443358 l 0.01466,-0.01481 h 1.8e-4 c 0.241581,-0.242999 0.396555,-0.558489 0.440969,-0.89828 0.04454,-0.339615 -0.02407,-0.684406 -0.194801,-0.981425 -0.0034,-0.01358 -0.0069,-0.02702 -0.01074,-0.04029 -0.322622,-0.812579 -0.03414,-1.95816 0.670603,-2.662543 0.70465,-0.704411 1.823088,-0.986463 2.633752,-0.683082 0.329682,0.252016 0.73325,0.388463 1.148245,0.388161 h 0.0276 c 0.501816,-0.008 0.980285,-0.213399 1.331913,-0.571369 0.351648,-0.357969 0.548029,-0.839809 0.547215,-1.341471 C 19.999397,9.6771424 19.800456,9.1960474 19.447408,8.8394054 Z M 9.3333555,14.666713 v 0 0 0 0 h 0.6666705 v 0 0 z M 14.000044,8.0000194 Z"
       id="path64-36"
       style="fill:#1e2431;fill-opacity:1;stroke-width:0.0378912"
       sodipodi:nodetypes="cccccccccccccccccccccccccccccccccccccccccccccccccc" />
  </g>
  <g
     id="16-16-window-pin"
     transform="translate(-40,16)">
    <rect
       style="opacity:0.00100002"
       width="16"
       height="16"
       x="0"
       y="0"
       id="rect27-7" />
    <rect
       style="opacity:0.00100002"
       width="16"
       height="16"
       x="0"
       y="0"
       id="rect27-2" />
    <path
       d="m 13.585692,5.6297839 -3.220143,-3.218924 c -0.345654,-0.339617 -0.839607,-0.48157 -1.312811,-0.377231 -0.473338,0.10432 -0.861724,0.440747 -1.032347,0.894126 -0.170669,0.453505 -0.100389,0.962387 0.186721,1.352609 0.233932,0.610992 0.02065,1.460601 -0.504625,1.985703 -0.525272,0.525107 -1.391183,0.74306 -2.005561,0.496465 l -0.03663,-0.01112 c -0.3312,-0.187243 -0.732946,-0.201673 -1.076897,-0.03876 -0.343895,0.16304 -0.587004,0.483025 -0.651745,0.857821 -0.0647,0.374906 0.05702,0.757832 0.326289,1.026648 L 5.610974,9.940095 2.09327,13.456494 v -1.12e-4 c -0.12436,0.124313 -0.12436,0.325992 0,0.450296 0.124443,0.124421 0.326081,0.124421 0.450561,0 l 3.509765,-3.524359 1.345014,1.3445 c 0.217289,0.218104 0.511928,0.341618 0.819851,0.343633 0.307842,0.0023 0.604222,-0.117431 0.82437,-0.332519 l 0.01103,-0.01109 h 1.29e-4 c 0.18119,-0.182249 0.297417,-0.418863 0.330729,-0.673708 0.03338,-0.254712 -0.01807,-0.513307 -0.146102,-0.73607 -0.0028,-0.01019 -0.0057,-0.02022 -0.0081,-0.03023 C 8.988554,9.677403 9.204897,8.818219 9.733471,8.28993 c 0.528487,-0.528305 1.367315,-0.739848 1.975312,-0.512313 0.24726,0.189011 0.549935,0.291348 0.861179,0.29112 h 0.02071 C 12.967035,8.062737 13.325883,7.908689 13.589604,7.64021 13.853342,7.371738 14.000625,7.010356 14.000015,6.634113 13.99953,6.257866 13.850326,5.897047 13.585541,5.629566 Z M 5.99999,10.000025 v 0 0 0 0 h 0.500009 v 0 0 z M 9.500008,5.0000139 Z"
       id="path64-36-7-5"
       style="fill:#1e2431;fill-opacity:1;stroke-width:0.0284185"
       sodipodi:nodetypes="cccccccccccccccccccccccccccccccccccccccccccccccccc" />
  </g>
  <g
     id="window-close"
     style="fill:#1e2431;fill-opacity:1"
     transform="translate(32)">
    <rect
       id="rect36-3"
       style="opacity:0.00100002;fill:#1e2431;fill-opacity:1"
       y="0"
       x="0"
       height="32"
       width="32" />
    <path
       d="m 16.000054,18.697511 6.74364,6.743798 c 0.744939,0.744914 1.952789,0.744914 2.697679,0 0.744964,-0.744919 0.744964,-1.952582 0,-2.697504 l -6.743856,-6.743797 6.743866,-6.7438034 c 0.744964,-0.7448935 0.744964,-1.9526124 0,-2.6975278 -0.7449,-0.7448934 -1.952735,-0.7448934 -2.697666,0 L 16.000054,13.302486 9.2561979,6.5586694 c -0.744915,-0.7448925 -1.9526435,-0.7448925 -2.6975293,0 -0.7448915,0.7449151 -0.7448915,1.9526134 0,2.6975284 l 6.7438064,6.7438102 -6.7437986,6.743803 c -0.7448933,0.744921 -0.7448933,1.952584 0,2.697505 0.7448846,0.744912 1.9526126,0.744912 2.697527,0 z"
       style="fill:#1e2431;fill-opacity:1;fill-rule:evenodd;stroke:none;stroke-width:1.27162"
       id="path2830" />
  </g>
  <g
     id="22-22-window-close"
     style="fill:#1e2431;fill-opacity:1"
     transform="translate(64,10)">
    <rect
       id="rect18-6"
       y="0"
       x="0"
       height="22"
       width="22"
       style="opacity:0.00100002;fill:#1e2431;fill-opacity:1" />
    <path
       d="m 11.000067,12.888246 4.720492,4.720663 c 0.521514,0.52145 1.366998,0.52145 1.888394,0 0.521519,-0.521437 0.521519,-1.366807 0,-1.888244 L 12.888247,11.00001 17.608962,6.2793459 c 0.52152,-0.5214329 0.52152,-1.3668311 0,-1.8882644 -0.521406,-0.521433 -1.366876,-0.521433 -1.888397,0 L 11.000067,9.1117491 6.279395,4.3910747 c -0.5215178,-0.5214331 -1.3669341,-0.5214331 -1.8882761,0 -0.521492,0.5214349 -0.521492,1.3668302 0,1.8882657 L 9.1117696,11.00001 4.3911189,15.720669 c -0.521492,0.521437 -0.521492,1.366807 0,1.888245 0.521351,0.521448 1.3667672,0.521448 1.8882761,0 z"
       style="fill:#1e2431;fill-opacity:1;fill-rule:evenodd;stroke:none;stroke-width:0.890056"
       id="path2834" />
  </g>
  <g
     id="16-16-window-close"
     transform="translate(86,16)"
     style="fill:#1e2431;fill-opacity:1">
    <rect
       id="rect27-75"
       y="1.2512207e-07"
       x="0"
       height="16"
       width="16"
       style="opacity:0.00100002;fill:#1e2431;fill-opacity:1;stroke-width:1" />
    <path
       d="m 8.000063,9.6185025 4.04613,4.0462825 c 0.44701,0.44695 1.171719,0.44695 1.61863,0 0.447009,-0.44695 0.447009,-1.17155 0,-1.6185 l -4.04632,-4.0462765 4.04632,-4.046283 c 0.447019,-0.446943 0.447019,-1.17157 0,-1.618513 -0.44691,-0.446943 -1.1716,-0.446943 -1.61862,0 l -4.04614,4.046287 -4.0463005,-4.046293 c -0.44701,-0.446942 -1.17165,-0.446942 -1.61852,0 -0.44699,0.446944 -0.44699,1.171569 0,1.618514 l 4.04627,4.046288 -4.04627,4.0462795 c -0.44699,0.44695 -0.44699,1.17155 0,1.6185 0.44687,0.44695 1.17152,0.44695 1.61852,0 z"
       style="fill:#1e2431;fill-opacity:1;fill-rule:evenodd;stroke:none;stroke-width:0.762915"
       id="path2838" />
  </g>
</svg>
