<?xml version="1.0" encoding="UTF-8" standalone="no"?>
<svg
   id="svg18"
   width="32"
   height="32"
   version="1"
   sodipodi:docname="yakuake.svg"
   inkscape:version="1.2.2 (b0a8486541, 2022-12-01)"
   xmlns:inkscape="http://www.inkscape.org/namespaces/inkscape"
   xmlns:sodipodi="http://sodipodi.sourceforge.net/DTD/sodipodi-0.dtd"
   xmlns="http://www.w3.org/2000/svg"
   xmlns:svg="http://www.w3.org/2000/svg">
  <g
     id="22-22-yakuake"
     transform="translate(32,10)">
    <rect
       id="rect2"
       width="22"
       height="22"
       opacity="0.00100002"
       style="fill:#fcfcfc;fill-opacity:1"
       x="0"
       y="0" />
    <path
       id="rect43-2"
       class="ColorScheme-Text"
       d="m 2.0000008,4.6000001 v 0 H 20.000002 v 0 z M 19,5 V 17 H 3 V 5 H 1 V 17.4 C 1,18.2 2.0000008,19 2.7500002,19 H 19.25001 C 20.000002,19 21,18.2 21,17.4 V 5 Z"
       fill-opacity=".3"
       style="color:#d1d5e9;fill:#1e2431;fill-opacity:0.40000001;stroke-width:0.774596"
       sodipodi:nodetypes="cccccccccccccccc" />
    <path
       id="rect63-9"
       class="ColorScheme-Text"
       d="M 1.2500001,3.0000001 H 20.750008 C 21.5,3.0000001 21.5,4 21.5,4 v 0 c 0,0 0,1 -0.749992,1 H 1.2500001 C 0.5,5 0.5,4 0.5,4 v 0 c 0,0 0,-0.9999999 0.7500001,-0.9999999 z"
       style="color:#d1d5e9;fill:#1e2431;fill-opacity:1;stroke-width:0.801784"
       sodipodi:nodetypes="scsssssss" />
    <path
       d="m 10.09324,11.393832 c 2.01e-4,0.127001 -0.04737,0.248862 -0.132312,0.338576 L 6.3629287,15.542161 C 5.6166494,16.325656 4.50356,15.147043 5.2435186,14.356859 L 8.0420857,11.393832 5.2435186,8.4308011 c -0.308276,-0.327686 -0.308276,-0.857625 0,-1.185302 v 0 c 0.3091074,-0.327336 0.8103026,-0.327336 1.1194101,0 L 9.960928,11.05523 c 0.084902,0.08974 0.132514,0.211589 0.132312,0.338602 z m -0.4520727,0 z"
       id="path4-3-9-2-1"
       style="color:#d6dbf1;fill:#1e2431;fill-opacity:1;stroke-width:0.232714"
       sodipodi:nodetypes="ccccccsscccccccccccc"
       class="ColorScheme-Text" />
    <path
       d="M 8.5930503,10.94515 12.219868,7.3411581 c 0.928647,-0.916093 1.920005,0.202472 0.997708,1.125717 L 9.5907703,12.070886 C 8.6620725,12.986924 7.6707469,11.868409 8.5930503,10.94515 Z M 12.419406,7.5662891 Z"
       id="path8-6-7-36-2-9-2"
       style="color:#d6dbf1;fill:#1e2431;fill-opacity:0.40000001;stroke-width:0.171859"
       sodipodi:nodetypes="cccccccccc"
       class="ColorScheme-Text" />
    <path
       d="m 10.968844,14 h 5.062325 c 1.291787,0.0062 1.291787,1.993623 0,2 h -5.062325 c -1.2917922,-0.0062 -1.2917922,-1.993623 0,-2 z m 5.062325,0.399995 z"
       id="path8-6-7-36-2-9-3-7"
       style="color:#d6dbf1;fill:#1e2431;fill-opacity:1;stroke-width:0.197337"
       sodipodi:nodetypes="cccccccccc"
       class="ColorScheme-Text" />
  </g>
  <sodipodi:namedview
     id="namedview14"
     pagecolor="#000000"
     bordercolor="#000aec"
     borderopacity="1"
     inkscape:showpageshadow="false"
     inkscape:pageopacity="0"
     inkscape:pagecheckerboard="true"
     inkscape:deskcolor="#000000"
     showgrid="true"
     inkscape:zoom="10.429825"
     inkscape:cx="29.24306"
     inkscape:cy="26.894027"
     inkscape:window-width="1920"
     inkscape:window-height="994"
     inkscape:window-x="0"
     inkscape:window-y="0"
     inkscape:window-maximized="1"
     inkscape:current-layer="svg18">
    <inkscape:grid
       type="xygrid"
       id="grid1478"
       originx="0"
       originy="0" />
  </sodipodi:namedview>
  <defs
     id="l4k1">
    <style
       id="current-color-scheme"
       type="text/css">.ColorScheme-Background {color:#181818; } .ColorScheme-ButtonBackground { color:#343434; } .ColorScheme-Highlight { color:#1a73e8; }
.ColorScheme-Text { 
    color:#d1d5e9;
} .ColorScheme-ViewBackground { color:#242424; } .ColorScheme-NegativeText { color:#ff4747; }</style>
  </defs>
  <g
     id="yakuake">
    <rect
       id="rect11"
       width="32"
       height="32"
       opacity="0.00100002"
       style="fill:#fcfcfc;fill-opacity:1"
       x="0"
       y="0" />
    <path
       id="rect43"
       class="ColorScheme-Text"
       d="M 4,8 V 8 H 28 V 8 Z M 27,8 V 24 H 5 V 8 H 3 v 16 c 0,1 1,2 2,2 h 22 c 1,0 2,-1 2,-2 V 8 Z"
       fill-opacity=".3"
       style="fill:#1e2431;fill-opacity:0.40000001"
       sodipodi:nodetypes="cccccccccccccccc" />
    <path
       id="rect63"
       class="ColorScheme-Text"
       d="m 3,6 h 26 c 1,0 1,1 1,1 v 0 c 0,0 0,1 -1,1 H 3 C 2,8 2,7 2,7 V 7 C 2,7 2,6 3,6 Z"
       style="fill:#1e2431;fill-opacity:1;stroke-width:0.925815"
       sodipodi:nodetypes="scsssssss" />
    <path
       d="m 14.790987,16.492286 c 2.68e-4,0.158754 -0.06321,0.311081 -0.176413,0.423228 l -4.7973384,4.76219 C 8.8221982,22.657069 7.3380765,21.183803 8.324686,20.196072 l 3.73143,-3.703786 -3.73143,-3.703785 c -0.4110294,-0.409612 -0.4110294,-1.072032 0,-1.481628 v 0 c 0.4121467,-0.409164 1.0804029,-0.409164 1.4925496,0 l 4.7973384,4.762164 c 0.113177,0.112165 0.176682,0.264488 0.176413,0.423249 z m -0.602771,0 z"
       id="path4-3-9-2"
       style="color:#d6dbf1;fill:#1e2431;fill-opacity:1;stroke-width:0.30043"
       sodipodi:nodetypes="ccccccsscccccccccccc"
       class="ColorScheme-Text" />
    <path
       d="m 12.790732,15.931437 4.835756,-4.504991 c 1.238195,-1.145114 2.560012,0.253091 1.330287,1.407149 l -4.835756,4.505011 c -1.238257,1.145051 -2.560024,-0.253091 -1.330287,-1.407169 z m 5.101807,-4.223575 z"
       id="path8-6-7-36-2-9"
       style="color:#d6dbf1;fill:#1e2431;fill-opacity:0.40000001;stroke-width:0.221869"
       sodipodi:nodetypes="cccccccccc"
       class="ColorScheme-Text" />
    <path
       d="m 16.245654,20 h 6.508691 c 1.660873,0.0063 1.660873,1.993619 0,2 h -6.508691 c -1.660872,-0.0063 -1.660872,-1.993619 0,-2 z m 6.508691,0.399995 z"
       id="path8-6-7-36-2-9-3"
       style="color:#d6dbf1;fill:#1e2431;fill-opacity:1;stroke-width:0.223758"
       sodipodi:nodetypes="cccccccccc"
       class="ColorScheme-Text" />
  </g>
</svg>
