<?xml version="1.0" encoding="UTF-8" standalone="no"?>
<svg
   id="svg2"
   sodipodi:version="0.32"
   inkscape:version="1.3.2 (091e20ef0f, 2023-11-25)"
   width="214"
   height="214"
   sodipodi:docname="clock.svg"
   inkscape:output_extension="org.inkscape.output.svg.inkscape"
   inkscape:export-xdpi="90"
   inkscape:export-ydpi="90"
   version="1.0"
   xmlns:inkscape="http://www.inkscape.org/namespaces/inkscape"
   xmlns:sodipodi="http://sodipodi.sourceforge.net/DTD/sodipodi-0.dtd"
   xmlns:xlink="http://www.w3.org/1999/xlink"
   xmlns="http://www.w3.org/2000/svg"
   xmlns:svg="http://www.w3.org/2000/svg"
   xmlns:rdf="http://www.w3.org/1999/02/22-rdf-syntax-ns#"
   xmlns:cc="http://creativecommons.org/ns#"
   xmlns:dc="http://purl.org/dc/elements/1.1/">
  <style
     id="current-color-scheme"
     type="text/css">.ColorScheme-Background { color:#24273a; }
.ColorScheme-Text { color:#d1d5e9; }
.ColorScheme-Highlight { color:#7580bc; }
</style>
  <sodipodi:namedview
     inkscape:window-height="994"
     inkscape:window-width="1920"
     inkscape:pageshadow="2"
     inkscape:pageopacity="0"
     guidetolerance="3"
     gridtolerance="4"
     objecttolerance="6"
     borderopacity="1"
     bordercolor="#0005e5"
     pagecolor="#000000"
     id="base"
     inkscape:zoom="1"
     inkscape:cx="167"
     inkscape:cy="300.49999"
     inkscape:window-x="0"
     inkscape:window-y="0"
     inkscape:current-layer="svg2"
     showgrid="true"
     showguides="false"
     inkscape:guide-bbox="true"
     inkscape:window-maximized="1"
     inkscape:document-rotation="0"
     inkscape:lockguides="false"
     inkscape:pagecheckerboard="true"
     inkscape:showpageshadow="false"
     inkscape:deskcolor="#000000">
    <sodipodi:guide
       id="guide4454"
       position="1516.8644,-775.48024"
       orientation="1,0"
       inkscape:locked="false" />
    <sodipodi:guide
       id="guide7371"
       position="1040.8644,-834.48024"
       orientation="0,1"
       inkscape:locked="false" />
    <inkscape:grid
       type="xygrid"
       id="grid942"
       originx="0"
       originy="0"
       spacingy="1"
       spacingx="1"
       units="px"
       visible="true" />
  </sodipodi:namedview>
  <metadata
     id="metadata7">
    <rdf:RDF>
      <cc:Work
         rdf:about="">
        <dc:format>image/svg+xml</dc:format>
        <dc:type
           rdf:resource="http://purl.org/dc/dcmitype/StillImage" />
      </cc:Work>
    </rdf:RDF>
  </metadata>
  <defs
     id="defs1131">
    <linearGradient
       id="linearGradient1085">
      <stop
         style="stop-color:#24273a;stop-opacity:1;"
         offset="0"
         id="stop1077" />
      <stop
         id="stop1079"
         offset="0.89999998"
         style="stop-color:#24273a;stop-opacity:0.52156866;" />
      <stop
         style="stop-color:#24273a;stop-opacity:0.10588235;"
         offset="0.95999998"
         id="stop1081" />
      <stop
         style="stop-color:#24273a;stop-opacity:0;"
         offset="1"
         id="stop1083" />
    </linearGradient>
    <linearGradient
       id="linearGradient4011">
      <stop
         style="stop-color:#232629;stop-opacity:1;"
         offset="0"
         id="stop4013" />
      <stop
         id="stop4019"
         offset="0.89999998"
         style="stop-color:#232629;stop-opacity:0.52348995;" />
      <stop
         style="stop-color:#232629;stop-opacity:0.10738255;"
         offset="0.95999998"
         id="stop4021" />
      <stop
         style="stop-color:#232629;stop-opacity:0;"
         offset="1"
         id="stop4015" />
    </linearGradient>
    <linearGradient
       id="linearGradient3264">
      <stop
         style="stop-color:#000000;stop-opacity:1;"
         offset="0"
         id="stop3266" />
      <stop
         id="stop3272"
         offset="0.68343294"
         style="stop-color:#000000;stop-opacity:0.49803922;" />
      <stop
         style="stop-color:#000000;stop-opacity:0.14117648;"
         offset="0.79985917"
         id="stop3274" />
      <stop
         id="stop3276"
         offset="0.89750695"
         style="stop-color:#000000;stop-opacity:0.03137255;" />
      <stop
         style="stop-color:#000000;stop-opacity:0;"
         offset="1"
         id="stop3268" />
    </linearGradient>
    <linearGradient
       id="linearGradient6617">
      <stop
         style="stop-color:#e7e7e7;stop-opacity:0;"
         offset="0"
         id="stop6619" />
      <stop
         id="stop6625"
         offset="0.89623755"
         style="stop-color:#f3f3f3;stop-opacity:1" />
      <stop
         style="stop-color:#e3e3e3;stop-opacity:0.99861372"
         offset="1"
         id="stop6621" />
    </linearGradient>
    <linearGradient
       id="linearGradient5995">
      <stop
         id="stop5997"
         offset="0"
         style="stop-color:#d7d7d7;stop-opacity:1;" />
      <stop
         id="stop5999"
         offset="1"
         style="stop-color:#ffffff;stop-opacity:1" />
    </linearGradient>
    <linearGradient
       id="linearGradient6876"
       inkscape:collect="always">
      <stop
         id="stop6878"
         offset="0"
         style="stop-color:#ffffff;stop-opacity:1;" />
      <stop
         id="stop6880"
         offset="1"
         style="stop-color:#ffffff;stop-opacity:0;" />
    </linearGradient>
    <linearGradient
       id="linearGradient6608">
      <stop
         id="stop6610"
         offset="0"
         style="stop-color:#ffffff;stop-opacity:1;" />
      <stop
         style="stop-color:#f0f0f0;stop-opacity:1;"
         offset="0.79710144"
         id="stop6617" />
      <stop
         id="stop6612"
         offset="1"
         style="stop-color:#e2e2e2;stop-opacity:1;" />
    </linearGradient>
    <linearGradient
       id="linearGradient6195"
       inkscape:collect="always">
      <stop
         id="stop6197"
         offset="0"
         style="stop-color:#ffffff;stop-opacity:1;" />
      <stop
         id="stop6199"
         offset="1"
         style="stop-color:#ffffff;stop-opacity:0;" />
    </linearGradient>
    <linearGradient
       id="linearGradient8518">
      <stop
         id="stop8520"
         offset="0"
         style="stop-color:#bd0000;stop-opacity:1;" />
      <stop
         style="stop-color:#ff4747;stop-opacity:1"
         offset="0.15470119"
         id="stop8522" />
      <stop
         id="stop8524"
         offset="0.94668281"
         style="stop-color:#9c0000;stop-opacity:1;" />
      <stop
         id="stop8526"
         offset="1"
         style="stop-color:#db0000;stop-opacity:1;" />
    </linearGradient>
    <linearGradient
       gradientUnits="userSpaceOnUse"
       y2="117.86208"
       x2="1155.6477"
       y1="283.88474"
       x1="1155.6477"
       id="linearGradient6203"
       xlink:href="#linearGradient6195"
       inkscape:collect="always" />
    <linearGradient
       gradientTransform="translate(-1027.6356,-20.896313)"
       y2="53.696342"
       x2="1133.3816"
       y1="21.651564"
       x1="1133.3816"
       gradientUnits="userSpaceOnUse"
       id="linearGradient6890"
       xlink:href="#linearGradient6876"
       inkscape:collect="always" />
    <filter
       color-interpolation-filters="sRGB"
       inkscape:collect="always"
       id="filter5358-1"
       x="-0.085071997"
       width="1.170144"
       y="-0.082163223"
       height="1.1643264">
      <feGaussianBlur
         inkscape:collect="always"
         stdDeviation="0.87589417"
         id="feGaussianBlur5360-0" />
    </filter>
    <filter
       color-interpolation-filters="sRGB"
       inkscape:collect="always"
       id="filter5590"
       x="-0.061314347"
       width="1.1226287"
       y="-0.4526684"
       height="1.9053368">
      <feGaussianBlur
         inkscape:collect="always"
         stdDeviation="0.51095291"
         id="feGaussianBlur5592" />
    </filter>
    <filter
       color-interpolation-filters="sRGB"
       inkscape:collect="always"
       id="filter5574"
       x="-0.061314347"
       width="1.1226287"
       y="-0.4526684"
       height="1.9053368">
      <feGaussianBlur
         inkscape:collect="always"
         stdDeviation="0.51095291"
         id="feGaussianBlur5576" />
    </filter>
    <filter
       color-interpolation-filters="sRGB"
       inkscape:collect="always"
       id="filter5578"
       x="-0.061314347"
       width="1.1226287"
       y="-0.4526684"
       height="1.9053368">
      <feGaussianBlur
         inkscape:collect="always"
         stdDeviation="0.51095291"
         id="feGaussianBlur5580" />
    </filter>
    <radialGradient
       inkscape:collect="always"
       xlink:href="#linearGradient4011"
       id="radialGradient4471"
       gradientUnits="userSpaceOnUse"
       cx="1255.8716"
       cy="382.72916"
       fx="1255.8716"
       fy="382.72916"
       r="96.605507" />
    <radialGradient
       inkscape:collect="always"
       xlink:href="#linearGradient1085"
       id="radialGradient4671"
       gradientUnits="userSpaceOnUse"
       cx="1255.8716"
       cy="382.72916"
       fx="1255.8716"
       fy="382.72916"
       r="96.605507"
       gradientTransform="matrix(1.0765432,0,0,1.0765432,-1252,-312.02453)" />
  </defs>
  <g
     inkscape:groupmode="layer"
     id="layer1"
     style="display:none"
     inkscape:label="layer1"
     transform="translate(-1578.1356,81.7415)" />
  <g
     inkscape:groupmode="layer"
     id="layer2"
     style="display:inline"
     inkscape:label="glow"
     transform="translate(-1578.1356,81.7415)" />
  <g
     transform="translate(-808.03,413.47464)"
     style="display:inline"
     inkscape:label="box"
     id="layer4" />
  <g
     transform="translate(-808.03,413.47464)"
     style="display:inline"
     inkscape:label="zip_app"
     id="layer5" />
  <g
     id="ClockFace"
     transform="translate(7.0000277,6.9999919)">
    <rect
       y="-6.9999919"
       x="-7.0000277"
       height="214"
       width="214"
       id="rect4069"
       style="opacity:0.00499998;fill:#717171;fill-opacity:1;stroke:none" />
    <circle
       style="fill:url(#radialGradient4671);fill-opacity:1;stroke:none;stroke-width:1.07654"
       id="path4329"
       inkscape:export-xdpi="90"
       inkscape:export-ydpi="90"
       cx="99.999969"
       cy="99.999977"
       r="104" />
    <circle
       inkscape:export-ydpi="90"
       inkscape:export-xdpi="90"
       style="opacity:0.7;fill:#222638;fill-opacity:1;stroke:none"
       id="path5099"
       cx="100.00558"
       cy="100.00553"
       r="96.605507"
       class="ColorScheme-Background" />
    <path
       inkscape:connector-curvature="0"
       style="font-style:normal;font-variant:normal;font-weight:normal;font-stretch:normal;font-size:medium;line-height:normal;font-family:Sans;-inkscape-font-specification:Sans;text-indent:0;text-align:start;text-decoration:none;text-decoration-line:none;letter-spacing:normal;word-spacing:normal;text-transform:none;writing-mode:lr-tb;direction:ltr;baseline-shift:baseline;text-anchor:start;display:inline;overflow:visible;visibility:visible;fill:#bac8df;fill-opacity:1;stroke:none;stroke-width:0.995338px;marker:none;enable-background:accumulate"
       d="m 56.56463,23.55 -0.83938,0.4979 2.083,3.57856 c 0.27626,-0.16275 0.56112,-0.30714 0.83938,-0.46679 z m 87.42714,0 -2.0213,3.51634 c 0.2908,0.16611 0.582,0.3284 0.8705,0.49788 l 2.0213,-3.51632 z m -95.19978,5.00997 -0.80836,0.56012 2.45609,3.39184 c 0.26747,-0.19804 0.53842,-0.39631 0.80847,-0.59123 z m 102.97188,0 -2.3624,3.26739 c 0.265,0.1909 0.5454,0.36619 0.808,0.56012 l 2.3633,-3.26739 z m -110.18499,5.78792 -0.71512,0.65348 2.76717,3.08069 c 0.23855,-0.21855 0.505,-0.40657 0.74614,-0.62238 z m 117.39809,0 -2.7044,2.98733 c 0.2465,0.22012 0.5018,0.43051 0.7456,0.65346 l 2.7052,-2.98731 z m -123.95825,6.50366 -0.65287,0.74679 3.10907,2.80062 c 0.21812,-0.24627 0.43204,-0.50314 0.65287,-0.74681 z m 130.51875,0 -2.9847,2.6761 c 0.2317,0.25441 0.4553,0.52076 0.6838,0.77796 l 2.9847,-2.70727 z m -136.3638,7.15711 -0.59065,0.77791 3.41997,2.48945 c 0.19121,-0.26718 0.36541,-0.54422 0.55962,-0.80907 z m 142.2091,0 -3.2338,2.36494 c 0.1896,0.25775 0.373,0.51797 0.5597,0.77794 l 3.2643,-2.36497 z m -147.30792,7.7172 -0.49748,0.87133 3.66879,2.11598 c 0.16479,-0.29045 0.32919,-0.58297 0.49748,-0.8713 z m 152.40682,0 -3.4828,2.02268 c 0.1691,0.28917 0.3315,0.57994 0.4981,0.87129 l 3.482,-2.02264 z m -156.63522,8.21512 -0.40414,0.90243 3.8553,1.7115 c 0.13258,-0.30405 0.26815,-0.60029 0.40413,-0.90244 z m 160.86282,0 -3.6687,1.61814 c 0.1362,0.30014 0.2725,0.60045 0.4045,0.90242 l 3.6686,-1.61813 z m -164.22056,8.61966 -0.31086,0.93355 4.0417,1.30693 c 0.0975,-0.3071 0.1795,-0.62794 0.27987,-0.93354 z m 167.57846,0 -3.824,1.24472 c 0.102,0.30836 0.213,0.6236 0.3107,0.93353 l 3.8247,-1.2447 z m -170.03457,8.93084 -0.18659,0.96465 4.13505,0.87129 c 0.066,-0.32271 0.1484,-0.64329 0.21764,-0.96465 z m 172.46017,0 -3.9175,0.84018 c 0.069,0.31929 0.1209,0.644 0.1865,0.96464 l 3.9481,-0.84017 z m -173.9214,9.11753 -0.12437,0.96464 4.25935,0.43567 c 0.031,-0.32063 0.059,-0.64511 0.0933,-0.96467 l -4.22832,-0.43564 z m 175.4447,0 -4.0418,0.43564 c 0.035,0.31956 0.063,0.64404 0.094,0.96467 l 4.0417,-0.43567 -0.094,-0.96464 z m -171.27862,18.01723 -4.29045,0.43564 0.12437,0.99579 4.25935,-0.43566 c -0.037,-0.33123 -0.061,-0.66335 -0.0931,-0.99577 z m 167.29922,0 c -0.033,0.33242 -0.057,0.66454 -0.094,0.99577 l 4.073,0.43566 0.094,-0.99579 z m -165.99336,8.68188 -4.1973,0.90243 0.18659,0.96465 4.22832,-0.90242 c -0.071,-0.32098 -0.15117,-0.64232 -0.21761,-0.96466 z m 164.68726,0.0625 c -0.067,0.32225 -0.1471,0.64374 -0.2179,0.96465 l 3.9801,0.84018 0.2171,-0.96465 z m -162.44869,8.43293 -4.10403,1.33808 0.31086,0.96463 4.10395,-1.33804 c -0.10696,-0.32192 -0.20762,-0.64105 -0.31078,-0.96467 z m 160.17919,0.0625 c -0.1041,0.32351 -0.2038,0.64285 -0.3109,0.96466 l 3.917,1.27581 0.3114,-0.96463 z m -157.07011,8.18401 -3.94865,1.77369 0.40414,0.90244 3.94864,-1.77373 c -0.13696,-0.30182 -0.27075,-0.59875 -0.40413,-0.9024 z m 153.96121,0.093 c -0.1338,0.30207 -0.268,0.60227 -0.4044,0.90241 l 3.7615,1.68039 0.4044,-0.90244 z m -149.98164,7.74835 -3.79316,2.17825 0.49748,0.8713 3.79316,-2.17826 c -0.16909,-0.28774 -0.33187,-0.58135 -0.49748,-0.87129 z m 146.00154,0.0933 c -0.1667,0.29083 -0.3274,0.58265 -0.4973,0.87129 l 3.6069,2.08489 0.4973,-0.8713 z m -141.27574,7.31269 -3.51331,2.55166 0.59065,0.80907 3.51331,-2.55166 c -0.19851,-0.26916 -0.39534,-0.53747 -0.59065,-0.80907 z m 136.48824,0.093 c -0.1922,0.2664 -0.3644,0.54501 -0.5597,0.80906 l 3.3579,2.45832 0.5902,-0.80907 z m -130.95425,6.7526 -3.26447,2.92505 0.65287,0.74685 3.26457,-2.92507 c -0.22304,-0.24468 -0.43266,-0.49955 -0.65297,-0.74683 z m 125.45095,0.093 c -0.2255,0.25222 -0.4562,0.49739 -0.6839,0.74685 l 3.1401,2.83172 0.6838,-0.74685 z m -119.32605,6.16136 -2.89146,3.23623 0.71512,0.68462 2.92256,-3.26738 c -0.24694,-0.22012 -0.50179,-0.43052 -0.74622,-0.65347 z m 113.13875,0.0931 c -0.2492,0.22711 -0.4934,0.46045 -0.7464,0.68457 l 2.8294,3.14293 0.7464,-0.68462 z m -106.36098,5.47675 -2.54936,3.51628 0.80836,0.59127 2.54936,-3.51632 c -0.27016,-0.1945 -0.54051,-0.3936 -0.80836,-0.59123 z m 99.55238,0.0931 c -0.2687,0.19707 -0.5377,0.3973 -0.8081,0.59123 l 2.4866,3.42298 0.8089,-0.59127 z m -92.18387,4.76102 -2.17625,3.76529 0.83938,0.49788 2.17635,-3.79639 c -0.27856,-0.15929 -0.56292,-0.30439 -0.83948,-0.46678 z m 84.81537,0.0625 c -0.2819,0.1645 -0.5561,0.33662 -0.8393,0.4979 l 2.1142,3.70304 0.8705,-0.49788 z m -77.04262,3.98312 -1.74109,3.95194 0.90161,0.40456 1.77211,-3.952 c -0.31166,-0.13706 -0.62305,-0.26379 -0.93263,-0.4045 z m 69.26992,0.093 c -0.3062,0.13829 -0.6243,0.26985 -0.9331,0.40455 l 1.7106,3.85862 0.9322,-0.40455 z m -61.06201,3.1118 -1.33697,4.13865 0.93274,0.31121 1.33685,-4.13867 c -0.31247,-0.0996 -0.62176,-0.20794 -0.93262,-0.31119 z m 52.82291,0.0625 c -0.3204,0.10562 -0.6412,0.20929 -0.9633,0.31117 l 1.3365,4.07645 0.9634,-0.31121 z m -44.3662,2.24048 -0.90171,4.23201 0.99461,0.21784 0.9018,-4.23201 c -0.332,-0.0688 -0.6642,-0.14543 -0.9947,-0.21784 z m 35.8781,0.0625 c -0.3247,0.0705 -0.6372,0.1514 -0.9633,0.21783 l 0.9018,4.16979 0.9633,-0.21784 z m -27.173,1.36919 -0.4661,4.3254 0.9946,0.093 0.4357,-4.29428 c -0.3231,-0.0321 -0.6421,-0.0885 -0.9642,-0.12445 z m 18.4993,0.0313 c -0.3213,0.035 -0.6412,0.0624 -0.9642,0.093 l 0.4356,4.29428 0.9634,-0.093 z"
       id="path5480"
       sodipodi:nodetypes="cccccccccccccccccccccccccccccccccccccccccccccccccccccccccccccccccccccccccccccccccccccccccccccccccccccccccccccccccccccccccccccccccccccccccccccccccccccccccccccccccccccccccccccccccccccccccccccccccccccccccccccccccccccccccccccccccccccccccccccccccccc"
       class="ColorScheme-Text" />
    <path
       id="path6204"
       d="m 104.8183,11.965 c 2.3604,2e-5 4.2502,0.62076 5.6701,1.8622 1.4321,1.2304 2.1478,2.91369 2.1478,5.04992 0,1.45403 -0.3746,2.82423 -1.1244,4.11041 -0.7493,1.27502 -1.9014,2.74588 -3.4558,4.41234 l -7.0962,7.56647 h 11.1898 V 37.55 H 98.0234 v -3.17087 l 8.0701,-9.17707 c 1.0955,-1.25262 1.9181,-2.34318 2.4664,-3.27146 0.5588,-0.93957 0.8382,-1.86785 0.8382,-2.78507 0,-1.43157 -0.4082,-2.52211 -1.2244,-3.27152 -0.8161,-0.74932 -1.9631,-1.12405 -3.4396,-1.12408 -2.1922,3e-5 -3.9868,0.70469 -5.3847,2.11397 l -0.9732,-2.634 c 1.6438,-1.50988 3.7911,-2.26488 6.4421,-2.2649 m -12.7821,1.05698 h 3.0034 V 37.55 H 92.0362 V 15.82373 c -1.3759,0.91716 -2.7456,1.68335 -4.1102,2.2984 V 15.4882 c 1.0736,-0.46971 2.4434,-1.29178 4.1102,-2.46622"
       inkscape:connector-curvature="0"
       style="font-style:normal;font-variant:normal;font-weight:normal;font-stretch:normal;font-size:40px;line-height:125%;font-family:Oxygen;-inkscape-font-specification:Oxygen;text-align:start;letter-spacing:0px;word-spacing:0px;writing-mode:lr-tb;text-anchor:start;fill:#232629;fill-opacity:0.442708;stroke:none;stroke-width:0.858987;filter:url(#filter5358-1)" />
    <path
       id="path6197"
       d="m 104.6959,12.36483 c 2.2036,3e-5 3.9681,0.57951 5.2934,1.73848 1.3369,1.14863 2.005,2.72005 2.005,4.71435 0,1.35742 -0.3498,2.63661 -1.0496,3.83731 -0.6997,1.19028 -1.7753,2.56345 -3.2263,4.11915 l -6.6245,7.06371 H 111.54 v 2.412 H 98.3522 v -2.96021 l 7.5343,-8.56727 c 1.0224,-1.1694 1.7906,-2.18749 2.3026,-3.05407 0.5217,-0.87715 0.7823,-1.74375 0.7823,-2.60005 0,-1.33643 -0.3809,-2.35452 -1.143,-3.05412 -0.7617,-0.69954 -1.833,-1.04939 -3.2112,-1.0494 -2.0463,10e-6 -3.7218,0.65786 -5.0266,1.97352 l -0.9086,-2.459 c 1.5342,-1.40953 3.539,-2.11437 6.0139,-2.1144 M 92.7628,13.35158 H 95.567 V 36.24983 H 92.7628 V 15.96718 c -1.2841,0.85618 -2.5626,1.57148 -3.8368,2.14566 v -2.4589 c 1.0022,-0.43849 2.281,-1.20596 3.8368,-2.30236"
       inkscape:connector-curvature="0"
       style="font-style:normal;font-variant:normal;font-weight:normal;font-stretch:normal;font-size:40px;line-height:125%;font-family:Oxygen;-inkscape-font-specification:Oxygen;text-align:start;letter-spacing:0px;word-spacing:0px;writing-mode:lr-tb;text-anchor:start;fill:#4e70ac;fill-opacity:1;stroke:none;stroke-width:0.801912"
       class="ColorSneme-Highlight  ColorScheme-Highlight" />
    <rect
       inkscape:export-ydpi="90"
       inkscape:export-xdpi="90"
       y="580.17072"
       x="927.4787"
       height="2.7090182"
       width="20"
       id="rect5549"
       style="fill:#212121;fill-opacity:0.413462;stroke:none;filter:url(#filter5590)"
       transform="matrix(0.74918656,0,0,1,-684.83831,-480.01699)" />
    <rect
       inkscape:export-ydpi="90"
       inkscape:export-xdpi="90"
       style="fill:#bac8df;fill-opacity:1;stroke:none;stroke-width:0.866025"
       id="rect5442"
       width="15"
       height="2.7090182"
       x="9.9081144"
       y="98.942055"
       class="ColorSneme-Highlight  ColorScheme-Highlight" />
    <rect
       inkscape:export-ydpi="90"
       inkscape:export-xdpi="90"
       style="fill:#1c1c1c;fill-opacity:0.360577;stroke:none;filter:url(#filter5574)"
       id="rect5531"
       width="20"
       height="2.7090182"
       x="1088.5787"
       y="580.17169"
       transform="matrix(0.75581565,0,0,1,-646.76484,-480.01699)" />
    <rect
       inkscape:export-ydpi="90"
       inkscape:export-xdpi="90"
       y="-1323.934"
       x="349.02609"
       height="2.7090182"
       width="20"
       id="rect5571"
       style="fill:#2a2a2a;fill-opacity:0.524038;stroke:none;filter:url(#filter5578)"
       transform="matrix(0,0.64048563,-1,0,-1222.2617,-43.5462)" />
    <rect
       inkscape:export-ydpi="90"
       inkscape:export-xdpi="90"
       transform="rotate(90)"
       style="fill:#bac8df;fill-opacity:1;stroke:none;stroke-width:0.866025"
       id="rect5448"
       width="15"
       height="2.7090182"
       x="176.59697"
       y="-101.76346"
       class="ColorSneme-Highlight  ColorScheme-Highlight" />
    <circle
       inkscape:export-ydpi="90"
       inkscape:export-xdpi="90"
       id="path5627"
       style="fill:none;stroke:#262a40;stroke-opacity:1"
       cx="100.00058"
       cy="99.999496"
       r="96.605507"
       class="ColorScheme-Background" />
    <path
       id="path6063"
       style="fill:#bac8df;fill-opacity:1;stroke:none"
       d="m 172.33657,57.14796 4.0274,-2.3252 1.3545,2.34607 -4.0274,2.3252 z m -149.43492,86.2763 4.0273,-2.32515 1.3545,2.34607 -4.0273,2.32515 z"
       inkscape:connector-curvature="0"
       class="ColorSneme-Highlight  ColorScheme-Highlight" />
    <path
       inkscape:connector-curvature="0"
       d="m 141.11257,26.91552 2.3252,-4.02738 2.3461,1.35451 -2.3252,4.02738 z m -86.27632,149.43492 2.3252,-4.02729 2.3461,1.35451 -2.3252,4.02729 z"
       style="fill:#bac8df;fill-opacity:1;stroke:none"
       id="path6065"
       class="ColorSneme-Highlight  ColorScheme-Highlight" />
    <path
       id="path6067"
       style="fill:#bac8df;fill-opacity:1;stroke:none"
       d="m 26.92905,59.49407 -4.0274,-2.32521 1.3545,-2.34608 4.0274,2.3252 z m 149.43492,86.27629 -4.0273,-2.3252 1.3545,-2.34614 4.0273,2.32526 z"
       inkscape:connector-curvature="0"
       class="ColorSneme-Highlight  ColorScheme-Highlight" />
    <path
       inkscape:connector-curvature="0"
       d="m 57.16145,28.27007 -2.3252,-4.02739 2.3461,-1.35452 2.3252,4.02738 z m 86.27632,149.43491 -2.3251,-4.02733 2.3461,-1.35457 2.3251,4.02738 z"
       style="fill:#bac8df;fill-opacity:1;stroke:none"
       id="path6069"
       class="ColorSneme-Highlight  ColorScheme-Highlight" />
    <rect
       style="fill:#bac8df;fill-opacity:1;stroke:none;stroke-width:0.866025"
       id="rect952"
       width="15"
       height="2.7090182"
       x="176.108"
       y="98.449989"
       inkscape:export-xdpi="90"
       inkscape:export-ydpi="90"
       class="ColorSneme-Highlight  ColorScheme-Highlight" />
    <rect
       id="hint-hands-shadow-offset-to-south"
       style="opacity:0.01;fill:#008080;fill-opacity:1;stroke:none"
       width="4"
       height="2"
       x="100"
       y="70" />
  </g>
  <circle
     style="opacity:0.00100002;fill:#232629;fill-opacity:1;stroke:none"
     id="HandCenterScrew"
     inkscape:label="#path4580"
     cx="310"
     cy="60"
     r="5" />
  <circle
     style="opacity:0.00100002;fill:#232629;fill-opacity:1;stroke:none;stroke-width:1.57392"
     id="Glass"
     inkscape:label="#path4584"
     cx="-150"
     cy="100.82644"
     r="70.826439" />
  <g
     id="SecondHand"
     transform="matrix(0,0.94853801,-0.8,0,331.8,-126.81014)">
    <rect
       x="247"
       y="64"
       width="81"
       height="8"
       rx="0"
       ry="0"
       fill="none"
       style="paint-order:fill markers stroke"
       id="rect164" />
    <g
       transform="translate(161,-9)"
       fill="#5657f5"
       id="g170">
      <rect
         x="81.699959"
         y="77"
         width="85.5"
         height="2"
         rx="1.5338267"
         ry="1"
         style="fill:#4e70ac;fill-opacity:1;stroke-width:0.910435;paint-order:fill markers stroke"
         id="rect166"
         class="ColorSneme-Highlight  ColorScheme-Highlight" />
      <circle
         cx="89.853874"
         cy="81"
         style="fill:#7580bc;fill-opacity:0.01;stroke-width:1;paint-order:fill markers stroke"
         id="circle168"
         r="2" />
    </g>
  </g>
  <g
     id="MinuteHand"
     transform="translate(131,5.4)">
    <g
       transform="translate(23,2)"
       fill="#ffffff"
       id="g177">
      <path
         d="m 100,96 a 4,4 0 0 0 -4,4 4,4 0 0 0 4,4 4,4 0 0 0 4,-4 4,4 0 0 0 -4,-4 z m 0,1 a 3,3 0 0 1 3,3 3,3 0 0 1 -3,3 3,3 0 0 1 -3,-3 3,3 0 0 1 3,-3 z"
         stroke-linecap="round"
         stroke-linejoin="round"
         stroke-width="1.3333"
         style="fill:#bac8df;fill-opacity:1;paint-order:fill markers stroke"
         id="path173"
         class="ColorScheme-Text" />
      <path
         transform="translate(-23,-2)"
         d="m 123,105 -2,7 1,63 a 1,1 0 0 0 1,1 1,1 0 0 0 1,-1 l 1,-63 z"
         id="path175"
         style="fill:#bac8df;fill-opacity:1"
         class="ColorScheme-Text" />
    </g>
    <rect
       x="117"
       y="96"
       width="12"
       height="85"
       rx="0"
       ry="0"
       fill="none"
       stroke-linecap="round"
       stroke-linejoin="round"
       stroke-width="1.8439"
       style="paint-order:fill markers stroke"
       id="rect179" />
  </g>
  <g
     id="HourHand"
     transform="translate(75,34.4)">
    <g
       transform="rotate(90,126.5,99.5)"
       fill="#ffffff"
       id="g186">
      <path
         d="m 93,103 -2,7 1,44 a 1,1 0 0 0 1,1 1,1 0 0 0 1,-1 l 1,-44 z"
         id="path182"
         style="fill:#bac8df;fill-opacity:1"
         class="ColorScheme-Text"
         transform="rotate(-90,85,85)" />
      <path
         d="m 100,73 a 4,4 0 0 0 -4,4 4,4 0 0 0 4,4 4,4 0 0 0 4,-4 4,4 0 0 0 -4,-4 z m 0,1 a 3,3 0 0 1 3,3 3,3 0 0 1 -3,3 3,3 0 0 1 -3,-3 3,3 0 0 1 3,-3 z"
         stroke-linecap="round"
         stroke-linejoin="round"
         stroke-width="1.3333"
         style="fill:#bac8df;fill-opacity:1;paint-order:fill markers stroke"
         id="path184"
         class="ColorScheme-Text" />
    </g>
    <rect
       x="140"
       y="64"
       width="18"
       height="64"
       rx="0"
       ry="0"
       fill="none"
       stroke-linecap="round"
       stroke-linejoin="round"
       stroke-width="2.043"
       style="paint-order:fill markers stroke"
       id="rect188" />
  </g>
</svg>
