<?xml version="1.0" encoding="UTF-8" standalone="no"?>
<svg
   version="1.0"
   width="22.000002"
   height="22.000002"
   id="svg2"
   inkscape:version="1.2.2 (b0a8486541, 2022-12-01)"
   sodipodi:docname="close.svg"
   viewBox="0 0 20.625004 20.625002"
   xmlns:inkscape="http://www.inkscape.org/namespaces/inkscape"
   xmlns:sodipodi="http://sodipodi.sourceforge.net/DTD/sodipodi-0.dtd"
   xmlns:xlink="http://www.w3.org/1999/xlink"
   xmlns="http://www.w3.org/2000/svg"
   xmlns:svg="http://www.w3.org/2000/svg"
   xmlns:rdf="http://www.w3.org/1999/02/22-rdf-syntax-ns#"
   xmlns:cc="http://creativecommons.org/ns#"
   xmlns:dc="http://purl.org/dc/elements/1.1/">
  <g
     id="pressed-inactive-center"
     transform="translate(130)">
    <rect
       style="opacity:0.00100002;fill:#ffffff;fill-opacity:1;stroke:none;stroke-width:1.03125"
       id="rect3096"
       width="20.625"
       height="20.625"
       x="6.4273983e-08"
       y="4.7933138e-08" />
    <path
       d="m 15.0065,2.6653751 c 1.63412,0 2.95313,1.318993 2.95313,2.953124 v 9.3862869 c 0,1.634119 -1.31901,2.953126 -2.95313,2.953126 H 5.6185002 c -1.63412,0 -2.9531301,-1.319007 -2.9531301,-2.953126 V 5.6184991 c 0,-1.634131 1.3190101,-2.953124 2.9531301,-2.953124 H 15.0065 m 0,-0.790375 H 5.6185002 c -2.0560001,0 -3.7435001,1.687497 -3.7435001,3.743499 v 9.3862869 c 0,2.057704 1.6875,3.745214 3.7435001,3.745214 H 15.00478 C 17.0625,18.75 18.75,17.06249 18.75,15.006501 V 5.6184991 c 0,-2.056002 -1.6875,-3.743499 -3.7435,-3.743499 z"
       id="path4-3-7-2"
       style="clip-rule:evenodd;fill:#303650;fill-opacity:1;fill-rule:evenodd;stroke-width:0.0172196;stroke-linejoin:round;stroke-miterlimit:1.41421" />
    <path
       d="m 10.30935,8.5417091 2.5401,-2.540088 c 1.15881,-1.158832 2.93808,0.620429 1.76755,1.779323 l -2.5284,2.5284079 2.5284,2.540091 c 1.17058,1.158815 -0.60866,2.938085 -1.76755,1.767554 l -2.5401,-2.528406 -2.5284097,2.528406 C 6.6221202,15.787577 4.8428502,14.008335 6.0016202,12.849443 L 8.5417103,10.309352 6.0016202,7.7809441 c -1.15882,-1.158828 0.62043,-2.938096 1.7793201,-1.779323 z"
       fill-rule="evenodd"
       id="path1257-02"
       style="fill:#cb8087;fill-opacity:1;stroke-width:0.0177051" />
  </g>
  <g
     id="active-center">
    <rect
       y="1.323489e-23"
       x="0"
       height="20.625002"
       width="20.625002"
       id="rect3058-6"
       style="opacity:0.00100002;fill:#ffffff;fill-opacity:1;stroke:none;stroke-width:1.03125" />
    <path
       d="m 15.006505,2.6653751 c 1.634118,0 2.953124,1.3189929 2.953124,2.9531235 v 9.3862874 c 0,1.634119 -1.319006,2.953126 -2.953124,2.953126 H 5.6184958 c -1.634119,0 -2.953125,-1.319007 -2.953125,-2.953126 V 5.6184986 c 0,-1.6341306 1.319006,-2.9531235 2.953125,-2.9531235 h 9.3880092 m 0,-0.790375 H 5.6184958 c -2.055995,0 -3.743494,1.687497 -3.743494,3.7434985 v 9.3862874 c 0,2.057704 1.687499,3.745215 3.743494,3.745215 h 9.3862882 c 2.057714,0 3.745213,-1.687511 3.745213,-3.7435 V 5.6184986 c 0,-2.0560015 -1.687499,-3.7434985 -3.743492,-3.7434985 z"
       id="path4-3-7"
       style="clip-rule:evenodd;fill:#303650;fill-opacity:1;fill-rule:evenodd;stroke-width:0.0172196;stroke-linejoin:round;stroke-miterlimit:1.41421" />
    <path
       d="m 10.309349,8.5417093 2.540098,-2.5400881 c 1.158815,-1.1588319 2.938087,0.6204291 1.767555,1.7793231 l -2.528405,2.5284077 2.528405,2.540091 c 1.170579,1.158815 -0.608662,2.938085 -1.767555,1.767554 l -2.540098,-2.528406 -2.5284072,2.528406 c -1.158823,1.17058 -2.938093,-0.608662 -1.77932,-1.767554 l 2.54009,-2.540091 -2.54009,-2.5284077 c -1.158825,-1.158828 0.620425,-2.938096 1.77932,-1.7793231 z"
       fill-rule="evenodd"
       id="path1257"
       style="fill:#bac8df;fill-opacity:1;stroke-width:0.0177051" />
  </g>
  <sodipodi:namedview
     pagecolor="#c9cccf"
     bordercolor="#000000"
     borderopacity="1"
     objecttolerance="10"
     gridtolerance="10"
     guidetolerance="10"
     inkscape:pageopacity="1"
     inkscape:pageshadow="2"
     inkscape:window-width="1920"
     inkscape:window-height="1002"
     id="namedview32"
     showgrid="false"
     inkscape:zoom="5.6568539"
     inkscape:cx="86.090256"
     inkscape:cy="9.7227188"
     inkscape:window-x="0"
     inkscape:window-y="0"
     inkscape:window-maximized="1"
     inkscape:current-layer="svg2"
     inkscape:document-rotation="0"
     inkscape:showpageshadow="false"
     inkscape:pagecheckerboard="0"
     showguides="false"
     inkscape:deskcolor="#c9cccf">
    <inkscape:grid
       type="xygrid"
       id="grid6407"
       originx="104"
       originy="-6.0424789e-08" />
  </sodipodi:namedview>
  <metadata
     id="metadata11">
    <rdf:RDF>
      <cc:Work
         rdf:about="">
        <dc:format>image/svg+xml</dc:format>
        <dc:type
           rdf:resource="http://purl.org/dc/dcmitype/StillImage" />
      </cc:Work>
    </rdf:RDF>
  </metadata>
  <defs
     id="defs4">
    <linearGradient
       id="linearGradient3587-6-5">
      <stop
         id="stop3589-9-2"
         style="stop-color:#000000;stop-opacity:1"
         offset="0" />
      <stop
         id="stop3591-7-4"
         style="stop-color:#646464;stop-opacity:1"
         offset="1" />
    </linearGradient>
    <linearGradient
       x1="7.0799088"
       y1="7.6944885"
       x2="11.317808"
       y2="11.932388"
       id="linearGradient2388"
       xlink:href="#linearGradient3587-6-5"
       gradientUnits="userSpaceOnUse"
       gradientTransform="rotate(45,12.12132,10.707107)" />
    <linearGradient
       x1="8.1313992"
       y1="19.049677"
       x2="8.1313992"
       y2="15.935893"
       id="linearGradient5038"
       xlink:href="#linearGradient3732-77"
       gradientUnits="userSpaceOnUse"
       gradientTransform="matrix(0.8666667,0,0,0.73333335,2.0666666,-16.066667)" />
    <linearGradient
       id="linearGradient3732-77">
      <stop
         id="stop3734-3"
         style="stop-color:#000000;stop-opacity:1"
         offset="0" />
      <stop
         id="stop3736-71"
         style="stop-color:#000000;stop-opacity:0"
         offset="1" />
    </linearGradient>
    <linearGradient
       x1="8.1313992"
       y1="19.049677"
       x2="8.1313992"
       y2="15.935893"
       id="linearGradient3794"
       xlink:href="#linearGradient3788"
       gradientUnits="userSpaceOnUse"
       gradientTransform="matrix(1.1333334,0,0,0.99999997,-0.06666673,-2.9999999)" />
    <linearGradient
       id="linearGradient3788">
      <stop
         id="stop3790"
         style="stop-color:#ffffff;stop-opacity:1"
         offset="0" />
      <stop
         id="stop3792"
         style="stop-color:#ffffff;stop-opacity:0"
         offset="1" />
    </linearGradient>
    <linearGradient
       x1="22.863201"
       y1="-0.94923496"
       x2="26.23391"
       y2="2.4214737"
       id="linearGradient6695"
       xlink:href="#linearGradient3587-6-5-1-5"
       gradientUnits="userSpaceOnUse"
       gradientTransform="rotate(45,4.0355353,-15.642136)" />
    <linearGradient
       id="linearGradient3587-6-5-1-5">
      <stop
         id="stop3589-9-2-8-5"
         style="stop-color:#000000;stop-opacity:1"
         offset="0" />
      <stop
         id="stop3591-7-4-3-0"
         style="stop-color:#646464;stop-opacity:1"
         offset="1" />
    </linearGradient>
    <linearGradient
       x1="19.490692"
       y1="-4.321744"
       x2="22.886868"
       y2="-0.92556846"
       id="linearGradient6693"
       xlink:href="#linearGradient3587-6-5-1-5"
       gradientUnits="userSpaceOnUse"
       gradientTransform="rotate(45,4.0355353,-15.642136)" />
    <linearGradient
       id="linearGradient3059">
      <stop
         id="stop3061"
         style="stop-color:#000000;stop-opacity:1"
         offset="0" />
      <stop
         id="stop3063"
         style="stop-color:#646464;stop-opacity:1"
         offset="1" />
    </linearGradient>
    <linearGradient
       x1="20.534313"
       y1="-4.3515615"
       x2="26.152533"
       y2="1.2666581"
       id="linearGradient6693-5"
       xlink:href="#linearGradient3587-6-5-1-5-2"
       gradientUnits="userSpaceOnUse"
       gradientTransform="rotate(45,4.0355353,-15.642136)" />
    <linearGradient
       id="linearGradient3587-6-5-1-5-2">
      <stop
         id="stop3589-9-2-8-5-0"
         style="stop-color:#000000;stop-opacity:1"
         offset="0" />
      <stop
         id="stop3591-7-4-3-0-1"
         style="stop-color:#646464;stop-opacity:1"
         offset="1" />
    </linearGradient>
    <linearGradient
       x1="19.490692"
       y1="-4.321744"
       x2="22.886868"
       y2="-0.92556846"
       id="linearGradient3054"
       xlink:href="#linearGradient3587-6-5-1-5-2"
       gradientUnits="userSpaceOnUse"
       gradientTransform="rotate(45,3.1568563,-28.006097)" />
    <linearGradient
       x1="20.534313"
       y1="-4.3515615"
       x2="26.152533"
       y2="1.2666581"
       id="linearGradient6693-5-4"
       xlink:href="#linearGradient3587-6-5-1-5-2-1"
       gradientUnits="userSpaceOnUse"
       gradientTransform="rotate(45,-6.6146827,-50.612924)" />
    <linearGradient
       id="linearGradient3587-6-5-1-5-2-1">
      <stop
         id="stop3589-9-2-8-5-0-2"
         style="stop-color:#000000;stop-opacity:1"
         offset="0" />
      <stop
         id="stop3591-7-4-3-0-1-4"
         style="stop-color:#646464;stop-opacity:1"
         offset="1" />
    </linearGradient>
    <linearGradient
       x1="8.1313992"
       y1="19.049677"
       x2="8.1313992"
       y2="15.935893"
       id="linearGradient5038-3"
       xlink:href="#linearGradient3732-77-1"
       gradientUnits="userSpaceOnUse"
       gradientTransform="matrix(0.8666667,0,0,0.73333335,-25.780791,-13.354803)" />
    <linearGradient
       id="linearGradient3732-77-1">
      <stop
         id="stop3734-3-1"
         style="stop-color:#000000;stop-opacity:1"
         offset="0" />
      <stop
         id="stop3736-71-8"
         style="stop-color:#000000;stop-opacity:0"
         offset="1" />
    </linearGradient>
    <linearGradient
       x1="8.1313992"
       y1="19.049677"
       x2="8.1313992"
       y2="15.935893"
       id="linearGradient3794-3"
       xlink:href="#linearGradient3788-3"
       gradientUnits="userSpaceOnUse"
       gradientTransform="matrix(1.1333334,0,0,0.99999997,-27.914124,-5.7118643)" />
    <linearGradient
       id="linearGradient3788-3">
      <stop
         id="stop3790-8"
         style="stop-color:#ffffff;stop-opacity:1"
         offset="0" />
      <stop
         id="stop3792-3"
         style="stop-color:#ffffff;stop-opacity:0"
         offset="1" />
    </linearGradient>
    <linearGradient
       inkscape:collect="always"
       xlink:href="#linearGradient3788-3"
       id="linearGradient3210"
       gradientUnits="userSpaceOnUse"
       gradientTransform="matrix(1.1333334,0,0,0.99999997,-27.914124,-5.7118643)"
       x1="8.1313992"
       y1="19.049677"
       x2="8.1313992"
       y2="15.935893" />
    <linearGradient
       inkscape:collect="always"
       xlink:href="#linearGradient3732-77-1"
       id="linearGradient3212"
       gradientUnits="userSpaceOnUse"
       gradientTransform="matrix(0.8666667,0,0,0.73333335,-25.780791,-13.354803)"
       x1="8.1313992"
       y1="19.049677"
       x2="8.1313992"
       y2="15.935893" />
    <linearGradient
       inkscape:collect="always"
       xlink:href="#linearGradient3587-6-5-1-5-2-1"
       id="linearGradient3214"
       gradientUnits="userSpaceOnUse"
       gradientTransform="rotate(45,-6.6146827,-50.612924)"
       x1="20.534313"
       y1="-4.3515615"
       x2="26.152533"
       y2="1.2666581" />
    <linearGradient
       id="linearGradient3587-6-5-1-5-2-7">
      <stop
         offset="0"
         style="stop-color:#000000;stop-opacity:1"
         id="stop3589-9-2-8-5-0-9" />
      <stop
         offset="1"
         style="stop-color:#646464;stop-opacity:1"
         id="stop3591-7-4-3-0-1-5" />
    </linearGradient>
    <linearGradient
       id="linearGradient3732-77-2"
       inkscape:collect="always">
      <stop
         id="stop3734-3-2"
         offset="0"
         style="stop-color:#000000;stop-opacity:1;" />
      <stop
         id="stop3736-71-0"
         offset="1"
         style="stop-color:#000000;stop-opacity:0;" />
    </linearGradient>
    <linearGradient
       inkscape:collect="always"
       id="linearGradient3788-8">
      <stop
         style="stop-color:#ffffff;stop-opacity:1;"
         offset="0"
         id="stop3790-7" />
      <stop
         style="stop-color:#ffffff;stop-opacity:0;"
         offset="1"
         id="stop3792-4" />
    </linearGradient>
    <linearGradient
       inkscape:collect="always"
       xlink:href="#linearGradient3788-8"
       id="linearGradient3298"
       gradientUnits="userSpaceOnUse"
       gradientTransform="matrix(1.1333334,0,0,0.99999997,-5.0666667,42)"
       x1="8.1313992"
       y1="19.049677"
       x2="8.1313992"
       y2="15.935893" />
    <linearGradient
       inkscape:collect="always"
       xlink:href="#linearGradient3732-77-2"
       id="linearGradient3300"
       gradientUnits="userSpaceOnUse"
       gradientTransform="matrix(0.8666667,0,0,0.73333335,-2.9333334,-61.066667)"
       x1="8.1313992"
       y1="19.049677"
       x2="8.1313992"
       y2="15.935893" />
    <linearGradient
       inkscape:collect="always"
       xlink:href="#linearGradient3587-6-5-1-5-2-7"
       id="linearGradient3302"
       gradientUnits="userSpaceOnUse"
       gradientTransform="rotate(45,-52.784269,0.82232777)"
       x1="20.534313"
       y1="-4.3515615"
       x2="26.152533"
       y2="1.2666581" />
    <linearGradient
       x1="20.534313"
       y1="-4.3515615"
       x2="26.152533"
       y2="1.2666581"
       id="linearGradient6693-5-9"
       xlink:href="#linearGradient3587-6-5-1-5-2-4"
       gradientUnits="userSpaceOnUse"
       gradientTransform="rotate(45,24.578427,37.367009)" />
    <linearGradient
       id="linearGradient3587-6-5-1-5-2-4">
      <stop
         id="stop3589-9-2-8-5-0-4"
         style="stop-color:#000000;stop-opacity:1"
         offset="0" />
      <stop
         id="stop3591-7-4-3-0-1-0"
         style="stop-color:#646464;stop-opacity:1"
         offset="1" />
    </linearGradient>
  </defs>
  <g
     id="g4859"
     transform="matrix(0.78353038,0,0,0.77994664,310.35705,-211.26085)"
     style="stroke:#eff0ff;stroke-width:3.32593;stroke-miterlimit:4;stroke-dasharray:none;stroke-opacity:1" />
  <g
     inkscape:transform-center-y="-0.049514946"
     inkscape:transform-center-x="-5.671095"
     id="g3870"
     transform="matrix(1.3,0,0,1.3,-2278.6846,-421.05971)">
    <g
       id="g3872"
       transform="matrix(0.60271568,0,0,0.59995895,2031.5705,161.38374)"
       style="stroke:#eff0ff;stroke-width:3.32593;stroke-miterlimit:4;stroke-dasharray:none;stroke-opacity:1" />
  </g>
  <g
     transform="matrix(1.3,0,0,1.3,-2252.6846,-421.05971)"
     id="g3066"
     inkscape:transform-center-x="-5.671095"
     inkscape:transform-center-y="-0.049514946">
    <g
       style="stroke:#eff0ff;stroke-width:3.32593;stroke-miterlimit:4;stroke-dasharray:none;stroke-opacity:1"
       transform="matrix(0.60271568,0,0,0.59995895,2031.5705,161.38374)"
       id="g3068" />
  </g>
  <g
     transform="matrix(1.3,0,0,1.3,-2200.6846,-421.05971)"
     id="g3098"
     inkscape:transform-center-x="-5.671095"
     inkscape:transform-center-y="-0.049514946">
    <g
       style="stroke:#eff0ff;stroke-width:3.32593;stroke-miterlimit:4;stroke-dasharray:none;stroke-opacity:1"
       transform="matrix(0.60271568,0,0,0.59995895,2031.5705,161.38374)"
       id="g3100" />
  </g>
  <g
     transform="matrix(1.3,0,0,1.3,-2304.6846,-421.05971)"
     id="g3090"
     inkscape:transform-center-x="-5.671095"
     inkscape:transform-center-y="-0.049514946">
    <g
       style="stroke:#eff0ff;stroke-width:3.32593;stroke-miterlimit:4;stroke-dasharray:none;stroke-opacity:1"
       transform="matrix(0.60271568,0,0,0.59995895,2031.5705,161.38374)"
       id="g3092" />
  </g>
  <g
     inkscape:transform-center-y="-0.049514946"
     inkscape:transform-center-x="-5.671095"
     id="g3875"
     transform="matrix(1.3,0,0,1.3,-2226.6846,-421.05971)">
    <g
       id="g3877"
       transform="matrix(0.60271568,0,0,0.59995895,2031.5705,161.38374)"
       style="stroke:#eff0ff;stroke-width:3.32593;stroke-miterlimit:4;stroke-dasharray:none;stroke-opacity:1" />
  </g>
  <g
     id="hover-center"
     transform="translate(26)">
    <rect
       style="opacity:0.00100002;fill:#ffffff;fill-opacity:1;stroke:none;stroke-width:1.03125"
       id="rect3088"
       width="20.625002"
       height="20.625002"
       x="-1.9999998e-08"
       y="1.5875768e-15" />
    <path
       d="m 15.006502,2.6653751 c 1.634118,0 2.953124,1.318993 2.953124,2.953124 v 9.3862859 c 0,1.634119 -1.319006,2.953126 -2.953124,2.953126 H 5.6184942 c -1.634119,0 -2.9531251,-1.319007 -2.9531251,-2.953126 V 5.6184991 c 0,-1.634131 1.3190061,-2.953124 2.9531251,-2.953124 h 9.3880078 m 0,-0.790375 H 5.6184942 c -2.0559951,0 -3.7434941,1.687497 -3.7434941,3.743499 v 9.3862859 c 0,2.057704 1.687499,3.745215 3.7434941,3.745215 h 9.3862868 c 2.057714,0 3.745213,-1.687511 3.745213,-3.7435 V 5.6184991 c 0,-2.056002 -1.687499,-3.743499 -3.743492,-3.743499 z"
       id="path4-3-7-6"
       style="clip-rule:evenodd;fill:#303650;fill-opacity:1;fill-rule:evenodd;stroke-width:0.0172196;stroke-linejoin:round;stroke-miterlimit:1.41421" />
    <path
       d="m 10.309347,8.5417091 2.540097,-2.540088 c 1.158815,-1.158832 2.938087,0.620429 1.767555,1.779323 l -2.528405,2.5284069 2.528405,2.540091 c 1.170579,1.158815 -0.608662,2.938085 -1.767555,1.767554 L 10.309347,12.08859 7.7809403,14.616996 C 6.6221172,15.787576 4.8428472,14.008334 6.0016202,12.849442 L 8.5417103,10.309351 6.0016202,7.7809441 c -1.158825,-1.158828 0.620425,-2.938096 1.7793201,-1.779323 z"
       fill-rule="evenodd"
       id="path1257-0"
       style="fill:#bd5b65;fill-opacity:1;stroke:none;stroke-width:0.0177051;stroke-opacity:1" />
  </g>
  <g
     id="pressed-center"
     transform="translate(52)">
    <rect
       y="0"
       x="0"
       height="20.625"
       width="20.625"
       id="rect3868"
       style="opacity:0.00100002;fill:#ffffff;fill-opacity:1;stroke:none;stroke-width:1.03125" />
    <path
       d="m 15.006504,2.6653751 c 1.634118,0 2.953124,1.318993 2.953124,2.953124 v 9.3862859 c 0,1.634119 -1.319006,2.953126 -2.953124,2.953126 H 5.6184941 c -1.634119,0 -2.953125,-1.319007 -2.953125,-2.953126 V 5.6184991 c 0,-1.634131 1.319006,-2.953124 2.953125,-2.953124 h 9.3880099 m 0,-0.790375 H 5.6184941 c -2.055995,0 -3.743494,1.687497 -3.743494,3.743499 v 9.3862859 c 0,2.057704 1.687499,3.745215 3.743494,3.745215 h 9.3862889 c 2.057714,0 3.745213,-1.687511 3.745213,-3.7435 V 5.6184991 c 0,-2.056002 -1.687499,-3.743499 -3.743492,-3.743499 z"
       id="path4-3-7-62"
       style="clip-rule:evenodd;fill:#303650;fill-opacity:1;fill-rule:evenodd;stroke-width:0.0172196;stroke-linejoin:round;stroke-miterlimit:1.41421" />
    <path
       d="m 10.309348,8.5417091 2.540098,-2.540088 c 1.158815,-1.158832 2.938087,0.620429 1.767555,1.779323 l -2.528405,2.5284069 2.528405,2.540091 c 1.170579,1.158815 -0.608662,2.938085 -1.767555,1.767554 L 10.309348,12.08859 7.7809401,14.616996 c -1.158823,1.17058 -2.938093,-0.608662 -1.77932,-1.767554 l 2.540091,-2.540091 -2.540091,-2.5284069 c -1.158825,-1.158828 0.620425,-2.938096 1.77932,-1.779323 z"
       fill-rule="evenodd"
       id="path1257-6"
       style="fill:#cb8087;fill-opacity:1;stroke-width:0.0177051" />
  </g>
  <g
     id="inactive-center"
     transform="translate(78)">
    <rect
       style="opacity:0.00100002;fill:#ffffff;fill-opacity:1;stroke:none;stroke-width:1.03125"
       id="rect3064"
       width="20.625002"
       height="20.625002"
       x="6.4273983e-08"
       y="4.7933138e-08" />
    <path
       d="m 15.006503,2.6653751 c 1.634118,0 2.953124,1.318993 2.953124,2.953124 v 9.3862859 c 0,1.634119 -1.319006,2.953126 -2.953124,2.953126 H 5.6184941 c -1.634119,0 -2.953125,-1.319007 -2.953125,-2.953126 V 5.6184991 c 0,-1.634131 1.319006,-2.953124 2.953125,-2.953124 h 9.3880089 m 0,-0.790375 H 5.6184941 c -2.055995,0 -3.743494,1.687497 -3.743494,3.743499 v 9.3862859 c 0,2.057704 1.687499,3.745215 3.743494,3.745215 h 9.3862879 c 2.057714,0 3.745213,-1.687511 3.745213,-3.7435 V 5.6184991 c 0,-2.056002 -1.687499,-3.743499 -3.743492,-3.743499 z"
       id="path4-3-7-1"
       style="clip-rule:evenodd;fill:#303650;fill-opacity:1;fill-rule:evenodd;stroke-width:0.0172196;stroke-linejoin:round;stroke-miterlimit:1.41421" />
    <path
       d="m 10.309347,8.5417091 2.540098,-2.540088 c 1.158815,-1.158832 2.938087,0.620429 1.767555,1.779323 L 12.088595,10.309351 14.617,12.849442 c 1.170579,1.158815 -0.608662,2.938085 -1.767555,1.767554 L 10.309347,12.08859 7.7809401,14.616996 c -1.158823,1.17058 -2.938093,-0.608662 -1.77932,-1.767554 l 2.54009,-2.540091 -2.54009,-2.5284069 c -1.158825,-1.158828 0.620425,-2.938096 1.77932,-1.779323 z"
       fill-rule="evenodd"
       id="path1257-8"
       style="fill:#81b4fe;fill-opacity:0.6;stroke-width:0.0177051" />
  </g>
  <g
     id="hover-inactive-center"
     transform="translate(104)">
    <rect
       y="0"
       x="2.8182586e-15"
       height="20.625002"
       width="20.625002"
       id="rect3873"
       style="opacity:0.00100002;fill:#ffffff;fill-opacity:1;stroke:none;stroke-width:1.03125" />
    <path
       d="m 15.00651,2.6653751 c 1.63411,0 2.95312,1.318993 2.95312,2.953124 v 9.3862859 c 0,1.634119 -1.31901,2.953126 -2.95312,2.953126 H 5.6185 c -1.63412,0 -2.9531299,-1.319007 -2.9531299,-2.953126 V 5.6184991 c 0,-1.634131 1.3190099,-2.953124 2.9531299,-2.953124 h 9.38801 m 0,-0.790375 H 5.6185 c -2.0559999,0 -3.7434999,1.687497 -3.7434999,3.743499 v 9.3862859 c 0,2.057704 1.6875,3.745215 3.7434999,3.745215 h 9.38628 C 17.0625,18.75 18.75,17.062489 18.75,15.0065 V 5.6184991 c 0,-2.056002 -1.6875,-3.743499 -3.74349,-3.743499 z"
       id="path4-3-7-7"
       style="clip-rule:evenodd;fill:#303650;fill-opacity:1;fill-rule:evenodd;stroke-width:0.0172196;stroke-linejoin:round;stroke-miterlimit:1.41421" />
    <path
       d="m 10.30935,8.5417091 2.5401,-2.540088 c 1.15881,-1.158832 2.93808,0.620429 1.76755,1.779323 l -2.5284,2.5284069 2.5284,2.540091 c 1.17058,1.158815 -0.60866,2.938085 -1.76755,1.767554 L 10.30935,12.08859 7.78094,14.616996 C 6.62212,15.787576 4.84285,14.008334 6.00162,12.849442 L 8.5417099,10.309351 6.00162,7.7809441 C 4.8428,6.6221161 6.62205,4.8428481 7.78094,6.0016211 Z"
       fill-rule="evenodd"
       id="path1257-9"
       style="fill:#bd5b65;fill-opacity:1;stroke-width:0.0177051" />
  </g>
</svg>
