<?xml version="1.0" encoding="UTF-8" standalone="no"?>
<svg
   width="48"
   height="48"
   version="1.1"
   id="svg2"
   sodipodi:docname="jellyfin.svg"
   inkscape:version="1.3.2 (091e20ef0f, 2023-11-25)"
   xmlns:inkscape="http://www.inkscape.org/namespaces/inkscape"
   xmlns:sodipodi="http://sodipodi.sourceforge.net/DTD/sodipodi-0.dtd"
   xmlns="http://www.w3.org/2000/svg"
   xmlns:svg="http://www.w3.org/2000/svg">
  <defs
     id="defs2" />
  <sodipodi:namedview
     id="namedview2"
     pagecolor="#ffffff"
     bordercolor="#999999"
     borderopacity="1"
     inkscape:showpageshadow="2"
     inkscape:pageopacity="0"
     inkscape:pagecheckerboard="0"
     inkscape:deskcolor="#d1d1d1"
     inkscape:zoom="6.2265625"
     inkscape:cx="27.462986"
     inkscape:cy="30.755332"
     inkscape:window-width="1920"
     inkscape:window-height="994"
     inkscape:window-x="0"
     inkscape:window-y="0"
     inkscape:window-maximized="1"
     inkscape:current-layer="svg2" />
  <rect
     width="42"
     height="42"
     x="2.9996417"
     y="3"
     fill="#313c54"
     rx="21"
     ry="21"
     id="rect1"
     style="stroke-width:0.777778" />
  <path
     d="m 24.000418,18.357997 c -1.275556,0 -5.380665,7.208443 -4.753779,8.425662 0.626118,1.217222 8.888445,1.204006 9.507559,0 0.61911,-1.203994 -3.478226,-8.424891 -4.75378,-8.425662 z"
     id="path1"
     style="stroke-width:0.777778;fill:#00ccff" />
  <path
     d="m 24.001968,5.9135552 c -4.116772,0 -17.370104,24.0278868 -15.3494394,28.0855538 2.0206704,4.057661 28.6999964,4.010999 30.6988874,0 C 41.350305,29.98811 28.118752,5.9135552 24.001968,5.9135552 Z M 34.060967,30.478113 c -1.309771,2.628882 -18.789556,2.658439 -20.114104,0 -1.324553,-2.658448 7.360109,-18.402227 10.057445,-18.402227 2.697331,0 11.366447,15.772551 10.057443,18.402227 z"
     id="path2"
     style="fill:#ffdd55" />
</svg>
