<?xml version="1.0" encoding="UTF-8" standalone="no"?>
<svg
   width="48"
   height="48"
   version="1.1"
   id="svg3"
   sodipodi:docname="visual-studio-code-insiders.svg"
   inkscape:version="1.3.2 (091e20ef0f, 2023-11-25)"
   xmlns:inkscape="http://www.inkscape.org/namespaces/inkscape"
   xmlns:sodipodi="http://sodipodi.sourceforge.net/DTD/sodipodi-0.dtd"
   xmlns="http://www.w3.org/2000/svg"
   xmlns:svg="http://www.w3.org/2000/svg">
  <defs
     id="defs3" />
  <sodipodi:namedview
     id="namedview3"
     pagecolor="#ffffff"
     bordercolor="#999999"
     borderopacity="1"
     inkscape:showpageshadow="2"
     inkscape:pageopacity="0"
     inkscape:pagecheckerboard="0"
     inkscape:deskcolor="#d1d1d1"
     inkscape:zoom="6.2265625"
     inkscape:cx="29.550816"
     inkscape:cy="20.155583"
     inkscape:window-width="1920"
     inkscape:window-height="994"
     inkscape:window-x="0"
     inkscape:window-y="0"
     inkscape:window-maximized="1"
     inkscape:current-layer="svg3" />
  <g
     id="g4"
     transform="matrix(0.77777778,0,0,0.77777778,-0.88888896,-0.88888896)">
    <circle
       cx="32"
       cy="32"
       r="27"
       style="paint-order:stroke fill markers;fill:#aaffcc"
       id="circle1" />
    <g
       fill-rule="evenodd"
       stroke-width="0.265"
       id="g3">
      <path
         fill="#32ca70"
         d="m 21.068,2.602 a 0.596,0.596 0 0 0 -0.267,0.1 c 0.138,0.171 -0.14,1.785 0.208,2.004 l 0.272,0.17 v 3.892 l -0.427,0.32 c -0.329,0.247 0.03,1.666 -0.056,1.849 0.095,0.058 0.237,0.12 0.362,0.105 a 0.375,0.375 0 0 0 0.12,-0.036 l 1.737,-0.851 c 0.19,-0.093 0.38,-0.17 0.38,-0.38 V 3.87 c 0,-0.21 -0.19,-0.287 -0.38,-0.38 L 21.28,2.638 A 0.374,0.374 0 0 0 21.068,2.603 Z"
         style="paint-order:stroke fill markers"
         transform="matrix(4.4807,0,0,4.4807,-53.838,1.432)"
         id="path1" />
      <path
         fill="#137c42"
         d="m 15.041,8.004 5.651,-5.223 c 0.257,-0.237 0.589,-0.153 0.589,0.337 v 1.758 l -5.224,3.996 c -0.092,0.071 -0.33,0.243 -0.538,0.045 L 14.991,8.415 c -0.139,-0.132 -0.06,-0.31 0.05,-0.411 z"
         style="paint-order:stroke fill markers"
         transform="matrix(4.4807,0,0,4.4807,-53.838,1.432)"
         id="path2" />
      <path
         fill="#259f58"
         d="m 15.041,5.638 5.651,5.223 c 0.257,0.237 0.589,0.153 0.589,-0.338 V 8.766 L 16.057,4.77 C 15.965,4.698 15.727,4.527 15.519,4.724 l -0.528,0.503 c -0.139,0.132 -0.06,0.31 0.05,0.411 z"
         style="paint-order:stroke fill markers"
         transform="matrix(4.4807,0,0,4.4807,-53.838,1.432)"
         id="path3" />
    </g>
  </g>
</svg>
