<?xml version="1.0" encoding="UTF-8" standalone="no"?>
<svg
   width="48"
   height="48"
   version="1"
   id="svg13"
   sodipodi:docname="godot.svg"
   inkscape:version="1.3.2 (091e20ef0f, 2023-11-25)"
   xmlns:inkscape="http://www.inkscape.org/namespaces/inkscape"
   xmlns:sodipodi="http://sodipodi.sourceforge.net/DTD/sodipodi-0.dtd"
   xmlns="http://www.w3.org/2000/svg"
   xmlns:svg="http://www.w3.org/2000/svg">
  <defs
     id="defs13" />
  <sodipodi:namedview
     id="namedview13"
     pagecolor="#ffffff"
     bordercolor="#999999"
     borderopacity="1"
     inkscape:showpageshadow="2"
     inkscape:pageopacity="0"
     inkscape:pagecheckerboard="0"
     inkscape:deskcolor="#d1d1d1"
     inkscape:zoom="11.90625"
     inkscape:cx="32"
     inkscape:cy="32"
     inkscape:window-width="1920"
     inkscape:window-height="994"
     inkscape:window-x="0"
     inkscape:window-y="0"
     inkscape:window-maximized="1"
     inkscape:current-layer="svg13" />
  <path
     style="opacity:0.2;stroke-width:0.789066"
     d="M 19.599998,3.7931854 19.419531,3.8993571 14.099985,6.1712419 15.199993,11.718205 10.136132,14.054006 7.500004,11.718205 2,17.265175 5.1428559,20.699528 v 11.499116 -0.886228 3.698711 c 0,0 3.1428559,9.988873 18.8571421,9.988873 15.714287,0 18.857133,-9.988873 18.857133,-9.988873 V 31.312416 32.198644 20.699528 L 46,17.265175 40.499998,11.718205 37.863864,14.054006 32.799984,11.718205 33.899992,6.1712419 28.39999,3.7931854 26.517965,6.9636657 h -5.040237 z"
     id="path1" />
  <path
     d="M 19.599998,3.0007619 19.419531,3.1069343 14.099985,5.3788172 15.199993,10.925775 10.136132,13.261577 7.500004,10.925775 2,16.472746 5.1428559,19.907101 v 11.499115 -0.886209 3.698694 c 0,0 3.1428559,9.988872 18.8571421,9.988872 15.714287,0 18.857133,-9.988872 18.857133,-9.988872 V 30.520007 31.406216 19.907101 L 46,16.472746 l -5.500002,-5.546971 -2.636134,2.335802 -5.06388,-2.335802 1.100008,-5.5469578 -5.500002,-2.3780553 -1.882025,3.17048 h -5.040237 z"
     id="path2"
     style="fill:#00aad4;fill-opacity:1" />
  <path
     style="opacity:0.2;stroke-width:0.789066"
     d="m 13.000003,19.642439 c 2.604174,0 4.714287,2.128133 4.714287,4.754547 0,2.626397 -2.110113,4.754529 -4.714287,4.754529 -2.604178,0 -4.7142912,-2.128132 -4.7142912,-4.754529 0,-2.626414 2.1101132,-4.754547 4.7142912,-4.754547 z"
     id="path3" />
  <path
     style="fill:#ffffff;stroke-width:0.789066"
     d="m 13.000003,18.850026 c 2.604174,0 4.714287,2.128131 4.714287,4.754541 0,2.626405 -2.110113,4.754538 -4.714287,4.754538 -2.604178,0 -4.7142912,-2.128133 -4.7142912,-4.754538 0,-2.62641 2.1101132,-4.754541 4.7142912,-4.754541 z"
     id="path4" />
  <path
     style="fill:#353535;stroke-width:0.789066"
     d="m 15.357139,23.604567 a 2.3571456,2.3772738 0 1 1 -4.714287,0 2.3571456,2.3772738 0 1 1 4.714287,0 z"
     id="path5" />
  <path
     style="opacity:0.2;stroke-width:0.789066"
     d="m 23.999998,22.812139 c 0.870576,0 1.57143,0.706844 1.57143,1.584847 v 3.169703 c 0,0.877995 -0.700854,1.584826 -1.57143,1.584826 -0.870569,0 -1.571429,-0.706831 -1.571429,-1.584826 v -3.169703 c 0,-0.878003 0.70086,-1.584847 1.571429,-1.584847 z"
     id="path6" />
  <path
     style="fill:#ffffff;stroke-width:0.789066"
     d="m 23.999998,22.019718 c 0.870576,0 1.57143,0.706838 1.57143,1.584849 v 3.169689 c 0,0.878001 -0.700854,1.584849 -1.57143,1.584849 -0.870569,0 -1.571429,-0.706848 -1.571429,-1.584849 v -3.169689 c 0,-0.878011 0.70086,-1.584849 1.571429,-1.584849 z"
     id="path7" />
  <path
     style="opacity:0.2;stroke-width:0.789066"
     d="m 35,19.642439 c 2.604171,0 4.714285,2.128133 4.714285,4.754547 0,2.626397 -2.110114,4.754529 -4.714285,4.754529 -2.604173,0 -4.714286,-2.128132 -4.714286,-4.754529 0,-2.626414 2.110113,-4.754547 4.714286,-4.754547 z"
     id="path8" />
  <path
     style="fill:#ffffff;stroke-width:0.789066"
     d="m 35,18.850026 c 2.604171,0 4.714285,2.128131 4.714285,4.754541 0,2.626405 -2.110114,4.754538 -4.714285,4.754538 -2.604173,0 -4.714286,-2.128133 -4.714286,-4.754538 0,-2.62641 2.110113,-4.754541 4.714286,-4.754541 z"
     id="path9" />
  <path
     style="fill:#353535;stroke-width:0.789066"
     d="m 37.357125,23.604567 a 2.3571428,2.377271 0 1 1 -4.714271,0 2.3571428,2.377271 0 1 1 4.714271,0 z"
     id="path10" />
  <path
     style="opacity:0.2;fill:none;stroke:#000000;stroke-width:1.57815;stroke-linejoin:round"
     d="M 42.857131,33.113648 H 35.78572 v 3.169697 h -7.857157 v -3.170253 h -3.928565 m -18.8571421,5.56e-4 h 7.0714291 v 3.169697 h 7.857143 v -3.170253 h 3.92857"
     id="path11" />
  <path
     style="fill:none;stroke:#ffffff;stroke-width:1.57815;stroke-linejoin:round"
     d="M 42.857131,32.321224 H 35.78572 v 3.169693 h -7.857157 v -3.170242 h -3.928565 m -18.8571421,5.49e-4 h 7.0714291 v 3.169693 h 7.857143 v -3.170242 h 3.92857"
     id="path12" />
  <path
     style="opacity:0.2;fill:#ffffff;stroke-width:0.789066"
     d="m 19.600305,3 -0.181086,0.1067912 -5.318919,2.272026 0.144255,0.7305166 5.174664,-2.2101192 0.181086,-0.1067906 1.876823,3.1712417 h 5.041148 L 28.399696,3.792424 33.755442,6.1093338 33.899693,5.3788172 28.399696,3 26.518276,6.1712419 H 21.477128 Z M 7.500004,10.925775 2,16.472746 l 0.3775118,0.41169 5.1224922,-5.166231 2.636425,2.335485 5.064186,-2.335485 -0.144251,-0.72587 -4.919935,2.268931 z m 32.999994,0 -2.636449,2.335491 -4.919909,-2.268931 -0.14425,0.72587 5.064159,2.335485 2.636449,-2.335485 5.122484,5.166231 L 46,16.472746 Z"
     id="path13" />
</svg>
