<?xml version="1.0" encoding="UTF-8" standalone="no"?>
<svg
   width="48"
   height="48"
   viewBox="0 0 48 48"
   version="1.1"
   id="svg8"
   inkscape:version="1.3.2 (091e20ef0f, 2023-11-25)"
   sodipodi:docname="maps.svg"
   xmlns:inkscape="http://www.inkscape.org/namespaces/inkscape"
   xmlns:sodipodi="http://sodipodi.sourceforge.net/DTD/sodipodi-0.dtd"
   xmlns:xlink="http://www.w3.org/1999/xlink"
   xmlns="http://www.w3.org/2000/svg"
   xmlns:svg="http://www.w3.org/2000/svg"
   xmlns:rdf="http://www.w3.org/1999/02/22-rdf-syntax-ns#"
   xmlns:cc="http://creativecommons.org/ns#"
   xmlns:dc="http://purl.org/dc/elements/1.1/">
  <defs
     id="defs2">
    <linearGradient
       inkscape:collect="always"
       id="linearGradient1081">
      <stop
         style="stop-color:#95021c;stop-opacity:1;"
         offset="0"
         id="stop1077" />
      <stop
         style="stop-color:#95021c;stop-opacity:0;"
         offset="1"
         id="stop1079" />
    </linearGradient>
    <linearGradient
       inkscape:collect="always"
       id="linearGradient1049">
      <stop
         style="stop-color:#e299b6;stop-opacity:1;"
         offset="0"
         id="stop1045" />
      <stop
         style="stop-color:#c5a1ff;stop-opacity:1;"
         offset="1"
         id="stop1047" />
    </linearGradient>
    <linearGradient
       id="linearGradient3866">
      <stop
         style="stop-color:#000000;stop-opacity:0.52083331"
         offset="0"
         id="stop3868" />
      <stop
         style="stop-color:#2883c3;stop-opacity:0;"
         offset="1"
         id="stop3870" />
    </linearGradient>
    <linearGradient
       id="linearGradient3874">
      <stop
         style="stop-color:#000d0e;stop-opacity:0.84105963;"
         offset="0"
         id="stop3876" />
      <stop
         style="stop-color:#000000;stop-opacity:0;"
         offset="1"
         id="stop3878" />
    </linearGradient>
    <clipPath
       clipPathUnits="userSpaceOnUse"
       id="clipPath4178">
      <circle
         r="225"
         cy="222.68037"
         cx="204.3168"
         id="circle4180"
         style="opacity:1;fill:#1c5266;fill-opacity:0.190992;fill-rule:evenodd;stroke:none;stroke-width:3.33392;stroke-linecap:butt;stroke-linejoin:miter;stroke-miterlimit:4;stroke-dasharray:none;stroke-dashoffset:0;stroke-opacity:1" />
    </clipPath>
    <clipPath
       clipPathUnits="userSpaceOnUse"
       id="clipPath4178-1">
      <circle
         r="225"
         cy="222.68037"
         cx="204.3168"
         id="circle4180-7"
         style="opacity:1;fill:#1c5266;fill-opacity:0.190992;fill-rule:evenodd;stroke:none;stroke-width:3.33392;stroke-linecap:butt;stroke-linejoin:miter;stroke-miterlimit:4;stroke-dasharray:none;stroke-dashoffset:0;stroke-opacity:1" />
    </clipPath>
    <linearGradient
       id="linearGradient5048-8">
      <stop
         offset="0"
         style="stop-color:#000000;stop-opacity:0"
         id="stop5050-4" />
      <stop
         offset="0.5"
         style="stop-color:#000000;stop-opacity:1"
         id="stop5056-7" />
      <stop
         offset="1"
         style="stop-color:#000000;stop-opacity:0"
         id="stop5052-0-1" />
    </linearGradient>
    <linearGradient
       id="linearGradient5060-29">
      <stop
         offset="0"
         style="stop-color:#000000;stop-opacity:1"
         id="stop5062-9" />
      <stop
         offset="1"
         style="stop-color:#000000;stop-opacity:0"
         id="stop5064-08" />
    </linearGradient>
    <linearGradient
       id="linearGradient4050-7">
      <stop
         id="stop4052-6"
         offset="0"
         style="stop-color:#ffffff;stop-opacity:0.66929132;" />
      <stop
         id="stop4054-0"
         offset="1"
         style="stop-color:#ffffff;stop-opacity:0;" />
    </linearGradient>
    <linearGradient
       gradientUnits="userSpaceOnUse"
       id="linearGradient4132-3"
       x1="-5.3196001"
       x2="-50.520779"
       gradientTransform="matrix(0,-1,-1,0,0,0)">
      <stop
         offset="0"
         stop-color="#f65454"
         id="stop29-7" />
      <stop
         offset="1"
         stop-color="#740000"
         id="stop31-0" />
    </linearGradient>
    <linearGradient
       gradientUnits="userSpaceOnUse"
       id="linearGradient3298-8-9"
       x1="-39.333229"
       x2="-1.64257"
       gradientTransform="matrix(0,-1,-1,0,0,0)">
      <stop
         offset="0"
         stop-color="#791235"
         id="stop24-3"
         style="stop-color:#5f0e0e;stop-opacity:1;" />
      <stop
         offset="1"
         stop-color="#dd3b27"
         id="stop26-3" />
    </linearGradient>
    <linearGradient
       id="linearGradient8265-821-176-38-919-66-249-7-7">
      <stop
         offset="0"
         style="stop-color:#ffffff;stop-opacity:1"
         id="stop2687-1-9" />
      <stop
         offset="1"
         style="stop-color:#ffffff;stop-opacity:0"
         id="stop2689-5-4" />
    </linearGradient>
    <linearGradient
       id="linearGradient3924">
      <stop
         offset="0"
         style="stop-color:#ffffff;stop-opacity:1;"
         id="stop3926" />
      <stop
         id="stop3928"
         style="stop-color:#ffffff;stop-opacity:0.23529412;"
         offset="0.06316455" />
      <stop
         offset="0.95056331"
         style="stop-color:#ffffff;stop-opacity:0.15686275;"
         id="stop3930" />
      <stop
         offset="1"
         style="stop-color:#ffffff;stop-opacity:0.39215687;"
         id="stop3932" />
    </linearGradient>
    <linearGradient
       id="linearGradient3688-166-749">
      <stop
         offset="0"
         style="stop-color:#181818;stop-opacity:1"
         id="stop2883" />
      <stop
         offset="1"
         style="stop-color:#181818;stop-opacity:0"
         id="stop2885" />
    </linearGradient>
    <linearGradient
       id="linearGradient3702-501-757">
      <stop
         offset="0"
         style="stop-color:#181818;stop-opacity:0"
         id="stop2895" />
      <stop
         offset="0.5"
         style="stop-color:#181818;stop-opacity:1"
         id="stop2897" />
      <stop
         offset="1"
         style="stop-color:#181818;stop-opacity:0"
         id="stop2899" />
    </linearGradient>
    <linearGradient
       id="linearGradient3895-9-0-3">
      <stop
         offset="0"
         style="stop-color:#dc6838;stop-opacity:1"
         id="stop3897-0-5-7" />
      <stop
         offset="1"
         style="stop-color:#ba3d12;stop-opacity:1"
         id="stop3899-8-7-06" />
    </linearGradient>
    <linearGradient
       y2="1044.3767"
       x2="28.53125"
       y1="994.81909"
       x1="28.53125"
       gradientTransform="translate(12,-100)"
       gradientUnits="userSpaceOnUse"
       id="linearGradient4195"
       xlink:href="#linearGradient3895-9-0-3"
       inkscape:collect="always" />
    <linearGradient
       id="linearGradient4067-0-2">
      <stop
         id="stop4069-2-9"
         offset="0"
         style="stop-color:#acffe3;stop-opacity:1" />
      <stop
         id="stop4071-8-9"
         offset="1"
         style="stop-color:#ffffff;stop-opacity:1" />
    </linearGradient>
    <linearGradient
       id="linearGradient4644-104-3-3-6-2">
      <stop
         id="stop5237-6-5-1-7"
         style="stop-color:#51c3cc;stop-opacity:1"
         offset="0" />
      <stop
         id="stop5239-4-6-4-8"
         style="stop-color:#b3efec;stop-opacity:1"
         offset="1" />
    </linearGradient>
    <linearGradient
       gradientTransform="matrix(0.29027243,0,0,0.29027243,-0.78118387,279.03065)"
       id="j"
       x1="44"
       x2="30.5"
       y1="21"
       y2="46"
       gradientUnits="userSpaceOnUse">
      <stop
         stop-color="#999"
         offset="0"
         id="stop12"
         style="stop-color:#999999;stop-opacity:1" />
      <stop
         stop-color="#aeaeae"
         offset="1"
         id="stop14"
         style="stop-color:#c5c4bf;stop-opacity:1" />
    </linearGradient>
    <linearGradient
       inkscape:collect="always"
       xlink:href="#linearGradient1049"
       id="linearGradient1051"
       x1="2.3847651"
       y1="283.28967"
       x2="14.171717"
       y2="294.4823"
       gradientUnits="userSpaceOnUse"
       gradientTransform="matrix(2.5802726,0,0,2.5802726,2.037843,-440.62418)" />
    <linearGradient
       inkscape:collect="always"
       xlink:href="#linearGradient892"
       id="linearGradient894"
       x1="41.331097"
       y1="16.864264"
       x2="32.732784"
       y2="52.787815"
       gradientUnits="userSpaceOnUse"
       gradientTransform="matrix(0.56807478,0,0,0.56807478,6.0072,288.24916)" />
    <linearGradient
       inkscape:collect="always"
       id="linearGradient892">
      <stop
         style="stop-color:#fa9aab;stop-opacity:1"
         offset="0"
         id="stop888" />
      <stop
         style="stop-color:#ff4c6b;stop-opacity:1"
         offset="1"
         id="stop890" />
    </linearGradient>
    <linearGradient
       inkscape:collect="always"
       xlink:href="#linearGradient933"
       id="linearGradient935"
       x1="-0.5354355"
       y1="26.202148"
       x2="29.582588"
       y2="30.75572"
       gradientUnits="userSpaceOnUse"
       gradientTransform="matrix(0.56807478,0,0,0.56807478,6.0072,288.24916)" />
    <linearGradient
       inkscape:collect="always"
       id="linearGradient933">
      <stop
         style="stop-color:#d40000;stop-opacity:1;"
         offset="0"
         id="stop929" />
      <stop
         style="stop-color:#d40000;stop-opacity:0;"
         offset="1"
         id="stop931" />
    </linearGradient>
    <radialGradient
       inkscape:collect="always"
       xlink:href="#linearGradient834"
       id="radialGradient838"
       cx="28.831476"
       cy="26.062317"
       fx="28.831476"
       fy="26.062317"
       r="11.638672"
       gradientTransform="matrix(0.62589332,0.28431214,-0.63840248,1.4053985,22.116822,256.77486)"
       gradientUnits="userSpaceOnUse" />
    <linearGradient
       inkscape:collect="always"
       id="linearGradient834">
      <stop
         style="stop-color:#fdecef;stop-opacity:1"
         offset="0"
         id="stop830" />
      <stop
         style="stop-color:#f6617b;stop-opacity:1"
         offset="1"
         id="stop832" />
    </linearGradient>
    <linearGradient
       inkscape:collect="always"
       xlink:href="#linearGradient881"
       id="linearGradient883"
       x1="30.480387"
       y1="-5.3584223"
       x2="22.623976"
       y2="11.390496"
       gradientUnits="userSpaceOnUse"
       gradientTransform="matrix(0.56807478,0,0,0.56807478,6.0072,288.24916)" />
    <linearGradient
       inkscape:collect="always"
       id="linearGradient881">
      <stop
         style="stop-color:#ff0000;stop-opacity:1"
         offset="0"
         id="stop877" />
      <stop
         style="stop-color:#aa0000;stop-opacity:0;"
         offset="1"
         id="stop879" />
    </linearGradient>
    <radialGradient
       inkscape:collect="always"
       xlink:href="#linearGradient849"
       id="radialGradient851"
       cx="26.406973"
       cy="14.410311"
       fx="26.406973"
       fy="14.410311"
       r="15.635742"
       gradientTransform="matrix(0.58642519,0.02293793,-0.01980579,0.50634988,5.802048,288.15993)"
       gradientUnits="userSpaceOnUse" />
    <linearGradient
       inkscape:collect="always"
       id="linearGradient849">
      <stop
         style="stop-color:#ffa0b1;stop-opacity:1"
         offset="0"
         id="stop845" />
      <stop
         style="stop-color:#f6617b;stop-opacity:1"
         offset="1"
         id="stop847" />
    </linearGradient>
    <linearGradient
       inkscape:collect="always"
       xlink:href="#linearGradient871"
       id="linearGradient873"
       x1="50.640514"
       y1="36.251793"
       x2="45.041431"
       y2="17.816509"
       gradientUnits="userSpaceOnUse"
       gradientTransform="matrix(0.56807478,0,0,0.56807478,6.0072,288.24916)" />
    <linearGradient
       inkscape:collect="always"
       id="linearGradient871">
      <stop
         style="stop-color:#ff0000;stop-opacity:1"
         offset="0"
         id="stop867" />
      <stop
         style="stop-color:#800000;stop-opacity:0;"
         offset="1"
         id="stop869" />
    </linearGradient>
    <radialGradient
       inkscape:collect="always"
       xlink:href="#linearGradient1081"
       id="radialGradient1083"
       cx="9.2047291"
       cy="293.59113"
       fx="9.2047291"
       fy="293.59113"
       r="3.7355831"
       gradientTransform="matrix(2.5802726,0,0,0.86009083,0.2644911,67.942612)"
       gradientUnits="userSpaceOnUse" />
  </defs>
  <sodipodi:namedview
     id="base"
     pagecolor="#ffffff"
     bordercolor="#666666"
     borderopacity="1.0"
     inkscape:pageopacity="0"
     inkscape:pageshadow="2"
     inkscape:zoom="5.6"
     inkscape:cx="38.571429"
     inkscape:cy="33.928571"
     inkscape:document-units="mm"
     inkscape:current-layer="layer1"
     showgrid="false"
     units="px"
     inkscape:window-width="1920"
     inkscape:window-height="994"
     inkscape:window-x="0"
     inkscape:window-y="0"
     inkscape:window-maximized="1"
     showguides="false"
     inkscape:lockguides="true"
     inkscape:document-rotation="0"
     inkscape:showpageshadow="2"
     inkscape:pagecheckerboard="0"
     inkscape:deskcolor="#d1d1d1" />
  <metadata
     id="metadata5">
    <rdf:RDF>
      <cc:Work
         rdf:about="">
        <dc:format>image/svg+xml</dc:format>
        <dc:type
           rdf:resource="http://purl.org/dc/dcmitype/StillImage" />
      </cc:Work>
    </rdf:RDF>
  </metadata>
  <g
     inkscape:label="Layer 1"
     inkscape:groupmode="layer"
     id="layer1"
     transform="translate(0,-280.06667)">
    <path
       style="color:#000000;font-style:normal;font-variant:normal;font-weight:normal;font-stretch:normal;font-size:medium;line-height:normal;font-family:sans-serif;font-variant-ligatures:normal;font-variant-position:normal;font-variant-caps:normal;font-variant-numeric:normal;font-variant-alternates:normal;font-feature-settings:normal;text-indent:0;text-align:start;text-decoration:none;text-decoration-line:none;text-decoration-style:solid;text-decoration-color:#000000;letter-spacing:normal;word-spacing:normal;text-transform:none;writing-mode:lr-tb;direction:ltr;text-orientation:mixed;dominant-baseline:auto;baseline-shift:baseline;text-anchor:start;white-space:normal;shape-padding:0;clip-rule:nonzero;display:inline;overflow:visible;visibility:visible;opacity:1;isolation:auto;mix-blend-mode:normal;color-interpolation:sRGB;color-interpolation-filters:linearRGB;solid-color:#000000;solid-opacity:1;vector-effect:none;fill:url(#linearGradient1051);fill-opacity:1;fill-rule:nonzero;stroke:none;stroke-width:2.10954;stroke-linecap:round;stroke-linejoin:miter;stroke-miterlimit:4;stroke-dasharray:none;stroke-dashoffset:0;stroke-opacity:1;color-rendering:auto;image-rendering:auto;shape-rendering:auto;text-rendering:auto;enable-background:accumulate"
       d="m 24.075992,283.06667 c -11.585339,0 -20.999992,9.41467 -20.999992,21.00001 0,11.58532 9.414653,20.99999 20.999992,20.99999 11.585339,0 20.999993,-9.41467 20.999993,-20.99999 0,-11.58534 -9.414654,-21.00001 -20.999993,-21.00001 z"
       id="circle872"
       inkscape:connector-curvature="0"
       sodipodi:nodetypes="sssss" />
    <path
       style="opacity:1;fill:#ff7b92;fill-opacity:1;stroke:none;stroke-width:6.07708;stroke-linecap:round;stroke-linejoin:miter;stroke-miterlimit:4;stroke-dasharray:none;stroke-opacity:1;paint-order:stroke markers fill"
       d="m 24.317627,288.79725 c -6.078694,0 -11.006452,4.92773 -11.006449,11.00644 0,0.75981 0.0764,1.50146 0.223013,2.21792 1.293369,5.20575 6.805306,13.25842 10.588158,19.27905 3.710032,-5.86847 10.612107,-15.76756 10.977602,-19.27905 0.146612,-0.71646 0.224123,-1.45811 0.224123,-2.21792 0,-6.07871 -4.927756,-11.00644 -11.006447,-11.00644 z m 0,6.89787 a 4.2352003,4.2352003 0 0 1 4.23504,4.23505 4.2352003,4.2352003 0 0 1 -4.23504,4.23505 4.2352003,4.2352003 0 0 1 -4.235043,-4.23505 4.2352003,4.2352003 0 0 1 4.235043,-4.23505 z"
       id="path815" />
    <path
       style="fill:url(#linearGradient894);fill-opacity:1;stroke:none;stroke-width:0.568073px;stroke-linecap:butt;stroke-linejoin:miter;stroke-opacity:1"
       d="m 17.263291,291.35801 c -2.414457,2.01902 -3.952116,5.05215 -3.952113,8.44568 0,0.75981 0.0764,1.50146 0.223013,2.21792 1.293369,5.20575 6.805306,13.25842 10.588158,19.27905 3.710032,-5.86847 10.612107,-15.76756 10.977602,-19.27905 0.09263,-0.45276 0.154404,-0.9169 0.189728,-1.38801 -2.887805,2.31033 -6.971355,3.59394 -11.429176,3.58264 l 0.01651,-0.0743 a 4.2352001,4.2352001 0 0 1 -3.794562,-4.21172 4.2352001,4.2352001 0 0 1 4.235043,-4.23506 4.2352001,4.2352001 0 0 1 1.416856,0.24977 l 0.608018,-2.68505 z"
       id="path825" />
    <path
       id="path927"
       d="m 17.263291,291.35801 c -2.414457,2.01902 -3.952116,5.05215 -3.952113,8.44568 0,0.75981 0.0764,1.50146 0.223013,2.21792 1.293369,5.20575 6.805306,13.25842 10.588158,19.27905 3.710032,-5.86847 10.612107,-15.76756 10.977602,-19.27905 0.09263,-0.45276 0.154404,-0.9169 0.189728,-1.38801 -2.887805,2.31033 -6.971355,3.59394 -11.429176,3.58264 l 0.01651,-0.0743 a 4.2352001,4.2352001 0 0 1 -3.794562,-4.21172 4.2352001,4.2352001 0 0 1 4.235043,-4.23506 4.2352001,4.2352001 0 0 1 1.416856,0.24977 l 0.608018,-2.68505 z"
       style="fill:url(#linearGradient935);fill-opacity:1;stroke:none;stroke-width:0.568073px;stroke-linecap:butt;stroke-linejoin:miter;stroke-opacity:1" />
    <path
       style="fill:url(#radialGradient838);fill-opacity:1;stroke:none;stroke-width:0.568073px;stroke-linecap:butt;stroke-linejoin:miter;stroke-opacity:1"
       d="m 24.317627,288.79725 c -6.078694,0 -11.006452,4.92773 -11.006449,11.00644 0,0.75981 0.0764,1.50146 0.223013,2.21792 1.293369,5.20575 6.805306,13.25842 10.588158,19.27905 -5.880381,-8.84644 -11.119808,-24.61923 -0.409414,-25.55783 a 4.2352001,4.2352001 0 0 1 0.604689,-0.0477 4.2352001,4.2352001 0 0 1 2.216824,0.63243 l -1.494525,-7.50369 c -0.239192,-0.0155 -0.479185,-0.0266 -0.722296,-0.0266 z"
       id="path821" />
    <path
       id="path875"
       d="m 24.317627,288.79725 c -6.078694,0 -11.006452,4.92773 -11.006449,11.00644 0,0.75981 0.0764,1.50146 0.223013,2.21792 1.293369,5.20575 6.805306,13.25842 10.588158,19.27905 -5.880381,-8.84644 -11.119808,-24.61923 -0.409414,-25.55783 a 4.2352001,4.2352001 0 0 1 0.604689,-0.0477 4.2352001,4.2352001 0 0 1 2.216824,0.63243 l -1.494525,-7.50369 c -0.239192,-0.0155 -0.479185,-0.0266 -0.722296,-0.0266 z"
       style="fill:url(#linearGradient883);fill-opacity:1;stroke:none;stroke-width:0.568073px;stroke-linecap:butt;stroke-linejoin:miter;stroke-opacity:1" />
    <path
       style="fill:url(#radialGradient851);fill-opacity:1;stroke:none;stroke-width:0.568073px;stroke-linecap:butt;stroke-linejoin:miter;stroke-opacity:1"
       d="m 24.317627,288.79725 c -2.550447,0 -4.89183,0.8751 -6.758093,2.33109 4.264254,-0.81725 7.361061,1.60184 7.858737,4.71767 a 4.2352001,4.2352001 0 0 1 3.134396,4.08416 4.2352001,4.2352001 0 0 1 -4.23504,4.23505 4.2352001,4.2352001 0 0 1 -0.44159,-0.0232 v 10e-4 c 3.66e-4,5e-5 7.38e-4,-6e-5 0.0011,0 l -0.01651,0.0743 c 4.457824,0.0103 8.541373,-1.27233 11.429176,-3.58266 0.02064,-0.27436 0.03439,-0.55024 0.03439,-0.82992 0,-6.07871 -4.927758,-11.00643 -11.006447,-11.00643 z m 10.972049,11.83635 c -0.01187,0.15843 -0.03081,0.31493 -0.04882,0.47158 0.01858,-0.15663 0.03692,-0.31304 0.04882,-0.47158 z m -0.311774,2.02712 c -0.0026,0.0103 -0.0039,0.0206 -0.0067,0.0312 0.0028,-0.0103 0.0041,-0.0206 0.0067,-0.0312 z m -0.13869,0.45379 c -0.04206,0.13237 -0.07955,0.26017 -0.130923,0.40165 0.05186,-0.14166 0.08845,-0.26907 0.130923,-0.40165 z m -0.383895,1.03626 c -0.03171,0.0761 -0.06053,0.14914 -0.09431,0.22758 0.03427,-0.0787 0.06211,-0.15068 0.09431,-0.22758 z"
       id="path823" />
    <path
       style="fill:url(#linearGradient873);fill-opacity:1;stroke:none;stroke-width:0.568073px;stroke-linecap:butt;stroke-linejoin:miter;stroke-opacity:1"
       d="m 24.317627,288.79725 c -2.550447,0 -4.891833,0.8751 -6.758093,2.33109 2.636079,-0.50521 4.82326,0.22836 6.228851,1.59663 l 2.554116,0.53478 -0.608018,2.68503 a 4.2351998,4.2351998 0 0 0 -0.247422,-0.0766 4.2351998,4.2351998 0 0 1 3.065606,4.06197 4.2351998,4.2351998 0 0 1 -4.23504,4.23503 4.2351998,4.2351998 0 0 1 -0.44159,-0.0232 v 0.001 a 4.2352001,4.2352001 0 0 0 0.0011,0 l -0.01651,0.0743 c 0.278615,6.7e-4 0.555543,-0.005 0.831034,-0.0129 0.486608,-0.0181 0.967241,-0.0516 1.442377,-0.0988 0.04268,-0.005 0.08613,-0.005 0.128704,-0.0103 0.45249,-0.0477 0.898201,-0.11121 1.338081,-0.18629 0.058,-0.0103 0.116447,-0.0181 0.174194,-0.0289 0.431873,-0.0774 0.856217,-0.17056 1.273731,-0.27405 0.05772,-0.0155 0.115673,-0.0286 0.173084,-0.0433 0.40966,-0.10528 0.811274,-0.22397 1.204941,-0.35394 0.06461,-0.0206 0.128911,-0.0433 0.193056,-0.0655 0.391404,-0.13417 0.773943,-0.28008 1.147244,-0.43825 0.08703,-0.0369 0.173652,-0.0738 0.259629,-0.11199 0.114255,-0.0506 0.228251,-0.1014 0.340622,-0.15404 0.119028,-0.056 0.235966,-0.11456 0.352829,-0.17314 0.08734,-0.0439 0.175768,-0.0867 0.261846,-0.13211 0.12793,-0.0671 0.253228,-0.13727 0.378348,-0.20745 0.077,-0.0431 0.154894,-0.0854 0.23078,-0.12979 0.140547,-0.082 0.278282,-0.16694 0.414962,-0.25287 0.0572,-0.0361 0.115441,-0.0709 0.171975,-0.10759 0.114951,-0.0746 0.226367,-0.15224 0.338403,-0.22965 0.0828,-0.057 0.167382,-0.11327 0.248531,-0.17184 0.0018,-0.001 0.0039,-0.002 0.0057,-0.005 0.177265,-0.12824 0.350048,-0.2596 0.519254,-0.39499 0.02064,-0.27436 0.03439,-0.55024 0.03439,-0.82992 0,-6.07871 -4.927755,-11.00644 -11.006447,-11.00644 z"
       id="path863" />
    <ellipse
       style="opacity:0.328001;fill:url(#radialGradient1083);fill-opacity:1;stroke-width:16.3847;stroke-linecap:round;stroke-linejoin:round;stroke-opacity:0.03;paint-order:stroke markers fill"
       id="path1075"
       cx="24.015203"
       cy="320.45767"
       rx="9.6388226"
       ry="3.2129407" />
  </g>
</svg>
