<?xml version="1.0" encoding="UTF-8" standalone="no"?>
<svg
   width="48"
   height="48"
   version="1"
   id="svg4"
   sodipodi:docname="mega.svg"
   inkscape:version="1.3.2 (091e20ef0f, 2023-11-25)"
   xmlns:inkscape="http://www.inkscape.org/namespaces/inkscape"
   xmlns:sodipodi="http://sodipodi.sourceforge.net/DTD/sodipodi-0.dtd"
   xmlns="http://www.w3.org/2000/svg"
   xmlns:svg="http://www.w3.org/2000/svg">
  <defs
     id="defs4" />
  <sodipodi:namedview
     id="namedview4"
     pagecolor="#ffffff"
     bordercolor="#999999"
     borderopacity="1"
     inkscape:showpageshadow="2"
     inkscape:pageopacity="0"
     inkscape:pagecheckerboard="0"
     inkscape:deskcolor="#d1d1d1"
     inkscape:zoom="5.953125"
     inkscape:cx="34.435696"
     inkscape:cy="18.981627"
     inkscape:window-width="1920"
     inkscape:window-height="994"
     inkscape:window-x="0"
     inkscape:window-y="0"
     inkscape:window-maximized="1"
     inkscape:current-layer="svg4" />
  <path
     style="opacity:0.2;stroke-width:0.743396"
     d="M 3.0380989,23.632186 C 3.0292198,23.878282 3,24.119953 3,24.369 3,35.798572 12.365734,45 23.999394,45 c 11.633661,0 20.999383,-9.201428 20.999383,-20.631 0,-0.248807 -0.02926,-0.490182 -0.03804,-0.736814 -0.396007,11.083258 -9.581736,19.894174 -20.96191,19.894174 -11.380472,0 -20.565904,-8.810916 -20.9618932,-19.894174 z"
     id="path1" />
  <rect
     style="fill:#c83771;stroke-width:0.743396"
     width="41.999977"
     height="41.263161"
     x="3"
     y="3"
     rx="20.999231"
     ry="20.630836"
     id="rect1" />
  <path
     style="opacity:0.1;fill:#ffffff;stroke-width:0.743396"
     d="M 23.999978,3.0014393 C 12.366311,3.0014393 3,12.201997 3,23.631576 c 0,0.08361 0.00844,0.16514 0.013179,0.247536 0.26365,-11.200979 9.520185,-20.1422698 20.986799,-20.1422698 11.466631,0 20.723164,8.9412908 20.986802,20.1422698 C 44.991672,23.796752 45,23.715171 45,23.631576 45,12.201997 35.633689,3.0014393 24.00002,3.0014393 Z"
     id="path2" />
  <path
     style="opacity:0.2;stroke-width:0.743396"
     d="m 11.999743,14.053504 v 20.631001 h 5.999824 V 22.89536 l 5.999827,5.157749 5.99982,-5.157749 V 34.684505 H 35.99904 V 14.053504 h -5.999826 l -5.99982,5.157755 -5.999827,-5.157755 z"
     id="path3" />
  <path
     style="fill:#ffffff;stroke-width:0.743396"
     d="m 11.999743,13.316701 v 20.631 h 5.999824 V 22.158556 l 5.999827,5.157749 5.99982,-5.157749 v 11.789145 h 5.999826 v -20.631 h -5.999826 l -5.99982,5.157744 -5.999827,-5.157744 z"
     id="path4" />
</svg>
