<?xml version="1.0" encoding="UTF-8" standalone="no"?>
<svg
   width="48"
   height="48"
   version="1.1"
   id="svg4"
   sodipodi:docname="notion.svg"
   inkscape:version="1.3.2 (091e20ef0f, 2023-11-25)"
   xmlns:inkscape="http://www.inkscape.org/namespaces/inkscape"
   xmlns:sodipodi="http://sodipodi.sourceforge.net/DTD/sodipodi-0.dtd"
   xmlns="http://www.w3.org/2000/svg"
   xmlns:svg="http://www.w3.org/2000/svg">
  <defs
     id="defs4" />
  <sodipodi:namedview
     id="namedview4"
     pagecolor="#ffffff"
     bordercolor="#999999"
     borderopacity="1"
     inkscape:showpageshadow="2"
     inkscape:pageopacity="0"
     inkscape:pagecheckerboard="0"
     inkscape:deskcolor="#d1d1d1"
     inkscape:zoom="5.953125"
     inkscape:cx="26.540682"
     inkscape:cy="42.330709"
     inkscape:window-width="1920"
     inkscape:window-height="994"
     inkscape:window-x="0"
     inkscape:window-y="0"
     inkscape:window-maximized="1"
     inkscape:current-layer="svg4" />
  <rect
     style="opacity:0.2;stroke-width:0.743395"
     width="42"
     height="41.263157"
     x="3.0000191"
     y="3.7368441"
     rx="21"
     ry="20.631578"
     id="rect1" />
  <rect
     style="fill:#e4e4e4;stroke-width:0.743395"
     width="42"
     height="41.263157"
     x="3.0000191"
     y="3"
     rx="21"
     ry="20.631578"
     id="rect2" />
  <path
     style="opacity:0.1;stroke-width:0.660805"
     d="m 10.502678,13.926823 h 2.699733 v 20.703435 c -2.892572,0 -2.699733,2.587902 -2.699733,2.587902 h 2.892579 3.856747 2.892575 c 0,0 0,-2.587902 -2.892575,-2.587902 V 19.879221 l 9.515203,15.55556 c 0.847797,1.81134 1.230468,1.783379 3.164197,1.783379 h 0.819254 1.928372 c 0,0 2.121225,0 2.121225,-2.771632 V 13.926823 h 2.699736 c 0,0 0,-2.577223 -2.892561,-2.577223 h -3.856772 c -2.892574,0 -2.892574,2.577223 -2.892574,2.577223 h 2.892574 V 28.688545 L 21.329784,13.287203 C 20.340921,11.076575 19.594571,11.3496 17.252004,11.3496 h -3.856747 c -2.892579,0 -2.892579,2.577223 -2.892579,2.577223 z"
     id="path2" />
  <path
     style="fill:#3f3f3f;stroke-width:0.660805"
     d="m 10.502678,13.279839 h 2.699733 V 33.98327 c -2.892572,0 -2.699733,2.587914 -2.699733,2.587914 h 2.892579 3.856747 2.892575 c 0,0 0,-2.587914 -2.892575,-2.587914 V 19.23225 l 9.515203,15.555552 c 0.847797,1.811327 1.230468,1.783382 3.164197,1.783382 h 0.819254 1.928372 c 0,0 2.121225,0 2.121225,-2.771635 v -20.51971 h 2.699736 c 0,0 0,-2.577228 -2.892561,-2.577228 h -3.856772 c -2.892574,0 -2.892574,2.577228 -2.892574,2.577228 h 2.892574 v 14.76171 L 21.329784,12.640213 c -0.988863,-2.210623 -1.735213,-1.937602 -4.07778,-1.937602 h -3.856747 c -2.892579,0 -2.892579,2.577228 -2.892579,2.577228 z"
     id="path3" />
</svg>
