<?xml version="1.0" encoding="UTF-8" standalone="no"?>
<svg
   width="48"
   height="48"
   version="1.1"
   id="svg5"
   sodipodi:docname="zulip.svg"
   inkscape:version="1.4.2 (unknown)"
   xmlns:inkscape="http://www.inkscape.org/namespaces/inkscape"
   xmlns:sodipodi="http://sodipodi.sourceforge.net/DTD/sodipodi-0.dtd"
   xmlns="http://www.w3.org/2000/svg"
   xmlns:svg="http://www.w3.org/2000/svg">
  <defs
     id="defs5" />
  <sodipodi:namedview
     id="namedview5"
     pagecolor="#ffffff"
     bordercolor="#000000"
     borderopacity="0.25"
     inkscape:showpageshadow="2"
     inkscape:pageopacity="0.0"
     inkscape:pagecheckerboard="0"
     inkscape:deskcolor="#d1d1d1"
     inkscape:zoom="11.6875"
     inkscape:cx="31.957219"
     inkscape:cy="34.438503"
     inkscape:window-width="1920"
     inkscape:window-height="1000"
     inkscape:window-x="0"
     inkscape:window-y="0"
     inkscape:window-maximized="1"
     inkscape:current-layer="svg5" />
  <g
     id="g5"
     transform="matrix(0.73660715,0,0,0.73684211,0.4285712,0.05263142)">
    <circle
       style="opacity:0.2"
       cx="32"
       cy="33"
       r="28"
       id="circle1" />
    <circle
       style="fill:#00a3a3;fill-opacity:1"
       cx="32"
       cy="32"
       r="28"
       id="circle2" />
    <path
       style="opacity:0.2"
       d="M 22.185547,18 C 19.88392,18 18,19.464686 18,22 c 0,2.535314 1.88392,4 4.185547,4 h 14.859375 c 0.220334,0 0.359413,0.239074 0.251953,0.451172 l -3.830078,8.175781 c -0.139956,0.22098 0.11264,0.486466 0.306641,0.322266 C 33.773437,34.949219 46,25.817124 46,22 46,19.956282 44.116089,17.998901 41.814453,18 Z m 8.191406,13.001953 c -0.04874,-0.0052 -0.10189,0.0078 -0.150391,0.04883 C 30.226563,31.050781 18,40.182876 18,44 c 0,2.043716 1.883911,4.001098 4.185547,4 H 41.814453 C 44.116079,48 46,46.535312 46,44 46,41.464686 44.116079,40 41.814453,40 H 26.955078 c -0.220334,0 -0.359413,-0.239074 -0.251953,-0.451172 l 3.830078,-8.175781 c 0.104967,-0.165735 -0.01004,-0.355532 -0.15625,-0.371094 z"
       id="path2" />
    <path
       style="fill:#ffffff"
       d="m 46,21 c 0,3.817124 -12.227348,12.94879 -12.227348,12.94879 -0.194,0.1642 -0.446194,-0.1006 -0.306238,-0.32158 l 3.831436,-8.17569 c 0.10746,-0.212098 -0.03186,-0.451788 -0.252194,-0.451788 H 22.184788 C 19.883161,24.999732 18,23.535314 18,21 c 0,-2.535314 1.883161,-3.999997 4.184788,-3.999997 H 41.815212 C 44.116848,16.998904 46,18.956282 46,21 Z"
       id="path3" />
    <path
       style="fill:#ffffff"
       d="M 18,43.000004 C 18,39.18288 30.227348,30.05121 30.227348,30.05121 c 0.194,-0.1642 0.446194,0.1006 0.306238,0.32158 l -3.831436,8.175694 c -0.10746,0.212098 0.03186,0.451788 0.252194,0.451788 H 41.815212 C 44.116838,39.000272 46,40.46469 46,43.000004 46,45.535316 44.116838,47 41.815212,47 H 22.184788 C 19.883152,47.001098 18,45.04372 18,43.000004 Z"
       id="path4" />
    <path
       style="opacity:0.2;fill:#ffffff"
       d="M 32,4 A 28,28 0 0 0 4,32 28,28 0 0 0 4.0058594,32.490234 28,28 0 0 1 32,5 28,28 0 0 1 59.994141,32.488281 28,28 0 0 0 60,32 28,28 0 0 0 32,4 Z"
       id="path5" />
  </g>
</svg>
