<?xml version="1.0" encoding="UTF-8" standalone="no"?>
<svg
   id="svg4950"
   height="88"
   width="88"
   version="1.0"
   sodipodi:docname="wind-arrows.svg"
   inkscape:version="1.2.2 (b0a8486541, 2022-12-01)"
   xmlns:inkscape="http://www.inkscape.org/namespaces/inkscape"
   xmlns:sodipodi="http://sodipodi.sourceforge.net/DTD/sodipodi-0.dtd"
   xmlns="http://www.w3.org/2000/svg"
   xmlns:svg="http://www.w3.org/2000/svg"
   xmlns:rdf="http://www.w3.org/1999/02/22-rdf-syntax-ns#"
   xmlns:cc="http://creativecommons.org/ns#"
   xmlns:dc="http://purl.org/dc/elements/1.1/">
  <sodipodi:namedview
     pagecolor="#000000"
     bordercolor="#2111ff"
     borderopacity="1"
     objecttolerance="10"
     gridtolerance="10000"
     guidetolerance="10"
     inkscape:pageopacity="0"
     inkscape:pageshadow="2"
     inkscape:window-width="1920"
     inkscape:window-height="1002"
     id="namedview14059"
     showgrid="true"
     showguides="false"
     inkscape:guide-bbox="true"
     inkscape:zoom="4.534091"
     inkscape:cx="42.456139"
     inkscape:cy="55.909773"
     inkscape:window-x="0"
     inkscape:window-y="0"
     inkscape:window-maximized="1"
     inkscape:current-layer="svg4950"
     inkscape:showpageshadow="false"
     inkscape:pagecheckerboard="true"
     inkscape:deskcolor="#000000">
    <sodipodi:guide
       position="22,73"
       orientation="1,0"
       id="guide14604"
       inkscape:locked="false" />
    <sodipodi:guide
       position="44,57"
       orientation="1,0"
       id="guide14608"
       inkscape:locked="false" />
    <sodipodi:guide
       position="66,48"
       orientation="1,0"
       id="guide14610"
       inkscape:locked="false" />
    <sodipodi:guide
       position="88,56"
       orientation="1,0"
       id="guide14612"
       inkscape:locked="false" />
    <sodipodi:guide
       position="91,88"
       orientation="0,1"
       id="guide14614"
       inkscape:locked="false" />
    <sodipodi:guide
       position="91,66"
       orientation="0,1"
       id="guide14616"
       inkscape:locked="false" />
    <sodipodi:guide
       position="85,44"
       orientation="0,1"
       id="guide14618"
       inkscape:locked="false" />
    <sodipodi:guide
       position="72,22"
       orientation="0,1"
       id="guide14620"
       inkscape:locked="false" />
    <sodipodi:guide
       position="81,0"
       orientation="0,1"
       id="guide14622"
       inkscape:locked="false" />
    <inkscape:grid
       type="xygrid"
       id="grid1692"
       originx="0"
       originy="0" />
  </sodipodi:namedview>
  <metadata
     id="metadata58">
    <rdf:RDF>
      <cc:Work
         rdf:about="">
        <dc:format>image/svg+xml</dc:format>
        <dc:type
           rdf:resource="http://purl.org/dc/dcmitype/StillImage" />
      </cc:Work>
    </rdf:RDF>
  </metadata>
  <defs
     id="defs4">
    <style
       id="current-color-scheme"
       type="text/css">.ColorScheme-Text { color:#bac8df;    stop-color:#bac8df; }
</style>
  </defs>
  <g
     id="S">
    <rect
       y="0"
       x="0"
       height="22"
       width="22"
       id="rect1727"
       style="fill:none;fill-opacity:1;stroke:none;stroke-width:0.1;stroke-linecap:square;stroke-linejoin:miter;stroke-miterlimit:4;stroke-dasharray:none;stroke-dashoffset:0;stroke-opacity:1" />
    <path
       style="fill:currentColor;fill-opacity:0.7;stroke-width:0.0318517"
       d="m 7,7.9802191 c -1.0877789,0 -2.0000001,0.9113858 -2.0000001,2.0316439 v 0.646465 H 6 V 10.011863 C 6,9.6045261 6.1,8.9999999 7,8.973 7.8000955,8.9489971 8.0000001,9.5926625 8.0000001,9.9999998 V 19 H 9 V 10.011863 C 9,8.8916049 8.0877789,7.9802191 7,7.9802191 Z"
       id="path442"
       sodipodi:nodetypes="ssccsssccss"
       class="ColorScheme-Text" />
    <path
       style="fill:currentColor;fill-opacity:0.7;stroke-width:0.0318517"
       d="M 13,7.5217141 V 19 h 1 V 7.5217141 C 14,7.1144091 14.172767,6.5000001 15,6.483 15.67284,6.469173 16,7.1144091 16,7.5217141 V 8 h 1 V 7.5217141 c -2e-6,-1.1202262 -0.912221,-2.031612 -2,-2.031612 -1.087779,0 -2.005316,0.9113661 -2,2.031612 z"
       id="path444"
       sodipodi:nodetypes="sccsssccsss"
       class="ColorScheme-Text" />
    <rect
       y="10"
       style="fill:currentColor;stroke-width:0.0318517"
       width="6"
       height="1.9999999"
       id="rect448"
       x="-19"
       class="ColorScheme-Text"
       transform="rotate(-90)" />
    <path
       inkscape:transform-center-x="-0.0015624998"
       inkscape:transform-center-y="-0.20042986"
       sodipodi:nodetypes="ccccc"
       inkscape:connector-curvature="0"
       id="path4-7-5-3"
       d="M 11,4 9.8,10 11,9.1999997 12.2,10 Z"
       style="fill:currentColor;fill-opacity:1;stroke:none;stroke-width:0.399998"
       class="ColorScheme-Text" />
  </g>
  <g
     id="SSW">
    <rect
       y="0"
       x="22"
       height="22"
       width="22"
       id="rect1727-2"
       style="fill:none;fill-opacity:1;stroke:none;stroke-width:0.1;stroke-linecap:square;stroke-linejoin:miter;stroke-miterlimit:4;stroke-dasharray:none;stroke-dashoffset:0;stroke-opacity:1" />
    <path
       style="color:#bac8df;fill:currentColor;fill-opacity:0.7;stroke-width:0.0318517;stop-color:#bac8df"
       d="m 29.805281,6.140542 c -1.0045,-0.417424 -2.196617,0.07413 -2.626504,1.108626 l -0.248074,0.596972 0.923441,0.38374 0.248074,-0.596973 c 0.156312,-0.376152 0.480636,-0.896022 1.322094,-0.57559 0.748051,0.284865 0.685653,0.955962 0.529342,1.332114 L 26.5,16.700404 27.423441,17.084143 30.872543,8.784125 C 31.30243,7.749632 30.809783,6.557966 29.805281,6.140542 Z"
       id="path442-6"
       sodipodi:nodetypes="ssccsssccss"
       class="ColorScheme-Text" />
    <path
       style="color:#bac8df;fill:currentColor;fill-opacity:0.7;stroke-width:0.0318517;stop-color:#bac8df"
       d="m 35.521877,8.019575 -4.40467,10.599526 0.923442,0.383739 4.404669,-10.599525 C 36.601617,8.027192 36.99693,7.526119 37.767355,7.827862 38.39399,8.073286 38.4485,8.794671 38.292201,9.170793 l -0.183537,0.441669 0.923441,0.38374 0.183538,-0.441669 c 0.429872,-1.034464 -0.06277,-2.22613 -1.067274,-2.643554 -1.0045,-0.417423 -2.201519,0.07207 -2.626492,1.108596 z"
       id="path444-7"
       sodipodi:nodetypes="sccsssccsss"
       class="ColorScheme-Text" />
    <rect
       y="32.879799"
       style="color:#bac8df;fill:currentColor;stroke-width:0.0318517;stop-color:#bac8df"
       width="6"
       height="1.9999999"
       id="rect448-5"
       x="-5.2527528"
       class="ColorScheme-Text"
       transform="rotate(-67.434502)" />
    <path
       inkscape:transform-center-x="0.47570922"
       inkscape:transform-center-y="0.045757939"
       sodipodi:nodetypes="ccccc"
       inkscape:connector-curvature="0"
       id="path4-7-5-3-3"
       d="m 35.026414,4 -3.410566,5.080162 1.415121,-0.278266 0.801139,1.19924 z"
       style="color:#bac8df;fill:currentColor;fill-opacity:1;stroke:none;stroke-width:0.399998;stop-color:#bac8df"
       class="ColorScheme-Text" />
  </g>
  <g
     id="SW">
    <rect
       y="0"
       x="44"
       height="22"
       width="22"
       id="rect1727-9"
       style="fill:none;fill-opacity:1;stroke:none;stroke-width:0.1;stroke-linecap:square;stroke-linejoin:miter;stroke-miterlimit:4;stroke-dasharray:none;stroke-dashoffset:0;stroke-opacity:1" />
    <path
       style="color:#bac8df;fill:currentColor;fill-opacity:0.7;stroke-width:0.0318517;stop-color:#bac8df"
       d="m 54.811864,5.6128218 c -0.748136,-0.789655 -2.037134,-0.82505 -2.850368,-0.05457 l -0.46929,0.444616 0.687764,0.725934 0.469291,-0.444617 c 0.2957,-0.280151 0.803321,-0.62333 1.44191,0.01144 0.5677,0.564309 0.237931,1.152117 -0.05777,1.432269 L 47.5,13.917778 l 0.687764,0.725933 6.52479,-6.1817252 c 0.813233,-0.770474 0.847446,-2.059504 0.09931,-2.849161 z"
       id="path442-6-5"
       sodipodi:nodetypes="ssccsssccss"
       class="ColorScheme-Text" />
    <path
       style="color:#bac8df;fill:currentColor;fill-opacity:0.7;stroke-width:0.0318517;stop-color:#bac8df"
       d="m 59.271298,9.65308 -8.332472,7.894362 0.687765,0.725934 8.332472,-7.894363 c 0.295676,-0.28013 0.860519,-0.577282 1.441802,0.01154 0.472795,0.478925 0.229404,1.160195 -0.06627,1.440325 l -0.347204,0.328948 0.687764,0.725934 0.347205,-0.328948 c 0.813207,-0.770454 0.847421,-2.059484 0.09929,-2.849139 -0.748136,-0.7896552 -2.040775,-0.8289252 -2.850345,-0.0546 z"
       id="path444-7-6"
       sodipodi:nodetypes="sccsssccsss"
       class="ColorScheme-Text" />
    <rect
       y="44.772217"
       style="color:#bac8df;fill:currentColor;stroke-width:0.0318517;stop-color:#bac8df"
       width="6"
       height="1.9999999"
       id="rect448-5-2"
       x="24.909685"
       class="ColorScheme-Text"
       transform="rotate(-43.453442)" />
    <path
       inkscape:transform-center-x="0.26608592"
       inkscape:transform-center-y="0.29884542"
       sodipodi:nodetypes="ccccc"
       inkscape:connector-curvature="0"
       id="path4-7-5-3-3-9"
       d="m 60.452298,5.7791008 -5.180919,3.25547 1.406065,0.320908 0.244572,1.4213322 z"
       style="color:#bac8df;fill:currentColor;fill-opacity:1;stroke:none;stroke-width:0.399998;stop-color:#bac8df"
       class="ColorScheme-Text" />
  </g>
  <g
     id="WSW">
    <rect
       y="0"
       x="66"
       height="22"
       width="22"
       id="rect1727-3"
       style="fill:none;fill-opacity:1;stroke:none;stroke-width:0.1;stroke-linecap:square;stroke-linejoin:miter;stroke-miterlimit:4;stroke-dasharray:none;stroke-dashoffset:0;stroke-opacity:1" />
    <path
       style="color:#bac8df;fill:currentColor;fill-opacity:0.7;stroke-width:0.0318517;stop-color:#bac8df"
       d="m 78.705274,7.1254175 c -0.470124,-0.980942 -1.686245,-1.40968 -2.696478,-0.925513 l -0.582971,0.279394 0.432186,0.901784 0.582972,-0.279395 c 0.36733,-0.176045 0.955699,-0.347136 1.369017,0.4528 0.367435,0.71114 -0.126615,1.169596 -0.493945,1.345641 L 69.2,12.789816 l 0.432187,0.901783 8.105356,-3.8845605 c 1.010232,-0.484161 1.437854,-1.700675 0.967731,-2.681618 z"
       id="path442-6-5-1"
       sodipodi:nodetypes="ssccsssccss"
       class="ColorScheme-Text" />
    <path
       style="color:#bac8df;fill:currentColor;fill-opacity:0.7;stroke-width:0.0318517;stop-color:#bac8df"
       d="m 81.711873,12.337961 -10.350932,4.960771 0.432188,0.901784 10.350932,-4.960772 c 0.3673,-0.176032 0.996032,-0.285774 1.368883,0.452863 0.30327,0.600778 -0.137208,1.174671 -0.504507,1.350703 l -0.43131,0.206709 0.432187,0.901784 0.431314,-0.206708 c 1.010197,-0.484152 1.437826,-1.700664 0.967716,-2.6816 -0.47013,-0.980942 -1.68853,-1.414485 -2.696454,-0.925535 z"
       id="path444-7-6-2"
       sodipodi:nodetypes="sccsssccsss"
       class="ColorScheme-Text" />
    <rect
       y="43.441029"
       style="color:#bac8df;fill:currentColor;stroke-width:0.0318517;stop-color:#bac8df"
       width="6"
       height="1.9999999"
       id="rect448-5-2-7"
       x="56.875847"
       class="ColorScheme-Text"
       transform="rotate(-25.606464)" />
    <path
       inkscape:transform-center-x="0.077892012"
       inkscape:transform-center-y="0.45585576"
       sodipodi:nodetypes="ccccc"
       inkscape:connector-curvature="0"
       id="path4-7-5-3-3-9-0"
       d="m 84.023324,9.0123515 -5.929331,1.5109855 1.240053,0.73639 -0.2028,1.427891 z"
       style="color:#bac8df;fill:currentColor;fill-opacity:1;stroke:none;stroke-width:0.399998;stop-color:#bac8df"
       class="ColorScheme-Text" />
  </g>
  <g
     id="W">
    <rect
       y="22"
       x="0"
       height="22"
       width="22"
       id="rect1727-1"
       style="fill:none;fill-opacity:1;stroke:none;stroke-width:0.1;stroke-linecap:square;stroke-linejoin:miter;stroke-miterlimit:4;stroke-dasharray:none;stroke-dashoffset:0;stroke-opacity:1" />
    <path
       style="color:#bac8df;fill:currentColor;fill-opacity:0.7;stroke-width:0.0318517;stop-color:#bac8df"
       d="m 14.50196,28.966786 c -0.01779,-1.087634 -0.943964,-1.984831 -2.064077,-1.96651 l -0.646377,0.01057 0.01635,0.999866 0.64638,-0.01057 c 0.407282,-0.0067 1.013361,0.08344 1.055075,0.982878 0.03708,0.799596 -0.60323,1.01 -1.010514,1.016659 L 3.5,30.146839 l 0.01635,0.999865 8.986935,-0.146965 c 1.120108,-0.01832 2.016456,-0.945317 1.998672,-2.032951 z"
       id="path442-6-5-1-9"
       sodipodi:nodetypes="ssccsssccss"
       class="ColorScheme-Text" />
    <path
       style="color:#bac8df;fill:currentColor;fill-opacity:0.7;stroke-width:0.0318517;stop-color:#bac8df"
       d="M 15.058511,34.958487 3.58176,35.146169 3.59811,36.146035 15.074861,35.958353 c 0.407251,-0.0067 1.024402,0.156037 1.054927,0.982881 0.02484,0.672526 -0.614973,1.010191 -1.022222,1.016852 l -0.478222,0.0078 0.01635,0.999865 0.478224,-0.0078 c 1.120074,-0.01833 2.016428,-0.945319 1.998652,-2.032941 -0.01779,-1.087637 -0.944033,-1.990152 -2.064044,-1.966521 z"
       id="path444-7-6-2-3"
       sodipodi:nodetypes="sccsssccsss"
       class="ColorScheme-Text" />
    <rect
       y="32.200035"
       style="color:#bac8df;fill:currentColor;stroke-width:0.0318517;stop-color:#bac8df"
       width="6"
       height="1.9999999"
       id="rect448-5-2-7-6"
       x="3.0066092"
       class="ColorScheme-Text"
       transform="rotate(-0.9368902)" />
    <path
       inkscape:transform-center-x="-0.19061882"
       inkscape:transform-center-y="0.047338203"
       sodipodi:nodetypes="ccccc"
       inkscape:connector-curvature="0"
       id="path4-7-5-3-3-9-0-0"
       d="m 18.547054,32.901171 -6.018822,-1.101734 0.819516,1.186759 -0.780271,1.212921 z"
       style="color:#bac8df;fill:currentColor;fill-opacity:1;stroke:none;stroke-width:0.399998;stop-color:#bac8df"
       class="ColorScheme-Text" />
  </g>
  <g
     id="E">
    <rect
       y="66"
       x="0"
       height="22"
       width="22"
       id="rect1727-94"
       style="fill:none;fill-opacity:1;stroke:none;stroke-width:0.1;stroke-linecap:square;stroke-linejoin:miter;stroke-miterlimit:4;stroke-dasharray:none;stroke-dashoffset:0;stroke-opacity:1" />
    <path
       style="color:#bac8df;fill:currentColor;fill-opacity:0.7;stroke-width:0.0318517;stop-color:#bac8df"
       d="m 7.545094,80.99916 c 0.01779,1.08764 0.943964,1.98483 2.064077,1.96651 l 0.646377,-0.0106 -0.01635,-0.99986 -0.64638,0.0106 c -0.407282,0.007 -1.013361,-0.0834 -1.055075,-0.98288 -0.03708,-0.7996 0.60323,-1.01 1.010514,-1.01666 l 8.998797,-0.14716 -0.01635,-0.99986 -8.986935,0.14696 c -1.120108,0.0183 -2.016456,0.94532 -1.998672,2.03295 z"
       id="path442-6-5-1-9-7"
       sodipodi:nodetypes="ssccsssccss"
       class="ColorScheme-Text" />
    <path
       style="color:#bac8df;fill:currentColor;fill-opacity:0.7;stroke-width:0.0318517;stop-color:#bac8df"
       d="M 6.988543,75.00746 18.465294,74.81978 18.448944,73.81992 6.972193,74.0076 C 6.564942,74.0146 5.947791,73.85156 5.917266,73.02472 5.892426,72.35219 6.532239,72.01452 6.939488,72.00786 L 7.41771,71.99986 7.40136,71 6.923136,71.008 c -1.120074,0.0183 -2.016428,0.94532 -1.998652,2.03294 0.01779,1.08764 0.944033,1.99015 2.064044,1.96652 z"
       id="path444-7-6-2-3-8"
       sodipodi:nodetypes="sccsssccsss"
       class="ColorScheme-Text" />
    <rect
       y="-78.111702"
       style="color:#bac8df;fill:currentColor;stroke-width:0.0318517;stop-color:#bac8df"
       width="6"
       height="1.9999999"
       id="rect448-5-2-7-6-4"
       x="-17.239433"
       class="ColorScheme-Text"
       transform="rotate(179.06311)" />
    <path
       inkscape:transform-center-x="-0.19061882"
       inkscape:transform-center-y="0.047338203"
       sodipodi:nodetypes="ccccc"
       inkscape:connector-curvature="0"
       id="path4-7-5-3-3-9-0-0-5"
       d="M 3.5,77.06478 9.518822,78.16651 8.699306,76.97975 9.479577,75.76683 Z"
       style="color:#bac8df;fill:currentColor;fill-opacity:1;stroke:none;stroke-width:0.399998;stop-color:#bac8df"
       class="ColorScheme-Text" />
  </g>
  <g
     id="WNW">
    <rect
       y="22"
       x="22"
       height="22"
       width="22"
       id="rect1727-1-5"
       style="fill:none;fill-opacity:1;stroke:none;stroke-width:0.1;stroke-linecap:square;stroke-linejoin:miter;stroke-miterlimit:4;stroke-dasharray:none;stroke-dashoffset:0;stroke-opacity:1" />
    <path
       style="color:#bac8df;fill:currentColor;fill-opacity:0.7;stroke-width:0.0318517;stop-color:#bac8df"
       d="m 37.7067,30.048547 c 0.243402,-1.060198 -0.440747,-2.153222 -1.532605,-2.403892 L 35.544024,27.5 l -0.223765,0.974643 0.630075,0.144656 c 0.397017,0.09111 0.963828,0.32388 0.788758,1.207101 -0.15564,0.785178 -0.827715,0.835987 -1.224725,0.744838 l -8.771792,-2.013868 -0.223764,0.974642 8.760229,2.011215 c 1.091853,0.25067 2.18425,-0.434482 2.427657,-1.494679 z"
       id="path442-6-5-1-9-6"
       sodipodi:nodetypes="ssccsssccss"
       class="ColorScheme-Text" />
    <path
       style="color:#bac8df;fill:currentColor;fill-opacity:0.7;stroke-width:0.0318517;stop-color:#bac8df"
       d="M 36.811001,35.999005 25.623764,33.430587 25.4,34.40523 36.587237,36.973648 c 0.396987,0.0911 0.957148,0.397008 0.788614,1.207069 -0.137068,0.658878 -0.839162,0.833358 -1.236138,0.742219 l -0.466153,-0.107042 -0.223764,0.974642 0.466155,0.107043 c 1.091822,0.250652 2.184223,-0.434491 2.427635,-1.494674 0.243402,-1.060201 -0.439539,-2.158404 -1.532571,-2.403894 z"
       id="path444-7-6-2-3-2"
       sodipodi:nodetypes="sccsssccsss"
       class="ColorScheme-Text" />
    <rect
       y="23.849262"
       style="color:#bac8df;fill:currentColor;stroke-width:0.0318517;stop-color:#bac8df"
       width="6"
       height="1.9999999"
       id="rect448-5-2-7-6-6"
       x="32.454563"
       class="ColorScheme-Text"
       transform="rotate(12.930158)" />
    <path
       inkscape:transform-center-x="-0.060742258"
       inkscape:transform-center-y="-0.53841432"
       sodipodi:nodetypes="ccccc"
       inkscape:connector-curvature="0"
       id="path4-7-5-3-3-9-0-0-1"
       d="m 40.690945,34.837749 -5.579348,-2.512153 0.511201,1.348584 -1.04823,0.990562 z"
       style="color:#bac8df;fill:currentColor;fill-opacity:1;stroke:none;stroke-width:0.399998;stop-color:#bac8df"
       class="ColorScheme-Text" />
  </g>
  <g
     id="NW">
    <rect
       y="22"
       x="44"
       height="22"
       width="22"
       id="rect1727-1-4"
       style="fill:none;fill-opacity:1;stroke:none;stroke-width:0.1;stroke-linecap:square;stroke-linejoin:miter;stroke-miterlimit:4;stroke-dasharray:none;stroke-dashoffset:0;stroke-opacity:1" />
    <path
       style="color:#bac8df;fill:currentColor;fill-opacity:0.7;stroke-width:0.0318517;stop-color:#bac8df"
       d="m 61.253314,32.709317 c 0.735049,-0.801852 0.679651,-2.090143 -0.146146,-2.847142 l -0.476537,-0.436838 -0.675736,0.737143 0.476539,0.436841 c 0.300292,0.275224 0.678315,0.757464 0.09006,1.439139 -0.522961,0.606003 -1.132518,0.318416 -1.432785,0.04316 L 52.454411,26 l -0.675736,0.737142 6.625552,6.073605 c 0.825794,0.756996 2.114034,0.700416 2.849086,-0.101433 z"
       id="path442-6-5-1-9-6-8"
       sodipodi:nodetypes="ssccsssccss"
       class="ColorScheme-Text" />
    <path
       style="color:#bac8df;fill:currentColor;fill-opacity:0.7;stroke-width:0.0318517;stop-color:#bac8df"
       d="M 57.536886,37.44201 49.075736,29.685724 48.4,30.422867 l 8.46115,7.756286 c 0.300271,0.275201 0.636406,0.817763 0.08995,1.43904 -0.444461,0.505334 -1.141176,0.310479 -1.441418,0.03525 l -0.352551,-0.323209 -0.675736,0.737142 0.352553,0.323211 c 0.825772,0.756966 2.114013,0.700397 2.849063,-0.101438 0.735051,-0.801855 0.683259,-2.094053 -0.146116,-2.847126 z"
       id="path444-7-6-2-3-2-7"
       sodipodi:nodetypes="sccsssccsss"
       class="ColorScheme-Text" />
    <rect
       y="-14.279562"
       style="color:#bac8df;fill:currentColor;stroke-width:0.0318517;stop-color:#bac8df"
       width="6"
       height="1.9999999"
       id="rect448-5-2-7-6-6-9"
       x="56.235592"
       class="ColorScheme-Text"
       transform="rotate(42.511297)" />
    <path
       inkscape:transform-center-x="0.25874979"
       inkscape:transform-center-y="-0.30569635"
       sodipodi:nodetypes="ccccc"
       inkscape:connector-curvature="0"
       id="path4-7-5-3-3-9-0-0-1-2"
       d="m 61.484369,38.347471 -3.611983,-4.938988 -0.221168,1.425163 -1.400596,0.343985 z"
       style="color:#bac8df;fill:currentColor;fill-opacity:1;stroke:none;stroke-width:0.399998;stop-color:#bac8df"
       class="ColorScheme-Text" />
  </g>
  <g
     id="NNW">
    <g
       id="g2740">
      <rect
         y="22"
         x="66"
         height="22"
         width="22"
         id="rect1727-1-6"
         style="fill:none;fill-opacity:1;stroke:none;stroke-width:0.1;stroke-linecap:square;stroke-linejoin:miter;stroke-miterlimit:4;stroke-dasharray:none;stroke-dashoffset:0;stroke-opacity:1" />
      <path
         style="color:#bac8df;fill:currentColor;fill-opacity:0.7;stroke-width:0.0318517;stop-color:#bac8df"
         d="m 81.536936,35.396002 c 1.01285,-0.396735 1.529839,-1.578042 1.121256,-2.621137 l -0.235777,-0.601934 -0.931118,0.364717 0.235778,0.601937 c 0.148599,0.379265 0.275934,0.978634 -0.552222,1.332022 -0.736229,0.314156 -1.157122,-0.212262 -1.305684,-0.591544 L 76.586708,25.5 l -0.931118,0.364716 3.278133,8.369017 c 0.408582,1.043092 1.590362,1.558997 2.603214,1.162266 z"
         id="path442-6-5-1-9-6-8-0"
         sodipodi:nodetypes="ssccsssccss"
         class="ColorScheme-Text" />
      <path
         style="color:#bac8df;fill:currentColor;fill-opacity:0.7;stroke-width:0.0318517;stop-color:#bac8df"
         d="M 76.117454,38.011233 71.931118,27.323594 71,27.688311 75.186335,38.37595 c 0.148591,0.379235 0.211772,1.014348 -0.552277,1.331885 -0.621447,0.258285 -1.161405,-0.223198 -1.309957,-0.602446 l -0.17442,-0.445347 -0.931117,0.364716 0.174421,0.44535 c 0.408576,1.043055 1.590351,1.55897 2.603194,1.162251 1.012853,-0.396738 1.534801,-1.579966 1.121277,-2.62111 z"
         id="path444-7-6-2-3-2-7-2"
         sodipodi:nodetypes="sccsssccsss"
         class="ColorScheme-Text" />
      <rect
         y="-60.010941"
         style="color:#bac8df;fill:currentColor;stroke-width:0.0318517;stop-color:#bac8df"
         width="6"
         height="1.9999999"
         id="rect448-5-2-7-6-6-9-3"
         x="51.676067"
         class="ColorScheme-Text"
         transform="rotate(68.609774)" />
      <path
         inkscape:transform-center-x="0.48702463"
         inkscape:transform-center-y="-0.031635761"
         sodipodi:nodetypes="ccccc"
         inkscape:connector-curvature="0"
         id="path4-7-5-3-3-9-0-0-1-2-7"
         d="m 79.264122,40.560931 -1.070966,-6.024372 -0.825568,1.182557 -1.409115,-0.307232 z"
         style="color:#bac8df;fill:currentColor;fill-opacity:1;stroke:none;stroke-width:0.399998;stop-color:#bac8df"
         class="ColorScheme-Text" />
    </g>
  </g>
  <g
     id="N">
    <rect
       y="44"
       x="0"
       height="22"
       width="22"
       id="rect1727-93"
       style="fill:none;fill-opacity:1;stroke:none;stroke-width:0.1;stroke-linecap:square;stroke-linejoin:miter;stroke-miterlimit:4;stroke-dasharray:none;stroke-dashoffset:0;stroke-opacity:1" />
    <path
       style="color:#bac8df;fill:currentColor;fill-opacity:0.7;stroke-width:0.0318517;stop-color:#bac8df"
       d="m 15.003422,59.075569 c 1.087744,0.0087 2.007249,-0.895306 2.016235,-2.015532 l 0.0052,-0.646443 -0.999968,-0.008 -0.0052,0.646446 c -0.0032,0.407324 -0.108114,1.011027 -1.0083,1.030807 -0.800261,0.01758 -0.994997,-0.627668 -0.991726,-1.034995 l 0.07222,-8.99971 -0.999967,-0.008 -0.07212,8.987847 c -0.009,1.120223 0.895889,2.038898 1.983634,2.047628 z"
       id="path442-6-5-1-9-6-8-0-5"
       sodipodi:nodetypes="ssccsssccss"
       class="ColorScheme-Text" />
    <path
       style="color:#bac8df;fill:currentColor;fill-opacity:0.7;stroke-width:0.0318517;stop-color:#bac8df"
       d="M 8.9999366,59.485916 9.0920366,48.008 8.0920686,48 l -0.0921,11.477916 c -0.0032,0.407293 -0.180959,1.020295 -1.0083,1.030659 -0.672931,0.0084 -0.994902,-0.639413 -0.991635,-1.046704 l 0.0039,-0.478269 -0.999967,-0.008 -0.0039,0.478271 c -0.009,1.120187 0.895889,2.03887 1.983621,2.047608 1.087748,0.0087 2.012571,-0.895245 2.016245,-2.0155 z"
       id="path444-7-6-2-3-2-7-2-9"
       sodipodi:nodetypes="sccsssccsss"
       class="ColorScheme-Text" />
    <rect
       y="-12.476961"
       style="color:#bac8df;fill:currentColor;stroke-width:0.0318517;stop-color:#bac8df"
       width="6"
       height="1.9999999"
       id="rect448-5-2-7-6-6-9-3-2"
       x="47.933506"
       class="ColorScheme-Text"
       transform="rotate(90.45975)" />
    <path
       inkscape:transform-center-x="-0.02090182"
       inkscape:transform-center-y="0.19559868"
       sodipodi:nodetypes="ccccc"
       inkscape:connector-curvature="0"
       id="path4-7-5-3-3-9-0-0-1-2-7-2"
       d="m 10.971612,63.023567 1.248107,-5.99018 -1.206382,0.790346 -1.1935414,-0.809602 z"
       style="color:#bac8df;fill:currentColor;fill-opacity:1;stroke:none;stroke-width:0.399998;stop-color:#bac8df"
       class="ColorScheme-Text" />
  </g>
  <g
     id="NNE">
    <rect
       y="44"
       x="22"
       height="22"
       width="22"
       id="rect1727-93-0"
       style="fill:none;fill-opacity:1;stroke:none;stroke-width:0.1;stroke-linecap:square;stroke-linejoin:miter;stroke-miterlimit:4;stroke-dasharray:none;stroke-dashoffset:0;stroke-opacity:1" />
    <path
       style="color:#bac8df;fill:currentColor;fill-opacity:0.7;stroke-width:0.0318517;stop-color:#bac8df"
       d="m 36.512538,60.033738 c 1.04472,0.303054 2.17473,-0.318047 2.48687,-1.393948 l 0.17993,-0.620915 -0.9604,-0.2786 -0.17995,0.620918 c -0.11323,0.39128 -0.37796,0.943932 -1.24984,0.719105 -0.7751,-0.199874 -0.78776,-0.87375 -0.67426,-1.264959 l 2.50759,-8.64361 -0.9604,-0.278598 -2.50428,8.632218 c -0.31214,1.075895 0.31004,2.205358 1.35474,2.508438 z"
       id="path442-6-5-1-9-6-8-0-5-8"
       sodipodi:nodetypes="ssccsssccss"
       class="ColorScheme-Text" />
    <path
       style="color:#bac8df;fill:currentColor;fill-opacity:0.7;stroke-width:0.0318517;stop-color:#bac8df"
       d="M 30.622388,58.802353 33.820498,47.7786 32.860088,47.5 29.661978,58.523753 c -0.11323,0.39125 -0.4506,0.933118 -1.24981,0.718962 -0.65004,-0.174216 -0.78447,-0.885028 -0.67099,-1.276203 l 0.13342,-0.459301 -0.960408,-0.2786 -0.133417,0.459303 c -0.312131,1.07586 0.310043,2.20533 1.354735,2.508416 1.04471,0.303054 2.17984,-0.316548 2.48685,-1.393917 z"
       id="path444-7-6-2-3-2-7-2-9-9"
       sodipodi:nodetypes="sccsssccsss"
       class="ColorScheme-Text" />
    <rect
       y="-48.793427"
       style="color:#bac8df;fill:currentColor;stroke-width:0.0318517;stop-color:#bac8df"
       width="6"
       height="1.9999999"
       id="rect448-5-2-7-6-6-9-3-2-7"
       x="36.463444"
       class="ColorScheme-Text"
       transform="rotate(106.17802)" />
    <path
       inkscape:transform-center-x="-0.51889128"
       inkscape:transform-center-y="0.024885794"
       sodipodi:nodetypes="ccccc"
       inkscape:connector-curvature="0"
       id="path4-7-5-3-3-9-0-0-1-2-7-2-3"
       d="m 31.561948,62.741855 2.82423,-5.428057 -1.37538,0.433974 -0.92958,-1.102666 z"
       style="color:#bac8df;fill:currentColor;fill-opacity:1;stroke:none;stroke-width:0.399998;stop-color:#bac8df"
       class="ColorScheme-Text" />
  </g>
  <g
     id="NE">
    <rect
       y="44"
       x="44"
       height="22"
       width="22"
       id="rect1727-93-3"
       style="fill:none;fill-opacity:1;stroke:none;stroke-width:0.1;stroke-linecap:square;stroke-linejoin:miter;stroke-miterlimit:4;stroke-dasharray:none;stroke-dashoffset:0;stroke-opacity:1" />
    <path
       style="color:#bac8df;fill:currentColor;fill-opacity:0.7;stroke-width:0.0318517;stop-color:#bac8df"
       d="m 55.338861,61.055923 c 0.74703,0.79072 2.03594,0.827988 2.8503,0.05869 l 0.46979,-0.444077 -0.68673,-0.726905 -0.46981,0.444069 c -0.29591,0.279922 -0.80421,0.622175 -1.44188,-0.01351 -0.56689,-0.565128 -0.23628,-1.152466 0.0598,-1.432189 l 6.54232,-6.180459 -0.68673,-0.726904 -6.53369,6.172316 c -0.81435,0.769292 -0.85041,2.058282 -0.10342,2.849015 z"
       id="path442-6-5-1-9-6-8-0-5-8-6"
       sodipodi:nodetypes="ssccsssccss"
       class="ColorScheme-Text" />
    <path
       style="color:#bac8df;fill:currentColor;fill-opacity:0.7;stroke-width:0.0318517;stop-color:#bac8df"
       d="m 50.885271,57.009238 8.34386,-7.882328 -0.68674,-0.72691 -8.34386,7.882327 c -0.2959,0.279896 -0.86135,0.576038 -1.441782,-0.01362 -0.472081,-0.479628 -0.227724,-1.160521 0.06835,-1.440225 l 0.347792,-0.328328 -0.686734,-0.726909 -0.347791,0.32833 c -0.814327,0.769267 -0.850396,2.05826 -0.103414,2.848994 0.747015,0.790715 2.039587,0.83187 2.850257,0.05871 z"
       id="path444-7-6-2-3-2-7-2-9-9-1"
       sodipodi:nodetypes="sccsssccsss"
       class="ColorScheme-Text" />
    <rect
       y="-79.385216"
       style="color:#bac8df;fill:currentColor;stroke-width:0.0318517;stop-color:#bac8df"
       width="6"
       height="1.9999999"
       id="rect448-5-2-7-6-6-9-3-2-7-2"
       x="-9.3189001"
       class="ColorScheme-Text"
       transform="rotate(136.62926)" />
    <path
       inkscape:transform-center-x="-0.26525511"
       inkscape:transform-center-y="-0.29965294"
       sodipodi:nodetypes="ccccc"
       inkscape:connector-curvature="0"
       id="path4-7-5-3-3-9-0-0-1-2-7-2-3-9"
       d="m 49.698671,60.881501 5.18562,-3.247981 -1.4056,-0.322937 -0.24252,-1.421681 z"
       style="color:#bac8df;fill:currentColor;fill-opacity:1;stroke:none;stroke-width:0.399998;stop-color:#bac8df"
       class="ColorScheme-Text" />
  </g>
  <g
     id="ENE">
    <rect
       y="44"
       x="66"
       height="22"
       width="22"
       id="rect1727-93-06"
       style="fill:none;fill-opacity:1;stroke:none;stroke-width:0.1;stroke-linecap:square;stroke-linejoin:miter;stroke-miterlimit:4;stroke-dasharray:none;stroke-dashoffset:0;stroke-opacity:1" />
    <path
       style="color:#bac8df;fill:currentColor;fill-opacity:0.7;stroke-width:0.0318517;stop-color:#bac8df"
       d="m 74.086956,59.141268 c 0.247898,1.059168 1.343128,1.739719 2.43393,1.484466 l 0.629406,-0.147495 -0.227882,-0.973683 -0.62942,0.147478 c -0.396553,0.09308 -1.008024,0.133203 -1.239389,-0.736963 -0.205683,-0.773581 0.375495,-1.114903 0.772096,-1.207729 l 8.763243,-2.050754 -0.227883,-0.973682 -8.751688,2.048057 c -1.09079,0.255252 -1.770336,1.351159 -1.522479,2.410319 z"
       id="path442-6-5-1-9-6-8-0-5-8-6-3"
       sodipodi:nodetypes="ssccsssccss"
       class="ColorScheme-Text" />
    <path
       style="color:#bac8df;fill:currentColor;fill-opacity:0.7;stroke-width:0.0318517;stop-color:#bac8df"
       d="m 72.273357,53.403587 11.176339,-2.615441 -0.227888,-0.973693 -11.176339,2.615441 c -0.396531,0.09307 -1.034201,0.06458 -1.239249,-0.737009 -0.16675,-0.651996 0.386942,-1.117561 0.783527,-1.210374 L 72.05549,50.373689 71.827606,49.4 71.361864,49.508825 c -1.090758,0.255242 -1.770313,1.351147 -1.522464,2.410304 0.247888,1.059157 1.344329,1.74491 2.433884,1.484463 z"
       id="path444-7-6-2-3-2-7-2-9-9-1-1"
       sodipodi:nodetypes="sccsssccsss"
       class="ColorScheme-Text" />
    <rect
       y="-71.466972"
       style="color:#bac8df;fill:currentColor;stroke-width:0.0318517;stop-color:#bac8df"
       width="6"
       height="1.9999999"
       id="rect448-5-2-7-6-6-9-3-2-7-2-9"
       x="-69.681885"
       class="ColorScheme-Text"
       transform="rotate(166.82889)" />
    <path
       inkscape:transform-center-x="0.058800389"
       inkscape:transform-center-y="-0.54007005"
       sodipodi:nodetypes="ccccc"
       inkscape:connector-curvature="0"
       id="path4-7-5-3-3-9-0-0-1-2-7-2-3-9-4"
       d="m 69.3,56.153422 6.115599,-0.198717 -1.052387,-0.986145 0.505521,-1.350718 z"
       style="color:#bac8df;fill:currentColor;fill-opacity:1;stroke:none;stroke-width:0.399998;stop-color:#bac8df"
       class="ColorScheme-Text" />
  </g>
  <g
     id="ESE">
    <rect
       y="66"
       x="22"
       height="22"
       width="22"
       id="rect1727-94-4"
       style="fill:none;fill-opacity:1;stroke:none;stroke-width:0.1;stroke-linecap:square;stroke-linejoin:miter;stroke-miterlimit:4;stroke-dasharray:none;stroke-dashoffset:0;stroke-opacity:1" />
    <path
       style="color:#bac8df;fill:currentColor;fill-opacity:0.7;stroke-width:0.0318517;stop-color:#bac8df"
       d="m 27.966235,80.258773 c -0.332665,1.035669 0.256074,2.182898 1.322664,2.525497 l 0.6155,0.197675 0.305821,-0.952082 -0.615503,-0.197676 c -0.387929,-0.124251 -0.932812,-0.404619 -0.683266,-1.269796 0.221837,-0.769106 0.895797,-0.762583 1.28362,-0.638009 l 8.568797,2.752401 0.305821,-0.952082 -8.5575,-2.748779 c -1.066579,-0.342617 -2.213282,0.247194 -2.545951,1.282852 z"
       id="path442-6-5-1-9-7-3"
       sodipodi:nodetypes="ssccsssccss"
       class="ColorScheme-Text" />
    <path
       style="color:#bac8df;fill:currentColor;fill-opacity:0.7;stroke-width:0.0318517;stop-color:#bac8df"
       d="m 29.364632,74.406021 10.928343,3.510319 0.305822,-0.952082 -10.928344,-3.510319 c -0.3879,-0.124241 -0.919925,-0.476955 -0.683127,-1.269749 0.192595,-0.644842 0.906983,-0.758999 1.294772,-0.634436 l 0.455428,0.1461 0.305821,-0.952082 -0.45543,-0.146101 c -1.066547,-0.342606 -2.213256,0.247203 -2.545929,1.282849 -0.332665,1.035669 0.254429,2.187958 1.322629,2.525496 z"
       id="path444-7-6-2-3-8-6"
       sodipodi:nodetypes="sccsssccsss"
       class="ColorScheme-Text" />
    <rect
       y="-64.860764"
       style="color:#bac8df;fill:currentColor;stroke-width:0.0318517;stop-color:#bac8df"
       width="6"
       height="1.9999999"
       id="rect448-5-2-7-6-4-1"
       x="-62.19104"
       class="ColorScheme-Text"
       transform="rotate(-162.19235)" />
    <path
       inkscape:transform-center-x="-0.19061882"
       inkscape:transform-center-y="0.047338203"
       sodipodi:nodetypes="ccccc"
       inkscape:connector-curvature="0"
       id="path4-7-5-3-3-9-0-0-5-0"
       d="m 25.4,75.233182 5.345548,2.977439 -0.394685,-1.387166 1.128657,-0.897849 z"
       style="color:#bac8df;fill:currentColor;fill-opacity:1;stroke:none;stroke-width:0.399998;stop-color:#bac8df"
       class="ColorScheme-Text" />
  </g>
  <g
     id="SE">
    <rect
       y="66"
       x="44"
       height="22"
       width="22"
       id="rect1727-94-0"
       style="fill:none;fill-opacity:1;stroke:none;stroke-width:0.1;stroke-linecap:square;stroke-linejoin:miter;stroke-miterlimit:4;stroke-dasharray:none;stroke-dashoffset:0;stroke-opacity:1" />
    <path
       style="color:#bac8df;fill:currentColor;fill-opacity:0.7;stroke-width:0.0318517;stop-color:#bac8df"
       d="m 48.858088,78.281151 c -0.672108,0.855306 -0.519139,2.135677 0.361703,2.827852 l 0.50832,0.399408 0.617867,-0.786274 -0.508322,-0.39941 c -0.320494,-0.251417 -0.733845,-0.703795 -0.198966,-1.428163 0.475487,-0.643931 1.105101,-0.403408 1.425383,-0.151726 l 7.076518,5.560836 0.617868,-0.786275 -7.067187,-5.553509 c -0.880825,-0.692188 -2.161076,-0.538031 -2.833182,0.317263 z"
       id="path442-6-5-1-9-7-3-3"
       sodipodi:nodetypes="ssccsssccss"
       class="ColorScheme-Text" />
    <path
       style="color:#bac8df;fill:currentColor;fill-opacity:0.7;stroke-width:0.0318517;stop-color:#bac8df"
       d="m 52.204797,73.280176 9.025142,7.092097 0.617868,-0.786274 -9.025143,-7.092097 c -0.32047,-0.251398 -0.696603,-0.767132 -0.198851,-1.42807 0.40485,-0.537596 1.11434,-0.396158 1.434595,-0.144497 l 0.37618,0.295379 0.617867,-0.786274 -0.376181,-0.295381 c -0.880799,-0.692166 -2.161054,-0.538013 -2.83316,0.317269 -0.672108,0.855306 -0.52244,2.139848 0.361671,2.827839 z"
       id="path444-7-6-2-3-8-6-2"
       sodipodi:nodetypes="sccsssccsss"
       class="ColorScheme-Text" />
    <rect
       y="-28.362915"
       style="color:#bac8df;fill:currentColor;stroke-width:0.0318517;stop-color:#bac8df"
       width="6"
       height="1.9999999"
       id="rect448-5-2-7-6-4-1-0"
       x="-97.80352"
       class="ColorScheme-Text"
       transform="rotate(-141.8392)" />
    <path
       inkscape:transform-center-x="-0.19061882"
       inkscape:transform-center-y="0.047338203"
       sodipodi:nodetypes="ccccc"
       inkscape:connector-curvature="0"
       id="path4-7-5-3-3-9-0-0-5-0-6"
       d="m 48.199999,72.676774 3.976239,4.650758 0.11242,-1.437834 1.370468,-0.449239 z"
       style="color:#bac8df;fill:currentColor;fill-opacity:1;stroke:none;stroke-width:0.399998;stop-color:#bac8df"
       class="ColorScheme-Text" />
  </g>
  <g
     id="SSE">
    <rect
       y="66"
       x="66"
       height="22"
       width="22"
       id="rect1727-94-6"
       style="fill:none;fill-opacity:1;stroke:none;stroke-width:0.1;stroke-linecap:square;stroke-linejoin:miter;stroke-miterlimit:4;stroke-dasharray:none;stroke-dashoffset:0;stroke-opacity:1" />
    <path
       style="color:#bac8df;fill:currentColor;fill-opacity:0.7;stroke-width:0.0318517;stop-color:#bac8df"
       d="m 72.13294,75.364894 c -0.982881,0.466072 -1.416637,1.680405 -0.936651,2.692631 l 0.277009,0.584108 0.903557,-0.428453 -0.27701,-0.58411 c -0.174835,-0.367914 -0.34322,-0.957108 0.458455,-1.367134 0.712657,-0.364494 1.169063,0.131448 1.34359,0.499504 l 3.856108,8.132062 0.903557,-0.428453 -3.85102,-8.121345 c -0.479965,-1.01223 -1.69472,-1.444869 -2.677594,-0.978807 z"
       id="path442-6-5-1-9-7-3-3-5"
       sodipodi:nodetypes="ssccsssccss"
       class="ColorScheme-Text" />
    <path
       style="color:#bac8df;fill:currentColor;fill-opacity:0.7;stroke-width:0.0318517;stop-color:#bac8df"
       d="m 77.357864,72.379868 4.917943,10.371348 0.903557,-0.428452 -4.917943,-10.371349 c -0.174822,-0.367886 -0.281652,-0.997206 0.458516,-1.366999 0.602029,-0.300791 1.174102,0.142056 1.348614,0.51008 l 0.205089,0.432087 0.903557,-0.428453 -0.205089,-0.432088 c -0.479952,-1.012199 -1.694709,-1.444844 -2.677577,-0.978793 -0.982881,0.466072 -1.421452,1.682668 -0.936673,2.692605 z"
       id="path444-7-6-2-3-8-6-2-5"
       sodipodi:nodetypes="sccsssccsss"
       class="ColorScheme-Text" />
    <rect
       y="35.88604"
       style="color:#bac8df;fill:currentColor;stroke-width:0.0318517;stop-color:#bac8df"
       width="6"
       height="1.9999999"
       id="rect448-5-2-7-6-4-1-0-4"
       x="-110.02248"
       class="ColorScheme-Text"
       transform="rotate(-115.36964)" />
    <path
       inkscape:transform-center-x="-0.19061882"
       inkscape:transform-center-y="0.047338203"
       sodipodi:nodetypes="ccccc"
       inkscape:connector-curvature="0"
       id="path4-7-5-3-3-9-0-0-5-0-6-7"
       d="m 74.041834,70.054691 1.486467,5.935524 0.741511,-1.237 1.427039,0.208702 z"
       style="color:#bac8df;fill:currentColor;fill-opacity:1;stroke:none;stroke-width:0.399998;stop-color:#bac8df"
       class="ColorScheme-Text" />
  </g>
</svg>
