<?xml version="1.0" encoding="UTF-8" standalone="no"?>
<svg
   sodipodi:docname="shutdown_primary.svg"
   inkscape:version="1.2.2 (b0a8486541, 2022-12-01)"
   id="svg1073"
   version="1.1"
   viewBox="0 0 8.4666662 8.4666662"
   height="8.4666662mm"
   width="8.4666662mm"
   xmlns:inkscape="http://www.inkscape.org/namespaces/inkscape"
   xmlns:sodipodi="http://sodipodi.sourceforge.net/DTD/sodipodi-0.dtd"
   xmlns="http://www.w3.org/2000/svg"
   xmlns:svg="http://www.w3.org/2000/svg"
   xmlns:rdf="http://www.w3.org/1999/02/22-rdf-syntax-ns#"
   xmlns:cc="http://creativecommons.org/ns#"
   xmlns:dc="http://purl.org/dc/elements/1.1/">
  <defs
     id="defs1067" />
  <sodipodi:namedview
     inkscape:document-rotation="0"
     inkscape:window-maximized="1"
     inkscape:window-y="0"
     inkscape:window-x="0"
     inkscape:window-height="1002"
     inkscape:window-width="1920"
     showgrid="true"
     inkscape:current-layer="layer1"
     inkscape:document-units="mm"
     inkscape:cy="13.020493"
     inkscape:cx="4.7044847"
     inkscape:zoom="10.521875"
     inkscape:pageshadow="2"
     inkscape:pageopacity="0"
     borderopacity="1"
     bordercolor="#ff0a0a"
     pagecolor="#000000"
     id="base"
     inkscape:pagecheckerboard="true"
     inkscape:showpageshadow="false"
     inkscape:deskcolor="#000000">
    <inkscape:grid
       type="xygrid"
       id="grid873" />
  </sodipodi:namedview>
  <metadata
     id="metadata1070">
    <rdf:RDF>
      <cc:Work
         rdf:about="">
        <dc:format>image/svg+xml</dc:format>
        <dc:type
           rdf:resource="http://purl.org/dc/dcmitype/StillImage" />
      </cc:Work>
    </rdf:RDF>
  </metadata>
  <g
     transform="translate(9.28265,-135.4233)"
     id="layer1"
     inkscape:groupmode="layer"
     inkscape:label="Layer 1">
    <g
       id="system-shutdown"
       transform="matrix(0.26458333,0,0,0.26458333,-34.153483,135.4233)">
      <g
         id="g1662">
        <path
           style="color:#000000;overflow:visible;opacity:0;fill:none;fill-opacity:1;stroke-width:1.06667"
           id="path945"
           overflow="visible"
           d="m 110,0 c -8.82859,0 -16,7.1714133 -16,16 0,8.828587 7.17141,16 16,16 8.82859,0 16,-7.171413 16,-16 0,-8.8285867 -7.17141,-16 -16,-16 z"
           inkscape:connector-curvature="0" />
      </g>
    </g>
    <path
       d="m -5.0717509,141.71498 z m 0.0682,1.16662 c 1.008201,0 1.906413,-0.45791 2.479238,-1.16663 h -4.95834 c 0.572822,0.70872 1.471065,1.16663 2.479239,1.16663 z"
       id="path3842"
       sodipodi:nodetypes="ccccccccccc"
       style="fill:#bac8df;fill-opacity:1;stroke-width:0.0133261" />
    <path
       d="m -5.3826519,138.71422 v -2.1069 c 2.4e-4,-0.53983 0.729538,-0.53983 0.729169,0 v 2.1069 c -2.48e-4,0.53984 -0.729535,0.53984 -0.729169,0 z m 0.583302,-2.1069 z"
       id="path8-6-6-3"
       style="color:#d6dbf1;fill:#bac8df;fill-opacity:1;stroke-width:0.0768658"
       sodipodi:nodetypes="cccccccccc"
       class="ColorScheme-Text" />
    <path
       style="color:#d6dbf1;fill:none;fill-opacity:1;stroke:#bac8df;stroke-width:0.467838;stroke-linecap:round;stroke-miterlimit:4;stroke-dasharray:none;stroke-opacity:1;stop-color:#31363b"
       sodipodi:type="arc"
       sodipodi:cx="5.03265"
       sodipodi:cy="-139.67329"
       sodipodi:rx="3.2671294"
       sodipodi:ry="3.2671294"
       sodipodi:start="3.7596615"
       sodipodi:end="3.7588303"
       sodipodi:open="true"
       sodipodi:arc-type="arc"
       transform="scale(-1)"
       d="m 2.3699428,-141.56647 a 3.2671294,3.2671294 0 0 1 4.5553323,-0.76992 3.2671294,3.2671294 0 0 1 0.7708687,4.55517 3.2671294,3.2671294 0 0 1 -4.555012,0.77181 3.2671294,3.2671294 0 0 1 -0.7727617,-4.55485"
       id="path7-6"
       class="ColorScheme-Text" />
  </g>
</svg>
