<?xml version="1.0" encoding="UTF-8" standalone="no"?>
<svg
   viewBox="0 0 16 16"
   version="1.1"
   id="svg5"
   sodipodi:docname="user-pictures.svg"
   inkscape:version="1.2.1 (9c6d41e410, 2022-07-14)"
   xmlns:inkscape="http://www.inkscape.org/namespaces/inkscape"
   xmlns:sodipodi="http://sodipodi.sourceforge.net/DTD/sodipodi-0.dtd"
   xmlns="http://www.w3.org/2000/svg"
   xmlns:svg="http://www.w3.org/2000/svg">
  <sodipodi:namedview
     id="namedview7"
     pagecolor="#ffffff"
     bordercolor="#666666"
     borderopacity="1.0"
     inkscape:pageshadow="2"
     inkscape:pageopacity="0.0"
     inkscape:pagecheckerboard="0"
     showgrid="true"
     inkscape:zoom="38.875"
     inkscape:cx="8"
     inkscape:cy="8.0128617"
     inkscape:window-width="1920"
     inkscape:window-height="1000"
     inkscape:window-x="0"
     inkscape:window-y="0"
     inkscape:window-maximized="1"
     inkscape:current-layer="svg5"
     inkscape:showpageshadow="2"
     inkscape:deskcolor="#d1d1d1">
    <inkscape:grid
       type="xygrid"
       id="grid843" />
  </sodipodi:namedview>
  <defs
     id="defs3051">
    <style
       type="text/css"
       id="current-color-scheme">
      .ColorScheme-Text {
        color:#eff0f1;
      }
      </style>
  </defs>
  <path
     style="fill:currentColor;fill-opacity:1;stroke:none"
     d="m 2,3 v 10 c 0,1 1,1 0.978087,1 H 13.014243 C 14,14 14,13 14,13 V 3 C 14,2 12.973203,2 12.973203,2 H 3.0176503 C 3.0176503,2 2,2 2,3 Z m 1,0 h 10 v 9 1 H 3 v -1 z m 0,9 H 5 L 7,10 6,9 Z M 13,12 10,9 7,12 Z M 5.5,4 C 4.669,4 4,4.669 4,5.5 4,6.331 4.669,7 5.5,7 6.331,7 7,6.331 7,5.5 7,4.669 6.331,4 5.5,4 Z"
     id="rect4122"
     class="ColorScheme-Text"
     sodipodi:nodetypes="cccccccccccccccccccccccccsssss" />
</svg>
