<?xml version="1.0" encoding="UTF-8" standalone="no"?>
<svg
   viewBox="0 0 16 16"
   version="1.1"
   id="svg6"
   sodipodi:docname="folder-videos.svg"
   inkscape:version="1.2.1 (9c6d41e410, 2022-07-14)"
   xmlns:inkscape="http://www.inkscape.org/namespaces/inkscape"
   xmlns:sodipodi="http://sodipodi.sourceforge.net/DTD/sodipodi-0.dtd"
   xmlns="http://www.w3.org/2000/svg"
   xmlns:svg="http://www.w3.org/2000/svg">
  <sodipodi:namedview
     id="namedview8"
     pagecolor="#ffffff"
     bordercolor="#666666"
     borderopacity="1.0"
     inkscape:showpageshadow="2"
     inkscape:pageopacity="0.0"
     inkscape:pagecheckerboard="0"
     inkscape:deskcolor="#d1d1d1"
     showgrid="true"
     inkscape:zoom="29.5"
     inkscape:cx="5.9661017"
     inkscape:cy="12.661017"
     inkscape:window-width="1920"
     inkscape:window-height="1000"
     inkscape:window-x="0"
     inkscape:window-y="0"
     inkscape:window-maximized="1"
     inkscape:current-layer="svg6">
    <inkscape:grid
       type="xygrid"
       id="grid183" />
  </sodipodi:namedview>
  <defs
     id="defs3051">
    <style
       type="text/css"
       id="current-color-scheme">
      .ColorScheme-Text {
        color:#eff0f1;
      }
      </style>
  </defs>
  <path
     style="fill:currentColor;fill-opacity:1;stroke:none"
     d="m 2,3 v 10 c 0,1 0.9715121,1 0.9715121,1 H 12.964149 C 12.964149,14 14,14 14,13 V 3 C 14,2 12.997846,2 12.997846,2 H 2.9868392 C 2.9868392,2 2,2 2,3 Z m 3,0 h 6 V 7 H 5 Z M 3,4 H 4 V 5 H 3 Z m 9,0 h 1 V 5 H 12 Z M 3,7.5 h 1 v 1 H 3 Z m 9,0 h 1 v 1 H 12 Z M 5,9 h 6 v 4 H 5 Z m -2,2 h 1 v 1 H 3 Z m 9,0 h 1 v 1 h -1 z"
     class="ColorScheme-Text"
     id="path4"
     sodipodi:nodetypes="ccccccccccccccccccccccccccccccccccccccccccccccccc" />
</svg>
