<?xml version="1.0" encoding="UTF-8" standalone="no"?>
<svg
   viewBox="0 0 16 16"
   id="svg6"
   version="1.1"
   sodipodi:docname="folder-wings.svg"
   inkscape:version="1.2.1 (9c6d41e410, 2022-07-14)"
   xmlns:inkscape="http://www.inkscape.org/namespaces/inkscape"
   xmlns:sodipodi="http://sodipodi.sourceforge.net/DTD/sodipodi-0.dtd"
   xmlns="http://www.w3.org/2000/svg"
   xmlns:svg="http://www.w3.org/2000/svg">
  <sodipodi:namedview
     id="namedview7"
     pagecolor="#ffffff"
     bordercolor="#666666"
     borderopacity="1.0"
     inkscape:showpageshadow="2"
     inkscape:pageopacity="0.0"
     inkscape:pagecheckerboard="0"
     inkscape:deskcolor="#d1d1d1"
     showgrid="true"
     inkscape:zoom="14.75"
     inkscape:cx="5.5932203"
     inkscape:cy="-2.8135593"
     inkscape:window-width="1920"
     inkscape:window-height="1004"
     inkscape:window-x="0"
     inkscape:window-y="0"
     inkscape:window-maximized="1"
     inkscape:current-layer="svg6">
    <inkscape:grid
       type="xygrid"
       id="grid629" />
  </sodipodi:namedview>
  <defs
     id="defs3051">
<style type="text/css" id="current-color-scheme">.ColorScheme-Text { color:#eff0f1; }
</style>
  </defs>
  <path
     d="m 5.171249,2.0000108 c -0.630178,0.830913 -1.043962,1.748208 -1.296907,2.731318 -0.07749,0.301651 -0.114047,0.604673 -0.07749,0.917294 0.03656,0.313992 0.19446,0.566282 0.405006,0.800748 0.349451,0.389405 0.751536,0.732191 1.133147,1.090059 0.982551,0.924151 1.935857,1.872982 2.884779,2.8272982 0.514668,0.515549 1.065893,0.999564 1.606875,1.493175 0.08481,0.07678 0.0775,0.111063 0,0.187847 -0.644797,0.629355 -1.28667,1.264194 -1.925618,1.900405 -0.06726,0.06582 -0.10381,0.06993 -0.172531,0.0069 -0.643338,-0.586849 -1.288137,-1.170956 -1.935858,-1.752321 -0.05263,-0.04662 -0.04826,-0.06993 0,-0.111063 0.37869,-0.329075 0.755918,-0.658149 1.131687,-0.989966 0.04826,-0.04387 0.08188,-0.0425 0.128667,0 0.168148,0.146713 0.33629,0.293425 0.510282,0.434653 0.05995,0.04799 0.04678,0.07541 0,0.122032 l -0.366991,0.379807 c -0.04968,0.04936 -0.05263,0.07815 0.0058,0.124774 0.173991,0.141228 0.343597,0.286568 0.510279,0.433281 0.04968,0.04387 0.08188,0.05347 0.13452,-0.0028 0.203231,-0.216641 0.409395,-0.429168 0.619943,-0.638953 0.05702,-0.05622 0.04677,-0.08638 -0.004,-0.139857 C 8.179181,11.522589 7.888222,11.238762 7.594334,10.957677 7.01387,10.405107 6.434865,9.8484218 5.820772,9.3287588 5.16428,8.7720748 4.480001,8.2482978 3.797191,7.7217788 3.494528,7.4900558 3.197718,7.2555908 2.918451,6.9978148 2.810253,6.8977218 2.713753,6.7880298 2.627485,6.6701118 2.519293,6.5233998 2.475428,6.3670888 2.513443,6.1860978 2.817562,4.7779348 3.54278,3.5781838 4.576506,2.5333728 c 0.09942,-0.101465 0.204697,-0.198816 0.311429,-0.294796 0.0965,-0.08364 0.190077,-0.160424 0.283655,-0.238579 z m 5.671589,0.03017 c 0.128673,0.06719 0.200314,0.148084 0.280729,0.220754 0.97378,0.889872 1.706307,1.925086 2.137633,3.139918 0.09796,0.272858 0.172531,0.5512 0.229554,0.835027 0.02341,0.119289 0.0016,0.224867 -0.05556,0.329074 -0.165221,0.304394 -0.431325,0.529261 -0.701822,0.744531 -0.666728,0.533375 -1.346615,1.050296 -2.00896,1.585042 -0.545373,0.440137 -1.068813,0.903583 -1.57325,1.3848552 -0.02192,0.02056 -0.04682,0.03839 -0.06433,0.0617 -0.0775,0.09872 -0.137443,0.0905 -0.220783,-0.0069 C 8.728613,10.1665 8.575089,10.02253 8.424487,9.8771888 c -0.04968,-0.04799 -0.05119,-0.07678 -0.0015,-0.128888 0.799784,-0.806232 1.595179,-1.616578 2.437364,-2.385789 0.331904,-0.303023 0.656498,-0.612901 0.963545,-0.939233 0.366996,-0.389405 0.456181,-0.847367 0.369918,-1.332752 -0.190078,-1.0928 -0.634561,-2.093735 -1.315916,-3.000061 -0.0073,-0.0082 -0.0117,-0.01919 -0.03509,-0.06033 z m -1.276432,5.813648 c -0.0058,-0.418199 -0.0453,-0.807604 -0.45911,-1.053038 1.248655,-0.571767 1.867133,-1.590527 2.280919,-2.784792 0.29681,0.848738 0.375768,1.642629 -0.293886,2.36248 -0.47081,0.50458 -0.979626,0.974882 -1.479679,1.453412 -0.0087,0.0069 -0.02192,0.0082 -0.04826,0.02194 z M 6.896558,6.7894188 C 6.481315,7.0430808 6.443298,7.4338568 6.42868,7.8602828 6.35411,7.7876128 6.300008,7.7327658 6.242984,7.6806628 5.833589,7.2898868 5.42566,6.8963688 5.023576,6.4959948 4.405094,5.8830938 4.267652,5.1796968 4.495744,4.3885478 c 0.03366,-0.112434 0.06726,-0.226239 0.10235,-0.338672 0.0015,-0.0055 0.01317,-0.0096 0.02634,-0.02057 0.409395,1.165471 1.017639,2.186973 2.272148,2.760111 z m 2.586507,-0.734937 c 0.09796,-0.292054 0.0453,-0.553942 -0.140367,-0.799377 -0.03803,-0.0521 -0.134514,-0.09187 -0.111124,-0.149455 0.01901,-0.04662 0.112587,-0.06581 0.172531,-0.09872 0.752995,-0.4086 1.272052,-0.988594 1.503072,-1.782486 0.0205,-0.06993 0.03072,-0.139857 0.04677,-0.219383 0.07896,0.138486 0.106737,0.440137 0.07457,0.651293 -0.08481,0.562169 -0.358229,1.04344 -0.701822,1.498659 -0.242716,0.326333 -0.520521,0.626613 -0.843649,0.899471 z m -2.949115,0.0055 C 6.317555,5.8968148 6.139174,5.7062268 5.965182,5.5087818 5.61135,5.1097788 5.310147,4.6806118 5.115686,4.1924848 4.975323,3.8346158 4.929998,3.4671498 5.0031,3.0914568 c 0.004,-0.02056 0.0088,-0.03976 0.01612,-0.05896 0.004,-0.01097 0.01022,-0.02194 0.02339,-0.04799 0.03946,0.170022 0.0731,0.329075 0.13305,0.479901 0.280728,0.712994 0.802708,1.22306 1.500142,1.586412 0.08627,0.04387 0.115508,0.07404 0.03656,0.152197 -0.231014,0.235837 -0.280728,0.512808 -0.194463,0.814459 z"
     id="path2986"
     style="stroke-width:0.0141591;fill-opacity:1;fill:currentColor;"
     class="ColorScheme-Text" />
</svg>
