<?xml version="1.0" encoding="UTF-8" standalone="no"?>
<svg
   viewBox="0 0 16 16"
   version="1.1"
   id="svg6"
   sodipodi:docname="desktop.svg"
   inkscape:version="1.2.1 (9c6d41e410, 2022-07-14)"
   xmlns:inkscape="http://www.inkscape.org/namespaces/inkscape"
   xmlns:sodipodi="http://sodipodi.sourceforge.net/DTD/sodipodi-0.dtd"
   xmlns="http://www.w3.org/2000/svg"
   xmlns:svg="http://www.w3.org/2000/svg">
  <sodipodi:namedview
     id="namedview8"
     pagecolor="#ffffff"
     bordercolor="#666666"
     borderopacity="1.0"
     inkscape:showpageshadow="2"
     inkscape:pageopacity="0.0"
     inkscape:pagecheckerboard="0"
     inkscape:deskcolor="#d1d1d1"
     showgrid="true"
     inkscape:zoom="41.7193"
     inkscape:cx="5.764718"
     inkscape:cy="7.4186288"
     inkscape:window-width="1920"
     inkscape:window-height="1004"
     inkscape:window-x="0"
     inkscape:window-y="0"
     inkscape:window-maximized="1"
     inkscape:current-layer="svg6">
    <inkscape:grid
       type="xygrid"
       id="grid183" />
  </sodipodi:namedview>
  <defs
     id="defs3051">
    <style
       type="text/css"
       id="current-color-scheme">.ColorScheme-Text { color:#eff0f1; }
</style>
  </defs>
  <path
     d="M 1,13.099998 V 2.9 C 1,2.324782 1.29549,2 1.9665,2 h 12.017 C 14.65451,2 15,2.324782 15,2.9 v 10.199998 c 0,0.575215 -0.34549,0.899998 -1.0165,0.899998 H 2.018 C 1.345362,14.001396 1,13.675213 1,13.099998 Z M 14,3 V 3 H 2 v 0 10 0 h 12 v 0 z"
     id="path2"
     style="enable-background:new;stroke-width:0.150795;fill-opacity:1;fill:currentColor;"
     sodipodi:nodetypes="ssssssscsccccccccc"
     class="ColorScheme-Text " />
  <path
     d="m 2,12 h 12 v 0 -1 H 2 v 0 z"
     id="path2653-4"
     style="stroke-width:0.247436;fill-opacity:1;fill:currentColor;"
     sodipodi:nodetypes="ccccccc"
     class="ColorScheme-Text" />
  <path
     d="M 4.5,5 C 4.5,5.552556 4.052551,6.000005 3.500002,6.000005 2.947918,6.000005 2.500004,5.552556 2.500004,5 2.500004,4.447916 2.947918,4.000005 3.500002,4.000005 4.052551,4.000005 4.5,4.447916 4.5,5 Z"
     id="path72-3"
     style="fill:currentColor;fill-opacity:1;stroke-width:0.0119049"
     class="ColorScheme-Text " />
  <path
     d="M 4.5,9 C 4.5,9.5525555 4.05255,10.000004 3.500002,10.000004 2.947917,10.000004 2.500003,9.5525555 2.500003,9 2.500003,8.447915 2.947917,8.0000035 3.500002,8.0000035 4.05255,8.0000035 4.5,8.447915 4.5,9 Z"
     id="path72-3-6"
     style="fill:currentColor;fill-opacity:1;stroke-width:0.0119049"
     class="ColorScheme-Text " />
</svg>
