<?xml version="1.0" encoding="UTF-8" standalone="no"?>
<svg
   version="1.0"
   width="22.000002"
   height="22.000002"
   id="svg2"
   inkscape:version="1.3.2 (091e20ef0f, 2023-11-25)"
   sodipodi:docname="shade.svg"
   viewBox="0 0 20.625004 20.625002"
   xmlns:inkscape="http://www.inkscape.org/namespaces/inkscape"
   xmlns:sodipodi="http://sodipodi.sourceforge.net/DTD/sodipodi-0.dtd"
   xmlns:xlink="http://www.w3.org/1999/xlink"
   xmlns="http://www.w3.org/2000/svg"
   xmlns:svg="http://www.w3.org/2000/svg"
   xmlns:rdf="http://www.w3.org/1999/02/22-rdf-syntax-ns#"
   xmlns:cc="http://creativecommons.org/ns#"
   xmlns:dc="http://purl.org/dc/elements/1.1/">
  <g
     id="pressed-inactive-center"
     transform="translate(130.28094)">
    <rect
       style="opacity:0.00100002;fill:#3daee9;fill-opacity:1;stroke:none;stroke-width:1.03125"
       id="rect3854"
       width="20.625002"
       height="20.625002"
       x="3.2364554e-07"
       y="5.3065374e-08" />
    <path
       d="m 15.006539,2.6653794 c 1.63412,0 2.95313,1.318993 2.95313,2.953124 V 15.00479 c 0,1.634117 -1.31901,2.953124 -2.95313,2.953124 H 5.61853 c -1.63411,0 -2.95312,-1.319007 -2.95312,-2.953124 V 5.6185034 c 0,-1.634131 1.31901,-2.953124 2.95312,-2.953124 h 9.388009 m 0,-0.790376 H 5.61853 c -2.05599,0 -3.74349,1.687498 -3.74349,3.7435 V 15.00479 c 0,2.057702 1.6875,3.745214 3.74349,3.745214 h 9.386289 c 2.05772,0 3.74522,-1.687512 3.74522,-3.743501 V 5.6185034 c 0,-2.056002 -1.6875,-3.7435 -3.7435,-3.7435 z"
       id="path4-3-7-3-6-4"
       style="clip-rule:evenodd;fill:#3a405f;fill-opacity:1;fill-rule:evenodd;stroke-width:0.0172196;stroke-linejoin:round;stroke-miterlimit:1.41421" />
    <path
       d="M 10.04603,6.7011134 4.79574,13.261199 a 0.37502108,0.46858772 0 0 0 -0.0789,0.510958 0.37502108,0.46858772 0 0 0 0.34502,0.290345 h 3.3752097 a 0.37502108,0.46858772 0 0 0 0.37502,-0.468557 1.5000869,1.8743553 0 0 1 3.0001703,0 0.37502108,0.46858772 0 0 0 0.375009,0.468557 h 3.37528 a 0.37502108,0.46858772 0 0 0 0.34502,-0.290345 0.31501772,0.39361362 0 0 0 0.0298,-0.178212 0.37502108,0.46858772 0 0 0 -0.10869,-0.332746 L 10.57838,6.7011134 a 0.37502108,0.46858772 0 0 0 -0.53254,0 z"
       id="path4-3-5"
       style="color:#eceff4;fill:#66a2ff;fill-opacity:1;stroke-width:0.419203"
       class="ColorScheme-Text" />
  </g>
  <g
     id="active-center">
    <rect
       y="-5.2559987e-08"
       x="-2.9565456e-13"
       height="20.625002"
       width="20.625002"
       id="rect3846-3"
       style="opacity:0.00100002;fill:#3daee9;fill-opacity:1;stroke:none;stroke-width:1.03125" />
    <path
       d="m 15.006505,2.6653758 c 1.634117,0 2.953125,1.318993 2.953125,2.9531238 v 9.3862874 c 0,1.634117 -1.319008,2.953124 -2.953125,2.953124 H 5.6184938 c -1.6341186,0 -2.9531248,-1.319007 -2.9531248,-2.953124 V 5.6184996 c 0,-1.6341308 1.3190062,-2.9531238 2.9531248,-2.9531238 h 9.3880112 m 0,-0.7903757 H 5.6184938 c -2.0559947,0 -3.7434937,1.6874977 -3.7434937,3.7434995 v 9.3862874 c 0,2.057702 1.687499,3.745214 3.7434937,3.745214 h 9.3862902 c 2.057715,0 3.745213,-1.687512 3.745213,-3.743501 V 5.6184996 c 0,-2.0560018 -1.687498,-3.7434995 -3.743492,-3.7434995 z"
       id="path4-3-7-3-6"
       style="clip-rule:evenodd;fill:#3a405f;fill-opacity:1;fill-rule:evenodd;stroke-width:0.0172196;stroke-linejoin:round;stroke-miterlimit:1.41421" />
    <path
       d="M 10.045992,6.7011103 4.7957036,13.261196 a 0.37502108,0.46858772 0 0 0 -0.07887,0.510958 0.37502108,0.46858772 0 0 0 0.3450199,0.290345 h 3.3752083 a 0.37502108,0.46858772 0 0 0 0.3750208,-0.468557 1.5000869,1.8743553 0 0 1 3.0001694,0 0.37502108,0.46858772 0 0 0 0.375012,0.468557 h 3.375278 a 0.37502108,0.46858772 0 0 0 0.34502,-0.290345 0.31501772,0.39361362 0 0 0 0.02982,-0.178212 0.37502108,0.46858772 0 0 0 -0.108691,-0.332746 L 10.578385,6.7011103 a 0.37502108,0.46858772 0 0 0 -0.532534,0 z"
       id="path4-3"
       style="color:#eceff4;fill:#bac8df;fill-opacity:1;stroke-width:0.419203"
       class="ColorScheme-Text" />
  </g>
  <sodipodi:namedview
     pagecolor="#ffffff"
     bordercolor="#000000"
     borderopacity="1"
     objecttolerance="10"
     gridtolerance="10"
     guidetolerance="10"
     inkscape:pageopacity="1"
     inkscape:pageshadow="2"
     inkscape:window-width="1920"
     inkscape:window-height="994"
     id="namedview32"
     showgrid="false"
     inkscape:zoom="4.0203304"
     inkscape:cx="85.067635"
     inkscape:cy="35.693584"
     inkscape:window-x="0"
     inkscape:window-y="0"
     inkscape:window-maximized="1"
     inkscape:current-layer="svg2"
     inkscape:document-rotation="0"
     inkscape:lockguides="true"
     inkscape:pagecheckerboard="0"
     guidecolor="#0000fe"
     guideopacity="0.83137255"
     guidehicolor="#ff0000"
     guidehiopacity="0.6"
     inkscape:showpageshadow="2"
     inkscape:deskcolor="#d1d1d1">
    <inkscape:grid
       type="xygrid"
       id="grid6426"
       originx="0"
       originy="0"
       spacingy="1"
       spacingx="1"
       units="px"
       visible="false" />
  </sodipodi:namedview>
  <metadata
     id="metadata11">
    <rdf:RDF>
      <cc:Work
         rdf:about="">
        <dc:format>image/svg+xml</dc:format>
        <dc:type
           rdf:resource="http://purl.org/dc/dcmitype/StillImage" />
      </cc:Work>
    </rdf:RDF>
  </metadata>
  <defs
     id="defs4">
    <linearGradient
       id="linearGradient3587-6-5">
      <stop
         id="stop3589-9-2"
         style="stop-color:#000000;stop-opacity:1"
         offset="0" />
      <stop
         id="stop3591-7-4"
         style="stop-color:#646464;stop-opacity:1"
         offset="1" />
    </linearGradient>
    <linearGradient
       x1="7.0799088"
       y1="7.6944885"
       x2="11.317808"
       y2="11.932388"
       id="linearGradient2388"
       xlink:href="#linearGradient3587-6-5"
       gradientUnits="userSpaceOnUse"
       gradientTransform="rotate(45,12.12132,10.707107)" />
    <linearGradient
       x1="8.1313992"
       y1="19.049677"
       x2="8.1313992"
       y2="15.935893"
       id="linearGradient5038"
       xlink:href="#linearGradient3732-77"
       gradientUnits="userSpaceOnUse"
       gradientTransform="matrix(0.8666667,0,0,0.73333335,2.0666666,-16.066667)" />
    <linearGradient
       id="linearGradient3732-77">
      <stop
         id="stop3734-3"
         style="stop-color:#000000;stop-opacity:1"
         offset="0" />
      <stop
         id="stop3736-71"
         style="stop-color:#000000;stop-opacity:0"
         offset="1" />
    </linearGradient>
    <linearGradient
       x1="8.1313992"
       y1="19.049677"
       x2="8.1313992"
       y2="15.935893"
       id="linearGradient3794"
       xlink:href="#linearGradient3788"
       gradientUnits="userSpaceOnUse"
       gradientTransform="matrix(1.1333334,0,0,0.99999997,-0.06666673,-2.9999999)" />
    <linearGradient
       id="linearGradient3788">
      <stop
         id="stop3790"
         style="stop-color:#ffffff;stop-opacity:1"
         offset="0" />
      <stop
         id="stop3792"
         style="stop-color:#ffffff;stop-opacity:0"
         offset="1" />
    </linearGradient>
    <linearGradient
       x1="22.863201"
       y1="-0.94923496"
       x2="26.23391"
       y2="2.4214737"
       id="linearGradient6695"
       xlink:href="#linearGradient3587-6-5-1-5"
       gradientUnits="userSpaceOnUse"
       gradientTransform="rotate(45,4.0355353,-15.642136)" />
    <linearGradient
       id="linearGradient3587-6-5-1-5">
      <stop
         id="stop3589-9-2-8-5"
         style="stop-color:#000000;stop-opacity:1"
         offset="0" />
      <stop
         id="stop3591-7-4-3-0"
         style="stop-color:#646464;stop-opacity:1"
         offset="1" />
    </linearGradient>
    <linearGradient
       x1="19.490692"
       y1="-4.321744"
       x2="22.886868"
       y2="-0.92556846"
       id="linearGradient6693"
       xlink:href="#linearGradient3587-6-5-1-5"
       gradientUnits="userSpaceOnUse"
       gradientTransform="rotate(45,4.0355353,-15.642136)" />
    <linearGradient
       id="linearGradient3059">
      <stop
         id="stop3061"
         style="stop-color:#000000;stop-opacity:1"
         offset="0" />
      <stop
         id="stop3063"
         style="stop-color:#646464;stop-opacity:1"
         offset="1" />
    </linearGradient>
    <linearGradient
       x1="20.534313"
       y1="-4.3515615"
       x2="26.152533"
       y2="1.2666581"
       id="linearGradient6693-5"
       xlink:href="#linearGradient3587-6-5-1-5-2"
       gradientUnits="userSpaceOnUse"
       gradientTransform="rotate(45,4.0355353,-15.642136)" />
    <linearGradient
       id="linearGradient3587-6-5-1-5-2">
      <stop
         id="stop3589-9-2-8-5-0"
         style="stop-color:#000000;stop-opacity:1"
         offset="0" />
      <stop
         id="stop3591-7-4-3-0-1"
         style="stop-color:#646464;stop-opacity:1"
         offset="1" />
    </linearGradient>
    <linearGradient
       x1="19.490692"
       y1="-4.321744"
       x2="22.886868"
       y2="-0.92556846"
       id="linearGradient3054"
       xlink:href="#linearGradient3587-6-5-1-5-2"
       gradientUnits="userSpaceOnUse"
       gradientTransform="rotate(45,3.1568563,-28.006097)" />
    <linearGradient
       x1="20.534313"
       y1="-4.3515615"
       x2="26.152533"
       y2="1.2666581"
       id="linearGradient6693-5-4"
       xlink:href="#linearGradient3587-6-5-1-5-2-1"
       gradientUnits="userSpaceOnUse"
       gradientTransform="rotate(45,-6.6146827,-50.612924)" />
    <linearGradient
       id="linearGradient3587-6-5-1-5-2-1">
      <stop
         id="stop3589-9-2-8-5-0-2"
         style="stop-color:#000000;stop-opacity:1"
         offset="0" />
      <stop
         id="stop3591-7-4-3-0-1-4"
         style="stop-color:#646464;stop-opacity:1"
         offset="1" />
    </linearGradient>
    <linearGradient
       x1="8.1313992"
       y1="19.049677"
       x2="8.1313992"
       y2="15.935893"
       id="linearGradient5038-3"
       xlink:href="#linearGradient3732-77-1"
       gradientUnits="userSpaceOnUse"
       gradientTransform="matrix(0.8666667,0,0,0.73333335,-25.780791,-13.354803)" />
    <linearGradient
       id="linearGradient3732-77-1">
      <stop
         id="stop3734-3-1"
         style="stop-color:#000000;stop-opacity:1"
         offset="0" />
      <stop
         id="stop3736-71-8"
         style="stop-color:#000000;stop-opacity:0"
         offset="1" />
    </linearGradient>
    <linearGradient
       x1="8.1313992"
       y1="19.049677"
       x2="8.1313992"
       y2="15.935893"
       id="linearGradient3794-3"
       xlink:href="#linearGradient3788-3"
       gradientUnits="userSpaceOnUse"
       gradientTransform="matrix(1.1333334,0,0,0.99999997,-27.914124,-5.7118643)" />
    <linearGradient
       id="linearGradient3788-3">
      <stop
         id="stop3790-8"
         style="stop-color:#ffffff;stop-opacity:1"
         offset="0" />
      <stop
         id="stop3792-3"
         style="stop-color:#ffffff;stop-opacity:0"
         offset="1" />
    </linearGradient>
    <linearGradient
       inkscape:collect="always"
       xlink:href="#linearGradient3788-3"
       id="linearGradient3210"
       gradientUnits="userSpaceOnUse"
       gradientTransform="matrix(1.1333334,0,0,0.99999997,-27.914124,-5.7118643)"
       x1="8.1313992"
       y1="19.049677"
       x2="8.1313992"
       y2="15.935893" />
    <linearGradient
       inkscape:collect="always"
       xlink:href="#linearGradient3732-77-1"
       id="linearGradient3212"
       gradientUnits="userSpaceOnUse"
       gradientTransform="matrix(0.8666667,0,0,0.73333335,-25.780791,-13.354803)"
       x1="8.1313992"
       y1="19.049677"
       x2="8.1313992"
       y2="15.935893" />
    <linearGradient
       inkscape:collect="always"
       xlink:href="#linearGradient3587-6-5-1-5-2-1"
       id="linearGradient3214"
       gradientUnits="userSpaceOnUse"
       gradientTransform="rotate(45,-6.6146827,-50.612924)"
       x1="20.534313"
       y1="-4.3515615"
       x2="26.152533"
       y2="1.2666581" />
    <linearGradient
       id="linearGradient3587-6-5-1-5-2-7">
      <stop
         offset="0"
         style="stop-color:#000000;stop-opacity:1"
         id="stop3589-9-2-8-5-0-9" />
      <stop
         offset="1"
         style="stop-color:#646464;stop-opacity:1"
         id="stop3591-7-4-3-0-1-5" />
    </linearGradient>
    <linearGradient
       id="linearGradient3732-77-2"
       inkscape:collect="always">
      <stop
         id="stop3734-3-2"
         offset="0"
         style="stop-color:#000000;stop-opacity:1;" />
      <stop
         id="stop3736-71-0"
         offset="1"
         style="stop-color:#000000;stop-opacity:0;" />
    </linearGradient>
    <linearGradient
       inkscape:collect="always"
       id="linearGradient3788-8">
      <stop
         style="stop-color:#ffffff;stop-opacity:1;"
         offset="0"
         id="stop3790-7" />
      <stop
         style="stop-color:#ffffff;stop-opacity:0;"
         offset="1"
         id="stop3792-4" />
    </linearGradient>
    <linearGradient
       inkscape:collect="always"
       xlink:href="#linearGradient3788-8"
       id="linearGradient3298"
       gradientUnits="userSpaceOnUse"
       gradientTransform="matrix(1.1333334,0,0,0.99999997,-5.0666667,42)"
       x1="8.1313992"
       y1="19.049677"
       x2="8.1313992"
       y2="15.935893" />
    <linearGradient
       inkscape:collect="always"
       xlink:href="#linearGradient3732-77-2"
       id="linearGradient3300"
       gradientUnits="userSpaceOnUse"
       gradientTransform="matrix(0.8666667,0,0,0.73333335,-2.9333334,-61.066667)"
       x1="8.1313992"
       y1="19.049677"
       x2="8.1313992"
       y2="15.935893" />
    <linearGradient
       inkscape:collect="always"
       xlink:href="#linearGradient3587-6-5-1-5-2-7"
       id="linearGradient3302"
       gradientUnits="userSpaceOnUse"
       gradientTransform="rotate(45,-52.784269,0.82232777)"
       x1="20.534313"
       y1="-4.3515615"
       x2="26.152533"
       y2="1.2666581" />
    <linearGradient
       x1="20.534313"
       y1="-4.3515615"
       x2="26.152533"
       y2="1.2666581"
       id="linearGradient6693-5-9"
       xlink:href="#linearGradient3587-6-5-1-5-2-4"
       gradientUnits="userSpaceOnUse"
       gradientTransform="rotate(45,24.578427,37.367009)" />
    <linearGradient
       id="linearGradient3587-6-5-1-5-2-4">
      <stop
         id="stop3589-9-2-8-5-0-4"
         style="stop-color:#000000;stop-opacity:1"
         offset="0" />
      <stop
         id="stop3591-7-4-3-0-1-0"
         style="stop-color:#646464;stop-opacity:1"
         offset="1" />
    </linearGradient>
  </defs>
  <g
     id="hover-center"
     transform="translate(26.28094)">
    <rect
       style="opacity:0.00100002;fill:#3daee9;fill-opacity:1;stroke:none;stroke-width:1.03125"
       id="rect3079"
       width="20.625002"
       height="20.625002"
       x="6.0821144e-09"
       y="-1.0498831e-23" />
    <path
       d="m 15.006506,2.665377 c 1.634117,0 2.953125,1.318993 2.953125,2.953124 v 9.386287 c 0,1.634117 -1.319008,2.953124 -2.953125,2.953124 H 5.6184951 c -1.634119,0 -2.953125,-1.319007 -2.953125,-2.953124 V 5.618501 c 0,-1.634131 1.319006,-2.953124 2.953125,-2.953124 h 9.3880109 m 0,-0.790376 H 5.6184951 c -2.055995,0 -3.743494,1.687498 -3.743494,3.7435 v 9.386287 c 0,2.057702 1.687499,3.745214 3.743494,3.745214 h 9.3862899 c 2.057715,0 3.745213,-1.687512 3.745213,-3.743501 v -9.388 c 0,-2.056002 -1.687498,-3.7435 -3.743492,-3.7435 z"
       id="path4-3-7-3-6-1"
       style="clip-rule:evenodd;fill:#3a405f;fill-opacity:1;fill-rule:evenodd;stroke-width:0.0172196;stroke-linejoin:round;stroke-miterlimit:1.41421" />
    <path
       d="m 10.045993,6.701111 -5.2502879,6.560086 a 0.37502108,0.46858772 0 0 0 -0.07887,0.510958 0.37502108,0.46858772 0 0 0 0.345019,0.290345 h 3.375209 a 0.37502108,0.46858772 0 0 0 0.375021,-0.468557 1.5000869,1.8743553 0 0 1 3.0001689,0 0.37502108,0.46858772 0 0 0 0.375012,0.468557 h 3.375278 a 0.37502108,0.46858772 0 0 0 0.34502,-0.290345 0.31501772,0.39361362 0 0 0 0.02982,-0.178212 0.37502108,0.46858772 0 0 0 -0.108691,-0.332746 L 10.578386,6.701111 a 0.37502108,0.46858772 0 0 0 -0.532534,0 z"
       id="path4-3-2"
       style="color:#eceff4;fill:#2a7fff;fill-opacity:1;stroke-width:0.419203"
       class="ColorScheme-Text" />
  </g>
  <g
     id="pressed-center"
     transform="translate(52.280936)">
    <rect
       y="5.3065374e-08"
       x="-5.8294443e-08"
       height="20.625002"
       width="20.625002"
       id="rect3838"
       style="opacity:0.00100002;fill:#3daee9;fill-opacity:1;stroke:none;stroke-width:1.03125" />
    <path
       d="m 15.006506,2.665377 c 1.634117,0 2.953125,1.318993 2.953125,2.953124 v 9.386287 c 0,1.634117 -1.319008,2.953124 -2.953125,2.953124 H 5.618495 c -1.634119,0 -2.9531251,-1.319007 -2.9531251,-2.953124 V 5.618501 c 0,-1.634131 1.3190061,-2.953124 2.9531251,-2.953124 h 9.388011 m 0,-0.790376 H 5.618495 c -2.055995,0 -3.7434941,1.687498 -3.7434941,3.7435 v 9.386287 c 0,2.057702 1.6874991,3.745214 3.7434941,3.745214 h 9.38629 c 2.057715,0 3.745213,-1.687512 3.745213,-3.743501 v -9.388 c 0,-2.056002 -1.687498,-3.7435 -3.743492,-3.7435 z"
       id="path4-3-7-3-6-9"
       style="clip-rule:evenodd;fill:#3a405f;fill-opacity:1;fill-rule:evenodd;stroke-width:0.0172196;stroke-linejoin:round;stroke-miterlimit:1.41421" />
    <path
       d="m 10.045993,6.701111 -5.250288,6.560086 a 0.37502108,0.46858772 0 0 0 -0.07887,0.510958 0.37502108,0.46858772 0 0 0 0.345019,0.290345 h 3.375209 a 0.37502108,0.46858772 0 0 0 0.375021,-0.468557 1.5000869,1.8743553 0 0 1 3.000169,0 0.37502108,0.46858772 0 0 0 0.375012,0.468557 h 3.375278 a 0.37502108,0.46858772 0 0 0 0.34502,-0.290345 0.31501772,0.39361362 0 0 0 0.02982,-0.178212 0.37502108,0.46858772 0 0 0 -0.108691,-0.332746 L 10.578386,6.701111 a 0.37502108,0.46858772 0 0 0 -0.532534,0 z"
       id="path4-3-3"
       style="color:#eceff4;fill:#66a2ff;fill-opacity:1;stroke-width:0.419203"
       class="ColorScheme-Text" />
  </g>
  <g
     id="inactive-center"
     transform="translate(78.280935)">
    <rect
       style="opacity:0.00100002;fill:#bfc3c7;fill-opacity:1;stroke:none;stroke-width:1.03125"
       id="rect3890"
       width="20.625002"
       height="20.625002"
       x="1.4699496e-07"
       y="1.1273034e-14" />
    <path
       d="m 15.006506,2.6653775 c 1.634117,0 2.953125,1.318993 2.953125,2.953124 v 9.3862865 c 0,1.634117 -1.319008,2.953124 -2.953125,2.953124 H 5.6184946 c -1.634119,0 -2.953125,-1.319007 -2.953125,-2.953124 V 5.6185015 c 0,-1.634131 1.319006,-2.953124 2.953125,-2.953124 h 9.3880114 m 0,-0.790376 H 5.6184946 c -2.055995,0 -3.7434939,1.687498 -3.7434939,3.7435 v 9.3862865 c 0,2.057702 1.6874989,3.745214 3.7434939,3.745214 h 9.3862904 c 2.057715,0 3.745213,-1.687512 3.745213,-3.743501 V 5.6185015 c 0,-2.056002 -1.687498,-3.7435 -3.743492,-3.7435 z"
       id="path4-3-7-3-6-19"
       style="clip-rule:evenodd;fill:#3a405f;fill-opacity:1;fill-rule:evenodd;stroke-width:0.0172196;stroke-linejoin:round;stroke-miterlimit:1.41421" />
    <path
       d="M 10.045993,6.7011115 4.7957046,13.261197 a 0.37502108,0.46858772 0 0 0 -0.07887,0.510958 0.37502108,0.46858772 0 0 0 0.345019,0.290345 h 3.375209 a 0.37502108,0.46858772 0 0 0 0.375021,-0.468557 1.5000869,1.8743553 0 0 1 3.0001694,0 0.37502108,0.46858772 0 0 0 0.375012,0.468557 h 3.375278 a 0.37502108,0.46858772 0 0 0 0.34502,-0.290345 0.31501772,0.39361362 0 0 0 0.02982,-0.178212 0.37502108,0.46858772 0 0 0 -0.108691,-0.332746 L 10.578386,6.7011115 a 0.37502108,0.46858772 0 0 0 -0.532534,0 z"
       id="path4-3-4"
       style="color:#eceff4;fill:#81b4fe;fill-opacity:0.6;stroke-width:0.419203"
       class="ColorScheme-Text" />
  </g>
  <g
     id="hover-inactive-center"
     transform="translate(104.28093)">
    <rect
       y="-5.3065374e-08"
       x="3.6748742e-07"
       height="20.625002"
       width="20.625002"
       id="rect3846"
       style="opacity:0.00100002;fill:#3daee9;fill-opacity:1;stroke:none;stroke-width:1.03125" />
    <path
       d="m 15.006512,2.6653757 c 1.63412,0 2.95313,1.318993 2.95313,2.953124 v 9.3862873 c 0,1.634117 -1.31901,2.953124 -2.95313,2.953124 H 5.6185054 c -1.634119,0 -2.953125,-1.319007 -2.953125,-2.953124 V 5.6184997 c 0,-1.634131 1.319006,-2.953124 2.953125,-2.953124 h 9.3880066 m 0,-0.790376 H 5.6185054 c -2.055995,0 -3.7434936,1.687498 -3.7434936,3.7435 v 9.3862873 c 0,2.057702 1.6874986,3.745214 3.7434936,3.745214 h 9.3862866 c 2.05772,0 3.74522,-1.687512 3.74522,-3.743501 V 5.6184997 c 0,-2.056002 -1.6875,-3.7435 -3.7435,-3.7435 z"
       id="path4-3-7-3-6-7"
       style="clip-rule:evenodd;fill:#3a405f;fill-opacity:1;fill-rule:evenodd;stroke-width:0.0172196;stroke-linejoin:round;stroke-miterlimit:1.41421" />
    <path
       d="M 10.046002,6.7011097 4.7957154,13.261196 a 0.37502108,0.46858772 0 0 0 -0.07887,0.510958 0.37502108,0.46858772 0 0 0 0.345019,0.290345 h 3.375208 a 0.37502108,0.46858772 0 0 0 0.37502,-0.468557 1.5000869,1.8743553 0 0 1 3.0001696,0 0.37502108,0.46858772 0 0 0 0.37501,0.468557 h 3.37528 a 0.37502108,0.46858772 0 0 0 0.34502,-0.290345 0.31501772,0.39361362 0 0 0 0.0298,-0.178212 0.37502108,0.46858772 0 0 0 -0.10869,-0.332746 l -5.25031,-6.5600863 a 0.37502108,0.46858772 0 0 0 -0.53253,0 z"
       id="path4-3-8"
       style="color:#eceff4;fill:#2a7fff;fill-opacity:1;stroke-width:0.419203"
       class="ColorScheme-Text" />
  </g>
</svg>
