<?xml version="1.0" encoding="UTF-8" standalone="no"?>
<svg
   sodipodi:docname="restart_primary.svg"
   inkscape:version="1.2.2 (b0a8486541, 2022-12-01)"
   id="svg1699"
   version="1.1"
   viewBox="0 0 8.4666662 8.4666662"
   height="8.4666662mm"
   width="8.4666662mm"
   xmlns:inkscape="http://www.inkscape.org/namespaces/inkscape"
   xmlns:sodipodi="http://sodipodi.sourceforge.net/DTD/sodipodi-0.dtd"
   xmlns="http://www.w3.org/2000/svg"
   xmlns:svg="http://www.w3.org/2000/svg"
   xmlns:rdf="http://www.w3.org/1999/02/22-rdf-syntax-ns#"
   xmlns:cc="http://creativecommons.org/ns#"
   xmlns:dc="http://purl.org/dc/elements/1.1/">
  <defs
     id="defs1693" />
  <sodipodi:namedview
     inkscape:document-rotation="0"
     inkscape:window-maximized="1"
     inkscape:window-y="0"
     inkscape:window-x="0"
     inkscape:window-height="1002"
     inkscape:window-width="1920"
     showgrid="true"
     inkscape:current-layer="layer1"
     inkscape:document-units="mm"
     inkscape:cy="14.584077"
     inkscape:cx="6.155617"
     inkscape:zoom="15.839192"
     inkscape:pageshadow="2"
     inkscape:pageopacity="0"
     borderopacity="1"
     bordercolor="#ff1919"
     pagecolor="#000000"
     id="base"
     inkscape:pagecheckerboard="true"
     inkscape:showpageshadow="false"
     inkscape:deskcolor="#000000">
    <inkscape:grid
       type="xygrid"
       id="grid844" />
  </sodipodi:namedview>
  <metadata
     id="metadata1696">
    <rdf:RDF>
      <cc:Work
         rdf:about="">
        <dc:format>image/svg+xml</dc:format>
        <dc:type
           rdf:resource="http://purl.org/dc/dcmitype/StillImage" />
      </cc:Work>
    </rdf:RDF>
  </metadata>
  <g
     transform="translate(-98.729144,-81.918987)"
     id="layer1"
     inkscape:groupmode="layer"
     inkscape:label="Layer 1">
    <g
       id="system-switch-user"
       transform="matrix(0.26458333,0,0,0.26458333,23.852062,81.918987)">
      <g
         id="g1729">
        <circle
           style="opacity:0;fill:none;fill-opacity:1;stroke-width:1.06667"
           id="circle955"
           r="16"
           cy="-16"
           cx="299"
           transform="scale(1,-1)" />
      </g>
    </g>
    <path
       d="m 103.70124,85.674004 c 0.13139,0.191244 0.18138,0.426804 0.13886,0.654776 -0.0425,0.228018 -0.17409,0.429834 -0.36564,0.561073 -0.19157,0.131148 -0.42754,0.18105 -0.65598,0.138594 -0.22836,-0.04247 -0.43054,-0.173772 -0.562,-0.364974 -0.13137,-0.191243 -0.18136,-0.426801 -0.13883,-0.654835 0.0425,-0.227956 0.17407,-0.429789 0.36561,-0.561013 0.19158,-0.131147 0.42755,-0.18105 0.65592,-0.138604 0.22843,0.04248 0.4306,0.173779 0.56206,0.364983 z"
       id="path1348-7"
       style="fill:#bac8df;fill-opacity:1;stroke-width:0.0154045" />
    <path
       style="color:#d6dbf1;fill:none;fill-opacity:1;stroke:#bac8df;stroke-width:0.470809;stroke-linecap:round;stroke-miterlimit:4;stroke-dasharray:none;stroke-opacity:1;stop-color:#31363b"
       sodipodi:type="arc"
       sodipodi:cx="-117.04758"
       sodipodi:cy="-65.870422"
       sodipodi:rx="3.283627"
       sodipodi:ry="3.2921295"
       sodipodi:start="3.6958974"
       sodipodi:end="0.1032134"
       sodipodi:open="true"
       sodipodi:arc-type="arc"
       transform="matrix(-0.98316218,-0.18273514,0.1833566,-0.98304647,0,0)"
       d="m -119.83954,-67.603242 a 3.283627,3.2921295 0 0 1 3.85214,-1.382996 3.283627,3.2921295 0 0 1 2.20598,3.455005"
       id="path7-1"
       class="ColorScheme-Text" />
    <path
       style="color:#d6dbf1;fill:none;fill-opacity:1;stroke:#bac8df;stroke-width:0.470809;stroke-linecap:round;stroke-miterlimit:4;stroke-dasharray:none;stroke-opacity:1;stop-color:#31363b"
       sodipodi:type="arc"
       sodipodi:cx="-117.01823"
       sodipodi:cy="-65.929665"
       sodipodi:rx="3.2836263"
       sodipodi:ry="3.292134"
       sodipodi:start="0.65888677"
       sodipodi:end="3.1546437"
       sodipodi:open="true"
       sodipodi:arc-type="arc"
       d="m -114.42195,-63.914098 a 3.2836263,3.292134 0 0 1 -3.67884,1.092509 3.2836263,3.292134 0 0 1 -2.20078,-3.15104"
       id="path7-2"
       class="ColorScheme-Text"
       transform="matrix(-0.98316218,-0.18273514,0.1833566,-0.98304647,0,0)" />
  </g>
</svg>
