<?xml version="1.0" encoding="UTF-8" standalone="no"?>
<svg
   version="1.0"
   width="22.000002"
   height="22.000002"
   id="svg2"
   inkscape:version="1.2.2 (b0a8486541, 2022-12-01)"
   sodipodi:docname="minimize.svg"
   viewBox="0 0 20.625004 20.625002"
   xmlns:inkscape="http://www.inkscape.org/namespaces/inkscape"
   xmlns:sodipodi="http://sodipodi.sourceforge.net/DTD/sodipodi-0.dtd"
   xmlns:xlink="http://www.w3.org/1999/xlink"
   xmlns="http://www.w3.org/2000/svg"
   xmlns:svg="http://www.w3.org/2000/svg"
   xmlns:rdf="http://www.w3.org/1999/02/22-rdf-syntax-ns#"
   xmlns:cc="http://creativecommons.org/ns#"
   xmlns:dc="http://purl.org/dc/elements/1.1/">
  <g
     id="pressed-inactive-center"
     transform="translate(130)">
    <rect
       style="opacity:0.00100002;fill:#3daee9;fill-opacity:1;stroke:none;stroke-width:1.03125"
       id="rect3863"
       width="20.625002"
       height="20.625002"
       x="3.2364554e-07"
       y="5.3065374e-08" />
    <path
       sodipodi:nodetypes="ccc"
       style="fill:none;stroke:#e1b151;stroke-width:2.30406;stroke-linecap:round;stroke-linejoin:miter;stroke-miterlimit:4;stroke-dasharray:none;stroke-opacity:1"
       d="M 14.785472,8.6520326 10.327842,13.31966 5.8395321,8.6524436"
       id="path4829-4-4-8-8-92"
       inkscape:connector-curvature="0" />
    <path
       d="m 15.006502,2.6653766 c 1.63412,0 2.95313,1.318993 2.95313,2.953123 v 9.3862884 c 0,1.634117 -1.31901,2.953123 -2.95313,2.953123 H 5.6184921 c -1.63412,0 -2.95312,-1.319006 -2.95312,-2.953123 V 5.6184996 c 0,-1.63413 1.319,-2.953123 2.95312,-2.953123 h 9.3880099 m 0,-0.790376 H 5.6184921 c -2.05599,0 -3.743492,1.687498 -3.743492,3.743499 v 9.3862884 c 0,2.057701 1.687502,3.745213 3.743492,3.745213 h 9.3862899 c 2.05772,0 3.74522,-1.687512 3.74522,-3.743501 V 5.6184996 c 0,-2.056001 -1.6875,-3.743499 -3.7435,-3.743499 z"
       id="path4-3-7-3-0"
       style="clip-rule:evenodd;fill:#ffffff;fill-opacity:1;fill-rule:evenodd;stroke-width:0.0172195;stroke-linejoin:round;stroke-miterlimit:1.41421" />
  </g>
  <sodipodi:namedview
     pagecolor="#ffffff"
     bordercolor="#000000"
     borderopacity="1"
     objecttolerance="10"
     gridtolerance="10"
     guidetolerance="10"
     inkscape:pageopacity="1"
     inkscape:pageshadow="2"
     inkscape:window-width="1920"
     inkscape:window-height="1002"
     id="namedview32"
     showgrid="false"
     inkscape:zoom="5.951482"
     inkscape:cx="68.554353"
     inkscape:cy="27.976225"
     inkscape:window-x="0"
     inkscape:window-y="0"
     inkscape:window-maximized="1"
     inkscape:current-layer="svg2"
     inkscape:document-rotation="0"
     inkscape:showpageshadow="true"
     inkscape:lockguides="false"
     inkscape:pagecheckerboard="0"
     inkscape:deskcolor="#cccccc">
    <inkscape:grid
       type="xygrid"
       id="grid4267" />
  </sodipodi:namedview>
  <metadata
     id="metadata11">
    <rdf:RDF>
      <cc:Work
         rdf:about="">
        <dc:format>image/svg+xml</dc:format>
        <dc:type
           rdf:resource="http://purl.org/dc/dcmitype/StillImage" />
      </cc:Work>
    </rdf:RDF>
  </metadata>
  <defs
     id="defs4">
    <linearGradient
       id="linearGradient3587-6-5">
      <stop
         id="stop3589-9-2"
         style="stop-color:#000000;stop-opacity:1"
         offset="0" />
      <stop
         id="stop3591-7-4"
         style="stop-color:#646464;stop-opacity:1"
         offset="1" />
    </linearGradient>
    <linearGradient
       x1="7.0799088"
       y1="7.6944885"
       x2="11.317808"
       y2="11.932388"
       id="linearGradient2388"
       xlink:href="#linearGradient3587-6-5"
       gradientUnits="userSpaceOnUse"
       gradientTransform="rotate(45,12.12132,10.707107)" />
    <linearGradient
       x1="8.1313992"
       y1="19.049677"
       x2="8.1313992"
       y2="15.935893"
       id="linearGradient5038"
       xlink:href="#linearGradient3732-77"
       gradientUnits="userSpaceOnUse"
       gradientTransform="matrix(0.8666667,0,0,0.73333335,2.0666666,-16.066667)" />
    <linearGradient
       id="linearGradient3732-77">
      <stop
         id="stop3734-3"
         style="stop-color:#000000;stop-opacity:1"
         offset="0" />
      <stop
         id="stop3736-71"
         style="stop-color:#000000;stop-opacity:0"
         offset="1" />
    </linearGradient>
    <linearGradient
       x1="8.1313992"
       y1="19.049677"
       x2="8.1313992"
       y2="15.935893"
       id="linearGradient3794"
       xlink:href="#linearGradient3788"
       gradientUnits="userSpaceOnUse"
       gradientTransform="matrix(1.1333334,0,0,0.99999997,-0.06666673,-2.9999999)" />
    <linearGradient
       id="linearGradient3788">
      <stop
         id="stop3790"
         style="stop-color:#ffffff;stop-opacity:1"
         offset="0" />
      <stop
         id="stop3792"
         style="stop-color:#ffffff;stop-opacity:0"
         offset="1" />
    </linearGradient>
    <linearGradient
       x1="22.863201"
       y1="-0.94923496"
       x2="26.23391"
       y2="2.4214737"
       id="linearGradient6695"
       xlink:href="#linearGradient3587-6-5-1-5"
       gradientUnits="userSpaceOnUse"
       gradientTransform="rotate(45,4.0355353,-15.642136)" />
    <linearGradient
       id="linearGradient3587-6-5-1-5">
      <stop
         id="stop3589-9-2-8-5"
         style="stop-color:#000000;stop-opacity:1"
         offset="0" />
      <stop
         id="stop3591-7-4-3-0"
         style="stop-color:#646464;stop-opacity:1"
         offset="1" />
    </linearGradient>
    <linearGradient
       x1="19.490692"
       y1="-4.321744"
       x2="22.886868"
       y2="-0.92556846"
       id="linearGradient6693"
       xlink:href="#linearGradient3587-6-5-1-5"
       gradientUnits="userSpaceOnUse"
       gradientTransform="rotate(45,4.0355353,-15.642136)" />
    <linearGradient
       id="linearGradient3059">
      <stop
         id="stop3061"
         style="stop-color:#000000;stop-opacity:1"
         offset="0" />
      <stop
         id="stop3063"
         style="stop-color:#646464;stop-opacity:1"
         offset="1" />
    </linearGradient>
    <linearGradient
       x1="20.534313"
       y1="-4.3515615"
       x2="26.152533"
       y2="1.2666581"
       id="linearGradient6693-5"
       xlink:href="#linearGradient3587-6-5-1-5-2"
       gradientUnits="userSpaceOnUse"
       gradientTransform="rotate(45,4.0355353,-15.642136)" />
    <linearGradient
       id="linearGradient3587-6-5-1-5-2">
      <stop
         id="stop3589-9-2-8-5-0"
         style="stop-color:#000000;stop-opacity:1"
         offset="0" />
      <stop
         id="stop3591-7-4-3-0-1"
         style="stop-color:#646464;stop-opacity:1"
         offset="1" />
    </linearGradient>
    <linearGradient
       x1="19.490692"
       y1="-4.321744"
       x2="22.886868"
       y2="-0.92556846"
       id="linearGradient3054"
       xlink:href="#linearGradient3587-6-5-1-5-2"
       gradientUnits="userSpaceOnUse"
       gradientTransform="rotate(45,3.1568563,-28.006097)" />
    <linearGradient
       x1="20.534313"
       y1="-4.3515615"
       x2="26.152533"
       y2="1.2666581"
       id="linearGradient6693-5-4"
       xlink:href="#linearGradient3587-6-5-1-5-2-1"
       gradientUnits="userSpaceOnUse"
       gradientTransform="rotate(45,-6.6146827,-50.612924)" />
    <linearGradient
       id="linearGradient3587-6-5-1-5-2-1">
      <stop
         id="stop3589-9-2-8-5-0-2"
         style="stop-color:#000000;stop-opacity:1"
         offset="0" />
      <stop
         id="stop3591-7-4-3-0-1-4"
         style="stop-color:#646464;stop-opacity:1"
         offset="1" />
    </linearGradient>
    <linearGradient
       x1="8.1313992"
       y1="19.049677"
       x2="8.1313992"
       y2="15.935893"
       id="linearGradient5038-3"
       xlink:href="#linearGradient3732-77-1"
       gradientUnits="userSpaceOnUse"
       gradientTransform="matrix(0.8666667,0,0,0.73333335,-25.780791,-13.354803)" />
    <linearGradient
       id="linearGradient3732-77-1">
      <stop
         id="stop3734-3-1"
         style="stop-color:#000000;stop-opacity:1"
         offset="0" />
      <stop
         id="stop3736-71-8"
         style="stop-color:#000000;stop-opacity:0"
         offset="1" />
    </linearGradient>
    <linearGradient
       x1="8.1313992"
       y1="19.049677"
       x2="8.1313992"
       y2="15.935893"
       id="linearGradient3794-3"
       xlink:href="#linearGradient3788-3"
       gradientUnits="userSpaceOnUse"
       gradientTransform="matrix(1.1333334,0,0,0.99999997,-27.914124,-5.7118643)" />
    <linearGradient
       id="linearGradient3788-3">
      <stop
         id="stop3790-8"
         style="stop-color:#ffffff;stop-opacity:1"
         offset="0" />
      <stop
         id="stop3792-3"
         style="stop-color:#ffffff;stop-opacity:0"
         offset="1" />
    </linearGradient>
    <linearGradient
       inkscape:collect="always"
       xlink:href="#linearGradient3788-3"
       id="linearGradient3210"
       gradientUnits="userSpaceOnUse"
       gradientTransform="matrix(1.1333334,0,0,0.99999997,-27.914124,-5.7118643)"
       x1="8.1313992"
       y1="19.049677"
       x2="8.1313992"
       y2="15.935893" />
    <linearGradient
       inkscape:collect="always"
       xlink:href="#linearGradient3732-77-1"
       id="linearGradient3212"
       gradientUnits="userSpaceOnUse"
       gradientTransform="matrix(0.8666667,0,0,0.73333335,-25.780791,-13.354803)"
       x1="8.1313992"
       y1="19.049677"
       x2="8.1313992"
       y2="15.935893" />
    <linearGradient
       inkscape:collect="always"
       xlink:href="#linearGradient3587-6-5-1-5-2-1"
       id="linearGradient3214"
       gradientUnits="userSpaceOnUse"
       gradientTransform="rotate(45,-6.6146827,-50.612924)"
       x1="20.534313"
       y1="-4.3515615"
       x2="26.152533"
       y2="1.2666581" />
    <linearGradient
       id="linearGradient3587-6-5-1-5-2-7">
      <stop
         offset="0"
         style="stop-color:#000000;stop-opacity:1"
         id="stop3589-9-2-8-5-0-9" />
      <stop
         offset="1"
         style="stop-color:#646464;stop-opacity:1"
         id="stop3591-7-4-3-0-1-5" />
    </linearGradient>
    <linearGradient
       id="linearGradient3732-77-2"
       inkscape:collect="always">
      <stop
         id="stop3734-3-2"
         offset="0"
         style="stop-color:#000000;stop-opacity:1;" />
      <stop
         id="stop3736-71-0"
         offset="1"
         style="stop-color:#000000;stop-opacity:0;" />
    </linearGradient>
    <linearGradient
       inkscape:collect="always"
       id="linearGradient3788-8">
      <stop
         style="stop-color:#ffffff;stop-opacity:1;"
         offset="0"
         id="stop3790-7" />
      <stop
         style="stop-color:#ffffff;stop-opacity:0;"
         offset="1"
         id="stop3792-4" />
    </linearGradient>
    <linearGradient
       inkscape:collect="always"
       xlink:href="#linearGradient3788-8"
       id="linearGradient3298"
       gradientUnits="userSpaceOnUse"
       gradientTransform="matrix(1.1333334,0,0,0.99999997,-5.0666667,42)"
       x1="8.1313992"
       y1="19.049677"
       x2="8.1313992"
       y2="15.935893" />
    <linearGradient
       inkscape:collect="always"
       xlink:href="#linearGradient3732-77-2"
       id="linearGradient3300"
       gradientUnits="userSpaceOnUse"
       gradientTransform="matrix(0.8666667,0,0,0.73333335,-2.9333334,-61.066667)"
       x1="8.1313992"
       y1="19.049677"
       x2="8.1313992"
       y2="15.935893" />
    <linearGradient
       inkscape:collect="always"
       xlink:href="#linearGradient3587-6-5-1-5-2-7"
       id="linearGradient3302"
       gradientUnits="userSpaceOnUse"
       gradientTransform="rotate(45,-52.784269,0.82232777)"
       x1="20.534313"
       y1="-4.3515615"
       x2="26.152533"
       y2="1.2666581" />
    <linearGradient
       x1="20.534313"
       y1="-4.3515615"
       x2="26.152533"
       y2="1.2666581"
       id="linearGradient6693-5-9"
       xlink:href="#linearGradient3587-6-5-1-5-2-4"
       gradientUnits="userSpaceOnUse"
       gradientTransform="rotate(45,24.578427,37.367009)" />
    <linearGradient
       id="linearGradient3587-6-5-1-5-2-4">
      <stop
         id="stop3589-9-2-8-5-0-4"
         style="stop-color:#000000;stop-opacity:1"
         offset="0" />
      <stop
         id="stop3591-7-4-3-0-1-0"
         style="stop-color:#646464;stop-opacity:1"
         offset="1" />
    </linearGradient>
  </defs>
  <g
     id="g3926"
     transform="matrix(1.2607487,0,0,1.3388484,264.66352,-178.88946)" />
  <g
     id="active-center">
    <rect
       y="-1.323489e-23"
       x="0"
       height="20.625002"
       width="20.625002"
       id="rect3073"
       style="opacity:0.00100002;fill:#3daee9;fill-opacity:1;stroke:none;stroke-width:1.03125" />
    <path
       sodipodi:nodetypes="ccc"
       style="fill:none;stroke:#1e2431;stroke-width:2.30406;stroke-linecap:round;stroke-linejoin:miter;stroke-miterlimit:4;stroke-dasharray:none;stroke-opacity:1"
       d="M 14.785473,8.6520324 10.327841,13.31966 5.8395303,8.6524434"
       id="path4829-4-4-8-8"
       inkscape:connector-curvature="0" />
    <path
       d="m 15.006505,2.6653759 c 1.634119,0 2.953125,1.3189929 2.953125,2.9531234 v 9.3862887 c 0,1.634117 -1.319006,2.953123 -2.953125,2.953123 H 5.6184945 c -1.6341199,0 -2.9531256,-1.319006 -2.9531256,-2.953123 V 5.6184993 c 0,-1.6341305 1.3190057,-2.9531234 2.9531256,-2.9531234 h 9.3880105 m 0,-0.7903758 H 5.6184945 c -2.0559947,0 -3.7434944,1.6874977 -3.7434944,3.7434992 v 9.3862887 c 0,2.057701 1.6874997,3.745213 3.7434944,3.745213 h 9.3862905 c 2.057715,0 3.745212,-1.687512 3.745212,-3.743501 V 5.6184993 c 0,-2.0560015 -1.687497,-3.7434992 -3.743492,-3.7434992 z"
       id="path4-3-7-3"
       style="clip-rule:evenodd;fill:#b8c7e0;fill-opacity:1;fill-rule:evenodd;stroke-width:0.0172195;stroke-linejoin:round;stroke-miterlimit:1.41421" />
  </g>
  <g
     id="hover-center"
     transform="translate(26.25)">
    <rect
       style="opacity:0.00100002;fill:#3daee9;fill-opacity:1;stroke:none;stroke-width:1.03125"
       id="rect3079"
       width="20.625002"
       height="20.625002"
       x="-1.694501e-09"
       y="4.1596292e-17" />
    <path
       sodipodi:nodetypes="ccc"
       style="fill:none;stroke:#edce92;stroke-width:2.30406;stroke-linecap:round;stroke-linejoin:miter;stroke-miterlimit:4;stroke-dasharray:none;stroke-opacity:1"
       d="M 14.785472,8.6520322 10.32784,13.31966 5.8395295,8.6524432"
       id="path4829-4-4-8-8-9"
       inkscape:connector-curvature="0" />
    <path
       d="m 15.006504,2.6653762 c 1.634119,0 2.953125,1.318993 2.953125,2.953123 v 9.3862888 c 0,1.634117 -1.319006,2.953123 -2.953125,2.953123 H 5.6184945 c -1.63412,0 -2.953126,-1.319006 -2.953126,-2.953123 V 5.6184992 c 0,-1.63413 1.319006,-2.953123 2.953126,-2.953123 h 9.3880095 m 0,-0.790376 H 5.6184945 c -2.055995,0 -3.743495,1.687498 -3.743495,3.743499 v 9.3862888 c 0,2.057701 1.6875,3.745213 3.743495,3.745213 h 9.3862895 c 2.057715,0 3.745212,-1.687512 3.745212,-3.743501 V 5.6184992 c 0,-2.056001 -1.687497,-3.743499 -3.743492,-3.743499 z"
       id="path4-3-7-3-36"
       style="clip-rule:evenodd;fill:#b8c7e0;fill-opacity:1;fill-rule:evenodd;stroke-width:0.0172195;stroke-linejoin:round;stroke-miterlimit:1.41421" />
  </g>
  <g
     id="pressed-center"
     transform="translate(51.999997)">
    <rect
       y="5.3065374e-08"
       x="3.2364554e-07"
       height="20.625002"
       width="20.625002"
       id="rect3075"
       style="opacity:0.00100002;fill:#3daee9;fill-opacity:1;stroke:none;stroke-width:1.03125" />
    <path
       sodipodi:nodetypes="ccc"
       style="fill:none;stroke:#e1b151;stroke-width:2.30406;stroke-linecap:round;stroke-linejoin:miter;stroke-miterlimit:4;stroke-dasharray:none;stroke-opacity:1"
       d="M 14.785473,8.6520322 10.327841,13.31966 5.8395301,8.6524432"
       id="path4829-4-4-8-8-0"
       inkscape:connector-curvature="0" />
    <path
       d="m 15.006505,2.6653762 c 1.634119,0 2.953125,1.318993 2.953125,2.953123 v 9.3862888 c 0,1.634117 -1.319006,2.953123 -2.953125,2.953123 H 5.6184941 c -1.634119,0 -2.953125,-1.319006 -2.953125,-2.953123 V 5.6184992 c 0,-1.63413 1.319006,-2.953123 2.953125,-2.953123 h 9.3880109 m 0,-0.790376 H 5.6184941 c -2.055994,0 -3.743494,1.687498 -3.743494,3.743499 v 9.3862888 c 0,2.057701 1.6875,3.745213 3.743494,3.745213 h 9.3862909 c 2.057715,0 3.745212,-1.687512 3.745212,-3.743501 V 5.6184992 c 0,-2.056001 -1.687497,-3.743499 -3.743492,-3.743499 z"
       id="path4-3-7-3-6"
       style="clip-rule:evenodd;fill:#b8c7e0;fill-opacity:1;fill-rule:evenodd;stroke-width:0.0172195;stroke-linejoin:round;stroke-miterlimit:1.41421" />
  </g>
  <g
     id="inactive-center"
     transform="translate(77.999993)">
    <rect
       style="opacity:0.00100002;fill:#bfc3c7;fill-opacity:1;stroke:none;stroke-width:1.03125"
       id="rect3924"
       width="20.625002"
       height="20.625002"
       x="-6.6082116e-08"
       y="2.0839675e-16" />
    <path
       sodipodi:nodetypes="ccc"
       style="fill:none;stroke:#1e2431;stroke-width:2.30406;stroke-linecap:round;stroke-linejoin:miter;stroke-miterlimit:4;stroke-dasharray:none;stroke-opacity:0.40000001"
       d="M 14.785472,8.6520321 10.32784,13.31966 5.8395294,8.6524431"
       id="path4829-4-4-8-8-2"
       inkscape:connector-curvature="0" />
    <path
       d="m 15.006504,2.6653761 c 1.634119,0 2.953125,1.318993 2.953125,2.953123 v 9.3862889 c 0,1.634117 -1.319006,2.953123 -2.953125,2.953123 H 5.6184934 c -1.634119,0 -2.953125,-1.319006 -2.953125,-2.953123 V 5.6184991 c 0,-1.63413 1.319006,-2.953123 2.953125,-2.953123 h 9.3880106 m 0,-0.790376 H 5.6184934 c -2.055994,0 -3.743494,1.687498 -3.743494,3.743499 v 9.3862889 c 0,2.057701 1.6875,3.745213 3.743494,3.745213 h 9.3862906 c 2.057715,0 3.745212,-1.687512 3.745212,-3.743501 V 5.6184991 c 0,-2.056001 -1.687497,-3.743499 -3.743492,-3.743499 z"
       id="path4-3-7-3-61"
       style="clip-rule:evenodd;fill:#ffffff;fill-opacity:1;fill-rule:evenodd;stroke-width:0.0172195;stroke-linejoin:round;stroke-miterlimit:1.41421" />
  </g>
  <g
     id="hover-inactive-center"
     transform="translate(103.99999)">
    <rect
       y="2.0839675e-16"
       x="4.147947e-07"
       height="20.625002"
       width="20.625002"
       id="rect3853"
       style="opacity:0.00100002;fill:#3daee9;fill-opacity:1;stroke:none;stroke-width:1.03125" />
    <path
       sodipodi:nodetypes="ccc"
       style="fill:none;stroke:#edce92;stroke-width:2.30406;stroke-linecap:round;stroke-linejoin:miter;stroke-miterlimit:4;stroke-dasharray:none;stroke-opacity:1"
       d="M 14.785475,8.6520323 10.327835,13.31966 5.8395279,8.6524433"
       id="path4829-4-4-8-8-8"
       inkscape:connector-curvature="0" />
    <path
       d="m 15.006505,2.6653763 c 1.63412,0 2.95312,1.318993 2.95312,2.953123 v 9.3862887 c 0,1.634117 -1.319,2.953123 -2.95312,2.953123 H 5.6184919 c -1.634119,0 -2.953125,-1.319006 -2.953125,-2.953123 V 5.6184993 c 0,-1.63413 1.319006,-2.953123 2.953125,-2.953123 h 9.3880131 m 0,-0.790376 H 5.6184919 c -2.055994,0 -3.743494,1.687498 -3.743494,3.743499 v 9.3862887 c 0,2.057701 1.6875,3.745213 3.743494,3.745213 h 9.3862931 c 2.05771,0 3.74521,-1.687512 3.74521,-3.743501 V 5.6184993 c 0,-2.056001 -1.6875,-3.743499 -3.74349,-3.743499 z"
       id="path4-3-7-3-7"
       style="clip-rule:evenodd;fill:#f3f4f8;fill-opacity:1;fill-rule:evenodd;stroke-width:0.0172195;stroke-linejoin:round;stroke-miterlimit:1.41421" />
  </g>
</svg>
