<?xml version="1.0" encoding="UTF-8" standalone="no"?>
<svg
   width="22"
   height="22"
   version="1.1"
   id="svg1"
   sodipodi:docname="applications-all-symbolic.svg"
   inkscape:version="1.3.2 (091e20ef0f, 2023-11-25)"
   xmlns:inkscape="http://www.inkscape.org/namespaces/inkscape"
   xmlns:sodipodi="http://sodipodi.sourceforge.net/DTD/sodipodi-0.dtd"
   xmlns="http://www.w3.org/2000/svg"
   xmlns:svg="http://www.w3.org/2000/svg">
  <defs
     id="defs1" />
  <sodipodi:namedview
     id="namedview1"
     pagecolor="#ffffff"
     bordercolor="#999999"
     borderopacity="1"
     inkscape:showpageshadow="2"
     inkscape:pageopacity="0"
     inkscape:pagecheckerboard="0"
     inkscape:deskcolor="#d1d1d1"
     inkscape:zoom="12.245804"
     inkscape:cx="10.942524"
     inkscape:cy="17.883677"
     inkscape:window-width="1920"
     inkscape:window-height="994"
     inkscape:window-x="0"
     inkscape:window-y="0"
     inkscape:window-maximized="1"
     inkscape:current-layer="svg1" />
  <style
     type="text/css"
     id="current-color-scheme">.ColorScheme-Text{color:#31363b;}.ColorScheme-Background{color:#E9E8E8;}.ColorScheme-ViewText{color:#31363b;}.ColorScheme-ViewBackground{color:#ffffff;}.ColorScheme-ViewHover{color:#000000;}.ColorScheme-ViewFocus{color:#5a5a5a;}.ColorScheme-ButtonText{color:#31363b;}.ColorScheme-ButtonBackground{color:#E9E8E8;}.ColorScheme-ButtonHover{color:#1489ff;}.ColorScheme-ButtonFocus { color: #2B74C7; } </style>
  <g
     id="22-22-applications-other"
     transform="translate(-32,-9.9999997)">
    <path
       style="clip-rule:evenodd;fill:#ffffc1;fill-opacity:0;fill-rule:evenodd;stroke-width:0.688964;stroke-linejoin:round;stroke-miterlimit:1.41421"
       d="M 32,9.9999997 V 32 H 54 V 9.9999997 Z"
       id="rect817-5-5"
       inkscape:connector-curvature="0" />
    <path
       style="color:#d1d5e9;fill:#bac8df;fill-opacity:1;stroke-width:1.25"
       d="m 43,11 c -5.53,0 -10,4.47 -10,10 0,5.53 4.47,10.000001 10,10.000001 C 48.53,31.000001 53,26.53 53,21 53,15.47 48.53,11 43,11 Z m 0,1.25 c 4.837483,0 8.75,3.9125 8.75,8.75 0,4.837484 -3.912517,8.75 -8.75,8.75 -4.837517,0 -8.75,-3.912516 -8.75,-8.75 0,-4.8375 3.912483,-8.75 8.75,-8.75 z m 0.937483,7.148748 v 0 0 0 0 0 c 0,0 -0.04242,0.01 0,0 z m -0.976242,5.625005 z"
       id="path58-0"
       sodipodi:nodetypes="ssssssssssccccccccccccccccc"
       class="ColorScheme-Text " />
    <path
       d="M 39.742636,15.00006 H 39.399382 C 38.074252,15.00006 37,16.074482 37,17.399874 v 0.343308 c 0,0.636596 0.252938,1.247136 0.703065,1.697133 0.450173,0.450082 1.060628,0.702809 1.69713,0.702552 h 2.742585 v -2.743011 c 0,-0.636596 -0.252814,-1.247135 -0.702977,-1.697303 -0.44996,-0.449783 -1.060192,-0.702511 -1.696364,-0.702511 h -8.59e-4"
       stroke-width="0.428573"
       id="path2618-3"
       style="fill:#bac8df;fill-opacity:1" />
    <path
       d="m 39.399782,21.857159 c -0.636562,0 -1.247227,0.252932 -1.697224,0.70311 -0.450033,0.450125 -0.702725,1.060621 -0.702548,1.697132 v 0.343249 c 0,0.636296 0.252858,1.246621 0.702855,1.696617 C 38.1529,26.747178 38.763313,27 39.399732,27 h 0.343617 c 0.636595,0 1.247048,-0.253052 1.697044,-0.703247 0.449998,-0.45004 0.702598,-1.060536 0.702468,-1.697046 v -2.742582 z"
       stroke-width="0.428573"
       id="path2620-6"
       style="fill:#bac8df;fill-opacity:1" />
    <path
       d="m 46.599728,21.857159 h -2.742496 v 2.743439 c 0,0.636502 0.252885,1.246793 0.703068,1.696789 0.45015,0.449989 1.060615,0.702715 1.69713,0.702501 h 0.343241 c 0.636292,0 1.246627,-0.252812 1.696624,-0.702715 0.449903,-0.449988 0.702761,-1.060279 0.702761,-1.696618 v -0.34324 c 0,-0.636716 -0.252581,-1.247221 -0.702761,-1.697475 -0.449987,-0.449911 -1.060369,-0.702673 -1.696624,-0.702715 h -8.51e-4"
       stroke-width="0.428573"
       id="path2622-7"
       style="fill:#bac8df;fill-opacity:1" />
    <path
       d="m 46.256874,15.00006 h -5.99e-4 c -0.636467,0 -1.246874,0.253002 -1.696954,0.703153 -0.44996,0.450168 -0.702725,1.060622 -0.702431,1.697045 v 2.742584 h 2.743019 c 0.636595,0 1.247047,-0.252883 1.697127,-0.703067 0.450127,-0.450169 0.702808,-1.060622 0.702641,-1.697218 V 17.399298 C 48.999677,16.074164 47.925249,15 46.599859,15 h -0.343298 z"
       stroke-width="0.428573"
       id="path2624-5"
       style="fill:#bac8df;fill-opacity:1" />
  </g>
</svg>
