<?xml version="1.0" encoding="UTF-8" standalone="no"?>
<svg
   sodipodi:docname="other.svg"
   inkscape:version="1.2.2 (b0a8486541, 2022-12-01)"
   id="svg1699"
   version="1.1"
   viewBox="0 0 8.4666662 8.4666662"
   height="8.4666662mm"
   width="8.4666662mm"
   xmlns:inkscape="http://www.inkscape.org/namespaces/inkscape"
   xmlns:sodipodi="http://sodipodi.sourceforge.net/DTD/sodipodi-0.dtd"
   xmlns="http://www.w3.org/2000/svg"
   xmlns:svg="http://www.w3.org/2000/svg"
   xmlns:rdf="http://www.w3.org/1999/02/22-rdf-syntax-ns#"
   xmlns:cc="http://creativecommons.org/ns#"
   xmlns:dc="http://purl.org/dc/elements/1.1/">
  <defs
     id="defs1693">
    <linearGradient
       id="linearGradient1028"
       x1="16"
       x2="16"
       y1="1091.5"
       y2="1121.5"
       gradientUnits="userSpaceOnUse">
      <stop
         stop-color="#9575cd"
         offset="0"
         id="stop1024"
         style="stop-color:#7d56c3;stop-opacity:1" />
      <stop
         stop-color="#cd75bc"
         offset="1"
         id="stop1026"
         style="stop-color:#963683;stop-opacity:1" />
    </linearGradient>
    <linearGradient
       id="a-9"
       x1="16"
       x2="16"
       y1="1091.5"
       y2="1121.5"
       gradientUnits="userSpaceOnUse">
      <stop
         stop-color="#9575cd"
         offset="0"
         id="stop1052" />
      <stop
         stop-color="#cd75bc"
         offset="1"
         id="stop1054" />
    </linearGradient>
  </defs>
  <sodipodi:namedview
     inkscape:document-rotation="0"
     inkscape:window-maximized="1"
     inkscape:window-y="0"
     inkscape:window-x="0"
     inkscape:window-height="1002"
     inkscape:window-width="1920"
     showgrid="true"
     inkscape:current-layer="layer1"
     inkscape:document-units="mm"
     inkscape:cy="15.374999"
     inkscape:cx="19.531249"
     inkscape:zoom="16.000001"
     inkscape:pageshadow="2"
     inkscape:pageopacity="0"
     borderopacity="1"
     bordercolor="#ff0e0e"
     pagecolor="#000000"
     id="base"
     inkscape:pagecheckerboard="true"
     inkscape:showpageshadow="false"
     inkscape:deskcolor="#000000">
    <inkscape:grid
       type="xygrid"
       id="grid844" />
  </sodipodi:namedview>
  <metadata
     id="metadata1696">
    <rdf:RDF>
      <cc:Work
         rdf:about="">
        <dc:format>image/svg+xml</dc:format>
        <dc:type
           rdf:resource="http://purl.org/dc/dcmitype/StillImage" />
      </cc:Work>
    </rdf:RDF>
  </metadata>
  <g
     transform="translate(-98.729144,-81.918987)"
     id="layer1"
     inkscape:groupmode="layer"
     inkscape:label="Layer 1">
    <g
       id="system-switch-user"
       transform="matrix(0.26458333,0,0,0.26458333,23.852062,81.918987)">
      <g
         id="g1729">
        <circle
           style="opacity:0;fill:none;fill-opacity:1;stroke-width:1.06667"
           id="circle955"
           r="16"
           cy="-16"
           cx="299"
           transform="scale(1,-1)" />
      </g>
    </g>
    <path
       style="color:#e5e9ef;fill:#bac8df;fill-opacity:1;stroke:none;stroke-width:0.500001"
       d="m 105.23144,84.168987 c -0.12869,0 -0.24765,0.03562 -0.35352,0.09277 6e-5,6.54e-4 -0.0327,0.02009 -0.0327,0.02079 0.0395,0.499351 -0.0858,0.817049 -0.22863,1.065144 0.13607,0.193705 0.3604,0.321296 0.6148,0.321296 0.35261,0 0.64834,-0.243369 0.72851,-0.571289 0.0132,-0.05728 0.0215,-0.117108 0.0215,-0.178715 0,-0.414213 -0.33579,-0.75 -0.74999,-0.75 z m -4.50229,0 c 0.1287,0 0.24766,0.03562 0.35352,0.09277 -6e-5,6.54e-4 0.0327,0.02009 0.0327,0.02079 -0.0395,0.499351 0.0858,0.817049 0.22863,1.065144 -0.13607,0.193705 -0.3604,0.321296 -0.6148,0.321296 -0.35261,0 -0.64834,-0.243369 -0.72851,-0.571289 -0.0132,-0.05728 -0.0216,-0.117108 -0.0216,-0.178715 0,-0.414213 0.33581,-0.75 0.75002,-0.75 z m -2e-5,1.999995 c 0.42161,0 0.7914,0.194398 1.01759,0.507814 -0.127,0.06729 -0.25609,0.149953 -0.36815,0.21679 -0.12321,-0.145285 -0.35235,-0.224603 -0.64944,-0.224603 -0.45012,0 -0.749996,0.330274 -0.749996,1.000005 h 0.625016 l -0.25,0.499999 h -0.875006 v -0.75977 c 0,-0.719486 0.557556,-1.240235 1.249986,-1.240235 z m 4.5,6e-6 c -0.42158,0 -0.79137,0.194396 -1.01756,0.507812 0.12699,0.06729 0.25608,0.149952 0.36815,0.216789 0.12321,-0.145285 0.35234,-0.224602 0.64941,-0.224602 0.45015,0 0.75001,0.341649 0.75001,1.000001 h -0.625 l 0.25,0.499999 h 0.875 v -0.759764 c 0,-0.719486 -0.55756,-1.240235 -1.25001,-1.240235 z m -2.24999,0.999999 c 1.00001,0 2,0.500001 2,2.000001 h -3.99999 c 0,-1.5 0.99999,-2.000001 1.99999,-2.000001 z m 0,-0.5 c -1.45413,0 -2.49603,1.022425 -2.499,2.500001 l -0.001,0.499999 h 5.00001 l -0.001,-0.499999 c -0.004,-1.485451 -1.04487,-2.500001 -2.49901,-2.500001 z m 2e-5,-4 c -0.9665,0 -1.75001,0.7835 -1.75001,1.749999 0,0.966502 0.78351,1.750002 1.75001,1.750002 0.82279,0 1.51295,-0.567806 1.70001,-1.332947 0.0327,-0.133663 0.0501,-0.273329 0.0501,-0.417055 0,-0.966499 -0.78351,-1.749999 -1.75003,-1.749999 z"
       id="path340-1-2"
       class="ColorScheme-Text" />
  </g>
</svg>
