<?xml version="1.0" encoding="UTF-8" standalone="no"?>
<svg
   width="89.999977"
   height="82"
   id="svg7229"
   sodipodi:version="0.32"
   inkscape:version="1.3.2 (091e20ef0f, 2023-11-25)"
   version="1.0"
   sodipodi:docname="action-overlays.svg"
   inkscape:output_extension="org.inkscape.output.svg.inkscape"
   xmlns:inkscape="http://www.inkscape.org/namespaces/inkscape"
   xmlns:sodipodi="http://sodipodi.sourceforge.net/DTD/sodipodi-0.dtd"
   xmlns="http://www.w3.org/2000/svg"
   xmlns:svg="http://www.w3.org/2000/svg"
   xmlns:rdf="http://www.w3.org/1999/02/22-rdf-syntax-ns#"
   xmlns:cc="http://creativecommons.org/ns#"
   xmlns:dc="http://purl.org/dc/elements/1.1/">
  <defs
     id="defs7231">
    <linearGradient
       id="linearGradient928">
      <stop
         style="stop-color:#0066ff;stop-opacity:1"
         offset="0"
         id="stop924" />
      <stop
         style="stop-color:#6c5fb9;stop-opacity:1"
         offset="1"
         id="stop926" />
    </linearGradient>
    <linearGradient
       id="linearGradient925">
      <stop
         id="stop921"
         offset="0"
         style="stop-color:#0066ff;stop-opacity:1" />
      <stop
         id="stop923"
         offset="1"
         style="stop-color:#94bfff;stop-opacity:1" />
    </linearGradient>
    <linearGradient
       id="linearGradient922">
      <stop
         style="stop-color:#ffffff;stop-opacity:1"
         offset="0"
         id="stop918" />
      <stop
         style="stop-color:#1a4673;stop-opacity:1"
         offset="1"
         id="stop920" />
    </linearGradient>
    <linearGradient
       id="linearGradient3241">
      <stop
         id="stop3243"
         offset="0"
         style="stop-color:#000000;stop-opacity:1;" />
      <stop
         style="stop-color:#000000;stop-opacity:0.61864406;"
         offset="0.765625"
         id="stop3247" />
      <stop
         id="stop3263"
         offset="0.84985352"
         style="stop-color:#000000;stop-opacity:0.27966103;" />
      <stop
         style="stop-color:#000000;stop-opacity:0.08474576;"
         offset="0.92258072"
         id="stop3265" />
      <stop
         id="stop3245"
         offset="1"
         style="stop-color:#000000;stop-opacity:0;" />
    </linearGradient>
    <linearGradient
       id="linearGradient4158">
      <stop
         id="stop4160"
         offset="0"
         style="stop-color:#ffffff;stop-opacity:1;" />
      <stop
         id="stop4162"
         offset="1"
         style="stop-color:#2a2a2a;stop-opacity:1;" />
    </linearGradient>
    <linearGradient
       id="linearGradient3241-6">
      <stop
         id="stop3243-5"
         offset="0"
         style="stop-color:#000000;stop-opacity:1;" />
      <stop
         style="stop-color:#000000;stop-opacity:0.61864406;"
         offset="0.765625"
         id="stop3247-6" />
      <stop
         id="stop3263-3"
         offset="0.84985352"
         style="stop-color:#000000;stop-opacity:0.27966103;" />
      <stop
         style="stop-color:#000000;stop-opacity:0.08474576;"
         offset="0.92258072"
         id="stop3265-9" />
      <stop
         id="stop3245-4"
         offset="1"
         style="stop-color:#000000;stop-opacity:0;" />
    </linearGradient>
    <linearGradient
       id="linearGradient4158-1">
      <stop
         id="stop4160-2"
         offset="0"
         style="stop-color:#ffffff;stop-opacity:1;" />
      <stop
         id="stop4162-9"
         offset="1"
         style="stop-color:#2a2a2a;stop-opacity:1;" />
    </linearGradient>
    <linearGradient
       id="linearGradient3241-7">
      <stop
         id="stop3243-1"
         offset="0"
         style="stop-color:#000000;stop-opacity:1;" />
      <stop
         style="stop-color:#000000;stop-opacity:0.61864406;"
         offset="0.765625"
         id="stop3247-3" />
      <stop
         id="stop3263-8"
         offset="0.84985352"
         style="stop-color:#000000;stop-opacity:0.27966103;" />
      <stop
         style="stop-color:#000000;stop-opacity:0.08474576;"
         offset="0.92258072"
         id="stop3265-0" />
      <stop
         id="stop3245-9"
         offset="1"
         style="stop-color:#000000;stop-opacity:0;" />
    </linearGradient>
    <linearGradient
       id="linearGradient4158-9">
      <stop
         id="stop4160-9"
         offset="0"
         style="stop-color:#ffffff;stop-opacity:1;" />
      <stop
         id="stop4162-3"
         offset="1"
         style="stop-color:#2a2a2a;stop-opacity:1;" />
    </linearGradient>
    <linearGradient
       id="linearGradient3241-5">
      <stop
         id="stop3243-17"
         offset="0"
         style="stop-color:#000000;stop-opacity:1;" />
      <stop
         style="stop-color:#000000;stop-opacity:0.61864406;"
         offset="0.765625"
         id="stop3247-4" />
      <stop
         id="stop3263-1"
         offset="0.84985352"
         style="stop-color:#000000;stop-opacity:0.27966103;" />
      <stop
         style="stop-color:#000000;stop-opacity:0.08474576;"
         offset="0.92258072"
         id="stop3265-7" />
      <stop
         id="stop3245-1"
         offset="1"
         style="stop-color:#000000;stop-opacity:0;" />
    </linearGradient>
    <linearGradient
       id="linearGradient4158-17">
      <stop
         id="stop4160-0"
         offset="0"
         style="stop-color:#ffffff;stop-opacity:1;" />
      <stop
         id="stop4162-4"
         offset="1"
         style="stop-color:#2a2a2a;stop-opacity:1;" />
    </linearGradient>
  </defs>
  <sodipodi:namedview
     id="base"
     pagecolor="#000000"
     bordercolor="#0002cc"
     borderopacity="1"
     inkscape:pageopacity="1"
     inkscape:pageshadow="2"
     inkscape:zoom="3.3696694"
     inkscape:cx="57.424031"
     inkscape:cy="93.777746"
     inkscape:document-units="px"
     inkscape:current-layer="layer1"
     showgrid="true"
     inkscape:window-width="1920"
     inkscape:window-height="990"
     inkscape:window-x="0"
     inkscape:window-y="0"
     showguides="false"
     inkscape:guide-bbox="true"
     gridtolerance="6"
     inkscape:window-maximized="1"
     inkscape:document-rotation="0"
     inkscape:lockguides="false"
     inkscape:showpageshadow="false"
     inkscape:pagecheckerboard="true"
     inkscape:deskcolor="#000000">
    <inkscape:grid
       type="xygrid"
       id="grid7245"
       visible="true"
       enabled="true"
       originx="-4.9999676"
       originy="-7.9999478"
       spacingy="1"
       spacingx="1"
       units="px" />
  </sodipodi:namedview>
  <metadata
     id="metadata7234">
    <rdf:RDF>
      <cc:Work
         rdf:about="">
        <dc:format>image/svg+xml</dc:format>
        <dc:type
           rdf:resource="http://purl.org/dc/dcmitype/StillImage" />
      </cc:Work>
    </rdf:RDF>
  </metadata>
  <g
     inkscape:label="Camada 1"
     inkscape:groupmode="layer"
     id="layer1"
     transform="translate(-219.53572,-334.50504)">
    <g
       id="open-normal">
      <rect
         style="opacity:0.5;fill:none;fill-opacity:1;stroke:none;stroke-width:3.77953"
         id="rect4312-0"
         width="21.999994"
         height="22"
         x="219.53572"
         y="364.50504" />
      <rect
         ry="4.9999981"
         rx="5"
         y="367.00504"
         x="222.03572"
         height="16.999973"
         width="16.999998"
         id="rect889-61"
         style="fill:#262b40;fill-opacity:1;stroke:none;stroke-width:0.25;stroke-linejoin:round" />
      <path
         id="rect923-8"
         style="opacity:0.1;fill:#d1d5e9;fill-opacity:1;stroke:none;stroke-width:0.25;stroke-linejoin:round"
         d="m 227.03572,367.00509 c -2.77,0 -5,2.23002 -5,5 v 7 c 0,2.77001 2.23,4.99999 5,4.99999 h 7 c 2.77,0 5,-2.22998 5,-4.99999 v -7 c 0,-2.76998 -2.23,-5 -5,-5 z m 0,1 h 7 c 2.21598,0 4,1.78402 4,4 v 7 c 0,2.21597 -1.78402,3.99999 -4,3.99999 h -7 c -2.21598,0 -4,-1.78402 -4,-3.99999 v -7 c 0,-2.21598 1.78402,-4 4,-4 z" />
      <path
         d="m 225.79422,376.87414 3.9789,-3.96923 0.15544,-0.14972 c 0.33354,-0.33353 0.88926,-0.33353 1.22265,0 l 0.15567,0.14972 3.97875,3.96923 c 0.33345,0.33362 0.33345,0.88597 0,1.21957 l -0.15561,0.14957 c -0.33345,0.33361 -0.88902,0.33361 -1.22264,0 l -3.36736,-3.34817 -3.3678,3.35974 c -0.33322,0.33359 -0.889,0.33359 -1.22247,0 l -0.15553,-0.14974 c -0.34467,-0.345 -0.34467,-0.88565 0,-1.23094 z"
         fill-rule="evenodd"
         id="path76-3-6"
         style="fill:#d1d5e9;fill-opacity:1;stroke-width:0.0201927" />
    </g>
    <g
       id="add-hover">
      <rect
         y="334.50504"
         x="287.53571"
         height="22"
         width="21.999994"
         id="rect4208-2-7"
         style="opacity:0.5;fill:none;fill-opacity:1;stroke:none;stroke-width:3.77953" />
      <rect
         ry="4.9999976"
         rx="5"
         y="337.0051"
         x="290.03571"
         height="16.999973"
         width="16.999998"
         id="rect889-62-2"
         style="fill:#292e44;fill-opacity:1;stroke:none;stroke-width:0.25;stroke-linejoin:round" />
      <path
         id="rect923-9-7"
         style="opacity:0.1;fill:#d1d5e9;fill-opacity:1;stroke:none;stroke-width:0.25;stroke-linejoin:round"
         d="m 295.03573,337.00505 c -2.77,0 -5,2.23002 -5,5 v 6.99999 c 0,2.77002 2.23,5 5,5 h 7 c 2.77,0 5,-2.22998 5,-5 v -6.99999 c 0,-2.76998 -2.23,-5 -5,-5 z m 0,1 h 7 c 2.21598,0 4,1.78402 4,4 v 6.99999 c 0,2.21598 -1.78402,4 -4,4 h -7 c -2.21598,0 -4,-1.78402 -4,-4 v -6.99999 c 0,-2.21598 1.78402,-4 4,-4 z" />
      <path
         inkscape:connector-curvature="0"
         style="fill:#24dba5;fill-opacity:1;stroke:none;stroke-width:0.7169"
         d="m 297.4643,341.57648 v 2.85714 h -2.85714 c -1.42857,0 -1.42857,2.14286 0,2.14286 h 2.85714 v 2.85713 c -0.0151,1.42857 2.14286,1.42857 2.14286,0 v -2.85713 h 2.85714 c 1.42857,0 1.42857,-2.14286 0,-2.14286 h -2.85714 l 10e-6,-2.85714 c 0,-1.42857 -2.14285,-1.42857 -2.14285,0 z"
         id="rect3073-1-0"
         sodipodi:nodetypes="cccccccccccccc" />
    </g>
    <g
       id="add-normal">
      <rect
         y="334.50504"
         x="219.53572"
         height="22"
         width="21.999994"
         id="rect4208"
         style="opacity:0.5;fill:none;fill-opacity:1;stroke:none;stroke-width:3.77953" />
      <rect
         ry="5"
         rx="5"
         y="337.00507"
         x="222.03572"
         height="16.999981"
         width="16.999998"
         id="rect889"
         style="fill:#262b40;fill-opacity:1;stroke:none;stroke-width:0.25;stroke-linejoin:round" />
      <path
         id="rect923"
         style="opacity:0.1;fill:#d1d5e9;fill-opacity:1;stroke:none;stroke-width:0.25;stroke-linejoin:round"
         d="m 227.03572,337.00504 c -2.77,0 -5,2.23002 -5,5 v 7 c 0,2.77002 2.23,5 5,5 h 7 c 2.77,0 5,-2.22998 5,-5 v -7 c 0,-2.76998 -2.23,-5 -5,-5 z m 0,1 h 7 c 2.21598,0 4,1.78402 4,4 v 7 c 0,2.21598 -1.78402,4 -4,4 h -7 c -2.21598,0 -4,-1.78402 -4,-4 v -7 c 0,-2.21598 1.78402,-4 4,-4 z" />
      <path
         inkscape:connector-curvature="0"
         style="fill:#d1d5e9;fill-opacity:1;stroke:none;stroke-width:0.7169"
         d="m 229.46429,341.57647 v 2.85714 h -2.85714 c -1.42857,0 -1.42857,2.14286 0,2.14286 h 2.85714 v 2.85714 c -0.0151,1.42857 2.14286,1.42857 2.14286,0 v -2.85714 h 2.85714 c 1.42857,0 1.42857,-2.14286 0,-2.14286 h -2.85714 l 1e-5,-2.85714 c 0,-1.42857 -2.14285,-1.42857 -2.14285,0 z"
         id="rect3073"
         sodipodi:nodetypes="cccccccccccccc" />
    </g>
    <g
       id="add-pressed">
      <rect
         y="334.50504"
         x="253.53572"
         height="22"
         width="21.999994"
         id="rect4208-2"
         style="opacity:0.5;fill:none;fill-opacity:1;stroke:none;stroke-width:3.77953" />
      <rect
         ry="4.9999976"
         rx="5"
         y="337.0051"
         x="256.03571"
         height="16.999973"
         width="16.999998"
         id="rect889-62"
         style="fill:#2f3751;fill-opacity:1;stroke:none;stroke-width:0.25;stroke-linejoin:round" />
      <path
         id="rect923-9"
         style="opacity:0.1;fill:#d1d5e9;fill-opacity:1;stroke:none;stroke-width:0.25;stroke-linejoin:round"
         d="m 261.03573,337.00505 c -2.77,0 -5,2.23002 -5,5 v 6.99999 c 0,2.77002 2.23,5 5,5 h 7 c 2.77,0 5,-2.22998 5,-5 v -6.99999 c 0,-2.76998 -2.23,-5 -5,-5 z m 0,1 h 7 c 2.21598,0 4,1.78402 4,4 v 6.99999 c 0,2.21598 -1.78402,4 -4,4 h -7 c -2.21598,0 -4,-1.78402 -4,-4 v -6.99999 c 0,-2.21598 1.78402,-4 4,-4 z" />
      <path
         inkscape:connector-curvature="0"
         style="fill:#24dba5;fill-opacity:1;stroke:none;stroke-width:0.7169"
         d="m 263.4643,341.57648 v 2.85714 h -2.85714 c -1.42857,0 -1.42857,2.14286 0,2.14286 h 2.85714 v 2.85713 c -0.0151,1.42857 2.14286,1.42857 2.14286,0 v -2.85713 h 2.85714 c 1.42857,0 1.42857,-2.14286 0,-2.14286 h -2.85714 l 10e-6,-2.85714 c 0,-1.42857 -2.14285,-1.42857 -2.14285,0 z"
         id="rect3073-1"
         sodipodi:nodetypes="cccccccccccccc" />
    </g>
    <g
       id="open-pressed">
      <rect
         style="opacity:0.5;fill:none;fill-opacity:1;stroke:none;stroke-width:3.77953"
         id="rect4312-5-7"
         width="21.999994"
         height="22"
         x="253.53572"
         y="364.50504" />
      <rect
         ry="5"
         rx="4.9999957"
         y="367.00504"
         x="256.03571"
         height="16.999981"
         width="16.999983"
         id="rect889-9"
         style="fill:#2f3651;fill-opacity:1;stroke:none;stroke-width:0.25;stroke-linejoin:round" />
      <path
         id="rect923-3"
         style="opacity:0.1;fill:#d1d5e9;fill-opacity:1;stroke:none;stroke-width:0.25;stroke-linejoin:round"
         d="m 261.03578,367.00513 c -2.77,0 -5,2.23002 -5,5 v 7 c 0,2.77002 2.23,5 5,5 h 6.99999 c 2.77,0 5,-2.22998 5,-5 v -7 c 0,-2.76998 -2.23,-5 -5,-5 z m 0,1 h 6.99999 c 2.21598,0 4,1.78402 4,4 v 7 c 0,2.21598 -1.78402,4 -4,4 h -6.99999 c -2.21598,0 -4,-1.78402 -4,-4 v -7 c 0,-2.21598 1.78402,-4 4,-4 z" />
      <path
         d="m 259.79422,376.87414 3.9789,-3.96923 0.15544,-0.14972 c 0.33354,-0.33353 0.88926,-0.33353 1.22265,0 l 0.15567,0.14972 3.97875,3.96923 c 0.33345,0.33362 0.33345,0.88597 0,1.21957 l -0.15561,0.14957 c -0.33345,0.33361 -0.88902,0.33361 -1.22264,0 l -3.36736,-3.34817 -3.3678,3.35974 c -0.33322,0.33359 -0.889,0.33359 -1.22247,0 l -0.15553,-0.14974 c -0.34467,-0.345 -0.34467,-0.88565 0,-1.23094 z"
         fill-rule="evenodd"
         id="path76-3-6-1"
         style="fill:#67a4fe;fill-opacity:1;stroke-width:0.0201927" />
    </g>
    <g
       id="open-hover">
      <rect
         style="opacity:0.5;fill:none;fill-opacity:1;stroke:none;stroke-width:3.77953"
         id="rect4312-5-2-3"
         width="21.999994"
         height="22"
         x="287.53571"
         y="364.50504" />
      <rect
         ry="5"
         rx="5"
         y="367.00507"
         x="290.0358"
         height="16.999981"
         width="16.999998"
         id="rect889-0"
         style="fill:#262b40;fill-opacity:1;stroke:none;stroke-width:0.25;stroke-linejoin:round" />
      <path
         id="rect923-6"
         style="opacity:0.1;fill:#d1d5e9;fill-opacity:1;stroke:none;stroke-width:0.25;stroke-linejoin:round"
         d="m 295.03572,367.00504 c -2.77,0 -5,2.23002 -5,5 v 7 c 0,2.77002 2.23,5 5,5 h 7 c 2.77,0 5,-2.22998 5,-5 v -7 c 0,-2.76998 -2.23,-5 -5,-5 z m 0,1 h 7 c 2.21598,0 4,1.78402 4,4 v 7 c 0,2.21598 -1.78402,4 -4,4 h -7 c -2.21598,0 -4,-1.78402 -4,-4 v -7 c 0,-2.21598 1.78402,-4 4,-4 z" />
      <path
         d="m 293.79422,376.87414 3.9789,-3.96923 0.15544,-0.14972 c 0.33354,-0.33353 0.88926,-0.33353 1.22265,0 l 0.15567,0.14972 3.97875,3.96923 c 0.33345,0.33362 0.33345,0.88597 0,1.21957 l -0.15561,0.14957 c -0.33345,0.33361 -0.88902,0.33361 -1.22264,0 l -3.36736,-3.34817 -3.3678,3.35974 c -0.33322,0.33359 -0.889,0.33359 -1.22247,0 l -0.15553,-0.14974 c -0.34467,-0.345 -0.34467,-0.88565 0,-1.23094 z"
         fill-rule="evenodd"
         id="path76-3-6-2"
         style="fill:#67a4fe;fill-opacity:1;stroke-width:0.0201927" />
    </g>
    <g
       id="remove-normal">
      <rect
         style="opacity:0.5;fill:none;fill-opacity:1;stroke:none;stroke-width:3.77953"
         id="rect4312"
         width="21.999994"
         height="22"
         x="219.53572"
         y="394.50504" />
      <rect
         ry="5.0000038"
         rx="5"
         y="397.00504"
         x="222.03572"
         height="16.999992"
         width="16.999998"
         id="rect889-89"
         style="fill:#262b40;fill-opacity:1;stroke:none;stroke-width:0.25;stroke-linejoin:round" />
      <path
         id="rect923-7"
         style="opacity:0.1;fill:#d1d5e9;fill-opacity:1;stroke:none;stroke-width:0.25;stroke-linejoin:round"
         d="m 227.03574,397.00513 c -2.77,0 -5,2.23002 -5,5 v 7.00001 c 0,2.77002 2.23,5 5,5 h 7 c 2.77,0 5,-2.22998 5,-5 v -7.00001 c 0,-2.76998 -2.23,-5 -5,-5 z m 0,1 h 7 c 2.21598,0 4,1.78402 4,4 v 7.00001 c 0,2.21598 -1.78402,4 -4,4 h -7 c -2.21598,0 -4,-1.78402 -4,-4 v -7.00001 c 0,-2.21598 1.78402,-4 4,-4 z" />
      <rect
         style="fill:#d1d5e9;fill-opacity:1;stroke:none;stroke-width:0.716113"
         id="rect3894-9"
         width="10"
         height="2"
         x="225.53572"
         y="404.50504"
         ry="1" />
    </g>
    <g
       id="remove-hover">
      <rect
         style="opacity:0.5;fill:none;fill-opacity:1;stroke:none;stroke-width:3.77953"
         id="rect4312-5-2"
         width="21.999994"
         height="22"
         x="287.53571"
         y="394.50504" />
      <rect
         ry="5.0000038"
         rx="5"
         y="397.00513"
         x="290.03571"
         height="16.999992"
         width="16.999998"
         id="rect889-89-3"
         style="fill:#262b40;fill-opacity:1;stroke:none;stroke-width:0.25;stroke-linejoin:round" />
      <path
         id="rect923-7-1"
         style="opacity:0.1;fill:#d1d5e9;fill-opacity:1;stroke:none;stroke-width:0.25;stroke-linejoin:round"
         d="m 295.03578,397.00504 c -2.77,0 -5,2.23002 -5,5 v 7.00001 c 0,2.77002 2.23,5 5,5 h 7 c 2.77,0 5,-2.22998 5,-5 v -7.00001 c 0,-2.76998 -2.23,-5 -5,-5 z m 0,1 h 7 c 2.21598,0 4,1.78402 4,4 v 7.00001 c 0,2.21598 -1.78402,4 -4,4 h -7 c -2.21598,0 -4,-1.78402 -4,-4 v -7.00001 c 0,-2.21598 1.78402,-4 4,-4 z" />
      <rect
         style="fill:#d45e8d;fill-opacity:1;stroke:none;stroke-width:0.716113"
         id="rect3894-9-9"
         width="10"
         height="2"
         x="293.53571"
         y="404.50513"
         ry="1" />
    </g>
    <g
       id="remove-pressed">
      <rect
         style="opacity:0.5;fill:none;fill-opacity:1;stroke:none;stroke-width:3.77953"
         id="rect4312-5"
         width="21.999994"
         height="22"
         x="253.53572"
         y="394.50504" />
      <rect
         ry="5.0000038"
         rx="5"
         y="397.00504"
         x="256.03577"
         height="16.999992"
         width="16.999998"
         id="rect889-89-4"
         style="fill:#30354f;fill-opacity:1;stroke:none;stroke-width:0.25;stroke-linejoin:round" />
      <path
         id="rect923-7-7"
         style="opacity:0.1;fill:#d1d5e9;fill-opacity:1;stroke:none;stroke-width:0.25;stroke-linejoin:round"
         d="m 261.03578,397.00526 c -2.77,0 -5,2.23002 -5,5 v 7.00001 c 0,2.77002 2.23,5 5,5 h 7 c 2.77,0 5,-2.22998 5,-5 v -7.00001 c 0,-2.76998 -2.23,-5 -5,-5 z m 0,1 h 7 c 2.21598,0 4,1.78402 4,4 v 7.00001 c 0,2.21598 -1.78402,4 -4,4 h -7 c -2.21598,0 -4,-1.78402 -4,-4 v -7.00001 c 0,-2.21598 1.78402,-4 4,-4 z" />
      <rect
         style="fill:#d45e8d;fill-opacity:1;stroke:none;stroke-width:0.716113"
         id="rect3894-9-8"
         width="10"
         height="2"
         x="259.53577"
         y="404.50504"
         ry="1" />
    </g>
  </g>
</svg>
