<?xml version="1.0" encoding="UTF-8" standalone="no"?>
<svg
   viewBox="0 0 21.999996 22"
   width="21.999996"
   height="22"
   version="1.1"
   id="svg8"
   sodipodi:docname="audio-volume-muted.svg"
   inkscape:version="1.3.2 (091e20ef0f, 2023-11-25)"
   xmlns:inkscape="http://www.inkscape.org/namespaces/inkscape"
   xmlns:sodipodi="http://sodipodi.sourceforge.net/DTD/sodipodi-0.dtd"
   xmlns="http://www.w3.org/2000/svg"
   xmlns:svg="http://www.w3.org/2000/svg">
  <defs
     id="defs8" />
  <sodipodi:namedview
     id="namedview8"
     pagecolor="#ffffff"
     bordercolor="#999999"
     borderopacity="1"
     inkscape:showpageshadow="2"
     inkscape:pageopacity="0"
     inkscape:pagecheckerboard="0"
     inkscape:deskcolor="#d1d1d1"
     inkscape:zoom="11.22532"
     inkscape:cx="11.224624"
     inkscape:cy="10.690118"
     inkscape:window-width="1920"
     inkscape:window-height="994"
     inkscape:window-x="0"
     inkscape:window-y="0"
     inkscape:window-maximized="1"
     inkscape:current-layer="svg8" />
  <style
     id="current-color-scheme"
     type="text/css">.ColorScheme-Text { color:#232629; }
.ColorScheme-NegativeText { color: #da4453; }
</style>
  <g
     id="22-22-audio-volume-muted"
     style="fill:#bac8df;fill-opacity:1">
    <path
       style="opacity:0.00100002;fill:#bac8df;fill-opacity:1"
       d="M 0,0 H 21.999997 V 22 H 0 Z"
       id="path26" />
    <path
       d="M 3.1666045,2.2009978 C 2.9030064,1.9330093 2.4756117,1.9329973 2.2120129,2.2009825 1.948404,2.4689565 1.948394,2.9034444 2.2119925,3.1714407 L 6.1,7.0833344 H 4.0393003 C 3,7.0833344 2,8 2,9 v 4 c 0,1.000006 1,2.017 2.0393164,2.017 H 7 v 0 l 4,3.453003 c 1,0.915 2.064,0.508809 2.064,-0.410733 v -3.764873 l 5.797762,5.804611 c 0.263606,0.267989 0.691013,0.267989 0.954625,0 0.263604,-0.267982 0.263604,-0.70251 0,-0.970487 z M 12,13.183335 v 4.575001 L 8.5,14.8 C 7.7,14 7.6,14 7,14 v -5.8999988 0 0 0 0 0 z"
       id="path1707-3-6"
       style="stroke-width:0.907445;fill-opacity:1;fill:currentColor;"
       sodipodi:nodetypes="ccccsssscccscccccccccccccscc"
       class="ColorScheme-Text" />
    <path
       d="m 12,4.3049341 v 4.9600613 l 1.064,1.3491766 V 3.9659595 c 0,-1.187 -1.064,-1.187 -1.636,-0.503 L 8.8682016,5.683102 9.612,6.4259595 Z"
       id="path1709-5-7"
       style="stroke-width:0.899975;fill-opacity:1;fill:currentColor;"
       sodipodi:nodetypes="cccscccc"
       class="ColorScheme-Text" />
    <path
       d="m 15.641195,12.762787 1.024202,1.024252 c 0.415617,-0.841017 0.648899,-1.787868 0.648899,-2.787445 0,-1.082832 -0.273782,-2.1037265 -0.75636,-2.9952305 -0.177475,-0.327831 -0.587158,-0.449713 -0.914941,-0.272249 -0.327859,0.177472 -0.449817,0.587084 -0.272342,0.914903 0.378453,0.699073 0.593645,1.4996805 0.593645,2.3525765 0,0.621873 -0.114391,1.216025 -0.323103,1.763193 z"
       id="path1711-6-5"
       style="stroke-width:0.899975;fill-opacity:0.5;fill:currentColor;"
       class="ColorScheme-Text" />
    <path
       d="m 17.663589,14.785181 0.984062,0.984012 c 0.865973,-1.382961 1.366648,-3.018549 1.366648,-4.769599 0,-2.0034255 -0.655469,-3.8557115 -1.763372,-5.3515205 -0.221942,-0.2995479 -0.644669,-0.3625299 -0.944191,-0.140655 -0.299613,0.22187 -0.362516,0.644567 -0.140671,0.944127 0.941581,1.271235 1.498236,2.843706 1.498236,4.5480485 0,1.377925 -0.363783,2.669548 -1.000712,3.785587 z"
       id="path1713-2-3"
       style="stroke-width:0.899975;fill-opacity:0.5;fill:currentColor;"
       class="ColorScheme-Text" />
    <path
       d="m 3.5,10.999992 c 0,0.828835 -0.6711751,1.500007 -1.5000012,1.500007 C 1.1718717,12.500001 0.5,11.828828 0.5,10.999992 0.5,10.171867 1.1718717,9.5 1.9999988,9.5 2.8288249,9.5 3.5,10.171867 3.5,10.999992 Z"
       id="path72-3-7-3-9-3-5"
       style="stroke-width:0.017857;fill-opacity:1;fill:currentColor;"
       class="ColorScheme-Text" />
  </g>
</svg>
