<?xml version="1.0" encoding="UTF-8" standalone="no"?>
<svg
   viewBox="0 0 22 22"
   width="22"
   height="22"
   version="1.1"
   id="svg5"
   sodipodi:docname="audio-volume-high-danger.svg"
   inkscape:version="1.3.2 (091e20ef0f, 2023-11-25)"
   xmlns:inkscape="http://www.inkscape.org/namespaces/inkscape"
   xmlns:sodipodi="http://sodipodi.sourceforge.net/DTD/sodipodi-0.dtd"
   xmlns="http://www.w3.org/2000/svg"
   xmlns:svg="http://www.w3.org/2000/svg">
  <defs
     id="defs5" />
  <sodipodi:namedview
     id="namedview5"
     pagecolor="#ffffff"
     bordercolor="#999999"
     borderopacity="1"
     inkscape:showpageshadow="2"
     inkscape:pageopacity="0"
     inkscape:pagecheckerboard="0"
     inkscape:deskcolor="#d1d1d1"
     inkscape:zoom="15.875"
     inkscape:cx="10.708661"
     inkscape:cy="16.440945"
     inkscape:window-width="1920"
     inkscape:window-height="994"
     inkscape:window-x="0"
     inkscape:window-y="0"
     inkscape:window-maximized="1"
     inkscape:current-layer="svg5" />
  <style
     id="current-color-scheme"
     type="text/css">.ColorScheme-Text { color: #fcfcfc; }
</style>
  <path
     style="opacity:0.00100002;fill:#d3dae3;fill-opacity:1"
     d="M 0,0 H 22 V 22 H 0 Z"
     id="path7-5" />
  <path
     d="M 14,4.037017 C 14,3.078269 12.823544,2.669884 12.079538,3.306915 L 7.933484,6.856385 C 7.80675,6.964889 7.643075,7.023986 7.473484,7.023986 H 4.076925 C 2.92987,7.023986 2,7.920232 2,9.024771 v 3.998035 c 0,1.104503 0.92987,2.001116 2.076925,2.001116 h 3.396512 c 0.169603,0 0.333301,0.05871 0.46004,0.167239 l 4.145971,3.54986 c 0.744095,0.637173 1.920555,0.282996 1.920555,-0.717004 z m -5.146519,3.516 4.146522,-3.529 v 14 l -4.146475,-3.529 c -0.380217,-0.325592 -0.87131,-0.471 -1.380091,-0.471 L 7.473,8 v 0 0 0.02402 h 4.84e-4 c 0.508744,0 0.999793,-0.145506 1.379997,-0.471 z"
     id="path2057-3"
     style="stroke-width:0.905853;fill-opacity:1;fill:currentColor;"
     sodipodi:nodetypes="sccssssssccssccccsccccsc"
     class="ColorScheme-Text" />
  <path
     d="M 17.375045,5.816392 C 17.676489,5.606042 18.101936,5.66575 18.325298,5.949738 19.440319,7.36783 20.1,9.123895 20.1,11.023209 c 0,1.899316 -0.659681,3.65538 -1.774702,5.073491 -0.223363,0.284028 -0.648809,0.34367 -0.950253,0.133348 -0.301535,-0.210312 -0.364851,-0.611062 -0.141567,-0.895089 0.947626,-1.205154 1.507854,-2.695867 1.507854,-4.31175 0,-1.615798 -0.560226,-3.106548 -1.507854,-4.311739 C 17.010194,6.427481 17.07351,6.026739 17.375045,5.816392 Z"
     id="path2059-6"
     style="fill:#c83771;fill-opacity:1;stroke-width:0.879133" />
  <path
     d="m 15.74946,7.927289 c 0.323713,-0.168241 0.7283,-0.0527 0.90357,0.258103 0.476589,0.845191 0.74697,1.813025 0.74697,2.839599 0,1.026573 -0.27038,1.994448 -0.74697,2.839633 -0.17527,0.310737 -0.579857,0.426345 -0.90357,0.258094 -0.323789,-0.168252 -0.444221,-0.556631 -0.268954,-0.867369 0.373747,-0.662766 0.586267,-1.421779 0.586267,-2.230358 0,-0.80858 -0.212519,-1.567593 -0.586267,-2.230336 C 15.305239,8.48387 15.425646,8.095534 15.74946,7.927289 Z"
     id="path2061-7"
     style="fill:#c83771;fill-opacity:1;stroke-width:0.87086" />
  <path
     d="M 3.5000008,10.999991 C 3.5000008,11.828825 2.8288273,12.5 2.000003,12.5 1.171877,12.500001 0.500006,11.828825 0.500006,10.999991 0.500006,10.171865 1.171877,9.5 2.000003,9.5 c 0.8288243,0 1.4999978,0.671865 1.4999978,1.499991 z"
     id="path72-3-7-3"
     style="stroke-width:0.0178575;fill-opacity:1;fill:currentColor;"
     class="ColorScheme-Text" />
  <path
     d="m 14.999995,10.999991 c 0,0.828834 -0.671174,1.500009 -1.499998,1.500009 -0.499994,0 -0.499994,-1.500009 -0.499994,-1.500009 0,0 0,-1.499991 0.499994,-1.499991 0.828824,0 1.499998,0.671865 1.499998,1.499991 z"
     id="path72-3-7-3-6"
     style="stroke-width:0.0178575;fill-opacity:1;fill:currentColor;"
     sodipodi:nodetypes="sscss"
     class="ColorScheme-Text" />
</svg>
