<svg xmlns="http://www.w3.org/2000/svg" viewBox="0 0 24 24" width="24" height="24">
  <style type="text/css" id="current-color-scheme">.ColorScheme-Text {color:#fcfcfc;}</style>
  <g transform="translate(1,1)">
    <g class="ColorScheme-Text" fill="currentColor">
      <path d="m 5,5 c 0,2 0,10 0,12 0,2 2,2 2,2 h 6 V 18 H 9 v -3 h 5 V 14 H 7.7070312 l -1,-1 H 6 v -3 h 0.7070312 l 1,-1 h 6.5859378 l 1,1 H 16 v 2 h 1 V 5.2929688 L 14.707031,3 7,3 C 7,3 5,3 5,5 Z M 7,5 H 8 V 8 H 7.2929688 L 6,9.2929688 V 6 C 6,5.446 6.446,5 7,5 Z m 2,0 h 4 V 8 H 9 Z m 5,0 h 1 c 0.554,0 1,0.446 1,1 V 9.2929688 L 14.707031,8 H 14 Z M 6,13.707031 7.2929688,15 H 8 v 3 H 7 C 6.446,18 6,17.554 6,17 Z"/>
      <path d="M 16.5,13 C 15.671573,13 15,13.671573 15,14.5 V 16 c 0,0 -1,0 -1,1 0,1 0,0 0,1 0,1 1,1 1,1 h 3 c 0,0 1,0 1,-1 0,-1 0,0 0,-1 0,-1 -1,-1 -1,-1 V 14.5 C 18,13.671573 17.328427,13 16.5,13 Z m 0,1 c 0.276142,0 0.5,0.223858 0.5,0.5 V 16 H 16 V 14.5 C 16,14.223858 16.223858,14 16.5,14 Z" fill-rule="evenodd"/>
    </g>
  </g>
</svg>
