<?xml version="1.0" encoding="UTF-8" standalone="no"?>
<svg
   width="32"
   height="32"
   version="1.1"
   id="svg12"
   sodipodi:docname="bookmarks.svg"
   inkscape:version="1.2.2 (b0a8486541, 2022-12-01)"
   xmlns:inkscape="http://www.inkscape.org/namespaces/inkscape"
   xmlns:sodipodi="http://sodipodi.sourceforge.net/DTD/sodipodi-0.dtd"
   xmlns="http://www.w3.org/2000/svg"
   xmlns:svg="http://www.w3.org/2000/svg"
   xmlns:rdf="http://www.w3.org/1999/02/22-rdf-syntax-ns#"
   xmlns:cc="http://creativecommons.org/ns#"
   xmlns:dc="http://purl.org/dc/elements/1.1/">
  <metadata
     id="metadata18">
    <rdf:RDF>
      <cc:Work
         rdf:about="">
        <dc:format>image/svg+xml</dc:format>
        <dc:type
           rdf:resource="http://purl.org/dc/dcmitype/StillImage" />
      </cc:Work>
    </rdf:RDF>
  </metadata>
  <defs
     id="defs16" />
  <sodipodi:namedview
     pagecolor="#000000"
     bordercolor="#0026ff"
     borderopacity="1"
     objecttolerance="10"
     gridtolerance="10"
     guidetolerance="10"
     inkscape:pageopacity="0"
     inkscape:pageshadow="2"
     inkscape:window-width="1920"
     inkscape:window-height="1002"
     id="namedview14"
     showgrid="true"
     inkscape:zoom="9.8125"
     inkscape:cx="22.573248"
     inkscape:cy="31.847134"
     inkscape:window-x="0"
     inkscape:window-y="0"
     inkscape:window-maximized="1"
     inkscape:current-layer="svg12"
     inkscape:document-rotation="0"
     inkscape:lockguides="false"
     inkscape:pagecheckerboard="true"
     inkscape:showpageshadow="false"
     inkscape:deskcolor="#000000">
    <inkscape:grid
       type="xygrid"
       id="grid1330"
       originx="0"
       originy="0" />
  </sodipodi:namedview>
  <g
     id="g997" />
  <g
     id="g999"
     transform="translate(32,10)" />
  <g
     id="bookmarks">
    <rect
       y="0"
       x="0"
       height="32"
       width="32"
       id="rect820"
       style="clip-rule:evenodd;fill:#2020ff;fill-opacity:0;fill-rule:evenodd;stroke-linejoin:round;stroke-miterlimit:1.41421" />
    <path
       d="M 22.332829,4 H 9.6677183 C 8.7485256,4 8,4.726933 8,5.6208 V 26.3792 C 8,27.273067 8.7479763,28 9.6677183,28 9.8543007,28 10.038139,27.9696 10.214845,27.9104 l 5.598573,-1.888533 c 0.119634,-0.04053 0.25353,-0.04053 0.373715,0 l 5.59912,1.888533 C 21.962408,27.97067 22.146794,28 22.332829,28 v 0 c 0.709017,0 1.342299,-0.437333 1.574978,-1.088533 C 23.968718,26.7408 24,26.560533 24,26.3792 V 5.6208 C 24,4.7264 23.252022,4 22.332829,4 Z M 23,26.3792 v -2e-4 c 0,0.521 -0.561798,0.623133 -0.854294,0.5234 l -5.599124,-1.889067 c -0.176156,-0.0592 -0.359994,-0.08853 -0.546577,-0.08853 -0.186581,0 -0.37042,0.02933 -0.547128,0.08853 l -5.59803,1.888534 C 9.4970467,27.022933 9,26.746667 9,26.3792 V 5.6208 C 9,5.3152 9.3532688,5 9.6677153,5 H 22.332826 C 22.647271,5 23,5.3152 23,5.6208 Z"
       id="path2"
       style="fill:#bac8df;fill-opacity:1;stroke-width:0.540997"
       sodipodi:nodetypes="sssssccccsscsssccccsccsssscc" />
    <path
       d="m 15.999984,8.00005 c -1.326068,0 -2.597768,0.526772 -3.535527,1.464441 C 11.5268,10.402236 11,11.674094 11,13.000021 c 0,1.325936 0.526779,2.597764 1.464457,3.535536 C 13.402187,17.473203 14.674057,18 15.999984,18 c 1.325916,0 2.597759,-0.526779 3.535529,-1.464443 0.93763,-0.937747 1.46443,-2.2096 1.46443,-3.535536 0,-0.877717 -0.231,-1.739884 -0.669864,-2.500007 -0.438864,-0.760133 -1.07,-1.3912673 -1.830122,-1.8301407 C 17.73982,8.2310257 16.877643,8 15.999943,8 Z m 2.603473,5.477768 -2.686944,2.566951 -2.566746,-2.687973 c -0.342251,-0.375878 -0.4619,-0.903778 -0.315288,-1.390476 0.146678,-0.486699 0.538105,-0.860563 1.031021,-0.984763 0.4929,-0.1242 1.014857,0.01952 1.374557,0.37866 l 0.571411,0.59654 L 16.608,11.38532 h 8.5e-5 c 0.277348,-0.264757 0.648515,-0.408495 1.031828,-0.399635 0.383275,0.0088 0.747444,0.169729 1.012203,0.447058 0.264752,0.277351 0.408497,0.648518 0.399552,1.031828 -0.0087,0.383368 -0.169647,0.747449 -0.446983,1.012208 z"
       id="path255"
       style="fill:#bac8df;fill-opacity:1;stroke-width:0.0204083" />
  </g>
  <g
     id="22-22-bookmarks">
    <rect
       y="10"
       x="32"
       height="22"
       width="22"
       id="rect820-6"
       style="clip-rule:evenodd;fill:#2020ff;fill-opacity:0;fill-rule:evenodd;stroke-width:0.6875;stroke-linejoin:round;stroke-miterlimit:1.41421" />
    <path
       d="M 47.6472,12 H 38.415604 C 37.745605,12 37.2,12.545195 37.2,13.215604 V 28.7844 c 0,0.670401 0.545195,1.2156 1.215604,1.2156 0.135991,0 0.27,-0.0228 0.398791,-0.0672 L 42.8952,28.5164 c 0.08722,-0.03039 0.184796,-0.03039 0.272404,0 l 4.081192,1.416401 c 0.128404,0.0452 0.2628,0.0672 0.398404,0.0672 v 0 c 0.516805,0 0.978391,-0.328 1.147995,-0.816399 0.04436,-0.128001 0.06724,-0.263201 0.06724,-0.399201 V 13.215604 C 48.862405,12.544796 48.317205,12 47.6472,12 Z m 0.415196,16.7844 c 0,0.046 -0.0085,0.092 -0.02365,0.136 -0.07316,0.2108 -0.314796,0.3312 -0.527993,0.2564 l -4.081164,-1.416801 c -0.128398,-0.0444 -0.262389,-0.06639 -0.398398,-0.06639 -0.135998,0 -0.27,0.022 -0.398798,0.06639 l -4.080386,1.416402 C 38.291206,29.267199 38.00001,29.06 38.00001,28.7844 V 13.215604 c 0,-0.229204 0.186391,-0.415595 0.415595,-0.415595 h 9.231596 c 0.229204,0 0.415595,0.186391 0.415595,0.415595 z"
       id="path2-36"
       style="fill:#bac8df;fill-opacity:1;stroke-width:0.400005" />
    <path
       d="m 42.999984,16.00004 c -1.060848,0 -2.078208,0.421418 -2.828423,1.171553 C 39.42144,17.921788 39,18.939275 39,20.000017 c 0,1.060747 0.421419,2.078208 1.171561,2.828425 0.750186,0.750121 1.76768,1.171559 2.828423,1.171559 1.060736,0 2.078215,-0.421419 2.828429,-1.171559 0.750106,-0.750192 1.171546,-1.767678 1.171546,-2.828425 0,-0.702174 -0.1848,-1.391908 -0.5359,-2.000006 -0.351084,-0.608106 -0.856,-1.113014 -1.464098,-1.464112 C 44.39186,16.18482 43.702119,16 42.999959,16 Z m 2.082777,4.382214 -2.149548,2.053559 -2.053402,-2.150377 c -0.273795,-0.300702 -0.36952,-0.723022 -0.252232,-1.11238 0.117342,-0.389359 0.430485,-0.688451 0.824821,-0.787811 0.39432,-0.09936 0.811881,0.01562 1.099641,0.302928 l 0.457131,0.477232 0.477228,-0.457149 h 6.5e-5 c 0.221884,-0.211806 0.518815,-0.326796 0.825468,-0.319708 0.306615,0.007 0.597948,0.135783 0.809763,0.357646 0.211796,0.221881 0.326797,0.518815 0.319636,0.825463 -0.0067,0.306694 -0.135711,0.597959 -0.357587,0.809766 z"
       id="path255-3"
       style="fill:#bac8df;fill-opacity:1;stroke-width:0.0163263" />
  </g>
</svg>
