<?xml version="1.0" encoding="UTF-8" standalone="no"?>
<svg
   sodipodi:docname="cantata.svg"
   inkscape:version="1.2.2 (b0a8486541, 2022-12-01)"
   viewBox="0 0 32 32"
   id="svg2"
   version="1.1"
   width="32"
   height="32"
   xmlns:inkscape="http://www.inkscape.org/namespaces/inkscape"
   xmlns:sodipodi="http://sodipodi.sourceforge.net/DTD/sodipodi-0.dtd"
   xmlns="http://www.w3.org/2000/svg"
   xmlns:svg="http://www.w3.org/2000/svg"
   xmlns:rdf="http://www.w3.org/1999/02/22-rdf-syntax-ns#"
   xmlns:cc="http://creativecommons.org/ns#"
   xmlns:dc="http://purl.org/dc/elements/1.1/">
  <g
     id="22-22-cantata"
     transform="translate(-22,10)">
    <path
       style="fill:none"
       d="M 0,0 V 22 H 22 V 0 Z"
       id="path11" />
    <path
       style="color:#d6dbf1;fill:none;fill-opacity:1;stroke:#bac8df;stroke-width:1.07124;stroke-linecap:round;stroke-miterlimit:4;stroke-dasharray:none;stroke-opacity:1;stop-color:#31363b"
       sodipodi:type="arc"
       sodipodi:cx="10.968341"
       sodipodi:cy="-11.000616"
       sodipodi:rx="7.4964247"
       sodipodi:ry="7.464735"
       sodipodi:start="4.0504389"
       sodipodi:end="3.011132"
       sodipodi:open="true"
       sodipodi:arc-type="arc"
       d="m 6.3606167,-16.888763 a 7.4964247,7.464735 0 0 1 9.1386053,-0.05883 7.4964247,7.464735 0 0 1 2.404928,8.7794127 7.4964247,7.464735 0 0 1 -7.902889,4.569927 7.4964247,7.464735 0 0 1 -6.4656407,-6.4312647"
       id="path7-3-3"
       class="ColorScheme-Text"
       transform="rotate(90)" />
    <path
       d="M 10.975132,13.333038 Z M 11.74454,4.1110236 c 0,-0.499205 0.460325,-0.860333 0.934082,-0.761215 l 0.08889,0.02408 2.298124,0.766176 c 0.403096,0.134441 0.620937,0.570121 0.486573,0.973211 -0.124735,0.374322 -0.509494,0.588874 -0.886561,0.509988 l -0.08669,-0.02341 -1.295504,-0.431897 v 5.8570154 c 0,1.27476 -1.033412,2.30812 -2.308263,2.30812 -1.274975,3.3e-5 -2.308402,-1.033307 -2.308402,-2.30809 0,-1.2747864 1.033436,-2.3081164 2.308283,-2.3081164 0.215843,0 0.424701,0.02964 0.622889,0.08503 l 0.146665,0.04641 z"
       style="fill:#bac8df;fill-opacity:1;fill-rule:nonzero;stroke:none;stroke-width:0.769422"
       sodipodi:nodetypes="cccccccccccccscccccccssssccs"
       id="path1415-6" />
  </g>
  <sodipodi:namedview
     inkscape:document-rotation="0"
     inkscape:lockguides="true"
     inkscape:current-layer="svg2"
     inkscape:window-maximized="1"
     inkscape:window-y="0"
     inkscape:window-x="0"
     inkscape:cy="12.657469"
     inkscape:cx="9.8194718"
     inkscape:zoom="8.8090278"
     showgrid="true"
     id="namedview14"
     inkscape:window-height="1002"
     inkscape:window-width="1920"
     inkscape:pageshadow="2"
     inkscape:pageopacity="0"
     guidetolerance="10"
     gridtolerance="10"
     objecttolerance="10"
     borderopacity="1"
     bordercolor="#000cfe"
     pagecolor="#000000"
     inkscape:pagecheckerboard="true"
     inkscape:showpageshadow="false"
     inkscape:deskcolor="#000000">
    <inkscape:grid
       type="xygrid"
       id="grid1388"
       originx="0"
       originy="0" />
  </sodipodi:namedview>
  <metadata
     id="metadata20">
    <rdf:RDF>
      <cc:Work
         rdf:about="">
        <dc:format>image/svg+xml</dc:format>
        <dc:type
           rdf:resource="http://purl.org/dc/dcmitype/StillImage" />
      </cc:Work>
    </rdf:RDF>
  </metadata>
  <defs
     id="defs3051">
    <style
       type="text/css"
       id="current-color-scheme">
.ColorScheme-Text { 
    color:#d1d5e9;
}
</style>
    <linearGradient
       id="oomox"
       x1="0"
       x2="0"
       y1="0"
       y2="16"
       gradientUnits="userSpaceOnUse"
       gradientTransform="matrix(1.5000001,0,0,1.5000001,25.843999,4.0940002)">
      <stop
         offset="0%"
         style="stop-color:#303b3d; stop-opacity:1"
         id="stop18" />
      <stop
         offset="100%"
         style="stop-color:#bc985d; stop-opacity:1"
         id="stop20" />
    </linearGradient>
  </defs>
  <g
     id="cantata">
    <path
       style="fill:none"
       d="M 0,0 V 32 H 32 V 0 Z"
       id="path18" />
    <path
       style="color:#d6dbf1;fill:none;fill-opacity:1;stroke:#bac8df;stroke-width:1.60678;stroke-linecap:round;stroke-miterlimit:4;stroke-dasharray:none;stroke-opacity:1;stop-color:#31363b"
       sodipodi:type="arc"
       sodipodi:cx="15.952855"
       sodipodi:cy="-16.000551"
       sodipodi:rx="11.245025"
       sodipodi:ry="11.196738"
       sodipodi:start="4.0504389"
       sodipodi:end="3.011132"
       sodipodi:open="true"
       sodipodi:arc-type="arc"
       d="m 9.0410306,-24.832484 a 11.245025,11.196738 0 0 1 13.7083804,-0.08825 11.245025,11.196738 0 0 1 3.607517,13.168691 11.245025,11.196738 0 0 1 -11.854743,6.8546677 11.245025,11.196738 0 0 1 -9.6987952,-9.6465837"
       id="path7-3"
       class="ColorScheme-Text"
       transform="rotate(90)" />
    <path
       d="M 15.962304,19.5 Z M 17.116391,5.6665261 c 0,-0.7488342 0.690457,-1.2905419 1.401084,-1.1418754 l 0.133334,0.036084 3.447083,1.1492929 c 0.604624,0.2016652 0.93137,0.8552068 0.729833,1.4598741 -0.187085,0.5614997 -0.76421,0.8833334 -1.329792,0.7650002 l -0.129997,-0.035204 -1.943175,-0.647874 v 8.7858291 c 0,1.912207 -1.550079,3.462294 -3.462293,3.462294 C 14.050078,19.5 12.5,17.949925 12.5,16.037699 c 0,-1.912248 1.550087,-3.462293 3.462294,-3.462293 0.323754,0 0.637044,0.04455 0.934294,0.1275 l 0.219998,0.06961 z"
       style="fill:#bac8df;fill-opacity:1;fill-rule:nonzero;stroke:none;stroke-width:1.15417"
       sodipodi:nodetypes="cccccccccccccscccccccssssccs"
       id="path1415" />
  </g>
</svg>
