<?xml version="1.0" encoding="UTF-8" standalone="no"?>
<svg
   width="32"
   height="32"
   version="1.1"
   id="svg12"
   sodipodi:docname="drive.svg"
   inkscape:version="1.2.2 (b0a8486541, 2022-12-01)"
   xmlns:inkscape="http://www.inkscape.org/namespaces/inkscape"
   xmlns:sodipodi="http://sodipodi.sourceforge.net/DTD/sodipodi-0.dtd"
   xmlns="http://www.w3.org/2000/svg"
   xmlns:svg="http://www.w3.org/2000/svg"
   xmlns:rdf="http://www.w3.org/1999/02/22-rdf-syntax-ns#"
   xmlns:cc="http://creativecommons.org/ns#"
   xmlns:dc="http://purl.org/dc/elements/1.1/">
  <g
     id="22-22-drive-harddisk">
    <rect
       style="opacity:0.00100002;fill:#bac8df;fill-opacity:1"
       width="22"
       height="22"
       x="32"
       y="10.000001"
       id="rect2" />
    <path
       d="M 48.727285,28.999995 C 49.36364,28.999995 50,28.333335 50,27.666656 l -10e-7,-6.667878 V 15.666667 L 50,14.333341 c 0,-0.666679 -0.63636,-1.333339 -1.272715,-1.333339 l -5.734585,-1e-6 -4.447252,7e-6 -1.272715,-6e-6 C 36.63636,13.000002 36,13.666662 36,14.333341 v 0.666666 5.995659 6.004336 0.666654 c 0,0.666679 0.63636,1.333339 1.272733,1.333339 v 6e-6 l 5.675949,-0.0034 5.142224,0.0034 z M 37,28 v 0 -2 -2 h 5 l 5.454552,1e-6 v 0 h 0.127279 c 0.509075,0 0.509075,-0.999997 0,-0.999997 H 42.36363 l 0.01014,0.0055 L 37,23 v -2 -2 h 5 l 5.454479,5e-6 v 0 h 0.127291 c 0.509089,0 0.509089,-1.000004 0,-1.000004 L 43,18 v 0 h -6 v -2 -2 0 h 6 6 v 0 0 0 7 7 0 h -6 z"
       id="path5290-3"
       style="fill:#bac8df;fill-opacity:1;stroke-width:0.0015769"
       sodipodi:nodetypes="ccsccccccccccccccccccccccccccccccccccccccccccccccccccc" />
    <path
       d="m 40.5,16.000494 c -0.0025,1.11262 -1.347394,1.667754 -2.132939,0.880031 -0.785548,-0.787733 -0.226701,-2.132065 0.88591,-2.130523 0.68946,0.0022 1.247503,0.561025 1.247029,1.250492 z"
       id="path1086-62-7-6"
       style="color:#e5e9ef;fill:#bac8df;fill-opacity:1;stroke-width:0.863592"
       sodipodi:nodetypes="csccccc"
       class="ColorScheme-Text" />
    <path
       d="m 40.5,21.000509 c -0.0025,1.1126 -1.347394,1.667734 -2.132939,0.880025 -0.785548,-0.787745 -0.226701,-2.13205 0.88591,-2.130532 0.68946,0.0022 1.247503,0.561015 1.247029,1.250507 z"
       id="path1086-62-7-9-7"
       style="color:#e5e9ef;fill:#bac8df;fill-opacity:1;stroke-width:0.863591"
       sodipodi:nodetypes="csccccc"
       class="ColorScheme-Text" />
    <path
       d="m 40.5,26.000496 c -0.0025,1.112623 -1.347394,1.667758 -2.132939,0.880016 -0.785548,-0.787718 -0.226701,-2.132046 0.88591,-2.13051 0.68946,0.0021 1.247503,0.561022 1.247029,1.250494 z"
       id="path1086-62-7-9-3-5"
       style="color:#e5e9ef;fill:#bac8df;fill-opacity:1;stroke-width:0.863594"
       sodipodi:nodetypes="csccccc"
       class="ColorScheme-Text" />
  </g>
  <style
     id="current-color-scheme"
     type="text/css">
.ColorScheme-Text { 
    color:#d1d5e9;
}
</style>
  <metadata
     id="metadata18">
    <rdf:RDF>
      <cc:Work
         rdf:about="">
        <dc:format>image/svg+xml</dc:format>
        <dc:type
           rdf:resource="http://purl.org/dc/dcmitype/StillImage" />
      </cc:Work>
    </rdf:RDF>
  </metadata>
  <defs
     id="defs16" />
  <sodipodi:namedview
     pagecolor="#000000"
     bordercolor="#0d01ff"
     borderopacity="1"
     objecttolerance="10"
     gridtolerance="10"
     guidetolerance="10"
     inkscape:pageopacity="0"
     inkscape:pageshadow="2"
     inkscape:window-width="1920"
     inkscape:window-height="1002"
     id="namedview14"
     showgrid="true"
     inkscape:zoom="11.313709"
     inkscape:cx="32.129163"
     inkscape:cy="21.522562"
     inkscape:window-x="0"
     inkscape:window-y="0"
     inkscape:window-maximized="1"
     inkscape:current-layer="svg12"
     inkscape:document-rotation="0"
     inkscape:lockguides="false"
     inkscape:showpageshadow="false"
     inkscape:pagecheckerboard="true"
     inkscape:deskcolor="#000000">
    <inkscape:grid
       type="xygrid"
       id="grid6258"
       originx="0"
       originy="-4.6325681e-08" />
  </sodipodi:namedview>
  <g
     id="drive-harddisk">
    <rect
       style="opacity:0.00100002;fill:#bac8df;fill-opacity:1"
       width="32"
       height="32"
       x="0"
       y="4.6325681e-08"
       id="rect7" />
    <path
       d="m 25,28 c 1,0 2,-1 2,-2 0,0 -1e-6,-9.999994 -1e-6,-10.00184 V 8.000006 L 27,6 C 27,5 26,4 25,4 l -9.011488,-1e-6 L 9,4.000006 7,4 C 6,4 5,5 5,6 V 7.000006 15.993507 25.000006 26 c 0,1 1,2 2,2 v 6e-6 l 8.919337,-0.0037 L 24,28.000006 Z M 7,26 H 6 v -2.999994 -3 h 9 8 v 0 h 0.2 c 0.8,0 0.8,-1 0,-1 H 15 l 0.01601,0.0075 L 6,19.000006 v -3 -3 L 15.020558,12.980029 23,13.000006 v 0 h 0.2 c 0.8,0 0.8,-1 0,-1 H 15 v 0 H 6 v -3 -3 L 7,6 h 9 9 v 0 l 1,6e-6 v 0 10 10 L 25,26 h -9 z"
       id="path5290"
       style="fill:#bac8df;fill-opacity:1;stroke-width:0.00242116"
       sodipodi:nodetypes="ccsccccccccccccccccccccccccccccccccccccccccccccccccccc" />
    <path
       d="M 12,9.0008 C 11.9975,10.780976 9.8441655,11.669199 8.587294,10.408836 7.330419,9.148471 8.224578,6.9975441 10.004742,7.0000021 11.107901,7.0022621 12.000766,7.8976284 12,9.0008 Z"
       id="path1086-62-7"
       style="color:#e5e9ef;fill:#bac8df;fill-opacity:1;stroke-width:1.38174"
       sodipodi:nodetypes="csccccc"
       class="ColorScheme-Text" />
    <path
       d="M 12,16.0008 C 11.9975,17.780976 9.844166,18.669199 8.587294,17.408836 7.330419,16.148471 8.224578,13.997544 10.004742,14.000002 11.107901,14.002262 12.000766,14.897628 12,16.0008 Z"
       id="path1086-62-7-9"
       style="color:#e5e9ef;fill:#bac8df;fill-opacity:1;stroke-width:1.38174"
       sodipodi:nodetypes="csccccc"
       class="ColorScheme-Text" />
    <path
       d="M 12,23.0008 C 11.9975,24.780976 9.844166,25.669199 8.587294,24.408836 7.330419,23.148471 8.224578,20.997544 10.004742,21.000002 11.107901,21.002262 12.000766,21.897628 12,23.0008 Z"
       id="path1086-62-7-9-3"
       style="color:#e5e9ef;fill:#bac8df;fill-opacity:1;stroke-width:1.38174"
       sodipodi:nodetypes="csccccc"
       class="ColorScheme-Text" />
  </g>
</svg>
