<?xml version="1.0" encoding="UTF-8" standalone="no"?>
<svg
   sodipodi:docname="elisa.svg"
   inkscape:version="1.2.2 (b0a8486541, 2022-12-01)"
   viewBox="0 0 32 32"
   id="svg2"
   version="1.1"
   width="32"
   height="32"
   xmlns:inkscape="http://www.inkscape.org/namespaces/inkscape"
   xmlns:sodipodi="http://sodipodi.sourceforge.net/DTD/sodipodi-0.dtd"
   xmlns="http://www.w3.org/2000/svg"
   xmlns:svg="http://www.w3.org/2000/svg"
   xmlns:rdf="http://www.w3.org/1999/02/22-rdf-syntax-ns#"
   xmlns:cc="http://creativecommons.org/ns#"
   xmlns:dc="http://purl.org/dc/elements/1.1/">
  <g
     id="22-22-elisa"
     transform="translate(-22,10)">
    <path
       style="fill:none"
       d="M 0,0 V 22 H 22 V 0 Z"
       id="path11" />
    <path
       style="color:#d6dbf1;fill:none;fill-opacity:1;stroke:#bac8df;stroke-width:1.06919;stroke-linecap:round;stroke-miterlimit:4;stroke-dasharray:none;stroke-opacity:1;stop-color:#31363b"
       sodipodi:type="arc"
       sodipodi:cx="-11.000719"
       sodipodi:cy="-11.000964"
       sodipodi:rx="7.4665084"
       sodipodi:ry="7.466681"
       sodipodi:start="5.0000678"
       sodipodi:end="2.393564"
       sodipodi:arc-type="arc"
       transform="scale(-1)"
       d="m -8.8822676,-18.160802 a 7.4665084,7.466681 0 0 1 5.3356928,6.730315 7.4665084,7.466681 0 0 1 -4.5273537,7.298644 7.4665084,7.466681 0 0 1 -8.3999745,-1.7903219"
       id="path7-7"
       class="ColorScheme-Text"
       sodipodi:open="true" />
    <path
       d="m 15.0002,11.00098 v 1.999788 h -0.999938 c -0.795413,0 -1.558422,0.31595 -2.120925,0.878639 -0.562642,0.562515 -0.878618,1.325323 -0.878618,2.120979 0,0.795656 0.315936,1.558457 0.878618,2.120979 0.562503,0.562649 1.325466,0.878638 2.120925,0.878638 0.795598,0 1.558428,-0.315949 2.12111,-0.878638 0.562503,-0.562522 0.878439,-1.325323 0.878439,-2.120979 v -4.99936 h 1.999742 V 9.0012362 h -1.999742 c -0.530235,0 -1.038813,0.210811 -1.413892,0.585686 -0.375046,0.3750548 -0.585672,0.8836838 -0.585672,1.4141038 z m 0,4.999359 c 0,0.26521 -0.105483,0.519441 -0.292919,0.707055 -0.187436,0.187441 -0.441829,0.292754 -0.707039,0.292754 -0.265197,0 -0.51943,-0.105313 -0.707033,-0.292754 -0.187436,-0.187614 -0.292753,-0.441838 -0.292753,-0.707055 0,-0.265216 0.105317,-0.519442 0.292753,-0.707049 0.18761,-0.187441 0.441823,-0.29276 0.707033,-0.29276 H 15 Z"
       id="path3434-5"
       style="fill:#bac8df;fill-opacity:1;stroke-width:0.0446366" />
    <path
       d="m 12.333838,11.001039 c 0,0.736204 -0.596851,1.33307 -1.333038,1.33307 -0.736354,0 -1.333199,-0.596866 -1.333199,-1.33307 0,-0.73637 0.596845,-1.3332278 1.333199,-1.3332278 0.736187,0 1.333038,0.5968578 1.333038,1.3332278"
       id="path3436-6-3"
       style="fill:#bac8df;fill-opacity:1;stroke-width:0.0396766" />
  </g>
  <sodipodi:namedview
     inkscape:document-rotation="0"
     inkscape:lockguides="true"
     inkscape:current-layer="svg2"
     inkscape:window-maximized="1"
     inkscape:window-y="0"
     inkscape:window-x="0"
     inkscape:cy="14.809943"
     inkscape:cx="1.7258199"
     inkscape:zoom="12.457847"
     showgrid="true"
     id="namedview14"
     inkscape:window-height="1002"
     inkscape:window-width="1920"
     inkscape:pageshadow="2"
     inkscape:pageopacity="0"
     guidetolerance="10"
     gridtolerance="10"
     objecttolerance="10"
     borderopacity="1"
     bordercolor="#0026ee"
     pagecolor="#000000"
     inkscape:pagecheckerboard="true"
     inkscape:showpageshadow="false"
     inkscape:deskcolor="#000000">
    <inkscape:grid
       type="xygrid"
       id="grid2696"
       originx="0"
       originy="0" />
  </sodipodi:namedview>
  <metadata
     id="metadata20">
    <rdf:RDF>
      <cc:Work
         rdf:about="">
        <dc:format>image/svg+xml</dc:format>
        <dc:type
           rdf:resource="http://purl.org/dc/dcmitype/StillImage" />
      </cc:Work>
    </rdf:RDF>
  </metadata>
  <defs
     id="defs3051">
    <style
       type="text/css"
       id="current-color-scheme">
      .ColorScheme-Text {
        color:#31363b;
      }
      </style>
    <linearGradient
       id="oomox"
       x1="0"
       x2="0"
       y1="0"
       y2="16"
       gradientUnits="userSpaceOnUse"
       gradientTransform="matrix(1.5000001,0,0,1.5000001,25.843999,4.0940002)">
      <stop
         offset="0%"
         style="stop-color:#303b3d; stop-opacity:1"
         id="stop18" />
      <stop
         offset="100%"
         style="stop-color:#bc985d; stop-opacity:1"
         id="stop20" />
    </linearGradient>
  </defs>
  <g
     id="elisa">
    <path
       style="fill:none"
       d="M 0,0 V 32 H 32 V 0 Z"
       id="path18" />
    <path
       style="color:#d6dbf1;fill:none;fill-opacity:1;stroke:#bac8df;stroke-width:1.60378;stroke-linecap:round;stroke-miterlimit:4;stroke-dasharray:none;stroke-opacity:1;stop-color:#31363b"
       sodipodi:type="arc"
       sodipodi:cx="-16.001745"
       sodipodi:cy="-16.001448"
       sodipodi:rx="11.199766"
       sodipodi:ry="11.200026"
       sodipodi:start="5.0000678"
       sodipodi:end="2.393564"
       sodipodi:arc-type="arc"
       transform="scale(-1)"
       d="m -12.824067,-26.741209 a 11.199766,11.200026 0 0 1 8.0035417,10.095477 11.199766,11.200026 0 0 1 -6.7910327,10.9479699 11.199766,11.200026 0 0 1 -12.599965,-2.6854839"
       id="path7"
       class="ColorScheme-Text"
       sodipodi:open="true" />
    <path
       d="m 22.000968,16.001469 v 2.999684 H 20.50106 c -1.193119,0 -2.337634,0.473924 -3.181388,1.317959 -0.843963,0.843773 -1.317927,1.987984 -1.317927,3.181469 0,1.193485 0.473904,2.337687 1.317927,3.181469 0.843754,0.843975 1.9882,1.317958 3.181388,1.317958 1.193398,0 2.337643,-0.473923 3.181667,-1.317958 0.843754,-0.843782 1.317658,-1.987984 1.317658,-3.181469 V 16.001539 H 28 v -2.999686 h -2.999615 c -0.795352,0 -1.55822,0.316216 -2.120838,0.878529 -0.56257,0.562582 -0.878509,1.325526 -0.878509,2.121157 z m 0,7.499042 c 0,0.397815 -0.158225,0.779162 -0.439379,1.060583 -0.281154,0.281161 -0.662743,0.43913 -1.060559,0.43913 -0.397796,0 -0.779145,-0.157969 -1.06055,-0.43913 -0.281154,-0.281421 -0.439129,-0.662758 -0.439129,-1.060583 0,-0.397825 0.157975,-0.779163 0.439129,-1.060574 0.281415,-0.281161 0.662735,-0.43914 1.06055,-0.43914 h 1.499638 z"
       id="path3434"
       style="fill:#bac8df;fill-opacity:1;stroke-width:0.0669549" />
    <path
       d="m 18.001423,16.001558 c 0,1.104307 -0.895277,1.999605 -1.999557,1.999605 -1.104531,0 -1.999799,-0.895298 -1.999799,-1.999605 0,-1.104555 0.895268,-1.999842 1.999799,-1.999842 1.10428,0 1.999557,0.895287 1.999557,1.999842"
       id="path3436-6"
       style="fill:#bac8df;fill-opacity:1;stroke-width:0.0595149" />
  </g>
</svg>
