<?xml version="1.0" encoding="UTF-8" standalone="no"?>
<svg
   width="32"
   height="32"
   version="1.1"
   id="svg14"
   sodipodi:docname="face.svg"
   inkscape:version="1.2.2 (b0a8486541, 2022-12-01)"
   xmlns:inkscape="http://www.inkscape.org/namespaces/inkscape"
   xmlns:sodipodi="http://sodipodi.sourceforge.net/DTD/sodipodi-0.dtd"
   xmlns="http://www.w3.org/2000/svg"
   xmlns:svg="http://www.w3.org/2000/svg">
  <sodipodi:namedview
     id="namedview16"
     pagecolor="#000000"
     bordercolor="#0c01ff"
     borderopacity="1"
     inkscape:showpageshadow="false"
     inkscape:pageopacity="0"
     inkscape:pagecheckerboard="true"
     inkscape:deskcolor="#000000"
     showgrid="true"
     inkscape:zoom="7.375"
     inkscape:cx="33.016949"
     inkscape:cy="18.644068"
     inkscape:window-width="1920"
     inkscape:window-height="1002"
     inkscape:window-x="0"
     inkscape:window-y="0"
     inkscape:window-maximized="1"
     inkscape:current-layer="svg14">
    <inkscape:grid
       type="xygrid"
       id="grid191"
       originx="0"
       originy="0" />
  </sodipodi:namedview>
  <defs
     id="defs5">
    <style
       id="current-color-scheme"
       type="text/css">.ColorScheme-Background { color:#181818; }
.ColorScheme-ButtonBackground { color:#343434; }
.ColorScheme-Highlight { color:#d1d5e9; }
.ColorScheme-Text { color:#d1d5e9; }
.ColorScheme-ViewBackground { color:#242424; }
.ColorScheme-NegativeText { color:#f44336; }
.ColorScheme-PositiveText { color:#4caf50; }
.ColorScheme-NeutralText { color:#ff9800; }
</style>
  </defs>
  <g
     id="face-laughing">
    <rect
       style="opacity:0.00100002;fill:#e5e9ef;fill-opacity:1"
       width="32"
       height="32"
       x="0"
       y="0"
       id="rect9" />
    <path
       d="m 28.018682,15.972115 c 0.003,2.256937 -0.629,4.469268 -1.82514,6.383128 -1.19614,1.91386 -2.90736,3.452144 -4.93759,4.438043 -2.03022,0.986096 -4.29731,1.379956 -6.54096,1.136777 -2.2439,-0.243364 -4.37373,-1.114032 -6.1453902,-2.512174 -1.77176,-1.398141 -3.11363,-3.267346 -3.87184,-5.393454 -0.75806,-2.125765 -0.90183,-4.422357 -0.41473,-6.626257 h 4.09187 c 0.22135,1.086043 0.85478,2.044199 1.7669602,2.67359 0.91237,0.629392 2.03292,0.881198 3.12661,0.702527 1.09389,-0.178455 2.07616,-0.773554 2.74099,-1.660486 0.66478,0.886932 1.64711,1.482011 2.74099,1.660486 1.09369,0.178646 2.21424,-0.07314 3.12662,-0.702527 0.91217,-0.629391 1.54558,-1.587547 1.76695,-2.67359 h 4.09188 c 0.18573,0.845169 0.2807,1.707984 0.283,2.573447 z m -8.57816,-6.004709 c 0.68263,0 1.33707,0.271129 1.8198,0.753652 0.48252,0.482715 0.75365,1.13717 0.75365,1.819795 0,0.682625 -0.27113,1.337064 -0.75365,1.819794 -0.48272,0.482524 -1.13717,0.753652 -1.8198,0.753652 -0.68262,0 -1.33706,-0.271128 -1.81979,-0.753652 -0.48253,-0.482715 -0.75365,-1.137169 -0.75365,-1.819794 0,-0.682625 0.27112,-1.337065 0.75365,-1.819795 0.48271,-0.482523 1.13717,-0.753652 1.81979,-0.753652 z m 0,0.857816 c -0.45494,0 -0.89134,0.180754 -1.21319,0.502434 -0.32168,0.321872 -0.50244,0.75826 -0.50244,1.213197 0,0.454936 0.18076,0.891344 0.50244,1.213196 0.32187,0.321681 0.75826,0.502435 1.21319,0.502435 0.45494,0 0.89135,-0.180754 1.2132,-0.502435 0.32168,-0.321872 0.50243,-0.75826 0.50243,-1.213196 0,-0.454937 -0.18075,-0.891344 -0.50243,-1.213197 -0.32187,-0.32168 -0.75826,-0.502434 -1.2132,-0.502434 z m -6.86252,-2.573447 c 1.3501,0 2.62134,0.635715 3.43126,1.715631 0.66478,-0.886932 1.6471,-1.482011 2.74099,-1.660486 1.09369,-0.178646 2.21424,0.07314 3.12662,0.702527 0.91217,0.6293911 1.54558,1.587547 1.76695,2.67359 h 3.56856 C 26.338882,9.4211001 24.801132,7.476702 22.801542,6.105275 20.801952,4.733898 18.433942,4 16.009112,4 c -2.42482,0 -4.79264,0.733947 -6.7924202,2.105275 -1.9996,1.371378 -3.53734,3.3158251 -4.41084,5.577762 h 3.56856 c 0.1978,-0.96889 0.72414,-1.8394999 1.49005,-2.464675 C 10.630372,8.592989 11.588912,8.251579 12.577702,8.251775 Z m 0,1.715631 c 0.68262,0 1.33706,0.271129 1.81979,0.753652 0.48253,0.482715 0.75366,1.13717 0.75366,1.819795 0,0.682625 -0.27113,1.337064 -0.75366,1.819794 -0.48271,0.482524 -1.13717,0.753652 -1.81979,0.753652 -0.68263,0 -1.33707,-0.271128 -1.8198,-0.753652 -0.48252,-0.482715 -0.75365,-1.137169 -0.75365,-1.819794 0,-0.682625 0.27113,-1.337065 0.75365,-1.819795 0.48272,-0.482523 1.13717,-0.753652 1.8198,-0.753652 z m 0,0.857816 c -0.45495,0 -0.89135,0.180754 -1.2132,0.502434 -0.32168,0.321872 -0.50243,0.75826 -0.50243,1.213197 0,0.454936 0.18075,0.891344 0.50243,1.213196 0.32187,0.321681 0.75826,0.502435 1.2132,0.502435 0.45493,0 0.89134,-0.180754 1.21319,-0.502435 0.32169,-0.321872 0.50244,-0.75826 0.50244,-1.213196 0,-0.454937 -0.18075,-0.891344 -0.50244,-1.213197 -0.32187,-0.32168 -0.75826,-0.502434 -1.21319,-0.502434 z"
       id="path242-3"
       style="fill:#bac8df;fill-opacity:1;stroke-width:0.049018" />
    <path
       d="m 21.39301,20.085041 c -3.475278,2.399805 -7.330697,2.385803 -10.786261,0 -0.415713,-0.287672 -0.7907104,0.2096 -0.508714,0.669534 C 11.151035,22.471692 13.276743,24 15.999879,24 c 2.723138,0 4.848847,-1.529156 5.901844,-3.245425 0.282428,-0.459934 -0.09254,-0.955933 -0.508713,-0.669534"
       id="path242-67"
       style="fill:#000000;fill-opacity:1;stroke-width:0.426426" />
  </g>
  <g
     id="22-22-face-laughing"
     transform="translate(32.000001,10.000001)">
    <rect
       style="opacity:0.00100002"
       width="22"
       height="22"
       x="0"
       y="0"
       id="rect4" />
    <path
       d="m 19.012455,10.981408 c 0.0028,1.50463 -0.419326,2.979511 -1.216748,4.255431 -0.797429,1.275896 -1.93824,2.30143 -3.291741,2.958694 -1.353483,0.657388 -2.864862,0.919961 -4.360642,0.757843 C 8.647403,18.791132 7.2275054,18.210687 6.0464034,17.278603 4.8652264,16.3465 3.9706404,15.100367 3.4651814,13.682961 c -0.505383,-1.417171 -0.601228,-2.94824 -0.27649,-4.4175 h 2.727908 c 0.147573,0.724021 0.569862,1.362786 1.177984,1.78239 0.608234,0.419589 1.3552656,0.587461 2.0843946,0.468352 0.729262,-0.118977 1.384115,-0.515699 1.827342,-1.107003 0.443184,0.591304 1.098072,0.988009 1.827323,1.107003 0.729122,0.119087 1.47616,-0.04876 2.084403,-0.468352 0.608114,-0.419604 1.030393,-1.058369 1.177981,-1.78239 h 2.727908 c 0.123825,0.563434 0.187144,1.138646 0.188666,1.715617 z M 13.293681,6.978277 c 0.455085,0 0.891379,0.180741 1.213206,0.502438 0.321673,0.321802 0.502437,0.7581 0.502437,1.213183 0,0.455093 -0.180764,0.891382 -0.502437,1.213208 -0.321817,0.32167 -0.758121,0.502422 -1.213206,0.502422 -0.455077,0 -0.891361,-0.180752 -1.213186,-0.502422 C 11.7588,9.585295 11.578052,9.148991 11.578052,8.693898 c 0,-0.455083 0.180748,-0.891378 0.502443,-1.213183 0.321809,-0.321697 0.758109,-0.502438 1.213186,-0.502438 z m 0,0.571882 c -0.303294,0 -0.594229,0.120484 -0.808799,0.33494 -0.214439,0.214591 -0.334946,0.505517 -0.334946,0.808799 0,0.303302 0.120507,0.594231 0.334946,0.808796 0.214586,0.214468 0.505514,0.334971 0.808799,0.334971 0.303305,0 0.59424,-0.120503 0.808799,-0.334971 0.214453,-0.214575 0.334957,-0.505494 0.334957,-0.808796 0,-0.303282 -0.120504,-0.594226 -0.334957,-0.808799 -0.214568,-0.214456 -0.505494,-0.33494 -0.808799,-0.33494 z M 8.718666,5.834519 c 0.900079,0 1.747559,0.423801 2.287505,1.143758 C 11.44936,6.386978 12.10424,5.99027 12.833512,5.87128 13.562641,5.75219 14.309673,5.92009 14.917917,6.339631 15.52603,6.75923 15.9483,7.398 16.095886,8.122021 h 2.37904 C 17.892591,6.614062 16.867434,5.317802 15.53436,4.403515 14.201313,3.489258 12.622641,3 11.006075,3 9.389521,3 7.8109774,3.489305 6.4778024,4.403515 5.1447204,5.317773 4.1195714,6.614062 3.5372334,8.122021 h 2.379043 C 6.0481364,7.476093 6.3990344,6.895698 6.9096424,6.478913 7.4202404,6.062 8.0592804,5.834381 8.71848,5.834519 Z m 0,1.143758 c 0.455079,0 0.891373,0.180741 1.213206,0.502438 0.321675,0.321802 0.502439,0.7581 0.502439,1.213183 0,0.455093 -0.180764,0.891382 -0.502439,1.213208 -0.321821,0.32167 -0.758127,0.502422 -1.213206,0.502422 -0.455076,0 -0.8913856,-0.180752 -1.2131916,-0.502422 -0.321688,-0.321811 -0.50244,-0.758115 -0.50244,-1.213208 0,-0.455083 0.180752,-0.891378 0.50244,-1.213183 C 7.8272804,7.159018 8.26359,6.978277 8.718666,6.978277 Z m 0,0.571882 c -0.303292,0 -0.59423,0.120484 -0.8087996,0.33494 -0.214445,0.214591 -0.334944,0.505517 -0.334944,0.808799 0,0.303302 0.120499,0.594231 0.334944,0.808796 0.2145776,0.214468 0.5055176,0.334971 0.8087996,0.334971 0.303297,0 0.594224,-0.120503 0.808792,-0.334971 C 9.741925,9.288119 9.862432,8.9972 9.862432,8.693898 9.862432,8.390616 9.741925,8.099672 9.527458,7.885099 9.31288,7.670643 9.021963,7.550159 8.718666,7.550159 Z"
       id="path242-3-5"
       style="fill:#bac8df;fill-opacity:1;stroke-width:0.0326797" />
    <path
       d="m 14.595337,13.723366 c -2.316855,1.599876 -4.887123,1.590526 -7.1908286,0 -0.27715,-0.191777 -0.527148,0.139738 -0.339148,0.446353 0.701998,1.144754 2.1191446,2.163625 3.9345596,2.163625 1.815422,0 3.232571,-1.019452 3.93456,-2.163625 0.188294,-0.306615 -0.0616,-0.63729 -0.339143,-0.446353"
       id="path242-67-3"
       style="fill:#000000;fill-opacity:1;stroke-width:0.284277" />
  </g>
</svg>
