<?xml version="1.0" encoding="UTF-8" standalone="no"?>
<svg
   width="32"
   height="32"
   version="1"
   id="svg12"
   sodipodi:docname="kate.svg"
   inkscape:version="1.2.2 (b0a8486541, 2022-12-01)"
   xmlns:inkscape="http://www.inkscape.org/namespaces/inkscape"
   xmlns:sodipodi="http://sodipodi.sourceforge.net/DTD/sodipodi-0.dtd"
   xmlns="http://www.w3.org/2000/svg"
   xmlns:svg="http://www.w3.org/2000/svg"
   xmlns:rdf="http://www.w3.org/1999/02/22-rdf-syntax-ns#"
   xmlns:cc="http://creativecommons.org/ns#"
   xmlns:dc="http://purl.org/dc/elements/1.1/">
  <g
     id="22-22-kate"
     transform="translate(32,10)"
     style="fill:#bac8df;fill-opacity:1">
    <rect
       style="opacity:0.00100002;fill:#bac8df;fill-opacity:1"
       width="22"
       height="22"
       x="0"
       y="0"
       id="rect2" />
    <path
       d="m 15.172545,5.000151 c -0.05869,-0.0015 -0.119019,0.01407 -0.175791,0.04588 -0.03047,0.01845 -0.162198,0.159861 -0.291726,0.314 L 14.469172,5.6432 14.383741,5.59113 c -0.119615,-0.07044 -0.235006,-0.08596 -0.342647,-0.0424 -0.07429,0.02992 -0.248782,0.230888 -1.392766,1.588999 -0.722016,0.856165 -1.309068,1.563395 -1.307282,1.574308 0.0029,0.0084 0.294525,0.213494 0.649101,0.451188 L 12.638426,9.59824 13.49139,8.583642 c 0.469413,-0.558115 0.859956,-1.009835 0.869325,-1.003582 0.03033,0.01992 0.08562,0.458466 0.07472,0.599396 -0.0078,0.07686 -0.03631,0.214955 -0.06981,0.306621 -0.05932,0.163846 -0.0657,0.173446 -1.123213,1.434952 -0.584841,0.697351 -1.071799,1.289729 -1.080515,1.313128 -0.02468,0.06455 0.0043,0.185311 0.05758,0.254566 0.09142,0.116749 0.317771,0.153632 0.446159,0.0704 0.08873,-0.05783 2.183213,-2.574962 2.249792,-2.706236 C 15.109977,8.478469 15.150281,7.999 15.027164,7.527239 14.978897,7.340012 14.914989,7.16001 14.852983,7.032087 c -0.01842,-0.03444 0.01147,-0.07962 0.207907,-0.314693 0.185076,-0.224382 0.227548,-0.287461 0.230853,-0.3455 0.0088,-0.123679 -0.03457,-0.192575 -0.170897,-0.286842 l -0.126538,-0.08811 0.25144,-0.301507 C 15.45181,5.446085 15.496418,5.380901 15.49965,5.32278 15.508479,5.137528 15.348835,5.001722 15.172574,5 Z m -4.23579,4.181544 c -0.0078,0.0015 -0.775465,0.913374 -1.7107296,2.025449 -1.5043635,1.790799 -1.7183039,2.055912 -1.857054,2.283702 -0.275579,0.453553 -0.5755493,1.145065 -0.7747975,1.77677 -0.1291931,0.405211 -0.1356345,0.368547 0.044644,0.282427 C 7.1940382,15.28232 7.919282,14.847719 8.3412734,14.528138 8.7539361,14.215347 8.824188,14.135783 10.57219,12.057367 L 12.25336,10.056142 11.600113,9.618175 C 11.240829,9.377327 10.943185,9.180883 10.937004,9.181695 Z m 0.189033,4.634873 c -0.08268,-0.006 -0.167624,-0.003 -0.222746,0.0077 v 0.0013 c -0.261204,0.04931 -0.552163,0.251333 -0.692631,0.484178 -0.03752,0.06052 -0.0981,0.19751 -0.135581,0.300786 -0.03467,0.105154 -0.06815,0.192912 -0.07076,0.19512 -0.020034,0.02215 -0.5198061,0.129543 -0.8134407,0.174618 -0.6903404,0.107799 -0.8788798,0.147965 -0.9466026,0.203938 -0.1329562,0.109675 -0.03006,0.220141 0.1585835,0.170933 0.04986,-0.01388 0.2634738,-0.05143 0.4691897,-0.0829 0.2061309,-0.03117 0.5196709,-0.08978 0.6976486,-0.125436 0.1783653,-0.03816 0.3293233,-0.06327 0.3368718,-0.05645 0.00883,0.0066 -0.021759,0.134379 -0.069772,0.284591 l -0.085512,0.269247 -0.1889706,0.07409 c -0.1030777,0.04056 -0.2508347,0.109661 -0.3286687,0.156981 -0.236046,0.138979 -0.2816114,0.313583 -0.1158709,0.4255 0.090484,0.06052 0.3414873,0.05825 0.4971207,-0.0035 0.1379687,-0.05593 0.2156332,-0.134225 0.3237639,-0.338174 0.057604,-0.105538 0.1030963,-0.161224 0.1380003,-0.16799 0.02814,-0.0068 0.27704,-0.05176 0.553041,-0.103458 0.276384,-0.0493 0.527182,-0.0967 0.559575,-0.103413 0.05241,-0.01099 0.05805,-0.0066 0.04302,0.03591 -0.0095,0.02709 -0.05563,0.10584 -0.103532,0.17533 -0.04759,0.0695 -0.08549,0.152143 -0.08549,0.185588 0,0.06949 0.06565,0.13908 0.118331,0.121046 0.02011,-0.0065 0.04717,-0.01361 0.06004,-0.01361 0.01243,0 0.06809,-0.03596 0.123208,-0.08068 0.103065,-0.083 0.351715,-0.489162 0.351715,-0.574425 0,-0.04225 0.03731,-0.05331 0.06001,-0.01947 0.0088,0.01099 0.06468,0.03125 0.127347,0.04439 0.08796,0.01996 0.113407,0.03531 0.113407,0.07117 0,0.06948 0.128389,0.170837 0.241589,0.190736 0.08792,0.01389 0.200938,-0.0035 0.321277,-0.04683 0.043,-0.01609 0.0454,-0.01099 0.03072,0.04683 -0.0096,0.03609 -0.08317,0.150517 -0.161046,0.256049 -0.165737,0.21971 -0.366453,0.569307 -0.419054,0.724054 -0.04286,0.132201 -0.02474,0.231055 0.05242,0.278057 0.07029,0.04055 0.185541,0.02135 0.245685,-0.03693 0.05235,-0.05156 0.339329,-0.591397 0.444521,-0.837759 0.07539,-0.172774 0.110197,-0.219981 0.28101,-0.381523 0.140555,-0.132165 0.186395,-0.163669 0.156139,-0.11222 -0.04994,0.09657 -0.04772,0.17024 0.0087,0.214959 0.117806,0.09649 0.288611,0.0035 0.437132,-0.239903 0.08792,-0.143453 0.153385,-0.185661 0.479857,-0.322797 l 0.170093,-0.06966 -0.01753,0.08286 c -0.0094,0.04457 -0.06807,0.172777 -0.128233,0.282445 -0.118196,0.221971 -0.140122,0.363234 -0.06976,0.484178 0.04733,0.08304 0.09772,0.08572 0.328668,0.01422 0.321429,-0.09652 0.740657,-0.31905 0.849638,-0.446731 0.148052,-0.179573 0.193551,-0.351889 0.103519,-0.410114 -0.09293,-0.06043 -0.145525,-0.03583 -0.263737,0.118846 -0.158243,0.210757 -0.353845,0.374773 -0.542363,0.45779 -0.08792,0.04052 -0.165768,0.0669 -0.173382,0.06019 -0.0094,-0.0088 0.190575,-0.491008 0.29827,-0.717491 0.02248,-0.04677 0.04142,-0.105421 0.04142,-0.129835 0,-0.06274 -0.08817,-0.134233 -0.163512,-0.134233 -0.035,0 -0.201536,0.06021 -0.367297,0.136428 -0.344136,0.152504 -0.32129,0.165952 -0.233365,-0.121052 0.05241,-0.176915 0.03496,-0.224185 -0.08549,-0.235484 -0.11567,-0.011 -0.160651,0.02236 -0.26619,0.190734 -0.06772,0.114195 -0.157867,0.20864 -0.331185,0.352164 -0.228422,0.188153 -0.238679,0.19477 -0.291692,0.161344 -0.08043,-0.05156 -0.125662,-0.04438 -0.321286,0.04264 -0.191003,0.08525 -0.254004,0.09655 -0.301554,0.04457 -0.0404,-0.04251 0.02284,-0.06497 0.372218,-0.125439 0.339068,-0.05821 0.381266,-0.07448 0.381266,-0.137201 0,-0.101034 -0.09301,-0.196902 -0.258856,-0.261901 -0.286511,-0.114147 -0.318345,-0.121332 -0.443719,-0.09243 -0.135472,0.03112 -0.336632,0.20398 -0.36401,0.311805 -0.02814,0.112281 -0.113357,0.07845 -0.113357,-0.04465 0,-0.05156 -0.07073,-0.181415 -0.110976,-0.203934 -0.08539,-0.05156 -0.223087,0.0608 -0.328607,0.267029 l -0.08296,0.159177 -0.185676,0.03591 c -0.241084,0.04683 -0.94157,0.172386 -1.03457,0.188553 -0.06011,0.0088 -0.07018,0.006 -0.05755,-0.02736 0.0094,-0.02208 0.0398,-0.120486 0.06974,-0.221531 0.07774,-0.277948 0.100949,-0.314243 0.213632,-0.349929 0.135459,-0.04247 0.59299,-0.217717 0.710751,-0.271424 0.05532,-0.02509 0.167768,-0.100754 0.25063,-0.167991 C 11.622669,14.273955 11.6625,14.078688 11.48156,13.93524 11.43159,13.89708 11.365977,13.857 11.336113,13.84568 11.289623,13.82956 11.20997,13.81872 11.127448,13.81525 Z m -0.253093,0.261896 c 0.0347,-0.0029 0.07598,-0.0013 0.128172,0.0035 0.132937,0.0066 0.186043,0.01812 0.223465,0.0535 0.04994,0.04443 0.04986,0.04658 0.0079,0.132053 -0.03046,0.05367 -0.100196,0.116831 -0.188153,0.170918 -0.153114,0.09428 -0.633174,0.266633 -0.648264,0.235447 -0.01995,-0.05156 0.133656,-0.35895 0.231688,-0.45776 0.09788,-0.09914 0.143535,-0.131192 0.248186,-0.136419 z m -1.2892773,1.877288 c 0.019657,0.002 0.019699,0.0164 0.00538,0.04376 -0.033268,0.05596 -0.118458,0.09647 -0.1660368,0.08067 -0.055309,-0.01996 -0.040138,-0.04651 0.04777,-0.08725 0.057989,-0.02609 0.095894,-0.03891 0.1149901,-0.03783 z"
       class="ColorScheme-Text "
       id="path14466-5-6"
       style="color:#e5e9ef;fill:#bac8df;fill-opacity:1;stroke-width:0.634194" />
    <path
       d="m 6.2040398,19 h 9.5919342 c 1.21585,-0.0035 2.200639,-0.90258 2.204036,-2.013077 V 5.0130838 c -0.0035,-1.110511 -0.78414,-2.009988 -1.99999,-2.013084 H 6.0000198 c -1.217244,-3e-6 -2.000013,0.901289 -2.00001,2.013089 V 16.986923 c 0,1.111787 0.986795,2.01308 2.20403,2.013077 z M 5.0000198,4.9999998 c 6e-6,-0.667073 0.269667,-0.999996 1,-1 H 16.00002 c 0.730354,0 0.999993,0.332925 1,1 V 17 H 5.0000198 Z"
       id="path3728-1"
       style="fill:#bac8df;fill-opacity:1;stroke-width:0.842515"
       sodipodi:nodetypes="cccccccccccscccc" />
  </g>
  <style
     id="current-color-scheme"
     type="text/css">.ColorScheme-Text { color:#e5e9ef; }
</style>
  <metadata
     id="metadata18">
    <rdf:RDF>
      <cc:Work
         rdf:about="">
        <dc:format>image/svg+xml</dc:format>
        <dc:type
           rdf:resource="http://purl.org/dc/dcmitype/StillImage" />
      </cc:Work>
    </rdf:RDF>
  </metadata>
  <defs
     id="defs16" />
  <sodipodi:namedview
     pagecolor="#000000"
     bordercolor="#0015fe"
     borderopacity="1"
     objecttolerance="10"
     gridtolerance="10"
     guidetolerance="10"
     inkscape:pageopacity="0"
     inkscape:pageshadow="2"
     inkscape:window-width="1920"
     inkscape:window-height="1002"
     id="namedview14"
     showgrid="true"
     inkscape:zoom="9.8125003"
     inkscape:cx="20.229299"
     inkscape:cy="18.038216"
     inkscape:window-x="0"
     inkscape:window-y="0"
     inkscape:window-maximized="1"
     inkscape:current-layer="svg12"
     inkscape:document-rotation="0"
     inkscape:showpageshadow="false"
     inkscape:lockguides="false"
     inkscape:pagecheckerboard="true"
     inkscape:deskcolor="#000000">
    <inkscape:grid
       type="xygrid"
       id="grid8946"
       originx="0"
       originy="0" />
  </sodipodi:namedview>
  <g
     id="kate"
     style="fill:#bac8df;fill-opacity:1">
    <rect
       style="opacity:0.00100002;fill:#bac8df;fill-opacity:1"
       width="32"
       height="32"
       x="0"
       y="0"
       id="rect7" />
    <path
       d="m 22.026864,7.0002964 c -0.08481,-0.00155 -0.171915,0.021231 -0.253935,0.068884 -0.04412,0.027619 -0.234289,0.2397805 -0.421357,0.4709737 l -0.340702,0.424758 -0.123359,-0.078223 c -0.172762,-0.1056465 -0.339426,-0.1289867 -0.494917,-0.06362 -0.107453,0.044938 -0.359354,0.346338 -2.01175,2.3835059 -1.042884,1.28425 -1.890831,2.345087 -1.888281,2.361451 0.003,0.01354 0.42543,0.320253 0.937589,0.676783 l 0.936389,0.652528 1.23204,-1.521893 c 0.678036,-0.837188 1.242138,-1.514765 1.255671,-1.505387 0.04401,0.02994 0.123688,0.687715 0.107994,0.899107 -0.0094,0.115273 -0.05234,0.322428 -0.100887,0.459932 -0.08579,0.245766 -0.09509,0.260166 -1.622405,2.152419 -0.844765,1.046029 -1.548134,1.934597 -1.560738,1.969696 -0.03568,0.09681 0.0063,0.277966 0.08329,0.381849 0.132155,0.175123 0.458988,0.230448 0.644446,0.105602 0.128153,-0.08674 3.153486,-3.862442 3.249659,-4.059356 0.281018,-0.561633 0.339226,-1.28082 0.161396,-1.988474 C 21.747347,10.51 21.654975,10.239996 21.565412,10.048101 21.538692,9.996371 21.582062,9.928606 21.865719,9.576073 22.133051,9.239489 22.194395,9.144883 22.19917,9.057811 22.20986,8.8722932 22.1493,8.7689616 21.952317,8.627562 L 21.769549,8.495414 22.132726,8.043142 C 22.430375,7.6691284 22.494808,7.5713523 22.499469,7.4841537 22.51256,7.2062879 22.281641,7.0025857 22.027045,7 Z m -6.118281,6.2722956 c -0.0094,0.002 -1.120094,1.370069 -2.471036,3.038182 -2.17293,2.686196 -2.48195,3.083866 -2.682372,3.425552 -0.398051,0.680329 -0.831357,1.717596 -1.119131,2.665154 -0.1866111,0.607818 -0.195935,0.55282 0.064398,0.423642 0.801986,-0.401586 1.84954,-1.053488 2.459072,-1.532858 0.596061,-0.469187 0.697526,-0.588532 3.222396,-3.706159 l 2.428336,-3.001834 -0.943567,-0.656948 c -0.518956,-0.36128 -0.948865,-0.65595 -0.957807,-0.654731 z m 0.273014,6.952318 c -0.119339,-0.0091 -0.242112,-0.0046 -0.321728,0.0116 v 0.002 c -0.377291,0.07395 -0.797539,0.377 -1.00044,0.726267 -0.05423,0.09078 -0.141766,0.296266 -0.19586,0.451179 -0.05002,0.157731 -0.09847,0.289369 -0.102151,0.292681 -0.02899,0.03322 -0.750796,0.194314 -1.174964,0.261926 -0.997117,0.161699 -1.269455,0.221948 -1.367288,0.305907 -0.192038,0.164514 -0.04355,0.330212 0.229077,0.2564 0.0719,-0.02083 0.38056,-0.07713 0.677696,-0.124348 0.297752,-0.04677 0.750637,-0.134662 1.007694,-0.188153 0.25766,-0.05724 0.475697,-0.0949 0.486579,-0.08469 0.01052,0.0098 -0.03154,0.201569 -0.100857,0.426887 l -0.123457,0.403853 -0.272944,0.11113 c -0.148842,0.06083 -0.362294,0.164491 -0.474744,0.235471 -0.34093,0.208469 -0.406752,0.470375 -0.167342,0.638251 0.130641,0.09077 0.493244,0.08737 0.718025,-0.0052 0.199311,-0.08391 0.311466,-0.201338 0.467652,-0.507261 0.08336,-0.158307 0.148945,-0.241836 0.199361,-0.251985 0.04064,-0.01025 0.400164,-0.07763 0.798802,-0.155188 0.399219,-0.07394 0.761474,-0.145053 0.808259,-0.155119 0.07578,-0.0165 0.08379,-0.0098 0.06207,0.05385 -0.0142,0.04063 -0.08046,0.158761 -0.149565,0.262996 -0.06882,0.104243 -0.123438,0.228214 -0.123438,0.278381 0,0.104235 0.09495,0.20862 0.170919,0.18157 0.02921,-0.0097 0.06823,-0.02041 0.08666,-0.02041 0.01783,0 0.0984,-0.05395 0.177975,-0.121021 0.148877,-0.124499 0.508029,-0.733744 0.508029,-0.861638 0,-0.06337 0.05402,-0.07995 0.08656,-0.02921 0.01057,0.0165 0.09347,0.04687 0.183952,0.06657 0.127073,0.02995 0.163809,0.05298 0.163809,0.106763 0,0.104217 0.185453,0.256255 0.348956,0.286103 0.126999,0.02084 0.290232,-0.0052 0.464061,-0.07025 0.06201,-0.02414 0.06569,-0.0165 0.04433,0.07025 -0.0142,0.05415 -0.12019,0.225773 -0.232601,0.38407 -0.239399,0.329565 -0.529321,0.853961 -0.605303,1.086081 -0.06178,0.198302 -0.03588,0.346584 0.07578,0.417086 0.101472,0.06083 0.267992,0.03201 0.354875,-0.0554 0.07567,-0.07734 0.490134,-0.887096 0.642071,-1.256639 0.108774,-0.25916 0.159182,-0.329971 0.405895,-0.572284 0.203031,-0.198248 0.269253,-0.245504 0.225534,-0.168331 -0.07211,0.144866 -0.06892,0.255361 0.01047,0.32244 0.170163,0.144727 0.416873,0.0052 0.631404,-0.359855 0.12702,-0.215188 0.221548,-0.2785 0.693118,-0.484203 l 0.245686,-0.104487 -0.0253,0.124301 c -0.01403,0.06686 -0.09834,0.259165 -0.185173,0.423667 -0.170727,0.332955 -0.202399,0.54485 -0.100847,0.726265 0.06846,0.124555 0.141083,0.128579 0.474731,0.02134 0.46428,-0.144776 1.069828,-0.478579 1.227244,-0.6701 0.213851,-0.269359 0.279565,-0.527833 0.149534,-0.61517 -0.134266,-0.09066 -0.210197,-0.05375 -0.380951,0.178268 -0.22857,0.316136 -0.511093,0.562159 -0.783404,0.686685 -0.126981,0.06077 -0.23943,0.100348 -0.250431,0.09028 -0.01404,-0.01323 0.27527,-0.736512 0.430829,-1.076237 0.03233,-0.07015 0.05978,-0.15813 0.05978,-0.194752 0,-0.0941 -0.127422,-0.201349 -0.23618,-0.201349 -0.05052,0 -0.291106,0.09031 -0.530538,0.204642 -0.497066,0.228756 -0.464068,0.248927 -0.337059,-0.181579 0.07578,-0.265372 0.05042,-0.336276 -0.123428,-0.353225 -0.167076,-0.01651 -0.23205,0.03354 -0.384492,0.286101 -0.09788,0.171292 -0.228028,0.31296 -0.47837,0.528245 -0.329939,0.282229 -0.344757,0.292156 -0.421329,0.242017 -0.116059,-0.07733 -0.181508,-0.06656 -0.464076,0.06397 -0.275891,0.127885 -0.366883,0.144827 -0.43557,0.06687 -0.05841,-0.06377 0.03287,-0.09745 0.537642,-0.188159 0.489761,-0.08732 0.550711,-0.111703 0.550711,-0.205801 0,-0.151551 -0.134476,-0.295353 -0.373893,-0.392852 -0.413814,-0.17122 -0.459794,-0.181998 -0.640882,-0.138643 -0.195688,0.04667 -0.486245,0.305971 -0.525787,0.467708 -0.04063,0.168422 -0.16374,0.117663 -0.16374,-0.06697 0,-0.07733 -0.101987,-0.272123 -0.160299,-0.3059 -0.123296,-0.07734 -0.322231,0.0912 -0.474651,0.400542 l -0.119916,0.238767 -0.268203,0.05385 c -0.348226,0.07025 -1.360018,0.258578 -1.494349,0.282828 -0.08674,0.01323 -0.101259,0.009 -0.08327,-0.04104 0.01411,-0.03312 0.05741,-0.180729 0.100817,-0.332295 0.112378,-0.416923 0.145774,-0.471366 0.308574,-0.524894 0.195659,-0.06369 0.85653,-0.326575 1.026634,-0.407137 0.07979,-0.03764 0.242318,-0.15113 0.362017,-0.251986 0.366364,-0.316108 0.423895,-0.609008 0.16255,-0.82418 -0.07211,-0.05724 -0.166932,-0.117357 -0.210066,-0.134342 -0.06702,-0.02418 -0.182208,-0.04043 -0.301404,-0.04564 z m -0.365561,0.392842 c 0.05001,-0.0045 0.109878,-0.002 0.185146,0.0052 0.192026,0.0098 0.268716,0.02717 0.322754,0.08024 0.07205,0.06666 0.07189,0.06986 0.0094,0.19808 -0.04414,0.08049 -0.144745,0.175247 -0.27177,0.256377 -0.221162,0.141423 -0.914577,0.399949 -0.936368,0.35317 -0.02889,-0.07733 0.193053,-0.538424 0.334653,-0.68664 0.141292,-0.148709 0.207329,-0.196788 0.358485,-0.204628 z m -1.862272,2.815934 c 0.02837,0.003 0.02861,0.02461 0.0077,0.06564 -0.04819,0.08395 -0.171105,0.144705 -0.239825,0.120994 -0.07976,-0.02995 -0.05812,-0.06977 0.06895,-0.13087 0.08372,-0.03913 0.138483,-0.05835 0.166093,-0.05673 z"
       class="ColorScheme-Text "
       id="path14466-5"
       style="fill:#bac8df;fill-opacity:1;stroke-width:0.933514" />
    <path
       d="M 9.1486185,27.999999 H 22.851386 C 24.588307,27.995354 25.995156,26.646138 26,24.980373 V 7.0196255 C 25.9952,5.3538595 24.588307,4.0046445 22.851386,3.9999995 H 9.1486185 c -1.738938,-3e-6 -3.148621,1.351935 -3.148618,3.019633 V 24.980373 c 1e-6,1.667695 1.409683,3.019629 3.148618,3.019626 z M 7.0000005,6.9999985 c 6e-6,-1.000609 0.956647,-1.999995 2,-2 H 23 c 1.043355,0 1.999993,0.999387 2,2 V 24.999999 H 7.0000005 Z"
       id="path3728"
       style="fill:#bac8df;fill-opacity:1;stroke-width:1.23337"
       sodipodi:nodetypes="cccccccccccscccc" />
  </g>
</svg>
