<?xml version="1.0" encoding="UTF-8" standalone="no"?>
<svg
   width="32"
   height="32"
   version="1.1"
   id="svg12"
   sodipodi:docname="kmail.svg"
   inkscape:version="1.2.2 (b0a8486541, 2022-12-01)"
   xmlns:inkscape="http://www.inkscape.org/namespaces/inkscape"
   xmlns:sodipodi="http://sodipodi.sourceforge.net/DTD/sodipodi-0.dtd"
   xmlns="http://www.w3.org/2000/svg"
   xmlns:svg="http://www.w3.org/2000/svg"
   xmlns:rdf="http://www.w3.org/1999/02/22-rdf-syntax-ns#"
   xmlns:cc="http://creativecommons.org/ns#"
   xmlns:dc="http://purl.org/dc/elements/1.1/">
  <style
     id="current-color-scheme"
     type="text/css">.ColorScheme-Text { color:#d6dbf1; }
</style>
  <metadata
     id="metadata18">
    <rdf:RDF>
      <cc:Work
         rdf:about="">
        <dc:format>image/svg+xml</dc:format>
        <dc:type
           rdf:resource="http://purl.org/dc/dcmitype/StillImage" />
      </cc:Work>
    </rdf:RDF>
  </metadata>
  <defs
     id="defs16" />
  <sodipodi:namedview
     pagecolor="#000000"
     bordercolor="#1600ef"
     borderopacity="1"
     objecttolerance="10"
     gridtolerance="10"
     guidetolerance="10"
     inkscape:pageopacity="0"
     inkscape:pageshadow="2"
     inkscape:window-width="1920"
     inkscape:window-height="1002"
     id="namedview14"
     showgrid="true"
     inkscape:zoom="9.8125003"
     inkscape:cx="27.159235"
     inkscape:cy="23.898088"
     inkscape:window-x="0"
     inkscape:window-y="0"
     inkscape:window-maximized="1"
     inkscape:current-layer="svg12"
     inkscape:document-rotation="0"
     inkscape:pagecheckerboard="true"
     inkscape:lockguides="true"
     inkscape:showpageshadow="false"
     inkscape:deskcolor="#000000">
    <inkscape:grid
       type="xygrid"
       id="grid830"
       originx="0"
       originy="0" />
  </sodipodi:namedview>
  <g
     id="kmail">
    <rect
       style="opacity:0.00100002;fill:#d1d5e9;fill-opacity:1"
       width="32"
       height="32"
       x="0"
       y="0"
       id="rect7" />
    <path
       d="M 27.225465,4 H 4.7745346 C 2.6899167,4 0.99999995,5.6926852 0.99999995,7.7807182 V 24.219281 c 1.5e-7,2.088033 1.68991675,3.780718 3.77453465,3.780718 H 27.225465 C 29.310083,27.999999 31,26.307314 31,24.219281 V 7.7807182 C 31,5.6926851 29.310083,3.9999998 27.225465,4 Z M 4.7745346,5 H 27.225465 C 29,5 29.921145,6.4289718 30,7.6143666 26.27076,9.6105859 22.001509,11.591682 18.257171,13.587901 c -0.506565,0.317972 -1.042503,0.58638 -1.600403,0.801513 -0.886022,0.17514 -1.804455,-0.0397 -2.521388,-0.589792 C 11.991445,12.665406 9.847509,11.516068 7.7186716,10.381852 5.9974838,9.47448 3.7211877,8.5519847 2,7.6294895 2.0726861,6.4388145 3,5 4.7745346,5 Z M 30,24.219281 C 30.000008,25.472101 29,27 27.225465,27 H 4.7745346 C 3,27 2,25.472101 2,24.219281 V 9.3459356 c 3.5631607,1.8752364 7.621037,3.7807184 11.184197,5.6710774 0.636611,0.390943 1.321943,0.696034 2.038248,0.907372 1.048386,0.170733 2.122872,-0.0499 3.019628,-0.620037 2.18923,-1.149339 4.363362,-2.3138 6.552592,-3.463138 1.570206,-0.846881 3.635035,-1.663516 5.205242,-2.4952744 z"
       id="path624"
       style="fill:#bac8df;fill-opacity:1;stroke-width:1.51105"
       sodipodi:nodetypes="ssssssssscccccccccscssccccccs" />
    <path
       d="M 18.999993,14.999991 C 18.999993,16.657659 17.657639,18 15.999996,18 14.343744,18.000001 13,16.657659 13,14.999991 13,13.343738 14.343744,12 15.999996,12 c 1.657643,0 2.999997,1.343738 2.999997,2.999991 z"
       id="path72-3"
       style="fill:#bac8df;fill-opacity:1;stroke-width:0.0357142" />
  </g>
  <g
     id="22-22-kmail">
    <rect
       style="opacity:0.00100002;fill:#d1d5e9;fill-opacity:1"
       width="22"
       height="22"
       x="32"
       y="10"
       id="rect2" />
    <path
       d="M 50.483644,13 H 35.516357 C 34.126611,13 33,14.128457 33,15.520479 V 26.479521 C 33,27.871543 34.126611,29 35.516357,29 h 14.967287 c 1.389746,0 2.516357,-1.128457 2.516357,-2.520479 V 15.520479 C 53.000001,14.128457 51.87339,13 50.483644,13 Z m -14.967287,1 h 14.967287 c 0.790717,-0.0023 1.463787,0.619314 1.516356,1.409578 -2.48616,1.330813 -4.998993,2.651544 -7.495219,3.982356 -0.33771,0.211981 -0.695002,0.39092 -1.066935,0.534342 -0.590682,0.11676 -1.20297,-0.02646 -1.680926,-0.393194 -1.42929,-0.756144 -2.85858,-1.52237 -4.277805,-2.278514 C 36.331656,16.649653 35.147459,16.034657 34,15.419659 34.048458,14.625875 34.722392,13.999051 35.516357,14 Z M 52,26.479521 C 52,27.314735 51.317492,28 50.483644,28 H 35.516357 C 34.68251,28 34,27.314735 34,26.479521 v -9.915564 c 2.37544,1.250158 4.747358,2.520479 7.122798,3.780719 0.424408,0.260629 0.881296,0.464022 1.358833,0.604914 0.698924,0.113822 1.415248,-0.03327 2.013085,-0.413358 1.459487,-0.766226 2.908908,-1.542533 4.368395,-2.308758 C 49.909915,17.662886 50.953195,17.118462 52,16.563957 Z"
       id="path624-3"
       style="fill:#bac8df;fill-opacity:1;stroke-width:1.00737"
       sodipodi:nodetypes="ssssssssscccccccccssssccccccs" />
    <path
       d="M 44.999997,19.999994 C 44.999997,21.105106 44.1051,22 43,22 c -1.104169,1e-6 -1.999996,-0.894894 -1.999996,-2.000006 C 41.000004,18.895826 41.895831,18 43,18 c 1.1051,0 1.999997,0.895826 1.999997,1.999994 z"
       id="path72-3-3"
       style="fill:#bac8df;fill-opacity:1;stroke-width:0.0238099" />
  </g>
</svg>
