<?xml version="1.0" encoding="UTF-8" standalone="no"?>
<svg
   width="32"
   height="32"
   version="1.1"
   id="svg12"
   sodipodi:docname="konversation.svg"
   inkscape:version="1.2.2 (b0a8486541, 2022-12-01)"
   xmlns:inkscape="http://www.inkscape.org/namespaces/inkscape"
   xmlns:sodipodi="http://sodipodi.sourceforge.net/DTD/sodipodi-0.dtd"
   xmlns="http://www.w3.org/2000/svg"
   xmlns:svg="http://www.w3.org/2000/svg"
   xmlns:rdf="http://www.w3.org/1999/02/22-rdf-syntax-ns#"
   xmlns:cc="http://creativecommons.org/ns#"
   xmlns:dc="http://purl.org/dc/elements/1.1/">
  <style
     id="current-color-scheme"
     type="text/css">.ColorScheme-Text { color:#d6dbf1; }
</style>
  <metadata
     id="metadata18">
    <rdf:RDF>
      <cc:Work
         rdf:about="">
        <dc:format>image/svg+xml</dc:format>
        <dc:type
           rdf:resource="http://purl.org/dc/dcmitype/StillImage" />
      </cc:Work>
    </rdf:RDF>
  </metadata>
  <defs
     id="defs16" />
  <sodipodi:namedview
     pagecolor="#000000"
     bordercolor="#0000ee"
     borderopacity="1"
     objecttolerance="10"
     gridtolerance="10"
     guidetolerance="10"
     inkscape:pageopacity="0"
     inkscape:pageshadow="2"
     inkscape:window-width="1920"
     inkscape:window-height="1002"
     id="namedview14"
     showgrid="true"
     inkscape:zoom="6.9384855"
     inkscape:cx="25.437828"
     inkscape:cy="27.88793"
     inkscape:window-x="0"
     inkscape:window-y="0"
     inkscape:window-maximized="1"
     inkscape:current-layer="svg12"
     inkscape:document-rotation="0"
     inkscape:pagecheckerboard="true"
     inkscape:showpageshadow="false"
     inkscape:lockguides="true"
     inkscape:deskcolor="#000000">
    <inkscape:grid
       type="xygrid"
       id="grid10976"
       originx="0"
       originy="0" />
  </sodipodi:namedview>
  <g
     id="konversation">
    <rect
       style="opacity:0.00100002;fill:#bac8df;fill-opacity:1"
       width="32"
       height="32"
       x="0"
       y="0"
       id="rect7-7" />
    <path
       d="M 9.7538816,12 H 22.546059 C 22.861487,12 23.3,11.551997 23.3,10.999999 23.3,10.447999 22.761546,10 22.446118,10 H 9.7538816 C 9.4384528,10 9,10.447999 9,10.999999 9,11.551997 9.4384528,12 9.7538816,12 Z"
       id="path2653-4"
       style="fill:#bac8df;fill-opacity:1;stroke-width:0.377965"
       sodipodi:nodetypes="sssssss" />
    <path
       d="M 9.8387093,17 H 21.161287 c 0.462971,0 0.838712,-0.447999 0.838712,-0.999999 C 21.999999,15.448003 21.624258,15 21.161287,15 H 9.8387093 C 9.3757413,15 9,15.448003 9,16.000001 9,16.552001 9.3757413,17 9.8387093,17 Z"
       id="path2655-5"
       style="fill:#bac8df;fill-opacity:1;stroke-width:0.457905" />
    <path
       style="color:#d6dbf1;fill:none;fill-opacity:1;stroke:#bac8df;stroke-width:1.60402;stroke-linecap:round;stroke-miterlimit:4;stroke-dasharray:none;stroke-opacity:1;stop-color:#31363b"
       sodipodi:type="arc"
       sodipodi:cx="-16"
       sodipodi:cy="-16.00001"
       sodipodi:rx="11.201572"
       sodipodi:ry="11.201572"
       sodipodi:start="3.7596615"
       sodipodi:end="3.7574109"
       sodipodi:open="true"
       sodipodi:arc-type="arc"
       transform="scale(-1)"
       d="m -25.12927,-22.490899 a 11.201572,11.201572 0 0 1 15.6150219,-2.642032 11.201572,11.201572 0 0 1 2.6508169,15.6135337 11.201572,11.201572 0 0 1 -15.6120398,2.6596014 11.201572,11.201572 0 0 1 -2.668385,-15.6105401"
       id="path7-3"
       class="ColorScheme-Text" />
    <path
       d="M 9.9225806,22 H 22.377418 C 22.886685,22 23.3,21.552001 23.3,21.000001 23.3,20.448003 22.886685,20 22.377418,20 H 9.9225806 C 9.4133157,20 9,20.448003 9,21.000001 9,21.552001 9.4133157,22 9.9225806,22 Z"
       id="path2655-5-3"
       style="fill:#bac8df;fill-opacity:1;stroke-width:0.480255" />
    <path
       d="m 28.999993,27 c 0,1.657668 -1.342354,3.000009 -2.999997,3.000009 C 24.343744,30.00001 23,28.657668 23,27 c 0,-1.656253 1.343744,-2.999991 2.999996,-2.999991 1.657643,0 2.999997,1.343738 2.999997,2.999991 z"
       id="path72-3"
       style="color:#e5e9ef;fill:#bac8df;fill-opacity:1;stroke-width:0.0357142"
       class="ColorScheme-Text" />
  </g>
  <g
     id="22-22-konversation"
     transform="translate(32,10)">
    <g
       id="g974">
      <rect
         style="opacity:0.00100002;fill:#bac8df;fill-opacity:1"
         width="22"
         height="22"
         x="0"
         y="0"
         id="rect2-3" />
      <path
         d="M 7.3736468,8 H 14.626353 C 14.806594,8 15,7.775998 15,7.499999 15,7.223998 14.806594,7 14.626353,7 H 7.3736468 C 7.1934061,7 7,7.223998 7,7.499999 7,7.775998 7.1934061,8 7.3736468,8 Z"
         id="path2653-0-9"
         style="fill:#bac8df;fill-opacity:1;stroke-width:0.202035"
         sodipodi:nodetypes="sssssss" />
      <path
         d="M 7.5161272,11.000038 H 14.483871 C 14.768776,11.000038 15,10.776031 15,10.50002 15,10.224012 14.768774,9.999999 14.483871,9.999999 H 7.5161272 C 7.2312223,9.999999 7,10.224012 7,10.50002 c 0,0.276011 0.2312223,0.500018 0.5161272,0.500018 z"
         id="path2655-9-4"
         style="fill:#bac8df;fill-opacity:1;stroke-width:0.254" />
      <path
         style="color:#d6dbf1;fill:none;fill-opacity:1;stroke:#bac8df;stroke-width:1.06935;stroke-linecap:round;stroke-miterlimit:4;stroke-dasharray:none;stroke-opacity:1;stop-color:#31363b"
         sodipodi:type="arc"
         sodipodi:cx="-11"
         sodipodi:cy="-10.99999"
         sodipodi:rx="7.4677143"
         sodipodi:ry="7.4677143"
         sodipodi:start="3.7596615"
         sodipodi:end="3.7594297"
         sodipodi:open="true"
         sodipodi:arc-type="arc"
         transform="scale(-1)"
         d="m -17.08618,-15.32725 a 7.4677143,7.4677143 0 0 1 10.4130866,-1.759171 7.4677143,7.4677143 0 0 1 1.7597746,10.4129844 7.4677143,7.4677143 0 0 1 -10.4128822,1.7603781 7.4677143,7.4677143 0 0 1 -1.760982,-10.4127805"
         id="path7-3-6"
         class="ColorScheme-Text" />
      <path
         d="m 7.516128,14 h 6.967744 c 0.284905,0 0.516129,-0.224007 0.516129,-0.500018 0,-0.276008 -0.231226,-0.500021 -0.516129,-0.500021 H 7.516128 c -0.284905,0 -0.516127,0.224013 -0.516127,0.500021 C 7.000001,13.775993 7.231223,14 7.516128,14 Z"
         id="path2655-9-4-7"
         style="fill:#bac8df;fill-opacity:1;stroke-width:0.254" />
      <path
         d="M 19.999993,17.999991 C 19.999993,19.105108 19.105108,20 17.999996,20 16.895828,20.000001 16,19.105108 16,17.999991 16,16.895828 16.895828,16 17.999996,16 c 1.105112,0 1.999997,0.895828 1.999997,1.999991 z"
         id="path72-3-5"
         style="color:#e5e9ef;fill:#bac8df;fill-opacity:1;stroke-width:0.0238092"
         class="ColorScheme-Text" />
    </g>
  </g>
</svg>
