<?xml version="1.0" encoding="UTF-8" standalone="no"?>
<svg
   width="32"
   height="32"
   version="1.1"
   id="svg12"
   sodipodi:docname="konv_message.svg"
   inkscape:version="1.2.2 (b0a8486541, 2022-12-01)"
   xmlns:inkscape="http://www.inkscape.org/namespaces/inkscape"
   xmlns:sodipodi="http://sodipodi.sourceforge.net/DTD/sodipodi-0.dtd"
   xmlns="http://www.w3.org/2000/svg"
   xmlns:svg="http://www.w3.org/2000/svg"
   xmlns:rdf="http://www.w3.org/1999/02/22-rdf-syntax-ns#"
   xmlns:cc="http://creativecommons.org/ns#"
   xmlns:dc="http://purl.org/dc/elements/1.1/">
  <g
     id="konv_message">
    <rect
       style="opacity:0.00100002;fill:#556fa6;fill-opacity:1"
       width="32"
       height="32"
       x="0"
       y="0"
       id="rect7" />
    <path
       d="M 9.7538842,12 H 22.54606 c 0.315428,0 0.753941,-0.448003 0.753941,-1.000001 C 23.300001,10.447999 22.761547,10 22.446119,10 H 9.7538842 c -0.315429,0 -0.753882,0.447999 -0.753882,0.999999 0,0.551998 0.438453,1.000001 0.753882,1.000001 z"
       id="path2653-4"
       style="fill:#4e70ac;fill-opacity:1;stroke-width:0.377965"
       sodipodi:nodetypes="sssssss" />
    <path
       d="M 9.8387112,17 H 21.161288 C 21.624259,17 22,16.552001 22,16.000001 22,15.448003 21.624259,15 21.161288,15 H 9.8387112 c -0.462968,0 -0.838709,0.448003 -0.838709,1.000001 0,0.552 0.375741,0.999999 0.838709,0.999999 z"
       id="path2655-5"
       style="fill:#4e70ac;fill-opacity:1;stroke-width:0.457905" />
    <path
       style="color:#d6dbf1;fill:none;fill-opacity:1;stroke:#4e70ac;stroke-width:1.60402;stroke-linecap:round;stroke-miterlimit:4;stroke-dasharray:none;stroke-opacity:1;stop-color:#31363b"
       sodipodi:type="arc"
       sodipodi:cx="-16.000002"
       sodipodi:cy="-16.00001"
       sodipodi:rx="11.201572"
       sodipodi:ry="11.201572"
       sodipodi:start="3.7596615"
       sodipodi:end="3.7574109"
       sodipodi:open="true"
       sodipodi:arc-type="arc"
       transform="scale(-1)"
       d="m -25.129272,-22.490899 a 11.201572,11.201572 0 0 1 15.615022,-2.642032 11.201572,11.201572 0 0 1 2.6508169,15.6135337 11.201572,11.201572 0 0 1 -15.6120389,2.6596014 11.201572,11.201572 0 0 1 -2.668386,-15.6105401"
       id="path7-3"
       class="ColorScheme-Text" />
    <path
       d="M 9.9225832,22 H 22.377419 c 0.509267,0 0.922582,-0.447999 0.922582,-0.999999 C 23.300001,20.448003 22.886686,20 22.377419,20 H 9.9225832 c -0.509265,0 -0.922581,0.448003 -0.922581,1.000001 0,0.552 0.413316,0.999999 0.922581,0.999999 z"
       id="path2655-5-3"
       style="fill:#4e70ac;fill-opacity:1;stroke-width:0.480255" />
    <path
       d="m 28.999993,27 c 0,1.657669 -1.342355,3.000009 -2.999997,3.000009 C 24.343745,30.00001 23,28.657669 23,27 c 0,-1.656252 1.343745,-2.999991 2.999996,-2.999991 1.657642,0 2.999997,1.343739 2.999997,2.999991 z"
       id="path72-3"
       style="color:#e5e9ef;fill:#4e70ac;fill-opacity:1;stroke-width:0.0357141"
       class="ColorScheme-Text" />
  </g>
  <style
     id="current-color-scheme"
     type="text/css">.ColorScheme-Highlight { color:#7580bc; }
</style>
  <metadata
     id="metadata18">
    <rdf:RDF>
      <cc:Work
         rdf:about="">
        <dc:format>image/svg+xml</dc:format>
        <dc:type
           rdf:resource="http://purl.org/dc/dcmitype/StillImage" />
      </cc:Work>
    </rdf:RDF>
  </metadata>
  <defs
     id="defs16" />
  <sodipodi:namedview
     pagecolor="#000000"
     bordercolor="#0024fe"
     borderopacity="1"
     objecttolerance="10"
     gridtolerance="10"
     guidetolerance="10"
     inkscape:pageopacity="0"
     inkscape:pageshadow="2"
     inkscape:window-width="1920"
     inkscape:window-height="1002"
     id="namedview14"
     showgrid="true"
     inkscape:zoom="9.8125"
     inkscape:cx="17.88535"
     inkscape:cy="22.063694"
     inkscape:window-x="0"
     inkscape:window-y="0"
     inkscape:window-maximized="1"
     inkscape:current-layer="svg12"
     inkscape:document-rotation="0"
     inkscape:pagecheckerboard="true"
     inkscape:showpageshadow="false"
     inkscape:lockguides="false"
     inkscape:deskcolor="#000000">
    <inkscape:grid
       type="xygrid"
       id="grid896"
       originx="0"
       originy="0" />
  </sodipodi:namedview>
  <g
     id="22-22-konv_message"
     transform="translate(32,10)">
    <rect
       style="opacity:0.00100002;fill:#556fa6;fill-opacity:1"
       width="22"
       height="22"
       x="0"
       y="0"
       id="rect2" />
    <path
       d="m 7.373648,7.999962 h 7.252706 c 0.180241,0 0.373647,-0.224002 0.373647,-0.500001 0,-0.276001 -0.193406,-0.499999 -0.373647,-0.499999 H 7.373648 c -0.180241,0 -0.373647,0.223998 -0.373647,0.499999 0,0.275999 0.193406,0.500001 0.373647,0.500001 z"
       id="path2653-0-9"
       style="fill:#4e70ac;fill-opacity:1;stroke-width:0.202035"
       sodipodi:nodetypes="sssssss" />
    <path
       d="m 7.516128,11 h 6.967744 c 0.284905,0 0.516129,-0.224007 0.516129,-0.500018 0,-0.276008 -0.231226,-0.500021 -0.516129,-0.500021 H 7.516128 c -0.284905,0 -0.516127,0.224013 -0.516127,0.500021 C 7.000001,10.775993 7.231223,11 7.516128,11 Z"
       id="path2655-9-4"
       style="fill:#4e70ac;fill-opacity:1;stroke-width:0.254" />
    <path
       style="color:#d6dbf1;fill:none;fill-opacity:1;stroke:#4e70ac;stroke-width:1.06935;stroke-linecap:round;stroke-miterlimit:4;stroke-dasharray:none;stroke-opacity:1;stop-color:#31363b"
       sodipodi:type="arc"
       sodipodi:cx="-11.000001"
       sodipodi:cy="-10.999952"
       sodipodi:rx="7.4677143"
       sodipodi:ry="7.4677143"
       sodipodi:start="3.7596615"
       sodipodi:end="3.7594297"
       sodipodi:open="true"
       sodipodi:arc-type="arc"
       transform="scale(-1)"
       d="m -17.086181,-15.327212 a 7.4677143,7.4677143 0 0 1 10.4130867,-1.759171 7.4677143,7.4677143 0 0 1 1.7597746,10.4129846 7.4677143,7.4677143 0 0 1 -10.4128823,1.760378 7.4677143,7.4677143 0 0 1 -1.760982,-10.4127806"
       id="path7-3-6"
       class="ColorScheme-Text" />
    <path
       d="m 7.516129,13.999962 h 6.967744 c 0.284905,0 0.516129,-0.224007 0.516129,-0.500018 0,-0.276008 -0.231226,-0.500021 -0.516129,-0.500021 H 7.516129 c -0.284905,0 -0.516127,0.224013 -0.516127,0.500021 0,0.276011 0.231222,0.500018 0.516127,0.500018 z"
       id="path2655-9-4-7"
       style="fill:#4e70ac;fill-opacity:1;stroke-width:0.254" />
    <path
       d="m 19.399994,17.499953 c 0,0.828837 -0.671165,1.500009 -1.499997,1.500009 -0.828128,1e-6 -1.499996,-0.671172 -1.499996,-1.500009 0,-0.828123 0.671868,-1.499991 1.499996,-1.499991 0.828832,0 1.499997,0.671868 1.499997,1.499991 z"
       id="path72-3-5"
       style="color:#e5e9ef;fill:#4e70ac;fill-opacity:1;stroke-width:0.0178572"
       class="ColorScheme-Text" />
  </g>
</svg>
