<?xml version="1.0" encoding="UTF-8" standalone="no"?>
<svg
   width="32"
   height="32"
   version="1.1"
   id="svg12"
   sodipodi:docname="korgac.svg"
   inkscape:version="1.2.2 (b0a8486541, 2022-12-01)"
   xmlns:inkscape="http://www.inkscape.org/namespaces/inkscape"
   xmlns:sodipodi="http://sodipodi.sourceforge.net/DTD/sodipodi-0.dtd"
   xmlns="http://www.w3.org/2000/svg"
   xmlns:svg="http://www.w3.org/2000/svg"
   xmlns:rdf="http://www.w3.org/1999/02/22-rdf-syntax-ns#"
   xmlns:cc="http://creativecommons.org/ns#"
   xmlns:dc="http://purl.org/dc/elements/1.1/">
  <g
     id="22-22-korgac"
     style="fill:#bac8df;fill-opacity:1">
    <rect
       style="opacity:0.00100002;fill:#bac8df;fill-opacity:1"
       width="22"
       height="22"
       x="32"
       y="10.000001"
       id="rect2" />
    <path
       d="m 50.682237,17.513244 a 1.8582104,1.8582104 0 0 0 0,-2.62655 L 49.34455,13.539791 a 1.8775577,1.8775577 0 0 0 -2.634844,0 l -0.61726,0.607123 a 7.5894606,7.5894606 0 0 0 -3.104691,-0.651342 7.676059,7.676059 0 0 0 -3.12312,0.654108 l -0.59699,-0.609889 a 1.8775577,1.8775577 0 0 0 -2.634844,0 l -1.335845,1.346903 a 1.8609738,1.8609738 0 0 0 -0.009,2.62655 l 0.59883,0.617256 a 7.7562086,7.7562086 0 1 0 14.860158,3.123126 7.738702,7.738702 0 0 0 -0.66332,-3.142472 z m -14.731178,-1.981653 1.33585,-1.335848 a 0.93601438,0.93601438 0 0 1 1.326635,0 l 0.40536,0.396145 a 7.76358,7.76358 0 0 0 -2.680909,2.671697 L 35.951059,16.86744 a 0.94614887,0.94614887 0 0 1 0,-1.335849 z m 7.036696,12.547751 a 6.8312507,6.8312507 0 1 1 6.835854,-6.825716 6.8367766,6.8367766 0 0 1 -6.835854,6.825716 z m 6.6516,-10.824975 a 7.9026905,7.9026905 0 0 0 -2.680904,-2.662479 l 0.405353,-0.396145 a 0.93601438,0.93601438 0 0 1 1.32664,0 l 1.335852,1.335848 a 0.94614887,0.94614887 0 0 1 0,1.33677 z"
       id="path2-3"
       style="fill:#bac8df;fill-opacity:1;stroke-width:0.921267" />
    <path
       d="m 47.632822,21.705045 h -4.645067 a 0.41917987,0.41917987 0 0 1 -0.248747,-0.0746 c -0.02764,-0.01847 -0.04604,-0.03598 -0.0645,-0.04518 a 0.40720331,0.40720331 0 0 1 -0.147401,-0.331652 v -4.644145 a 0.46063861,0.46063861 0 0 1 0.921276,0 v 4.17429 h 4.182587 a 0.46063962,0.46063962 0 0 1 0.0021,0.921276 z"
       id="path4-6"
       style="fill:#bac8df;fill-opacity:1;stroke-width:0.921267" />
  </g>
  <style
     id="current-color-scheme"
     type="text/css">.ColorScheme-Text { color:#d6dbf1; }
</style>
  <metadata
     id="metadata18">
    <rdf:RDF>
      <cc:Work
         rdf:about="">
        <dc:format>image/svg+xml</dc:format>
        <dc:type
           rdf:resource="http://purl.org/dc/dcmitype/StillImage" />
      </cc:Work>
    </rdf:RDF>
  </metadata>
  <defs
     id="defs16" />
  <sodipodi:namedview
     pagecolor="#000000"
     bordercolor="#2500fb"
     borderopacity="1"
     objecttolerance="10"
     gridtolerance="10"
     guidetolerance="10"
     inkscape:pageopacity="0"
     inkscape:pageshadow="2"
     inkscape:window-width="1920"
     inkscape:window-height="1002"
     id="namedview14"
     showgrid="true"
     inkscape:zoom="9.8125"
     inkscape:cx="25.834395"
     inkscape:cy="20.840764"
     inkscape:window-x="0"
     inkscape:window-y="0"
     inkscape:window-maximized="1"
     inkscape:current-layer="svg12"
     inkscape:document-rotation="0"
     inkscape:pagecheckerboard="true"
     inkscape:lockguides="false"
     inkscape:showpageshadow="false"
     inkscape:deskcolor="#000000">
    <inkscape:grid
       type="xygrid"
       id="grid858"
       originx="0"
       originy="0" />
  </sodipodi:namedview>
  <g
     id="korgac"
     style="fill:#bac8df;fill-opacity:1">
    <rect
       style="opacity:0.00100002;fill:#bac8df;fill-opacity:1"
       width="32"
       height="32"
       x="0"
       y="0"
       id="rect7" />
    <path
       d="m 27.648505,10.769867 a 2.7873141,2.7873141 0 0 0 0,-3.9398278 L 25.641971,4.8096856 a 2.8163342,2.8163342 0 0 0 -3.952265,0 l -0.92588,0.9106792 A 11.384181,11.384181 0 0 0 16.106786,4.7433539 11.514081,11.514081 0 0 0 11.422109,5.7245105 L 10.526631,4.8096856 a 2.8163342,2.8163342 0 0 0 -3.9522653,0 L 4.570595,6.8300392 A 2.7914598,2.7914598 0 0 0 4.556776,10.769867 l 0.898242,0.92588 a 11.634307,11.634307 0 1 0 22.290221,4.684678 11.608051,11.608051 0 0 0 -0.994976,-4.713698 z M 5.5517517,7.7973767 7.5555223,5.7936061 a 1.4040214,1.4040214 0 0 1 1.9899516,0 L 10.153515,6.3878277 A 11.645362,11.645362 0 0 0 6.1321542,10.395369 L 5.5517517,9.8011474 a 1.4192224,1.4192224 0 0 1 0,-2.0037707 z M 16.106786,26.619002 A 10.246869,10.246869 0 1 1 26.360564,16.380425 10.25516,10.25516 0 0 1 16.106786,26.619002 Z M 26.084182,10.38155 a 11.854031,11.854031 0 0 0 -4.02136,-3.9937223 l 0.608041,-0.5942216 a 1.4040214,1.4040214 0 0 1 1.989951,0 l 2.003771,2.0037706 a 1.4192224,1.4192224 0 0 1 0,2.0051526 z"
       id="path2"
       style="fill:#bac8df;fill-opacity:1;stroke-width:1.38191" />
    <path
       d="M 23.074381,17.057561 H 16.106786 A 0.62876941,0.62876941 0 0 1 15.73367,16.945626 c -0.04146,-0.02764 -0.0691,-0.05389 -0.09673,-0.06771 A 0.61080457,0.61080457 0 0 1 15.415831,16.380425 V 9.4142124 a 0.6909555,0.6909555 0 0 1 1.381911,0 V 15.67565 h 6.273875 a 0.69095692,0.69095692 0 0 1 0.0028,1.381911 z"
       id="path4"
       style="fill:#bac8df;fill-opacity:1;stroke-width:1.38191" />
  </g>
</svg>
