<?xml version="1.0" encoding="UTF-8" standalone="no"?>
<svg
   width="32"
   height="32"
   version="1.1"
   id="svg22"
   sodipodi:docname="mail.svg"
   inkscape:version="1.2.2 (b0a8486541, 2022-12-01)"
   xmlns:inkscape="http://www.inkscape.org/namespaces/inkscape"
   xmlns:sodipodi="http://sodipodi.sourceforge.net/DTD/sodipodi-0.dtd"
   xmlns="http://www.w3.org/2000/svg"
   xmlns:svg="http://www.w3.org/2000/svg"
   xmlns:rdf="http://www.w3.org/1999/02/22-rdf-syntax-ns#"
   xmlns:cc="http://creativecommons.org/ns#"
   xmlns:dc="http://purl.org/dc/elements/1.1/">
  <style
     id="current-color-scheme"
     type="text/css">.ColorScheme-Highlight { color:#7580bc; }
.ColorScheme-Text { color:#d1d5e9; }
</style>
  <metadata
     id="metadata28">
    <rdf:RDF>
      <cc:Work
         rdf:about="">
        <dc:format>image/svg+xml</dc:format>
        <dc:type
           rdf:resource="http://purl.org/dc/dcmitype/StillImage" />
      </cc:Work>
    </rdf:RDF>
  </metadata>
  <defs
     id="defs26" />
  <sodipodi:namedview
     pagecolor="#000000"
     bordercolor="#001ff6"
     borderopacity="1"
     objecttolerance="10"
     gridtolerance="10"
     guidetolerance="10"
     inkscape:pageopacity="0"
     inkscape:pageshadow="2"
     inkscape:window-width="1920"
     inkscape:window-height="1002"
     id="namedview24"
     showgrid="true"
     inkscape:zoom="6.9384853"
     inkscape:cx="21.690613"
     inkscape:cy="37.25597"
     inkscape:window-x="0"
     inkscape:window-y="0"
     inkscape:window-maximized="1"
     inkscape:current-layer="svg22"
     inkscape:document-rotation="0"
     inkscape:pagecheckerboard="true"
     inkscape:lockguides="false"
     inkscape:showpageshadow="false"
     inkscape:deskcolor="#000000">
    <inkscape:grid
       type="xygrid"
       id="grid1369"
       originx="2.5e-08"
       originy="32.127712" />
  </sodipodi:namedview>
  <g
     id="mail-unread">
    <rect
       style="opacity:0.00100002;fill:#d1d5e9;fill-opacity:1"
       width="32"
       height="32"
       x="2.5e-08"
       y="32.127712"
       id="rect7" />
    <path
       d="M 27.225465,36.127712 H 4.7745346 c -2.0846179,0 -3.77453463,1.692685 -3.77453463,3.780718 v 16.438563 c 1.3e-7,2.088033 1.68991673,3.780718 3.77453463,3.780718 H 27.225465 C 29.310083,60.127711 31,58.435026 31,56.346993 V 39.90843 c 0,-2.088033 -1.689917,-3.780718 -3.774535,-3.780718 z m -22.4509304,1 H 27.225465 c 1.774535,0 2.69568,1.428972 2.774535,2.614367 -3.72924,1.996219 -7.998491,3.977315 -11.742829,5.973534 -0.506565,0.317972 -1.042503,0.58638 -1.600403,0.801513 -0.886022,0.17514 -1.804455,-0.0397 -2.521388,-0.589792 C 11.991445,44.793118 9.847509,43.64378 7.7186716,42.509564 5.9974838,41.602192 3.7211877,40.679697 2,39.757201 2.0726861,38.566527 3,37.127712 4.7745346,37.127712 Z M 30,56.346993 c 8e-6,1.25282 -1,2.780719 -2.774535,2.780719 H 4.7745346 C 3,59.127712 2,57.599813 2,56.346993 V 41.473648 c 3.5631607,1.875236 7.621037,3.780718 11.184197,5.671077 0.636611,0.390943 1.321943,0.696034 2.038248,0.907372 1.048386,0.170733 2.122872,-0.0499 3.019628,-0.620037 2.18923,-1.149339 4.363362,-2.3138 6.552592,-3.463138 1.570206,-0.846881 3.635035,-1.663516 5.205242,-2.495274 z"
       id="path624"
       style="fill:#bac8df;fill-opacity:1;stroke-width:1.51105"
       sodipodi:nodetypes="ssssssssscccccccccscssccccccs" />
    <path
       d="M 18.999997,46.999991 C 18.999997,48.657659 17.657643,50 16,50 14.343748,50.000001 13.000004,48.657659 13.000004,46.999991 13.000004,45.343738 14.343748,44 16,44 c 1.657643,0 2.999997,1.343738 2.999997,2.999991 z"
       id="path72-3"
       style="fill:#bac8df;fill-opacity:1;stroke-width:0.0357142" />
  </g>
  <g
     id="mail-unread-new">
    <rect
       style="opacity:0.00100002;fill:#d1d5e9;fill-opacity:1"
       width="32"
       height="32"
       x="-2.9215244e-16"
       y="-2.4975586e-07"
       id="rect7-7" />
    <path
       d="M 27.225465,4.000001 H 4.7745346 c -2.0846179,0 -3.77453466,1.692685 -3.77453466,3.780718 V 24.219282 C 1.0000001,26.307315 2.6899167,28 4.7745346,28 H 27.225465 C 29.310083,28 31,26.307315 31,24.219282 V 7.780719 C 31,5.692686 29.310083,4.000001 27.225465,4.000001 Z m -22.4509304,1 H 27.225465 C 29,5.000001 29.921145,6.428973 30,7.614368 c -3.72924,1.996219 -7.998491,3.977315 -11.742829,5.973534 -0.506565,0.317972 -1.042503,0.58638 -1.600403,0.801513 -0.886022,0.17514 -1.804455,-0.0397 -2.521388,-0.589792 C 11.991445,12.665407 9.847509,11.516069 7.7186716,10.381853 5.9974838,9.474481 3.7211877,8.551986 2,7.629491 2.072686,6.438816 3,5.000001 4.7745346,5.000001 Z M 30,24.219282 c 8e-6,1.25282 -1,2.780719 -2.774535,2.780719 H 4.7745346 C 3,27.000001 2,25.472102 2,24.219282 V 9.345937 c 3.5631607,1.875236 7.621037,3.780718 11.184197,5.671077 0.636611,0.390943 1.321943,0.696034 2.038248,0.907372 1.048386,0.170733 2.122872,-0.0499 3.019628,-0.620037 2.18923,-1.149339 4.363362,-2.3138 6.552592,-3.463138 1.570206,-0.846881 3.635035,-1.663516 5.205242,-2.495274 z"
       id="path624-5"
       style="fill:#4e70ac;fill-opacity:1;stroke-width:1.51105"
       sodipodi:nodetypes="ssssssssscccccccccscssccccccs" />
    <path
       d="M 19,14.999991 C 19,16.657659 17.657646,18 16.000003,18 c -1.656252,1e-6 -2.999996,-1.342341 -2.999996,-3.000009 C 13.000007,13.343738 14.343751,12 16.000003,12 17.657646,12 19,13.343738 19,14.999991 Z"
       id="path72-3-3"
       style="fill:#4e70ac;fill-opacity:1;stroke-width:0.0357142" />
  </g>
  <g
     id="22-22-mail-unread-new">
    <rect
       style="opacity:0.00100002;fill:#d1d5e9;fill-opacity:1"
       width="22"
       height="22"
       x="32"
       y="10.000002"
       id="rect2-3-5" />
    <path
       d="M 50.483644,13.000001 H 35.516357 C 34.126611,13.000001 33,14.128458 33,15.52048 v 10.959042 c 0,1.392022 1.126611,2.520479 2.516357,2.520479 h 14.967287 c 1.389746,0 2.516357,-1.128457 2.516357,-2.520479 V 15.52048 c 0,-1.392022 -1.126611,-2.520479 -2.516357,-2.520479 z m -14.967287,1 h 14.967287 c 0.790717,-0.0023 1.463787,0.619314 1.516356,1.409578 -2.48616,1.330813 -4.998993,2.651544 -7.495219,3.982356 -0.33771,0.211981 -0.695002,0.39092 -1.066935,0.534342 -0.590682,0.11676 -1.20297,-0.02646 -1.680926,-0.393194 -1.42929,-0.756144 -2.85858,-1.52237 -4.277805,-2.278514 C 36.331656,16.649654 35.147459,16.034658 34,15.41966 c 0.04846,-0.793784 0.722392,-1.420608 1.516357,-1.419659 z M 52,26.479522 c 0,0.835214 -0.682508,1.520479 -1.516356,1.520479 H 35.516357 C 34.68251,28.000001 34,27.314736 34,26.479522 v -9.915564 c 2.37544,1.250158 4.747358,2.520479 7.122798,3.780719 0.424408,0.260629 0.881296,0.464022 1.358833,0.604914 0.698924,0.113822 1.415248,-0.03327 2.013085,-0.413358 1.459487,-0.766226 2.908908,-1.542533 4.368395,-2.308758 C 49.909915,17.662887 50.953195,17.118463 52,16.563958 Z"
       id="path624-3-6"
       style="fill:#4e70ac;fill-opacity:1;stroke-width:1.00737"
       sodipodi:nodetypes="ssssssssscccccccccssssccccccs" />
    <path
       d="M 45,19.999994 C 45,21.105106 44.105103,22 43.000003,22 c -1.104169,1e-6 -1.999996,-0.894894 -1.999996,-2.000006 C 41.000007,18.895826 41.895834,18 43.000003,18 44.105103,18 45,18.895826 45,19.999994 Z"
       id="path72-3-3-6"
       style="fill:#4e70ac;fill-opacity:1;stroke-width:0.0238099" />
  </g>
  <g
     id="22-22-mail-unread">
    <rect
       style="opacity:0.00100002;fill:#d1d5e9;fill-opacity:1"
       width="22"
       height="22"
       x="32"
       y="42.127712"
       id="rect2-3" />
    <path
       d="M 50.483644,45.127712 H 35.516357 C 34.126611,45.127712 33,46.256169 33,47.648191 v 10.959042 c 0,1.392022 1.126611,2.520479 2.516357,2.520479 h 14.967287 c 1.389746,0 2.516357,-1.128457 2.516357,-2.520479 V 47.648191 c 0,-1.392022 -1.126611,-2.520479 -2.516357,-2.520479 z m -14.967287,1 h 14.967287 c 0.790717,-0.0023 1.463787,0.619314 1.516356,1.409578 -2.48616,1.330813 -4.998993,2.651544 -7.495219,3.982356 -0.33771,0.211981 -0.695002,0.39092 -1.066935,0.534342 -0.590682,0.11676 -1.20297,-0.02646 -1.680926,-0.393194 C 40.32763,50.90465 38.89834,50.138424 37.479115,49.38228 36.331656,48.777365 35.147459,48.162369 34,47.547371 c 0.04846,-0.793784 0.722392,-1.420608 1.516357,-1.419659 z M 52,58.607233 c 0,0.835214 -0.682508,1.520479 -1.516356,1.520479 H 35.516357 C 34.68251,60.127712 34,59.442447 34,58.607233 v -9.915564 c 2.37544,1.250158 4.747358,2.520479 7.122798,3.780719 0.424408,0.260629 0.881296,0.464022 1.358833,0.604914 0.698924,0.113822 1.415248,-0.03327 2.013085,-0.413358 1.459487,-0.766226 2.908908,-1.542533 4.368395,-2.308758 C 49.909915,49.790598 50.953195,49.246174 52,48.691669 Z"
       id="path624-3"
       style="fill:#bac8df;fill-opacity:1;stroke-width:1.00737"
       sodipodi:nodetypes="ssssssssscccccccccssssccccccs" />
    <path
       d="M 44.999993,51.999994 C 44.999993,53.105106 44.105096,54 42.999996,54 41.895827,54.000001 41,53.105106 41,51.999994 41,50.895826 41.895827,50 42.999996,50 c 1.1051,0 1.999997,0.895826 1.999997,1.999994 z"
       id="path72-3-3-7"
       style="fill:#bac8df;fill-opacity:1;stroke-width:0.0238099" />
  </g>
</svg>
