<?xml version="1.0" encoding="UTF-8" standalone="no"?>
<svg
   id="svg50"
   width="31.999996"
   height="32"
   version="1.1"
   sodipodi:docname="microphone.svg"
   inkscape:version="1.2.2 (b0a8486541, 2022-12-01)"
   xmlns:inkscape="http://www.inkscape.org/namespaces/inkscape"
   xmlns:sodipodi="http://sodipodi.sourceforge.net/DTD/sodipodi-0.dtd"
   xmlns="http://www.w3.org/2000/svg"
   xmlns:svg="http://www.w3.org/2000/svg"
   xmlns:rdf="http://www.w3.org/1999/02/22-rdf-syntax-ns#"
   xmlns:cc="http://creativecommons.org/ns#"
   xmlns:dc="http://purl.org/dc/elements/1.1/">
  <g
     id="22-22-microphone-sensitivity-muted"
     transform="translate(0,-22)">
    <path
       style="opacity:0.00100002;fill:#e5e9ef;fill-opacity:1"
       d="M 0,0 H 21.999997 V 22 H 0 Z"
       id="path26" />
    <path
       fill="currentColor"
       class="ColorScheme-Text"
       d="m 4.5,9.133339 v 1.866659 c 0,2.419002 1.5264,4.437167 3.9,4.900388 v 1.766278 H 6.58 c -0.78,0 -0.78,1.333335 0,1.333335 h 6.24 c 0.78,0 0.78,-1.333335 0,-1.333335 h -1.82001 v -1.766277 c 2.37361,-0.463223 3.9,-2.481387 3.9,-4.900388 v -1.86666 c 0,-0.8 -1.29999,-0.8 -1.29999,0 V 11 c 0,2.209139 -1.6025,3.800002 -3.89999,3.800002 C 7.4025,14.800002 5.8,13.20914 5.8,11 V 9.133338 c 0,-0.8 -1.299997,-0.8 -1.3,10e-7 z M 9.70001,3 C 7.97687,3 6.58,4.343144 6.58,5.999999 v 4.999997 c 0,1.656852 1.39687,2.999999 3.12001,2.999999 1.72312,0 3.11999,-1.343147 3.11999,-2.999999 V 5.999999 C 12.82,4.343144 11.42313,3 9.70001,3 Z"
       id="path661-6-2-2"
       style="color:#bac8df;fill:#bac8df;fill-opacity:1;stroke-width:1.01981"
       sodipodi:nodetypes="csccccccccsccsssccsssssss" />
    <path
       d="M 20.499999,3.2499772 C 20.499999,4.493261 19.493219,5.5 18.249958,5.5 17.007784,5.5 15.999999,4.493261 15.999999,3.2499772 15.999999,2.0078201 17.007784,1 18.249958,1 c 1.243261,0 2.250041,1.0078201 2.250041,2.2499772 z"
       id="path72-3-2-7-7"
       style="color:#e5e9ef;fill:#da4453;fill-opacity:1;stroke-width:0.026786"
       class="ColorScheme-Text" />
    <path
       d="M 20.499999,9.0499894 C 20.499999,10.293266 19.493221,11.3 18.24996,11.3 17.007783,11.3 15.999999,10.293266 15.999999,9.0499894 15.999999,7.8078278 17.007783,6.8 18.24996,6.8 c 1.243261,0 2.250039,1.0078278 2.250039,2.2499894 z"
       id="path72-3-3-9-0-0"
       style="color:#e5e9ef;fill:#da4453;fill-opacity:1;stroke-width:0.0267866"
       class="ColorScheme-Text" />
    <path
       d="m 21.197269,16.818216 -1.818303,-1.818388 1.817757,-1.81796 c 0.270282,-0.270473 0.270282,-0.708771 0,-0.979136 -0.270601,-0.270187 -0.708861,-0.270187 -0.978894,0 l -1.817984,1.818081 -1.818014,-1.818081 c -0.270322,-0.270187 -0.708603,-0.270467 -0.979084,1.07e-4 -0.270308,0.270257 -0.270308,0.708659 1.18e-4,0.979024 l 1.818014,1.817965 -1.818196,1.818388 c -0.270244,0.270277 -0.270244,0.708746 0,0.978976 C 15.738929,17.932148 15.914995,18 16.092281,18 c 0.1782,0 0.35442,-0.06782 0.48955,-0.202808 L 18.4,15.978836 20.218438,17.797192 C 20.353535,17.932192 20.530762,18 20.707922,18 c 0.176601,0 0.354262,-0.06782 0.489328,-0.202808 0.270313,-0.270167 0.270313,-0.708658 0,-0.978976 z"
       id="path3490-3-36-3"
       style="fill:#da4453;fill-opacity:1;stroke-width:0.0142191;enable-background:new" />
  </g>
  <g
     id="microphone-sensitivity-medium"
     transform="translate(-64.000002)">
    <path
       style="opacity:0.00100002;fill:#e5e9ef;fill-opacity:1"
       d="M 0,0 H 32.000001 V 32.000001 H 0 Z"
       id="path31" />
    <path
       d="m 6,13.200001 v 2.799996 c 0,3.628511 2.348314,6.655749 6,7.350574 l 4e-6,2.649428 H 9.2 c -1.199996,0 -1.199996,2 0,2 h 9.6 c 1.2,0 1.2,-2 0,-2 H 16 v -2.649428 c 3.65169,-0.694825 6,-3.722065 6,-7.350574 v -2.799996 c 0,-1.2 -2,-1.2 -2,0 V 16 c 0,3.313698 -2.46538,5.7 -5.999997,5.7 -3.534618,0 -5.999999,-2.386302 -5.999999,-5.7 v -2.8 c 0,-1.2 -2,-1.2 -2.000004,1e-6 z M 14.000003,4 C 11.349031,4 9.200004,6.014722 9.200004,8.499999 v 7.499996 c 0,2.485274 2.149027,4.499999 4.799999,4.499999 2.650967,0 4.799997,-2.014725 4.799997,-4.499998 V 8.499999 C 18.8,6.014722 16.65097,4 14.000003,4 Z"
       id="path661-6"
       sodipodi:nodetypes="csccccccccsccsssccsssssss"
       style="fill:#bac8df;fill-opacity:1" />
    <path
       d="M 29,5.9999802 C 29,7.6576508 27.657668,9 25.999969,9 24.34373,9 23,7.6576508 23,5.9999802 23,4.3437294 24.34373,3 25.999969,3 27.657668,3 29,4.3437294 29,5.9999802 Z"
       id="path72-3-2"
       style="color:#e5e9ef;fill:#bac8df;fill-opacity:0.501219;stroke-width:0.0357143"
       class="ColorScheme-Text" />
    <path
       d="M 28.999942,13.499987 C 28.999942,15.157666 27.657623,16.5 25.999939,16.5 24.343719,16.5 23,15.157666 23,13.499987 23,11.843733 24.343719,10.5 25.999939,10.5 c 1.657684,0 3.000003,1.343733 3.000003,2.999987 z"
       id="path72-3-3-9"
       style="color:#e5e9ef;fill:#bac8df;fill-opacity:1;stroke-width:0.0357144"
       class="ColorScheme-Text" />
    <path
       d="M 28.999988,20.999973 C 28.999988,22.657653 27.657637,24 25.999994,24 24.343753,24 23,22.657653 23,20.999973 23,19.343707 24.343753,18 25.999994,18 c 1.657643,0 2.999994,1.343707 2.999994,2.999973 z"
       id="path72-3-3-6-1"
       style="color:#e5e9ef;fill:#bac8df;fill-opacity:1;stroke-width:0.0357145"
       class="ColorScheme-Text" />
  </g>
  <style
     id="current-color-scheme"
     type="text/css" />
  <metadata
     id="metadata67">
    <rdf:RDF>
      <cc:Work
         rdf:about="">
        <dc:format>image/svg+xml</dc:format>
        <dc:type
           rdf:resource="http://purl.org/dc/dcmitype/StillImage" />
      </cc:Work>
    </rdf:RDF>
  </metadata>
  <defs
     id="defs65" />
  <sodipodi:namedview
     pagecolor="#000000"
     bordercolor="#0013ff"
     borderopacity="1"
     objecttolerance="10"
     gridtolerance="10"
     guidetolerance="10"
     inkscape:pageopacity="0"
     inkscape:pageshadow="2"
     inkscape:window-width="1920"
     inkscape:window-height="1002"
     id="namedview63"
     showgrid="true"
     inkscape:zoom="4.8060006"
     inkscape:cx="-22.99209"
     inkscape:cy="3.1210983"
     inkscape:window-x="0"
     inkscape:window-y="0"
     inkscape:window-maximized="1"
     inkscape:current-layer="svg50"
     inkscape:document-rotation="0"
     inkscape:lockguides="true"
     inkscape:showpageshadow="false"
     inkscape:pagecheckerboard="true"
     inkscape:deskcolor="#000000">
    <inkscape:grid
       type="xygrid"
       id="grid5308"
       originx="0"
       originy="0" />
  </sodipodi:namedview>
  <g
     id="microphone-sensitivity-high"
     transform="translate(-96.000004)">
    <path
       style="opacity:0.00100002;fill:#e5e9ef;fill-opacity:1"
       d="M 0,0 H 32.000001 V 32.000001 H 0 Z"
       id="path2" />
    <path
       d="m 6,13.2 v 2.799996 c 0,3.628511 2.348314,6.65575 6,7.350574 L 12.000004,26 H 9.2 c -1.199996,0 -1.199996,2 0,2 h 9.6 c 1.200004,0 1.200004,-2 0,-2 H 16.000004 L 16,23.35057 c 3.651685,-0.694824 6,-3.722063 6,-7.350574 V 13.2 c 4e-6,-1.2 -1.999996,-1.2 -1.999996,0 V 16 c 0,3.313698 -2.465383,5.7 -6.000001,5.7 -3.534618,0 -5.999999,-2.386302 -5.999999,-5.7 v -2.8 c 0,-1.2 -2,-1.2 -2.000004,0 z M 14.000003,4 C 11.349031,4 9.200004,6.0147223 9.200004,8.4999985 v 7.4999975 c 0,2.485274 2.149027,4.499998 4.799999,4.499998 2.65097,0 4.799998,-2.014724 4.799998,-4.499998 V 8.4999985 C 18.800001,6.0147223 16.650973,4 14.000003,4 Z"
       id="path661"
       sodipodi:nodetypes="csccccccccsccsssccsssssss"
       style="fill:#bac8df;fill-opacity:1" />
    <path
       d="M 29,5.9999803 C 29,7.6576507 27.657647,9 25.999998,9 24.343753,9 23,7.6576507 23,5.9999803 23,4.3437294 24.343753,3 25.999998,3 27.657647,3 29,4.3437294 29,5.9999803 Z"
       id="path72-3"
       style="color:#e5e9ef;fill:#bac8df;fill-opacity:1;stroke-width:0.0357141"
       class="ColorScheme-Text" />
    <path
       d="M 28.999977,13.299987 C 28.999977,14.957665 27.657629,16.3 25.999987,16.3 24.343748,16.3 23,14.957665 23,13.299987 23,11.643735 24.343748,10.3 25.999987,10.3 c 1.657642,0 2.99999,1.343735 2.99999,2.999987 z"
       id="path72-3-3"
       style="color:#e5e9ef;fill:#bac8df;fill-opacity:1;stroke-width:0.0357141"
       class="ColorScheme-Text" />
    <path
       d="M 28.999986,20.999976 C 28.999986,22.657652 27.65764,24 25.999991,24 24.343749,24 23,22.657652 23,20.999976 23,19.343725 24.343749,18 25.999991,18 c 1.657649,0 2.999995,1.343725 2.999995,2.999976 z"
       id="path72-3-3-6"
       style="color:#e5e9ef;fill:#bac8df;fill-opacity:1;stroke-width:0.0357144"
       class="ColorScheme-Text" />
  </g>
  <g
     id="microphone-sensitivity-low"
     transform="translate(-32.000001)">
    <path
       style="opacity:0.00100002;fill:#e5e9ef;fill-opacity:1"
       d="M 0,0 H 32.000001 V 32.000001 H 0 Z"
       id="path38" />
    <path
       d="m 6,13.200001 v 2.799996 c 0,3.628511 2.34831,6.65575 6,7.350574 V 26 H 9.2 C 8,26 8,28 9.2,28 h 9.600002 c 1.2,0 1.2,-2 0,-2 h -2.8 v -2.649429 c 3.65168,-0.694824 6,-3.722063 6,-7.350574 v -2.799996 c 0,-1.2 -2,-1.2 -2,0 V 16 c 0,3.313698 -2.46538,5.7 -6,5.7 C 10.46538,21.7 8,19.313698 8,16 V 13.2 C 8,12 6,12 6,13.200001 Z M 14.000002,4 C 11.34903,4 9.2,6.014722 9.2,8.499999 v 7.499997 c 0,2.485274 2.14903,4.499999 4.800002,4.499999 2.65097,0 4.8,-2.014725 4.8,-4.499998 V 8.499999 C 18.800002,6.014722 16.650972,4 14.000002,4 Z"
       id="path661-7"
       sodipodi:nodetypes="csccccccccsccsssccsssssss"
       style="fill:#bac8df;fill-opacity:1" />
    <path
       d="M 28.999981,5.9999801 C 28.999981,7.6576506 27.657661,9 25.999986,9 24.343746,9 23.000022,7.6576506 23.000022,5.9999801 23.000022,4.3437294 24.343746,3 25.999986,3 c 1.657675,0 2.999995,1.3437294 2.999995,2.9999801 z"
       id="path72-3-5"
       style="color:#e5e9ef;fill:#bac8df;fill-opacity:0.5;stroke-width:0.0357142"
       class="ColorScheme-Text" />
    <path
       d="m 28.999982,13.499987 c 0,1.657679 -1.34232,3.000013 -2.999996,3.000013 -1.656239,0 -2.999964,-1.342334 -2.999964,-3.000013 0,-1.656261 1.343725,-2.999987 2.999964,-2.999987 1.657676,0 2.999996,1.343726 2.999996,2.999987 z"
       id="path72-3-3-3"
       style="color:#e5e9ef;fill:#bac8df;fill-opacity:0.5;stroke-width:0.035714"
       class="ColorScheme-Text" />
    <path
       d="M 28.999989,20.999979 C 28.999989,22.657662 27.657639,24 25.999991,24 24.34375,24 23.000002,22.657662 23.000002,20.999979 23.000002,19.343725 24.34375,18 25.999991,18 c 1.657648,0 2.999998,1.343725 2.999998,2.999979 z"
       id="path72-3-3-6-5"
       style="color:#e5e9ef;fill:#bac8df;fill-opacity:1;stroke-width:0.0357142"
       class="ColorScheme-Text" />
  </g>
  <g
     id="microphone-sensitivity-muted">
    <path
       style="opacity:0.00100002;fill:#e5e9ef;fill-opacity:1"
       d="M 0,0 H 31.999997 V 32.000001 H 0 Z"
       id="path45" />
    <path
       d="m 6,13.200001 v 2.799996 c 0,3.628511 2.34831,6.655749 6,7.350574 v 2.649428 H 9.2 c -1.2,0 -1.2,2 0,2 h 9.6 c 1.2,0 1.2,-2 0,-2 H 16 v -2.649428 c 3.65169,-0.694826 6,-3.722066 6,-7.350574 v -2.799996 c 0,-1.2 -2,-1.2 -2,0 V 16 c 0,3.313698 -2.46538,5.7 -6,5.7 -3.53462,0 -6,-2.386302 -6,-5.7 V 13.2 C 8,12 6,12 6,13.200001 Z M 14,4 C 11.34903,4 9.2,6.014722 9.2,8.499999 v 7.499996 c 0,2.485274 2.14903,4.499999 4.8,4.499999 2.65097,0 4.8,-2.014724 4.8,-4.499997 V 8.499999 C 18.8,6.014722 16.65097,4 14,4 Z"
       id="path661-6-2-6"
       sodipodi:nodetypes="csccccccccsccsssccsssssss"
       style="fill:#bac8df;fill-opacity:1" />
    <path
       d="M 29.399957,5.99998 C 29.399957,7.6576507 28.057637,9 26.399966,9 24.743737,9 23.4,7.6576507 23.4,5.99998 23.4,4.3437295 24.743737,3 26.399966,3 c 1.657671,0 2.999991,1.3437295 2.999991,2.99998 z"
       id="path72-3-2-7-0"
       style="color:#e5e9ef;fill:#da4453;fill-opacity:1;stroke-width:0.0357144"
       class="ColorScheme-Text" />
    <path
       d="M 29.399952,13.499987 C 29.399952,15.157664 28.057633,16.5 26.399962,16.5 24.743736,16.5 23.4,15.157664 23.4,13.499987 23.4,11.843735 24.743736,10.5 26.399962,10.5 c 1.657671,0 2.99999,1.343735 2.99999,2.999987 z"
       id="path72-3-3-9-0-6"
       style="color:#e5e9ef;fill:#da4453;fill-opacity:1;stroke-width:0.0357142"
       class="ColorScheme-Text" />
    <path
       d="m 30.229691,23.424285 -2.424576,-2.424526 2.42382,-2.423908 c 0.360534,-0.360645 0.360534,-0.945067 0,-1.305547 -0.360621,-0.360361 -0.945096,-0.360361 -1.305185,0 l -2.424,2.424095 -2.424072,-2.424095 c -0.360303,-0.360361 -0.944728,-0.360497 -1.30536,1.41e-4 -0.360394,0.360423 -0.360394,0.944904 1.68e-4,1.305402 l 2.424,2.423912 -2.424178,2.424496 c -0.360411,0.36045 -0.360411,0.945014 0,1.305345 0.180166,0.180072 0.416428,0.2704 0.652741,0.2704 0.236177,0 0.472407,-0.0903 0.65278,-0.2704 l 2.424173,-2.424491 2.424401,2.424491 C 29.104516,24.909682 29.340871,25 29.577016,25 c 0.236103,0 0.472575,-0.0903 0.652612,-0.2704 0.360523,-0.360329 0.360523,-0.94489 0,-1.305345 z"
       id="path3490-3-36"
       style="fill:#da4453;fill-opacity:1;stroke-width:0.0189584;enable-background:new" />
  </g>
  <g
     id="22-22-microphone-sensitivity-high"
     transform="translate(-96.000003,-22)">
    <path
       style="opacity:0.00100002;fill:#e5e9ef;fill-opacity:1"
       d="M 0,0 H 22 V 22 H 0 Z"
       id="path7-5" />
    <path
       fill="currentColor"
       class="ColorScheme-Text"
       d="m 4.5,9.133339 v 1.866659 c 0,2.419002 1.526404,4.437167 3.899999,4.900388 l 4e-6,1.766278 H 6.58 c -0.779998,0 -0.779998,1.333335 0,1.333335 h 6.240002 c 0.779999,0 0.779999,-1.333334 0,-1.333334 h -1.820008 v -1.766278 c 2.373607,-0.463222 3.899999,-2.481387 3.899999,-4.900388 v -1.86666 c 0,-0.8 -1.299992,-0.8 -1.299992,0 V 11 c 0,2.209139 -1.602506,3.800001 -3.899995,3.800001 C 7.402499,14.800001 5.800002,13.209139 5.800002,11 V 9.133338 c 0,-0.8 -1.299999,-0.8 -1.300002,10e-7 z M 9.700006,3 C 7.976868,3 6.580002,4.343144 6.580002,5.999999 v 4.999997 c 0,1.656851 1.396866,2.999998 3.120004,2.999998 1.723125,0 3.119996,-1.343147 3.119996,-2.999998 V 5.999999 C 12.820002,4.343144 11.423131,3 9.700006,3 Z"
       id="path661-6-2"
       style="color:#bac8df;fill:#bac8df;fill-opacity:1;stroke-width:1.01981"
       sodipodi:nodetypes="csccccccccsccsssccsssssss" />
    <path
       d="M 20.5,3.2499775 C 20.5,4.4932601 19.493227,5.5 18.249971,5.5 17.007774,5.5 16,4.4932601 16,3.2499775 16,2.00782 17.007774,1 18.249971,1 19.493227,1 20.5,2.00782 20.5,3.2499775 Z"
       id="path72-3-2-7"
       style="color:#e5e9ef;fill:#bac8df;fill-opacity:0.94574;stroke-width:0.026787"
       class="ColorScheme-Text" />
    <path
       d="M 20.500001,9.0499858 C 20.500001,10.293263 19.493228,11.3 18.249971,11.3 17.007774,11.3 16,10.293263 16,9.0499858 16,7.807825 17.007774,6.8 18.249971,6.8 c 1.243257,0 2.25003,1.007825 2.25003,2.2499858 z"
       id="path72-3-3-9-0"
       style="color:#e5e9ef;fill:#bac8df;fill-opacity:1;stroke-width:0.026787"
       class="ColorScheme-Text" />
    <path
       d="M 20.5,14.749965 C 20.5,15.993216 19.493224,17 18.249992,17 17.007787,17 16,15.993216 16,14.749965 16,13.507775 17.007787,12.5 18.249992,12.5 19.493224,12.5 20.5,13.507775 20.5,14.749965 Z"
       id="path72-3-3-6-1-9"
       style="color:#e5e9ef;fill:#bac8df;fill-opacity:1;stroke-width:0.0267871"
       class="ColorScheme-Text" />
  </g>
  <g
     id="22-22-microphone-sensitivity-medium"
     transform="translate(-64.000002,-22)">
    <path
       style="opacity:0.00100002;fill:#e5e9ef;fill-opacity:1"
       d="M 0,0 H 22 V 22 H 0 Z"
       id="path12" />
    <path
       fill="currentColor"
       class="ColorScheme-Text"
       d="m 4.4,9.133339 v 1.866659 c 0,2.419002 1.526404,4.437167 3.899999,4.900388 l 4e-6,1.766278 H 6.48 c -0.779998,0 -0.779998,1.333335 0,1.333335 h 6.240002 c 0.779999,0 0.779999,-1.333335 0,-1.333335 h -1.820008 v -1.766277 c 2.373607,-0.463221 3.899999,-2.481387 3.899999,-4.900388 v -1.86666 c 0,-0.8 -1.299992,-0.8 -1.299992,0 V 11 c 0,2.209139 -1.602506,3.800002 -3.899995,3.800002 C 7.302499,14.800002 5.700002,13.20914 5.700002,11 V 9.133338 c 0,-0.8 -1.299999,-0.8 -1.300002,10e-7 z M 9.600006,3 C 7.876868,3 6.480002,4.343144 6.480002,5.999999 v 4.999997 c 0,1.656852 1.396866,2.999999 3.120004,2.999999 1.723125,0 3.119996,-1.343147 3.119996,-2.999999 V 5.999999 C 12.720002,4.343144 11.323131,3 9.600006,3 Z"
       id="path661-6-2-3"
       style="color:#bac8df;fill:#bac8df;fill-opacity:1;stroke-width:1.01981"
       sodipodi:nodetypes="csccccccccsccsssccsssssss" />
    <path
       d="M 20.5,3.2499776 C 20.5,4.4932597 19.493226,5.5 18.249979,5.5 17.007772,5.5 16,4.4932597 16,3.2499776 16,2.0078199 17.007772,1 18.249979,1 19.493226,1 20.5,2.0078199 20.5,3.2499776 Z"
       id="path72-3-2-7-6"
       style="color:#e5e9ef;fill:#bac8df;fill-opacity:0.5;stroke-width:0.0267877"
       class="ColorScheme-Text" />
    <path
       d="M 20.5,9.049985 C 20.5,10.293262 19.493226,11.3 18.249991,11.3 17.007774,11.3 16,10.293262 16,9.049985 16,7.8078242 17.007774,6.8 18.249991,6.8 19.493226,6.8 20.5,7.8078242 20.5,9.049985 Z"
       id="path72-3-3-9-0-7"
       style="color:#e5e9ef;fill:#bac8df;fill-opacity:1;stroke-width:0.0267873"
       class="ColorScheme-Text" />
    <path
       d="M 20.5,14.749965 C 20.5,15.993216 19.493222,17 18.249994,17 17.007784,17 16,15.993216 16,14.749965 16,13.507774 17.007784,12.5 18.249994,12.5 19.493222,12.5 20.5,13.507774 20.5,14.749965 Z"
       id="path72-3-3-6-1-9-5"
       style="color:#e5e9ef;fill:#bac8df;fill-opacity:1;stroke-width:0.0267873"
       class="ColorScheme-Text" />
  </g>
  <g
     id="22-22-microphone-sensitivity-low"
     transform="translate(-32.000001,-22)">
    <path
       style="opacity:0.00100002;fill:#e5e9ef;fill-opacity:1"
       d="M 0,0 H 22 V 22 H 0 Z"
       id="path19" />
    <path
       fill="currentColor"
       class="ColorScheme-Text"
       d="m 4.5,9.133339 v 1.866659 c 0,2.419002 1.526404,4.437167 3.899999,4.900388 l 4e-6,1.766278 H 6.58 c -0.779998,0 -0.779998,1.333335 0,1.333335 h 6.240002 c 0.779999,0 0.779999,-1.333335 0,-1.333335 h -1.820008 v -1.766277 c 2.373607,-0.463223 3.899999,-2.481387 3.899999,-4.900388 v -1.86666 c 0,-0.8 -1.299992,-0.8 -1.299992,0 V 11 c 0,2.209139 -1.602506,3.800002 -3.899995,3.800002 C 7.402499,14.800002 5.800002,13.20914 5.800002,11 V 9.133338 c 0,-0.8 -1.299999,-0.8 -1.300002,10e-7 z M 9.700006,3 C 7.976868,3 6.580002,4.343144 6.580002,5.999999 v 4.999997 c 0,1.656852 1.396866,2.999999 3.120004,2.999999 1.723125,0 3.119996,-1.343147 3.119996,-2.999999 V 5.999999 C 12.820002,4.343144 11.423131,3 9.700006,3 Z"
       id="path661-6-2-35"
       style="color:#bac8df;fill:#bac8df;fill-opacity:1;stroke-width:1.01981"
       sodipodi:nodetypes="csccccccccsccsssccsssssss" />
    <path
       d="M 20.5,3.2499777 C 20.5,4.4932595 19.493224,5.5 18.249992,5.5 17.007772,5.5 16,4.4932595 16,3.2499777 16,2.0078199 17.007772,1 18.249992,1 19.493224,1 20.5,2.0078199 20.5,3.2499777 Z"
       id="path72-3-2-7-62"
       style="color:#e5e9ef;fill:#bac8df;fill-opacity:0.5;stroke-width:0.0267874"
       class="ColorScheme-Text" />
    <path
       d="M 20.499994,9.0499839 C 20.499994,10.293262 19.49322,11.3 18.249988,11.3 17.00777,11.3 16,10.293262 16,9.0499839 16,7.8078238 17.00777,6.8 18.249988,6.8 c 1.243232,0 2.250006,1.0078238 2.250006,2.2499839 z"
       id="path72-3-3-9-0-9"
       style="color:#e5e9ef;fill:#bac8df;fill-opacity:0.5;stroke-width:0.0267874"
       class="ColorScheme-Text" />
    <path
       d="M 20.5,14.749966 C 20.5,15.993217 19.493223,17 18.249993,17 17.007784,17 16,15.993217 16,14.749966 16,13.507773 17.007784,12.5 18.249993,12.5 19.493223,12.5 20.5,13.507773 20.5,14.749966 Z"
       id="path72-3-3-6-1-9-1"
       style="color:#e5e9ef;fill:#bac8df;fill-opacity:1;stroke-width:0.0267874"
       class="ColorScheme-Text" />
  </g>
</svg>
