<?xml version="1.0" encoding="UTF-8" standalone="no"?>
<svg
   width="32"
   height="32"
   version="1.1"
   id="svg12"
   sodipodi:docname="nulloy.svg"
   inkscape:version="1.2.2 (b0a8486541, 2022-12-01)"
   xmlns:inkscape="http://www.inkscape.org/namespaces/inkscape"
   xmlns:sodipodi="http://sodipodi.sourceforge.net/DTD/sodipodi-0.dtd"
   xmlns="http://www.w3.org/2000/svg"
   xmlns:svg="http://www.w3.org/2000/svg">
  <style
     id="current-color-scheme"
     type="text/css">
.ColorScheme-Text { 
    color:#d6dbf1;
}
</style>
  <defs
     id="defs16" />
  <sodipodi:namedview
     id="namedview14"
     pagecolor="#000000"
     bordercolor="#1100dd"
     borderopacity="1"
     inkscape:showpageshadow="false"
     inkscape:pageopacity="0"
     inkscape:pagecheckerboard="true"
     inkscape:deskcolor="#000000"
     showgrid="true"
     inkscape:zoom="10.429825"
     inkscape:cx="19.415474"
     inkscape:cy="17.785533"
     inkscape:window-width="1920"
     inkscape:window-height="1002"
     inkscape:window-x="0"
     inkscape:window-y="0"
     inkscape:window-maximized="1"
     inkscape:current-layer="svg12"
     showguides="false">
    <inkscape:grid
       type="xygrid"
       id="grid559"
       originx="0"
       originy="0" />
  </sodipodi:namedview>
  <g
     id="nulloy"
     style="fill:#bac8df;fill-opacity:1">
    <rect
       style="opacity:0.00100002;fill:#bac8df;fill-opacity:1"
       width="32"
       height="32"
       x="0"
       y="0"
       id="rect7" />
    <path
       style="fill:#bac8df;fill-opacity:1;stroke-width:0.492941"
       d="m 10.022786,15 0.01138,0.08203 c 0.282545,1.926561 0.444791,3.516363 0.65496,4.482438 0.210175,0.966033 0.471594,1.541553 0.962508,1.860341 0.49091,0.318771 1.19012,0.373251 2.26532,0.338361 1.0752,-0.0349 2.529771,-0.3114 4.537716,-0.375 l 0.0655,-0.003 -0.0087,-0.06445 c -0.189032,-1.479099 -0.252016,-2.580774 -0.380033,-3.31931 -0.128009,-0.738553 -0.328391,-1.199441 -0.787382,-1.511713 -0.459,-0.312274 -1.161869,-0.476554 -2.303758,-0.667966 -1.141805,-0.191367 -2.72428,-0.407458 -4.9392,-0.807083 z m 9.622209,0 c -0.802701,0 -1.457996,0.669856 -1.457996,1.5 0,0.830233 0.655296,1.5 1.457996,1.5 0.802695,0 1.457994,-0.669767 1.457994,-1.5 0,-0.830144 -0.655288,-1.5 -1.457994,-1.5 z m 2.355009,2.646979 -0.11817,0.07171 c -0.945854,0.581858 -1.64481,0.68619 -2.185571,0.991705 -0.2704,0.152757 -0.499429,0.358535 -0.686282,0.694327 -0.186874,0.335796 -0.333479,0.799445 -0.451367,1.475093 l -0.01711,0.104007 0.09396,-0.0366 c 1.468226,-0.565359 2.120701,-0.615213 2.515894,-0.909674 0.19758,-0.147228 0.31935,-0.35535 0.431423,-0.700191 0.11206,-0.344835 0.217022,-0.830534 0.384422,-1.552732 z m -0.12102,2.528321 -0.15662,0.05267 c -1.56898,0.538621 -2.21203,0.693554 -2.541546,0.940431 -0.16475,0.12346 -0.243184,0.273944 -0.303274,0.48634 -0.06011,0.212398 -0.10677,0.491999 -0.214992,0.899404 l -0.02572,0.09521 0.09396,-0.02201 c 0.950194,-0.215732 1.387813,-0.267321 1.758429,-0.536134 0.370606,-0.268809 0.651507,-0.73792 1.299953,-1.773914 z m -3.31467,1.52928 -0.07977,0.006 c -2.386337,0.12795 -3.628948,0.144252 -4.45657,0.68847 -0.413794,0.2721 -0.713377,0.71229 -0.986704,1.420912 -0.273339,0.708608 -0.524474,1.440631 -0.844333,2.809568 l -0.02277,0.0996 0.09539,-0.02934 c 1.424219,-0.430478 2.434535,-0.616584 3.172264,-0.738286 0.737746,-0.121693 1.205276,-0.176085 1.551973,-0.357424 0.346707,-0.18133 0.556131,-0.490434 0.7646,-1.08252 0.208466,-0.592088 0.42204,-1.376289 0.784535,-2.736325 z m 2.864741,0.05712 c -0.700807,0.756447 -1.299047,0.893202 -1.762712,1.06055 -0.231817,0.08368 -0.433389,0.176603 -0.585172,0.36181 -0.151787,0.185231 -0.24943,0.456395 -0.287627,0.886227 l -0.0061,0.07472 0.07119,-0.009 c 0.852279,-0.113472 1.330654,-0.201151 1.692935,-0.514153 0.362279,-0.313021 0.593082,-0.83517 0.972471,-1.797362 z m -8.592791,1.415037 -0.103935,0.02792 c -1.082143,0.278905 -1.581237,0.620732 -1.890842,1.186494 -0.309606,0.565731 -0.434096,1.33827 -0.805887,2.497554 L 10,27 10.109635,26.9619 c 0.49125,-0.167124 0.839654,-0.287854 1.106307,-0.42481 0.266663,-0.13692 0.452118,-0.292225 0.602278,-0.522938 0.300325,-0.46139 0.468794,-1.205745 0.982436,-2.734847 z m 8.36355,0.676766 -0.10536,0.04111 c -0.868518,0.340206 -1.345364,0.492129 -1.60608,0.725082 -0.13035,0.116484 -0.20244,0.256887 -0.227805,0.436524 -0.02546,0.179639 -0.0089,0.192887 0.02568,0.484875 l 0.0068,0.06746 0.06414,-0.01614 c 0.296437,-0.07712 0.511904,-0.07651 0.68486,-0.06887 0.172963,0.0077 0.308896,0.02731 0.435694,-0.03378 0.126796,-0.06102 0.223643,-0.197196 0.326055,-0.45996 0.102419,-0.262781 0.213199,-0.455042 0.367347,-1.064942 z"
       id="path9"
       class="ColorScheme-Text " />
    <path
       d="m 28.188408,17.073466 v -0.37047 c 0,-1.518508 -1.185894,-2.814699 -2.734126,-3.185123 C 24.92738,8.184862 20.87545,3.999567 16.000136,3.999567 c -4.875307,0 -8.927094,4.185161 -9.454163,9.518306 -1.58112,0.370458 -2.734123,1.666615 -2.734123,3.185123 v 0.37047 c -1.021125,0.222186 -1.811829,1.333328 -1.811829,2.629697 0,1.33335 0.790652,2.407241 1.811829,2.629698 v 0.370468 c 0,1.814879 1.647063,3.296238 3.689364,3.296238 H 8.461559 V 14.518352 C 8.527519,9.814656 11.78362,6 16,6 c 4.249329,0 7.4521,3.889681 7.538481,8.703495 v 11.296072 h 0.960332 c 2.009412,0 3.689355,-1.481312 3.689355,-3.296238 v -0.370468 c 1.021129,-0.222146 1.811853,-1.333287 1.811853,-2.629698 0,-1.333556 -0.790651,-2.40776 -1.811853,-2.629957 z"
       id="path67"
       style="fill:#bac8df;fill-opacity:1;stroke-width:0.0623742"
       sodipodi:nodetypes="cscscscscssccsscsscscc" />
  </g>
  <g
     id="22-22-nulloy"
     transform="translate(32,10)"
     style="fill:#bac8df;fill-opacity:1">
    <rect
       style="opacity:0.00100002;fill:#bac8df;fill-opacity:1"
       width="22"
       height="22"
       x="0"
       y="0"
       id="rect2" />
    <path
       style="fill:#bac8df;fill-opacity:1;stroke-width:0.548371"
       d="m 6.5170797,10 0.00851,0.06015 c 0.2119131,1.412808 0.3335975,2.578669 0.4912239,3.287112 0.1576261,0.708433 0.3536942,1.130482 0.7218801,1.364256 0.3681857,0.233768 0.8925799,0.27372 1.6989814,0.248139 0.8064019,-0.02558 1.8973409,-0.228368 3.4033049,-0.274999 l 0.04915,-0.0017 -0.0063,-0.04724 C 12.74185,13.550561 12.69461,12.742675 12.598602,12.201075 12.502588,11.659464 12.35231,11.321481 12.008063,11.09248 11.663818,10.863477 11.136649,10.743006 10.280253,10.602637 9.4238548,10.462267 8.2370013,10.3038 6.5758123,10.010742 Z m 7.2166713,0 c -0.602034,0 -1.093499,0.491228 -1.093499,1.099999 0,0.608837 0.491473,1.099998 1.093499,1.099998 0.602014,0 1.093497,-0.491161 1.093497,-1.099998 C 14.827248,10.491227 14.335769,10 13.733751,10 Z M 15.5,11.941113 l -0.08864,0.0526 c -0.709386,0.426696 -1.233602,0.503199 -1.639184,0.727244 -0.202782,0.112025 -0.374559,0.262929 -0.514701,0.50918 -0.140143,0.246256 -0.250112,0.58626 -0.338517,1.081736 l -0.01275,0.07624 0.07047,-0.02683 c 1.101175,-0.414605 1.590537,-0.451156 1.88692,-0.667092 0.148192,-0.107974 0.239517,-0.260596 0.323566,-0.513479 0.08406,-0.252879 0.162779,-0.609051 0.288328,-1.138668 z m -0.09075,1.854104 -0.117469,0.03866 c -1.176729,0.394987 -1.659018,0.508601 -1.90615,0.689649 -0.123559,0.09052 -0.182401,0.200891 -0.227454,0.356638 -0.04506,0.155759 -0.08006,0.360798 -0.161253,0.659572 l -0.0192,0.06988 0.07044,-0.01615 c 0.712639,-0.158199 1.040859,-0.196036 1.318825,-0.393163 0.277953,-0.197128 0.488628,-0.541148 0.974966,-1.30088 z m -2.486002,1.121473 -0.05985,0.0045 c -1.789744,0.09377 -2.721712,0.105732 -3.3424208,0.504837 -0.3103543,0.19954 -0.5350309,0.522333 -0.7400341,1.041986 -0.2050031,0.519659 -0.3933555,1.056471 -0.633247,2.060354 l -0.017089,0.07305 0.071544,-0.02151 c 1.0681756,-0.315652 1.8259099,-0.452131 2.3792209,-0.541374 0.553304,-0.08924 0.903954,-0.129132 1.163972,-0.262109 0.260027,-0.132984 0.417093,-0.359652 0.573449,-0.793847 0.156355,-0.434196 0.316524,-1.009279 0.588397,-2.00664 z m 2.148552,0.04187 c -0.525605,0.554723 -0.974282,0.655012 -1.322026,0.777737 -0.17387,0.06135 -0.325053,0.129502 -0.438886,0.265328 -0.113841,0.135828 -0.18706,0.334688 -0.215717,0.649899 l -0.0043,0.0548 0.05342,-0.0063 c 0.639203,-0.0832 0.997989,-0.147508 1.269697,-0.377051 0.271712,-0.229544 0.444814,-0.612451 0.729355,-1.318065 z m -6.4445948,1.037702 -0.077958,0.02045 c -0.811602,0.204555 -1.185929,0.455232 -1.418133,0.870116 C 6.8989108,17.301705 6.8055438,17.868236 6.5267,18.71837 L 6.5,18.8 6.582225,18.77209 c 0.3684395,-0.122565 0.6297437,-0.211096 0.8297365,-0.311533 0.1999921,-0.100411 0.3390856,-0.21431 0.4517085,-0.383493 0.225246,-0.338356 0.3515882,-0.884207 0.7368308,-2.00556 z m 6.2726678,0.496291 -0.07905,0.03012 c -0.651394,0.249496 -1.009032,0.360908 -1.204561,0.531735 -0.09776,0.08543 -0.151832,0.188388 -0.170856,0.32012 -0.01901,0.131735 -0.0065,0.141441 0.01921,0.355561 l 0.0048,0.04944 0.048,-0.01187 c 0.222326,-0.05658 0.383926,-0.05612 0.513645,-0.05053 0.129721,0.0052 0.231671,0.02005 0.32677,-0.02476 0.09509,-0.04474 0.16773,-0.144614 0.244542,-0.337302 0.07677,-0.192704 0.159898,-0.333701 0.275512,-0.780962 z"
       id="path4"
       class="ColorScheme-Text" />
    <path
       d="m 19.705991,11.716089 v -0.246985 c 0,-1.012357 -0.847062,-1.8765 -1.952951,-2.123454 C 17.376679,5.790247 14.482446,3 11.000077,3 7.517719,3 4.623586,5.790157 4.247108,9.34565 3.117738,9.592627 2.294163,10.456747 2.294163,11.469104 v 0.246985 C 1.564788,11.864215 1,12.60499 1,13.469251 c 0,0.888916 0.564752,1.604855 1.294163,1.753163 v 0.246984 c 0,1.20994 1.176474,2.197531 2.63526,2.197531 h 0.685961 v -7.654281 c 0.04712,-3.135853 2.3729,-5.679002 5.384601,-5.679002 3.035233,0 5.322934,2.593167 5.384628,5.802434 v 7.530849 h 0.685955 c 1.435288,0 2.635251,-0.98756 2.635251,-2.197531 V 15.222414 C 20.435197,15.074314 21,14.33354 21,13.469251 21,12.580197 20.435246,11.864049 19.705819,11.715914 Z"
       id="path67-6"
       style="fill:#bac8df;fill-opacity:1;stroke-width:0.0430427"
       sodipodi:nodetypes="cscscscscssccsscsscscc" />
  </g>
</svg>
