<?xml version="1.0" encoding="UTF-8" standalone="no"?>
<svg
   width="32"
   height="32"
   version="1.1"
   id="svg4049"
   sodipodi:docname="onboard.svg"
   inkscape:version="1.2.2 (b0a8486541, 2022-12-01)"
   xmlns:inkscape="http://www.inkscape.org/namespaces/inkscape"
   xmlns:sodipodi="http://sodipodi.sourceforge.net/DTD/sodipodi-0.dtd"
   xmlns="http://www.w3.org/2000/svg"
   xmlns:svg="http://www.w3.org/2000/svg">
  <g
     id="22-22-onboard"
     style="fill:#bac8df;fill-opacity:1"
     transform="translate(32,9.9999964)">
    <rect
       style="opacity:0.00100002;fill:#bac8df;fill-opacity:1"
       width="22"
       height="22"
       x="0"
       y="-1.2207031e-06"
       id="rect4039" />
    <path
       d="M 4.479162,3 C 3.673215,3 3,3.673216 3,4.479162 V 9.7083396 C 3,10.26654 3.325344,10.751782 3.79166,10.999999 3.325344,11.248216 3,11.73346 3,12.291659 V 17.654 C 3,18.459946 3.673213,19 4.479162,19 h 5.229177 c 0.624999,0 1.043443,-0.459004 1.29166,-0.925334 C 11.248216,18.540996 11.666661,19 12.291659,19 h 5.229178 C 18.326786,19 19,18.326782 19,17.520837 V 12.291659 C 19,11.73346 18.674656,11.248216 18.208339,10.999999 18.674656,10.751782 19,10.26654 19,9.7083396 V 4.333339 C 19,3.666661 18.333338,3 17.666661,3 H 12.291659 C 11.733458,3 11.248216,3.325344 10.999999,3.79166 10.751782,3.325344 10.266541,3 9.708339,3 Z M 7,4 c 0.908828,8e-6 1.643353,0.267637 2.187495,0.812504 C 9.73163,5.354797 9.99999,6.085859 9.999999,7 9.99999,7.911561 9.73163,8.64264 9.187495,9.1874956 8.643353,9.7297876 7.908828,10 7,10 6.088273,10 5.359537,9.7297876 4.812504,9.1874956 4.268361,8.645211 3.999999,7.914144 4,7 3.999999,6.085859 4.268361,5.354797 4.812504,4.812504 5.359537,4.267637 6.088273,4.000008 7,4 Z m 5,2.4e-6 h 6 v 0 5 h -1 -5 v 0 z M 7,4.635424 C 6.363241,4.635425 5.86584,4.847335 5.489578,5.270831 5.116213,5.694332 4.927082,6.269201 4.927084,7 4.927082,7.72822 5.116213,8.305675 5.489578,8.729169 5.86584,9.152668 6.363241,9.3645756 7,9.3645756 7.636752,9.3645756 8.139928,9.152668 8.510422,8.729169 8.883776,8.305675 9.072907,7.72822 9.072916,7 9.072906,6.269201 8.883776,5.694332 8.510422,5.270831 8.139928,4.847335 7.636752,4.635425 7,4.635424 Z m 3.999999,5.760406 c 0.138053,0.257673 0.346497,0.466118 0.60417,0.604169 -0.257673,0.138053 -0.466117,0.346497 -0.60417,0.60417 -0.138051,-0.257673 -0.346497,-0.466117 -0.60417,-0.60417 0.257673,-0.138051 0.466119,-0.346496 0.60417,-0.604169 z m 1,1.604169 h 2.927083 c 0.872518,9e-6 1.538276,0.128226 2.010422,0.385413 0.472137,0.257212 0.708327,0.619544 0.708336,1.093749 -9e-6,0.367051 -0.122864,0.658 -0.364595,0.874999 -0.241747,0.217018 -0.594128,0.352674 -1.062494,0.406253 0.562784,0.08574 1.002769,0.2684 1.3125,0.541671 0.313489,0.270599 0.468737,0.613602 0.468748,1.020836 -8e-6,0.535835 -0.257149,0.947555 -0.770833,1.239576 -0.513702,0.292031 -1.239446,0.437503 -2.187495,0.437503 H 11.999999 Z M 5,12.000002 h 4 1 v 6 H 9 5 4 v -6 z m 8.14584,0.666658 v 1.812505 h 1.687497 c 0.559011,5e-6 0.978043,-0.08182 1.249994,-0.229165 0.275732,-0.150031 0.416659,-0.371659 0.416667,-0.677085 -8e-6,-0.302746 -0.140935,-0.527047 -0.416667,-0.677086 -0.271951,-0.150023 -0.690983,-0.22916 -1.249994,-0.229169 z m 0,2.468762 v 2.197914 h 1.833321 c 0.615676,0 1.069968,-0.09134 1.364596,-0.270841 0.298387,-0.182178 0.447901,-0.460926 0.447904,-0.833327 -7e-6,-0.375083 -0.149517,-0.646087 -0.447904,-0.822916 -0.294628,-0.179504 -0.74892,-0.270828 -1.364596,-0.27083 z"
       id="path199-3"
       style="fill:#bac8df;fill-opacity:1;stroke-width:0.150756"
       sodipodi:nodetypes="ssscsssscsssscsssscssccccscscccccccccccccccscccccccccccccscccsscccccccccccccccccccccscccc" />
  </g>
  <sodipodi:namedview
     id="namedview4051"
     pagecolor="#000000"
     bordercolor="#0016ea"
     borderopacity="1"
     inkscape:showpageshadow="false"
     inkscape:pageopacity="0"
     inkscape:pagecheckerboard="true"
     inkscape:deskcolor="#000000"
     showgrid="true"
     inkscape:zoom="11.313708"
     inkscape:cx="24.350991"
     inkscape:cy="16.396039"
     inkscape:window-width="1920"
     inkscape:window-height="1002"
     inkscape:window-x="0"
     inkscape:window-y="0"
     inkscape:window-maximized="1"
     inkscape:current-layer="svg4049">
    <inkscape:grid
       type="xygrid"
       id="grid5163"
       originx="0"
       originy="0" />
  </sodipodi:namedview>
  <defs
     id="defs5">
    <style
       id="current-color-scheme"
       type="text/css">.ColorScheme-Background { color:#181818; }
.ColorScheme-ButtonBackground { color:#343434; }
.ColorScheme-Highlight { color:#4285f4; }
.ColorScheme-Text { color:#d1d5e9; }
.ColorScheme-ViewBackground { color:#242424; }
.ColorScheme-NegativeText { color:#f44336; }
.ColorScheme-PositiveText { color:#4caf50; }
.ColorScheme-NeutralText { color:#ff9800; }
</style>
    <linearGradient
       id="a"
       gradientUnits="userSpaceOnUse"
       x1="0"
       x2="128"
       y1="128"
       y2="0"
       gradientTransform="matrix(0.22612712,0,0,0.22612712,57.994116,-4.0058835)">
      <stop
         offset="0"
         stop-color="#333"
         id="stop194" />
      <stop
         offset="1"
         stop-color="#5d5d5d"
         id="stop196" />
    </linearGradient>
  </defs>
  <g
     id="onboard"
     style="fill:#bac8df;fill-opacity:1">
    <rect
       style="opacity:0.00100002;fill:#bac8df;fill-opacity:1"
       width="32"
       height="32"
       x="0"
       y="0"
       id="rect4044" />
    <path
       d="M 6.21875,4 C 5.009828,4 4,5.009829 4,6.21875 v 7.84375 c 0,0.83732 0.488009,1.565181 1.1875,1.937499 C 4.488009,16.372318 4,17.10018 4,17.937499 V 25.981 C 4,27.189921 5.009826,28 6.21875,28 h 7.843749 C 15,28 15.627681,27.311492 15.999999,26.612 16.372318,27.311492 17,28 17.937499,28 H 25.78125 C 26.990174,28 28,26.990171 28,25.78125 V 17.937499 C 28,17.10018 27.511991,16.372318 26.812499,15.999999 27.511991,15.627681 28,14.89982 28,14.0625 V 6 C 28,5 27,4 26,4 H 17.937499 C 17.100178,4 16.372318,4.4880084 15.999999,5.1875 15.627681,4.4880084 14.899821,4 14.062499,4 Z M 10,5.5 c 1.363235,8.5e-6 2.465033,0.4014565 3.281249,1.21875 0.8162,0.8134345 1.218741,1.910048 1.21875,3.28125 -9e-6,1.367337 -0.40255,2.46395 -1.21875,3.28125 C 12.465033,14.094678 11.363235,14.5 10,14.5 8.632412,14.5 7.539297,14.094678 6.71875,13.28125 5.90254,12.467824 5.499999,11.371211 5.5,10 5.499999,8.628798 5.90254,7.5321845 6.71875,6.71875 7.539297,5.9014565 8.632412,5.5000085 10,5.5 Z M 18,5 h 8 c 0,0 1,0 1,1 v 7 c 0,1 -1,1 -1,1 h -8 c 0,0 -1,0 -1,-1 V 6 C 17,5 18,5 18,5 Z M 10,6.453125 C 9.044858,6.4531325 8.29877,6.771009 7.734375,7.40625 7.174314,8.041505 6.890623,8.903814 6.890625,10 c -2e-6,1.092321 0.283689,1.958503 0.84375,2.59375 0.564396,0.635249 1.310483,0.953125 2.265625,0.953125 0.955131,0 1.709901,-0.317875 2.265624,-0.953125 C 12.825675,11.958503 13.109366,11.092321 13.109375,10 13.109365,8.903814 12.825675,8.041505 12.265624,7.40625 11.709901,6.771009 10.955131,6.4531325 10,6.453125 Z m 5.999999,8.640625 c 0.207085,0.386495 0.519756,0.699165 0.90625,0.906249 -0.386494,0.207084 -0.699165,0.519755 -0.90625,0.90625 -0.207083,-0.386495 -0.519755,-0.699165 -0.90625,-0.90625 0.386495,-0.207083 0.699167,-0.519754 0.90625,-0.906249 z m 1.5,2.406249 h 4.390625 c 1.308776,9e-6 2.307402,0.192334 3.015624,0.578125 0.708208,0.385808 1.062491,0.929312 1.062502,1.640625 -1.1e-5,0.550576 -0.184281,0.986987 -0.546877,1.3125 -0.362615,0.325524 -0.891208,0.529005 -1.593749,0.609375 0.844184,0.128605 1.504151,0.402591 1.968749,0.8125 0.470246,0.405898 0.703115,0.920403 0.703126,1.53125 -8e-6,0.803753 -0.385721,1.421331 -1.156251,1.859374 -0.770545,0.438045 -1.85916,0.656251 -3.281249,0.656251 h -4.5625 z M 6,17 h 8 c 0,0 1,0 1,1 v 8 c 0,1 -1,1 -1,1 H 6 c 0,0 -1,0 -1,-1 v -8 c 0,-1 1,-1 1,-1 z m 13.218749,1.499999 v 2.71875 h 2.53125 c 0.83852,5e-6 1.467061,-0.122713 1.875,-0.34375 0.41359,-0.225044 0.624991,-0.557481 0.624999,-1.015625 -8e-6,-0.454112 -0.211409,-0.790567 -0.624999,-1.015625 -0.407939,-0.225041 -1.03648,-0.343741 -1.875,-0.34375 z m 0,3.703125 v 3.296875 h 2.75 c 0.923507,0 1.60494,-0.136992 2.046876,-0.406252 0.447581,-0.273271 0.671867,-0.691389 0.671876,-1.249998 -1.3e-5,-0.562623 -0.224295,-0.969133 -0.671876,-1.234375 -0.441936,-0.269252 -1.123369,-0.406245 -2.046876,-0.40625 z"
       id="path199"
       style="fill:#bac8df;fill-opacity:1;stroke-width:0.226128"
       sodipodi:nodetypes="ssscsssscsssscsssscssccccscscccccccccccccccscccccccccccccscccsscccccccccccccccccccccsccccc" />
  </g>
</svg>
