<?xml version="1.0" encoding="UTF-8" standalone="no"?>
<svg
   width="114"
   height="87"
   version="1.1"
   viewBox="0 0 114 87"
   id="svg275"
   sodipodi:docname="osd.svg"
   inkscape:version="1.3.2 (091e20ef0f, 2023-11-25)"
   xmlns:inkscape="http://www.inkscape.org/namespaces/inkscape"
   xmlns:sodipodi="http://sodipodi.sourceforge.net/DTD/sodipodi-0.dtd"
   xmlns="http://www.w3.org/2000/svg"
   xmlns:svg="http://www.w3.org/2000/svg"
   xmlns:rdf="http://www.w3.org/1999/02/22-rdf-syntax-ns#"
   xmlns:cc="http://creativecommons.org/ns#"
   xmlns:dc="http://purl.org/dc/elements/1.1/">
  <sodipodi:namedview
     id="namedview1"
     pagecolor="#000000"
     bordercolor="#0e00fe"
     borderopacity="1"
     inkscape:showpageshadow="false"
     inkscape:pageopacity="0.0"
     inkscape:pagecheckerboard="true"
     inkscape:deskcolor="#000000"
     showgrid="true"
     inkscape:zoom="0.75478379"
     inkscape:cx="267.62631"
     inkscape:cy="-7.286855"
     inkscape:window-width="1920"
     inkscape:window-height="994"
     inkscape:window-x="0"
     inkscape:window-y="0"
     inkscape:window-maximized="1"
     inkscape:current-layer="svg275">
    <inkscape:grid
       id="grid1"
       units="px"
       originx="121"
       originy="172"
       spacingx="1"
       spacingy="1"
       empcolor="#0099e5"
       empopacity="0.30196078"
       color="#0099e5"
       opacity="0.14902"
       empspacing="5"
       dotted="false"
       gridanglex="30"
       gridanglez="30"
       visible="true" />
  </sodipodi:namedview>
  <metadata
     id="metadata279">
    <rdf:RDF>
      <cc:Work
         rdf:about="">
        <dc:format>image/svg+xml</dc:format>
        <dc:type
           rdf:resource="http://purl.org/dc/dcmitype/StillImage" />
      </cc:Work>
    </rdf:RDF>
  </metadata>
  <defs
     id="defs3">
    <style
       type="text/css"
       id="current-color-scheme">
.ColorScheme-Text { 
    color:#e5e9ef;
}
      .ColorScheme-Background {
        color:#efefef;
      }
.ColorScheme-Highlight { 
    color:#556fa6;
}
      .ColorScheme-ViewText {
        color:#363636;
      }
      .ColorScheme-ViewBackground {
        color:#fcfcfc;
      }
      .ColorScheme-ViewHover {
        color:#98edc7;
      }
      .ColorScheme-ViewFocus{
        color:#3de9bb;
      }
      .ColorScheme-ButtonText {
        color:#363636;
      }
      .ColorScheme-ButtonBackground {
        color:#ffffff;
      }
      .ColorScheme-ButtonHover {
        color:#98edc7;
      }
      .ColorScheme-ButtonFocus{
        color:#3de9bb;
      }</style>
  </defs>
  <g
     transform="translate(121,-816.36)"
     id="g273">
    <g
       id="32-32-osd-duplicate"
       transform="translate(384,507.36)">
      <rect
         width="32"
         height="32"
         fill="none"
         id="rect5"
         x="0"
         y="0" />
      <path
         class="ColorScheme-Text"
         transform="translate(-112,-32)"
         d="m 125,36 v 9 h 1 v -8 h 15 v 12 h -9 v 1 h 10 V 36 Z m -11,10 v 14 h 17 V 46 Z m 1,1 h 15 v 12 h -15 z"
         fill="currentColor"
         id="path7" />
      <path
         class="ColorScheme-Highlight"
         transform="translate(-112,-32)"
         d="m 128,39 v 6 h 1 v -3 h 9 v 4 h -6 v 1 h 7 v -8 z m 7,1 h 1 v 1 h -1 z m 2,0 h 1 v 1 h -1 z m -20,9 v 8 h 11 v -8 z m 7,1 h 1 v 1 h -1 z m 2,0 h 1 v 1 h -1 z m -8,2 h 9 v 4 h -9 z"
         fill="currentColor"
         id="path9" />
    </g>
    <g
       id="48-48-osd-duplicate"
       transform="translate(336,491.36)">
      <rect
         width="48"
         height="48"
         fill="none"
         id="rect12"
         x="0"
         y="0" />
      <path
         class="ColorScheme-Text"
         transform="translate(-64,-16)"
         d="m 80,21 v 14 h 1 V 22.002 L 109,22 V 38 H 97 v 1 5 1 h 1 4 v -1 h -4 v -5 h 12 V 21 Z M 66,36 v 18 h 12 v 5 h -4 v 1 h 9 1 4 V 59 H 84 V 54 H 96 V 36 Z m 29,1 V 53 H 82 81 67 V 37.002 Z M 79,54 h 4 v 5 h -4 z"
         fill="currentColor"
         id="path14" />
      <path
         class="ColorScheme-Highlight"
         transform="translate(-64,-16)"
         d="m 87,24 v 11 h 1 v -6 h 2 v 6 h 1 v -6 h 11 v 6 h -5 v 1 h 6 V 24 Z m 10,1 h 1 v 1 h -1 z m 2,0 h 1 v 1 h -1 z m 2,0 h 1 v 1 h -1 z m -13,2 h 14 v 1 H 88 Z M 73,39 V 51 H 89 V 39 Z m 10,1 h 1 v 1 h -1 z m 2,0 h 1 v 1 h -1 z m 2,0 h 1 v 1 h -1 z m -13,2 h 14 v 1 H 74 Z m 0,2 h 2 v 6 h -2 z m 3,0 h 11 v 6 H 77 Z"
         fill="currentColor"
         fill-rule="evenodd"
         id="path16" />
    </g>
    <g
       id="osd-duplicate"
       transform="translate(272,475.36)">
      <rect
         width="64"
         height="64"
         fill="none"
         id="rect19"
         x="0"
         y="0" />
      <path
         class="ColorScheme-Text"
         d="m 26,11 v 14 h 1 V 12.002 L 59,12 V 30 H 39 v 1 h 20 v 1 H 46 45 39 v 1 h 1 v 4 h -1 v 1 h 6 1 4 V 37 H 46 V 33 H 60 V 11 Z M 4,26 v 22 h 14 v 4 h -4 v 1 h 9 1 4 V 52 H 24 V 48 H 38 V 26 Z m 33,1 V 45 H 5 V 27.002 Z m 4,6 h 4 v 4 H 41 Z M 5,46 h 32 v 1 H 24 23 5 Z m 14,2 h 4 v 4 h -4 z"
         fill="currentColor"
         id="path21" />
      <path
         class="ColorScheme-Highlight"
         d="m 35,15 v 10 h 1 v -5 h 2 v 5 h 1 v -5 h 11 v 6 H 39 v 1 H 51 V 15 Z m 10,1 h 1 v 1 h -1 z m 2,0 h 1 v 1 h -1 z m 2,0 h 1 v 1 h -1 z m -13,2 h 14 v 1 H 36 Z M 13,30 V 42 H 29 V 30 Z m 10,1 h 1 v 1 h -1 z m 2,0 h 1 v 1 h -1 z m 2,0 h 1 v 1 h -1 z m -13,2 h 14 v 1 H 14 Z m 0,2 h 2 v 6 h -2 z m 3,0 h 11 v 6 H 17 Z"
         fill="currentColor"
         fill-rule="evenodd"
         id="path23" />
    </g>
    <g
       id="128-128-osd-duplicate"
       transform="translate(416,517.36)">
      <rect
         x="-272"
         y="-106"
         width="128"
         height="128"
         fill="none"
         id="rect26" />
      <path
         class="ColorScheme-Text"
         d="m -221,-85 v 33 h 1 v -32 h 68 v 41 h -41 v 1 h 2 v 8 h -2 v 1 h 20 v -1 h -8 v -8 h 30 v -42.998 z m 2,2 v 31 h 1 v -30 h 64 v 36 h -39 v 1 h 40 v -38 z m -46,33 v 43 h 30 v 8 h -8 v 1 h 26 V 1 h -8 v -8 h 30 v -42.998 z m 1,1 h 68 v 41 h -68 z m 1,1 v 38 h 66 v -38 z m 1,1 h 64 v 36 h -64 z m 72,5 h 8 v 8 h -8 z m -44,35 h 8 v 8 h -8 z"
         fill="currentColor"
         id="path28" />
      <path
         class="ColorScheme-Highlight"
         d="m -202,-76 v 24 h 32 v -24 z m 21,2 c 0.5523,0 1,0.4477 1,1 0,0.5522 -0.4477,1 -1,1 -0.5523,0 -1,-0.4478 -1,-1 0,-0.5523 0.4477,-1 1,-1 z m 4,0 c 0.5523,0 1,0.4477 1,1 0,0.5522 -0.4477,1 -1,1 -0.5523,0 -1,-0.4478 -1,-1 0,-0.5523 0.4477,-1 1,-1 z m 4,0 c 0.5523,0 1,0.4477 1,1 0,0.5522 -0.4477,1 -1,1 -0.5523,0 -1,-0.4478 -1,-1 0,-0.5523 0.4477,-1 1,-1 z m -28,4 h 30 v 1 h -30 z m 0,2 h 4 v 15 h -4 z m 5,0 h 25 v 15 h -25 z m -50,27 v 24 h 32 v -24 z m 21,2 c 0.5523,0 1,0.4477 1,1 0,0.5522 -0.4477,1 -1,1 -0.5523,0 -1,-0.4478 -1,-1 0,-0.5523 0.4477,-1 1,-1 z m 4,0 c 0.5523,0 1,0.4477 1,1 0,0.5522 -0.4477,1 -1,1 -0.5523,0 -1,-0.4478 -1,-1 0,-0.5523 0.4477,-1 1,-1 z m 4,0 c 0.5523,0 1,0.4477 1,1 0,0.5522 -0.4477,1 -1,1 -0.5523,0 -1,-0.4478 -1,-1 0,-0.5523 0.4477,-1 1,-1 z m -28,4 h 30 v 1 h -30 z m 0,2 h 4 v 15 h -4 z m 5,0 h 25 v 15 h -25 z"
         fill="currentColor"
         fill-rule="evenodd"
         id="path30" />
    </g>
    <g
       id="32-32-osd-rotate-ccw"
       transform="translate(384,635.36)">
      <rect
         width="32"
         height="32"
         fill="none"
         id="rect33"
         x="0"
         y="0" />
      <path
         class="ColorScheme-Text"
         d="M 2,22 V 4 l 28,3e-5 v 18 l -11,-10e-5 v 5.0001 h 4 v 1 H 9 v -1 h 4 v -5.0001 H 2 Z m 16,0 h -4 v 5.0001 h 4 z M 29,5 H 3 v 16 h 26 z"
         fill="currentColor"
         id="path35" />
      <path
         class="ColorScheme-Highlight"
         transform="translate(-112,-32)"
         d="m 121,39 v 4 2 h 1 1 1 3 v -2 h -2.4453 c 0.69291,-1.1906 1.9685,-2 3.4453,-2 2.2091,0 4,1.7909 4,4 0,2.2091 -1.7909,4 -4,4 v 2 c 3.3137,0 6,-2.6863 6,-6 0,-3.3137 -2.6863,-6 -6,-6 -2.0883,0 -3.9254,1.0671 -5,2.6855 V 39 Z"
         fill="currentColor"
         fill-rule="evenodd"
         id="path37" />
    </g>
    <g
       id="48-48-osd-rotate-ccw"
       transform="translate(336,619.36)">
      <rect
         width="48"
         height="48"
         fill="none"
         id="rect40"
         x="0"
         y="0" />
      <path
         class="ColorScheme-Text"
         transform="translate(-64,-16)"
         d="m 66,23 v 28 h 18 v 5 h -3 v 1 h 14 v -1 h -3 v -5 h 18 V 23 Z m 43,1 V 50 H 67 V 24.002 Z m -41,1 v 24 h 40 V 25 Z m 1,1 h 38 V 48 H 69 Z m 16,25 h 6 v 5 h -6 z"
         fill="currentColor"
         id="path42" />
      <path
         class="ColorScheme-Highlight"
         d="m 16,21 h -1 v -2 -5 h 2 v 3.124 C 18.3647,14.6646 20.988,13 24,13 c 4.4183,0 8,3.5817 8,8 0,4.4183 -3.5817,8 -8,8 v -2 c 3.3137,0 6,-2.6863 6,-6 0,-3.3137 -2.6863,-6 -6,-6 -2.6124,0 -4.8349,1.6696 -5.6586,4 H 22 v 2 h -4 z"
         fill="currentColor"
         fill-rule="evenodd"
         id="path44" />
    </g>
    <g
       id="osd-rotate-ccw"
       transform="translate(272,603.36)">
      <rect
         width="64"
         height="64"
         fill="none"
         id="rect47"
         x="0"
         y="0" />
      <path
         class="ColorScheme-Text"
         d="M 59,11 H 5 V 45 H 59 Z M 5,10 H 4 v 1 34 1 h 1 23 v 7 h -7 v 1 h 7 1 6 1 7 v -1 h -7 v -7 h 23 1 V 45 11 10 h -1 z m 24,43 v -7 h 6 v 7 z M 7,13 H 57 V 42 H 7 Z M 6,12 h 1 50 1 v 1 29 1 H 57 7 6 V 42 13 Z"
         fill="currentColor"
         fill-rule="evenodd"
         id="path49" />
      <path
         class="ColorScheme-Highlight"
         d="m 22.346,19 c -2.1491,2.3092 -3.3456,5.3455 -3.3496,8.5 0.005,1.3154 0.21689,2.6219 0.62891,3.8711 L 15.99641,35 c 0,0 6.1526,1 9.3516,1 l -1.8496,-1.7266 c -1.6085,-1.891 -2.4949,-4.2908 -2.502,-6.7734 0.005,-3.3682 1.6257,-6.5296 4.3574,-8.5 h -3.0078 z m 15.299,0 1.8496,1.7266 c 1.6085,1.891 2.4949,4.2908 2.502,6.7734 -0.005,3.3682 -1.6257,6.5296 -4.3574,8.5 h 3.0078 c 2.1491,-2.3092 3.3456,-5.3455 3.3496,-8.5 -0.005,-1.3154 -0.2169,-2.6219 -0.62891,-3.8711 L 46.99659,20 c 0,0 -6.1526,-1 -9.3516,-1 z m -7.918,1.4316 -3.9414,10.27 7.4688,2.8672 3.9414,-10.27 z m 0.57422,1.293 0.93359,0.35742 -0.35742,0.93359 -0.93164,-0.35938 0.35547,-0.93164 z m 1.8691,0.71484 3.7344,1.4355 -3.2246,8.4004 -3.7363,-1.4316 3.2266,-8.4043 z m -2.584,1.1523 0.93164,0.35742 -0.35742,0.93359 -0.93359,-0.35742 0.35938,-0.93359 z"
         fill="currentColor"
         id="path51" />
    </g>
    <g
       id="128-128-osd-rotate-ccw"
       transform="translate(144,539.36)">
      <rect
         width="128"
         height="128"
         fill="none"
         id="rect54"
         x="0"
         y="0" />
      <path
         class="ColorScheme-Text"
         transform="translate(128,64)"
         d="m -121,-44 c -1.6569,0 -3,1.3431 -3,3 v 66 c 0,1.6569 1.3431,3 3,3 h 49 v 13 h -13 c -0.5523,0 -1,0.448 -1,1 v 1 c 0,0.552 0.4477,1 1,1 h 42 c 0.5523,0 1,-0.448 1,-1 v -1 c 0,-0.552 -0.4477,-1 -1,-1 H -56 V 28 h 49 c 1.657,0 3,-1.3431 3,-3 v -66 c 0,-1.6569 -1.343,-3 -3,-3 z m 0,1 H -7 c 1.105,0 2,0.8954 2,2 v 66 c 0,1.1046 -0.895,2 -2,2 h -114 c -1.1046,0 -2,-0.8954 -2,-2 v -66 c 0,-1.1046 0.89542,-2 2,-2 z m 0,2 V 23 H -7 v -64 z m 1,1 H -8 v 62 h -112 z m 49,68 h 14 v 13 h -14 z m -14,14 h 42 v 1 h -42 z"
         fill="currentColor"
         id="path56" />
      <path
         class="ColorScheme-Highlight"
         transform="translate(128,64)"
         d="m -80.955,-33 c -7.5416,5.2295 -12.042,13.823 -12.045,23 0.0199,6.8039 2.5166,13.368 7.0234,18.465 C -87.135,10.7148 -89,13.0002 -89,13.0002 h 11.914 c -8.5489,-4.4883 -13.907,-13.344 -13.914,-23 0.006,-9.6538 5.3603,-18.51 13.906,-23 h -3.8613 z m 28.041,0 c 8.5489,4.4883 13.907,13.344 13.914,23 -0.006,9.6538 -5.3603,18.51 -13.906,23 h 3.8613 c 7.5416,-5.2295 12.042,-13.823 12.045,-23 -0.0199,-6.8039 -2.5166,-13.368 -7.0234,-18.465 1.1584,-2.2498 3.0234,-4.5352 3.0234,-4.5352 h -11.914 z m -17.555,3.7617 -11.469,29.875 22.406,8.6016 11.469,-29.875 z m 1.6914,2.877 c 0.12975,-0.0045 0.26367,0.01497 0.39258,0.06445 0.51562,0.19792 0.77218,0.77749 0.57422,1.293 -0.19792,0.51562 -0.77548,0.77209 -1.291,0.57422 -0.51562,-0.19792 -0.7741,-0.7754 -0.57617,-1.291 0.14844,-0.38671 0.51114,-0.62726 0.90039,-0.64062 z m 3.5508,0.20703 0.93359,0.35938 -10.75,28.008 -0.93359,-0.35938 z m 1.8672,0.7168 14.004,5.377 -8.959,23.34 -14.004,-5.377 z m -6.8516,2.8105 c 0.12991,-0.0044 0.26367,0.01693 0.39258,0.06641 0.51553,0.19788 0.7741,0.7754 0.57617,1.291 -0.19792,0.51562 -0.77735,0.77214 -1.293,0.57422 -0.51565,-0.19792 -0.7741,-0.7754 -0.57617,-1.291 0.14841,-0.38665 0.51065,-0.62752 0.90039,-0.64062 z m -1.4336,3.7344 c 0.12966,-0.0043 0.26367,0.01693 0.39258,0.06641 0.51553,0.19788 0.7741,0.7754 0.57617,1.291 -0.19798,0.5157 -0.77744,0.77209 -1.293,0.57422 -0.51562,-0.19793 -0.77214,-0.7754 -0.57422,-1.291 0.14844,-0.38671 0.50946,-0.62774 0.89844,-0.64062 z m -1.0332,17.729 14.006,5.377 -1.4336,3.7324 -14.004,-5.375 z"
         fill="currentColor"
         fill-rule="evenodd"
         id="path58" />
    </g>
    <g
       id="32-32-osd-rotate-cw"
       transform="translate(384,763.36)">
      <rect
         width="32"
         height="32"
         fill="none"
         id="rect61"
         x="0"
         y="0" />
      <path
         class="ColorScheme-Text"
         d="M 2,22 V 4 l 28,3e-5 v 18 l -11,-10e-5 v 5.0001 h 4 v 1 H 9 v -1 h 4 v -5.0001 H 2 Z m 16,0 h -4 v 5.0001 h 4 z M 29,5 H 3 v 16 h 26 z"
         fill="currentColor"
         fill-rule="evenodd"
         id="path63" />
      <path
         class="ColorScheme-Highlight"
         transform="translate(-112,-32)"
         d="m 128,39 c -3.3137,0 -6,2.6863 -6,6 0,3.3137 2.6863,6 6,6 v -2 c -2.2091,0 -4,-1.7909 -4,-4 0,-2.2091 1.7909,-4 4,-4 1.4768,0 2.7524,0.8094 3.4453,2 H 129 v 2 h 3 1 1 1 v -2 -4 h -2 v 2.6855 C 131.9254,40.0671 130.0883,39 128,39 Z"
         fill="currentColor"
         fill-rule="evenodd"
         id="path65" />
    </g>
    <g
       id="48-48-osd-rotate-cw"
       transform="translate(336,747.36)">
      <rect
         width="48"
         height="48"
         fill="none"
         id="rect68"
         x="0"
         y="0" />
      <path
         class="ColorScheme-Text"
         transform="translate(-64,-16)"
         d="m 66,23 v 28 h 18 v 5 h -3 v 1 h 14 v -1 h -3 v -5 h 18 V 23 Z m 43,1 V 50 H 67 V 24.002 Z m -41,1 v 24 h 40 V 25 Z m 1,1 h 38 V 48 H 69 Z m 16,25 h 6 v 5 h -6 z"
         fill="currentColor"
         id="path70" />
      <path
         class="ColorScheme-Highlight"
         d="m 32,21 h 1 v -2 -5 h -2 v 3.124 C 29.6353,14.6646 27.012,13 24,13 c -4.4183,0 -8,3.5817 -8,8 0,4.4183 3.5817,8 8,8 v -2 c -3.3137,0 -6,-2.6863 -6,-6 0,-3.3137 2.6863,-6 6,-6 2.6124,0 4.8349,1.6696 5.6586,4 H 26 v 2 h 4 z"
         fill="currentColor"
         fill-rule="evenodd"
         id="path72" />
    </g>
    <g
       id="64-64osd-rotate-cw"
       transform="translate(272,731.36)">
      <rect
         width="64"
         height="64"
         fill="none"
         id="rect75"
         x="0"
         y="0" />
      <path
         class="ColorScheme-Text"
         d="M 59,11 H 5 V 45 H 59 Z M 5,10 H 4 v 1 34 1 h 1 23 v 7 h -7 v 1 h 7 1 6 1 7 v -1 h -7 v -7 h 23 1 V 45 11 10 h -1 z m 24,43 v -7 h 6 v 7 z M 7,13 H 57 V 42 H 7 Z M 6,12 h 1 50 1 v 1 29 1 H 57 7 6 V 42 13 Z"
         fill="currentColor"
         fill-rule="evenodd"
         id="path77" />
      <path
         class="ColorScheme-Highlight"
         d="m 25.348,19 c -3.199,0 -9.3516,1 -9.3516,1 l 3.6289,3.6289 c -0.41202,1.2492 -0.62391,2.5557 -0.62891,3.8711 0.004,3.1545 1.2005,6.1908 3.3496,8.5 h 3.0078 c -2.7317,-1.9704 -4.3524,-5.1318 -4.3574,-8.5 0.007,-2.4826 0.89149,-4.8824 2.5,-6.7734 L 25.34799,19 Z m 12.291,0 c 2.7317,1.9704 4.3524,5.1318 4.3574,8.5 -0.007,2.4826 -0.89344,4.8824 -2.502,6.7734 L 37.6448,36 c 3.199,0 9.3516,-1 9.3516,-1 l -3.6309,-3.6289 c 0.41202,-1.2492 0.62586,-2.5557 0.63086,-3.8711 -0.004,-3.1545 -1.2005,-6.1908 -3.3496,-8.5 h -3.0078 z m -4.375,1.4316 -7.4688,2.8672 3.9414,10.27 7.4688,-2.8672 z m -2.4434,2.0078 3.2266,8.4043 -3.7363,1.4316 -3.2246,-8.4004 3.7344,-1.4355 z m 4.0176,4.8867 0.35938,0.93359 -0.93555,0.35742 -0.35742,-0.93359 z m 0.7168,1.8652 0.35937,0.93359 -0.93359,0.35938 -0.35938,-0.93359 0.93359,-0.35938 z"
         fill="currentColor"
         id="path79" />
    </g>
    <g
       id="128-128-osd-rotate-cw"
       transform="translate(144,667.36)">
      <rect
         width="128"
         height="129"
         fill="none"
         id="rect82"
         x="0"
         y="0" />
      <path
         class="ColorScheme-Highlight"
         transform="translate(128,64)"
         d="m -89,-34 c 0,0 1.8651,2.2853 3.0234,4.5352 -4.5068,5.0972 -7.0035,11.661 -7.0234,18.465 0.0031,9.1774 4.5033,17.771 12.045,23 h 3.8613 c -8.5459,-4.4904 -13.9,-13.346 -13.906,-23 0.0075,-9.6555 5.3651,-18.512 13.914,-23 h -11.914 z m 36.094,0 c 8.5459,4.4905 13.9,13.346 13.906,23 -0.0075,9.6556 -5.3651,18.512 -13.914,23 H -41 c 0,0 -1.8651,-2.2853 -3.0234,-4.5352 4.5068,-5.0972 7.0035,-11.661 7.0234,-18.465 -0.0031,-9.1773 -4.5033,-17.77 -12.045,-23 h -3.8613 z m -6.625,3.7617 -22.406,8.6016 11.469,29.875 22.406,-8.6016 z m -5.2422,3.084 10.75,28.008 -0.93359,0.35937 -10.75,-28.008 0.93359,-0.35938 z m -1.8672,0.7168 1.4336,3.7344 -14.006,5.375 -1.4316,-3.7324 z m 1.791,4.668 8.959,23.34 -14.004,5.375 -8.959,-23.338 z m 10.076,11.213 c 0.38898,0.01289 0.75195,0.25392 0.90039,0.64063 0.19793,0.51562 -0.0586,1.0931 -0.57422,1.291 -0.51562,0.19793 -1.095,-0.058602 -1.293,-0.57422 -0.19793,-0.51562 0.06056,-1.0931 0.57617,-1.291 0.1289,-0.04948 0.26097,-0.0707 0.39062,-0.06641 z m 1.4336,3.7324 c 0.38925,0.013363 0.75195,0.25587 0.90039,0.64258 0.19788,0.51553 -0.05851,1.095 -0.57422,1.293 -0.51553,0.19788 -1.0931,-0.060559 -1.291,-0.57617 -0.19792,-0.51562 0.05869,-1.0951 0.57422,-1.293 0.1289,-0.049481 0.26088,-0.070861 0.39062,-0.066406 z m 1.4336,3.7363 c 0.38973,0.013088 0.75195,0.25391 0.90039,0.64062 0.19793,0.51562 -0.0586,1.095 -0.57422,1.293 -0.51548,0.19796 -1.095,-0.060555 -1.293,-0.57617 -0.19793,-0.51562 0.06056,-1.095 0.57617,-1.293 0.1289,-0.049481 0.26072,-0.068816 0.39062,-0.064453 z"
         fill="currentColor"
         fill-rule="evenodd"
         id="path84" />
      <path
         class="ColorScheme-Text"
         transform="translate(128,64)"
         d="m -121,-44 c -1.6569,0 -3,1.3431 -3,3 v 66 c 0,1.6569 1.3431,3 3,3 h 49 v 13 h -13 c -0.5523,0 -1,0.448 -1,1 v 1 c 0,0.552 0.4477,1 1,1 h 42 c 0.5523,0 1,-0.448 1,-1 v -1 c 0,-0.552 -0.4477,-1 -1,-1 H -56 V 28 h 49 c 1.657,0 3,-1.3431 3,-3 v -66 c 0,-1.6569 -1.343,-3 -3,-3 z m 0,1 H -7 c 1.105,0 2,0.8954 2,2 v 66 c 0,1.1046 -0.895,2 -2,2 h -114 c -1.1046,0 -2,-0.8954 -2,-2 v -66 c 0,-1.1046 0.89542,-2 2,-2 z m 0,2 V 23 H -7 v -64 z m 1,1 H -8 v 62 h -112 z m 49,68 h 14 v 13 h -14 z m -14,14 h 42 v 1 h -42 z"
         fill="currentColor"
         id="path86" />
    </g>
    <g
       id="32-32-osd-rotate-flip"
       transform="translate(384,891.36)">
      <rect
         width="32"
         height="32"
         fill="none"
         id="rect89"
         x="0"
         y="0" />
      <path
         class="ColorScheme-Text"
         d="M 2,22 V 4 l 28,3e-5 v 18 l -11,-10e-5 v 5.0001 h 4 v 1 H 9 v -1 h 4 v -5.0001 H 2 Z m 16,0 h -4 v 5.0001 h 4 z M 29,5 H 3 v 16 h 26 z"
         fill="currentColor"
         fill-rule="evenodd"
         id="path91" />
      <path
         class="ColorScheme-Highlight"
         d="m 16,7 -4,4.0001 h 3 V 15 h -3 l 4,4 4,-4 h -3 v -3.9999 h 3 z"
         fill="currentColor"
         id="path93" />
    </g>
    <g
       id="48-48-osd-rotate-flip"
       transform="translate(336,875.36)">
      <rect
         width="48"
         height="48"
         fill="none"
         id="rect96"
         x="0"
         y="0" />
      <path
         class="ColorScheme-Text"
         transform="translate(-64,-16)"
         d="m 66,23 v 28 h 18 v 5 h -3 v 1 h 14 v -1 h -3 v -5 h 18 V 23 Z m 43,1 V 50 H 67 V 24.002 Z m -41,1 v 24 h 40 V 25 Z m 1,1 h 38 V 48 H 69 Z m 16,25 h 6 v 5 h -6 z"
         fill="currentColor"
         fill-rule="evenodd"
         id="path98" />
      <path
         class="ColorScheme-Highlight"
         d="m 24,13 -4,4.9999 h 3 v 6 h -3 l 4,5 4,-5 h -3 v -6 h 3 z"
         fill="currentColor"
         id="path100" />
    </g>
    <g
       id="osd-rotate-flip"
       transform="translate(272,859.36)">
      <rect
         width="64"
         height="64"
         fill="none"
         id="rect103"
         x="0"
         y="0" />
      <path
         class="ColorScheme-Text"
         d="M 59,11 H 5 V 45 H 59 Z M 5,10 H 4 v 1 34 1 h 1 23 v 7 h -7 v 1 h 7 1 6 1 7 v -1 h -7 v -7 h 23 1 V 45 11 10 h -1 z m 24,43 v -7 h 6 v 7 z M 7,13 H 57 V 42 H 7 Z M 6,12 h 1 50 1 v 1 29 1 H 57 7 6 V 42 13 Z"
         fill="currentColor"
         fill-rule="evenodd"
         id="path105" />
      <path
         class="ColorScheme-Highlight"
         d="m 32,15 -4,7 h 3 v 11 h -3 l 4,7 4,-7 H 33 V 22 h 3 z"
         fill="currentColor"
         id="path107" />
    </g>
    <g
       id="128-128-osd-rotate-flip"
       transform="translate(144,795.36)">
      <rect
         width="128"
         height="128"
         fill="none"
         id="rect110"
         x="0"
         y="0" />
      <path
         class="ColorScheme-Text"
         transform="translate(128,64)"
         d="m -121,-44 c -1.6569,0 -3,1.3431 -3,3 v 66 c 0,1.6569 1.3431,3 3,3 h 49 v 13 h -13 c -0.5523,0 -1,0.448 -1,1 v 1 c 0,0.552 0.4477,1 1,1 h 42 c 0.5523,0 1,-0.448 1,-1 v -1 c 0,-0.552 -0.4477,-1 -1,-1 H -56 V 28 h 49 c 1.657,0 3,-1.3431 3,-3 v -66 c 0,-1.6569 -1.343,-3 -3,-3 z m 0,1 H -7 c 1.105,0 2,0.8954 2,2 v 66 c 0,1.1046 -0.895,2 -2,2 h -114 c -1.1046,0 -2,-0.8954 -2,-2 v -66 c 0,-1.1046 0.89542,-2 2,-2 z m 0,2 V 23 H -7 v -64 z m 1,1 H -8 v 62 h -112 z m 49,68 h 14 v 13 h -14 z m -14,14 h 42 v 1 h -42 z"
         fill="currentColor"
         id="path112" />
      <path
         class="ColorScheme-Highlight"
         d="m 64.5,30 -6.9231,12 h 1.7308 l 4.1827,-6 V 70 L 58.7308,63 H 57 L 64.5,76 72,63 h -1.7308 l -4.7596,7 V 36 l 4.1827,6 h 1.7308 z"
         fill="currentColor"
         id="path114" />
    </g>
    <g
       id="32-32-osd-rotate-normal"
       transform="translate(384,1019.4)">
      <rect
         width="32"
         height="32"
         fill="none"
         id="rect117"
         x="0"
         y="0" />
      <path
         class="ColorScheme-Text"
         d="M 2,22 V 4 l 28,3e-5 v 18 l -11,-10e-5 v 5.0001 h 4 v 1 H 9 v -1 h 4 v -5.0001 H 2 Z m 16,0 h -4 v 5.0001 h 4 z M 29,5 H 3 v 16 h 26 z"
         fill="currentColor"
         fill-rule="evenodd"
         id="path119" />
      <path
         class="ColorScheme-Highlight"
         transform="translate(-112,-32)"
         d="m 120,39 v 8 h 11 v -8 z m 7,1 h 1 v 1 h -1 z m 2,0 h 1 v 1 h -1 z m -8,2 h 9 v 4 h -9 z m 11,1 v 1 h 1 v 1 h -1 v 1 h 3 v 4 h -9 v -2 h -1 v 3 h 11 v -8 z m 2,1 h 1 v 1 h -1 z"
         fill="currentColor"
         id="path121" />
    </g>
    <g
       id="48-48-osd-rotate-normal"
       transform="translate(336,1003.4)">
      <rect
         width="48"
         height="48"
         fill="none"
         id="rect124"
         x="0"
         y="0" />
      <path
         class="ColorScheme-Text"
         transform="translate(-64,-16)"
         d="m 66,23 v 28 h 18 v 5 h -3 v 1 h 14 v -1 h -3 v -5 h 18 V 23 Z m 43,1 V 50 H 67 V 24.002 Z m -41,1 v 24 h 40 V 25 Z m 1,1 h 38 V 48 H 69 Z m 16,25 h 6 v 5 h -6 z"
         fill="currentColor"
         fill-rule="evenodd"
         id="path126" />
      <path
         class="ColorScheme-Highlight"
         transform="translate(-64,-16)"
         d="M 77,28 V 40 H 93 V 28 Z m 10,1 h 1 v 1 h -1 z m 2,0 h 1 v 1 h -1 z m 2,0 h 1 v 1 h -1 z m -13,2 h 14 v 1 H 78 Z m 0,2 h 2 v 6 h -2 z m 3,0 h 11 v 6 H 81 Z m 13,1 v 1 1 1 h 4 v 1 h -4 v 1 h 4 v 6 H 87 v -4 h -1 v 4 h -2 v -4 h -1 v 5 H 99 V 34 Z m 1,1 h 1 v 1 h -1 z m 2,0 h 1 v 1 h -1 z"
         fill="currentColor"
         fill-rule="evenodd"
         id="path128" />
    </g>
    <g
       id="osd-rotate-normal"
       transform="translate(272,987.36)">
      <rect
         width="64"
         height="64"
         fill="none"
         id="rect131"
         x="0"
         y="0" />
      <path
         class="ColorScheme-Text"
         d="M 59,11 H 5 V 45 H 59 Z M 5,10 H 4 v 1 34 1 h 1 23 v 7 h -7 v 1 h 7 1 6 1 7 v -1 h -7 v -7 h 23 1 V 45 11 10 h -1 z m 24,43 v -7 h 6 v 7 z M 7,13 H 57 V 42 H 7 Z M 6,12 h 1 50 1 v 1 29 1 H 57 7 6 V 42 13 Z"
         fill="currentColor"
         fill-rule="evenodd"
         id="path133" />
      <path
         class="ColorScheme-Highlight"
         d="M 21,19 V 31 H 37 V 19 Z m 10,1 h 1 v 1 h -1 z m 2,0 h 1 v 1 h -1 z m 2,0 h 1 v 1 h -1 z m -13,2 h 14 v 1 H 22 Z m 0,2 h 2 v 6 h -2 z m 3,0 h 11 v 6 H 25 Z m 13,1 v 1 1 1 h 4 v 1 h -4 v 1 h 4 v 6 H 31 v -4 h -1 v 4 h -2 v -4 h -1 v 5 H 43 V 25 Z m 1,1 h 1 v 1 h -1 z m 2,0 h 1 v 1 h -1 z"
         fill="currentColor"
         fill-rule="evenodd"
         id="path135" />
    </g>
    <g
       id="128-128-osd-rotate-normal"
       transform="translate(144,923.36)">
      <rect
         width="128"
         height="128"
         fill="none"
         id="rect138"
         x="0"
         y="0" />
      <path
         class="ColorScheme-Text"
         transform="translate(128,64)"
         d="m -121,-44 c -1.6569,0 -3,1.3431 -3,3 v 66 c 0,1.6569 1.3431,3 3,3 h 49 v 13 h -13 c -0.5523,0 -1,0.448 -1,1 v 1 c 0,0.552 0.4477,1 1,1 h 42 c 0.5523,0 1,-0.448 1,-1 v -1 c 0,-0.552 -0.4477,-1 -1,-1 H -56 V 28 h 49 c 1.657,0 3,-1.3431 3,-3 v -66 c 0,-1.6569 -1.343,-3 -3,-3 z m 0,1 H -7 c 1.105,0 2,0.8954 2,2 v 66 c 0,1.1046 -0.895,2 -2,2 h -114 c -1.1046,0 -2,-0.8954 -2,-2 v -66 c 0,-1.1046 0.89542,-2 2,-2 z m 0,2 V 23 H -7 v -64 z m 1,1 H -8 v 62 h -112 z m 49,68 h 14 v 13 h -14 z m -14,14 h 42 v 1 h -42 z"
         fill="currentColor"
         fill-rule="evenodd"
         id="path140" />
      <path
         class="ColorScheme-Highlight"
         transform="translate(128,64)"
         d="m -89,-26 v 24 h 32 v -24 z m 21,2 c 0.5523,0 1,0.4477 1,1 0,0.5522 -0.4477,1 -1,1 -0.5523,0 -1,-0.4478 -1,-1 0,-0.5523 0.4477,-1 1,-1 z m 4,0 c 0.5523,0 1,0.4477 1,1 0,0.5522 -0.4477,1 -1,1 -0.5523,0 -1,-0.4478 -1,-1 0,-0.5523 0.4477,-1 1,-1 z m 4,0 c 0.5523,0 1,0.4477 1,1 0,0.5522 -0.4477,1 -1,1 -0.5523,0 -1,-0.4478 -1,-1 0,-0.5523 0.4477,-1 1,-1 z m -28,4 h 30 v 1 h -30 z m 0,2 h 4 v 15 h -4 z m 5,0 h 25 v 15 h -25 z m 28,1 v 6 h 15 v 1 h -15 v 1 h 15 V 6 H -65 V 0 h -1 v 6 h -4 V 0 h -1 v 7 h 32 v -24 z m 5,2 c 0.5523,0 1,0.4477 1,1 0,0.5522 -0.4477,1 -1,1 -0.5523,0 -1,-0.4478 -1,-1 0,-0.5523 0.4477,-1 1,-1 z m 4,0 c 0.5523,0 1,0.4477 1,1 0,0.5522 -0.4477,1 -1,1 -0.5523,0 -1,-0.4478 -1,-1 0,-0.5523 0.4477,-1 1,-1 z m 4,0 c 0.5523,0 1,0.4477 1,1 0,0.5522 -0.4477,1 -1,1 -0.5523,0 -1,-0.4478 -1,-1 0,-0.5523 0.4477,-1 1,-1 z"
         fill="currentColor"
         fill-rule="evenodd"
         id="path142" />
    </g>
    <g
       id="32-32-osd-sbs-left"
       transform="translate(112,636.36)">
      <rect
         width="32"
         height="32"
         fill="none"
         id="rect145"
         x="0"
         y="0" />
      <path
         class="ColorScheme-Text"
         transform="translate(-112,-32)"
         d="m 114,41 v 14 h 10 v -1 h -9 V 42 h 9 v -1 z m 11,0 v 14 h 17 V 41 Z m 1,1 h 15 v 12 h -15 z"
         fill="currentColor"
         id="path147" />
      <path
         class="ColorScheme-Highlight"
         transform="translate(-112,-32)"
         d="m 119,44 v 8 h 5 v -1 h -4 v -4 h 4 v -3 z m 8,0 v 3 h 4 v 4 h -4 v 1 h 5 v -8 z m 1,1 h 1 v 1 h -1 z m 2,0 h 1 v 1 h -1 z"
         fill="currentColor"
         fill-rule="evenodd"
         id="path149" />
    </g>
    <g
       id="48-48-osd-sbs-left"
       transform="translate(64,620.36)">
      <rect
         width="48"
         height="48"
         fill="none"
         id="rect152"
         x="0"
         y="0" />
      <path
         class="ColorScheme-Text"
         transform="translate(-64,-16)"
         d="m 66,27 v 18 h 12 v 5 h -4 v 1 h 4 1 7 v -1 h -2 v -4 h -1 v 4 H 79 V 46 45 44 H 67 V 28 h 12 v -1 z m 14,0 v 18 h 12 v 5 h -4 v 1 h 4 1 9 v -1 h -4 v -5 h 12 V 27 Z m 1,1 28,0.002 V 44 H 95 94 81 Z m 12,17 h 4 v 5 h -4 z"
         fill="currentColor"
         id="path154" />
      <path
         class="ColorScheme-Highlight"
         transform="translate(-64,-16)"
         d="m 71,30 v 12 h 8 v -1 h -4 v -6 h 4 v -1 h -7 v -1 h 7 v -3 z m 11,0 v 3 h 7 v 1 h -7 v 1 h 7 v 6 h -7 v 1 h 8 V 30 Z m 2,1 h 1 v 1 h -1 z m 2,0 h 1 v 1 h -1 z m 2,0 h 1 v 1 h -1 z m -16,4 h 2 v 6 h -2 z"
         fill="currentColor"
         fill-rule="evenodd"
         id="path156" />
    </g>
    <g
       id="osd-sbs-left"
       transform="translate(0,604.36)">
      <rect
         width="64"
         height="64"
         fill="none"
         id="rect159"
         x="0"
         y="0" />
      <path
         class="ColorScheme-Text"
         d="m 4,18 v 22 h 14 v 4 h -4 v 1 h 4 1 9 v -1 h -4 v -4 h 1 V 39 H 19 18 5 V 38 H 25 V 37 H 5 V 19 l 20,0.002 V 18 Z m 22,0 v 22 h 14 v 4 h -4 v 1 h 4 1 9 V 44 H 46 V 40 H 60 V 18 Z m 1,1 32,0.002 V 37 H 27 Z m 0,19 h 32 v 1 H 41 40 27 Z m -8,2 h 4 v 4 h -4 z m 22,0 h 4 v 4 h -4 z"
         fill="currentColor"
         id="path161" />
      <path
         class="ColorScheme-Highlight"
         d="m 17,22 v 12 h 8 v -1 h -4 v -6 h 4 v -1 h -7 v -1 h 7 v -3 z m 11,0 v 3 h 7 v 1 h -7 v 1 h 7 v 6 h -7 v 1 h 8 V 22 Z m 2,1 h 1 v 1 h -1 z m 2,0 h 1 v 1 h -1 z m 2,0 h 1 v 1 h -1 z m -16,4 h 2 v 6 h -2 z"
         fill="currentColor"
         fill-rule="evenodd"
         id="path163" />
    </g>
    <g
       id="128-128-osd-sbs-left"
       transform="translate(-128,540.36)">
      <rect
         width="128"
         height="128"
         fill="none"
         id="rect166"
         x="0"
         y="0" />
      <path
         class="ColorScheme-Text"
         transform="translate(128,64)"
         d="m -78,-26 -43,0.002 V 17 h 30 v 8 h -8 v 1 h 26 v -1 h -8 v -8 h 3 v -1 h -42 v -41 h 42 z m 71,0 -70,0.002 V 17 h 30 v 8 h -8 v 1 h 26 v -1 h -8 v -8 h 30 z m -69,1 h 68 v 41 h -68 z m -43,1 v 38 h 41 v -1 h -40 v -36 h 40 v -1 z m 44,0 v 38 h 66 v -38 z m 1,1 h 64 v 36 h -64 z m -16,40 h 8 v 8 h -8 z m 44,0 h 8 v 8 h -8 z"
         fill="currentColor"
         fill-rule="evenodd"
         id="path168" />
      <path
         class="ColorScheme-Highlight"
         transform="translate(128,64)"
         d="M -94,-17 V 7 h 15 V 6 h -9 V -9 h 9 v -1 h -14 v -1 h 14 v -6 z m 22,0 v 6 h 14 v 1 h -14 v 1 h 14 V 6 h -14 v 1 h 15 v -24 z m 4,2 c 0.5523,0 1,0.4477 1,1 0,0.5522 -0.4477,1 -1,1 -0.5523,0 -1,-0.4478 -1,-1 0,-0.5523 0.4477,-1 1,-1 z m 4,0 c 0.5523,0 1,0.4477 1,1 0,0.5522 -0.4477,1 -1,1 -0.5523,0 -1,-0.4478 -1,-1 0,-0.5523 0.4477,-1 1,-1 z m 4,0 c 0.5523,0 1,0.4477 1,1 0,0.5522 -0.4477,1 -1,1 -0.5523,0 -1,-0.4478 -1,-1 0,-0.5523 0.4477,-1 1,-1 z m -33,6 h 4 V 6 h -4 z"
         fill="currentColor"
         fill-rule="evenodd"
         id="path170" />
    </g>
    <g
       id="32-32-osd-sbs-sright"
       transform="translate(112,763.36)">
      <rect
         width="32"
         height="32"
         fill="none"
         id="rect173"
         x="0"
         y="0" />
      <path
         class="ColorScheme-Text"
         transform="translate(-112,-32)"
         d="m 114,41 v 14 h 17 V 41 Z m 18,0 v 1 h 9 v 12 h -9 v 1 h 10 V 41 Z m -17,1 h 15 v 12 h -15 z"
         fill="currentColor"
         id="path175" />
      <path
         class="ColorScheme-Highlight"
         transform="translate(-112,-32)"
         d="m 124,44 v 8 h 5 v -1 h -4 v -4 h 4 v -3 z m 8,0 v 3 h 4 v 4 h -4 v 1 h 5 v -8 z m 1,1 h 1 v 1 h -1 z m 2,0 h 1 v 1 h -1 z"
         fill="currentColor"
         fill-rule="evenodd"
         id="path177" />
    </g>
    <g
       id="48-48-osd-sbs-sright"
       transform="translate(64,747.36)">
      <rect
         width="48"
         height="48"
         fill="none"
         id="rect180"
         x="0"
         y="0" />
      <path
         class="ColorScheme-Text"
         transform="translate(-64,-16)"
         d="m 66,27 v 18 h 12 v 5 h -4 v 1 h 9 1 4 V 50 H 84 V 45 H 96 V 27 Z m 31,0 v 1 h 12 V 44 H 97 v 1 5 h -4 v -4 h -1 v 4 h -2 v 1 h 7 1 4 v -1 h -4 v -5 h 12 V 27 Z m -2,1 V 44 H 82 81 67 V 28.002 Z M 79,45 h 4 v 5 h -4 z"
         fill="currentColor"
         id="path182" />
      <path
         class="ColorScheme-Highlight"
         transform="translate(-64,-16)"
         d="m 86,30 v 12 h 8 v -1 h -4 v -6 h 4 v -1 h -7 v -1 h 7 v -3 z m 11,0 v 3 h 7 v 1 h -7 v 1 h 7 v 6 h -7 v 1 h 8 V 30 Z m 2,1 h 1 v 1 h -1 z m 2,0 h 1 v 1 h -1 z m 2,0 h 1 v 1 h -1 z m -16,4 h 2 v 6 h -2 z"
         fill="currentColor"
         fill-rule="evenodd"
         id="path184" />
    </g>
    <g
       id="osd-sbs-sright"
       transform="translate(0,731.36)">
      <rect
         width="64"
         height="64"
         fill="none"
         id="rect187"
         x="0"
         y="0" />
      <path
         class="ColorScheme-Text"
         d="m 4,22 v 22 h 14 v 4 h -4 v 1 h 9 1 4 V 48 H 24 V 44 H 38 V 22 Z m 35,0 v 1.002 L 59,23 V 41 H 39 v 1 h 20 v 1 H 46 45 39 v 1 h 1 v 4 h -4 v 1 h 9 1 4 V 48 H 46 V 44 H 60 V 22 Z m -2,1 V 41 H 5 V 23.002 Z M 5,42 h 32 v 1 H 24 23 5 Z m 14,2 h 4 v 4 h -4 z m 22,0 h 4 v 4 h -4 z"
         fill="currentColor"
         id="path189" />
      <path
         class="ColorScheme-Highlight"
         d="m 28,26 v 12 h 8 v -1 h -4 v -6 h 4 v -1 h -7 v -1 h 7 v -3 z m 11,0 v 3 h 7 v 1 h -7 v 1 h 7 v 6 h -7 v 1 h 8 V 26 Z m 2,1 h 1 v 1 h -1 z m 2,0 h 1 v 1 h -1 z m 2,0 h 1 v 1 h -1 z m -16,4 h 2 v 6 h -2 z"
         fill="currentColor"
         fill-rule="evenodd"
         id="path191" />
    </g>
    <g
       id="128-128-osd-sbs-sright"
       transform="translate(-128,668.36)">
      <rect
         width="128"
         height="127"
         fill="none"
         id="rect194"
         x="0"
         y="0" />
      <path
         class="ColorScheme-Text"
         transform="translate(128,63)"
         d="m -121,-25 v 43 h 30 v 8 h -8 v 1 h 26 v -1 h -8 v -8 h 30 v -42.998 z m 71,0 v 1 h 42 v 41 h -42 v 1 h 3 v 8 h -8 v 1 h 26 v -1 h -8 v -8 h 30 v -42.998 z m -70,1 h 68 v 41 h -68 z m 1,1 v 38 h 66 v -38 z m 69,0 v 1 h 40 v 36 h -40 v 1 h 41 v -38 z m -68,1 h 64 v 36 h -64 z m 28,40 h 8 v 8 h -8 z m 44,0 h 8 v 8 h -8 z"
         fill="currentColor"
         fill-rule="evenodd"
         id="path196" />
      <path
         class="ColorScheme-Highlight"
         transform="translate(128,63)"
         d="M -71,-17 V 7 h 15 V 6 h -9 V -9 h 9 v -1 h -14 v -1 h 14 v -6 z m 22,0 v 6 h 14 v 1 h -14 v 1 h 14 V 6 h -14 v 1 h 15 v -24 z m 4,2 c 0.5523,0 1,0.4477 1,1 0,0.5522 -0.4477,1 -1,1 -0.5523,0 -1,-0.4478 -1,-1 0,-0.5523 0.4477,-1 1,-1 z m 4,0 c 0.5523,0 1,0.4477 1,1 0,0.5522 -0.4477,1 -1,1 -0.5523,0 -1,-0.4478 -1,-1 0,-0.5523 0.4477,-1 1,-1 z m 4,0 c 0.5523,0 1,0.4477 1,1 0,0.5522 -0.4477,1 -1,1 -0.5523,0 -1,-0.4478 -1,-1 0,-0.5523 0.4477,-1 1,-1 z m -33,6 h 4 V 6 h -4 z"
         fill="currentColor"
         fill-rule="evenodd"
         id="path198" />
    </g>
    <g
       id="32-32-osd-shutd-laptop"
       transform="translate(112,891.36)">
      <rect
         width="32"
         height="32"
         fill="none"
         id="rect201"
         x="0"
         y="0" />
      <path
         class="ColorScheme-Text"
         transform="translate(-112,-32)"
         d="m 125,36 v 9 h 1 v -8 h 15 v 12 h -9 v 1 h 10 V 36 Z m -11,10 v 14 h 17 V 46 Z m 1,1 h 15 v 12 h -15 z"
         fill="currentColor"
         fill-rule="evenodd"
         id="path203" />
      <path
         d="m 6.2572,18.171 1.4141,-1.414 2.8282,2.8281 2.8281,-2.8281 1.414,1.414 -2.8281,2.8282 2.8281,2.8281 -1.414,1.414 -2.8281,-2.8281 -2.8282,2.8281 -1.4141,-1.414 2.8281,-2.8281 z"
         fill="#da4453"
         id="path205" />
      <path
         class="ColorScheme-Highlight"
         d="M 16,13 V 7 h 11 v 8 l -7,-4e-5 v -1 L 26,14 v -4 h -9 v 3 z m 8,-5 h -1 v 1 h 1 z m 2,0 h -1 v 1 h 1 z"
         fill="currentColor"
         fill-rule="evenodd"
         id="path207" />
    </g>
    <g
       id="48-48-osd-shutd-laptop"
       transform="translate(64,875.36)">
      <rect
         width="48"
         height="48"
         fill="none"
         id="rect210"
         x="0"
         y="0" />
      <path
         class="ColorScheme-Text"
         transform="translate(-64,-16)"
         d="m 80,21 v 14 h 1 V 22.002 L 109,22 V 38 H 97 v 1 5 1 h 1 4 v -1 h -4 v -5 h 12 V 21 Z M 66,36 v 18 h 12 v 5 h -4 v 1 h 9 1 4 V 59 H 84 V 54 H 96 V 36 Z m 29,1 V 53 H 82 81 67 V 37.002 Z M 79,54 h 4 v 5 h -4 z"
         fill="currentColor"
         id="path212" />
      <path
         d="m 13.414,24 -1.4141,1.4141 3.5351,3.5351 -1.7617,1.7618 -1.7734,1.7734 1.4141,1.4141 1.6425,-1.6426 1.8926,-1.8926 3.5352,3.5352 1.414,-1.4141 -3.5351,-3.5352 3.5351,-3.5351 L 20.4843,24 16.9491,27.5352 15.1874,25.7735 Z"
         fill="#da4453"
         id="path214" />
      <path
         class="ColorScheme-Highlight"
         d="M 39,8 H 23 v 11 h 1 v -6 h 2 v 6 h 1 v -6 h 11 v 6 h -5 v 1 h 6 z M 24,12 H 38 V 11 H 24 Z m 9,-3 h 1 v 1 h -1 z m 2,0 h 1 v 1 h -1 z m 2,0 h 1 v 1 h -1 z"
         fill="currentColor"
         fill-rule="evenodd"
         id="path216" />
    </g>
    <g
       id="osd-shutd-laptop"
       transform="translate(0,859.36)">
      <rect
         width="64"
         height="64"
         fill="none"
         id="rect219"
         x="0"
         y="0" />
      <path
         class="ColorScheme-Text"
         d="m 26,11 v 14 h 1 V 12.002 L 59,12 V 30 H 39 v 1 h 20 v 1 H 46 45 39 v 1 h 1 v 4 h -1 v 1 h 6 1 4 V 37 H 46 V 33 H 60 V 11 Z M 4,26 v 22 h 14 v 4 h -4 v 1 h 9 1 4 V 52 H 24 V 48 H 38 V 26 Z m 33,1 V 45 H 5 V 27.002 Z m 4,6 h 4 v 4 H 41 Z M 5,46 h 32 v 1 H 24 23 5 Z m 14,2 h 4 v 4 h -4 z"
         fill="currentColor"
         fill-rule="evenodd"
         id="path221" />
      <path
         d="m 14.636,31.05 1.4141,-1.414 4.9492,4.9492 4.9492,-4.9492 h 0.002 l 1.4121,1.414 -4.9473,4.9493 1.5841,1.584 v 0.0033 l 3.3632,3.3619 v 0.002 l -1.4141,1.4121 -4.9492,-4.9473 -1.584,1.5841 h -0.0011 l -1.8289,1.83 h -0.0021 l -1.5332,1.5332 -1.414,-1.4141 4.9492,-4.9492 -3.416,-3.4141 v -0.002 z"
         fill="#da4453"
         id="path223" />
      <path
         class="ColorScheme-Highlight"
         d="M 51,15 H 35 v 10 h 1 v -5 h 2 v 5 h 1 v -5 h 11 v 6 H 39 v 1 H 51 Z M 36,19 H 50 V 18 H 36 Z m 9,-3 h 1 v 1 h -1 z m 2,0 h 1 v 1 h -1 z m 2,0 h 1 v 1 h -1 z"
         fill="currentColor"
         fill-rule="evenodd"
         id="path225" />
    </g>
    <g
       id="128-128-osd-shutd-laptop"
       transform="translate(-128,795.36)">
      <rect
         width="128"
         height="128"
         fill="none"
         id="rect228"
         x="0"
         y="0" />
      <path
         class="ColorScheme-Text"
         transform="translate(128,64)"
         d="m -77,-43 v 33 h 1 v -32 h 68 v 41 h -41 v 1 h 2 v 8 h -2 v 1 h 20 V 8 h -8 V 0 h 30 v -42.998 z m 2,2 v 31 h 1 v -30 h 64 v 36 h -39 v 1 h 40 v -38 z m -46,33 v 43 h 30 v 8 h -8 v 1 h 26 v -1 h -8 v -8 h 30 V -7.998 l -70,-0.00195 z m 1,1 h 68 v 41 h -68 z m 1,1 v 38 h 66 V -6 Z m 1,1 h 64 v 36 h -64 z m 72,5 h 8 v 8 h -8 z m -44,35 h 8 v 8 h -8 z"
         fill="currentColor"
         fill-rule="evenodd"
         id="path230" />
      <path
         d="M 53.748,64 50.1875,67.5625 42.082,75.668 32.6992,66.2871 32.582,66.1699 30.4141,64.0019 29,65.416 31.7363,68.1504 32.5625,68.9765 40.668,77.082 29,88.75 l 1.4141,1.4141 2.7363,-2.7364 0.8262,-0.8261 8.1054,-8.1055 11.668,11.666 1.4141,-1.4141 -11.668,-11.666 9.498,-9.5 2.168,-2.168 -1.4121,-1.4121 -0.0021,-0.002 V 64 Z"
         fill="#da4453"
         id="path232" />
      <path
         class="ColorScheme-Highlight"
         d="m 70,30 h 32 V 54 H 70 Z m 6,23 h 25 V 38 H 76 Z M 101,37 V 36 H 71 v 1 z m -30,1 h 4 v 15 h -4 z m 21,-5 c 0,-0.5523 -0.4477,-1 -1,-1 -0.5523,0 -1,0.4477 -1,1 0,0.5522 0.4477,1 1,1 0.5523,0 1,-0.4478 1,-1 z m 4,0 c 0,-0.5523 -0.4477,-1 -1,-1 -0.5523,0 -1,0.4477 -1,1 0,0.5522 0.4477,1 1,1 0.5523,0 1,-0.4478 1,-1 z m 4,0 c 0,-0.5523 -0.4477,-1 -1,-1 -0.5523,0 -1,0.4477 -1,1 0,0.5522 0.4477,1 1,1 0.5523,0 1,-0.4478 1,-1 z"
         fill="currentColor"
         fill-rule="evenodd"
         id="path234" />
    </g>
    <g
       id="32-32-osd-shutd-screen"
       transform="translate(112,1019.4)">
      <rect
         width="32"
         height="32"
         fill="none"
         id="rect237"
         x="0"
         y="0" />
      <path
         class="ColorScheme-Text"
         transform="translate(-112,-32)"
         d="m 125,36 v 9 h 1 v -8 h 15 v 12 h -9 v 1 h 10 V 36 Z m -11,10 v 14 h 17 V 46 Z m 1,1 h 15 v 12 h -15 z"
         fill="currentColor"
         id="path239" />
      <path
         class="ColorScheme-Highlight"
         d="m 5,17 v 8 h 11 v -8 z m 7,1 h 1 v 1 h -1 z m 2,0 h 1 v 1 h -1 z m -8,2 h 9 v 4 H 6 Z"
         fill="currentColor"
         id="path241" />
      <path
         d="m 18.671,6.7572 -1.414,1.4141 2.8281,2.8282 -2.0006,2.0006 h 1.9153 v 0.9128 l 1.4994,-1.4994 2.8281,2.8281 1.414,-1.414 -2.8281,-2.8281 2.8281,-2.8282 -1.414,-1.4141 -2.8281,2.8281 z"
         clip-rule="evenodd"
         fill="#da4453"
         fill-rule="evenodd"
         id="path243" />
    </g>
    <g
       id="48-48-osd-shutd-screen"
       transform="translate(64,1003.4)">
      <rect
         width="48"
         height="48"
         fill="none"
         id="rect246"
         x="0"
         y="0" />
      <path
         class="ColorScheme-Text"
         transform="translate(-64,-16)"
         d="m 80,21 v 14 h 1 V 22.002 L 109,22 V 38 H 97 v 1 5 1 h 1 4 v -1 h -4 v -5 h 12 V 21 Z M 66,36 v 18 h 12 v 5 h -4 v 1 h 9 1 4 V 59 H 84 V 54 H 96 V 36 Z m 29,1 V 53 H 82 81 67 V 37.002 Z M 79,54 h 4 v 5 h -4 z"
         fill="currentColor"
         id="path248" />
      <path
         class="ColorScheme-Highlight"
         d="M 9,23 H 25 V 35 H 9 Z m 1,5 v 6 h 2 v -6 z m 3,6 H 24 V 28 H 13 Z M 24,27 H 10 v -1 h 14 z m -4,-3 h -1 v 1 h 1 z m 2,0 h -1 v 1 h 1 z m 2,0 h -1 v 1 h 1 z"
         fill="currentColor"
         fill-rule="evenodd"
         id="path250" />
      <path
         d="m 27.414,9 -1.4141,1.4141 3.5351,3.5351 -1.7617,1.7618 -1.7734,1.7734 1.4141,1.4141 1.6425,-1.6426 1.8926,-1.8926 3.5352,3.5352 1.414,-1.4141 -3.5351,-3.5352 3.5351,-3.5351 L 34.4843,9 30.9491,12.5352 29.1874,10.7735 Z"
         fill="#da4453"
         id="path252" />
    </g>
    <g
       id="osd-shutd-screen"
       transform="translate(0,988.36)">
      <rect
         width="64"
         height="64"
         fill="none"
         id="rect255"
         x="0"
         y="0" />
      <path
         class="ColorScheme-Text"
         transform="translate(0,-1)"
         d="m 26,12 v 14 h 1 V 13.002 L 59,13 V 31 H 39 v 1 h 20 v 1 H 46 45 39 v 1 h 1 v 4 h -1 v 1 h 6 1 4 V 38 H 46 V 34 H 60 V 12 Z M 4,27 v 22 h 14 v 4 h -4 v 1 h 9 1 4 V 53 H 24 V 49 H 38 V 27 Z m 33,1 V 46 H 5 V 28.002 Z m 4,6 h 4 v 4 H 41 Z M 5,47 h 32 v 1 H 24 23 5 Z m 14,2 h 4 v 4 h -4 z"
         fill="currentColor"
         fill-rule="evenodd"
         id="path257" />
      <path
         class="ColorScheme-Highlight"
         d="M 13,30 H 29 V 42 H 13 Z m 1,5 v 6 h 2 v -6 z m 3,6 H 28 V 35 H 17 Z M 28,34 H 14 v -1 h 14 z m -4,-3 h -1 v 1 h 1 z m 2,0 h -1 v 1 h 1 z m 2,0 h -1 v 1 h 1 z"
         fill="currentColor"
         fill-rule="evenodd"
         id="path259" />
      <path
         d="m 38.05,14.636 -1.4141,1.414 1.5332,1.5332 v 0.002 l 3.416,3.4141 -4.0009,4.0009 h 1.4159 v 1.4122 l 0.583,-0.583 h 0.0021 l 1.8289,-1.83 h 0.0011 l 1.584,-1.5841 4.9492,4.9473 1.4141,-1.4121 v -0.002 l -3.3632,-3.3619 v -0.0033 l -1.5841,-1.584 4.9473,-4.9493 -1.4121,-1.414 h -0.002 l -4.9492,4.9492 z"
         clip-rule="evenodd"
         fill="#da4453"
         fill-rule="evenodd"
         id="path261" />
    </g>
    <g
       id="128-128-osd-shutd-screen"
       transform="translate(-128,923.36)">
      <rect
         width="128"
         height="128"
         fill="none"
         id="rect264"
         x="0"
         y="0" />
      <path
         class="ColorScheme-Text"
         transform="translate(128,64)"
         d="m -77,-43 v 33 h 1 v -32 h 68 v 41 h -41 v 1 h 2 v 8 h -2 v 1 h 20 V 8 h -8 V 0 h 30 v -42.998 z m 2,2 v 31 h 1 v -30 h 64 v 36 h -39 v 1 h 40 v -38 z m -46,33 v 43 h 30 v 8 h -8 v 1 h 26 v -1 h -8 v -8 h 30 V -7.998 l -70,-0.00195 z m 1,1 h 68 v 41 h -68 z m 1,1 v 38 h 66 V -6 Z m 1,1 h 64 v 36 h -64 z m 72,5 h 8 v 8 h -8 z m -44,35 h 8 v 8 h -8 z"
         fill="currentColor"
         fill-rule="evenodd"
         id="path266" />
      <path
         class="ColorScheme-Highlight"
         d="M 26,65 H 58 V 89 H 26 Z m 6,23 H 57 V 73 H 32 Z M 57,72 V 71 H 27 v 1 z m -30,1 h 4 v 15 h -4 z m 21,-5 c 0,-0.5523 -0.4477,-1 -1,-1 -0.5523,0 -1,0.4477 -1,1 0,0.5522 0.4477,1 1,1 0.5523,0 1,-0.4478 1,-1 z m 4,0 c 0,-0.5523 -0.4477,-1 -1,-1 -0.5523,0 -1,0.4477 -1,1 0,0.5522 0.4477,1 1,1 0.5523,0 1,-0.4478 1,-1 z m 4,0 c 0,-0.5523 -0.4477,-1 -1,-1 -0.5523,0 -1,0.4477 -1,1 0,0.5522 0.4477,1 1,1 0.5523,0 1,-0.4478 1,-1 z"
         fill="currentColor"
         fill-rule="evenodd"
         id="path268" />
      <path
         d="m 94.188,32.563 3.5605,-3.5625 0.0021,0.0019 1.4121,1.4121 -2.168,2.168 -9.498,9.5 11.668,11.666 -1.4141,1.4141 -11.668,-11.666 -8.1054,8.1055 -0.8262,0.8261 -1.5722,1.5722 h -2.3283 l -0.2499,-0.2499 11.668,-11.668 -8.1055,-8.1054 -0.8262,-0.8262 -2.7363,-2.7344 1.4141,-1.4141 2.2851,2.2852 9.3828,9.3809 8.1055,-8.1055 z"
         clip-rule="evenodd"
         fill="#da4453"
         fill-rule="evenodd"
         id="path270" />
    </g>
  </g>
</svg>
