<?xml version="1.0" encoding="UTF-8" standalone="no"?>
<svg
   sodipodi:docname="phone.svg"
   inkscape:version="1.2.2 (b0a8486541, 2022-12-01)"
   id="svg"
   viewBox="0 0 32.000015 31.999973"
   height="31.999973"
   width="32.000015"
   version="1.1"
   xmlns:inkscape="http://www.inkscape.org/namespaces/inkscape"
   xmlns:sodipodi="http://sodipodi.sourceforge.net/DTD/sodipodi-0.dtd"
   xmlns="http://www.w3.org/2000/svg"
   xmlns:svg="http://www.w3.org/2000/svg"
   xmlns:rdf="http://www.w3.org/1999/02/22-rdf-syntax-ns#"
   xmlns:cc="http://creativecommons.org/ns#"
   xmlns:dc="http://purl.org/dc/elements/1.1/">
  <style
     id="current-color-scheme"
     type="text/css">.ColorScheme-Text { color:#d1d5e9; }
</style>
  <sodipodi:namedview
     inkscape:document-rotation="0"
     fit-margin-bottom="0"
     fit-margin-right="0"
     fit-margin-left="0"
     fit-margin-top="0"
     inkscape:snap-bbox-midpoints="true"
     inkscape:snap-bbox="true"
     inkscape:current-layer="svg"
     inkscape:window-maximized="1"
     inkscape:window-y="0"
     inkscape:window-x="0"
     inkscape:cy="30"
     inkscape:cx="41.6875"
     inkscape:zoom="8"
     showgrid="true"
     id="namedview10"
     inkscape:window-height="1002"
     inkscape:window-width="1920"
     inkscape:pageshadow="2"
     inkscape:pageopacity="0"
     guidetolerance="10"
     gridtolerance="10"
     objecttolerance="10"
     borderopacity="1"
     bordercolor="#1600f9"
     pagecolor="#000000"
     showguides="true"
     inkscape:lockguides="false"
     inkscape:pagecheckerboard="true"
     inkscape:showpageshadow="false"
     inkscape:deskcolor="#000000">
    <inkscape:grid
       type="xygrid"
       id="grid6368"
       originx="52.000001"
       originy="3.8330078e-08" />
  </sodipodi:namedview>
  <defs
     id="defs81">
    <style
       id="style5"
       type="text/css" />
  </defs>
  <metadata
     id="metadata34">
    <rdf:RDF>
      <cc:Work
         rdf:about="">
        <dc:format>image/svg+xml</dc:format>
        <dc:type
           rdf:resource="http://purl.org/dc/dcmitype/StillImage" />
      </cc:Work>
    </rdf:RDF>
  </metadata>
  <g
     id="phone">
    <rect
       width="32.000015"
       height="31.999973"
       rx="0"
       ry="0"
       x="-2.9711913e-07"
       y="-3.8330079e-08"
       id="rect3860"
       style="opacity:0.01;fill:#bac8df;fill-opacity:1;stroke:none" />
    <path
       class="cls-1  ColorScheme-Text "
       d="M 11.65312,4 H 20.3449 C 21.80913,4.0032 22.99562,5.166655 23,6.603516 v 18.792967 c -0.004,1.436861 -1.19087,2.600298 -2.6551,2.603516 H 11.65312 C 10.18797,27.997799 9.0011,26.832283 9,25.39453 V 6.603516 C 9.002,5.166525 10.18875,4.00215 11.65312,4 Z m 4.34489,21.166015 c 0.96871,-0.0017 1.45536,1.147025 0.77109,1.819737 -0.68428,0.672713 -1.85582,0.197273 -1.85582,-0.753331 10e-4,-0.587754 0.48578,-1.064257 1.08473,-1.066406 z M 22,24 V 7 H 10 v 17 z"
       id="path2077-3"
       sodipodi:nodetypes="ccccccccccsccccccc"
       style="color:#d6dbf1;fill:#bac8df;fill-opacity:1;fill-rule:evenodd;stroke-width:0.197164" />
    <path
       d="m 18.999995,15.499973 c 0,1.65768 -1.342351,3.000027 -2.999994,3.000027 -1.656241,0 -2.999994,-1.342347 -2.999994,-3.000027 0,-1.656266 1.343753,-2.999973 2.999994,-2.999973 1.657643,0 2.999994,1.343707 2.999994,2.999973 z"
       id="path72-3-3-6-1"
       style="color:#e5e9ef;fill:#bac8df;fill-opacity:1;stroke-width:0.0357145"
       class="ColorScheme-Text" />
    <path
       d="m 17.000001,15.49999 c 0,0.55256 -0.447451,1.00001 -0.999998,1.00001 -0.552081,0 -0.999998,-0.44745 -0.999998,-1.00001 0,-0.552083 0.447917,-0.99999 0.999998,-0.99999 0.552547,0 0.999998,0.447907 0.999998,0.99999 z"
       id="path72-3-3-6-1-3"
       style="color:#e5e9ef;fill:#1d2030;fill-opacity:1;stroke-width:0.011905"
       class="ColorScheme-Text" />
  </g>
  <g
     id="22-22-phone"
     transform="translate(5.0000013,39)">
    <rect
       style="fill:#000000;fill-opacity:0;stroke:none"
       id="rect3841"
       width="22"
       height="22"
       x="-1.8530272e-07"
       y="0" />
    <path
       class="cls-1  ColorScheme-Text "
       d="M 7.895075,3 H 14.1035 C 15.149383,3.0028 15.996878,3.777775 16,4.735676 V 17.264324 C 15.9969,18.222225 15.149383,18.997848 14.1035,19 H 7.895075 C 6.848547,18.9985 6.000774,18.22152 6,17.263015 V 4.735676 C 6.0016,3.77768 6.849112,3.00143 7.895075,3 Z m 3.103507,14.110678 c 0.691925,-0.0017 1.039539,0.764683 0.550776,1.213155 -0.488765,0.448473 -1.32559,0.131513 -1.325591,-0.502211 0.0011,-0.391838 0.34699,-0.709515 0.774815,-0.710944 z m 4.038944,-1.09189 v -11 h -8 v 11 z"
       id="path2077-3-2"
       sodipodi:nodetypes="ccccccccccsccccccc"
       style="color:#d6dbf1;fill:#bac8df;fill-opacity:1;fill-rule:evenodd;stroke-width:0.136053" />
    <path
       d="m 12.999994,10.49998 c 0,1.10512 -0.894899,2.00002 -1.999996,2.00002 -1.1041611,0 -1.9999941,-0.8949 -1.9999941,-2.00002 0,-1.104173 0.895833,-1.99998 1.9999941,-1.99998 1.105097,0 1.999996,0.895807 1.999996,1.99998 z"
       id="path72-3-3-6-1-6"
       style="color:#e5e9ef;fill:#bac8df;fill-opacity:1;stroke-width:0.0238099"
       class="ColorScheme-Text" />
    <path
       d="m 11.666664,10.49999 c 0,0.36838 -0.298297,0.666676 -0.666664,0.666676 -0.368055,0 -0.666664,-0.298296 -0.666664,-0.666676 0,-0.36805 0.298609,-0.666656 0.666664,-0.666656 0.368367,0 0.666664,0.298606 0.666664,0.666656 z"
       id="path72-3-3-6-1-3-7"
       style="color:#e5e9ef;fill:#1d2030;fill-opacity:1;stroke-width:0.00793676"
       class="ColorScheme-Text" />
  </g>
  <g
     id="phone-battery"
     transform="translate(52.000001)">
    <rect
       style="opacity:0.01;fill:#bac8df;fill-opacity:1;stroke:none"
       id="rect3038"
       y="1.4697265e-07"
       x="-4.3444825e-08"
       ry="0"
       rx="0"
       height="31.999973"
       width="32.000015" />
    <path
       class="cls-1  ColorScheme-Text "
       d="M 11.65312,4 H 20.3449 C 21.80913,4.0032 22.99562,5.166655 23,6.603516 v 18.792967 c -0.004,1.436861 -1.19087,2.600298 -2.6551,2.603516 H 11.65312 C 10.18797,27.997799 9.0011,26.832283 9,25.39453 V 6.603516 C 9.002,5.166525 10.18875,4.00215 11.65312,4 Z m 4.34489,21.166015 c 0.96871,-0.0017 1.45536,1.147025 0.77109,1.819737 -0.68428,0.672713 -1.85582,0.197273 -1.85582,-0.753331 10e-4,-0.587754 0.48578,-1.064257 1.08473,-1.066406 z M 22,24 V 7 H 10 v 17 z"
       id="path2077-3-5"
       sodipodi:nodetypes="ccccccccccsccccccc"
       style="color:#d6dbf1;fill:#bac8df;fill-opacity:1;fill-rule:evenodd;stroke-width:0.197164" />
    <path
       d="m 19.999988,15.49997 c 0,2.21024 -1.789811,4.00003 -3.999994,4.00003 C 13.791673,19.5 12,17.71021 12,15.49997 12,13.291607 13.791673,11.5 15.999994,11.5 c 2.210183,0 3.999994,1.791607 3.999994,3.99997 z"
       id="path72-3-3-6-1-35"
       style="color:#e5e9ef;fill:#bac8df;fill-opacity:1;stroke-width:0.0476188"
       class="ColorScheme-Text" />
    <path
       style="fill:#1d2030;fill-opacity:1;stroke-width:0.623572"
       d="M 15.999996,12 14,16.083331 h 1.999996 V 19 l 2.000006,-4.08333 h -2.000006 z"
       id="path513" />
  </g>
  <g
     id="22-22-phone-battery"
     transform="translate(57.000001,39)">
    <rect
       y="0"
       x="-3.9535522e-08"
       height="22"
       width="22"
       id="rect3054"
       style="fill:#000000;fill-opacity:0;stroke:none" />
    <path
       d="M 13.999988,10.499978 C 13.999988,12.157658 12.657637,13.5 10.999994,13.5 9.343753,13.5 8,12.157658 8,10.499978 8,8.8437051 9.343753,7.5 10.999994,7.5 c 1.657643,0 2.999994,1.3437051 2.999994,2.999978 z"
       id="path72-3-3-6-1-35-2"
       style="color:#e5e9ef;fill:#bac8df;fill-opacity:1;stroke-width:0.0357147"
       class="ColorScheme-Text" />
    <path
       style="fill:#1d2030;fill-opacity:1;stroke-width:0.467673"
       d="M 10.999996,7.875 9.5,10.937499 h 1.499996 V 13.125 l 1.500006,-3.062498 h -1.500006 z"
       id="path513-9" />
    <path
       class="cls-1  ColorScheme-Text "
       d="M 7.895075,3 H 14.1035 C 15.149383,3.0028 15.996878,3.777775 16,4.735676 V 17.264324 C 15.9969,18.222225 15.149383,18.997848 14.1035,19 H 7.895075 C 6.848547,18.9985 6.000774,18.22152 6,17.263015 V 4.735676 C 6.0016,3.77768 6.849112,3.00143 7.895075,3 Z m 3.103507,14.110678 c 0.691925,-0.0017 1.039539,0.764683 0.550776,1.213155 -0.488765,0.448473 -1.32559,0.131513 -1.325591,-0.502211 0.0011,-0.391838 0.34699,-0.709515 0.774815,-0.710944 z m 4.038944,-1.09189 v -11 h -8 v 11 z"
       id="path2077-3-2-1"
       sodipodi:nodetypes="ccccccccccsccccccc"
       style="color:#d6dbf1;fill:#bac8df;fill-opacity:1;fill-rule:evenodd;stroke-width:0.136053" />
  </g>
</svg>
