<?xml version="1.0" encoding="UTF-8" standalone="no"?>
<svg
   width="32"
   height="32"
   version="1.1"
   id="svg12"
   sodipodi:docname="plasmavault_error.svg"
   inkscape:version="1.2.2 (b0a8486541, 2022-12-01)"
   xmlns:inkscape="http://www.inkscape.org/namespaces/inkscape"
   xmlns:sodipodi="http://sodipodi.sourceforge.net/DTD/sodipodi-0.dtd"
   xmlns:xlink="http://www.w3.org/1999/xlink"
   xmlns="http://www.w3.org/2000/svg"
   xmlns:svg="http://www.w3.org/2000/svg"
   xmlns:rdf="http://www.w3.org/1999/02/22-rdf-syntax-ns#"
   xmlns:cc="http://creativecommons.org/ns#"
   xmlns:dc="http://purl.org/dc/elements/1.1/">
  <metadata
     id="metadata18">
    <rdf:RDF>
      <cc:Work
         rdf:about="">
        <dc:format>image/svg+xml</dc:format>
        <dc:type
           rdf:resource="http://purl.org/dc/dcmitype/StillImage" />
      </cc:Work>
    </rdf:RDF>
  </metadata>
  <defs
     id="defs16">
    <linearGradient
       inkscape:collect="always"
       id="linearGradient848">
      <stop
         style="stop-color:#660029;stop-opacity:1"
         offset="0"
         id="stop844" />
      <stop
         style="stop-color:#b20048;stop-opacity:1"
         offset="1"
         id="stop846" />
    </linearGradient>
    <linearGradient
       inkscape:collect="always"
       xlink:href="#linearGradient848"
       id="linearGradient895"
       gradientUnits="userSpaceOnUse"
       gradientTransform="matrix(0.03232332,0,0,0.02930411,3.000002,3.713925)"
       x1="5.575531"
       y1="471.67694"
       x2="237.70486"
       y2="271.28119" />
  </defs>
  <sodipodi:namedview
     pagecolor="#000000"
     bordercolor="#0200f9"
     borderopacity="1"
     objecttolerance="10"
     gridtolerance="10"
     guidetolerance="10"
     inkscape:pageopacity="0"
     inkscape:pageshadow="2"
     inkscape:window-width="1920"
     inkscape:window-height="1002"
     id="namedview14"
     showgrid="true"
     inkscape:zoom="9.8125"
     inkscape:cx="27.974522"
     inkscape:cy="25.22293"
     inkscape:window-x="0"
     inkscape:window-y="0"
     inkscape:window-maximized="1"
     inkscape:current-layer="svg12"
     inkscape:document-rotation="0"
     inkscape:lockguides="false"
     inkscape:pagecheckerboard="true"
     inkscape:showpageshadow="false"
     inkscape:deskcolor="#000000">
    <inkscape:grid
       type="xygrid"
       id="grid971" />
  </sodipodi:namedview>
  <g
     id="plasmavault_error"
     transform="translate(32,9.9999523)">
    <rect
       style="opacity:0.00100002"
       width="32"
       height="32"
       x="-32"
       y="-9.9999523"
       id="rect7" />
    <path
       d="m -6.187405,-1.999952 h -10.99752 c -0.243064,0 -0.455144,-0.01717 -0.607075,-0.242 l -0.820779,-1.083725 c -0.273371,-0.44943 -0.729172,-0.674275 -1.215086,-0.674275 h -5.620279 c -1.397584,0 -2.551856,1.21997 -2.551856,2.69658 v 15.29242 c 0,1.252015 0.972266,2.011 2.187352,2.011 h 9.448144 v 0 0 0 0 0 0 0 h 0.729008 v 0 0 0 0 0 0 0 0 0 H -11 v -1 l 7,-7 v 0 0 -7.677 c 0,-1.6227499 -1,-2.323 -2.187353,-2.323 z m -9.448091,18 v 0 h -0.729008 v 0 0 z M -5,8.000048 h 1 l -7,7 v 0 H -25.81276 C -26.602581,15.000048 -27,14.523325 -27,13.688714 V 8.520163 5.598745 c 0,-0.834619 0.397205,-1.598697 1.187026,-1.598697 H -14.415 c 0.486128,0 0.815329,-0.217495 1.115,-0.616454 l 0.889,-1.183546 c 0.151942,-0.192585 0.311,-0.2 0.311,-0.2 H -6.552344 -5 V 7.878151 Z M -6.552074,1.0081 -12.202731,1 c -0.486128,0 -0.915236,0.183178 -1.215087,0.582 L -14.308,2.766 C -14.429425,2.990826 -14.572135,3 -14.815184,3 H -25.513 C -26.059728,3 -26.604116,2.98451 -27,3.574 V 0.615384 C -27,-0.153846 -26.499996,-1 -25.749996,-1 h 6.000004 0.01609 1.108913 H -17 l 10.842932,0.08162 C -5.367269,-0.91248 -5,-0.212117 -5,0.622501 v 0.377495 l -1.952,0.0079 z"
       id="path64-7"
       sodipodi:nodetypes="csccssssscccccccccccccccccccccccsccccccccccccssccsssccscscccsccscccccccssccc"
       style="fill:#dc3545;fill-opacity:1;stroke-width:0.0557669" />
    <path
       d="m -2.851744,13.255157 h -0.251738 l -0.0011,-1.094217 c -0.0019,-1.192 -1.113236,-2.161781 -2.479944,-2.160891 -1.366705,10e-4 -2.478618,0.970669 -2.477592,2.162665 l 0.0017,1.094225 h -0.08964 c -0.469789,0.001 -0.850975,0.333333 -0.849948,0.74311 v 3.257779 c 3.43e-4,0.409779 0.382519,0.74222 0.852363,0.74222 l 5.297642,-0.003 c 0.469832,0 0.851008,-0.332443 0.849999,-0.742225 v -3.258564 c 0,-0.409773 -0.382203,-0.741329 -0.852034,-0.741329 z m -4.294778,0.0019 -0.0017,-1.094221 c 0,-0.752888 0.701184,-1.365334 1.564419,-1.366221 0.863234,0 1.565447,0.612442 1.565447,1.364442 l 0.002,1.094226 z"
       id="path2-3-3-5"
       style="fill:#dc3545;fill-opacity:1;stroke-width:0.0951819" />
  </g>
  <g
     id="22-22-plasmavault_error"
     transform="translate(32,9.9999523)">
    <rect
       style="opacity:0.00100002;fill:#da4453;fill-opacity:1"
       width="22"
       height="22"
       x="0"
       y="0"
       id="rect2" />
    <path
       d="M 17.541737,5 H 10.41 10 L 9.558,4.471989 C 9.2,4 8.772035,4 8.448101,4 H 4.70124 C 3.769513,4 3,4.85398 3,5.887608 V 16.1 c 0,1 0.7,1.9 1.7,1.9 h 6.057002 v 0 0 0 0 0 0 0 h 0.486005 v 0 0 0 0 0 0 0 0 0 H 15 v -1 l 4,-4 V 13 12 6 C 19,5 18,5 17.541773,5 Z m -6.29873,13 v 0 h -0.486005 v 0 0 z M 19,13 v 0 l -4,4 v 0 H 5 C 4,17 4,16 4,16 v -3 -3 h 1 7 c 0.324086,0 0.600228,-0.552246 0.800005,-0.831517 L 13.392677,8.34 C 13.493974,8.205188 13.600009,8 13.600009,8 H 17 18 v 5 z M 17.29862,7 h -3.767105 c -0.324078,0 -0.610159,0.62814 -0.810056,0.907315 l -0.593455,0.8288 C 12.047044,8.893495 11.951913,9 11.789881,9 H 5 4 V 7 6 H 8.500011 8.510841 9.25011 10.33343 18 v 1 0 h -0.967904 z"
       id="path64-7-7"
       sodipodi:nodetypes="ccccssssscccccccccccccccccccccccsccccccccccccsccccssccscscccsccccccccccccccc"
       style="fill:#dc3545;fill-opacity:1;stroke-width:0.0380957" />
    <path
       d="m 19.513233,16.034441 h -0.14385 l -0.0012,-0.683883 C 19.366283,14.605557 18.732047,13.999443 17.951071,14 c -0.78099,6.26e-4 -1.416374,0.60667 -1.415786,1.351667 l 0.0017,0.683889 h -0.0512 c -0.268549,6.24e-4 -0.486363,0.208332 -0.485784,0.464442 v 2.036109 C 16.00016,18.792222 16.218548,19 16.487031,19 l 3.02725,-0.0021 c 0.268475,0 0.486298,-0.207777 0.485718,-0.46389 v -2.036552 c 0,-0.256106 -0.218406,-0.463331 -0.486886,-0.463331 z m -2.454182,0.0013 -0.0017,-0.683887 c 0,-0.470556 0.400682,-0.853335 0.893961,-0.853887 0.493286,0 0.894554,0.382775 0.894554,0.852776 l 0.002,0.683891 z"
       id="path2-3-3-5-5"
       style="fill:#dc3545;fill-opacity:1;stroke-width:0.0568818" />
  </g>
</svg>
