<?xml version="1.0" encoding="UTF-8" standalone="no"?>
<svg
   width="32"
   height="32"
   version="1.1"
   id="svg12"
   sodipodi:docname="plasmavault.svg"
   inkscape:version="1.2.2 (b0a8486541, 2022-12-01)"
   xmlns:inkscape="http://www.inkscape.org/namespaces/inkscape"
   xmlns:sodipodi="http://sodipodi.sourceforge.net/DTD/sodipodi-0.dtd"
   xmlns:xlink="http://www.w3.org/1999/xlink"
   xmlns="http://www.w3.org/2000/svg"
   xmlns:svg="http://www.w3.org/2000/svg"
   xmlns:rdf="http://www.w3.org/1999/02/22-rdf-syntax-ns#"
   xmlns:cc="http://creativecommons.org/ns#"
   xmlns:dc="http://purl.org/dc/elements/1.1/">
  <g
     id="22-22-plasmavault"
     transform="translate(32,10)">
    <rect
       style="opacity:0.00100002"
       width="22"
       height="22"
       x="0"
       y="0"
       id="rect2" />
    <path
       d="M 17.541737,5 H 10.41 10 L 9.558,4.4719891 C 9.2,4 8.7720351,4 8.4481009,4 H 4.7012405 C 3.7695128,4 3,4.8539795 3,5.8876078 V 16.1 c 0,1 0.7,1.9 1.7,1.9 h 6.057002 v 0 0 0 0 0 0 0 h 0.486005 v 0 0 0 0 0 0 0 0 0 H 15 v -1 l 4,-4 V 13 12 6 C 19,5 18,5 17.541773,5 Z m -6.29873,13 v 0 h -0.486005 v 0 0 z M 19,13 v 0 l -4,4 v 0 H 5 C 4,17 4,16 4,16 v -3 -3 h 1 7 c 0.324086,0 0.600228,-0.5522459 0.800005,-0.8315173 L 13.392677,8.3399996 C 13.493974,8.205188 13.600009,8 13.600009,8 H 17 18 v 5 z M 17.29862,7 H 13.531515 C 13.207437,7 12.921356,7.6281401 12.721459,7.9073146 L 12.128004,8.7361154 C 12.047044,8.8934946 11.951913,9 11.789881,9 H 5 4 V 7 6 H 8.5000112 8.5108452 9.2501143 10.33343 18 v 1 0 h -0.967904 z"
       id="path64-7-7"
       sodipodi:nodetypes="ccccssssscccccccccccccccccccccccsccccccccccccsccccssccscscccsccccccccccccccc"
       style="fill:#bac8df;fill-opacity:1;stroke-width:0.0380957" />
    <path
       d="m 19.513233,16.034441 h -0.14385 l -0.0012,-0.683883 C 19.366283,14.605557 18.732047,13.999443 17.951071,14 c -0.78099,6.26e-4 -1.416374,0.60667 -1.415786,1.351667 l 0.0017,0.683889 h -0.0512 c -0.268549,6.24e-4 -0.486363,0.208332 -0.485784,0.464442 v 2.036109 C 16.00016,18.792222 16.218548,19 16.487031,19 l 3.02725,-0.0021 c 0.268475,0 0.486298,-0.207777 0.485718,-0.46389 v -2.036552 c 0,-0.256106 -0.218406,-0.463331 -0.486886,-0.463331 z m -2.454182,0.0013 -0.0017,-0.683887 c 0,-0.470556 0.400682,-0.853335 0.893961,-0.853887 0.493286,0 0.894554,0.382775 0.894554,0.852776 l 0.002,0.683891 z"
       id="path2-3-3-5-5"
       style="fill:#bac8df;fill-opacity:1;stroke-width:0.0568818" />
  </g>
  <g
     id="plasmavault">
    <rect
       style="opacity:0.00100002"
       width="32"
       height="32"
       x="0"
       y="0"
       id="rect7" />
    <path
       d="M 25.812595,8 H 14.815075 C 14.572011,8 14.359931,7.98283 14.208,7.758 L 13.387221,6.674275 C 13.11385,6.224845 12.658049,6 12.172135,6 H 6.551856 C 5.154272,6 4,7.21997 4,8.69658 V 23.989 C 4,25.241015 4.972266,26 6.187352,26 h 9.448144 v 0 0 0 0 0 0 0 h 0.729008 v 0 0 0 0 0 0 0 0 0 H 21 v -1 l 7,-7 v 0 0 -7.677 C 28,8.7002501 27,8 25.812647,8 Z m -9.448091,18 v 0 h -0.729008 v 0 0 z M 27,18 h 1 l -7,7 v 0 H 6.18724 C 5.397419,25 5,24.523277 5,23.688666 V 18.520115 15.598697 C 5,14.764078 5.397205,14 6.187026,14 H 17.585 c 0.486128,0 0.815329,-0.217495 1.115,-0.616454 L 19.589,12.2 C 19.740942,12.007415 19.9,12 19.9,12 H 25.447656 27 v 5.878103 z m -1.552074,-6.991948 -5.650657,-0.0081 c -0.486128,0 -0.915236,0.183178 -1.215087,0.582 l -0.890182,1.184 c -0.121425,0.224826 -0.264135,0.234 -0.507184,0.234 H 6.487 c -0.546728,0 -1.091116,-0.01549 -1.487,0.574 V 10.615336 C 5,9.846106 5.500004,8.999952 6.250004,8.999952 h 6.000004 0.01609 1.108913 H 15 l 10.842932,0.08162 C 26.632731,9.087472 27,9.787835 27,10.622453 v 0.377495 l -1.952,0.0079 z"
       id="path64-7"
       sodipodi:nodetypes="csccssssscccccccccccccccccccccccsccccccccccccssccsssccscscccsccscccccccssccc"
       style="fill:#bac8df;fill-opacity:1;stroke-width:0.0557669" />
    <path
       d="m 29.148256,23.255109 h -0.251738 l -0.0011,-1.094217 c -0.0019,-1.192 -1.113236,-2.161781 -2.479944,-2.160891 -1.366705,10e-4 -2.478618,0.970669 -2.477592,2.162665 l 0.0017,1.094225 h -0.08964 c -0.469789,0.001 -0.850975,0.333333 -0.849948,0.74311 V 27.25778 C 23.000337,27.667559 23.382513,28 23.852357,28 l 5.297642,-0.003 c 0.469832,0 0.851008,-0.332443 0.849999,-0.742225 v -3.258564 c 0,-0.409773 -0.382203,-0.741329 -0.852034,-0.741329 z m -4.294778,0.0019 -0.0017,-1.094221 c 0,-0.752888 0.701184,-1.365334 1.564419,-1.366221 0.863234,0 1.565447,0.612442 1.565447,1.364442 l 0.002,1.094226 z"
       id="path2-3-3-5"
       style="fill:#bac8df;fill-opacity:1;stroke-width:0.0951819" />
  </g>
  <metadata
     id="metadata18">
    <rdf:RDF>
      <cc:Work
         rdf:about="">
        <dc:format>image/svg+xml</dc:format>
        <dc:type
           rdf:resource="http://purl.org/dc/dcmitype/StillImage" />
      </cc:Work>
    </rdf:RDF>
  </metadata>
  <defs
     id="defs16">
    <linearGradient
       inkscape:collect="always"
       id="linearGradient848">
      <stop
         style="stop-color:#660029;stop-opacity:1"
         offset="0"
         id="stop844" />
      <stop
         style="stop-color:#b20048;stop-opacity:1"
         offset="1"
         id="stop846" />
    </linearGradient>
    <linearGradient
       inkscape:collect="always"
       xlink:href="#linearGradient848"
       id="linearGradient895"
       gradientUnits="userSpaceOnUse"
       gradientTransform="matrix(0.03232332,0,0,0.02930411,3.000002,3.713925)"
       x1="5.575531"
       y1="471.67694"
       x2="237.70486"
       y2="271.28119" />
  </defs>
  <sodipodi:namedview
     pagecolor="#000000"
     bordercolor="#1514ff"
     borderopacity="1"
     objecttolerance="10"
     gridtolerance="10"
     guidetolerance="10"
     inkscape:pageopacity="0"
     inkscape:pageshadow="2"
     inkscape:window-width="1920"
     inkscape:window-height="1002"
     id="namedview14"
     showgrid="true"
     inkscape:zoom="9.8125"
     inkscape:cx="26.853503"
     inkscape:cy="16.152866"
     inkscape:window-x="0"
     inkscape:window-y="0"
     inkscape:window-maximized="1"
     inkscape:current-layer="svg12"
     inkscape:document-rotation="0"
     inkscape:lockguides="true"
     inkscape:pagecheckerboard="true"
     inkscape:showpageshadow="false"
     inkscape:deskcolor="#000000">
    <inkscape:grid
       type="xygrid"
       id="grid868"
       originx="0"
       originy="0" />
  </sodipodi:namedview>
</svg>
