<?xml version="1.0" encoding="UTF-8" standalone="no"?>
<svg
   width="22"
   height="22"
   version="1.1"
   id="svg12"
   sodipodi:docname="telegram.svg"
   inkscape:version="1.3.2 (091e20ef0f, 2023-11-25)"
   xmlns:inkscape="http://www.inkscape.org/namespaces/inkscape"
   xmlns:sodipodi="http://sodipodi.sourceforge.net/DTD/sodipodi-0.dtd"
   xmlns="http://www.w3.org/2000/svg"
   xmlns:svg="http://www.w3.org/2000/svg"
   xmlns:rdf="http://www.w3.org/1999/02/22-rdf-syntax-ns#"
   xmlns:cc="http://creativecommons.org/ns#"
   xmlns:dc="http://purl.org/dc/elements/1.1/">
  <style
     type="text/css"
     id="current-color-scheme">
.ColorScheme-Text {
    color:#eff0f1;
}
</style>
  <metadata
     id="metadata18">
    <rdf:RDF>
      <cc:Work
         rdf:about="">
        <dc:format>image/svg+xml</dc:format>
        <dc:type
           rdf:resource="http://purl.org/dc/dcmitype/StillImage" />
      </cc:Work>
    </rdf:RDF>
  </metadata>
  <defs
     id="defs16" />
  <sodipodi:namedview
     pagecolor="#000000"
     bordercolor="#001fff"
     borderopacity="1"
     objecttolerance="10"
     gridtolerance="10"
     guidetolerance="10"
     inkscape:pageopacity="0"
     inkscape:pageshadow="2"
     inkscape:window-width="1920"
     inkscape:window-height="994"
     id="namedview14"
     showgrid="true"
     inkscape:zoom="9.9124993"
     inkscape:cx="10.794452"
     inkscape:cy="17.503154"
     inkscape:window-x="0"
     inkscape:window-y="0"
     inkscape:window-maximized="1"
     inkscape:current-layer="svg12"
     inkscape:document-rotation="0"
     inkscape:pagecheckerboard="true"
     inkscape:lockguides="true"
     inkscape:showpageshadow="false"
     inkscape:deskcolor="#000000">
    <inkscape:grid
       type="xygrid"
       id="grid833"
       originx="-10"
       originy="-10"
       spacingy="1"
       spacingx="1"
       units="px"
       visible="true" />
  </sodipodi:namedview>
  <g
     id="telegram-panel"
     transform="translate(-22)">
    <rect
       style="opacity:0.00100002"
       width="22"
       height="22"
       x="0"
       y="0"
       id="rect2-1" />
    <path
       class="ColorScheme-Text "
       d="m 18.571657,3.0021321 c -0.218878,0.015606 -0.434431,0.066869 -0.637758,0.1525141 h -0.002 c -0.195285,0.076807 -1.121925,0.467565 -2.53077,1.0598055 L 10.352525,6.345197 C 6.7303926,7.8725626 3.1693771,9.3776649 3.1693771,9.3776649 l 0.042229,-0.01666 c 0,0 -0.2455493,0.081321 -0.502209,0.2571613 -0.1577727,0.1013009 -0.2944369,0.2337866 -0.3999887,0.3885228 -0.1266628,0.184799 -0.2277721,0.468672 -0.1899944,0.760343 0.062219,0.495398 0.3822114,0.791516 0.6110938,0.95516 0.2333284,0.165874 0.4544321,0.243801 0.4544321,0.243801 h 0.00549 l 3.3398747,1.126604 c 0.1488832,0.48203 1.0177502,3.340836 1.2255221,3.999876 0.1233295,0.392969 0.243326,0.638994 0.3933232,0.827136 0.072221,0.09577 0.1566621,0.175891 0.2588814,0.240457 0.053341,0.03003 0.1088828,0.05456 0.1677734,0.07242 l -0.033328,-0.008 c 0.010041,0.0037 0.017789,0.01081 0.025551,0.01448 0.027773,0.0081 0.04556,0.0096 0.081118,0.0155 0.5277466,0.160258 0.9532899,-0.168144 0.9532899,-0.168144 l 0.023301,-0.02005 1.9721674,-1.797872 3.304356,2.539295 0.07558,0.03231 c 0.687766,0.302802 1.385519,0.134694 1.754397,-0.162537 0.371109,-0.29946 0.515548,-0.682415 0.515548,-0.682415 l 0.02448,-0.06241 2.553263,-13.1073017 c 0.0722,-0.3242356 0.09099,-0.6270433 0.01078,-0.9209418 C 19.754421,3.6061829 19.56327,3.3501399 19.302171,3.1864952 19.083286,3.0529071 18.828851,2.9883291 18.572189,3.0016972 Z m -0.06885,1.4037988 c -0.002,0.043359 0.0062,0.038927 -0.01338,0.1213406 v 0.0068 L 15.959616,17.505528 c -0.0108,0.01892 -0.02885,0.05901 -0.07995,0.0991 -0.05351,0.04232 -0.09553,0.06902 -0.317769,-0.01891 L 11.519818,14.480883 9.0787717,16.710703 9.5909806,13.42887 16.19525,7.2615115 c 0.272221,-0.2538229 0.18111,-0.307255 0.18111,-0.307255 0.0189,-0.310601 -0.411101,-0.091262 -0.411101,-0.091262 L 7.6377015,12.031768 7.635542,12.018429 3.6445367,10.671402 v -0.0017 l -0.01005,-0.0018 c 0.0067,-0.0018 0.013338,-0.0046 0.01999,-0.0072 l 0.02223,-0.01129 0.0211,-0.0072 c 0,0 3.5632394,-1.5051015 7.1864793,-3.0324707 1.813293,-0.7658642 3.64102,-1.5362241 5.046538,-2.1318087 0.833309,-0.3506721 1.667735,-0.7002322 2.503259,-1.0475573 0.05557,-0.022304 0.02886,-0.022304 0.06886,-0.022304 z"
       id="path22-2-6"
       style="isolation:isolate;fill:#bac8df;fill-opacity:1;stroke-width:1.22831" />
  </g>
  <g
     id="telegram-mute-panel"
     transform="translate(22)">
    <rect
       style="opacity:0.00100002"
       width="22"
       height="22"
       x="-22"
       y="0"
       id="rect2-8" />
    <path
       class="ColorScheme-Text"
       d="m -3.4280266,3.0019862 c -0.2188873,0.015609 -0.4344477,0.06687 -0.6377844,0.1525204 h -0.0018 c -0.1953343,0.07681 -1.12201,0.4675841 -2.5309136,1.059849 l -5.0489864,2.1308335 c -3.62228,1.5274289 -7.183445,3.0325935 -7.183445,3.0325935 l 0.04225,-0.01666 c 0,0 -0.245557,0.081326 -0.502231,0.2571718 -0.157778,0.1013028 -0.294447,0.233794 -0.400005,0.3885356 -0.126668,0.184808 -0.22778,0.468694 -0.189999,0.760378 0.0622,0.495416 0.382225,0.791549 0.611114,0.955201 0.233339,0.165878 0.454451,0.243808 0.454451,0.243808 h 0.0055 l 3.340015,1.126653 c 0.148889,0.482048 1.017792,3.340973 1.225573,4.000039 0.123333,0.392986 0.243335,0.639023 0.39334,0.827171 0.07225,0.09577 0.156668,0.175897 0.258891,0.240465 0.05335,0.03005 0.108888,0.05456 0.167781,0.07241 l -0.03329,-0.0084 c 0.01006,0.0037 0.01781,0.01082 0.02555,0.01448 0.02779,0.0083 0.04557,0.0098 0.08112,0.01555 0.52777,0.160307 0.95333,-0.168111 0.95333,-0.168111 l 0.02332,-0.02008 1.972245,-1.797946 3.3044921,2.539398 0.07554,0.03231 c 0.6877919,0.302818 1.3855758,0.134706 1.7544689,-0.16254 0.3711272,-0.299476 0.5155706,-0.682447 0.5155706,-0.682447 l 0.024466,-0.06236 2.5533707,-13.1078472 c 0.072157,-0.3241037 0.09098,-0.6269238 0.010754,-0.9208346 C -2.2452104,3.6060473 -2.4363652,3.3499937 -2.6974749,3.1863422 -2.9163684,3.0527486 -3.1708151,2.9881679 -3.4274873,3.0015366 Z m -0.068844,1.4038566 c -0.0018,0.04336 0.00559,0.038927 -0.013326,0.1213455 v 0.0068 L -6.0401657,17.505993 c -0.010835,0.01892 -0.028844,0.05901 -0.079956,0.0991 -0.05346,0.0423 -0.095556,0.06902 -0.3177829,-0.01891 l -4.0422504,-3.104937 -2.441149,2.229913 0.512235,-3.281968 6.6045381,-6.1676136 c 0.272227,-0.2538428 0.1811128,-0.3072769 0.1811128,-0.3072769 0.018917,-0.310614 -0.4111159,-0.091266 -0.4111159,-0.091266 l -8.327901,5.1689885 -0.0024,-0.01332 -3.99117,-1.347085 v -0.0017 l -0.01006,-0.0018 c 0.0069,-0.0018 0.01334,-0.0045 0.02001,-0.007 l 0.02221,-0.0113 0.02114,-0.007 c 0,0 3.563387,-1.5051622 7.186773,-3.0325945 1.8133636,-0.7659222 3.6411681,-1.536314 5.0467447,-2.1319232 0.8333435,-0.350687 1.6678035,-0.7002612 2.503362,-1.0476007 0.055602,-0.022304 0.028854,-0.022304 0.068854,-0.022304 z"
       id="path22-2"
       style="isolation:isolate;fill:#bac8df;fill-opacity:0.5;stroke-width:1.22837" />
    <path
       d="M -1.500008,13.999991 C -1.500008,15.65766 -2.842362,17 -4.500005,17 -6.156258,17.000001 -7.5,15.65766 -7.5,13.999991 -7.5,12.343739 -6.156258,11 -4.500005,11 c 1.657642,0 2.999997,1.343739 2.999997,2.999991 z"
       id="path72-3"
       style="fill:#d3dae3;fill-opacity:0.49803922;stroke-width:0.0357141" />
    <path
       d="m -3.7500045,13.999996 c 0,0.414414 -0.3355815,0.750004 -0.75,0.750004 C -4.914066,14.750001 -5.25,14.41441 -5.25,13.999996 -5.25,13.58593 -4.914066,13.25 -4.5000045,13.25 c 0.4144185,0 0.75,0.33593 0.75,0.749996 z"
       id="path72-3-2"
       style="fill:#000000;fill-opacity:0.50123167;stroke-width:0.00892875" />
    <path
       d="m -5.500006,13.999996 c 0,0.414414 -0.3355815,0.750004 -0.75,0.750004 C -6.6640675,14.750001 -7,14.41441 -7,13.999996 -7,13.58593 -6.6640675,13.25 -6.250006,13.25 c 0.4144185,0 0.75,0.33593 0.75,0.749996 z"
       id="path72-3-2-4"
       style="fill:#000000;fill-opacity:0.5;stroke-width:0.00892875" />
    <path
       d="m -2.0000075,13.999996 c 0,0.414414 -0.3355815,0.750004 -0.75,0.750004 C -3.1640675,14.750001 -3.5,14.41441 -3.5,13.999996 -3.5,13.58593 -3.1640675,13.25 -2.7500075,13.25 c 0.4144185,0 0.75,0.33593 0.75,0.749996 z"
       id="path72-3-2-2"
       style="fill:#010101;fill-opacity:0.5;stroke-width:0.00892875" />
  </g>
  <g
     id="telegram-attention-panel"
     transform="translate(22)">
    <rect
       style="opacity:0.00100002"
       width="22"
       height="22"
       x="0"
       y="0"
       id="rect2" />
    <path
       class="ColorScheme-Text"
       d="m 18.571889,3.0020454 c -0.218887,0.01561 -0.434443,0.06687 -0.637782,0.1525199 h -0.002 c -0.195318,0.07681 -1.121991,0.4675826 -2.530891,1.0598461 L 10.352436,6.345238 C 6.7301744,7.872662 3.1690222,9.3778219 3.1690222,9.3778219 l 0.04223,-0.01666 c 0,0 -0.2455581,0.081325 -0.5022278,0.257171 -0.1577786,0.1013048 -0.2944476,0.2337956 -0.4000036,0.3885371 -0.126668,0.184807 -0.227781,0.468691 -0.1900019,0.760372 0.06222,0.495416 0.3822259,0.791545 0.6111174,0.955201 0.233337,0.165875 0.4544497,0.243805 0.4544497,0.243805 h 0.00544 l 3.3400058,1.126645 c 0.1488892,0.482053 1.0177895,3.340966 1.2255694,4.000031 0.1233342,0.392986 0.2433355,0.639019 0.3933384,0.827169 0.072224,0.09577 0.1566679,0.175897 0.2588911,0.240465 0.053344,0.03003 0.108887,0.05456 0.1677799,0.07239 l -0.033326,-0.0084 c 0.010042,0.0037 0.01779,0.01084 0.025556,0.01448 0.027776,0.0082 0.045561,0.0098 0.08112,0.01555 0.52777,0.160306 0.9533298,-0.168112 0.9533298,-0.168112 l 0.023306,-0.02008 1.9722406,-1.79794 3.304484,2.53939 0.07557,0.03231 c 0.68779,0.302816 1.385572,0.134705 1.754464,-0.16254 0.371127,-0.299474 0.515572,-0.682445 0.515572,-0.682445 l 0.02444,-0.06235 2.553357,-13.107846 c 0.07222,-0.3241065 0.09104,-0.6269258 0.01082,-0.9208356 C 19.754693,3.6060564 19.563538,3.3500035 19.30243,3.1863526 19.083537,3.0527594 18.829088,2.988179 18.572421,3.0015476 Z m -0.06885,1.4038521 c -0.002,0.04336 0.0057,0.038927 -0.01333,0.1213456 v 0.00679 L 15.959755,17.506004 c -0.01081,0.01891 -0.02885,0.05901 -0.07995,0.0991 -0.05346,0.0423 -0.09557,0.06902 -0.317783,-0.01891 l -4.042237,-3.104963 -2.44114,2.229902 0.5122275,-3.281957 6.6045225,-6.167594 c 0.272227,-0.2538288 0.181114,-0.3072626 0.181114,-0.3072626 0.01891,-0.3106133 -0.411115,-0.091266 -0.411115,-0.091266 l -8.3278772,5.1689736 -0.00213,-0.01332 -3.9911579,-1.347079 v -0.0017 l -0.01005,-0.0018 c 0.0067,-0.0018 0.013334,-0.0045 0.01999,-0.007 l 0.02223,-0.0113 0.0211,-0.007 c 0,0 3.5633763,-1.5051578 7.1867531,-3.0325855 1.813356,-0.7659187 3.641157,-1.5363087 5.046731,-2.1319158 0.833341,-0.3506861 1.667797,-0.7002591 2.503355,-1.0475973 0.05557,-0.022304 0.02886,-0.022304 0.06886,-0.022304 z"
       id="path22"
       style="isolation:isolate;fill:#bac8df;fill-opacity:1;stroke-width:1.22836" />
    <path
       d="M 20.499993,13.999991 C 20.499993,15.65766 19.157638,17 17.499996,17 15.843742,17.000001 14.5,15.65766 14.5,13.999991 14.5,12.343739 15.843742,11 17.499996,11 c 1.657642,0 2.999997,1.343739 2.999997,2.999991 z"
       id="path72-3-6"
       style="fill:#00aa7f;fill-opacity:1;stroke-width:0.0357141" />
    <path
       id="path4166"
       d="m 19,12.1 1,1 -3,3 -2,-2 1,-1 1,1 z"
       class="ColorScheme-Background"
       style="color:#eff0f1;fill:#d3dae3;fill-opacity:1" />
  </g>
</svg>
