<?xml version="1.0" encoding="UTF-8" standalone="no"?>
<svg
   id="svg4153"
   version="1.1"
   viewBox="0 0 64 64"
   sodipodi:docname="user.svg"
   inkscape:version="1.2.2 (b0a8486541, 2022-12-01)"
   width="64"
   height="64"
   xmlns:inkscape="http://www.inkscape.org/namespaces/inkscape"
   xmlns:sodipodi="http://sodipodi.sourceforge.net/DTD/sodipodi-0.dtd"
   xmlns="http://www.w3.org/2000/svg"
   xmlns:svg="http://www.w3.org/2000/svg">
  <g
     id="48-48-user-desktop"
     transform="translate(-58,16)">
    <path
       id="rect846"
       d="M 0,0 H 48 V 48 H 0 Z"
       fill="none" />
    <path
       d="M 3,39.299984 V 8.7 C 3,6.97434 3.886469,6 5.8995,6 H 41.950499 C 43.963531,6 45,6.97434 45,8.7 v 30.599984 c 0,1.725646 -1.036469,2.7 -3.049501,2.7 H 6.054 C 4.03608,42.004484 3,41.02563 3,39.299984 Z M 43.5,9.3084 C 43.5,7.8 43.08744,7.5 41.8005,7.5 H 6.204 C 4.772849,7.5 4.5,7.8 4.5,9.1284 v 29.383199 c 0,1.688385 0.289785,1.9884 1.704,1.9884 h 35.8965 c 0.933226,0 1.3995,-0.300015 1.3995,-1.9884 z"
       id="path2-7-0"
       style="color:#d6dbf1;fill:#bac8df;fill-opacity:1;stroke-width:0.452385;enable-background:new"
       sodipodi:nodetypes="ssssssscssssssssss"
       class="ColorScheme-Text" />
    <path
       d="m 4.5,37.574999 h 39 v 0 V 34.575 h -39 v 0 z"
       id="path2653-4-5-2"
       style="fill:#bac8df;fill-opacity:1;stroke-width:0.742308"
       sodipodi:nodetypes="ccccccc" />
    <path
       d="m 14.25,15.075 c 0,1.657665 -1.342351,3.000015 -3,3.000015 -1.65624,0 -2.999985,-1.34235 -2.999985,-3.000015 0,-1.656255 1.343745,-2.999985 2.999985,-2.999985 1.657651,0 3,1.34373 3,2.999985 z"
       id="path72-3-3-3"
       style="color:#e5e9ef;fill:#bac8df;fill-opacity:1;stroke-width:0.0357147"
       class="ColorScheme-Text" />
    <path
       d="m 14.25,27.075 c 0,1.657666 -1.342351,3.000015 -3,3.000015 -1.656255,0 -2.999985,-1.342349 -2.999985,-3.000015 0,-1.656254 1.34373,-2.999985 2.999985,-2.999985 1.657651,0 3,1.343731 3,2.999985 z"
       id="path72-3-6-5-7"
       style="color:#e5e9ef;fill:#bac8df;fill-opacity:1;stroke-width:0.0357147"
       class="ColorScheme-Text" />
  </g>
  <defs
     id="defs62" />
  <sodipodi:namedview
     id="namedview60"
     pagecolor="#000000"
     bordercolor="#000bf4"
     borderopacity="1"
     inkscape:showpageshadow="false"
     inkscape:pageopacity="0"
     inkscape:pagecheckerboard="true"
     inkscape:deskcolor="#000000"
     showgrid="true"
     inkscape:zoom="2.6818182"
     inkscape:cx="19.20339"
     inkscape:cy="91.542372"
     inkscape:window-width="1920"
     inkscape:window-height="1002"
     inkscape:window-x="0"
     inkscape:window-y="0"
     inkscape:window-maximized="1"
     inkscape:current-layer="svg4153">
    <inkscape:grid
       type="xygrid"
       id="grid1299"
       originx="0"
       originy="0" />
  </sodipodi:namedview>
  <style
     id="current-color-scheme"
     type="text/css">.ColorScheme-Text { color:#d1d5e9; }
.ColorScheme-Background { color:#eff0f1; }
</style>
  <g
     id="user-away"
     transform="translate(160,32)">
    <path
       id="rect4562"
       d="m -44,0 h 22 v 22 h -22 z"
       fill="none"
       opacity="0.97" />
    <path
       id="path4149"
       d="m -33,2.99961 a 3.9999902,4.0000296 0 0 0 -4,4 3.9999902,4.0000296 0 0 0 4,4 3.9999902,4.0000296 0 0 0 4,-4 3.9999902,4.0000296 0 0 0 -4,-4 z m 0,1 a 3,3.0000296 0 0 1 3,3 3,3.0000296 0 0 1 -3,3 3,3.0000296 0 0 1 -3,-3 3,3.0000296 0 0 1 3,-3 z"
       fill="#fdbc4b" />
    <path
       id="ellipse4156"
       d="m -33,12 a 7.9999504,8.0000296 0 0 0 -7.927734,7 h 1.007812 A 6.9999604,7.0000296 0 0 1 -33,13 a 6.9999604,7.0000296 0 0 1 1,0.08008 V 12.070314 A 7.9999504,8.0000296 0 0 0 -33,12 Z"
       fill="#fdbc4b" />
    <path
       id="path4227"
       d="m -25,11 -8,4 2,1 1,3 1,-2 2,1 z"
       fill="#fdbc4b"
       fill-rule="evenodd" />
  </g>
  <g
     id="user-busy"
     transform="translate(160,32)">
    <path
       id="rect4560"
       d="m -66,0 h 22 v 22 h -22 z"
       fill="none"
       opacity="0.97" />
    <path
       id="path4149-4"
       d="m -55,2.99961 a 3.9999902,4.0000296 0 0 0 -4,4 3.9999902,4.0000296 0 0 0 4,4 3.9999902,4.0000296 0 0 0 4,-4 3.9999902,4.0000296 0 0 0 -4,-4 z m 0,1 a 3,3.0000296 0 0 1 3,3 3,3.0000296 0 0 1 -3,3 3,3.0000296 0 0 1 -3,-3 3,3.0000296 0 0 1 3,-3 z"
       fill="#f47750" />
    <path
       id="ellipse4156-7"
       d="m -55,12 a 7.9999504,8.0000296 0 0 0 -7.927734,7 h 1.007812 A 6.9999604,7.0000296 0 0 1 -55,13 a 6.9999604,7.0000296 0 0 1 1,0.08008 V 12.070314 A 7.9999504,8.0000296 0 0 0 -55,12 Z"
       fill="#f47750" />
    <path
       id="path4169"
       d="M -50.5,12 A 3.5,3.5 0 0 0 -54,15.5 3.5,3.5 0 0 0 -50.5,19 3.5,3.5 0 0 0 -47,15.5 3.5,3.5 0 0 0 -50.5,12 Z"
       fill="#f47750" />
    <path
       id="rect4146"
       d="m -51,13 v 3 h 2 v -1 h -1 v -2 z"
       fill="currentColor" />
  </g>
  <g
     id="user-invisible"
     transform="translate(160,32)">
    <path
       id="rect4556"
       d="M 22,0 H 44 V 22 H 22 Z"
       fill="none"
       opacity="0.97" />
    <path
       id="path4149-7"
       d="m 33,2.99961 a 3.9999902,4.0000296 0 0 0 -4,4 3.9999902,4.0000296 0 0 0 4,4 3.9999902,4.0000296 0 0 0 4,-4 3.9999902,4.0000296 0 0 0 -4,-4 z m 0,1 a 3,3.0000296 0 0 1 3,3 3,3.0000296 0 0 1 -3,3 3,3.0000296 0 0 1 -3,-3 3,3.0000296 0 0 1 3,-3 z"
       style="fill:#bac8df;fill-opacity:1"
       class="ColorScheme-Text" />
    <path
       id="ellipse4156-0"
       d="m 33,12 a 7.9999504,8.0000296 0 0 0 -7.927734,7 h 1.007812 A 6.9999604,7.0000296 0 0 1 33,13 6.9999604,7.0000296 0 0 1 34,13.08008 V 12.070314 A 7.9999504,8.0000296 0 0 0 33,12 Z"
       style="fill:#bac8df;fill-opacity:1"
       class="ColorScheme-Text" />
    <circle
       id="path4167"
       cx="37.500004"
       cy="15.5"
       r="3.5"
       fill="#666666" />
    <path
       id="rect4152"
       transform="rotate(45)"
       d="m 36.976669,-17.884859 h 1 v 4.657 h -1 z"
       fill="currentColor"
       style="fill:#d1d5e9;fill-opacity:1" />
  </g>
  <g
     id="user-offline"
     transform="translate(160,32)">
    <path
       id="rect4564"
       d="M -22,0 H 0 v 22 h -22 z"
       fill="none"
       opacity="0.97" />
    <ellipse
       id="path4146"
       cx="-6.4999962"
       cy="15.5"
       rx="3.250001"
       ry="3.2499859"
       fill="currentColor" />
    <path
       id="path4149-3"
       d="m -11,2.99961 a 3.9999902,4.0000296 0 0 0 -4,4 3.9999902,4.0000296 0 0 0 4,4 3.9999902,4.0000296 0 0 0 4,-4 3.9999902,4.0000296 0 0 0 -4,-4 z m 0,1 a 3,3.0000296 0 0 1 3,3 3,3.0000296 0 0 1 -3,3 3,3.0000296 0 0 1 -3,-3 3,3.0000296 0 0 1 3,-3 z"
       fill="#bdc3c7" />
    <path
       id="ellipse4156-75"
       d="m -11,12 a 7.9999504,8.0000296 0 0 0 -7.927734,7 h 1.007812 A 6.9999604,7.0000296 0 0 1 -11,13 a 6.9999604,7.0000296 0 0 1 1,0.08008 V 12.070314 A 7.9999504,8.0000296 0 0 0 -11,12 Z"
       fill="#bdc3c7" />
    <path
       id="path4167-8"
       d="M -6.5,12 A 3.5,3.5 0 0 0 -10,15.5 3.5,3.5 0 0 0 -6.5,19 3.5,3.5 0 0 0 -3,15.5 3.5,3.5 0 0 0 -6.5,12 Z m 0,1 A 2.5,2.5 0 0 1 -4,15.5 2.5,2.5 0 0 1 -6.5,18 2.5,2.5 0 0 1 -9,15.5 2.5,2.5 0 0 1 -6.5,13 Z"
       fill="#bdc3c7" />
    <path
       id="rect4152-8"
       transform="rotate(90)"
       d="m 15,4.999996 h 0.999971 V 7.999987 H 15 Z"
       fill="#bdc3c7" />
  </g>
  <g
     id="user-online"
     transform="translate(160,32)">
    <path
       id="rect4554"
       d="M 0,0 H 22 V 22 H 0 Z"
       fill="none"
       opacity="0.97" />
    <path
       id="path4149-8"
       d="m 10.96392,2.99961 a 3.9999902,4.0000296 0 0 0 -4,4 3.9999902,4.0000296 0 0 0 4,4 3.9999902,4.0000296 0 0 0 4,-4 3.9999902,4.0000296 0 0 0 -4,-4 z m 0,1 a 3,3.0000296 0 0 1 3,3 3,3.0000296 0 0 1 -3,3 3,3.0000296 0 0 1 -3,-3 3,3.0000296 0 0 1 3,-3 z"
       style="fill:#00aa7f;fill-opacity:1" />
    <path
       id="ellipse4156-8"
       d="m 10.96392,12 a 7.9999504,8.0000296 0 0 0 -7.9277344,7 h 1.0078125 a 6.9999604,7.0000296 0 0 1 6.9199219,-6 6.9999604,7.0000296 0 0 1 1,0.08008 v -1.009766 a 7.9999504,8.0000296 0 0 0 -1,-0.07031 z"
       style="fill:#00aa7f;fill-opacity:1" />
    <circle
       id="path4144"
       cx="15.463924"
       cy="15.5"
       r="3.5"
       style="fill:#00aa7f;fill-opacity:1" />
    <path
       id="path4166"
       d="m 16.96391,14.00003 1,1 -3,3 -2,-2 1,-1 1,1 z"
       fill="currentColor"
       fill-rule="evenodd" />
  </g>
  <g
     id="user-identity"
     transform="translate(160,32)">
    <path
       id="rect4585"
       d="m -88,0 h 22 v 22 h -22 z"
       fill="none"
       opacity="0.97" />
    <path
       id="path4149-2"
       d="m -77,3 a 3.9999902,4.0000296 0 0 0 -4,4 3.9999902,4.0000296 0 0 0 4,4 3.9999902,4.0000296 0 0 0 4,-4 3.9999902,4.0000296 0 0 0 -4,-4 z m 0,1 a 3,3.0000296 0 0 1 3,3 3,3.0000296 0 0 1 -3,3 3,3.0000296 0 0 1 -3,-3 3,3.0000296 0 0 1 3,-3 z m 0,8 a 7.9999504,8.0000296 0 0 0 -7.927734,7 h 1.007812 A 6.9999604,7.0000296 0 0 1 -77,13 a 6.9999604,7.0000296 0 0 1 6.921875,6 h 1.007813 A 7.9999504,8.0000296 0 0 0 -77,12 Z"
       style="fill:#bac8df;fill-opacity:1"
       class="ColorScheme-Text" />
  </g>
  <g
     id="user-away-extended"
     transform="translate(160,32)">
    <path
       id="rect4649"
       d="M 44,0 H 66 V 22 H 44 Z"
       fill="none"
       opacity="0.97" />
    <circle
       id="circle4653"
       cx="59.500015"
       cy="15.5"
       r="3.499985"
       fill="#9b59b6" />
    <path
       id="path4655"
       d="m 55.00004,2.99961 a 3.9999902,4.0000296 0 0 0 -4,4 3.9999902,4.0000296 0 0 0 4,4 3.9999902,4.0000296 0 0 0 4,-4 3.9999902,4.0000296 0 0 0 -4,-4 z m 0,1 a 3,3.0000296 0 0 1 3,3 3,3.0000296 0 0 1 -3,3 3,3.0000296 0 0 1 -3,-3 3,3.0000296 0 0 1 3,-3 z"
       fill="#9b59b6" />
    <path
       id="path4657"
       d="m 55.00004,12 a 7.9999504,8.0000296 0 0 0 -7.927734,7 h 1.007812 a 6.9999604,7.0000296 0 0 1 6.919922,-6 6.9999604,7.0000296 0 0 1 1,0.08008 v -1.009766 a 7.9999504,8.0000296 0 0 0 -1,-0.07031 z"
       fill="#9b59b6" />
    <circle
       id="circle4659"
       transform="rotate(90)"
       cx="15.5"
       cy="-57.500046"
       r="0.5"
       fill="currentColor"
       opacity="0.7" />
    <circle
       id="circle4661"
       cx="59.500046"
       cy="15.5"
       r="0.5"
       fill="currentColor"
       opacity="0.4" />
    <circle
       id="circle4663"
       cx="61.500046"
       cy="15.5"
       r="0.5"
       fill="currentColor"
       opacity="0.3" />
  </g>
  <g
     id="16-16-user-desktop"
     transform="translate(-110,32)">
    <path
       id="rect856"
       d="m -48,16 h 16 v 16 h -16 z"
       fill="none" />
    <path
       id="path828"
       d="m -46,18 v 12 h 12 V 18 Z m 1,1 h 10 v 10 h -10 v -1 z m 1,8 v 1 h 8 v -1 z"
       style="fill:#bac8df;fill-opacity:1"
       class="ColorScheme-Text" />
  </g>
  <g
     id="22-22-user-desktop"
     transform="translate(-110,32)">
    <path
       id="rect850"
       d="M -22,10 H 0 v 22 h -22 z"
       fill="none" />
    <path
       id="path840"
       d="M -19,13 V 29 H -3 V 13 Z m 1,1 h 14 v 14 h -14 z m 1,12 v 1 h 12 v -1 z"
       style="fill:#bac8df;fill-opacity:1"
       class="ColorScheme-Text" />
  </g>
  <g
     id="user-desktop-6"
     transform="translate(-180,107)">
    <path
       id="rect846-6-2"
       d="m 100,-32 h 64 v 64 h -64 z"
       fill="none" />
  </g>
  <g
     id="32-32-user-desktop"
     transform="translate(-100,32)">
    <path
       id="rect844"
       d="M 0,0 H 32 V 32 H 0 Z"
       fill="none" />
    <path
       d="M 2,26.19999 V 5.8 C 2,4.64956 2.59098,4 3.933,4 H 27.967 C 29.30902,4 30,4.64956 30,5.8 v 20.39999 c 0,1.15043 -0.69098,1.8 -2.033,1.8 H 4.036 C 2.69072,28.00299 2,27.35042 2,26.19999 Z M 29,6.2056 C 29,5.2 28.72496,5 27.867,5 H 4.136 C 3.1819,5 3,5.2 3,6.0856 V 25.6744 C 3,26.79999 3.19319,27 4.136,27 H 28.067 C 28.68915,27 29,26.79999 29,25.6744 Z"
       id="path2-3"
       style="color:#d6dbf1;fill:#bac8df;fill-opacity:1;stroke-width:0.30159;enable-background:new"
       sodipodi:nodetypes="ssssssscssssssssss"
       class="ColorScheme-Text" />
    <path
       d="m 3,25.05 h 26 v 0 -2 H 3 v 0 z"
       id="path2653-4-6"
       style="fill:#bac8df;fill-opacity:1;stroke-width:0.494872"
       sodipodi:nodetypes="ccccccc" />
    <path
       d="m 9.5,10.05 c 0,1.10511 -0.8949,2.00001 -2,2.00001 -1.10416,0 -1.99999,-0.8949 -1.99999,-2.00001 0,-1.10417 0.89583,-1.99999 1.99999,-1.99999 1.1051,0 2,0.89582 2,1.99999 z"
       id="path72-3-0"
       style="color:#e5e9ef;fill:#bac8df;fill-opacity:1;stroke-width:0.0238098"
       class="ColorScheme-Text" />
    <path
       d="m 9.5,18.05 c 0,1.10511 -0.8949,2.00001 -2,2.00001 -1.10417,0 -1.99999,-0.8949 -1.99999,-2.00001 0,-1.10417 0.89582,-1.99999 1.99999,-1.99999 1.1051,0 2,0.89582 2,1.99999 z"
       id="path72-3-6-6"
       style="color:#e5e9ef;fill:#bac8df;fill-opacity:1;stroke-width:0.0238098"
       class="ColorScheme-Text" />
  </g>
  <g
     id="user-desktop">
    <path
       d="M 4,52.39998 V 11.6 C 4,9.29912 5.18196,8 7.866,8 H 55.934 C 58.61804,8 60,9.29912 60,11.6 v 40.79998 c 0,2.30086 -1.38196,3.6 -4.066,3.6 H 8.072 C 5.38144,56.00598 4,54.70084 4,52.39998 Z M 58,12.4112 C 58,10.4 57.44992,10 55.734,10 H 8.272 C 6.3638,10 6,10.4 6,12.1712 V 51.3488 C 6,53.59998 6.38638,54 8.272,54 H 56.134 C 57.3783,54 58,53.59998 58,51.3488 Z"
       id="path2"
       style="color:#d6dbf1;fill:#bac8df;fill-opacity:1;stroke-width:0.60318;enable-background:new"
       sodipodi:nodetypes="ssssssscssssssssss"
       class="ColorScheme-Text" />
    <path
       d="m 6,50.1 h 52 v 0 -4 H 6 v 0 z"
       id="path2653-4"
       style="fill:#bac8df;fill-opacity:1;stroke-width:0.989744"
       sodipodi:nodetypes="ccccccc" />
    <path
       d="m 19,20.1 c 0,2.21022 -1.7898,4.00002 -4,4.00002 -2.20832,0 -3.99998,-1.7898 -3.99998,-4.00002 0,-2.20834 1.79166,-3.99998 3.99998,-3.99998 2.2102,0 4,1.79164 4,3.99998 z"
       id="path72-3"
       style="color:#e5e9ef;fill:#bac8df;fill-opacity:1;stroke-width:0.0476196"
       class="ColorScheme-Text" />
    <path
       d="m 19,36.1 c 0,2.21022 -1.7898,4.00002 -4,4.00002 -2.20834,0 -3.99998,-1.7898 -3.99998,-4.00002 0,-2.20834 1.79164,-3.99998 3.99998,-3.99998 2.2102,0 4,1.79164 4,3.99998 z"
       id="path72-3-6"
       style="color:#e5e9ef;fill:#bac8df;fill-opacity:1;stroke-width:0.0476196"
       class="ColorScheme-Text" />
    <path
       id="rect846-6"
       d="M 0,0 H 64 V 64 H 0 Z"
       fill="none" />
  </g>
</svg>
