<?xml version="1.0" encoding="UTF-8" standalone="no"?>
<svg
   width="32"
   height="32"
   version="1.1"
   id="svg20"
   sodipodi:docname="veracrypt.svg"
   inkscape:version="1.3 (0e150ed6c4, 2023-07-21)"
   xmlns:inkscape="http://www.inkscape.org/namespaces/inkscape"
   xmlns:sodipodi="http://sodipodi.sourceforge.net/DTD/sodipodi-0.dtd"
   xmlns="http://www.w3.org/2000/svg"
   xmlns:svg="http://www.w3.org/2000/svg">
  <g
     id="22-22-veracrypt">
    <rect
       style="opacity:0.00100002"
       width="22"
       height="22"
       x="32"
       y="10"
       id="rect2" />
    <path
       class="st0"
       d="M 35.500264,17.006257 34,13.005002 h 3.000536 z"
       id="path362-3"
       style="fill:#d1d5e9;fill-opacity:0.5;stroke-width:0.0403695" />
    <path
       class="st1"
       d="m 35.500264,17.001257 1.500272,-3.996255 1.500272,4.001255 z"
       id="path364-6"
       style="fill:#d1d5e9;fill-opacity:0.5;stroke-width:0.0403695" />
    <path
       class="st2"
       d="m 37.000536,21.002508 -1.500272,-3.996251 h 3.000544 z"
       id="path366-7"
       style="fill:#d1d5e9;fill-opacity:0.5;stroke-width:0.0403695" />
    <path
       class="st3"
       d="m 37.000536,21.002508 1.500272,-3.996251 1.500277,3.996251 z"
       id="path368-5"
       style="fill:#d1d5e9;fill-opacity:0.5;stroke-width:0.0403695" />
    <path
       class="st4"
       d="m 38.500808,25.003751 -1.500272,-3.996243 h 3.00055 z"
       id="path370-3"
       style="fill:#d1d5e9;fill-opacity:0.5;stroke-width:0.0403695" />
    <path
       class="st5"
       d="m 38.500808,25.003751 1.500278,-3.996243 1.50027,3.996243 z"
       id="path372-5"
       style="fill:#d1d5e9;fill-opacity:0.5;stroke-width:0.0403695" />
    <path
       class="st6"
       d="m 40.001086,29 -1.500278,-3.996249 h 3.000548 z"
       id="path374-6"
       style="fill:#d1d5e9;fill-opacity:0.5;stroke-width:0.0403695" />
    <path
       class="st7"
       d="M 40.001086,29 41.501356,25.003751 43.001629,29 Z"
       id="path376-2"
       style="fill:#d1d5e9;fill-opacity:0.5;stroke-width:0.0403695" />
    <path
       class="st8"
       d="m 43.001629,29 -1.500273,-3.996249 h 3.000538 z"
       id="path378-9"
       style="fill:#d1d5e9;fill-opacity:1;stroke-width:0.0403695" />
    <path
       class="st9"
       d="m 41.501356,25.003751 1.500273,-3.996243 1.500265,3.996243 z"
       id="path380-1"
       style="fill:#d1d5e9;fill-opacity:1;stroke-width:0.0403695" />
    <path
       class="st10"
       d="m 44.501895,25.003751 -1.500266,-3.996243 h 3.00054 z"
       id="path382-2"
       style="fill:#d1d5e9;fill-opacity:1;stroke-width:0.0403695" />
    <path
       class="st11"
       d="m 43.001629,21.002508 1.500265,-4.001251 1.500275,4.001251 z"
       id="path384-7"
       style="fill:#d1d5e9;fill-opacity:1;stroke-width:0.0403695" />
    <path
       class="st12"
       d="M 46.002169,21.002508 44.501895,17.006257 H 47.50243 Z"
       id="path386-0"
       style="fill:#d1d5e9;fill-opacity:1;stroke-width:0.0403695" />
    <path
       class="st13"
       d="m 44.501895,17.001257 1.500274,-3.996255 1.500261,4.001255 z"
       id="path388-9"
       style="fill:#d1d5e9;fill-opacity:1;stroke-width:0.0403695" />
    <path
       class="st14"
       d="m 44.50841,24.998743 -1.500271,-3.996235 h 3.00053 z"
       id="path390-3"
       style="fill:#d1d5e9;fill-opacity:1;stroke-width:0.0403695" />
    <path
       class="st15"
       d="m 43.008139,20.997492 1.500271,-3.996235 1.500258,3.996235 z"
       id="path392-6"
       style="fill:#d1d5e9;fill-opacity:1;stroke-width:0.0403695" />
    <path
       class="st16"
       d="M 46.008668,20.997492 44.50841,17.001257 h 3.000535 z"
       id="path394-0"
       style="fill:#d1d5e9;fill-opacity:1;stroke-width:0.0403695" />
    <path
       class="st17"
       d="M 44.50841,16.996231 46.008668,13 l 1.500276,3.996231 z"
       id="path396-6"
       style="fill:#d1d5e9;fill-opacity:1;stroke-width:0.0403695" />
    <path
       class="st18"
       d="M 47.508945,17.001257 46.008668,13 h 3.000539 z"
       id="path398-2"
       style="fill:#d1d5e9;fill-opacity:1;stroke-width:0.0403695" />
    <path
       class="st19"
       d="m 47.49919,17.001257 1.50027,-3.996255 1.500272,4.001255 z"
       id="path400-6"
       style="fill:#d1d5e9;fill-opacity:1;stroke-width:0.0403695" />
    <path
       class="st20"
       d="M 50.499732,17.001257 48.999461,13 H 52 Z"
       id="path402-1"
       style="fill:#d1d5e9;fill-opacity:1;stroke-width:0.0403695" />
    <path
       class="st21"
       d="m 44.501895,24.983721 1.51329,-3.986229 1.487245,4.011273 z"
       id="path404-8"
       style="fill:#d1d5e9;fill-opacity:1;stroke-width:0.0403695" />
    <path
       class="st22"
       d="m 45.998908,28.994998 1.500282,-3.996255 1.500271,3.996255 z"
       id="path406-7"
       style="fill:#d1d5e9;fill-opacity:1;stroke-width:0.0403695" />
    <path
       class="st23"
       d="m 48.99946,28.994998 -1.50027,-3.996255 h 3.000542 z"
       id="path408-9"
       style="fill:#d1d5e9;fill-opacity:1;stroke-width:0.0403695" />
    <path
       class="st24"
       d="m 48.99946,28.994998 1.500272,-3.996255 1.500267,3.996255 z"
       id="path410-2"
       style="fill:#d1d5e9;fill-opacity:1;stroke-width:0.0403695" />
    <path
       class="st25"
       d="M 45.998908,28.994998 44.498641,24.998743 H 47.49919 Z"
       id="path412-0"
       style="fill:#d1d5e9;fill-opacity:1;stroke-width:0.0403695" />
  </g>
  <g
     id="veracrypt">
    <rect
       style="opacity:0.00100002"
       width="32"
       height="32"
       x="0"
       y="0"
       id="rect11" />
    <path
       class="st0"
       d="M 4.33375,10.00939 2,4.007512 h 4.667507 z"
       id="path362"
       style="fill:#d1d5e9;fill-opacity:0.5;stroke-width:0.0616664" />
    <path
       class="st1"
       d="M 4.33375,10.001878 6.667507,4.007512 9.001261,10.00939 Z"
       id="path364"
       style="fill:#d1d5e9;fill-opacity:0.5;stroke-width:0.0616664" />
    <path
       class="st2"
       d="M 6.667507,16.003756 4.33375,10.00939 h 4.667511 z"
       id="path366"
       style="fill:#d1d5e9;fill-opacity:0.5;stroke-width:0.0616664" />
    <path
       class="st3"
       d="m 6.667507,16.003756 2.333754,-5.994366 2.333768,5.994366 z"
       id="path368"
       style="fill:#d1d5e9;fill-opacity:0.5;stroke-width:0.0616664" />
    <path
       class="st4"
       d="M 9.001261,22.005634 6.667507,16.011267 h 4.667523 z"
       id="path370"
       style="fill:#d1d5e9;fill-opacity:0.5;stroke-width:0.0616664" />
    <path
       class="st5"
       d="m 9.001261,22.005634 2.333769,-5.994367 2.333755,5.994367 z"
       id="path372"
       style="fill:#d1d5e9;fill-opacity:0.5;stroke-width:0.0616664" />
    <path
       class="st6"
       d="M 11.33503,28 9.001261,22.005634 h 4.667524 z"
       id="path374"
       style="fill:#d1d5e9;fill-opacity:0.5;stroke-width:0.0616664" />
    <path
       class="st7"
       d="M 11.33503,28 13.668785,22.005634 16.002538,28 Z"
       id="path376"
       style="fill:#d1d5e9;fill-opacity:0.5;stroke-width:0.0616664" />
    <path
       class="st8"
       d="m 16.002538,28 -2.333753,-5.994366 h 4.667492 z"
       id="path378"
       style="fill:#d1d5e9;fill-opacity:1;stroke-width:0.0616664" />
    <path
       class="st9"
       d="m 13.668785,22.005634 2.333753,-5.994367 2.333739,5.994367 z"
       id="path380"
       style="fill:#d1d5e9;fill-opacity:1;stroke-width:0.0616664" />
    <path
       class="st10"
       d="m 18.336278,22.005634 -2.33374,-5.994367 h 4.667504 z"
       id="path382"
       style="fill:#d1d5e9;fill-opacity:1;stroke-width:0.0616664" />
    <path
       class="st11"
       d="m 16.002538,16.003756 2.333739,-6.001878 2.333763,6.001878 z"
       id="path384"
       style="fill:#d1d5e9;fill-opacity:1;stroke-width:0.0616664" />
    <path
       class="st12"
       d="M 20.670042,16.003756 18.336278,10.00939 h 4.667506 z"
       id="path386"
       style="fill:#d1d5e9;fill-opacity:1;stroke-width:0.0616664" />
    <path
       class="st13"
       d="m 18.336278,10.001878 2.333764,-5.994366 2.333742,6.001878 z"
       id="path388"
       style="fill:#d1d5e9;fill-opacity:1;stroke-width:0.0616664" />
    <path
       class="st14"
       d="m 18.346417,21.998122 -2.333753,-5.994366 h 4.667495 z"
       id="path390"
       style="fill:#d1d5e9;fill-opacity:1;stroke-width:0.0616664" />
    <path
       class="st15"
       d="m 16.012664,15.996244 2.333753,-5.994366 2.333741,5.994366 z"
       id="path392"
       style="fill:#d1d5e9;fill-opacity:1;stroke-width:0.0616664" />
    <path
       class="st16"
       d="m 20.680158,15.996244 -2.333741,-5.994366 h 4.667505 z"
       id="path394"
       style="fill:#d1d5e9;fill-opacity:1;stroke-width:0.0616664" />
    <path
       class="st17"
       d="M 18.346417,9.994366 20.680158,4 23.013921,9.994366 Z"
       id="path396"
       style="fill:#d1d5e9;fill-opacity:1;stroke-width:0.0616664" />
    <path
       class="st18"
       d="M 23.013922,10.001878 20.680158,4.0000001 h 4.667505 z"
       id="path398"
       style="fill:#d1d5e9;fill-opacity:1;stroke-width:0.0616664" />
    <path
       class="st19"
       d="m 22.998739,10.001878 2.333753,-5.994366 2.333757,6.001878 z"
       id="path400"
       style="fill:#d1d5e9;fill-opacity:1;stroke-width:0.0616664" />
    <path
       class="st20"
       d="M 27.666251,10.001878 25.332493,4.0000001 H 30 Z"
       id="path402"
       style="fill:#d1d5e9;fill-opacity:1;stroke-width:0.0616664" />
    <path
       class="st21"
       d="m 18.336278,21.975587 2.354018,-5.979343 2.313487,6.016902 z"
       id="path404"
       style="fill:#d1d5e9;fill-opacity:1;stroke-width:0.0616664" />
    <path
       class="st22"
       d="m 20.66497,27.992488 2.333769,-5.994366 2.333754,5.994366 z"
       id="path406"
       style="fill:#d1d5e9;fill-opacity:1;stroke-width:0.0616664" />
    <path
       class="st23"
       d="m 25.332492,27.992488 -2.333753,-5.994366 h 4.667512 z"
       id="path408"
       style="fill:#d1d5e9;fill-opacity:1;stroke-width:0.0616664" />
    <path
       class="st24"
       d="m 25.332492,27.992488 2.333757,-5.994366 2.33375,5.994366 z"
       id="path410"
       style="fill:#d1d5e9;fill-opacity:1;stroke-width:0.0616664" />
    <path
       class="st25"
       d="m 20.66497,27.992488 -2.333753,-5.994366 h 4.667522 z"
       id="path412"
       style="fill:#d1d5e9;fill-opacity:1;stroke-width:0.0616664" />
  </g>
  <defs
     id="defs24" />
  <sodipodi:namedview
     id="namedview22"
     pagecolor="#000000"
     bordercolor="#0d00cc"
     borderopacity="1"
     inkscape:showpageshadow="false"
     inkscape:pageopacity="0"
     inkscape:pagecheckerboard="true"
     inkscape:deskcolor="#000000"
     showgrid="true"
     inkscape:lockguides="false"
     inkscape:zoom="7.375"
     inkscape:cx="31.322034"
     inkscape:cy="25.288136"
     inkscape:window-width="1920"
     inkscape:window-height="996"
     inkscape:window-x="0"
     inkscape:window-y="0"
     inkscape:window-maximized="1"
     inkscape:current-layer="svg20">
    <inkscape:grid
       type="xygrid"
       id="grid794"
       originx="0"
       originy="0"
       spacingy="1"
       spacingx="1"
       units="px"
       visible="true" />
  </sodipodi:namedview>
</svg>
