<?xml version="1.0" encoding="UTF-8" standalone="no"?>
<svg
   width="32"
   height="32"
   version="1.1"
   id="svg12"
   sodipodi:docname="video.svg"
   inkscape:version="1.2.2 (b0a8486541, 2022-12-01)"
   xmlns:inkscape="http://www.inkscape.org/namespaces/inkscape"
   xmlns:sodipodi="http://sodipodi.sourceforge.net/DTD/sodipodi-0.dtd"
   xmlns="http://www.w3.org/2000/svg"
   xmlns:svg="http://www.w3.org/2000/svg"
   xmlns:rdf="http://www.w3.org/1999/02/22-rdf-syntax-ns#"
   xmlns:cc="http://creativecommons.org/ns#"
   xmlns:dc="http://purl.org/dc/elements/1.1/">
  <g
     id="22-22-video-display-brightness">
    <rect
       style="opacity:0.00100002;fill:#bac8df;fill-opacity:1"
       width="22"
       height="22"
       x="32"
       y="10.000003"
       id="rect2" />
    <path
       d="M 50.714286,13.002715 H 35.285714 v 0 C 34.642857,13.002715 34,13.669275 34,14.335836 v 11.331529 c 0,0.666561 0.642857,1.333121 1.285714,1.333121 v 0 h 6.428572 v 0.876547 l -1.172075,1.37e-4 c -0.290879,6.5e-4 -0.571581,0.115176 -0.789158,0.322005 -0.217436,0.206827 -0.356904,0.491601 -0.391933,0.800828 h 7.274897 c -0.03503,-0.309237 -0.174376,-0.594026 -0.391934,-0.800828 -0.21756,-0.206829 -0.498144,-0.32133 -0.789162,-0.322005 h -1.169207 v -0.876684 h 6.428572 v 0 C 51.357143,27.000486 52,26.333926 52,25.667365 V 14.335836 c 0,-0.666561 -0.642857,-1.333121 -1.285714,-1.333121 -0.01093,-0.0129 0.02186,0.02578 0,0 z m -6.719143,13.331211 h -1.9935 c -0.155293,0 -0.287357,-0.16704 -0.287357,-0.333281 0,-0.166241 0.132064,-0.33328 0.287357,-0.33328 h 1.9935 c 0.155418,0 0.290571,0.167032 0.290571,0.33328 0,0.166241 -0.135153,0.333281 -0.290571,0.333281 z M 51,25 H 35 V 15 14 h 16 v 1 z"
       id="path43-3"
       style="fill:#bac8df;fill-opacity:1;stroke-width:0.0332522"
       sodipodi:nodetypes="cccccccccccccccccccccccsssssssccccccc" />
    <ellipse
       cx="43"
       cy="19.50001"
       id="circle64-6"
       style="fill:#bac8df;fill-opacity:1;stroke-width:1.14286"
       rx="1.7142862"
       ry="1.7142851" />
    <rect
       x="42.42857"
       y="15.500003"
       width="1.1428574"
       height="1.142857"
       ry="0.57142848"
       id="rect66-7"
       style="fill:#bac8df;fill-opacity:1;stroke-width:1.14286" />
    <rect
       x="42.42857"
       y="22.357147"
       width="1.1428574"
       height="1.142857"
       ry="0.57142848"
       id="rect68-5"
       style="fill:#bac8df;fill-opacity:1;stroke-width:1.14286" />
    <rect
       transform="rotate(44.999985)"
       x="43.622276"
       y="-20.616568"
       width="1.1428572"
       height="1.1428572"
       ry="0.5714286"
       id="rect70-3"
       style="fill:#bac8df;fill-opacity:1;stroke-width:1.14288" />
    <rect
       transform="rotate(44.999985)"
       x="43.622276"
       y="-13.759419"
       width="1.1428572"
       height="1.1428572"
       ry="0.5714286"
       id="rect72-5"
       style="fill:#bac8df;fill-opacity:1;stroke-width:1.14288" />
    <rect
       transform="rotate(90)"
       x="18.928581"
       y="-47"
       width="1.142857"
       height="1.1428574"
       ry="0.57142872"
       id="rect74-6"
       style="fill:#bac8df;fill-opacity:1;stroke-width:1.14286" />
    <rect
       transform="rotate(90)"
       x="18.928581"
       y="-40.142857"
       width="1.142857"
       height="1.1428574"
       ry="0.57142872"
       id="rect76-2"
       style="fill:#bac8df;fill-opacity:1;stroke-width:1.14286" />
    <rect
       transform="rotate(-44.999985)"
       x="16.045153"
       y="40.193707"
       width="1.1428572"
       height="1.1428572"
       ry="0.5714286"
       id="rect78-9"
       style="fill:#bac8df;fill-opacity:1;stroke-width:1.14288" />
    <rect
       transform="rotate(-44.999985)"
       x="16.045153"
       y="47.050846"
       width="1.1428572"
       height="1.1428572"
       ry="0.5714286"
       id="rect80-1"
       style="fill:#bac8df;fill-opacity:1;stroke-width:1.14288" />
  </g>
  <style
     id="current-color-scheme"
     type="text/css">.ColorScheme-Highlight { color:#ffeeaa; }
.ColorScheme-Text { color:#d6dbf1; }
</style>
  <metadata
     id="metadata18">
    <rdf:RDF>
      <cc:Work
         rdf:about="">
        <dc:format>image/svg+xml</dc:format>
        <dc:type
           rdf:resource="http://purl.org/dc/dcmitype/StillImage" />
      </cc:Work>
    </rdf:RDF>
  </metadata>
  <defs
     id="defs16" />
  <sodipodi:namedview
     pagecolor="#000000"
     bordercolor="#005eff"
     borderopacity="1"
     objecttolerance="10"
     gridtolerance="10"
     guidetolerance="10"
     inkscape:pageopacity="0"
     inkscape:pageshadow="2"
     inkscape:window-width="1920"
     inkscape:window-height="1002"
     id="namedview14"
     showgrid="true"
     inkscape:zoom="8.0000004"
     inkscape:cx="19.187499"
     inkscape:cy="31.187498"
     inkscape:window-x="0"
     inkscape:window-y="0"
     inkscape:window-maximized="1"
     inkscape:current-layer="svg12"
     inkscape:document-rotation="0"
     inkscape:lockguides="false"
     inkscape:showpageshadow="false"
     inkscape:pagecheckerboard="true"
     inkscape:deskcolor="#000000">
    <inkscape:grid
       type="xygrid"
       id="grid2024"
       originx="0"
       originy="-1.3897704e-07" />
  </sodipodi:namedview>
  <g
     id="video-display-brightness">
    <rect
       style="opacity:0.00100002;fill:#bac8df;fill-opacity:1"
       width="32"
       height="32"
       x="0"
       y="1.3897704e-07"
       id="rect7" />
    <path
       d="M 28,4.0040681 H 4 v 0 c -1,0 -2,1 -2,2 V 23.004068 c 0,1 1,2 2,2 v 0 h 10 v 1.315031 l -1.823227,2.06e-4 c -0.452479,9.76e-4 -0.889127,0.17279 -1.22758,0.483082 -0.338234,0.310293 -0.555183,0.737522 -0.609673,1.201434 H 21.656026 C 21.601542,27.539894 21.384775,27.112643 21.046352,26.802387 20.707925,26.492095 20.27146,26.320318 19.818766,26.319305 H 18 v -1.315237 h 10 v 0 c 1,0 2,-1 2,-2 V 6.0040681 c 0,-1 -1,-2 -2,-2 -0.017,-0.01934 0.03401,0.03869 0,0 z M 17.548,24.004068 h -3.101 c -0.241566,0 -0.447,-0.250599 -0.447,-0.5 0,-0.249402 0.205434,-0.5 0.447,-0.5 h 3.101 c 0.241761,0 0.452,0.250587 0.452,0.5 0,0.249401 -0.210239,0.5 -0.452,0.5 z m 11.452,-2 H 3 V 6.0040681 c 0,0 0.09993,-1 1.121,-1 H 27.9 c 1.000453,0 1.1,1 1.1,1 z"
       id="path43"
       style="fill:#bac8df;fill-opacity:1;stroke-width:0.0507976"
       sodipodi:nodetypes="ccccccccccccccccccccccccsssssssccccccc" />
    <circle
       cx="16"
       cy="13.5"
       r="2.5714285"
       id="circle64"
       style="fill:#bac8df;fill-opacity:1;stroke-width:1.71429" />
    <rect
       x="15.142857"
       y="7.5"
       width="1.7142857"
       height="1.7142857"
       ry="0.85714287"
       id="rect66"
       style="fill:#bac8df;fill-opacity:1;stroke-width:1.71429" />
    <rect
       x="15.142857"
       y="17.785715"
       width="1.7142857"
       height="1.7142857"
       ry="0.85714287"
       id="rect68"
       style="fill:#bac8df;fill-opacity:1;stroke-width:1.71429" />
    <rect
       transform="rotate(45)"
       x="20.001804"
       y="-7.7671189"
       width="1.7142856"
       height="1.7142856"
       ry="0.85714281"
       id="rect70"
       style="fill:#bac8df;fill-opacity:1;stroke-width:1.71429" />
    <rect
       transform="rotate(45)"
       x="20.001804"
       y="2.5185983"
       width="1.7142856"
       height="1.7142856"
       ry="0.85714281"
       id="rect72"
       style="fill:#bac8df;fill-opacity:1;stroke-width:1.71429" />
    <rect
       transform="rotate(90)"
       x="12.642858"
       y="-22"
       width="1.7142857"
       height="1.7142857"
       ry="0.85714287"
       id="rect74"
       style="fill:#bac8df;fill-opacity:1;stroke-width:1.71429" />
    <rect
       transform="rotate(90)"
       x="12.642858"
       y="-11.714286"
       width="1.7142857"
       height="1.7142857"
       ry="0.85714287"
       id="rect76"
       style="fill:#bac8df;fill-opacity:1;stroke-width:1.71429" />
    <rect
       transform="rotate(-45)"
       x="0.90997291"
       y="14.858948"
       width="1.7142856"
       height="1.7142856"
       ry="0.85714281"
       id="rect78"
       style="fill:#bac8df;fill-opacity:1;stroke-width:1.71429" />
    <rect
       transform="rotate(-45)"
       x="0.90997291"
       y="25.144661"
       width="1.7142856"
       height="1.7142856"
       ry="0.85714281"
       id="rect80"
       style="fill:#bac8df;fill-opacity:1;stroke-width:1.71429" />
  </g>
</svg>
