<?xml version="1.0" encoding="UTF-8" standalone="no"?>
<svg
   version="1.1"
   id="svg2"
   viewBox="0 0 32 32"
   sodipodi:docname="view.svg"
   inkscape:version="1.2.2 (b0a8486541, 2022-12-01)"
   width="32"
   height="32"
   xmlns:inkscape="http://www.inkscape.org/namespaces/inkscape"
   xmlns:sodipodi="http://sodipodi.sourceforge.net/DTD/sodipodi-0.dtd"
   xmlns="http://www.w3.org/2000/svg"
   xmlns:svg="http://www.w3.org/2000/svg"
   xmlns:rdf="http://www.w3.org/1999/02/22-rdf-syntax-ns#"
   xmlns:cc="http://creativecommons.org/ns#"
   xmlns:dc="http://purl.org/dc/elements/1.1/">
  <sodipodi:namedview
     pagecolor="#000000"
     bordercolor="#021aff"
     borderopacity="1"
     objecttolerance="10"
     gridtolerance="10"
     guidetolerance="10"
     inkscape:pageopacity="0"
     inkscape:pageshadow="2"
     inkscape:window-width="1920"
     inkscape:window-height="1002"
     id="namedview18"
     showgrid="true"
     inkscape:zoom="7.7138135"
     inkscape:cx="29.881459"
     inkscape:cy="-1.6204696"
     inkscape:window-x="0"
     inkscape:window-y="0"
     inkscape:window-maximized="1"
     inkscape:current-layer="svg2"
     inkscape:pagecheckerboard="true"
     inkscape:lockguides="false"
     inkscape:showpageshadow="false"
     inkscape:deskcolor="#000000">
    <inkscape:grid
       type="xygrid"
       id="grid1842"
       originx="0"
       originy="-32" />
  </sodipodi:namedview>
  <metadata
     id="metadata22">
    <rdf:RDF>
      <cc:Work
         rdf:about="">
        <dc:format>image/svg+xml</dc:format>
        <dc:type
           rdf:resource="http://purl.org/dc/dcmitype/StillImage" />
      </cc:Work>
    </rdf:RDF>
  </metadata>
  <defs
     id="defs3615">
    <style
       type="text/css"
       id="current-color-scheme">.ColorScheme-Text { color:#d1d5e9; }
.ColorScheme-Background { color:#E9E8E8; }
.ColorScheme-ViewText { color:#31363b; }
.ColorScheme-ViewBackground { color:#ffffff; }
.ColorScheme-ViewHover { color:#000000; }
.ColorScheme-ViewFocus { color:#5a5a5a; }
.ColorScheme-ButtonText { color:#31363b; }
.ColorScheme-ButtonBackground { color:#E9E8E8; }
.ColorScheme-ButtonHover { color:#1489ff; }
.ColorScheme-ButtonFocus { color:#2B74C7; }
</style>
  </defs>
  <g
     id="view-history">
    <g
       id="g3799">
      <path
         id="path24"
         d="M 0,0 V 32 H 32 V 0 Z"
         style="fill:none" />
      <path
         sodipodi:nodetypes="cccccccccccccscscscccc"
         inkscape:connector-curvature="0"
         style="clip-rule:evenodd;fill:#bac8df;fill-opacity:1;fill-rule:evenodd;stroke-width:0.00244847;stroke-linejoin:round;stroke-miterlimit:1.41421"
         id="path4-3-3"
         d="m 15.085074,4.0343239 c -5.07526,0.38703 -9.4182697,4.0029496 -10.7007997,8.9187511 -0.50204,1.93489 -0.51429,4.087409 -0.0242,6.004179 1.26416,5.00662 5.6678997,8.67689 10.8156497,9.01569 2.92163,0.19339 5.75876,-0.65312 8.09974,-2.42473 0.63526,-0.47761 1.79044,-1.63256 2.26848,-2.26757 3.57501,-4.72853 3.21208,-11.28913 -0.85886,-15.5459405 -2.51044,-2.6178796 -6.01297,-3.9723496 -9.59997,-3.7003796 z m 1.60898,1.48068 c 1.26334,0.0706 3.06459,0.46063 4.68794,1.4089996 1.71446,0.99744 3.03629,2.45354 4.01,4.3825605 1.43805,2.63022 1.45383,6.409571 0.348,8.9447 -0.9087,1.84958 -2.41967,3.800831 -4.34921,5.00574 -1.28894,0.80488 -3.76486,1.318181 -5.52772,1.296 -1.66692,-0.021 -3.71165,-0.44702 -4.93007,-1.20871 -2.2878897,-1.43027 -4.0953397,-3.44722 -4.9899997,-6.02124 -0.65343,-2.51605 -0.51093,-5.2156 0.465,-7.59761 0.62227,-1.51882 1.67002,-2.7497505 3.329,-4.1851305 1.5234497,-1.1578796 3.5096397,-1.8236796 5.1852197,-1.9533096 0.33257,-0.0301 0.90686,-0.098 0.95535,-0.098 0.0482,-0.006 0.4173,-0.004 0.81649,0.026 z"
         class="ColorScheme-Text" />
      <path
         d="m 20.7,22 c -0.32035,0 -0.655992,-0.161353 -0.898802,-0.382913 L 14.56727,17.289837 C 14.34079,17.083295 14.2,16.796022 14.2,16.478714 v 0 -0.0037 -7.3580339 c 0,-0.6365122 0.4593,-1.1539488 1.151,-1.1539488 0.69169,0 1.132556,0.5177039 1.151,1.1539488 V 16 l 4.998,3.975528 c 0.48765,0.448752 0.651638,1.284875 0.163988,1.733626 C 21.419138,21.934469 21.02034,22 20.7,22"
         id="path6"
         style="fill:#bac8df;fill-opacity:1;stroke-width:0.0195731"
         sodipodi:nodetypes="cccsccsssccsc"
         class="ColorScheme-Text" />
    </g>
  </g>
  <g
     id="22-22-view-history"
     transform="translate(-22,10)">
    <path
       id="path15"
       d="M 0,0 V 22 H 22 V 0 Z"
       style="fill:none" />
    <path
       style="color:#d1d5e9;fill:#bac8df;fill-opacity:1;stroke-width:1"
       class="ColorScheme-Text"
       d="m 11,3 c -4.424,0 -8,3.576 -8,8 0,4.424 3.576,8 8,8 4.423999,0 8,-3.576 8,-8 0,-4.424 -3.576001,-8 -8,-8 z m 0,1 c 3.870004,0 7,3.13 7,7 0,3.870009 -3.129996,7 -7,7 C 7.130009,18 4,14.870009 4,11 4,7.13 7.130009,4 11,4 Z"
       id="path58-3-0"
       sodipodi:nodetypes="ssssssssssccc" />
    <path
       d="m 14.399106,15 c -0.216805,0 -0.443964,-0.109203 -0.608293,-0.259148 l -3.54225,-2.928616 C 10.095284,11.67245 10,11.47803 10,11.263279 v 0 -0.0025 -4.9798036 C 10,5.8501929 10.310848,5.5 10.77898,5.5 c 0.468127,0 0.766499,0.3503753 0.77898,0.7809754 v 4.6583216 l 3.382576,2.690552 c 0.330035,0.303709 0.44102,0.869584 0.110985,1.173293 -0.165712,0.152488 -0.435613,0.196839 -0.652415,0.196839"
       id="path6-3"
       style="color:#d1d5e9;fill:#bac8df;fill-opacity:1;stroke-width:0.0132473"
       sodipodi:nodetypes="cccsccsssccsc"
       class="ColorScheme-Text" />
  </g>
  <g
     id="view-refresh"
     transform="translate(0,-32)">
    <path
       style="opacity:0.00100002;fill:#eff0f1;fill-opacity:1"
       d="M 32,32 H 0 V 0 h 32 z"
       id="path7" />
    <path
       d="m 28.000077,16 c 0,6.630652 -5.369421,12.000152 -12.000041,12.000152 C 9.374996,28.000152 4,22.630652 4,16 4,9.37464 9.374996,4.000152 16.000036,4.000152 22.630656,4.000152 28.000077,9.37464 28.000077,16 Z"
       id="path72-3-75-3"
       style="color:#e5e9ef;fill:#bac8df;fill-opacity:1;stroke-width:0.142858"
       class="ColorScheme-Text" />
    <path
       d="M 21.000029,16.099932 C 21.000029,18.862705 18.762775,21.1 16.000009,21.1 13.239589,21.1 11,18.862705 11,16.099932 11,13.339372 13.239589,11.1 16.000009,11.1 c 2.762766,0 5.00002,2.239372 5.00002,4.999932 z"
       id="path72-3-75-6"
       style="color:#e5e9ef;fill:#1d2030;fill-opacity:1;stroke-width:0.0595242"
       class="ColorScheme-Text" />
  </g>
  <g
     id="22-22-view-refresh"
     transform="translate(32,-22)">
    <path
       style="opacity:0.00100002;fill:#eff0f1;fill-opacity:1"
       d="M 22,22 H 0 V 0 h 22 z"
       id="path2" />
    <path
       d="M 19.000045,10.999899 C 19.000045,15.420333 15.420431,19 11.000018,19 6.583325,19 2.999994,15.420333 2.999994,10.999899 2.999994,6.582992 6.583325,3 11.000018,3 c 4.420413,0 8.000027,3.582992 8.000027,7.999899 z"
       id="path72-3-75-3-7"
       style="color:#e5e9ef;fill:#bac8df;fill-opacity:1;stroke-width:0.0952387"
       class="ColorScheme-Text" />
    <path
       d="m 14.333347,11.06652 c 0,1.841849 -1.491503,3.333379 -3.333347,3.333379 -1.84028,0 -3.333339,-1.49153 -3.333339,-3.333379 0,-1.840373 1.493059,-3.333288 3.333339,-3.333288 1.841844,0 3.333347,1.492915 3.333347,3.333288 z"
       id="path72-3-75-6-5"
       style="color:#e5e9ef;fill:#1d2030;fill-opacity:1;stroke-width:0.0396828"
       class="ColorScheme-Text" />
  </g>
</svg>
