<?xml version="1.0" encoding="UTF-8" standalone="no"?>
<svg
   width="32"
   height="32"
   version="1.1"
   id="svg12"
   sodipodi:docname="vlc.svg"
   inkscape:version="1.2.2 (b0a8486541, 2022-12-01)"
   xmlns:inkscape="http://www.inkscape.org/namespaces/inkscape"
   xmlns:sodipodi="http://sodipodi.sourceforge.net/DTD/sodipodi-0.dtd"
   xmlns:xlink="http://www.w3.org/1999/xlink"
   xmlns="http://www.w3.org/2000/svg"
   xmlns:svg="http://www.w3.org/2000/svg"
   xmlns:rdf="http://www.w3.org/1999/02/22-rdf-syntax-ns#"
   xmlns:cc="http://creativecommons.org/ns#"
   xmlns:dc="http://purl.org/dc/elements/1.1/">
  <metadata
     id="metadata18">
    <rdf:RDF>
      <cc:Work
         rdf:about="">
        <dc:format>image/svg+xml</dc:format>
        <dc:type
           rdf:resource="http://purl.org/dc/dcmitype/StillImage" />
      </cc:Work>
    </rdf:RDF>
  </metadata>
  <defs
     id="defs16">
    <linearGradient
       inkscape:collect="always"
       id="linearGradient3911">
      <stop
         style="stop-color:#9fb2c6;stop-opacity:1;"
         offset="0"
         id="stop3907" />
      <stop
         style="stop-color:#dbe0e9;stop-opacity:1;"
         offset="1"
         id="stop3909" />
    </linearGradient>
    <linearGradient
       inkscape:collect="always"
       id="linearGradient3876">
      <stop
         style="stop-color:#7189a7;stop-opacity:1;"
         offset="0"
         id="stop3872" />
      <stop
         style="stop-color:#e5e9ef;stop-opacity:0.80000001;"
         offset="1"
         id="stop3874" />
    </linearGradient>
    <linearGradient
       inkscape:collect="always"
       xlink:href="#linearGradient3876"
       id="linearGradient3878"
       x1="14.323993"
       y1="20.261118"
       x2="26.672758"
       y2="27.223045"
       gradientUnits="userSpaceOnUse" />
    <linearGradient
       inkscape:collect="always"
       xlink:href="#linearGradient3911"
       id="linearGradient3913"
       x1="5.0999999"
       y1="18.999998"
       x2="12.615559"
       y2="27.4"
       gradientUnits="userSpaceOnUse" />
    <linearGradient
       inkscape:collect="always"
       xlink:href="#linearGradient3911"
       id="linearGradient4014"
       x1="3.8"
       y1="13"
       x2="10.999799"
       y2="19"
       gradientUnits="userSpaceOnUse" />
    <linearGradient
       inkscape:collect="always"
       xlink:href="#linearGradient3876"
       id="linearGradient4022"
       x1="10.264372"
       y1="14.288835"
       x2="17.799797"
       y2="19"
       gradientUnits="userSpaceOnUse" />
  </defs>
  <sodipodi:namedview
     pagecolor="#000000"
     bordercolor="#2712ff"
     borderopacity="1"
     objecttolerance="10"
     gridtolerance="10"
     guidetolerance="10"
     inkscape:pageopacity="0"
     inkscape:pageshadow="2"
     inkscape:window-width="1920"
     inkscape:window-height="1002"
     id="namedview14"
     showgrid="true"
     inkscape:zoom="9.8125"
     inkscape:cx="32.152866"
     inkscape:cy="16.866242"
     inkscape:window-x="0"
     inkscape:window-y="0"
     inkscape:window-maximized="1"
     inkscape:current-layer="svg12"
     inkscape:document-rotation="0"
     inkscape:lockguides="false"
     inkscape:showpageshadow="false"
     inkscape:pagecheckerboard="true"
     inkscape:deskcolor="#000000">
    <inkscape:grid
       type="xygrid"
       id="grid862"
       originx="0"
       originy="0" />
  </sodipodi:namedview>
  <g
     id="vlc">
    <g
       id="g912"
       transform="translate(32,10)">
      <rect
         style="opacity:0.00100002"
         width="32"
         height="32"
         x="-32"
         y="-10"
         id="rect7" />
    </g>
    <path
       d="m 8.099712,18.999999 a 0.6000599,0.6000599 0 0 0 -0.573046,0.423047 l -2.4,7.8 a 0.6000599,0.6000599 0 0 0 0.573046,0.776953 h 20.399996 a 0.6000599,0.6000599 0 0 0 0.57305,-0.776953 l -2.4,-7.8 a 0.6000599,0.6000599 0 0 0 -0.57305,-0.423047 z"
       id="path28"
       style="fill:url(#linearGradient3913);fill-opacity:1;stroke-width:0.6"
       inkscape:connector-curvature="0" />
    <path
       d="m 12.90006,18.999999 -3.072662,3.072657 5.327342,5.327343 h 11.545315 a 0.6000599,0.6000599 0 0 0 -0.027,-0.176953 l -2.4,-7.8 a 0.6000599,0.6000599 0 0 0 -0.573029,-0.423047 h -1.2 z"
       id="path30"
       style="fill:url(#linearGradient3878);fill-opacity:1;stroke-width:0.6"
       inkscape:connector-curvature="0" />
    <path
       d="m 15.897573,4.0000014 a 1.8001798,1.8001798 0 0 0 -1.71211,1.251562 l -4.8,14.9999976 a 1.8001798,1.8001798 0 0 0 0.79453,2.095308 c 1.72567,1.026215 3.908187,1.453129 5.71992,1.453129 1.811727,0 3.994251,-0.426914 5.719921,-1.453129 a 1.8001798,1.8001798 0 0 0 0.794535,-2.095308 L 17.614372,5.2515634 a 1.8001798,1.8001798 0 0 0 -1.716799,-1.251562 z"
       id="path32"
       style="fill:#bac8df;fill-opacity:1;stroke-width:0.6"
       inkscape:connector-curvature="0" />
    <path
       d="m 21.5589,17.579691 c -1.71616,1.000941 -3.867967,1.420308 -5.658987,1.420308 -1.791012,0 -3.942816,-0.419367 -5.658986,-1.420308 l -0.855464,2.67187 a 1.8001798,1.8001798 0 0 0 0.79453,2.095308 c 1.72567,1.026215 3.908187,1.453129 5.71992,1.453129 1.811727,0 3.994251,-0.426914 5.719921,-1.453129 a 1.8001798,1.8001798 0 0 0 0.794535,-2.095308 z"
       id="path34"
       style="fill:#1d2030;fill-opacity:1;stroke-width:0.6"
       inkscape:connector-curvature="0" />
    <path
       d="m 12.970099,9.0472654 -2.729301,8.5324256 1.332422,-4.163676 c 1.419641,0.545717 2.976195,0.783984 4.326563,0.783984 1.350365,0 2.906918,-0.238267 4.326563,-0.783984 l 1.332425,4.163676 -2.729302,-8.5324256 c -1.000096,0.241314 -2.012276,0.352734 -2.929686,0.352734 -0.917422,0 -1.929585,-0.11142 -2.929684,-0.352734 z"
       id="path36"
       style="fill:#1d2030;fill-opacity:1;stroke-width:0.6"
       inkscape:connector-curvature="0" />
    <path
       d="m 5.101199,27.399999 a 0.6000599,0.6000599 0 0 0 0.598828,0.6 h 20.399998 a 0.6000599,0.6000599 0 0 0 0.6,-0.6 z"
       id="path38"
       style="fill:#bac8df;fill-opacity:1;stroke-width:0.6"
       inkscape:connector-curvature="0" />
  </g>
  <g
     id="22-22-vlc"
     transform="translate(32,10)">
    <g
       id="g915">
      <rect
         style="opacity:0.00100002"
         width="22"
         height="22"
         x="0"
         y="0"
         id="rect2" />
      <path
         d="m 5.7997994,13 a 0.40003994,0.40003994 0 0 0 -0.382022,0.282031 l -1.6,5.2 A 0.40003994,0.40003994 0 0 0 4.1997994,19 H 17.799798 a 0.40003994,0.40003994 0 0 0 0.38204,-0.517969 l -1.6,-5.2 A 0.40003994,0.40003994 0 0 0 16.199798,13 Z"
         id="path28-3"
         style="fill:url(#linearGradient4014);fill-opacity:1;stroke-width:0.4"
         inkscape:connector-curvature="0" />
      <path
         d="M 9.0000364,13 6.9515984,15.04844 10.503155,18.6 h 7.69688 a 0.40003994,0.40003994 0 0 0 -0.01802,-0.117969 l -1.6,-5.2 A 0.40003994,0.40003994 0 0 0 16.200008,13 h -0.8 z"
         id="path30-6"
         style="fill:url(#linearGradient4022);fill-opacity:1;stroke-width:0.4"
         inkscape:connector-curvature="0" />
      <path
         d="M 10.998371,3.0000008 A 1.20012,1.20012 0 0 0 9.856974,3.8343758 L 6.6569744,13.834373 a 1.20012,1.20012 0 0 0 0.52968,1.396873 c 1.150441,0.684144 2.605461,0.968753 3.8132806,0.968753 1.207823,0 2.662837,-0.284609 3.813281,-0.968753 a 1.20012,1.20012 0 0 0 0.529693,-1.396873 L 12.142911,3.8343758 a 1.20012,1.20012 0 0 0 -1.14454,-0.834375 z"
         id="path32-7"
         style="fill:#bac8df;fill-opacity:1;stroke-width:0.4"
         inkscape:connector-curvature="0" />
      <path
         d="M 14.772596,12.053128 C 13.628492,12.72042 12.193952,13 10.999935,13 9.805932,13 8.3713964,12.72042 7.2272784,12.053128 l -0.570304,1.781245 a 1.20012,1.20012 0 0 0 0.52968,1.396873 c 1.150441,0.684144 2.605461,0.968753 3.8132806,0.968753 1.207823,0 2.662837,-0.284609 3.813281,-0.968753 a 1.20012,1.20012 0 0 0 0.529693,-1.396873 z"
         id="path34-5"
         style="fill:#1d2030;fill-opacity:1;stroke-width:0.4"
         inkscape:connector-curvature="0" />
      <path
         d="m 9.0467304,6.3648438 -1.819541,5.6882842 0.888286,-2.7757847 c 0.94642,0.3638118 1.9841226,0.5226561 2.8843786,0.5226561 0.900236,0 1.937942,-0.1588443 2.884374,-0.5226561 L 14.77251,12.053128 12.952979,6.3648438 c -0.666735,0.160876 -1.341524,0.235156 -1.953125,0.235156 -0.611616,0 -1.2863906,-0.07428 -1.9531236,-0.235156 z"
         id="path36-3"
         style="fill:#1d2030;fill-opacity:1;stroke-width:0.4"
         inkscape:connector-curvature="0" />
      <path
         d="M 3.8007904,18.6 A 0.40003994,0.40003994 0 0 0 4.2000184,19 H 17.800017 a 0.40003994,0.40003994 0 0 0 0.4,-0.4 z"
         id="path38-5"
         style="fill:#bac8df;fill-opacity:1;stroke-width:0.4"
         inkscape:connector-curvature="0" />
    </g>
  </g>
</svg>
