<?xml version="1.0" encoding="UTF-8" standalone="no"?>
<svg
   height="64"
   width="64"
   version="1.1"
   id="svg27"
   sodipodi:docname="dialog-positive.svg"
   inkscape:version="1.2.2 (b0a8486541, 2022-12-01)"
   xmlns:inkscape="http://www.inkscape.org/namespaces/inkscape"
   xmlns:sodipodi="http://sodipodi.sourceforge.net/DTD/sodipodi-0.dtd"
   xmlns="http://www.w3.org/2000/svg"
   xmlns:svg="http://www.w3.org/2000/svg">
  <defs
     id="defs31" />
  <sodipodi:namedview
     id="namedview29"
     pagecolor="#ffffff"
     bordercolor="#000000"
     borderopacity="0.25"
     inkscape:showpageshadow="2"
     inkscape:pageopacity="0.0"
     inkscape:pagecheckerboard="0"
     inkscape:deskcolor="#d1d1d1"
     showgrid="true"
     inkscape:zoom="7.375"
     inkscape:cx="29.627119"
     inkscape:cy="35.254237"
     inkscape:window-width="1920"
     inkscape:window-height="1002"
     inkscape:window-x="0"
     inkscape:window-y="0"
     inkscape:window-maximized="1"
     inkscape:current-layer="svg27">
    <inkscape:grid
       type="xygrid"
       id="grid206" />
  </sodipodi:namedview>
  <linearGradient
     id="a"
     gradientTransform="matrix(-1.4054053 0 0 1.4054053 804.69502 154.09579)"
     gradientUnits="userSpaceOnUse"
     x2="0"
     y1="43.999989"
     y2="6.999989">
    <stop
       offset="0"
       stop-color="#42a603"
       id="stop2" />
    <stop
       offset="1"
       stop-color="#78da06"
       id="stop4" />
  </linearGradient>
  <linearGradient
     id="b"
     gradientUnits="userSpaceOnUse"
     x1="753.85721"
     x2="781.85727"
     y1="171.93361"
     y2="199.93361">
    <stop
       offset="0"
       stop-color="#292c2f"
       id="stop7" />
    <stop
       offset="1"
       stop-opacity="0"
       id="stop9" />
  </linearGradient>
  <linearGradient
     id="c"
     gradientTransform="translate(0 -5)"
     gradientUnits="userSpaceOnUse"
     x2="0"
     y1="199.93361"
     y2="175.93361">
    <stop
       offset="0"
       stop-color="#bcfd93"
       id="stop12" />
    <stop
       offset="1"
       stop-color="#fafff5"
       id="stop14" />
  </linearGradient>
  <g
     fill-rule="evenodd"
     transform="translate(-736.85718 -157.93361)"
     id="g25">
    <path
       d="m 794.85718,167.93361 v 30 c 0,3 -1,4 -4.10357,3.94594 h -21.1937 l -14.05412,14.05406 v -14.05406 h -8.69926 c -2.94935,0.0541 -3.94935,-0.94594 -3.94935,-2.94594 v -31 c 0,-3 1,-4 3.90094,-4 h 44.09906 c 3,0 4,1 4,4 z"
       fill="url(#a)"
       id="path17"
       sodipodi:nodetypes="cccccccccccc" />
    <path
       d="m 743.45718,200.93361 c 1.10011,1.03837 1.4,1 2.4,1 l 9.64844,-0.055 v -1 z m 26.10312,-0.055 -14.05468,14.05469 v 1 l 14.05468,-14.05469 22.29688,0.055 c 1,0 1.48586,-0.27528 2.2,-1 z"
       fill="#368902"
       id="path19"
       sodipodi:nodetypes="cccccccccccc" />
    <path
       d="m779.85718 170.93361-8 14-7 8-7-3 8 8 12 13h17v-27z"
       fill="url(#b)"
       opacity=".2"
       id="path21" />
    <path
       d="m779.01953 170.38672-14.42969 22.12695-6.15234-4.39453-1.16211 1.62891 7.84961 5.60547 15.57031-23.87305z"
       fill="url(#c)"
       stroke-width="2"
       id="path23" />
  </g>
</svg>
