<?xml version="1.0" encoding="UTF-8" standalone="no"?>
<svg
   viewBox="0 0 22 22"
   version="1.1"
   id="svg6"
   sodipodi:docname="system-log-out-rtl.svg"
   inkscape:version="1.2.1 (9c6d41e410, 2022-07-14)"
   xmlns:inkscape="http://www.inkscape.org/namespaces/inkscape"
   xmlns:sodipodi="http://sodipodi.sourceforge.net/DTD/sodipodi-0.dtd"
   xmlns="http://www.w3.org/2000/svg"
   xmlns:svg="http://www.w3.org/2000/svg">
  <sodipodi:namedview
     id="namedview8"
     pagecolor="#ffffff"
     bordercolor="#666666"
     borderopacity="1.0"
     inkscape:showpageshadow="2"
     inkscape:pageopacity="0.0"
     inkscape:pagecheckerboard="0"
     inkscape:deskcolor="#d1d1d1"
     showgrid="false"
     inkscape:zoom="10.727273"
     inkscape:cx="11"
     inkscape:cy="11.04661"
     inkscape:window-width="1920"
     inkscape:window-height="1002"
     inkscape:window-x="0"
     inkscape:window-y="0"
     inkscape:window-maximized="1"
     inkscape:current-layer="svg6" />
  <defs
     id="defs3051">
    <style
       type="text/css"
       id="current-color-scheme">
      .ColorScheme-Text {
        color:#eff0f1;
      }
      </style>
  </defs>
  <path
     style="fill:currentColor;fill-opacity:1;stroke:none"
     d="m 11,19 c 4.4,0 8,-3.6 8,-8 0,-4.4 -3.6,-8 -8,-8 -4.4,0 -8,3.6 -8,8 0,4.4 3.6,8 8,8 z m 0,-1 C 7.1,18 4,14.9 4,11 4,7.1 7.1,4 11,4 c 3.9,0 7,3.1 7,7 0,3.9 -3.1,7 -7,7 z M 12.3,15 13,14.3 9.7,11 13,7.7 12.3,7 l -4,4 z"
     class="ColorScheme-Text"
     id="path4" />
</svg>
