<?xml version="1.0" encoding="UTF-8" standalone="no"?>
<svg
   version="1.0"
   width="21.999998"
   height="21.999998"
   id="svg2"
   inkscape:version="1.2.2 (b0a8486541, 2022-12-01)"
   sodipodi:docname="alldesktops.svg"
   viewBox="0 0 20.625 20.624998"
   xmlns:inkscape="http://www.inkscape.org/namespaces/inkscape"
   xmlns:sodipodi="http://sodipodi.sourceforge.net/DTD/sodipodi-0.dtd"
   xmlns:xlink="http://www.w3.org/1999/xlink"
   xmlns="http://www.w3.org/2000/svg"
   xmlns:svg="http://www.w3.org/2000/svg"
   xmlns:rdf="http://www.w3.org/1999/02/22-rdf-syntax-ns#"
   xmlns:cc="http://creativecommons.org/ns#"
   xmlns:dc="http://purl.org/dc/elements/1.1/">
  <g
     id="pressed-inactive-center"
     transform="translate(130.15625)">
    <rect
       style="opacity:0.00100002;fill:#3daee9;fill-opacity:1;stroke:none;stroke-width:1.03125"
       id="rect3860"
       width="20.625002"
       height="20.625002"
       x="0"
       y="0" />
    <path
       d="m 15.006505,2.6654235 c 1.634118,0 2.953126,1.318993 2.953126,2.953124 v 9.3862865 c 0,1.634117 -1.319008,2.953123 -2.953126,2.953123 H 5.6184941 c -1.634119,0 -2.953125,-1.319006 -2.953125,-2.953123 V 5.6185475 c 0,-1.634131 1.319006,-2.953124 2.953125,-2.953124 h 9.3880109 m 0,-0.790376 H 5.6184941 c -2.055995,0 -3.743494,1.687498 -3.743494,3.7435 v 9.3862865 c 0,2.057702 1.687499,3.745214 3.743494,3.745214 h 9.3862919 c 2.057714,0 3.745212,-1.687512 3.745212,-3.743502 V 5.6185475 c 0,-2.056002 -1.687498,-3.7435 -3.743493,-3.7435 z"
       id="path4-3-7-3-6-36-3-6-0"
       style="clip-rule:evenodd;fill:#ffffff;fill-opacity:1;fill-rule:evenodd;stroke-width:0.0172196;stroke-linejoin:round;stroke-miterlimit:1.41421" />
    <path
       inkscape:connector-curvature="0"
       d="M 10.312524,15.000047 C 12.901363,15.000047 15,12.901388 15,10.3125 15,7.7237255 12.901363,5.6250475 10.312524,5.6250475 c -2.5888399,0 -4.6875239,2.098678 -4.6875239,4.6874525 0,2.588888 2.098684,4.687547 4.6875239,4.687547"
       style="fill:#febc85;fill-opacity:1;fill-rule:evenodd;stroke:none;stroke-width:0.0109664;enable-background:new"
       id="path14-3-2-9" />
    <path
       inkscape:connector-curvature="0"
       d="m 10.3125,14.601344 c 2.368656,0 4.288857,-1.920161 4.288857,-4.288844 0,-2.3685895 -1.920201,-4.2887485 -4.288857,-4.2887485 -2.3686489,0 -4.2888599,1.920159 -4.2888599,4.2887485 0,2.368683 1.920211,4.288844 4.2888599,4.288844"
       style="fill:#fe9d4e;fill-opacity:1;fill-rule:evenodd;stroke:none;stroke-width:0.0109664;enable-background:new"
       id="path16-6-9-3" />
  </g>
  <sodipodi:namedview
     pagecolor="#ffffff"
     bordercolor="#000000"
     borderopacity="1"
     objecttolerance="10"
     gridtolerance="10"
     guidetolerance="10"
     inkscape:pageopacity="1"
     inkscape:pageshadow="2"
     inkscape:window-width="1920"
     inkscape:window-height="1000"
     id="namedview32"
     showgrid="false"
     inkscape:zoom="6.363961"
     inkscape:cx="66.625172"
     inkscape:cy="20.820366"
     inkscape:window-x="0"
     inkscape:window-y="0"
     inkscape:window-maximized="1"
     inkscape:current-layer="svg2"
     inkscape:document-rotation="0"
     showguides="false"
     inkscape:showpageshadow="true"
     inkscape:lockguides="true"
     inkscape:pagecheckerboard="0"
     guidecolor="#0000ff"
     guideopacity="0.76862745"
     inkscape:deskcolor="#d1d1d1">
    <inkscape:grid
       type="xygrid"
       id="grid1846"
       originx="26.156238"
       originy="-6.6894515e-08" />
  </sodipodi:namedview>
  <metadata
     id="metadata11">
    <rdf:RDF>
      <cc:Work
         rdf:about="">
        <dc:format>image/svg+xml</dc:format>
        <dc:type
           rdf:resource="http://purl.org/dc/dcmitype/StillImage" />
      </cc:Work>
    </rdf:RDF>
  </metadata>
  <defs
     id="defs4">
    <linearGradient
       id="linearGradient3587-6-5">
      <stop
         id="stop3589-9-2"
         style="stop-color:#000000;stop-opacity:1"
         offset="0" />
      <stop
         id="stop3591-7-4"
         style="stop-color:#646464;stop-opacity:1"
         offset="1" />
    </linearGradient>
    <linearGradient
       x1="7.0799088"
       y1="7.6944885"
       x2="11.317808"
       y2="11.932388"
       id="linearGradient2388"
       xlink:href="#linearGradient3587-6-5"
       gradientUnits="userSpaceOnUse"
       gradientTransform="rotate(45,12.12132,10.707107)" />
    <linearGradient
       x1="8.1313992"
       y1="19.049677"
       x2="8.1313992"
       y2="15.935893"
       id="linearGradient5038"
       xlink:href="#linearGradient3732-77"
       gradientUnits="userSpaceOnUse"
       gradientTransform="matrix(0.8666667,0,0,0.73333335,2.0666666,-16.066667)" />
    <linearGradient
       id="linearGradient3732-77">
      <stop
         id="stop3734-3"
         style="stop-color:#000000;stop-opacity:1"
         offset="0" />
      <stop
         id="stop3736-71"
         style="stop-color:#000000;stop-opacity:0"
         offset="1" />
    </linearGradient>
    <linearGradient
       x1="8.1313992"
       y1="19.049677"
       x2="8.1313992"
       y2="15.935893"
       id="linearGradient3794"
       xlink:href="#linearGradient3788"
       gradientUnits="userSpaceOnUse"
       gradientTransform="matrix(1.1333334,0,0,0.99999997,-0.06666673,-2.9999999)" />
    <linearGradient
       id="linearGradient3788">
      <stop
         id="stop3790"
         style="stop-color:#ffffff;stop-opacity:1"
         offset="0" />
      <stop
         id="stop3792"
         style="stop-color:#ffffff;stop-opacity:0"
         offset="1" />
    </linearGradient>
    <linearGradient
       x1="22.863201"
       y1="-0.94923496"
       x2="26.23391"
       y2="2.4214737"
       id="linearGradient6695"
       xlink:href="#linearGradient3587-6-5-1-5"
       gradientUnits="userSpaceOnUse"
       gradientTransform="rotate(45,4.0355353,-15.642136)" />
    <linearGradient
       id="linearGradient3587-6-5-1-5">
      <stop
         id="stop3589-9-2-8-5"
         style="stop-color:#000000;stop-opacity:1"
         offset="0" />
      <stop
         id="stop3591-7-4-3-0"
         style="stop-color:#646464;stop-opacity:1"
         offset="1" />
    </linearGradient>
    <linearGradient
       x1="19.490692"
       y1="-4.321744"
       x2="22.886868"
       y2="-0.92556846"
       id="linearGradient6693"
       xlink:href="#linearGradient3587-6-5-1-5"
       gradientUnits="userSpaceOnUse"
       gradientTransform="rotate(45,4.0355353,-15.642136)" />
    <linearGradient
       id="linearGradient3059">
      <stop
         id="stop3061"
         style="stop-color:#000000;stop-opacity:1"
         offset="0" />
      <stop
         id="stop3063"
         style="stop-color:#646464;stop-opacity:1"
         offset="1" />
    </linearGradient>
    <linearGradient
       x1="20.534313"
       y1="-4.3515615"
       x2="26.152533"
       y2="1.2666581"
       id="linearGradient6693-5"
       xlink:href="#linearGradient3587-6-5-1-5-2"
       gradientUnits="userSpaceOnUse"
       gradientTransform="rotate(45,4.0355353,-15.642136)" />
    <linearGradient
       id="linearGradient3587-6-5-1-5-2">
      <stop
         id="stop3589-9-2-8-5-0"
         style="stop-color:#000000;stop-opacity:1"
         offset="0" />
      <stop
         id="stop3591-7-4-3-0-1"
         style="stop-color:#646464;stop-opacity:1"
         offset="1" />
    </linearGradient>
    <linearGradient
       x1="19.490692"
       y1="-4.321744"
       x2="22.886868"
       y2="-0.92556846"
       id="linearGradient3054"
       xlink:href="#linearGradient3587-6-5-1-5-2"
       gradientUnits="userSpaceOnUse"
       gradientTransform="rotate(45,3.1568563,-28.006097)" />
    <linearGradient
       x1="20.534313"
       y1="-4.3515615"
       x2="26.152533"
       y2="1.2666581"
       id="linearGradient6693-5-4"
       xlink:href="#linearGradient3587-6-5-1-5-2-1"
       gradientUnits="userSpaceOnUse"
       gradientTransform="rotate(45,-6.6146827,-50.612924)" />
    <linearGradient
       id="linearGradient3587-6-5-1-5-2-1">
      <stop
         id="stop3589-9-2-8-5-0-2"
         style="stop-color:#000000;stop-opacity:1"
         offset="0" />
      <stop
         id="stop3591-7-4-3-0-1-4"
         style="stop-color:#646464;stop-opacity:1"
         offset="1" />
    </linearGradient>
    <linearGradient
       x1="8.1313992"
       y1="19.049677"
       x2="8.1313992"
       y2="15.935893"
       id="linearGradient5038-3"
       xlink:href="#linearGradient3732-77-1"
       gradientUnits="userSpaceOnUse"
       gradientTransform="matrix(0.8666667,0,0,0.73333335,-25.780791,-13.354803)" />
    <linearGradient
       id="linearGradient3732-77-1">
      <stop
         id="stop3734-3-1"
         style="stop-color:#000000;stop-opacity:1"
         offset="0" />
      <stop
         id="stop3736-71-8"
         style="stop-color:#000000;stop-opacity:0"
         offset="1" />
    </linearGradient>
    <linearGradient
       x1="8.1313992"
       y1="19.049677"
       x2="8.1313992"
       y2="15.935893"
       id="linearGradient3794-3"
       xlink:href="#linearGradient3788-3"
       gradientUnits="userSpaceOnUse"
       gradientTransform="matrix(1.1333334,0,0,0.99999997,-27.914124,-5.7118643)" />
    <linearGradient
       id="linearGradient3788-3">
      <stop
         id="stop3790-8"
         style="stop-color:#ffffff;stop-opacity:1"
         offset="0" />
      <stop
         id="stop3792-3"
         style="stop-color:#ffffff;stop-opacity:0"
         offset="1" />
    </linearGradient>
    <linearGradient
       inkscape:collect="always"
       xlink:href="#linearGradient3788-3"
       id="linearGradient3210"
       gradientUnits="userSpaceOnUse"
       gradientTransform="matrix(1.1333334,0,0,0.99999997,-27.914124,-5.7118643)"
       x1="8.1313992"
       y1="19.049677"
       x2="8.1313992"
       y2="15.935893" />
    <linearGradient
       inkscape:collect="always"
       xlink:href="#linearGradient3732-77-1"
       id="linearGradient3212"
       gradientUnits="userSpaceOnUse"
       gradientTransform="matrix(0.8666667,0,0,0.73333335,-25.780791,-13.354803)"
       x1="8.1313992"
       y1="19.049677"
       x2="8.1313992"
       y2="15.935893" />
    <linearGradient
       inkscape:collect="always"
       xlink:href="#linearGradient3587-6-5-1-5-2-1"
       id="linearGradient3214"
       gradientUnits="userSpaceOnUse"
       gradientTransform="rotate(45,-6.6146827,-50.612924)"
       x1="20.534313"
       y1="-4.3515615"
       x2="26.152533"
       y2="1.2666581" />
    <linearGradient
       id="linearGradient3587-6-5-1-5-2-7">
      <stop
         offset="0"
         style="stop-color:#000000;stop-opacity:1"
         id="stop3589-9-2-8-5-0-9" />
      <stop
         offset="1"
         style="stop-color:#646464;stop-opacity:1"
         id="stop3591-7-4-3-0-1-5" />
    </linearGradient>
    <linearGradient
       id="linearGradient3732-77-2"
       inkscape:collect="always">
      <stop
         id="stop3734-3-2"
         offset="0"
         style="stop-color:#000000;stop-opacity:1;" />
      <stop
         id="stop3736-71-0"
         offset="1"
         style="stop-color:#000000;stop-opacity:0;" />
    </linearGradient>
    <linearGradient
       inkscape:collect="always"
       id="linearGradient3788-8">
      <stop
         style="stop-color:#ffffff;stop-opacity:1;"
         offset="0"
         id="stop3790-7" />
      <stop
         style="stop-color:#ffffff;stop-opacity:0;"
         offset="1"
         id="stop3792-4" />
    </linearGradient>
    <linearGradient
       inkscape:collect="always"
       xlink:href="#linearGradient3788-8"
       id="linearGradient3298"
       gradientUnits="userSpaceOnUse"
       gradientTransform="matrix(1.1333334,0,0,0.99999997,-5.0666667,42)"
       x1="8.1313992"
       y1="19.049677"
       x2="8.1313992"
       y2="15.935893" />
    <linearGradient
       inkscape:collect="always"
       xlink:href="#linearGradient3732-77-2"
       id="linearGradient3300"
       gradientUnits="userSpaceOnUse"
       gradientTransform="matrix(0.8666667,0,0,0.73333335,-2.9333334,-61.066667)"
       x1="8.1313992"
       y1="19.049677"
       x2="8.1313992"
       y2="15.935893" />
    <linearGradient
       inkscape:collect="always"
       xlink:href="#linearGradient3587-6-5-1-5-2-7"
       id="linearGradient3302"
       gradientUnits="userSpaceOnUse"
       gradientTransform="rotate(45,-52.784269,0.82232777)"
       x1="20.534313"
       y1="-4.3515615"
       x2="26.152533"
       y2="1.2666581" />
    <linearGradient
       x1="20.534313"
       y1="-4.3515615"
       x2="26.152533"
       y2="1.2666581"
       id="linearGradient6693-5-9"
       xlink:href="#linearGradient3587-6-5-1-5-2-4"
       gradientUnits="userSpaceOnUse"
       gradientTransform="rotate(45,24.578427,37.367009)" />
    <linearGradient
       id="linearGradient3587-6-5-1-5-2-4">
      <stop
         id="stop3589-9-2-8-5-0-4"
         style="stop-color:#000000;stop-opacity:1"
         offset="0" />
      <stop
         id="stop3591-7-4-3-0-1-0"
         style="stop-color:#646464;stop-opacity:1"
         offset="1" />
    </linearGradient>
  </defs>
  <g
     id="active-center">
    <rect
       style="opacity:0.00100002;fill:#bfc3c7;fill-opacity:1;stroke:none;stroke-width:1.03125"
       id="rect3903-6"
       width="20.625"
       height="20.625"
       x="0"
       y="0" />
    <path
       d="m 15.006504,2.665376 c 1.634118,0 2.953126,1.3189929 2.953126,2.9531237 v 9.3862873 c 0,1.634117 -1.319008,2.953123 -2.953126,2.953123 H 5.6184938 c -1.6341188,0 -2.9531246,-1.319006 -2.9531246,-2.953123 V 5.6184997 c 0,-1.6341308 1.3190058,-2.9531237 2.9531246,-2.9531237 h 9.3880102 m 0,-0.7903759 H 5.6184938 c -2.0559949,0 -3.7434937,1.6874978 -3.7434937,3.7434996 v 9.3862873 c 0,2.057702 1.6874988,3.745214 3.7434937,3.745214 h 9.3862912 c 2.057714,0 3.745212,-1.687512 3.745212,-3.743502 V 5.6184997 c 0,-2.0560018 -1.687498,-3.7434996 -3.743493,-3.7434996 z"
       id="path4-3-7-3-6-36-3"
       style="clip-rule:evenodd;fill:#b8c7e0;fill-opacity:1;fill-rule:evenodd;stroke-width:0.0172196;stroke-linejoin:round;stroke-miterlimit:1.41421" />
    <path
       inkscape:connector-curvature="0"
       d="m 10.312523,15 c 2.588839,0 4.687476,-2.098659 4.687476,-4.687547 0,-2.5887752 -2.098637,-4.6874528 -4.687476,-4.6874528 -2.588839,0 -4.6875227,2.0986776 -4.6875227,4.6874528 C 5.6250003,12.901341 7.723684,15 10.312523,15"
       style="fill:#1e2431;fill-opacity:1;fill-rule:evenodd;stroke:none;stroke-width:0.0109664;enable-background:new"
       id="path14-3" />
    <path
       inkscape:connector-curvature="0"
       d="m 10.312499,14.601297 c 2.368656,0 4.288857,-1.920161 4.288857,-4.288844 0,-2.3685902 -1.920201,-4.2887495 -4.288857,-4.2887495 -2.368648,0 -4.2888594,1.9201593 -4.2888594,4.2887495 0,2.368683 1.9202114,4.288844 4.2888594,4.288844"
       style="fill:#1e2431;fill-opacity:1;fill-rule:evenodd;stroke:none;stroke-width:0.0109664;enable-background:new"
       id="path16-6" />
  </g>
  <g
     id="hover-center"
     transform="translate(26.15625)">
    <rect
       style="opacity:0.00100002;fill:#3daee9;fill-opacity:1;stroke:none;stroke-width:1.03125"
       id="rect3079"
       width="20.625002"
       height="20.625002"
       x="-1.9999998e-08"
       y="-1.0498831e-23" />
    <path
       d="m 15.006504,2.6654235 c 1.634118,0 2.953126,1.318993 2.953126,2.953124 v 9.3862865 c 0,1.634117 -1.319008,2.953123 -2.953126,2.953123 H 5.6184941 c -1.634119,0 -2.953125,-1.319006 -2.953125,-2.953123 V 5.6185475 c 0,-1.634131 1.319006,-2.953124 2.953125,-2.953124 h 9.3880099 m 0,-0.790376 H 5.6184941 c -2.055995,0 -3.743494,1.687498 -3.743494,3.7435 v 9.3862865 c 0,2.057702 1.687499,3.745214 3.743494,3.745214 h 9.3862909 c 2.057714,0 3.745212,-1.687512 3.745212,-3.743502 V 5.6185475 c 0,-2.056002 -1.687498,-3.7435 -3.743493,-3.7435 z"
       id="path4-3-7-3-6-36-3-3"
       style="clip-rule:evenodd;fill:#b8c7e0;fill-opacity:1;fill-rule:evenodd;stroke-width:0.0172196;stroke-linejoin:round;stroke-miterlimit:1.41421" />
    <path
       inkscape:connector-curvature="0"
       d="m 10.312523,15.000047 c 2.588839,0 4.687476,-2.098659 4.687476,-4.687547 0,-2.5887745 -2.098637,-4.6874525 -4.687476,-4.6874525 -2.5888389,0 -4.6875229,2.098678 -4.6875229,4.6874525 0,2.588888 2.098684,4.687547 4.6875229,4.687547"
       style="fill:#fea75f;fill-opacity:1;fill-rule:evenodd;stroke:none;stroke-width:0.0109664;enable-background:new"
       id="path14-3-6" />
    <path
       inkscape:connector-curvature="0"
       d="m 10.312499,14.601344 c 2.368656,0 4.288857,-1.920161 4.288857,-4.288844 0,-2.3685895 -1.920201,-4.2887485 -4.288857,-4.2887485 -2.3686479,0 -4.2888589,1.920159 -4.2888589,4.2887485 0,2.368683 1.920211,4.288844 4.2888589,4.288844"
       style="fill:#feba81;fill-opacity:1;fill-rule:evenodd;stroke:none;stroke-width:0.0109664;enable-background:new"
       id="path16-6-7" />
  </g>
  <g
     id="pressed-center"
     transform="translate(52.15625)">
    <rect
       y="5.3065374e-08"
       x="0"
       height="20.625002"
       width="20.625002"
       id="rect3089"
       style="opacity:0.00100002;fill:#3daee9;fill-opacity:1;stroke:none;stroke-width:1.03125" />
    <path
       d="m 15.006504,2.6653761 c 1.634118,0 2.953126,1.3189931 2.953126,2.9531241 v 9.3862858 c 0,1.634117 -1.319008,2.953123 -2.953126,2.953123 H 5.6184941 c -1.634119,0 -2.953125,-1.319006 -2.953125,-2.953123 V 5.6185002 c 0,-1.634131 1.319006,-2.9531241 2.953125,-2.9531241 h 9.3880099 m 0,-0.790376 H 5.6184941 c -2.055995,0 -3.743494,1.687498 -3.743494,3.7435001 v 9.3862858 c 0,2.057702 1.687499,3.745214 3.743494,3.745214 h 9.3862909 c 2.057714,0 3.745212,-1.687512 3.745212,-3.743502 V 5.6185002 c 0,-2.0560021 -1.687498,-3.7435001 -3.743493,-3.7435001 z"
       id="path4-3-7-3-6-36-3-5"
       style="clip-rule:evenodd;fill:#b8c7e0;fill-opacity:1;fill-rule:evenodd;stroke-width:0.0172196;stroke-linejoin:round;stroke-miterlimit:1.41421" />
    <path
       inkscape:connector-curvature="0"
       d="m 10.312523,14.999999 c 2.588839,0 4.687476,-2.098659 4.687476,-4.687546 0,-2.5887747 -2.098637,-4.6874528 -4.687476,-4.6874528 -2.5888389,0 -4.6875229,2.0986781 -4.6875229,4.6874528 0,2.588887 2.098684,4.687546 4.6875229,4.687546"
       style="fill:#febc85;fill-opacity:1;fill-rule:evenodd;stroke:none;stroke-width:0.0109664;enable-background:new"
       id="path14-3-3" />
    <path
       inkscape:connector-curvature="0"
       d="m 10.312499,14.601296 c 2.368656,0 4.288857,-1.920161 4.288857,-4.288843 0,-2.3685897 -1.920201,-4.2887488 -4.288857,-4.2887488 -2.3686479,0 -4.2888589,1.9201591 -4.2888589,4.2887488 0,2.368682 1.920211,4.288843 4.2888589,4.288843"
       style="fill:#fe9d4e;fill-opacity:1;fill-rule:evenodd;stroke:none;stroke-width:0.0109664;enable-background:new"
       id="path16-6-5" />
  </g>
  <g
     id="hover-inactive-center"
     transform="translate(104.15625)">
    <g
       id="g2770">
      <rect
         y="1.323489e-23"
         x="0"
         height="20.625002"
         width="20.625002"
         id="rect3850"
         style="opacity:0.00100002;fill:#3daee9;fill-opacity:1;stroke:none;stroke-width:1.03125" />
      <path
         d="m 15.006505,2.6653761 c 1.634118,0 2.953126,1.318993 2.953126,2.953124 v 9.3862859 c 0,1.634117 -1.319008,2.953123 -2.953126,2.953123 H 5.6184941 c -1.634119,0 -2.953125,-1.319006 -2.953125,-2.953123 V 5.6185001 c 0,-1.634131 1.319006,-2.953124 2.953125,-2.953124 h 9.3880109 m 0,-0.790376 H 5.6184941 c -2.055995,0 -3.743494,1.687498 -3.743494,3.7435 v 9.3862859 c 0,2.057702 1.687499,3.745214 3.743494,3.745214 h 9.3862919 c 2.057714,0 3.745212,-1.687512 3.745212,-3.743502 V 5.6185001 c 0,-2.056002 -1.687498,-3.7435 -3.743493,-3.7435 z"
         id="path4-3-7-3-6-36-3-6-1"
         style="clip-rule:evenodd;fill:#fbfbfc;fill-opacity:1;fill-rule:evenodd;stroke-width:0.0172196;stroke-linejoin:round;stroke-miterlimit:1.41421" />
      <path
         inkscape:connector-curvature="0"
         d="M 10.312524,14.999999 C 12.901363,14.999999 15,12.90134 15,10.312452 15,7.7236781 12.901363,5.6250001 10.312524,5.6250001 c -2.5888399,0 -4.6875239,2.098678 -4.6875239,4.6874519 0,2.588888 2.098684,4.687547 4.6875239,4.687547"
         style="fill:#fea75f;fill-opacity:1;fill-rule:evenodd;stroke:none;stroke-width:0.0109664;enable-background:new"
         id="path14-3-2-2" />
      <path
         inkscape:connector-curvature="0"
         d="m 10.3125,14.601296 c 2.368656,0 4.288857,-1.920161 4.288857,-4.288844 0,-2.3685889 -1.920201,-4.2887479 -4.288857,-4.2887479 -2.3686489,0 -4.2888599,1.920159 -4.2888599,4.2887479 0,2.368683 1.920211,4.288844 4.2888599,4.288844"
         style="fill:#feba81;fill-opacity:1;fill-rule:evenodd;stroke:none;stroke-width:0.0109664;enable-background:new"
         id="path16-6-9-7" />
    </g>
  </g>
  <g
     id="inactive-center"
     transform="translate(78.15625)">
    <rect
       style="opacity:0.00100002;fill:#bfc3c7;fill-opacity:1;stroke:none;stroke-width:1.03125"
       id="rect3903"
       width="20.625002"
       height="20.625002"
       x="0"
       y="6.6894529e-08" />
    <path
       d="m 15.006505,2.6654237 c 1.634118,0 2.953126,1.318993 2.953126,2.953124 v 9.3862873 c 0,1.634117 -1.319008,2.953123 -2.953126,2.953123 H 5.618494 c -1.634119,0 -2.953125,-1.319006 -2.953125,-2.953123 V 5.6185477 c 0,-1.634131 1.319006,-2.953124 2.953125,-2.953124 h 9.388011 m 0,-0.790376 H 5.618494 c -2.055995,0 -3.743494,1.687498 -3.743494,3.7435 v 9.3862873 c 0,2.057702 1.687499,3.745214 3.743494,3.745214 h 9.386292 c 2.057714,0 3.745212,-1.687512 3.745212,-3.743502 V 5.6185477 c 0,-2.056002 -1.687498,-3.7435 -3.743493,-3.7435 z"
       id="path4-3-7-3-6-36-3-6"
       style="clip-rule:evenodd;fill:#ffffff;fill-opacity:1;fill-rule:evenodd;stroke-width:0.0172196;stroke-linejoin:round;stroke-miterlimit:1.41421" />
    <path
       inkscape:connector-curvature="0"
       d="m 10.312522,15.000001 c 2.588839,0 4.687477,-2.098659 4.687477,-4.687546 0,-2.5887747 -2.098638,-4.687453 -4.687477,-4.687453 -2.5888387,0 -4.6875227,2.0986783 -4.6875227,4.687453 0,2.588887 2.098684,4.687546 4.6875227,4.687546"
       style="fill:#1e2431;fill-opacity:0.40000001;fill-rule:evenodd;stroke:none;stroke-width:0.0109664;enable-background:new"
       id="path14-3-3-3" />
  </g>
</svg>
