<?xml version="1.0" encoding="UTF-8" standalone="no"?>
<svg
   version="1.0"
   width="22.000002"
   height="22.000002"
   id="svg2"
   inkscape:version="1.2.2 (b0a8486541, 2022-12-01)"
   sodipodi:docname="keepbelow.svg"
   viewBox="0 0 20.625004 20.625002"
   xmlns:inkscape="http://www.inkscape.org/namespaces/inkscape"
   xmlns:sodipodi="http://sodipodi.sourceforge.net/DTD/sodipodi-0.dtd"
   xmlns:xlink="http://www.w3.org/1999/xlink"
   xmlns="http://www.w3.org/2000/svg"
   xmlns:svg="http://www.w3.org/2000/svg"
   xmlns:rdf="http://www.w3.org/1999/02/22-rdf-syntax-ns#"
   xmlns:cc="http://creativecommons.org/ns#"
   xmlns:dc="http://purl.org/dc/elements/1.1/">
  <g
     id="pressed-inactive-center"
     transform="translate(130.28094)">
    <rect
       style="opacity:0.00100002;fill:#3daee9;fill-opacity:1;stroke:none;stroke-width:1.03125"
       id="rect3863"
       width="20.625002"
       height="20.625002"
       x="3.2364554e-07"
       y="5.3065374e-08" />
    <path
       d="m 15.006501,2.6653766 c 1.63412,0 2.95313,1.318993 2.95313,2.953124 v 9.3862854 c 0,1.634117 -1.31901,2.953125 -2.95313,2.953125 H 5.6184903 c -1.63412,0 -2.95312,-1.319008 -2.95312,-2.953125 V 5.6185006 c 0,-1.634131 1.319,-2.953124 2.95312,-2.953124 h 9.3880107 m 0,-0.790376 H 5.6184903 c -2.05599,0 -3.74349,1.687498 -3.74349,3.7435 v 9.3862854 c 0,2.057704 1.6875,3.745215 3.74349,3.745215 h 9.3862907 c 2.05772,0 3.74522,-1.687511 3.74522,-3.743501 V 5.6185006 c 0,-2.056002 -1.6875,-3.7435 -3.7435,-3.7435 z"
       id="path4-3-7-3-6-6"
       style="clip-rule:evenodd;fill:#ffffff;fill-opacity:1;fill-rule:evenodd;stroke-width:0.0172196;stroke-linejoin:round;stroke-miterlimit:1.41421" />
    <path
       d="m 15.690311,8.7181466 c 0.24388,-0.285598 0.31108,-0.709679 0.18472,-1.079215 -0.13369,-0.368788 -0.44477,-0.607681 -0.7914,-0.607681 H 5.5413903 c -0.34461,0 -0.65569,0.238137 -0.78744,0.607681 -0.13436,0.369536 -0.0611,0.793624 0.18472,1.079215 l 4.77141,5.5260264 c 0.3345497,0.382767 0.8740397,0.382767 1.2085897,0 z"
       id="path3198-1"
       style="fill:#009972;fill-opacity:1;stroke-width:0.031106" />
  </g>
  <sodipodi:namedview
     pagecolor="#ffffff"
     bordercolor="#000000"
     borderopacity="1"
     objecttolerance="10"
     gridtolerance="10"
     guidetolerance="10"
     inkscape:pageopacity="1"
     inkscape:pageshadow="2"
     inkscape:window-width="1920"
     inkscape:window-height="1002"
     id="namedview32"
     showgrid="false"
     inkscape:zoom="5.951482"
     inkscape:cx="66.370023"
     inkscape:cy="14.534195"
     inkscape:window-x="0"
     inkscape:window-y="0"
     inkscape:window-maximized="1"
     inkscape:current-layer="svg2"
     inkscape:document-rotation="0"
     showguides="false"
     inkscape:pagecheckerboard="0"
     inkscape:showpageshadow="2"
     inkscape:deskcolor="#c7c7c7">
    <inkscape:grid
       type="xygrid"
       id="grid4938" />
  </sodipodi:namedview>
  <metadata
     id="metadata11">
    <rdf:RDF>
      <cc:Work
         rdf:about="">
        <dc:format>image/svg+xml</dc:format>
        <dc:type
           rdf:resource="http://purl.org/dc/dcmitype/StillImage" />
      </cc:Work>
    </rdf:RDF>
  </metadata>
  <defs
     id="defs4">
    <linearGradient
       id="linearGradient3587-6-5">
      <stop
         id="stop3589-9-2"
         style="stop-color:#000000;stop-opacity:1"
         offset="0" />
      <stop
         id="stop3591-7-4"
         style="stop-color:#646464;stop-opacity:1"
         offset="1" />
    </linearGradient>
    <linearGradient
       x1="7.0799088"
       y1="7.6944885"
       x2="11.317808"
       y2="11.932388"
       id="linearGradient2388"
       xlink:href="#linearGradient3587-6-5"
       gradientUnits="userSpaceOnUse"
       gradientTransform="rotate(45,12.12132,10.707107)" />
    <linearGradient
       x1="8.1313992"
       y1="19.049677"
       x2="8.1313992"
       y2="15.935893"
       id="linearGradient5038"
       xlink:href="#linearGradient3732-77"
       gradientUnits="userSpaceOnUse"
       gradientTransform="matrix(0.8666667,0,0,0.73333335,2.0666666,-16.066667)" />
    <linearGradient
       id="linearGradient3732-77">
      <stop
         id="stop3734-3"
         style="stop-color:#000000;stop-opacity:1"
         offset="0" />
      <stop
         id="stop3736-71"
         style="stop-color:#000000;stop-opacity:0"
         offset="1" />
    </linearGradient>
    <linearGradient
       x1="8.1313992"
       y1="19.049677"
       x2="8.1313992"
       y2="15.935893"
       id="linearGradient3794"
       xlink:href="#linearGradient3788"
       gradientUnits="userSpaceOnUse"
       gradientTransform="matrix(1.1333334,0,0,0.99999997,-0.06666673,-2.9999999)" />
    <linearGradient
       id="linearGradient3788">
      <stop
         id="stop3790"
         style="stop-color:#ffffff;stop-opacity:1"
         offset="0" />
      <stop
         id="stop3792"
         style="stop-color:#ffffff;stop-opacity:0"
         offset="1" />
    </linearGradient>
    <linearGradient
       x1="22.863201"
       y1="-0.94923496"
       x2="26.23391"
       y2="2.4214737"
       id="linearGradient6695"
       xlink:href="#linearGradient3587-6-5-1-5"
       gradientUnits="userSpaceOnUse"
       gradientTransform="rotate(45,4.0355353,-15.642136)" />
    <linearGradient
       id="linearGradient3587-6-5-1-5">
      <stop
         id="stop3589-9-2-8-5"
         style="stop-color:#000000;stop-opacity:1"
         offset="0" />
      <stop
         id="stop3591-7-4-3-0"
         style="stop-color:#646464;stop-opacity:1"
         offset="1" />
    </linearGradient>
    <linearGradient
       x1="19.490692"
       y1="-4.321744"
       x2="22.886868"
       y2="-0.92556846"
       id="linearGradient6693"
       xlink:href="#linearGradient3587-6-5-1-5"
       gradientUnits="userSpaceOnUse"
       gradientTransform="rotate(45,4.0355353,-15.642136)" />
    <linearGradient
       id="linearGradient3059">
      <stop
         id="stop3061"
         style="stop-color:#000000;stop-opacity:1"
         offset="0" />
      <stop
         id="stop3063"
         style="stop-color:#646464;stop-opacity:1"
         offset="1" />
    </linearGradient>
    <linearGradient
       x1="20.534313"
       y1="-4.3515615"
       x2="26.152533"
       y2="1.2666581"
       id="linearGradient6693-5"
       xlink:href="#linearGradient3587-6-5-1-5-2"
       gradientUnits="userSpaceOnUse"
       gradientTransform="rotate(45,4.0355353,-15.642136)" />
    <linearGradient
       id="linearGradient3587-6-5-1-5-2">
      <stop
         id="stop3589-9-2-8-5-0"
         style="stop-color:#000000;stop-opacity:1"
         offset="0" />
      <stop
         id="stop3591-7-4-3-0-1"
         style="stop-color:#646464;stop-opacity:1"
         offset="1" />
    </linearGradient>
    <linearGradient
       x1="19.490692"
       y1="-4.321744"
       x2="22.886868"
       y2="-0.92556846"
       id="linearGradient3054"
       xlink:href="#linearGradient3587-6-5-1-5-2"
       gradientUnits="userSpaceOnUse"
       gradientTransform="rotate(45,3.1568563,-28.006097)" />
    <linearGradient
       x1="20.534313"
       y1="-4.3515615"
       x2="26.152533"
       y2="1.2666581"
       id="linearGradient6693-5-4"
       xlink:href="#linearGradient3587-6-5-1-5-2-1"
       gradientUnits="userSpaceOnUse"
       gradientTransform="rotate(45,-6.6146827,-50.612924)" />
    <linearGradient
       id="linearGradient3587-6-5-1-5-2-1">
      <stop
         id="stop3589-9-2-8-5-0-2"
         style="stop-color:#000000;stop-opacity:1"
         offset="0" />
      <stop
         id="stop3591-7-4-3-0-1-4"
         style="stop-color:#646464;stop-opacity:1"
         offset="1" />
    </linearGradient>
    <linearGradient
       x1="8.1313992"
       y1="19.049677"
       x2="8.1313992"
       y2="15.935893"
       id="linearGradient5038-3"
       xlink:href="#linearGradient3732-77-1"
       gradientUnits="userSpaceOnUse"
       gradientTransform="matrix(0.8666667,0,0,0.73333335,-25.780791,-13.354803)" />
    <linearGradient
       id="linearGradient3732-77-1">
      <stop
         id="stop3734-3-1"
         style="stop-color:#000000;stop-opacity:1"
         offset="0" />
      <stop
         id="stop3736-71-8"
         style="stop-color:#000000;stop-opacity:0"
         offset="1" />
    </linearGradient>
    <linearGradient
       x1="8.1313992"
       y1="19.049677"
       x2="8.1313992"
       y2="15.935893"
       id="linearGradient3794-3"
       xlink:href="#linearGradient3788-3"
       gradientUnits="userSpaceOnUse"
       gradientTransform="matrix(1.1333334,0,0,0.99999997,-27.914124,-5.7118643)" />
    <linearGradient
       id="linearGradient3788-3">
      <stop
         id="stop3790-8"
         style="stop-color:#ffffff;stop-opacity:1"
         offset="0" />
      <stop
         id="stop3792-3"
         style="stop-color:#ffffff;stop-opacity:0"
         offset="1" />
    </linearGradient>
    <linearGradient
       inkscape:collect="always"
       xlink:href="#linearGradient3788-3"
       id="linearGradient3210"
       gradientUnits="userSpaceOnUse"
       gradientTransform="matrix(1.1333334,0,0,0.99999997,-27.914124,-5.7118643)"
       x1="8.1313992"
       y1="19.049677"
       x2="8.1313992"
       y2="15.935893" />
    <linearGradient
       inkscape:collect="always"
       xlink:href="#linearGradient3732-77-1"
       id="linearGradient3212"
       gradientUnits="userSpaceOnUse"
       gradientTransform="matrix(0.8666667,0,0,0.73333335,-25.780791,-13.354803)"
       x1="8.1313992"
       y1="19.049677"
       x2="8.1313992"
       y2="15.935893" />
    <linearGradient
       inkscape:collect="always"
       xlink:href="#linearGradient3587-6-5-1-5-2-1"
       id="linearGradient3214"
       gradientUnits="userSpaceOnUse"
       gradientTransform="rotate(45,-6.6146827,-50.612924)"
       x1="20.534313"
       y1="-4.3515615"
       x2="26.152533"
       y2="1.2666581" />
    <linearGradient
       id="linearGradient3587-6-5-1-5-2-7">
      <stop
         offset="0"
         style="stop-color:#000000;stop-opacity:1"
         id="stop3589-9-2-8-5-0-9" />
      <stop
         offset="1"
         style="stop-color:#646464;stop-opacity:1"
         id="stop3591-7-4-3-0-1-5" />
    </linearGradient>
    <linearGradient
       id="linearGradient3732-77-2"
       inkscape:collect="always">
      <stop
         id="stop3734-3-2"
         offset="0"
         style="stop-color:#000000;stop-opacity:1;" />
      <stop
         id="stop3736-71-0"
         offset="1"
         style="stop-color:#000000;stop-opacity:0;" />
    </linearGradient>
    <linearGradient
       inkscape:collect="always"
       id="linearGradient3788-8">
      <stop
         style="stop-color:#ffffff;stop-opacity:1;"
         offset="0"
         id="stop3790-7" />
      <stop
         style="stop-color:#ffffff;stop-opacity:0;"
         offset="1"
         id="stop3792-4" />
    </linearGradient>
    <linearGradient
       inkscape:collect="always"
       xlink:href="#linearGradient3788-8"
       id="linearGradient3298"
       gradientUnits="userSpaceOnUse"
       gradientTransform="matrix(1.1333334,0,0,0.99999997,-5.0666667,42)"
       x1="8.1313992"
       y1="19.049677"
       x2="8.1313992"
       y2="15.935893" />
    <linearGradient
       inkscape:collect="always"
       xlink:href="#linearGradient3732-77-2"
       id="linearGradient3300"
       gradientUnits="userSpaceOnUse"
       gradientTransform="matrix(0.8666667,0,0,0.73333335,-2.9333334,-61.066667)"
       x1="8.1313992"
       y1="19.049677"
       x2="8.1313992"
       y2="15.935893" />
    <linearGradient
       inkscape:collect="always"
       xlink:href="#linearGradient3587-6-5-1-5-2-7"
       id="linearGradient3302"
       gradientUnits="userSpaceOnUse"
       gradientTransform="rotate(45,-52.784269,0.82232777)"
       x1="20.534313"
       y1="-4.3515615"
       x2="26.152533"
       y2="1.2666581" />
    <linearGradient
       x1="20.534313"
       y1="-4.3515615"
       x2="26.152533"
       y2="1.2666581"
       id="linearGradient6693-5-9"
       xlink:href="#linearGradient3587-6-5-1-5-2-4"
       gradientUnits="userSpaceOnUse"
       gradientTransform="rotate(45,24.578427,37.367009)" />
    <linearGradient
       id="linearGradient3587-6-5-1-5-2-4">
      <stop
         id="stop3589-9-2-8-5-0-4"
         style="stop-color:#000000;stop-opacity:1"
         offset="0" />
      <stop
         id="stop3591-7-4-3-0-1-0"
         style="stop-color:#646464;stop-opacity:1"
         offset="1" />
    </linearGradient>
  </defs>
  <g
     id="active-center">
    <rect
       y="0"
       x="0"
       height="20.625002"
       width="20.625002"
       id="rect3073"
       style="opacity:0.00100002;fill:#3daee9;fill-opacity:1;stroke:none;stroke-width:1.03125" />
    <path
       d="m 15.006504,2.6653759 c 1.634119,0 2.953126,1.318993 2.953126,2.9531238 v 9.3862863 c 0,1.634117 -1.319007,2.953125 -2.953126,2.953125 H 5.6184935 c -1.6341188,0 -2.9531246,-1.319008 -2.9531246,-2.953125 V 5.6184997 c 0,-1.6341308 1.3190058,-2.9531238 2.9531246,-2.9531238 h 9.3880105 m 0,-0.7903758 H 5.6184935 c -2.0559946,0 -3.7434934,1.6874977 -3.7434934,3.7434996 v 9.3862863 c 0,2.057704 1.6874988,3.745215 3.7434934,3.745215 h 9.3862905 c 2.057716,0 3.745215,-1.687511 3.745215,-3.743501 V 5.6184997 c 0,-2.0560019 -1.687499,-3.7434996 -3.743495,-3.7434996 z"
       id="path4-3-7-3-6"
       style="clip-rule:evenodd;fill:#b8c7e0;fill-opacity:1;fill-rule:evenodd;stroke-width:0.0172196;stroke-linejoin:round;stroke-miterlimit:1.41421" />
    <path
       d="M 15.690308,8.7181464 C 15.934195,8.4325484 16.001388,8.0084671 15.875032,7.6389312 15.741345,7.2701433 15.430265,7.0312497 15.083634,7.0312497 H 5.5413894 c -0.3446099,0 -0.6556888,0.2381376 -0.7874408,0.6076815 -0.134358,0.3695359 -0.06109,0.7936242 0.1847259,1.0792152 l 4.7714101,5.5260266 c 0.3345454,0.382767 0.8740334,0.382767 1.2085894,0 z"
       id="path3198"
       style="fill:#1e2431;fill-opacity:1;stroke-width:0.031106" />
  </g>
  <g
     id="hover-center"
     transform="translate(26.28094)">
    <rect
       style="opacity:0.00100002;fill:#3daee9;fill-opacity:1;stroke:none;stroke-width:1.03125"
       id="rect3079"
       width="20.625002"
       height="20.625002"
       x="2.7999999e-07"
       y="2.055437e-15" />
    <path
       d="m 15.006506,2.6653766 c 1.634119,0 2.953126,1.318993 2.953126,2.953124 v 9.3862854 c 0,1.634117 -1.319007,2.953125 -2.953126,2.953125 H 5.6184947 c -1.634118,0 -2.953124,-1.319008 -2.953124,-2.953125 V 5.6185006 c 0,-1.634131 1.319006,-2.953124 2.953124,-2.953124 h 9.3880113 m 0,-0.790376 H 5.6184947 c -2.055994,0 -3.743493,1.687498 -3.743493,3.7435 v 9.3862854 c 0,2.057704 1.687499,3.745215 3.743493,3.745215 h 9.3862913 c 2.057716,0 3.745215,-1.687511 3.745215,-3.743501 V 5.6185006 c 0,-2.056002 -1.687499,-3.7435 -3.743495,-3.7435 z"
       id="path4-3-7-3-6-37"
       style="clip-rule:evenodd;fill:#b8c7e0;fill-opacity:1;fill-rule:evenodd;stroke-width:0.0172196;stroke-linejoin:round;stroke-miterlimit:1.41421" />
    <path
       d="m 15.69031,8.7181466 c 0.243887,-0.285598 0.31108,-0.709679 0.184724,-1.079215 -0.133687,-0.368788 -0.444767,-0.607681 -0.791398,-0.607681 H 5.5413907 c -0.34461,0 -0.655688,0.238137 -0.78744,0.607681 -0.134358,0.369536 -0.06109,0.793624 0.184725,1.079215 l 4.771411,5.5260264 c 0.3345453,0.382767 0.8740333,0.382767 1.2085893,0 z"
       id="path3198-5"
       style="fill:#00cc9a;fill-opacity:1;stroke-width:0.031106" />
  </g>
  <g
     id="pressed-center"
     transform="translate(52.280941)">
    <rect
       y="1.5037651e-16"
       x="-4.4000001e-07"
       height="20.625002"
       width="20.625002"
       id="rect3075"
       style="opacity:0.00100002;fill:#3daee9;fill-opacity:1;stroke:none;stroke-width:1.03125" />
    <path
       d="m 15.006505,2.665376 c 1.634119,0 2.953126,1.318993 2.953126,2.953124 v 9.386286 c 0,1.634117 -1.319007,2.953125 -2.953126,2.953125 H 5.6184952 c -1.634119,0 -2.953125,-1.319008 -2.953125,-2.953125 V 5.6185 c 0,-1.634131 1.319006,-2.953124 2.953125,-2.953124 h 9.3880098 m 0,-0.790376 H 5.6184952 c -2.055995,0 -3.743494,1.687498 -3.743494,3.7435 v 9.386286 c 0,2.057704 1.687499,3.745215 3.743494,3.745215 H 15.004785 C 17.062501,18.750001 18.75,17.06249 18.75,15.0065 V 5.6185 C 18.75,3.562498 17.062501,1.875 15.006505,1.875 Z"
       id="path4-3-7-3-6-9"
       style="clip-rule:evenodd;fill:#b8c7e0;fill-opacity:1;fill-rule:evenodd;stroke-width:0.0172196;stroke-linejoin:round;stroke-miterlimit:1.41421" />
    <path
       d="M 15.690309,8.718146 C 15.934196,8.432548 16.001389,8.008467 15.875033,7.638931 15.741346,7.270143 15.430266,7.03125 15.083635,7.03125 H 5.5413902 c -0.34461,0 -0.655688,0.238137 -0.78744,0.607681 -0.134358,0.369536 -0.06109,0.793624 0.184725,1.079215 l 4.771411,5.526027 c 0.3345448,0.382767 0.8740328,0.382767 1.2085888,0 z"
       id="path3198-2"
       style="fill:#009972;fill-opacity:1;stroke-width:0.031106" />
  </g>
  <g
     id="inactive-center"
     transform="translate(78.28094)">
    <rect
       style="opacity:0.00100002;fill:#bfc3c7;fill-opacity:1;stroke:none;stroke-width:1.03125"
       id="rect3924"
       width="20.625002"
       height="20.625002"
       x="0"
       y="-5.3065381e-08" />
    <path
       d="m 15.006505,2.665376 c 1.634119,0 2.953126,1.318993 2.953126,2.953124 v 9.386286 c 0,1.634117 -1.319007,2.953125 -2.953126,2.953125 H 5.618494 c -1.634118,0 -2.953124,-1.319008 -2.953124,-2.953125 V 5.6185 c 0,-1.634131 1.319006,-2.953124 2.953124,-2.953124 h 9.388011 m 0,-0.790376 H 5.618494 C 3.5625,1.875 1.875001,3.562498 1.875001,5.6185 v 9.386286 c 0,2.057704 1.687499,3.745215 3.743493,3.745215 h 9.386291 C 17.062501,18.750001 18.75,17.06249 18.75,15.0065 V 5.6185 C 18.75,3.562498 17.062501,1.875 15.006505,1.875 Z"
       id="path4-3-7-3-6-2"
       style="clip-rule:evenodd;fill:#fefefe;fill-opacity:1;fill-rule:evenodd;stroke-width:0.0172196;stroke-linejoin:round;stroke-miterlimit:1.41421" />
    <path
       d="M 15.690309,8.718146 C 15.934196,8.432548 16.001389,8.008467 15.875033,7.638931 15.741346,7.270143 15.430266,7.03125 15.083635,7.03125 H 5.54139 c -0.344609,0 -0.655688,0.238137 -0.78744,0.607681 -0.134358,0.369536 -0.06109,0.793624 0.184726,1.079215 l 4.77141,5.526027 c 0.334545,0.382767 0.874033,0.382767 1.208589,0 z"
       id="path3198-8"
       style="fill:#1e2431;fill-opacity:0.40392157;stroke-width:0.031106" />
  </g>
  <g
     id="hover-inactive-center"
     transform="translate(104.28094)">
    <rect
       y="-2.8470194e-15"
       x="-1.4699496e-07"
       height="20.625002"
       width="20.625002"
       id="rect3853"
       style="opacity:0.00100002;fill:#3daee9;fill-opacity:1;stroke:none;stroke-width:1.03125" />
    <path
       d="m 15.006511,2.665376 c 1.634119,0 2.953119,1.318993 2.953119,2.953124 v 9.386286 c 0,1.634117 -1.319,2.953125 -2.953119,2.953125 H 5.6185006 c -1.6341201,0 -2.9531301,-1.319008 -2.9531301,-2.953125 V 5.6185 c 0,-1.634131 1.31901,-2.953124 2.9531301,-2.953124 h 9.3880104 m 0,-0.790376 H 5.6185006 c -2.0560001,0 -3.7435001,1.687498 -3.7435001,3.7435 v 9.386286 c 0,2.057704 1.6875,3.745215 3.7435001,3.745215 H 15.004791 C 17.0625,18.750001 18.75,17.06249 18.75,15.0065 V 5.6185 C 18.75,3.562498 17.0625,1.875 15.006511,1.875 Z"
       id="path4-3-7-3-6-97"
       style="clip-rule:evenodd;fill:#eaebf2;fill-opacity:1;fill-rule:evenodd;stroke-width:0.0172196;stroke-linejoin:round;stroke-miterlimit:1.41421" />
    <path
       d="M 15.690311,8.718146 C 15.934201,8.432548 16.00139,8.008467 15.875041,7.638931 15.741351,7.270143 15.430271,7.03125 15.083641,7.03125 H 5.5413906 c -0.34461,0 -0.6556901,0.238137 -0.7874401,0.607681 -0.13436,0.369536 -0.0611,0.793624 0.18473,1.079215 l 4.77141,5.526027 c 0.3345405,0.382767 0.8740305,0.382767 1.2085905,0 z"
       id="path3198-3"
       style="fill:#00cc9a;fill-opacity:1;stroke-width:0.031106" />
  </g>
</svg>
