<?xml version="1.0" encoding="UTF-8" standalone="no"?>
<svg
   version="1.0"
   width="22.025928"
   height="22"
   id="svg2"
   inkscape:version="1.2.2 (b0a8486541, 2022-12-01)"
   sodipodi:docname="keepabove.svg"
   viewBox="0 0 20.649311 20.625"
   xmlns:inkscape="http://www.inkscape.org/namespaces/inkscape"
   xmlns:sodipodi="http://sodipodi.sourceforge.net/DTD/sodipodi-0.dtd"
   xmlns:xlink="http://www.w3.org/1999/xlink"
   xmlns="http://www.w3.org/2000/svg"
   xmlns:svg="http://www.w3.org/2000/svg"
   xmlns:rdf="http://www.w3.org/1999/02/22-rdf-syntax-ns#"
   xmlns:cc="http://creativecommons.org/ns#"
   xmlns:dc="http://purl.org/dc/elements/1.1/">
  <g
     id="pressed-inactive-center"
     transform="translate(130.24999)">
    <rect
       style="opacity:0.00100002;fill:#3daee9;fill-opacity:1;stroke:none;stroke-width:1.03125"
       id="rect3854"
       width="20.625002"
       height="20.625002"
       x="3.2364554e-07"
       y="5.3065374e-08" />
    <path
       d="m 15.00651,2.6653755 c 1.63412,0 2.95312,1.318993 2.95312,2.953123 v 9.3862875 c 0,1.63412 -1.319,2.953126 -2.95312,2.953126 H 5.6184996 c -1.63412,0 -2.95313,-1.319006 -2.95313,-2.953126 V 5.6184985 c 0,-1.63413 1.31901,-2.953123 2.95313,-2.953123 H 15.00651 m 0,-0.790376 H 5.6184996 c -2.056,0 -3.7435,1.687498 -3.7435,3.743499 v 9.3862875 c 0,2.057704 1.6875,3.745215 3.7435,3.745215 H 15.00479 c 2.05771,0 3.74521,-1.687511 3.74521,-3.7435 V 5.6184985 c 0,-2.056001 -1.6875,-3.743499 -3.74349,-3.743499 z"
       id="path4-3-7-3-2"
       style="clip-rule:evenodd;fill:#f9f9fb;fill-opacity:1;fill-rule:evenodd;stroke-width:0.0172195;stroke-linejoin:round;stroke-miterlimit:1.41421" />
    <path
       d="m 4.9346896,12.375603 c -0.24389,0.285598 -0.31108,0.70968 -0.18472,1.079215 0.13368,0.368788 0.44476,0.607683 0.7914,0.607683 H 15.08361 c 0.34461,0 0.65569,-0.238137 0.78744,-0.607683 0.13436,-0.369535 0.0611,-0.793624 -0.18472,-1.079215 L 10.91492,6.8495745 c -0.33455,-0.382766 -0.87404,-0.382766 -1.2085904,0 z"
       id="path3198-02"
       style="fill:#a3759a;fill-opacity:1;stroke-width:0.031106" />
  </g>
  <sodipodi:namedview
     pagecolor="#ffffff"
     bordercolor="#000000"
     borderopacity="1"
     objecttolerance="10"
     gridtolerance="10"
     guidetolerance="10"
     inkscape:pageopacity="1"
     inkscape:pageshadow="2"
     inkscape:window-width="1920"
     inkscape:window-height="1002"
     id="namedview32"
     showgrid="false"
     inkscape:zoom="5.6568543"
     inkscape:cx="60.104076"
     inkscape:cy="20.948038"
     inkscape:window-x="0"
     inkscape:window-y="0"
     inkscape:window-maximized="1"
     inkscape:current-layer="svg2"
     inkscape:document-rotation="0"
     inkscape:lockguides="false"
     inkscape:pagecheckerboard="0"
     inkscape:showpageshadow="2"
     inkscape:deskcolor="#c9cdcf"
     showguides="false">
    <inkscape:grid
       type="xygrid"
       id="grid3129" />
  </sodipodi:namedview>
  <metadata
     id="metadata11">
    <rdf:RDF>
      <cc:Work
         rdf:about="">
        <dc:format>image/svg+xml</dc:format>
        <dc:type
           rdf:resource="http://purl.org/dc/dcmitype/StillImage" />
      </cc:Work>
    </rdf:RDF>
  </metadata>
  <defs
     id="defs4">
    <linearGradient
       id="linearGradient3587-6-5">
      <stop
         id="stop3589-9-2"
         style="stop-color:#000000;stop-opacity:1"
         offset="0" />
      <stop
         id="stop3591-7-4"
         style="stop-color:#646464;stop-opacity:1"
         offset="1" />
    </linearGradient>
    <linearGradient
       x1="7.0799088"
       y1="7.6944885"
       x2="11.317808"
       y2="11.932388"
       id="linearGradient2388"
       xlink:href="#linearGradient3587-6-5"
       gradientUnits="userSpaceOnUse"
       gradientTransform="rotate(45,12.12132,10.707107)" />
    <linearGradient
       x1="8.1313992"
       y1="19.049677"
       x2="8.1313992"
       y2="15.935893"
       id="linearGradient5038"
       xlink:href="#linearGradient3732-77"
       gradientUnits="userSpaceOnUse"
       gradientTransform="matrix(0.8666667,0,0,0.73333335,2.0666666,-16.066667)" />
    <linearGradient
       id="linearGradient3732-77">
      <stop
         id="stop3734-3"
         style="stop-color:#000000;stop-opacity:1"
         offset="0" />
      <stop
         id="stop3736-71"
         style="stop-color:#000000;stop-opacity:0"
         offset="1" />
    </linearGradient>
    <linearGradient
       x1="8.1313992"
       y1="19.049677"
       x2="8.1313992"
       y2="15.935893"
       id="linearGradient3794"
       xlink:href="#linearGradient3788"
       gradientUnits="userSpaceOnUse"
       gradientTransform="matrix(1.1333334,0,0,0.99999997,-0.06666673,-2.9999999)" />
    <linearGradient
       id="linearGradient3788">
      <stop
         id="stop3790"
         style="stop-color:#ffffff;stop-opacity:1"
         offset="0" />
      <stop
         id="stop3792"
         style="stop-color:#ffffff;stop-opacity:0"
         offset="1" />
    </linearGradient>
    <linearGradient
       x1="22.863201"
       y1="-0.94923496"
       x2="26.23391"
       y2="2.4214737"
       id="linearGradient6695"
       xlink:href="#linearGradient3587-6-5-1-5"
       gradientUnits="userSpaceOnUse"
       gradientTransform="rotate(45,4.0355353,-15.642136)" />
    <linearGradient
       id="linearGradient3587-6-5-1-5">
      <stop
         id="stop3589-9-2-8-5"
         style="stop-color:#000000;stop-opacity:1"
         offset="0" />
      <stop
         id="stop3591-7-4-3-0"
         style="stop-color:#646464;stop-opacity:1"
         offset="1" />
    </linearGradient>
    <linearGradient
       x1="19.490692"
       y1="-4.321744"
       x2="22.886868"
       y2="-0.92556846"
       id="linearGradient6693"
       xlink:href="#linearGradient3587-6-5-1-5"
       gradientUnits="userSpaceOnUse"
       gradientTransform="rotate(45,4.0355353,-15.642136)" />
    <linearGradient
       id="linearGradient3059">
      <stop
         id="stop3061"
         style="stop-color:#000000;stop-opacity:1"
         offset="0" />
      <stop
         id="stop3063"
         style="stop-color:#646464;stop-opacity:1"
         offset="1" />
    </linearGradient>
    <linearGradient
       x1="20.534313"
       y1="-4.3515615"
       x2="26.152533"
       y2="1.2666581"
       id="linearGradient6693-5"
       xlink:href="#linearGradient3587-6-5-1-5-2"
       gradientUnits="userSpaceOnUse"
       gradientTransform="rotate(45,4.0355353,-15.642136)" />
    <linearGradient
       id="linearGradient3587-6-5-1-5-2">
      <stop
         id="stop3589-9-2-8-5-0"
         style="stop-color:#000000;stop-opacity:1"
         offset="0" />
      <stop
         id="stop3591-7-4-3-0-1"
         style="stop-color:#646464;stop-opacity:1"
         offset="1" />
    </linearGradient>
    <linearGradient
       x1="19.490692"
       y1="-4.321744"
       x2="22.886868"
       y2="-0.92556846"
       id="linearGradient3054"
       xlink:href="#linearGradient3587-6-5-1-5-2"
       gradientUnits="userSpaceOnUse"
       gradientTransform="rotate(45,3.1568563,-28.006097)" />
    <linearGradient
       x1="20.534313"
       y1="-4.3515615"
       x2="26.152533"
       y2="1.2666581"
       id="linearGradient6693-5-4"
       xlink:href="#linearGradient3587-6-5-1-5-2-1"
       gradientUnits="userSpaceOnUse"
       gradientTransform="rotate(45,-6.6146827,-50.612924)" />
    <linearGradient
       id="linearGradient3587-6-5-1-5-2-1">
      <stop
         id="stop3589-9-2-8-5-0-2"
         style="stop-color:#000000;stop-opacity:1"
         offset="0" />
      <stop
         id="stop3591-7-4-3-0-1-4"
         style="stop-color:#646464;stop-opacity:1"
         offset="1" />
    </linearGradient>
    <linearGradient
       x1="8.1313992"
       y1="19.049677"
       x2="8.1313992"
       y2="15.935893"
       id="linearGradient5038-3"
       xlink:href="#linearGradient3732-77-1"
       gradientUnits="userSpaceOnUse"
       gradientTransform="matrix(0.8666667,0,0,0.73333335,-25.780791,-13.354803)" />
    <linearGradient
       id="linearGradient3732-77-1">
      <stop
         id="stop3734-3-1"
         style="stop-color:#000000;stop-opacity:1"
         offset="0" />
      <stop
         id="stop3736-71-8"
         style="stop-color:#000000;stop-opacity:0"
         offset="1" />
    </linearGradient>
    <linearGradient
       x1="8.1313992"
       y1="19.049677"
       x2="8.1313992"
       y2="15.935893"
       id="linearGradient3794-3"
       xlink:href="#linearGradient3788-3"
       gradientUnits="userSpaceOnUse"
       gradientTransform="matrix(1.1333334,0,0,0.99999997,-27.914124,-5.7118643)" />
    <linearGradient
       id="linearGradient3788-3">
      <stop
         id="stop3790-8"
         style="stop-color:#ffffff;stop-opacity:1"
         offset="0" />
      <stop
         id="stop3792-3"
         style="stop-color:#ffffff;stop-opacity:0"
         offset="1" />
    </linearGradient>
    <linearGradient
       inkscape:collect="always"
       xlink:href="#linearGradient3788-3"
       id="linearGradient3210"
       gradientUnits="userSpaceOnUse"
       gradientTransform="matrix(1.1333334,0,0,0.99999997,-27.914124,-5.7118643)"
       x1="8.1313992"
       y1="19.049677"
       x2="8.1313992"
       y2="15.935893" />
    <linearGradient
       inkscape:collect="always"
       xlink:href="#linearGradient3732-77-1"
       id="linearGradient3212"
       gradientUnits="userSpaceOnUse"
       gradientTransform="matrix(0.8666667,0,0,0.73333335,-25.780791,-13.354803)"
       x1="8.1313992"
       y1="19.049677"
       x2="8.1313992"
       y2="15.935893" />
    <linearGradient
       inkscape:collect="always"
       xlink:href="#linearGradient3587-6-5-1-5-2-1"
       id="linearGradient3214"
       gradientUnits="userSpaceOnUse"
       gradientTransform="rotate(45,-6.6146827,-50.612924)"
       x1="20.534313"
       y1="-4.3515615"
       x2="26.152533"
       y2="1.2666581" />
    <linearGradient
       id="linearGradient3587-6-5-1-5-2-7">
      <stop
         offset="0"
         style="stop-color:#000000;stop-opacity:1"
         id="stop3589-9-2-8-5-0-9" />
      <stop
         offset="1"
         style="stop-color:#646464;stop-opacity:1"
         id="stop3591-7-4-3-0-1-5" />
    </linearGradient>
    <linearGradient
       id="linearGradient3732-77-2"
       inkscape:collect="always">
      <stop
         id="stop3734-3-2"
         offset="0"
         style="stop-color:#000000;stop-opacity:1;" />
      <stop
         id="stop3736-71-0"
         offset="1"
         style="stop-color:#000000;stop-opacity:0;" />
    </linearGradient>
    <linearGradient
       inkscape:collect="always"
       id="linearGradient3788-8">
      <stop
         style="stop-color:#ffffff;stop-opacity:1;"
         offset="0"
         id="stop3790-7" />
      <stop
         style="stop-color:#ffffff;stop-opacity:0;"
         offset="1"
         id="stop3792-4" />
    </linearGradient>
    <linearGradient
       inkscape:collect="always"
       xlink:href="#linearGradient3788-8"
       id="linearGradient3298"
       gradientUnits="userSpaceOnUse"
       gradientTransform="matrix(1.1333334,0,0,0.99999997,-5.0666667,42)"
       x1="8.1313992"
       y1="19.049677"
       x2="8.1313992"
       y2="15.935893" />
    <linearGradient
       inkscape:collect="always"
       xlink:href="#linearGradient3732-77-2"
       id="linearGradient3300"
       gradientUnits="userSpaceOnUse"
       gradientTransform="matrix(0.8666667,0,0,0.73333335,-2.9333334,-61.066667)"
       x1="8.1313992"
       y1="19.049677"
       x2="8.1313992"
       y2="15.935893" />
    <linearGradient
       inkscape:collect="always"
       xlink:href="#linearGradient3587-6-5-1-5-2-7"
       id="linearGradient3302"
       gradientUnits="userSpaceOnUse"
       gradientTransform="rotate(45,-52.784269,0.82232777)"
       x1="20.534313"
       y1="-4.3515615"
       x2="26.152533"
       y2="1.2666581" />
    <linearGradient
       x1="20.534313"
       y1="-4.3515615"
       x2="26.152533"
       y2="1.2666581"
       id="linearGradient6693-5-9"
       xlink:href="#linearGradient3587-6-5-1-5-2-4"
       gradientUnits="userSpaceOnUse"
       gradientTransform="rotate(45,24.578427,37.367009)" />
    <linearGradient
       id="linearGradient3587-6-5-1-5-2-4">
      <stop
         id="stop3589-9-2-8-5-0-4"
         style="stop-color:#000000;stop-opacity:1"
         offset="0" />
      <stop
         id="stop3591-7-4-3-0-1-0"
         style="stop-color:#646464;stop-opacity:1"
         offset="1" />
    </linearGradient>
  </defs>
  <g
     id="active-center">
    <rect
       y="0"
       x="5.2939559e-23"
       height="20.625002"
       width="20.649309"
       id="rect3058-6"
       style="opacity:0.00100002;fill:#3daee9;fill-opacity:1;stroke:none;stroke-width:1.03185" />
    <path
       d="m 15.006508,2.6653759 c 1.634119,0 2.953126,1.3189927 2.953126,2.9531235 v 9.3862876 c 0,1.63412 -1.319007,2.953126 -2.953126,2.953126 H 5.6184954 c -1.6341202,0 -2.9531262,-1.319006 -2.9531262,-2.953126 V 5.6184994 c 0,-1.6341308 1.319006,-2.9531235 2.9531262,-2.9531235 h 9.3880126 m 0,-0.7903758 H 5.6184954 c -2.0559952,0 -3.7434953,1.6874975 -3.7434953,3.7434993 v 9.3862876 c 0,2.057704 1.6875001,3.745215 3.7434953,3.745215 h 9.3862926 c 2.057716,0 3.745213,-1.687511 3.745213,-3.7435 V 5.6184994 c 0,-2.0560018 -1.687497,-3.7434993 -3.743493,-3.7434993 z"
       id="path4-3-7-3"
       style="clip-rule:evenodd;fill:#b8c7e0;fill-opacity:1;fill-rule:evenodd;stroke-width:0.0172195;stroke-linejoin:round;stroke-miterlimit:1.41421" />
    <path
       d="m 4.9346908,12.375603 c -0.2438859,0.285598 -0.3110803,0.70968 -0.1847242,1.079216 0.1336881,0.368788 0.4447674,0.607683 0.7913994,0.607683 h 9.542245 c 0.34461,0 0.655689,-0.238137 0.787442,-0.607683 0.134358,-0.369536 0.06109,-0.793625 -0.184726,-1.079216 L 10.914916,6.8495749 c -0.334546,-0.3827658 -0.874034,-0.3827658 -1.2085909,0 z"
       id="path3198"
       style="fill:#1e2431;fill-opacity:1;stroke-width:0.031106" />
  </g>
  <g
     id="hover-center"
     transform="translate(26.25)">
    <rect
       style="opacity:0.00100002;fill:#3daee9;fill-opacity:1;stroke:none;stroke-width:1.03125"
       id="rect3079"
       width="20.625002"
       height="20.625002"
       x="2.520548e-08"
       y="-1.0498831e-23" />
    <path
       d="m 15.006509,2.6653755 c 1.634119,0 2.953126,1.318993 2.953126,2.953123 v 9.3862875 c 0,1.63412 -1.319007,2.953126 -2.953126,2.953126 H 5.6184951 c -1.63412,0 -2.953126,-1.319006 -2.953126,-2.953126 V 5.6184985 c 0,-1.63413 1.319006,-2.953123 2.953126,-2.953123 h 9.3880139 m 0,-0.790376 H 5.6184951 c -2.055995,0 -3.743495,1.687498 -3.743495,3.743499 v 9.3862875 c 0,2.057704 1.6875,3.745215 3.743495,3.745215 h 9.3862939 c 2.057716,0 3.745213,-1.687511 3.745213,-3.7435 V 5.6184985 c 0,-2.056001 -1.687497,-3.743499 -3.743493,-3.743499 z"
       id="path4-3-7-3-6"
       style="clip-rule:evenodd;fill:#b8c7e0;fill-opacity:1;fill-rule:evenodd;stroke-width:0.0172195;stroke-linejoin:round;stroke-miterlimit:1.41421" />
    <path
       d="m 4.9346911,12.375602 c -0.243886,0.285598 -0.311081,0.70968 -0.184724,1.079216 0.133688,0.368788 0.444767,0.607683 0.791399,0.607683 h 9.5422459 c 0.34461,0 0.655689,-0.238137 0.787442,-0.607683 0.134358,-0.369536 0.06109,-0.793625 -0.184726,-1.079216 L 10.914917,6.8495745 c -0.334546,-0.382766 -0.874035,-0.382766 -1.2085919,0 z"
       id="path3198-0"
       style="fill:#b893af;fill-opacity:1;stroke-width:0.031106" />
  </g>
  <g
     id="pressed-center"
     transform="translate(52.249991)">
    <rect
       y="5.3065374e-08"
       x="0"
       height="20.625002"
       width="20.625002"
       id="rect3838"
       style="opacity:0.00100002;fill:#3daee9;fill-opacity:1;stroke:none;stroke-width:1.03125" />
    <path
       d="m 15.006508,2.6653758 c 1.634119,0 2.953126,1.318993 2.953126,2.953123 v 9.3862882 c 0,1.63412 -1.319007,2.953126 -2.953126,2.953126 H 5.6184952 c -1.63412,0 -2.953126,-1.319006 -2.953126,-2.953126 V 5.6184988 c 0,-1.63413 1.319006,-2.953123 2.953126,-2.953123 h 9.3880128 m 0,-0.790376 H 5.6184952 c -2.055995,0 -3.743495,1.687498 -3.743495,3.743499 v 9.3862882 c 0,2.057704 1.6875,3.745215 3.743495,3.745215 h 9.3862928 c 2.057716,0 3.745213,-1.687511 3.745213,-3.7435 V 5.6184988 c 0,-2.056001 -1.687497,-3.743499 -3.743493,-3.743499 z"
       id="path4-3-7-3-62"
       style="clip-rule:evenodd;fill:#b8c7e0;fill-opacity:1;fill-rule:evenodd;stroke-width:0.0172195;stroke-linejoin:round;stroke-miterlimit:1.41421" />
    <path
       d="m 4.9346912,12.375603 c -0.243886,0.285598 -0.311081,0.70968 -0.184724,1.079216 0.133688,0.368788 0.444767,0.607683 0.791399,0.607683 h 9.5422448 c 0.34461,0 0.655689,-0.238137 0.787442,-0.607683 0.134358,-0.369536 0.06109,-0.793625 -0.184726,-1.079216 L 10.914916,6.8495748 c -0.334546,-0.382766 -0.874034,-0.382766 -1.2085908,0 z"
       id="path3198-6"
       style="fill:#a3759a;fill-opacity:1;stroke-width:0.031106" />
  </g>
  <g
     id="inactive-center"
     transform="translate(78.249986)">
    <rect
       style="opacity:0.00100002;fill:#bfc3c7;fill-opacity:1;stroke:none;stroke-width:1.03125"
       id="rect3890"
       width="20.625002"
       height="20.625002"
       x="1.4699496e-07"
       y="5.3065374e-08" />
    <path
       d="m 15.006508,2.6653755 c 1.634119,0 2.953126,1.318993 2.953126,2.953123 v 9.3862875 c 0,1.63412 -1.319007,2.953126 -2.953126,2.953126 H 5.6184948 c -1.6341201,0 -2.9531261,-1.319006 -2.9531261,-2.953126 V 5.6184985 c 0,-1.63413 1.319006,-2.953123 2.9531261,-2.953123 h 9.3880132 m 0,-0.790376 H 5.6184948 c -2.0559951,0 -3.743495,1.687498 -3.743495,3.743499 v 9.3862875 c 0,2.057704 1.6874999,3.745215 3.743495,3.745215 h 9.3862932 c 2.057716,0 3.745213,-1.687511 3.745213,-3.7435 V 5.6184985 c 0,-2.056001 -1.687497,-3.743499 -3.743493,-3.743499 z"
       id="path4-3-7-3-1"
       style="clip-rule:evenodd;fill:#ffffff;fill-opacity:1;fill-rule:evenodd;stroke-width:0.0172195;stroke-linejoin:round;stroke-miterlimit:1.41421" />
    <path
       d="m 4.9346908,12.375603 c -0.243886,0.285598 -0.311081,0.70968 -0.184724,1.079215 0.133688,0.368788 0.444767,0.607683 0.791399,0.607683 h 9.5422452 c 0.34461,0 0.655689,-0.238137 0.787442,-0.607683 0.134358,-0.369535 0.06109,-0.793624 -0.184726,-1.079215 L 10.914916,6.8495745 c -0.334546,-0.382766 -0.874034,-0.382766 -1.2085912,0 z"
       id="path3198-8"
       style="fill:#1e2431;fill-opacity:0.3764706;stroke-width:0.031106" />
  </g>
  <g
     id="hover-inactive-center"
     transform="translate(104.24998)">
    <rect
       y="-2.8470194e-15"
       x="3.6748742e-07"
       height="20.625002"
       width="20.625002"
       id="rect3846"
       style="opacity:0.00100002;fill:#3daee9;fill-opacity:1;stroke:none;stroke-width:1.03125" />
    <path
       d="m 15.006501,2.665376 c 1.634121,0 2.953131,1.318993 2.953131,2.953123 v 9.386288 c 0,1.63412 -1.31901,2.953126 -2.953131,2.953126 H 5.6184912 c -1.6341201,0 -2.9531201,-1.319006 -2.9531201,-2.953126 V 5.618499 c 0,-1.63413 1.319,-2.953123 2.9531201,-2.953123 h 9.3880098 m 0,-0.790376 H 5.6184912 c -2.0559901,0 -3.7434901,1.687498 -3.7434901,3.743499 v 9.386288 c 0,2.057704 1.6875,3.745215 3.7434901,3.745215 h 9.3862998 c 2.057711,0 3.745211,-1.687511 3.745211,-3.7435 V 5.618499 c 0,-2.056001 -1.6875,-3.743499 -3.743501,-3.743499 z"
       id="path4-3-7-3-7"
       style="clip-rule:evenodd;fill:#fffff9;fill-opacity:1;fill-rule:evenodd;stroke-width:0.0172195;stroke-linejoin:round;stroke-miterlimit:1.41421" />
    <path
       d="m 4.9346912,12.375603 c -0.2438901,0.285598 -0.3110801,0.70968 -0.1847301,1.079216 0.1336901,0.368788 0.4447701,0.607683 0.7914001,0.607683 h 9.5422498 c 0.34461,0 0.65569,-0.238137 0.787441,-0.607683 0.13436,-0.369536 0.0611,-0.793625 -0.184731,-1.079216 l -4.77141,-5.526028 c -0.33454,-0.382766 -0.87403,-0.382766 -1.2085899,0 z"
       id="path3198-9"
       style="fill:#b893af;fill-opacity:1;stroke-width:0.031106" />
  </g>
</svg>
