<?xml version="1.0" encoding="UTF-8" standalone="no"?>
<svg
   version="1.1"
   viewBox="0 0 32 32"
   id="svg69"
   sodipodi:docname="user-trash.svg"
   inkscape:version="1.2.1 (9c6d41e410, 2022-07-14)"
   xmlns:inkscape="http://www.inkscape.org/namespaces/inkscape"
   xmlns:sodipodi="http://sodipodi.sourceforge.net/DTD/sodipodi-0.dtd"
   xmlns:xlink="http://www.w3.org/1999/xlink"
   xmlns="http://www.w3.org/2000/svg"
   xmlns:svg="http://www.w3.org/2000/svg"
   xmlns:rdf="http://www.w3.org/1999/02/22-rdf-syntax-ns#"
   xmlns:cc="http://creativecommons.org/ns#"
   xmlns:dc="http://purl.org/dc/elements/1.1/">
  <style
     id="current-color-scheme"
     type="text/css">
.ColorScheme-Highlight { 
    color:#5e81ac;
}
</style>
  <metadata
     id="metadata73">
    <rdf:RDF>
      <cc:Work
         rdf:about="">
        <dc:format>image/svg+xml</dc:format>
        <dc:type
           rdf:resource="http://purl.org/dc/dcmitype/StillImage" />
      </cc:Work>
    </rdf:RDF>
  </metadata>
  <sodipodi:namedview
     pagecolor="#ffffff"
     bordercolor="#666666"
     borderopacity="1"
     objecttolerance="10"
     gridtolerance="10"
     guidetolerance="10"
     inkscape:pageopacity="0"
     inkscape:pageshadow="2"
     inkscape:window-width="1920"
     inkscape:window-height="1004"
     id="namedview71"
     showgrid="true"
     inkscape:zoom="9.8125003"
     inkscape:cx="-13.910828"
     inkscape:cy="-3.210191"
     inkscape:window-x="0"
     inkscape:window-y="0"
     inkscape:window-maximized="1"
     inkscape:current-layer="svg69"
     inkscape:showpageshadow="2"
     inkscape:pagecheckerboard="0"
     inkscape:deskcolor="#d1d1d1">
    <inkscape:grid
       type="xygrid"
       id="grid1004" />
  </sodipodi:namedview>
  <defs
     id="defs12">
    <radialGradient
       id="d"
       cx="20.571428"
       cy="8.5"
       r="4"
       gradientTransform="matrix(3.7417788,-6.8149882e-8,2.7200184e-8,1.5,-60.947427,-4.7499983)"
       gradientUnits="userSpaceOnUse">
      <stop
         stop-color="#4f575f"
         stop-opacity=".25098041"
         offset="0"
         id="stop2" />
      <stop
         stop-color="#8a939a"
         offset="1"
         id="stop4" />
    </radialGradient>
    <linearGradient
       id="l"
       x1="390.57101"
       x2="410.57101"
       y1="521.79797"
       y2="545.79797"
       gradientTransform="matrix(1 0 0 .91666666 -384.571 -471.31484)"
       gradientUnits="userSpaceOnUse">
      <stop
         stop-color="#bdc3c7"
         offset="0"
         id="stop7" />
      <stop
         stop-color="#8a9696"
         offset="1"
         id="stop9" />
    </linearGradient>
    <linearGradient
       gradientTransform="matrix(0.66667,0,0,0.66667,-26.641,-25.335)"
       xlink:href="#n-6"
       id="r-3"
       x1="127.937"
       y1="160"
       x2="192.189"
       y2="160"
       gradientUnits="userSpaceOnUse" />
    <linearGradient
       id="n-6">
      <stop
         offset="0"
         stop-color="#fff"
         id="stop282" />
      <stop
         offset=".193"
         stop-color="#e0e0e0"
         stop-opacity=".918"
         id="stop284" />
      <stop
         offset=".493"
         stop-color="#c4c4c4"
         stop-opacity=".896"
         id="stop286" />
      <stop
         offset=".786"
         stop-color="#e0e0e0"
         stop-opacity=".945"
         id="stop288" />
      <stop
         offset="1"
         stop-color="#fff"
         id="stop290" />
    </linearGradient>
    <linearGradient
       xlink:href="#m-5"
       id="s-7"
       x1="161"
       y1="126"
       x2="161"
       y2="141"
       gradientUnits="userSpaceOnUse"
       gradientTransform="matrix(0.66667,0,0,0.66667,-26.641,-28.668)" />
    <linearGradient
       id="m-5">
      <stop
         offset="0"
         stop-color="#a3afbb"
         id="stop293" />
      <stop
         offset="1"
         stop-color="#73787d"
         id="stop295" />
    </linearGradient>
  </defs>
  <linearGradient
     id="a">
    <stop
       stop-color="#4f575f"
       stop-opacity=".4"
       offset="0"
       id="stop14" />
    <stop
       stop-color="#4f575f"
       stop-opacity=".6"
       offset=".5"
       id="stop16" />
    <stop
       stop-color="#4f575f"
       stop-opacity=".4"
       offset="1"
       id="stop18" />
  </linearGradient>
  <radialGradient
     id="t"
     cx="16"
     cy="8.5"
     r="4"
     gradientTransform="matrix(1.75,0,0,1.5,-12,-6.75)"
     gradientUnits="userSpaceOnUse">
    <stop
       stop-color="#4f575f"
       stop-opacity=".25"
       offset="0"
       id="stop21" />
    <stop
       stop-color="#9da5ab"
       offset="1"
       id="stop23" />
  </radialGradient>
  <linearGradient
     id="s"
     x1="412.571"
     x2="412.571"
     y1="522.798"
     y2="520.798"
     gradientTransform="translate(-384.571,-514.798)"
     gradientUnits="userSpaceOnUse">
    <stop
       stop-color="#9da5ab"
       offset="0"
       id="stop26" />
    <stop
       stop-color="#bdc3c7"
       offset="1"
       id="stop28" />
  </linearGradient>
  <linearGradient
     id="r"
     x1="395.571"
     x2="395.571"
     y1="520.798"
     y2="516.798"
     gradientTransform="translate(-384.571,-514.798)"
     gradientUnits="userSpaceOnUse">
    <stop
       stop-color="#afb0b3"
       offset="0"
       id="stop31" />
    <stop
       stop-color="#bdc3c7"
       offset="1"
       id="stop33" />
  </linearGradient>
  <linearGradient
     id="q"
     x1="390.57101"
     x2="406.57101"
     y1="521.79797"
     y2="537.79797"
     gradientTransform="matrix(1 0 0 .95454545 -384.571 -490.07991)"
     gradientUnits="userSpaceOnUse">
    <stop
       stop-color="#292c2f"
       offset="0"
       id="stop36" />
    <stop
       stop-opacity="0"
       offset="1"
       id="stop38" />
  </linearGradient>
  <linearGradient
     id="p"
     x1="391.571"
     x2="394.571"
     y1="534.798"
     y2="534.798"
     gradientTransform="matrix(.66667 0 0 .9 -249.047 -463.31817)"
     gradientUnits="userSpaceOnUse"
     xlink:href="#a" />
  <linearGradient
     id="o"
     x1="391.571"
     x2="394.571"
     y1="534.798"
     y2="534.798"
     gradientTransform="matrix(.66667 0 0 .89999994 -254.048 -463.31813)"
     gradientUnits="userSpaceOnUse"
     xlink:href="#a" />
  <linearGradient
     id="n"
     x1="391.571"
     x2="394.571"
     y1="534.798"
     y2="534.798"
     gradientTransform="matrix(.66667 0 0 .9 -243.048 -463.31817)"
     gradientUnits="userSpaceOnUse"
     xlink:href="#a" />
  <linearGradient
     id="m"
     x1="391.571"
     x2="394.571"
     y1="534.798"
     y2="534.798"
     gradientTransform="matrix(.66667 0 0 .9 -238.047 -463.31817)"
     gradientUnits="userSpaceOnUse"
     xlink:href="#a" />
  <g
     color="#000000"
     stroke-linecap="round"
     stroke-linejoin="round"
     id="g396"
     transform="matrix(0.44668728,0,0,0.44668728,1.7656533,1.0439642)">
    <path
       d="m 57.364,12.207 -8.026,42.938 c -5.469,11.683 -32.482,7.987 -34.519,0 L 6.793,12.207 c 0,-10.559 50.571,-10.315 50.571,0 z"
       style="isolation:auto;mix-blend-mode:normal;marker:none"
       overflow="visible"
       fill-opacity="0.082"
       stroke-width="0.123"
       stroke-opacity="0.964"
       id="path386" />
    <path
       style="isolation:auto;mix-blend-mode:normal;fill:url(#r-3);marker:none"
       d="M 104.026,61.332 96.426,102 c -5.18,11.065 -30.764,7.564 -32.694,0 l -7.6,-40.667 c 0,-10 47.894,-9.769 47.894,0 z"
       overflow="visible"
       fill="url(#r)"
       stroke-width="0.117"
       stroke-opacity="0.964"
       transform="translate(-48,-48)"
       id="path388" />
    <path
       d="m 56.026,13.332 -1.27,6.802 C 43.36,25.999 22.026,26.666 9.391,20.072 l -1.26,-6.74 c 0,-10 47.895,-9.769 47.895,0 z"
       style="isolation:auto;mix-blend-mode:normal;marker:none"
       overflow="visible"
       fill="#434666"
       fill-opacity="0.209"
       stroke-width="0.117"
       stroke-opacity="0.964"
       id="path390" />
    <path
       style="isolation:auto;mix-blend-mode:normal;fill:url(#s-7);marker:none"
       d="M 103.11,60.743 A 22.991,6.077 0 0 1 80.12,66.82 22.991,6.077 0 0 1 57.128,60.743 22.991,6.077 0 0 1 80.119,54.666 22.991,6.077 0 0 1 103.11,60.743 Z"
       overflow="visible"
       fill="url(#s)"
       stroke="#ffffff"
       transform="translate(-48,-48)"
       id="path392" />
    <path
       d="M 48.66,52.747 48.424,54 c -5.18,11.065 -30.763,7.564 -32.693,0 l -0.192,-1.027 c 3.153,8.36 29.153,9.694 33.12,-0.225 z"
       style="isolation:auto;mix-blend-mode:normal;marker:none"
       overflow="visible"
       fill="#151634"
       fill-opacity="0.187"
       stroke-width="0.117"
       stroke-opacity="0.964"
       id="path394" />
  </g>
  <path
     d="m 15.308968,15.875751 c -0.409642,0 -0.745015,0.197285 -0.950046,0.558405 l -0.622137,1.265484 1.765481,0.988213 0.895636,-1.747229 0.522359,-1.064873 z"
     style="fill:#008080;fill-opacity:1;stroke-width:0.112344"
     id="path138735-3"
     sodipodi:nodetypes="scccccs" />
  <path
     d="M 15.654631,15.875751 17.101117,18.5 l -0.723452,0.415674 2.303825,0.849423 0.919194,-2.577901 -0.711916,0.426527 -0.754378,-1.452507 C 18.025965,15.974879 17.842088,15.87575 17.604574,15.87575 Z"
     style="fill:#00dada;fill-opacity:1;stroke-width:0.112344"
     id="path142126-67"
     sodipodi:nodetypes="cccccccsc" />
  <path
     d="m 20.613243,21.173145 -0.666486,-1.242098 -1.811748,0.898176 0.899173,1.745368 0.578965,1.281834 0.991781,-2.129909 c 0.119608,-0.25843 0.07379,-0.43525 0.0084,-0.553371 z"
     style="fill:#008080;fill-opacity:1;stroke-width:0.112344"
     id="path138735-0-5"
     sodipodi:nodetypes="ccccccc" />
  <path
     d="m 20.397573,22.170424 -2.554798,-0.0034 0.0063,-0.842509 -1.815526,1.812993 1.813637,1.878739 -0.0087,-0.83781 h 1.265628 c 0.21351,-0.0022 0.389284,-0.114236 0.508957,-0.322064 z"
     style="fill:#00c4c4;fill-opacity:1;stroke-width:0.112344"
     id="path142126-6-3"
     sodipodi:nodetypes="ccccccccc" />
  <path
     d="m 13.071808,23.814134 c 0.166297,0.279992 0.339848,0.293745 0.484578,0.311615 l 1.781842,1.61e-4 v -2.158903 l -2.264704,0.0023 -1.000545,0.01276 z"
     style="fill:#008080;fill-opacity:1;stroke-width:0.112344"
     id="path146733-5"
     sodipodi:nodetypes="ccccccc" />
  <path
     d="m 12.999556,23.680557 1.358828,-2.637822 0.73479,0.394741 -0.810648,-2.424529 -2.482526,0.762118 0.737622,0.379053 -0.584401,1.137215 c -0.09688,0.192753 -0.07026,0.396797 0.047,0.606031 z"
     style="fill:#00d2d2;fill-opacity:1;stroke-width:0.112344"
     id="path146730-6"
     sodipodi:nodetypes="cccccccsc" />
</svg>
